<?xml version="1.0" encoding="UTF-8"?>
<svg width="27px" height="27px" viewBox="0 0 27 27" version="1.1" xmlns="http://www.w3.org/2000/svg" xmlns:xlink="http://www.w3.org/1999/xlink">
    <!-- Generator: Sketch 58 (84663) - https://sketch.com -->
    <title>002-facebook</title>
    <desc>Created with Sketch.</desc>
    <g id="Page-1" stroke="none" stroke-width="1" fill="none" fill-rule="evenodd">
        <g id="Sala-de-Prensa-v6-992" transform="translate(-764.000000, -1190.000000)" fill="#475993" fill-rule="nonzero">
            <g id="Group-4" transform="translate(11.000000, 218.000000)">
                <g id="Group-13-Copy" transform="translate(700.000000, 900.000000)">
                    <g id="Group-7" transform="translate(53.000000, 72.000000)">
                        <g id="002-facebook">
                            <path d="M23.3494548,0 L3.63655012,0 C1.62825183,0 0.00013202934,1.62805379 0.00013202934,3.63641809 L0.00013202934,23.3494548 C0.00013202934,25.3578191 1.62818582,26.9860049 3.63655012,26.9860049 L13.3588606,26.9860049 L13.3754303,17.3425819 L10.8701076,17.3425819 C10.5445232,17.3425819 10.2802665,17.0793154 10.2790122,16.7537311 L10.2669976,13.6452983 C10.2657433,13.3179315 10.5307922,13.0518924 10.8581589,13.0518924 L13.3589267,13.0518924 L13.3589267,10.048357 C13.3589267,6.5627824 15.4877017,4.66486064 18.5970587,4.66486064 L21.1485257,4.66486064 C21.4749682,4.66486064 21.739687,4.92951345 21.739687,5.256022 L21.739687,7.87706846 C21.739687,8.20344499 21.4751663,8.46803178 21.1488557,8.46822983 L19.5830538,8.46895599 C17.892088,8.46895599 17.5646553,9.27248655 17.5646553,10.4517066 L17.5646553,13.0519584 L21.280291,13.0519584 C21.6343276,13.0519584 21.9090147,13.3611051 21.8672934,13.7126993 L21.4988655,16.821132 C21.4636137,17.1185941 21.2113716,17.3427139 20.9118631,17.3427139 L17.5812249,17.3427139 L17.5646553,26.9860049 L23.3495868,26.9860049 C25.3578851,26.9860049 26.9859389,25.3579511 26.9859389,23.3496528 L26.9859389,3.63641809 C26.9859389,1.62805379 25.3578191,0 23.3494548,0 Z" id="Shape"></path>
                        </g>
                    </g>
                </g>
            </g>
        </g>
    </g>
</svg>