<?xml version="1.0" encoding="UTF-8"?>
<svg width="28px" height="28px" viewBox="0 0 28 28" version="1.1" xmlns="http://www.w3.org/2000/svg" xmlns:xlink="http://www.w3.org/1999/xlink">
    <!-- Generator: Sketch 58 (84663) - https://sketch.com -->
    <title>003-instagram</title>
    <desc>Created with Sketch.</desc>
    <defs>
        <linearGradient x1="50%" y1="99.7089109%" x2="50%" y2="0.776721582%" id="linearGradient-1">
            <stop stop-color="#E09B3D" offset="0%"></stop>
            <stop stop-color="#C74C4D" offset="30%"></stop>
            <stop stop-color="#C21975" offset="60%"></stop>
            <stop stop-color="#7024C4" offset="100%"></stop>
        </linearGradient>
        <linearGradient x1="50%" y1="146.098873%" x2="50%" y2="-45.1596833%" id="linearGradient-2">
            <stop stop-color="#E09B3D" offset="0%"></stop>
            <stop stop-color="#C74C4D" offset="30%"></stop>
            <stop stop-color="#C21975" offset="60%"></stop>
            <stop stop-color="#7024C4" offset="100%"></stop>
        </linearGradient>
        <linearGradient x1="50%" y1="658.140556%" x2="50%" y2="-140.029283%" id="linearGradient-3">
            <stop stop-color="#E09B3D" offset="0%"></stop>
            <stop stop-color="#C74C4D" offset="30%"></stop>
            <stop stop-color="#C21975" offset="60%"></stop>
            <stop stop-color="#7024C4" offset="100%"></stop>
        </linearGradient>
    </defs>
    <g id="Page-1" stroke="none" stroke-width="1" fill="none" fill-rule="evenodd">
        <g id="Sala-de-Prensa-v6-992" transform="translate(-880.000000, -1190.000000)" fill-rule="nonzero">
            <g id="Group-4" transform="translate(11.000000, 218.000000)">
                <g id="Group-13-Copy" transform="translate(700.000000, 900.000000)">
                    <g id="Group-7" transform="translate(53.000000, 72.000000)">
                        <g id="003-instagram" transform="translate(116.000000, 0.000000)">
                            <path d="M19.6242464,0 L8.32675362,0 C3.73536232,0 0,3.73536232 0,8.32675362 L0,19.6242464 C0,24.2156377 3.73536232,27.951 8.32675362,27.951 L19.6242464,27.951 C24.2156377,27.951 27.951,24.2156377 27.951,19.6242464 L27.951,8.32675362 C27.951,3.73536232 24.215587,0 19.6242464,0 Z M25.1391304,19.6242464 C25.1391304,22.6700072 22.6700072,25.1391304 19.6242464,25.1391304 L8.32675362,25.1391304 C5.28099275,25.1391304 2.81186957,22.6700072 2.81186957,19.6242464 L2.81186957,8.32675362 C2.81186957,5.28094203 5.28099275,2.81186957 8.32675362,2.81186957 L19.6242464,2.81186957 C22.6700072,2.81186957 25.1391304,5.28094203 25.1391304,8.32675362 L25.1391304,19.6242464 L25.1391304,19.6242464 Z" id="Shape" fill="url(#linearGradient-1)"></path>
                            <path d="M13.9755,6.74637681 C9.98935507,6.74637681 6.74637681,9.98935507 6.74637681,13.9754493 C6.74637681,17.9615435 9.98935507,21.2045725 13.9755,21.2045725 C17.9616449,21.2045725 21.2046232,17.9615942 21.2046232,13.9754493 C21.2046232,9.98930435 17.9616449,6.74637681 13.9755,6.74637681 Z M13.9755,18.3927536 C11.5358986,18.3927536 9.55824638,16.4151014 9.55824638,13.9755 C9.55824638,11.5358986 11.5359493,9.55824638 13.9755,9.55824638 C16.4151014,9.55824638 18.3927536,11.5358986 18.3927536,13.9755 C18.3927536,16.4150507 16.4150507,18.3927536 13.9755,18.3927536 Z" id="Shape" fill="url(#linearGradient-2)"></path>
                            <circle id="Oval" fill="url(#linearGradient-3)" cx="21.2186232" cy="6.80065217" r="1.73224638"></circle>
                        </g>
                    </g>
                </g>
            </g>
        </g>
    </g>
</svg>