<?xml version="1.0" encoding="UTF-8"?>
<svg width="26px" height="22px" viewBox="0 0 26 22" version="1.1" xmlns="http://www.w3.org/2000/svg" xmlns:xlink="http://www.w3.org/1999/xlink">
    <!-- Generator: Sketch 58 (84663) - https://sketch.com -->
    <title>001-twitter</title>
    <desc>Created with Sketch.</desc>
    <g id="Page-1" stroke="none" stroke-width="1" fill="none" fill-rule="evenodd">
        <g id="Sala-de-Prensa-v6-992" transform="translate(-823.000000, -1192.000000)" fill="#1FB2F4" fill-rule="nonzero">
            <g id="Group-4" transform="translate(11.000000, 218.000000)">
                <g id="Group-13-Copy" transform="translate(700.000000, 900.000000)">
                    <g id="Group-7" transform="translate(53.000000, 72.000000)">
                        <g id="001-twitter" transform="translate(59.000000, 2.000000)">
                            <path d="M25.5338978,2.58467836 C24.9574063,2.84462573 24.3589635,3.04970175 23.7448954,3.19816959 C24.421528,2.54434503 24.9302676,1.72654971 25.2172798,0.81374269 L25.2172798,0.81374269 C25.2992019,0.553152047 25.0208564,0.327812865 24.7894501,0.467339181 L24.7894501,0.467339181 C23.9351825,0.982602339 23.0149976,1.3691462 22.0543893,1.61635673 C21.9986569,1.63070175 21.9411533,1.63797076 21.8834599,1.63797076 C21.7084818,1.63797076 21.5383747,1.57190643 21.4045791,1.452 C20.382545,0.536040936 19.0680584,0.0315847953 17.7033431,0.0315847953 C17.1128078,0.0315847953 16.5165791,0.125181287 15.9311679,0.30980117 C14.1173674,0.881865497 12.7178589,2.40327485 12.2787689,4.28035088 C12.1140389,4.9844152 12.0694404,5.68912281 12.1461119,6.3748538 C12.1549051,6.45365497 12.1182774,6.50865497 12.0956934,6.53445029 C12.0560292,6.57967251 11.9997908,6.60559649 11.9414015,6.60559649 C11.9348856,6.60559649 11.92818,6.60527485 11.9215377,6.60463158 C7.95119221,6.22953801 4.37090998,4.28446784 1.84018005,1.12778947 L1.84018005,1.12778947 C1.71112895,0.966777778 1.4636545,0.986526316 1.36079319,1.16593567 L1.36079319,1.16593567 C0.865211679,2.03049708 0.603313869,3.01933918 0.603313869,4.02554971 C0.603313869,5.56760819 1.21257421,7.02083041 2.27085645,8.08023977 C1.82581995,7.97294152 1.39508029,7.80395322 0.994958637,7.57797076 L0.994958637,7.57797076 C0.801381995,7.46861404 0.563206813,7.60916959 0.560486618,7.83431579 L0.560486618,7.83431579 C0.532778589,10.1251462 1.85175669,12.1635556 3.82763017,13.0814444 C3.78783942,13.0824094 3.74804866,13.0828596 3.70819465,13.0828596 C3.3949927,13.0828596 3.07786861,13.0521111 2.76574209,12.9914503 L2.76574209,12.9914503 C2.54774696,12.9491228 2.36460827,13.1594094 2.43229684,13.3743275 L2.43229684,13.3743275 C3.07363017,15.4103567 4.79760097,16.911117 6.8606472,17.2518596 C5.14844282,18.4206257 3.15454015,19.0371404 1.07928467,19.0371404 L0.432321168,19.0367544 C0.232987835,19.0367544 0.0643990268,19.168883 0.0136009732,19.3652105 C-0.0364379562,19.5585789 0.0557323601,19.7625614 0.225712895,19.8631053 C2.56419465,21.2469825 5.23156691,21.978386 7.94062774,21.978386 C10.3119416,21.978386 12.5301022,21.4998538 14.5335572,20.5561696 C16.3701946,19.6910292 17.9932019,18.4543333 19.3574745,16.8804327 C20.6283747,15.4142807 21.6221946,13.7217602 22.3112263,11.8499591 C22.9680584,10.0657076 23.3152311,8.16187135 23.3152311,6.34423392 L23.3152311,6.25764912 C23.3151679,5.96579532 23.4449781,5.69118129 23.6714501,5.50424561 C24.5308418,4.79471345 25.2792117,3.95948538 25.8956837,3.02178363 L25.8956837,3.02178363 C26.0584526,2.77418713 25.8017421,2.46387135 25.5338978,2.58467836 L25.5338978,2.58467836 Z" id="Shape"></path>
                        </g>
                    </g>
                </g>
            </g>
        </g>
    </g>
</svg>