<?xml version="1.0" encoding="UTF-8"?>
<svg width="30px" height="20px" viewBox="0 0 30 20" version="1.1" xmlns="http://www.w3.org/2000/svg" xmlns:xlink="http://www.w3.org/1999/xlink">
    <!-- Generator: Sketch 58 (84663) - https://sketch.com -->
    <title>megaphone</title>
    <desc>Created with Sketch.</desc>
    <g id="Page-1" stroke="none" stroke-width="1" fill="none" fill-rule="evenodd">
        <g id="Sala-de-Prensa-v6-992" transform="translate(-823.000000, -362.000000)" fill="#FF110F" fill-rule="nonzero">
            <g id="Group-4" transform="translate(11.000000, 218.000000)">
                <g id="Group-13" transform="translate(700.000000, 126.000000)">
                    <g id="megaphone" transform="translate(112.000000, 18.000000)">
                        <path d="M21,0 C19.897,0 19,0.897 19,2 L19,2.6335 L3.4775,7.5255 C3.3655,6.6675 2.638,6 1.75,6 C0.785,6 0,6.785 0,7.75 L0,12.25 C0,13.215 0.785,14 1.75,14 C2.638,14 3.3655,13.3325 3.4775,12.4745 L4.5445,12.8105 C4.3865,12.9835 4.26,13.1895 4.183,13.4265 C3.894,14.318 4.384,15.279 5.2765,15.568 L10.984,17.417 L10.9845,17.417 C11.158,17.473 11.3335,17.5 11.5065,17.5 C12.224,17.5 12.8925,17.0415 13.1255,16.323 C13.211,16.058 13.221,15.789 13.179,15.531 L19,17.3665 L19,18 C19,19.103 19.897,20 21,20 C22.103,20 23,19.103 23,18 L23,2 C23,0.897 22.103,0 21,0 Z M12.174,16.0155 C12.055,16.383 11.659,16.5855 11.292,16.466 L5.5845,14.617 C5.217,14.498 5.0145,14.1025 5.134,13.735 C5.2535,13.368 5.6485,13.1665 6.0155,13.285 L11.724,15.134 C12.091,15.253 12.2925,15.6485 12.174,16.0155 Z M2.5,12.25 C2.5,12.6635 2.1635,13 1.75,13 C1.3365,13 1,12.6635 1,12.25 L1,7.75 C1,7.3365 1.3365,7 1.75,7 C2.1635,7 2.5,7.3365 2.5,7.75 L2.5,7.8335 L2.5,12.1665 L2.5,12.25 Z M3.5,11.433 L3.5,8.567 L19,3.6815 L19,16.318 L3.5,11.433 Z M22,18 C22,18.5515 21.5515,19 21,19 C20.4485,19 20,18.5515 20,18 L20,17.6815 L20,2.3185 L20,2 C20,1.4485 20.4485,1 21,1 C21.5515,1 22,1.4485 22,2 L22,18 Z" id="Shape"></path>
                        <path d="M27.5,9.5 L27,9.5 C26.7235,9.5 26.5,9.7235 26.5,10 C26.5,10.2765 26.7235,10.5 27,10.5 L27.5,10.5 C27.7765,10.5 28,10.2765 28,10 C28,9.7235 27.7765,9.5 27.5,9.5 Z" id="Shape"></path>
                        <path d="M25,10.5 L25.5,10.5 C25.7765,10.5 26,10.2765 26,10 C26,9.7235 25.7765,9.5 25.5,9.5 L25,9.5 C24.7235,9.5 24.5,9.7235 24.5,10 C24.5,10.2765 24.7235,10.5 25,10.5 Z" id="Shape"></path>
                        <path d="M29.5,9.5 L29,9.5 C28.7235,9.5 28.5,9.7235 28.5,10 C28.5,10.2765 28.7235,10.5 29,10.5 L29.5,10.5 C29.7765,10.5 30,10.2765 30,10 C30,9.7235 29.7765,9.5 29.5,9.5 Z" id="Shape"></path>
                        <path d="M26.414,3.268 C26.542,3.268 26.67,3.219 26.7675,3.1215 L27.121,2.768 C27.3165,2.5725 27.3165,2.2565 27.121,2.061 C26.9255,1.8655 26.6095,1.8655 26.414,2.061 L26.0605,2.4145 C25.865,2.61 25.865,2.926 26.0605,3.1215 C26.158,3.219 26.286,3.268 26.414,3.268 Z" id="Shape"></path>
                        <path d="M27.8285,1.8535 C27.9565,1.8535 28.0845,1.8045 28.182,1.707 L28.5355,1.3535 C28.731,1.158 28.731,0.842 28.5355,0.6465 C28.34,0.451 28.024,0.451 27.8285,0.6465 L27.475,1 C27.2795,1.1955 27.2795,1.5115 27.475,1.707 C27.573,1.8045 27.7005,1.8535 27.8285,1.8535 Z" id="Shape"></path>
                        <path d="M25,4.682 C25.128,4.682 25.256,4.633 25.3535,4.5355 L25.707,4.182 C25.9025,3.9865 25.9025,3.6705 25.707,3.475 C25.5115,3.2795 25.1955,3.2795 25,3.475 L24.6465,3.8285 C24.451,4.024 24.451,4.34 24.6465,4.5355 C24.744,4.6335 24.872,4.682 25,4.682 Z" id="Shape"></path>
                        <path d="M25.316,6.55 L24.842,6.708 C24.58,6.7955 24.4385,7.0785 24.526,7.3405 C24.596,7.55 24.7905,7.6825 25,7.6825 C25.052,7.6825 25.106,7.674 25.158,7.6565 L25.632,7.4985 C25.894,7.411 26.0355,7.128 25.948,6.866 C25.8605,6.604 25.5775,6.462 25.316,6.55 Z" id="Shape"></path>
                        <path d="M26.8975,7.05 C26.9495,7.05 27.0035,7.0415 27.0555,7.024 L27.5295,6.866 C27.7915,6.7785 27.933,6.4955 27.8455,6.2335 C27.758,5.9715 27.4755,5.8295 27.213,5.9175 L26.739,6.0755 C26.477,6.163 26.3355,6.446 26.423,6.708 C26.493,6.9175 26.688,7.05 26.8975,7.05 Z" id="Shape"></path>
                        <path d="M28.3205,6.0745 C28.3905,6.2845 28.5855,6.417 28.795,6.417 C28.847,6.417 28.9005,6.4085 28.9525,6.3915 L29.4265,6.234 C29.6885,6.1465 29.8305,5.8635 29.7435,5.6015 C29.656,5.3395 29.3725,5.1985 29.111,5.2845 L28.637,5.442 C28.375,5.53 28.2335,5.813 28.3205,6.0745 Z" id="Shape"></path>
                        <path d="M28.182,18.293 C27.9865,18.0975 27.6705,18.0975 27.475,18.293 C27.2795,18.4885 27.2795,18.8045 27.475,19 L27.8285,19.3535 C27.9265,19.451 28.054,19.5 28.182,19.5 C28.31,19.5 28.438,19.451 28.5355,19.3535 C28.731,19.158 28.731,18.842 28.5355,18.6465 L28.182,18.293 Z" id="Shape"></path>
                        <path d="M26.7675,16.8785 C26.572,16.683 26.256,16.683 26.0605,16.8785 C25.865,17.074 25.865,17.39 26.0605,17.5855 L26.414,17.939 C26.5115,18.0365 26.6395,18.0855 26.7675,18.0855 C26.8955,18.0855 27.0235,18.0365 27.121,17.939 C27.3165,17.7435 27.3165,17.4275 27.121,17.232 L26.7675,16.8785 Z" id="Shape"></path>
                        <path d="M25.3535,15.4645 C25.158,15.269 24.842,15.269 24.6465,15.4645 C24.451,15.66 24.451,15.976 24.6465,16.1715 L25,16.525 C25.0975,16.6225 25.2255,16.6715 25.3535,16.6715 C25.4815,16.6715 25.6095,16.6225 25.707,16.525 C25.9025,16.3295 25.9025,16.0135 25.707,15.818 L25.3535,15.4645 Z" id="Shape"></path>
                        <path d="M26.7395,13.9245 L27.2135,14.0825 C27.2655,14.1 27.3195,14.1085 27.3715,14.1085 C27.581,14.1085 27.776,13.976 27.8455,13.7665 C27.933,13.505 27.792,13.2215 27.5295,13.134 L27.0555,12.976 C26.7945,12.8875 26.5105,13.03 26.423,13.292 C26.3355,13.554 26.477,13.837 26.7395,13.9245 Z" id="Shape"></path>
                        <path d="M25.6325,12.502 L25.1585,12.344 C24.897,12.2555 24.6135,12.398 24.526,12.66 C24.4385,12.922 24.5795,13.205 24.842,13.2925 L25.316,13.4505 C25.368,13.468 25.422,13.4765 25.474,13.4765 C25.6835,13.4765 25.8785,13.344 25.948,13.1345 C26.0355,12.8725 25.8945,12.5895 25.6325,12.502 Z" id="Shape"></path>
                        <path d="M29.427,13.766 L28.953,13.6085 C28.692,13.522 28.4075,13.663 28.3205,13.9255 C28.2335,14.187 28.375,14.4705 28.6375,14.558 L29.1115,14.7155 C29.1635,14.7325 29.217,14.741 29.269,14.741 C29.4785,14.741 29.674,14.6085 29.7435,14.3985 C29.8305,14.1365 29.689,13.8535 29.427,13.766 Z" id="Shape"></path>
                    </g>
                </g>
            </g>
        </g>
    </g>
</svg>