<?xml version="1.0" encoding="UTF-8"?>
<svg width="16px" height="12px" viewBox="0 0 16 12" version="1.1" xmlns="http://www.w3.org/2000/svg" xmlns:xlink="http://www.w3.org/1999/xlink">
    <!-- Generator: Sketch 58 (84663) - https://sketch.com -->
    <title>Group 5</title>
    <desc>Created with Sketch.</desc>
    <g id="Page-1" stroke="none" stroke-width="1" fill="none" fill-rule="evenodd">
        <g id="Sala-de-Prensa-v6-992" transform="translate(-726.000000, -520.000000)" fill="#FF110F" fill-rule="nonzero">
            <g id="Group-4" transform="translate(11.000000, 218.000000)">
                <g id="Group-13" transform="translate(700.000000, 126.000000)">
                    <g id="Group-18" transform="translate(15.000000, 172.000000)">
                        <g id="Group-5" transform="translate(0.000000, 4.000000)">
                            <g id="mail" transform="translate(0.000000, 0.605372)">
                                <path d="M13.1307107,2.14228099 L7.96952066,6.69031405 L2.80720661,2.14221488 C2.60165289,1.96112397 2.28833058,1.98102479 2.10730579,2.18644628 C1.92634711,2.39193388 1.94604959,2.7052562 2.15160331,2.88634711 L7.64178512,7.72330579 C7.73547107,7.80581818 7.85256198,7.84707438 7.96958678,7.84707438 C8.08661157,7.84707438 8.2037686,7.80581818 8.29745455,7.72323967 L13.7865124,2.88628099 C13.9919339,2.7052562 14.0117025,2.39186777 13.8306777,2.18638017 C13.6495207,1.98109091 13.3362645,1.9612562 13.1307107,2.14228099 Z" id="Shape"></path>
                                <path d="M14.450314,0.0349752066 L1.48760331,0.0349752066 C0.667371901,0.0349752066 0,0.702280992 0,1.52257851 L0,9.39047934 C0,10.2107769 0.667371901,10.8780826 1.48760331,10.8780826 L14.450314,10.8780826 C15.2705455,10.8780826 15.9379174,10.2107769 15.9379174,9.39047934 L15.9379174,1.52257851 C15.9379174,0.702347107 15.2705455,0.0349752066 14.450314,0.0349752066 Z M14.9461818,9.39047934 C14.9461818,9.66386777 14.7237686,9.88634711 14.450314,9.88634711 L1.48760331,9.88634711 C1.21414876,9.88634711 0.991735537,9.66386777 0.991735537,9.39047934 L0.991735537,1.52257851 C0.991735537,1.24919008 1.21414876,1.02671074 1.48760331,1.02671074 L14.450314,1.02671074 C14.7237686,1.02671074 14.9461818,1.24919008 14.9461818,1.52257851 L14.9461818,9.39047934 Z" id="Shape"></path>
                            </g>
                        </g>
                    </g>
                </g>
            </g>
        </g>
    </g>
</svg>