<?xml version="1.0" encoding="UTF-8"?>
<svg width="87px" height="17px" viewBox="0 0 87 17" version="1.1" xmlns="http://www.w3.org/2000/svg" xmlns:xlink="http://www.w3.org/1999/xlink">
    <!-- Generator: Sketch 58 (84663) - https://sketch.com -->
    <title>Twitter_2010_logo_-_from_Commons</title>
    <desc>Created with Sketch.</desc>
    <g id="Page-1" stroke="none" stroke-width="1" fill="none" fill-rule="evenodd">
        <g id="Sala-de-Prensa-v6-992" transform="translate(-729.000000, -612.000000)" fill="#1FB2F4" fill-rule="nonzero">
            <g id="Group-4" transform="translate(11.000000, 218.000000)">
                <g id="Group-11" transform="translate(700.000000, 376.000000)">
                    <g id="Twitter_2010_logo_-_from_Commons" transform="translate(18.000000, 18.000000)">
                        <path d="M54.4823378,10.467148 C54.4314645,10.476328 54.3788034,10.4726551 54.3270384,10.4818351 L54.5956901,10.4368571 C54.5537561,10.4432813 54.5242892,10.4607242 54.4823378,10.4671484 L54.4823378,10.467148 Z" id="path7"></path>
                        <path d="M9.52426519,13.7606009 C9.52426519,14.2203722 9.3677653,14.6145965 9.05454309,14.9425699 C8.74132099,15.271011 8.36607677,15.4351146 7.92769916,15.4351146 L4.77146906,15.4351146 C3.45655843,15.4351146 2.33282678,14.9458466 1.39960703,13.9663751 C0.466164938,12.9866685 -3.32290162e-07,11.8077436 -3.32290162e-07,10.4274931 L-3.32290162e-07,3.71469077 C-3.32290162e-07,3.24157574 0.155388089,2.84430891 0.466164938,2.52195399 C0.776941788,2.20006721 1.15663196,2.03877269 1.60479084,2.03877269 C2.03983396,2.03877269 2.41374425,2.20311044 2.7240765,2.53155203 C3.03529804,2.85952539 3.19135329,3.25328064 3.19135329,3.71352028 L3.19135329,6.14417503 L7.68494641,6.14417503 C8.09286882,6.14417503 8.44232604,6.29633974 8.73398504,6.60113719 C9.02542171,6.90546652 9.1705843,7.27042765 9.1705843,7.69695685 C9.1705843,8.12254968 9.02542171,8.48844719 8.73509654,8.79301052 C8.44477136,9.09710572 8.0959811,9.24950456 7.68983704,9.24950456 L3.19135329,9.24950456 L3.19135329,10.4258544 C3.19135329,10.8872644 3.34429647,11.2791469 3.65173876,11.6022045 C3.95873651,11.9245587 4.33153531,12.0858534 4.77013524,12.0858534 L7.9270323,12.0858534 C8.3651876,12.0858534 8.74132099,12.2504259 9.05454309,12.5786332 C9.3677653,12.9070743 9.52426519,13.3010636 9.52426519,13.7606009 Z" id="path9"></path>
                        <path d="M46.4891477,13.7606009 C46.4891477,14.2203722 46.3326485,14.6145965 46.0196489,14.9425699 C45.7066483,15.271011 45.3311821,15.4351146 44.8930271,15.4351146 L43.4594069,15.4351146 C42.1444967,15.4351146 41.0207654,14.9458466 40.0875458,13.9663751 C39.1543251,12.9869024 38.68816,11.8077436 38.68816,10.4274931 L38.68816,3.71469077 C38.68816,3.24157574 38.8433266,2.84430891 39.1543251,2.52195399 C39.4651025,2.20006721 39.8445699,2.03877269 40.2929514,2.03877269 C40.7277726,2.03877269 41.1019051,2.20311044 41.4120152,2.53155203 C41.7232368,2.85952539 41.8792918,3.25328064 41.8792918,3.71352028 L41.8792918,6.14417503 L44.6502743,6.14417503 C45.058196,6.14417503 45.4076532,6.29657375 45.6990902,6.60113719 C45.9907493,6.90546652 46.1356894,7.27042765 46.1356894,7.69695685 C46.1356894,8.12254968 45.9907493,8.48821307 45.7004239,8.7927764 C45.4100985,9.09687171 45.0613087,9.24927044 44.6553871,9.24927044 L41.8790697,9.24927044 L41.8790697,10.4258544 C41.8790697,10.8872644 42.0320121,11.2791469 42.3394547,11.6022045 C42.646452,11.9245587 43.0192519,12.0858534 43.4576289,12.0858534 L44.8921376,12.0858534 C45.3300705,12.0858534 45.7064262,12.2504259 46.0194257,12.5786332 C46.3326485,12.9070743 46.4891477,13.3010636 46.4891477,13.7606009 Z" id="path11"></path>
                        <path d="M38.1448564,13.7606009 C38.1448564,14.2203722 37.9883571,14.6145965 37.6753565,14.9425699 C37.3623569,15.271011 36.9868907,15.4351146 36.5487347,15.4351146 L35.1151155,15.4351146 C33.8002053,15.4351146 32.676473,14.9458466 31.7434755,13.9663751 C30.8102558,12.9866685 30.3440908,11.8077436 30.3440908,10.4274931 L30.3440908,3.71469077 C30.3440908,3.24157574 30.4994795,2.84430891 30.8102558,2.52195399 C31.1210333,2.20006721 31.5005006,2.03877269 31.9488822,2.03877269 C32.3837034,2.03877269 32.7578359,2.20311044 33.0679459,2.53155203 C33.3791665,2.85952539 33.5352226,3.25328064 33.5352226,3.71352028 L33.5352226,6.14417503 L36.3062051,6.14417503 C36.7141268,6.14417503 37.063584,6.29657375 37.355021,6.60113719 C37.6466801,6.90546652 37.7916201,7.27042765 37.7916201,7.69695685 C37.7916201,8.12254968 37.6466801,8.48821307 37.3563547,8.7927764 C37.0660293,9.09687171 36.7172395,9.24927044 36.3113178,9.24927044 L33.5354447,9.24927044 L33.5354447,10.4258544 C33.5354447,10.8872644 33.6883881,11.2791469 33.9958296,11.6022045 C34.302828,11.9245587 34.6756268,12.0858534 35.1140039,12.0858534 L36.5485126,12.0858534 C36.9864454,12.0858534 37.3628011,12.2504259 37.6758018,12.5786332 C37.988134,12.9070743 38.1448564,13.3010636 38.1448564,13.7606009 Z" id="path13"></path>
                        <path d="M24.9137209,10.749848 C24.9137209,12.0411411 24.4777891,13.1449191 23.6048129,14.0611849 C22.7320588,14.9772168 21.6810197,15.4351146 20.4514725,15.4351146 C19.3266296,15.4351146 18.3369456,15.0359752 17.4817529,14.2367595 C16.6385647,15.0359752 15.6542166,15.4351146 14.529818,15.4351146 C13.3004928,15.4351146 12.2487863,14.9772168 11.3758101,14.0611849 C10.503279,13.1451542 10.0671243,12.0411411 10.0671243,10.749848 L10.0671243,7.4773715 C10.0671243,7.03445533 10.2131762,6.6629395 10.5063912,6.3616534 C10.7982724,6.0601333 11.1499525,5.90937331 11.559209,5.90937331 C11.9693538,5.90937331 12.3203679,6.0601333 12.6124713,6.3616534 C12.9050199,6.66317362 13.0515157,7.0353917 13.0515157,7.47830787 L13.0515157,10.7519549 C13.0515157,11.1836344 13.1951221,11.5490641 13.4816684,11.8508175 C13.7688811,12.1523382 14.117672,12.3023957 14.5275948,12.3023957 C14.9259584,12.3023957 15.2685238,12.1523382 15.5555144,11.8508175 C15.842505,11.5490641 15.9856671,11.1834003 15.9856671,10.7519549 L15.9856671,7.4965677 C15.9856671,7.06605879 16.1328304,6.69430883 16.4256011,6.38014735 C16.7194823,6.06668811 17.0776103,5.90937331 17.4997596,5.90937331 C17.9099045,5.90937331 18.261807,6.06317664 18.5554673,6.37125156 C18.8491264,6.67862411 18.9956233,7.04803308 18.9956233,7.47830787 L18.9956233,10.7519549 C18.9956233,11.1836344 19.1392297,11.5490641 19.4262202,11.8508175 C19.7127666,12.1523382 20.0559995,12.3023957 20.4539178,12.3023957 C20.8640637,12.3023957 21.2128535,12.1523382 21.4991778,11.8508175 C21.7863905,11.5490641 21.9297747,11.1834003 21.9297747,10.7519549 L21.9297747,7.47830787 C21.9297747,7.04803308 22.0762706,6.67862411 22.3690413,6.37125156 C22.6613667,6.06341077 23.012825,5.90937331 23.4218594,5.90937331 C23.8317822,5.90937331 24.1832405,6.06317664 24.4753438,6.37054919 C24.7678913,6.67792186 24.9141662,7.04686259 24.9141662,7.4773715 L24.9141662,10.749848 L24.9137209,10.749848 Z" id="path15"></path>
                        <path d="M29.2241386,3.34762277 C29.2241386,3.80692592 29.0680825,4.20114942 28.7548608,4.52935689 C28.4418612,4.85756437 28.0666171,5.02213623 27.6291285,5.02213623 C27.1905282,5.02213623 26.8155062,4.85756437 26.5022845,4.52935689 C26.1901734,4.20138354 26.0336741,3.80692592 26.0336741,3.34762277 C26.0336741,2.88761738 26.1901734,2.49386201 26.5022845,2.16565453 C26.8155062,1.83697893 27.1907503,1.67310931 27.6291285,1.67310931 C28.0668392,1.67310931 28.4420833,1.83697893 28.7548608,2.16565453 C29.0680825,2.49386201 29.2241386,2.88785138 29.2241386,3.34762277 Z" id="path17"></path>
                        <path d="M29.2241386,13.7587287 C29.2241386,14.2192016 29.0680825,14.6136598 28.7548608,14.942336 C28.4418612,15.271011 28.0666171,15.4348807 27.6291285,15.4348807 C27.1905282,15.4348807 26.8155062,15.271011 26.5022845,14.942336 C26.1901734,14.6138937 26.0336741,14.2192016 26.0336741,13.7587287 L26.0336741,7.58599363 C26.0336741,7.12551999 26.1901734,6.73106238 26.5022845,6.40262089 C26.8155062,6.07394517 27.1907503,5.90960743 27.6291285,5.90960743 C28.0668392,5.90960743 28.4420833,6.07394517 28.7548608,6.40262089 C29.0680825,6.73082837 29.2241386,7.12551999 29.2241386,7.58599363 L29.2241386,13.7587287 Z" id="path19"></path>
                        <path d="M65.464098,7.69719097 C65.464098,8.12301781 65.3187127,8.48868119 65.027721,8.79347876 C64.7371735,9.09757396 64.3886057,9.24997268 63.9822388,9.24997268 L61.8034663,9.24997268 C61.3964331,9.24997268 61.0507549,9.39932818 60.7662096,9.6985073 C60.480998,9.99698417 60.3391696,10.3598383 60.3391696,10.7873039 L60.3391696,13.8797584 C60.3391696,14.3062872 60.1944517,14.6728871 59.9041263,14.9774507 C59.6138009,15.2831837 59.2659006,15.4348807 58.8597557,15.4348807 C58.4538341,15.4348807 58.1052664,15.2831837 57.8153863,14.9779185 C57.5250609,14.673121 57.3801208,14.3076917 57.3801208,13.8804601 L57.3801208,10.7896449 C57.3801208,9.50935492 57.8124957,8.41493987 58.6779138,7.50663398 C59.543332,6.59856209 60.5859235,6.14394091 61.8054674,6.14394091 L63.982683,6.14394091 C64.3892721,6.14394091 64.7376177,6.29633974 65.0279431,6.60113719 C65.3184906,6.90570064 65.464098,7.27066166 65.464098,7.69719097 L65.464098,7.69719097 Z" id="path21"></path>
                        <path d="M51.483808,15.4348807 C50.2282517,15.4348807 49.0449434,14.9325034 48.1112784,13.9277486 C47.1785041,12.9225249 46.8199319,11.8276416 46.8199319,10.4113402 C46.8199319,10.4113402 46.729011,5.90726634 51.5660593,5.90726634 C55.3507348,5.90726634 56.5029203,8.70686193 56.5029203,10.0889852 C56.5029203,11.187614 56.0256403,11.5776241 54.9394772,11.5776241 L50.1022068,11.5776241 C50.1022068,11.5776241 49.9270334,12.7432046 52.1307034,12.7432046 L54.8912383,12.7432046 C55.5970434,12.7432046 56.1690245,13.3455431 56.1690245,14.0890432 C56.1690245,14.8323083 55.5970434,15.4346468 54.8912383,15.4346468 L51.483808,15.4346468 L51.483808,15.4348807 Z M50.1344401,9.43210213 L53.3104559,9.43210213 C53.3104559,8.33323924 51.730784,8.33323924 51.730784,8.33323924 C51.730784,8.33323924 50.1344401,8.33299964 50.1344401,9.43210213 Z" id="path23"></path>
                        <path d="M86.9975092,7.84116215 C86.1736625,7.98934704 84.9787939,7.83530913 84.3456809,7.55790176 C85.6612585,7.44319306 86.5520183,6.81346548 86.8952511,5.95853411 C86.4210827,6.26590678 84.9483385,6.60066907 84.136051,6.28159139 C84.0955922,6.08049999 84.0515765,5.88900662 84.0068934,5.71577297 C83.3884523,3.3183603 81.2668116,1.38633745 79.0453571,1.61996868 C79.2245316,1.54341813 79.4061514,1.47225191 79.5897723,1.40740638 C79.8329693,1.31517123 81.2688116,1.06843034 81.042954,0.535385849 C80.851775,0.0653141141 79.0978203,0.888876045 78.7679257,0.997264109 C79.2038574,0.825200993 79.9250018,0.528362864 80.0016962,3.6213424e-07 C79.3341256,0.0964493437 78.6785605,0.429338788 78.1723809,0.913222395 C78.3555565,0.706044365 78.4940501,0.45345104 78.5233939,0.18095925 C76.7418733,1.38095313 75.7012829,3.79826425 74.8596505,6.14487739 C74.1987496,5.46903212 73.6114302,4.93692413 73.0861333,4.64078824 C71.6116101,3.80833053 69.8478742,2.93841691 67.0802265,1.85500452 C66.9950846,2.82019663 67.5328312,4.10470043 69.0813803,4.95752483 C68.7461497,4.90976852 68.1325993,5.01675203 67.6426473,5.13942015 C67.8420518,6.24647646 68.4949494,7.15735757 70.2635771,7.59746452 C69.4555128,7.65341438 69.0371425,7.84841921 68.6590078,8.26511625 C69.0269159,9.03483529 69.9261243,9.93962971 71.5409191,9.75352067 C69.7438371,10.5702938 70.8079923,12.0821077 72.2702889,11.8564366 C69.7771821,14.5724582 65.8453444,14.3708987 63.5874322,12.101304 C69.4815218,20.5682144 82.2953986,17.1079899 84.2040746,8.95290054 C85.6361379,8.96507368 86.4759913,8.43085872 86.9975092,7.84116215 Z" id="path25"></path>
                    </g>
                </g>
            </g>
        </g>
    </g>
</svg>