<svg height="40" viewBox="0 0 40 40" width="40" xmlns="http://www.w3.org/2000/svg"><path d="m25.3385938 16.8593359c-.0546485-.1173437-.1723438-.1926562-.3019922-.1926562h-3.95l3.8983203-6.155c.065-.1026563.0689844-.2326563.0103515-.3389844-.0586718-.1066797-.1707031-.1726953-.2920312-.1726953h-5.3333203c-.1263281 0-.2416797.0713281-.2983203.1843359l-5 10c-.0516797.1030078-.0460157.2256641.0146484.3239844.0610156.0983203.1680078.1583203.2836719.1583203h3.4276562l-3.735 8.8706641c-.0636718.1516797-.0069922.3276562.1333203.4136719.0539844.0330078.1139844.0489843.1736719.0489843.0956641 0 .19-.0410156.2553516-.1183203l10.6666797-12.6666797c.0836328-.0992968.1016406-.2379687.0469922-.355625z" fill="#41494f"/></svg>