<?xml version="1.0" encoding="UTF-8"?>
<svg width="40px" height="40px" viewBox="0 0 40 40" version="1.1" xmlns="http://www.w3.org/2000/svg" xmlns:xlink="http://www.w3.org/1999/xlink">
    <!-- Generator: Sketch 64 (93537) - https://sketch.com -->
    <title>ico-cancelar-b</title>
    <desc>Created with Sketch.</desc>
    <g id="ico-cancelar-b" stroke="none" stroke-width="1" fill="none" fill-rule="evenodd">
        <g id="cancelar" transform="translate(10.000000, 10.000000)" fill="#FFFFFF" fill-rule="nonzero">
            <path d="M17.06625,2.92457031 C13.16625,-0.974609375 6.82375,-0.974609375 2.92375,2.92457031 C-0.974570312,6.82375 -0.974570312,13.1678906 2.92375,17.0670703 C4.87375,19.01625 7.43457031,19.9903906 9.99542969,19.9903906 C12.5562891,19.9903906 15.11625,19.0162109 17.06625,17.0670703 C20.9654297,13.1679297 20.9654297,6.82375 17.06625,2.92457031 Z M14.1195703,12.9420703 C14.4453906,13.2678906 14.4453906,13.7945703 14.1195703,14.1203906 C13.9570703,14.2828906 13.74375,14.3645703 13.5303906,14.3645703 C13.3170703,14.3645703 13.1037109,14.2828906 12.9412109,14.1203906 L9.99539063,11.1737109 L7.05039063,14.1195313 C6.88707031,14.2820313 6.67371094,14.3637109 6.46121094,14.3637109 C6.24789063,14.3637109 6.03453125,14.2820313 5.87203125,14.1195313 C5.54621094,13.7937109 5.54621094,13.2662109 5.87203125,12.9412109 L8.81703125,9.99539063 L5.87121094,7.04957031 C5.54539062,6.72375 5.54539062,6.19625 5.87121094,5.87125 C6.19621094,5.54542969 6.72371094,5.54542969 7.04953125,5.87125 L9.99535156,8.81707031 L12.9411719,5.87125 C13.2669922,5.54542969 13.7936719,5.54542969 14.1194922,5.87125 C14.4453125,6.19625 14.4453125,6.72375 14.1194922,7.04957031 L11.1736719,9.99539063 L14.1195703,12.9420703 Z" id="Shape"></path>
        </g>
    </g>
</svg>