<svg height="40" viewBox="0 0 40 40" width="40" xmlns="http://www.w3.org/2000/svg"><path d="m11.697971 16.4532367c-.6806763 1.2743962-1.4083092 2.288599-1.95980675 2.7613527-.58086956.4978744-1.23207729.7504348-1.93545894.7504348-1.41797101 0-3.0737198-1.0126571-5.06173913-3.0958455-1.86164251-1.950628-2.44048309-4.191884-2.59826087-5.728599-.18048309-1.75700482.12009662-3.49227052.76570049-4.42067632.00753623-.01082125.01555555-.02125604.02415459-.03120773.02096618-.02444444.08077294-.09352657.16386473-.18734299 1.29497585.3142029 3.35014493 1.03487922 4.66396135 2.60367149 1.16908213 1.39584545 1.69381643 2.72106285 2.11545894 3.78599035.35333333.8924638.65845411 1.6631884 1.22483092 2.2294686.7589372.758744 1.84608697 1.1447343 2.59729467 1.3327536zm-5.34492752-7.84463767c1.01149758 1.20772947 1.56454106 2.34840577 1.97314009 3.33159417.58357488-.1217391 1.96695653-.5178744 3.08888893-1.6774879.8861835-.9158454 1.3659903-2.50676327 1.6083091-3.63207728-.3890821-.60077295-.8985507-.86966184-1.3907246-1.06763285-.1066667-.04280193-.198744-.07990338-.2603865-.11584541-.1864734-.10879227-.3151691-.97507247-.0720773-2.31874396.1118841-.61835749.2119807-.83932367.2195169-.85545894.0553624-.10550725.0590339-.23101449.0094686-.33980676-.0508212-.11159421-.1515942-.19236715-.2714975-.2178744l-1.062802-.22550725c-.2054106-.04376811-.40743959.08444445-.45613524.28830918-.25410628 1.06444445-.76550725 2.89246377-1.0563285 3.26637681-.02763285.03555556-.08154589.09516909-.13198068.09516909-.1094686 0-.32183575-.21468599-.3363285-.5204831-.02550725-.53439613.17671498-3.21420289.25681159-4.20154589.00869566-.10753623-.0279227-.21391304-.1010628-.29323671-.07314009-.07932368-.17623188-.12434783-.28415459-.12434783h-.90173913c-.2031884 0-.37169082.1573913-.38560386.36009662-.00202899.02927536-.20212561 2.93236715-.38434783 3.87410628-.07574879.39130435-.23323671 1.20550724-.48115942 1.20550724-.03333333 0-.09246377-.0089855-.18502415-.0515942-.44830918-.20666666-.79400966-1.76222222-.92415459-2.3479227-.18115942-.81497585-.18405797-1.61516909-.18405797-1.62299517 0-.11990338-.05565218-.23304348-.15072464-.3062802-.09507246-.07314009-.21864734-.09797101-.33458937-.06734299l-1.09497585.28985507c-.20483092.05429952-.32782609.26328503-.27574879.46869565.00251208.00985508.25188406.99642512.41951691 1.89285025.10202898.54589372-.12927536 1.0963285-.5894686 1.4021256-.10444445.0694686-.20444445.13690821-.29178744.19758454-.17449275.12115942-.40202899.3342029-.6226087.55826087 1.39246377.38434783 3.32937198 1.17429952 4.65381643 2.75565217zm5.61748792 2.19149757c-1.1929469 1.2329469-2.61487923 1.7004831-3.35101449 1.8689855.3231884.8156522.58608695 1.4629952 1.02772947 1.9046377.69082122.6907246 1.75632852 1.0228019 2.41120772 1.1699517.9135266-1.8915942 1.6583575-4.1918841 1.6311111-6.15178744-.0096618-.69642512-.0748792-1.26483092-.1807729-1.7342029-.3090822 1.0331401-.7931401 2.17236714-1.5382609 2.94241544z" fill="#ff4500" transform="translate(13 10)"/></svg>