<?xml version="1.0" encoding="UTF-8"?>
<svg width="40px" height="40px" viewBox="0 0 40 40" version="1.1" xmlns="http://www.w3.org/2000/svg" xmlns:xlink="http://www.w3.org/1999/xlink">
    <!-- Generator: Sketch 64 (93537) - https://sketch.com -->
    <title>ico-asistencia-primaria-b</title>
    <desc>Created with Sketch.</desc>
    <g id="ico-asistencia-primaria-b" stroke="none" stroke-width="1" fill="none" fill-rule="evenodd">
        <g id="009-doctor-stethoscope" transform="translate(12.000000, 10.000000)" fill="#FFFFFF" fill-rule="nonzero">
            <circle id="Oval" cx="7.68277228" cy="0.998316832" r="1"></circle>
            <circle id="Oval" cx="12.9720792" cy="0.998316832" r="1"></circle>
            <path d="M15.9465347,1.90633663 C15.4393069,1.02782178 14.5308911,0.503267327 13.5164356,0.503267327 L13.5164356,1.49346535 C14.1729703,1.49346535 14.7607921,1.83287129 15.0891089,2.40138614 C15.4174257,2.97 15.4174257,3.64881188 15.0892079,4.21742574 L11.9088119,9.72594059 C11.5805941,10.2944554 10.9926733,10.6338614 10.3361386,10.6339604 C9.67960396,10.6339604 9.09168317,10.2945545 8.76336634,9.72594059 L5.58306931,4.21732673 C5.25485149,3.64881188 5.25485149,2.96990099 5.58306931,2.40138614 C5.91128713,1.83287129 6.49930693,1.49336634 7.15584158,1.49336634 L7.15584158,0.503267327 C6.14138614,0.503267327 5.23287129,1.02772277 4.72564356,1.90633663 C4.21841584,2.7849505 4.21841584,3.83386139 4.72564356,4.71237624 L7.90594059,10.2208911 C8.32891089,10.9534653 9.03128713,11.4386139 9.84108911,11.58 L9.84108911,14.2366337 C9.84108911,16.8317822 8.30910891,18.9430693 6.4260396,18.9430693 C4.5429703,18.9430693 3.01108911,16.8317822 3.01108911,14.2366337 L3.01108911,11.0734653 C4.13881188,10.8435644 4.99009901,9.8439604 4.99009901,8.64910891 C4.99009901,7.28485149 3.88019802,6.1749505 2.51594059,6.1749505 C1.15168317,6.1749505 0.0417821782,7.28485149 0.0417821782,8.64910891 C0.0417821782,9.84386139 0.893069307,10.8434653 2.02089109,11.0734653 L2.02089109,14.2366337 C2.02089109,17.3777228 3.9970297,19.9331683 6.4260396,19.9331683 C8.8549505,19.9331683 10.8310891,17.3777228 10.8310891,14.2366337 L10.8310891,11.58 C11.6407921,11.4386139 12.3432673,10.9534653 12.7661386,10.2208911 L15.9465347,4.71237624 C16.4538614,3.83386139 16.4538614,2.78485149 15.9465347,1.90633663 Z" id="Shape"></path>
        </g>
    </g>
</svg>