<?xml version="1.0" encoding="UTF-8"?>
<svg width="40px" height="40px" viewBox="0 0 40 40" version="1.1" xmlns="http://www.w3.org/2000/svg" xmlns:xlink="http://www.w3.org/1999/xlink">
    <!-- Generator: Sketch 64 (93537) - https://sketch.com -->
    <title>ico-search-r</title>
    <desc>Created with Sketch.</desc>
    <g id="ico-search-r" stroke="none" stroke-width="1" fill="none" fill-rule="evenodd">
        <g id="lupa-(2)" transform="translate(8.000000, 8.000000)" fill="#FF4500" fill-rule="nonzero">
            <path d="M13.5373,5.85745 C12.5115,4.83175 11.1478,4.2669 9.6972,4.2669 C9.0545,4.2669 8.53355,4.7879 8.53355,5.43055 C8.53365,6.07325 9.05455,6.5942 9.69725,6.5942 C10.52615,6.5942 11.3054,6.9169 11.89155,7.5031 C12.4777,8.08925 12.80045,8.8685 12.80045,9.69735 C12.80035,10.34 13.32135,10.86105 13.964,10.86105 C13.9641,10.86105 13.9641,10.86105 13.9641,10.86105 C14.60665,10.86105 15.12765,10.34015 15.12775,9.6975 C15.12775,8.24695 14.563,6.88315 13.5373,5.85745 Z" id="Path"></path>
            <path d="M25.25915,23.6136 L17.32485,15.6793 C18.6209,14.03035 19.39475,11.9525 19.39475,9.69735 C19.3947,4.35025 15.0445,0 9.6973,0 C9.69715,0 9.6973,0 9.69715,0 C7.107,0 4.6717,1.00875 2.8403,2.8402 C1.00865,4.67185 0,7.10705 0,9.69735 C0,15.0445 4.3502,19.3947 9.6973,19.3947 C11.95245,19.3947 14.03035,18.6209 15.67925,17.3249 L23.6135,25.2592 C23.8407,25.4864 24.13855,25.6 24.43635,25.6 C24.73415,25.6 25.032,25.48645 25.2591,25.25915 C25.71365,24.8048 25.71365,24.06795 25.25915,23.6136 Z M9.6973,17.06745 C5.6335,17.06745 2.3273,13.76125 2.3273,9.69735 C2.3273,7.7287 3.0939,5.8779 4.4859,4.4859 C5.8779,3.0938 7.72865,2.3273 9.6973,2.3273 C13.76125,2.3273 17.06745,5.6335 17.06745,9.6974 C17.06745,13.7613 13.76125,17.06745 9.6973,17.06745 Z" id="Shape"></path>
        </g>
    </g>
</svg>