<svg height="40" viewBox="0 0 40 40" width="40" xmlns="http://www.w3.org/2000/svg"><path d="m1.25097386 16.4511176h-.88518955c-.20116013 0-.36578431-.1646241-.36578431-.3657418v-1.1119673c0-.2012026.16462418-.3658268.36578431-.3658268h1.90207844c-.53767321.4609052-.90711112 1.1083987-1.01688889 1.8435359zm24.74902614-1.4777091v1.1119673c0 .2012026-.1646242.3658268-.3657843.3658268h-2.962853c-.2121634-1.4521765-1.4594836-2.575147-2.9701601-2.575147-1.5107189 0-2.7616928 1.123013-2.9738562 2.575147h-9.52139542c-.10973529-.7352647-.4791732-1.3827157-1.0168464-1.8435784h2.06508823l-1.80559804-10.45896734c-.16815033.04375817-.34373529.0694183-.52573529.0694183-.43600981 0-.84079412-.13480065-1.17590523-.3642549v1.46785294c.67944117.16857517 1.18465686.7836536 1.18465686 1.51471242 0 .86046405-.70000327 1.56046732-1.56046732 1.56046732s-1.56046732-.70000327-1.56046732-1.56046732c0-.2074902.16832026-.37581046.37581046-.37581046.20744771 0 .37581046.16832026.37581046.37581046 0 .44603595.36281045.80884641.8088464.80884641s.80888889-.36281046.80888889-.80884641-.36285294-.80888889-.80888889-.80888889c-.2074902 0-.37581046-.16832026-.37581046-.37581046v-2.72231045c-.10225817-.24606536-.15935621-.51553922-.15935621-.79822549 0-1.1541536.93608497-2.09023857 2.08692484-2.09023857 1.1541536 0 2.08683987.93608497 2.08683987 2.09023857 0 .29517647-.06215359.57578104-.1729085.83051307l7.57007847 11.4251307v-10.24064377c0-.40236275.3255523-.73156863.7316111-.73156863h3.4529869c.9729608 0 1.8801144.48286928 2.4251373 1.28759477l2.2276732 3.2994085c.3255522.48286928.5010947 1.05346732.5010947 1.63502614v4.97109809h.8888432c.2011176-.0000425.3657418.1644967.3657418.3656993zm-19.03374183-12.84217321c0-.57705555-.46638562-1.04344117-1.04339869-1.04344117-.57705556 0-1.04344118.46638562-1.04344118 1.04344117 0 .57369935.46638562 1.04344118 1.04344118 1.04344118.57705555 0 1.04339869-.46974183 1.04339869-1.04344118zm2.77261111 12.47643141h4.05897382l-5.4892712-8.28478108zm12.55205232-6.52200657-1.7813824-2.53121895c-.0695033-.09507843-.1792385-.1536634-.2999346-.1536634h-2.7763497c-.2011601 0-.3657843.16462418-.3657843.36578431v2.52760784c0 .20485621.1646242.36578432.3657843.36578432h4.5576471c.2963235 0 .4682549-.33290196.3000196-.57429412zm-.3145491 8.80074507c0 1.25467-1.0205 2.2752124-2.2751699 2.2752124-1.2583235 0-2.2752124-1.0205-2.2752124-2.2752124 0-1.2582385 1.0168889-2.278781 2.2752124-2.278781 1.2546699.0000425 2.2751699 1.0205425 2.2751699 2.278781zm-1.1375849 0c0-.6291405-.5084869-1.1375849-1.137585-1.1375849-.629183 0-1.137585.5084869-1.137585 1.1375849 0 .6255719.508487 1.137585 1.137585 1.137585.6291405.0000425 1.137585-.5120131 1.137585-1.137585zm-14.33441178 0c0 1.25467-1.01688889 2.2752124-2.27516994 2.2752124-1.25462745 0-2.27521242-1.0205-2.27521242-2.2752124 0-1.2582385 1.02054249-2.278781 2.27521242-2.278781 1.25828105.0000425 2.27516994 1.0205425 2.27516994 2.278781zm-1.13762745 0c0-.6291405-.50844445-1.1375849-1.13758497-1.1375849-.62918301 0-1.13758497.5084869-1.13758497 1.1375849 0 .6255719.50844445 1.137585 1.13758497 1.137585s1.13758497-.5120131 1.13758497-1.137585z" fill="#41494f" transform="translate(8 10)"/></svg>