<svg height="40" viewBox="0 0 40 40" width="40" xmlns="http://www.w3.org/2000/svg"><g fill="#ff4500" stroke="#ff4500" stroke-width=".3" transform="translate(8 8)"><path d="m20.6430288 0h-16.28004803c-2.40985577 0-4.35697115 1.953125-4.36298077 4.35697115v16.28004805c0 2.4098558 1.953125 4.3569712 4.35697115 4.3629808h16.28004805c2.4098558 0 4.3569712-1.953125 4.3629808-4.3569712v-16.28004803c0-2.40985577-1.953125-4.36298077-4.3569712-4.36298077zm3.1550481 20.6430288c0 1.7427885-1.4122596 3.1550481-3.1550481 3.1550481h-16.28004803c-1.74278846 0-3.15504808-1.4122596-3.16105769-3.1550481v-16.28004803c0-1.74278846 1.41225961-3.15504808 3.15504807-3.16105769h16.28004805c1.7427885 0 3.1550481 1.41225961 3.1610577 3.15504807z"/><path d="m9.36899038 16.8870192h-2.21754807v-1.8810096c0-.3305288-.27043269-.6009615-.60096154-.6009615s-.60096154.2704327-.60096154.6009615v1.8810096h-2.21754808c-.33052884 0-.60096153.2704327-.60096153.6009616 0 .3305288.27043269.6009615.60096153.6009615h2.21754808v2.2415865c0 .3305289.27043269.6009616.60096154.6009616s.60096154-.2704327.60096154-.6009616v-2.2415865h2.21754807c.33052885 0 .60096154-.2704327.60096154-.6009615 0-.3305289-.27043269-.6009616-.60096154-.6009616z"/><path d="m9.36899038 6.55048077h-5.63701923c-.33052884 0-.60096153.27043269-.60096153.60096154 0 .33052884.27043269.60096154.60096153.60096154h5.63701923c.33052885 0 .60096154-.2704327.60096154-.60096154 0-.33052885-.27043269-.60096154-.60096154-.60096154z"/><path d="m20.6430288 18.8100962h-5.6370192c-.3305288 0-.6009615.2704326-.6009615.6009615 0 .3305288.2704327.6009615.6009615.6009615h5.6370192c.3305289 0 .6009616-.2704327.6009616-.6009615 0-.3305289-.2704327-.6009615-.6009616-.6009615z"/><path d="m20.6430288 15.9855769h-5.6370192c-.3305288 0-.6009615.2704327-.6009615.6009616 0 .3305288.2704327.6009615.6009615.6009615h5.6370192c.3305289 0 .6009616-.2704327.6009616-.6009615 0-.3305289-.2704327-.6009616-.6009616-.6009616z"/><path d="m20.4086538 8.671875s0 0-.0060096-.00600962l-1.6105769-1.61057692 1.6105769-1.61057692c.234375-.234375.234375-.61298077 0-.84735577s-.6129807-.234375-.8473557 0l-1.610577 1.61057692-1.6105769-1.61057692c-.234375-.234375-.6129808-.234375-.8473558-.00600962-.234375.234375-.234375.61298077-.0060096.84735577 0 0 0 0 .0060096.00600962l1.610577 1.61057692-1.610577 1.61057692c-.234375.22836539-.234375.61298077 0 .84735577s.6129808.234375.8473558 0l1.6105769-1.61057692 1.610577 1.61057692c.234375.234375.6129807.234375.8473557.00600962.234375-.234375.234375-.61298077.0060096-.84735577z"/></g></svg>