<svg height="40" viewBox="0 0 40 40" width="40" xmlns="http://www.w3.org/2000/svg"><g fill="#ff4500" stroke="#ff4500" stroke-width=".2" transform="translate(7 6)"><path d="m19.519207 19.1335605c-.0220429-.0103359-.74925-.360914-1.415707-.6826464 2.1113789-1.8279317 3.4965-4.8735 3.4965-8.3259141 0-5.59168945-3.626543-10.125-8.1-10.125-4.47387891 0-8.1 4.53331055-8.1 10.125 0 3.4303711 1.36845703 6.4570605 3.45642188 8.2885254-.54537891.2843965-1.3900254.7263105-1.4305254.7447676-5.48548242 2.4988711-7.42589648 2.860207-7.42589648 5.141707 0 1.35 1.20872461 2.7 2.7 2.7h21.6c1.4912754 0 2.7-1.35 2.7-2.7 0-2.2891465-1.9534395-2.6451035-7.480793-5.1664395zm-12.769207-9.0085605c0-4.83837891 3.02806055-8.775 6.75-8.775 3.7219395 0 6.75 3.93662109 6.75 8.775 0 4.8383789-3.0280605 8.775-6.75 8.775-3.72193945 0-6.75-3.9366211-6.75-8.775zm17.55 15.525h-21.6c-.74787891 0-1.35-.7384395-1.35-1.35 0-.88425.45135352-1.192957 4.02616406-2.7531035.91979297-.4014141 1.98987891-.872543 3.20356055-1.4341641.04229297-.0197754 1.00037109-.5215429 1.53314649-.7991894 1.0318535.5948965 2.1761894.936457 3.3871289.936457 1.1888965 0 2.3143535-.3280605 3.3313359-.9031289.6911895.3339141 1.4993965.7245176 1.5196465.733957 1.2424746.5760176 2.3355 1.0570606 3.2728535 1.4661211 3.5748106 1.5601465 4.0261641 1.8688535 4.0261641 2.7531035 0 .6115078-.6021211 1.3499473-1.35 1.3499473z"/><path d="m16.2277241 7.00247352-.2409744.00224675-.2311944.00189431c-.9368045 0-1.7458088.36203428-2.2555555.92213452-.5097467-.5601443-1.318751-.92213452-2.2555555-.92213452l-.2311944-.00224674-.2409744-.00224675c-1.93977769 0-2.3472755 1.25971892-2.3472755 2.31643785 0 1.05671896.40714538 2.31608546 2.3472755 2.31608546l.2409744-.0018944.2311944-.0022467c.9368045 0 1.7458088-.3620343 2.2555555-.9221345.5097467.5601443 1.318751.9221345 2.2555555.9221345l.2311944.0022467.2409744.0022468c1.9397777 0 2.3472755-1.2597189 2.3472755-2.31608543 0-1.05632244-.4071454-2.31643785-2.3472755-2.31643785zm-4.9832798 3.50064848c-.1639242 0-.3221655.0044935-.4721688.0044935-.7044646-.0007489-1.21949776-.09661-1.21949776-1.18905656 0-1.092799.51503316-1.18830768 1.21949776-1.18830768.1500033 0 .3082446.00449349.4721688.00449349.9341612 0 1.6916666.53005553 1.6916666 1.18416662 0 .65415514-.7575054 1.18421063-1.6916666 1.18421063zm4.9832798.0033481c-.1500033 0-.3082446-.0044935-.4721688-.0044935-.9341612 0-1.6916666-.53005549-1.6916666-1.18416657 0-.65411109.7575054-1.18341771 1.6916666-1.18341771.1639242 0 .322562-.00449349.4721688-.00449349.7044646 0 1.2194978.09586111 1.2194978 1.18830768 0 1.09244659-.5150332 1.18826359-1.2194978 1.18826359z"/><path d="m13.5 13.66875c-2.8183359 0-3.0375 1.4206641-3.0375 1.85625s.2191641 1.85625 3.0375 1.85625 3.0375-1.4206641 3.0375-1.85625-.2191641-1.85625-3.0375-1.85625zm0 2.3625c-.9319219 0-1.6875-.2268105-1.6875-.50625s.7555781-.50625 1.6875-.50625c.9319746 0 1.6875.2268105 1.6875.50625s-.7555254.50625-1.6875.50625z"/></g></svg>