<svg height="40" viewBox="0 0 40 40" width="40" xmlns="http://www.w3.org/2000/svg"><g fill="#ff4500" transform="translate(12 10)"><path d="m9.79130058 13.4575979c-.07565322-.0828515-.17137577-.1448233-.27029224-.1964505-.21537572-.1123119-.4509161-.1804332-.684788-.2419282v1.8122451c.37960089-.0429036.81540542-.1806716 1.01471615-.5350547.09515049-.1692783.11407572-.3772651.07531953-.5657069-.02102273-.1021104-.06445064-.1958308-.13495544-.2731048z"/><path d="m9.84893432 14.3329096c.008-.0135.0125-.022.021-.0365-.007.012-.014.024-.021.0365z"/><path d="m7.05567617 10.5605609c-.06526103.0952935-.10621007.2035534-.117508.3186302-.01129793.1153151-.00495774.2435967.03885153.3521426.04171177.1034452.12909196.1798135.21928471.2413085.10120466.0688364.21251549.1226088.32587615.1681819.09510282.0382795.20207562.0748905.31739078.1102621v-1.6398683c-.29131497.0621625-.60961149.1948774-.78389517.449343z"/><path d="m9.92948416 14.2830141c-.025.0445-.052.091-.0785.14.031-.057.0555-.099.0785-.14z"/><path d="m9.86800256 14.274528c.0065-.012.0075-.013 0 0z"/><path d="m9.47467253 4.40805167c1.54114247-1.29463785 2.57092257-4.21126748 1.93718967-4.33883398-.8420532-.16956428-2.67060168.57395389-3.55441439.70495267-1.25354581.15135412-2.61883147-1.35932684-3.38518385-.51727356-.62310227.684645.44672108 3.17447985 2.12048313 4.25917643-4.99358952 2.45427259-12.01241633 14.77492697.23229878 15.66889347 16.94265163 1.2370041 8.45885993-13.38528159 2.64962666-15.77691503zm1.45504937 9.71664843c-.0521039.4803289-.3066649.9147033-.6871715 1.2095935-.40176775.3113843-.90569354.4562076-1.40637774.4967752v.5307167c0 .1420107-.06201943.2793497-.16832484.3733561-.14611036.1292826-.36081869.1611742-.53815328.0794668-.17509407-.0805633-.2901232-.2601384-.2901232-.4528229v-.5800557c-.08585473-.0163034-.17108975-.0357053-.25532368-.0588255-.4679345-.1285676-.90197521-.3791719-1.21903229-.7499537-.15793266-.1848189-.28669092-.3945218-.37573958-.6209094-.02326325-.0591593-.04399996-.1194149-.06216245-.1803379-.01644636-.0551549-.03341709-.1112155-.03928057-.1687062-.00986781-.0964376.0092481-.1948297.05420146-.2807321.0923856-.1767149.28707229-.2834493.48585864-.2657159.1956401.0173521.36711121.153118.42870161.3396053.01897289.0574431.03184395.1163163.0531527.1731396.02111807.056442.04662184.1113108.07660664.1635578.05920687.1028731.13338231.1977376.218808.2800647.17609516.1696596.40038528.2799217.63420952.3455164v-1.9717509c-.45720862-.118366-.92914745-.2712456-1.30669851-.5648011-.1834841-.1427258-.33917624-.3200603-.44114363-.5299539-.10759252-.2215253-.15216452-.4683159-.153976-.7134381-.00185916-.2488881.04543007-.4955834.14925661-.7223524.097248-.2123248.23725652-.40295949.40891831-.5609875.36706353-.33784146.85463832-.5262833 1.34369089-.59550099v-.04338024-.50754876c0-.14196301.06201943-.27934965.16832485-.37335605.14615802-.12923496.36077101-.16117426.53815327-.07946687.1750464.08061097.29012321.2601384.29012321.45282292v.50754876.04037699c.06516569.00819934.1301407.01801948.19478202.02974645.48023351.08690348.94993182.28521313 1.30112104.63144462.1663704.16398682.3025652.35938857.3983355.57247607.0267432.0594453.0501494.1202729.0704094.1822924.0188776.0578244.0378505.1173649.0468602.1777159.0143965.0963423-.000286.1958785-.0415211.2840214-.0844723.1805762-.2739152.2955576-.4732259.2870246-.1958308-.008533-.37326073-.1360519-.44338416-.3191069-.02087972-.0544398-.03131958-.1120736-.05262833-.1663704-.02149944-.0549642-.04933906-.1074018-.08142137-.1569316-.06235313-.0962945-.14315478-.17886-.23539737-.2468859-.19973976-.1474928-.4420017-.2243378-.68407295-.267289v1.8868972c.28769201.068884.57562236.1440129.85125371.2527018.41659327.1642729.81135337.4161642 1.03874217.8133556-.0352763-.0618764-.0695991-.1221797.0011917.0020498.0695037.1220367.036325.0638786.0014301.0027173.1809099.3188209.2403551.7000425.2010269 1.062196z"/><path d="m9.91420628 14.309233c-.0305.0545-.057.1025-.078.139.018-.0315.045-.079.078-.139z"/></g></svg>