<svg height="40" viewBox="0 0 40 40" width="40" xmlns="http://www.w3.org/2000/svg"><path d="m18.8312353 16.1783137c-.1046863-.1046862-.247-.163549-.3952745-.163549h-2.2881961l-.0007451-9.54843137c0-1.72080392-.6746863-3.34288235-1.8992549-4.56745098-1.2245686-1.22456862-2.8462745-1.89888235-4.56745097-1.89888235-3.56566667.00037255-6.46633334 2.90178431-6.46633334 6.46707843l.0007451 9.54843137h-2.28819608c-.30847059 0-.55882353.2499804-.55882353.5588235v2.2285883c0 .1482745.05886275.2902157.16354902.3952745.10468628.1046863.247.163549.39527451.163549l17.50980389-.0011176c.3084706 0 .5588236-.2499804.5588236-.5588236v-2.2285882c-.0003726-.147902-.0592353-.2898432-.1639216-.394902zm-14.49960785-9.71123527c0-2.94947059 2.39921569-5.34905882 5.34868628-5.34943137 1.42201957 0 2.76394117.55807843 3.77764707 1.57141176 1.0137059 1.01370589 1.5717843 2.35488236 1.5717843 3.77727451l.0007451 9.54880397-10.69811765.0007451zm9.06300005 8.10368627c0 .3084706-.250353.5588235-.5588236.5588235l-6.30949017.0003726c-.30847059 0-.55882353-.2499804-.55882353-.5588235 0-.3084706.25035294-.5588236.55882353-.5588236l6.30949017-.0003725c.3084706 0 .5588236.2499804.5588236.5588235zm0-2.0035686c0 .3084706-.250353.5588235-.5588236.5588235l-6.30949017.0003726c-.30847059 0-.55882353-.2499804-.55882353-.5588236 0-.3084706.25035294-.5588235.55882353-.5588235l6.30949017-.0003726c.3084706 0 .5588236.250353.5588236.5588236zm0-2.0031961c0 .3084706-.250353.5588235-.5588236.5588235l-6.30949017.0007451c-.30847059 0-.55882353-.2499804-.55882353-.5588235 0-.3084706.25035294-.5588235.55882353-.5588235l6.30949017-.0007451c.3084706 0 .5588236.2499804.5588236.5588235z" fill="#ff4500" transform="translate(10 10)"/></svg>