<svg height="40" viewBox="0 0 40 40" width="40" xmlns="http://www.w3.org/2000/svg"><path d="m25.5390625 0c-.3661875 0-22.7119375 0-23.078125 0-1.35696094 0-2.4609375 1.10397656-2.4609375 2.4609375v23.078125c0 1.3569609 1.10397656 2.4609375 2.4609375 2.4609375h23.078125c1.3569609 0 2.4609375-1.1039766 2.4609375-2.4609375 0-.3661875 0-22.7119375 0-23.078125 0-1.35696094-1.1039766-2.4609375-2.4609375-2.4609375zm-23.8984375 2.4609375c0-.45232031.36799219-.8203125.8203125-.8203125h10.71875v2.61925781c-.2658359-.06835937-.5411875-.10363281-.8203125-.10363281-1.8092812 0-3.28125 1.47196875-3.28125 3.28125s1.4719688 3.28125 3.28125 3.28125c.279125 0 .5544766-.0352734.8203125-.1036328v2.5645703h-3.9046875c-.71624219 0-1.07455469.8456875-.61304687 1.3653281.26835156.3019297.41617187.6909766.41617187 1.0956094 0 .9046406-.73598437 1.640625-1.640625 1.640625-.90464062 0-1.640625-.7359844-1.640625-1.640625 0-.4045781.14782031-.7936797.41617188-1.0956094.46014062-.518164.10625781-1.3653281-.61304688-1.3653281h-3.959375zm12.0233203 19.1907188c-.2946562.1323437-.4842031.4253046-.4842031.7483437v3.959375h-10.7188047c-.45232031 0-.8203125-.3679922-.8203125-.8203125v-10.71875h2.62013281c-.06841406.2658906-.10450781.5411328-.10450781.8203125 0 1.8092813 1.47196875 3.28125 3.28125 3.28125s3.28125-1.4719687 3.28125-3.28125c0-.2791797-.0360937-.5544219-.1045078-.8203125h2.5654453v3.9046875c0 .3230391.1896016.616.4842031.7483438.2946563.132289.6395157.0794062.8810157-.1351875.306414-.2723438.6853437-.4162813 1.0957187-.4162813.9046406 0 1.640625.7359844 1.640625 1.640625s-.7359844 1.640625-1.640625 1.640625c-.4104297 0-.7893047-.1439375-1.0956641-.4162812-.2415-.2145391-.58625-.2674766-.8810156-.1351875zm12.6954297 3.8874062c0 .4523203-.3679922.8203125-.8203125.8203125h-10.71875v-2.6192578c.2658359.0683594.5411875.1036328.8203125.1036328 1.8092813 0 3.28125-1.4719687 3.28125-3.28125 0-1.8092812-1.4719687-3.28125-3.28125-3.28125-.279125 0-.5544766.0353281-.8203125.1036875v-2.564625h3.9046875c.7127422 0 1.0772891-.842625.6131016-1.3652734-.2722891-.3063594-.4162266-.6852891-.4162266-1.0956641 0-.9046406.7359844-1.640625 1.640625-1.640625s1.640625.7359844 1.640625 1.640625c0 .410375-.1439375.7893047-.4162266 1.0956641-.4679062.5268593-.0919843 1.3652734.6127735 1.3652734h.000164.0001641 3.959375zm0-12.359375h-2.6201328c.0683594-.2658906.1045078-.5411875.1045078-.8203125 0-1.8092812-1.4719687-3.28125-3.28125-3.28125-1.8092812 0-3.28125 1.4719688-3.28125 3.28125 0 .279125.0361484.5544219.1045078.8203125h-2.5654453v-3.9046875c0-.32303906-.1896016-.616-.4842578-.74834375-.2948203-.13234375-.639625-.07935156-.8810156.13524219-.3019297.26840625-.691086.41622656-1.0956641.41622656-.9046406 0-1.640625-.73598437-1.640625-1.640625 0-.90464062.7359844-1.640625 1.640625-1.640625.4045781 0 .7936797.14782031 1.0956094.41622656.2413906.21464844.5861953.26764063.8810156.13524219.2947109-.13228906.4842578-.42525.4842578-.74834375v-3.959375h10.71875c.452375 0 .8203672.36799219.8203672.8203125z" fill="#ff4500" transform="translate(6 6)"/></svg>