<?xml version="1.0" encoding="UTF-8"?>
<svg width="40px" height="40px" viewBox="0 0 40 40" version="1.1" xmlns="http://www.w3.org/2000/svg" xmlns:xlink="http://www.w3.org/1999/xlink">
    <!-- Generator: Sketch 64 (93537) - https://sketch.com -->
    <title>ico-alerta-r</title>
    <desc>Created with Sketch.</desc>
    <g id="ico-alerta-r" stroke="none" stroke-width="1" fill="none" fill-rule="evenodd">
        <g id="advertencia" transform="translate(11.000000, 11.000000)" fill="#FF4500" fill-rule="nonzero">
            <path d="M18.6052305,13.7286133 L11.8934434,1.39063672 C10.815082,-0.424791016 8.18636523,-0.427203125 7.10655664,1.39063672 L0.395103516,13.7286133 C-0.707267578,15.5836738 0.627371094,17.9327715 2.78799023,17.9327715 L16.2117871,17.9327715 C18.3705879,17.9327715 19.7076016,15.5855664 18.6052305,13.7286133 Z M9.5,15.706209 C8.88628516,15.706209 8.38671875,15.2066426 8.38671875,14.5929277 C8.38671875,13.9792129 8.88628516,13.4796465 9.5,13.4796465 C10.1137148,13.4796465 10.6132813,13.9792129 10.6132813,14.5929277 C10.6132813,15.2066426 10.1137148,15.706209 9.5,15.706209 Z M10.6132813,11.253084 C10.6132813,11.8667988 10.1137148,12.3663652 9.5,12.3663652 C8.88628516,12.3663652 8.38671875,11.8667988 8.38671875,11.253084 L8.38671875,5.68667773 C8.38671875,5.07296289 8.88628516,4.57339648 9.5,4.57339648 C10.1137148,4.57339648 10.6132813,5.07296289 10.6132813,5.68667773 L10.6132813,11.253084 Z" id="Shape"></path>
        </g>
    </g>
</svg>