<svg height="40" viewBox="0 0 40 40" width="40" xmlns="http://www.w3.org/2000/svg"><g fill="#41494f" transform="translate(10 10)"><path d="m9.99318458 0c-5.5191075 0-9.99318458 4.47407708-9.99318458 9.99318458 0 5.51906692 4.47407708 9.99318462 9.99318458 9.99318462 5.51910752 0 9.99318462-4.4741177 9.99318462-9.99318462 0-5.5191075-4.4740771-9.99318458-9.99318462-9.99318458zm0 18.2022718c-4.52661257 0-8.20908722-3.6824746-8.20908722-8.20908722 0-4.52649087 3.68247465-8.20908722 8.20908722-8.20908722 4.52661262 0 8.20908722 3.68247465 8.20908722 8.20908722 0 4.52661262-3.6824746 8.20908722-8.20908722 8.20908722z"/><path d="m5.7536714 7.58567951h-2.05602434c-.2031643.5294929-.34194726 1.09026369-.40543611 1.67375254h2.29208925c.0262069-.5725355.08340771-1.13286004.1693712-1.67375254z"/><path d="m4.48154158 6.11813387h1.59030426c.17525355-.62624746.39306288-1.2106288.6525355-1.73586206.06770791-.13711968.13845842-.2672211.21046653-.39415822-.98064909.50162272-1.82267748 1.2358215-2.45330629 2.13002028z"/><path d="m14.2326978 12.4007302h2.0560243c.2032049-.5294929.3419878-1.0902637.405355-1.6737525h-2.2919676c-.0262069.5724949-.0834482 1.1328195-.1694117 1.6737525z"/><path d="m14.4021095 9.25943205h2.2920893c-.0633672-.58348885-.2021907-1.14425964-.405355-1.67375254h-2.0560649c.0858824.5408925.1431237 1.10121704.1693306 1.67375254z"/><path d="m13.2620284 15.6040162c-.0677485.1371603-.138499.2672617-.2104665.3941988.9807708-.5014604 1.822718-1.2356592 2.4533468-2.1298986h-1.5902637c-.1753347.6260041-.3931846 1.2105071-.6526166 1.7356998z"/><path d="m13.9144016 6.11813387h1.5903043c-.6306288-.89423935-1.4726167-1.62843813-2.4533469-2.12989858.0720081.12693712.1428398.25699798.2104666.39411765.2596348.5251927.4774847 1.10969574.652576 1.73578093z"/><path d="m6.07192698 13.8683164h-1.5903854c.63062881.8942394 1.47257607 1.6284382 2.45334686 2.1298986-.07200812-.1269371-.14279919-.2570385-.21046653-.3941988-.25951319-.5251927-.47732252-1.1096957-.65249493-1.7356998z"/><path d="m5.5843002 10.7269777h-2.29208925c.06340771.5834888.2021501 1.1442596.4053144 1.6737525h2.05606491c-.08588235-.540933-.14308316-1.1012576-.16929006-1.6737525z"/><path d="m10.7269777 3.49525355v2.62288032h1.6589858c-.4189858-1.28855983-1.0249087-2.20985801-1.6589858-2.62288032z"/><path d="m7.60048682 6.11813387h1.6589858v-2.62288032c-.63415822.41302231-1.24012171 1.33432049-1.6589858 2.62288032z"/><path d="m7.23874239 12.4007302h2.02073023v-1.6737525h-2.20673428c.02916835.591075.09330628 1.1508316.18600405 1.6737525z"/><path d="m7.05269777 9.25943205h2.20673428v-1.67375254h-2.02073022c-.09265721.52288033-.15679514 1.08263692-.18600406 1.67375254z"/><path d="m10.7269777 7.58567951v1.67375254h2.2067343c-.0292901-.59111562-.0935497-1.15087221-.1860852-1.67375254z"/><path d="m10.7269777 12.4007302h2.0207302c.0925355-.5227992.1567951-1.0825963.1860852-1.6737525h-2.2067343z"/><path d="m9.25943205 16.4911562v-2.6228398h-1.65894523c.41886409 1.2885193 1.02482758 2.2098175 1.65894523 2.6228398z"/><path d="m10.7269777 16.4911562c.6340771-.4129412 1.24-1.3342394 1.6589858-2.6228398h-1.6589858z"/></g></svg>