<svg height="40" viewBox="0 0 40 40" width="40" xmlns="http://www.w3.org/2000/svg"><path d="m14.5809918 1.26208737c-1.5415688-1.40913227-3.2865977-1.40721012-4.59097251-1.09101552-1.2994733.31494519-2.66295437.31494519-3.96242766 0-1.30437479-.3161946-3.04940375-.31811675-4.59106864 1.09101552-2.92100376 2.66997023-.57049579 7.43941491.13695358 8.26094421.70744937.82152932.73022691 1.91686972 1.23229396 4.15329772.50206704 2.236428 1.14099156 4.35868 2.41893671 4.0392178 1.27794515-.3194623 1.62028106-1.8712185 1.93974332-3.9479154.02200868-.1428162.04488233-.2767904.06852484-.4026916.16242215-.8634323 1.38914185-.8634323 1.551564 0 .02364252.1258051.04661228.2598754.06862096.4026916.31946226 2.0766969.66179817 3.6284531 1.93974334 3.9479154 1.2779451.3194622 1.9168696-1.8027898 2.4189367-4.0392178.502067-2.236428.5248446-3.3317684 1.2322939-4.15329772.7074494-.8215293 3.0579574-5.59097398.1368575-8.26094421zm-8.9218774 1.03729126c-.03536766.26237424-.27630987.44670896-.53849189.41249459-.0938973-.01162904-2.17712954-.24161495-2.76242592 2.03267955-.05583862.21681915-.25103352.36088471-.46506554.36088471-.03969252 0-.07996168-.00490149-.12013473-.01528114-.2569922-.06612215-.41172573-.32811196-.34560357-.58510416.64132721-2.49207473 2.77876424-2.88563609 3.81941928-2.74599149.26304699.03536767.44757393.27727095.41230237.54031794z" fill="#ff4500" transform="translate(12 11)"/></svg>