<svg height="40" viewBox="0 0 40 40" width="40" xmlns="http://www.w3.org/2000/svg"><g fill="#ff4500" stroke="#ff4500" stroke-width=".3" transform="translate(6 7)"><path d="m4.74137931 0c-1.20689655 0-2.15517241.94827586-2.15517241 2.15517241v.86206897c0 1.20689655.94827586 2.15517241 2.15517241 2.15517241s2.15517241-.94827586 2.15517241-2.15517241v-.86206897c0-1.20689655-.94827586-2.15517241-2.15517241-2.15517241zm1.29310345 3.01724138c0 .73275862-.56034483 1.29310345-1.29310345 1.29310345s-1.29310345-.56034483-1.29310345-1.29310345v-.86206897c0-.73275862.56034483-1.29310344 1.29310345-1.29310344s1.29310345.56034482 1.29310345 1.29310344z"/><path d="m6.89655172 6.03448276h-4.31034482c-1.4224138 0-2.5862069 1.1637931-2.5862069 2.5862069v6.46551724c0 .2586207.17241379.4310345.43103448.4310345h1.29310345v10.775862c0 .2586207.17241379.4310345.43103448.4310345h1.72413793c.25862069 0 .43103449-.1724138.43103449-.4310345v-10.775862h.86206896v10.775862c0 .2586207.1724138.4310345.43103449.4310345h1.72413793c.25862069 0 .43103448-.1724138.43103448-.4310345v-10.775862h1.29310345c.25862069 0 .43103448-.1724138.43103448-.4310345v-6.46551724c0-1.4224138-1.1637931-2.5862069-2.5862069-2.5862069zm1.72413794 8.62068964h-.86206897v-5.17241378h-.86206897v16.37931038h-.86206896v-10.7758621c0-.2586207-.17241379-.4310345-.43103448-.4310345h-1.72413794c-.25862068 0-.43103448.1724138-.43103448.4310345v10.7758621h-.86206896v-16.37931038h-.86206897v5.17241378h-.86206896v-6.03448274c0-.94827587.77586206-1.72413794 1.72413793-1.72413794h4.31034482c.94827587 0 1.72413794.77586207 1.72413794 1.72413794z"/><path d="m24.2586207 0c-1.2068966 0-2.1551724.94827586-2.1551724 2.15517241v.86206897c0 1.20689655.9482758 2.15517241 2.1551724 2.15517241 1.2068965 0 2.1551724-.94827586 2.1551724-2.15517241v-.86206897c0-1.20689655-.9482759-2.15517241-2.1551724-2.15517241zm1.2931034 3.01724138c0 .73275862-.5603448 1.29310345-1.2931034 1.29310345s-1.2931035-.56034483-1.2931035-1.29310345v-.86206897c0-.73275862.5603449-1.29310344 1.2931035-1.29310344s1.2931034.56034482 1.2931034 1.29310344z"/><path d="m26.4137931 6.03448276h-4.3103448c-1.4224138 0-2.5862069 1.1637931-2.5862069 2.5862069v6.46551724c0 .2586207.1724138.4310345.4310345.4310345h1.2931034v10.775862c0 .2586207.1724138.4310345.4310345.4310345h1.7241379c.2586207 0 .4310345-.1724138.4310345-.4310345v-6.4655172h.862069v6.4655172c0 .2586207.1724138.4310345.4310345.4310345h1.7241379c.2586207 0 .4310345-.1724138.4310345-.4310345v-10.775862h1.2931034c.2586207 0 .4310345-.1724138.4310345-.4310345v-6.46551724c0-1.4224138-1.1637931-2.5862069-2.5862069-2.5862069zm-3.4482759 19.82758624h-.8620689v-6.0344828h.8620689zm3.4482759 0h-.862069v-6.0344828h.862069zm1.7241379-11.2068966h-.8620689v-5.17241378h-.862069v9.48275858h-4.3103448v-9.48275858h-.862069v5.17241378h-.862069v-6.03448274c0-.94827587.7758621-1.72413794 1.724138-1.72413794h4.3103448c.9482759 0 1.7241379.77586207 1.7241379 1.72413794z"/><path d="m14.5 11.2068966c-.9482759 0-1.7241379.775862-1.7241379 1.7241379v.8620689c0 .9482759.775862 1.724138 1.7241379 1.724138s1.7241379-.7758621 1.7241379-1.724138v-.8620689c0-.9482759-.775862-1.7241379-1.7241379-1.7241379zm.862069 2.5862068c0 .474138-.3879311.862069-.862069.862069s-.862069-.387931-.862069-.862069v-.8620689c0-.4741379.3879311-.862069.862069-.862069s.862069.3879311.862069.862069z"/><path d="m16.6551724 16.3793103h-4.3103448c-.9482759 0-1.7241379.7758621-1.7241379 1.724138v3.0172414c0 .2586206.1724137.4310344.4310344.4310344h1.2931035v4.7413793c0 .2586207.1724138.4310345.4310345.4310345h3.4482758c.2586207 0 .4310345-.1724138.4310345-.4310345v-4.7413793h1.2931035c.2586207 0 .4310344-.1724138.4310344-.4310344v-3.0172414c0-.9482759-.775862-1.724138-1.7241379-1.724138zm.862069 4.3103449h-.862069v-1.724138h-.862069v6.8965518h-.8620689v-3.8793104h-.862069v3.8793104h-.8620689v-6.8965518h-.862069v1.724138h-.862069v-2.5862069c0-.474138.3879311-.862069.862069-.862069h4.3103448c.4741379 0 .862069.387931.862069.862069z"/></g></svg>