<svg height="40" viewBox="0 0 40 40" width="40" xmlns="http://www.w3.org/2000/svg"><g fill="#41494f" transform="translate(10 9)"><path d="m6.73189831 8.37810169c.04938983-.08277966.07644067-.15718644.07644067-.21864406 0-6.13993221 3.13661017-7.55545763 3.88983052-8.02223729.1308474-.07661017.1228813-.10850848-.0271187-.10850848-4.85369487 0-7.85227114 3.48688136-7.85227114 8.13074577 0 .0758983.0020678.14864406.0059322.21864406h-2.79864406l4.78749152 6.12955931 4.78749153-6.12955931z"/><path d="m19.9739322 12.367661-4.7874915-6.12955931-4.7874915 6.12955931h2.8686779c-.0490847.0824746-.0759661.1565763-.0759661.2178305 0 6.1407458-3.1366102 7.5554577-3.88983049 8.0222373-.13084746.0773898-.12288136.109322.02711864.109322 4.85369495 0 7.85227115-3.4876949 7.85227115-8.1315254 0-.0756271-.0020678-.1481017-.0058983-.2178305h2.7986102z"/></g></svg>