<svg height="40" viewBox="0 0 40 40" width="40" xmlns="http://www.w3.org/2000/svg"><g fill="#41494f" transform="matrix(-1 0 0 1 37 14)"><path d="m5.79730357 7.30726786c-1.26741071 0-2.29530357 1.02698214-2.29530357 2.295 0 .09835714.00789286.19458928.02003571.28869643.142375 1.13201781 1.10560715 2.00691071 2.27496429 2.00691071 1.20183929 0 2.18632143-.9234643 2.28589286-2.0995.00546428-.06496429.01001785-.12992857.01001785-.19610714.00030358-1.26801786-1.02728571-2.295-2.29560714-2.295zm-1.149625 1.430125.46841072.46841071c-.03673215.06253572-.06496429.13023214-.08317858.201875h-.65996428c.03430357-.25044643.12992857-.478125.27473214-.67028571zm-.27716071 1.06735714h.66451785c.01882143.07073214.04644643.13782143.08317858.1991429l-.46932143.4693214c-.1445-.1909464-.24316072-.4192322-.278375-.6684643zm.56251785.94775.46658929-.4668929c.06132143.0358215.12871429.0622322.19914286.08075v.6617858c-.24832143-.034-.47478572-.13175-.66573215-.2756429zm.66573215-1.91371429c-.07225.01882143-.13994643.04766072-.20278572.08469643l-.46780357-.46780357c.19216072-.14571428.42044643-.24285714.67058929-.27716071zm.397375-.66026785c.25075.03430357.47873214.13144643.67058928.27746428l-.4675.4675c-.06283928-.03703571-.13053571-.06617857-.20308928-.08469643zm0 2.84962504v-.6623929c.07073214-.0185179.13782143-.044625.19944643-.0813571l.46689285.4675c-.19125.1445-.41741071.2416428-.66633928.27625zm.95108928-.5537143-.47083928-.4708393c.03642857-.06162501.06678571-.12750001.08560714-.1988393h.65935714c-.03491071.2492321-.12871428.4787321-.274125.6696786zm-.38492857-1.06675003c-.01821428-.07164286-.04644643-.13933928-.08317857-.201875l.46841071-.46841071c.14510715.19216071.24042858.41983928.27473215.67028571z"/><path d="m29.1322321 7.30726786c-1.2677142 0-2.2953035 1.02698214-2.2953035 2.295 0 .09835714.0075893.19458928.0197321.28869643.1420714 1.13201781 1.1059107 2.00691071 2.2749643 2.00691071 1.2015357 0 2.1860179-.9234643 2.2858929-2.0995.0054642-.06496429.0094107-.12992857.0094107-.19610714.0006071-1.26801786-1.0266786-2.295-2.2946965-2.295zm-1.1499285 1.430125.4684107.46841071c-.0364286.06253572-.0649643.13023214-.082875.201875h-.6602679c.0343036-.25044643.1299286-.478125.2747322-.67028571zm-.2768572 1.06735714h.6648215c.0188214.07073214.0461428.13782143.0825714.1991429l-.4690179.4693214c-.1448035-.1909464-.2434643-.4192322-.278375-.6684643zm1.2279465 1.2233929c-.2483215-.034-.4744822-.13175-.6654286-.2756429l.4665893-.4668929c.0610178.0358215.1287143.0622322.1988393.08075zm-.2030893-2.10466076-.4678036-.46780357c.1924643-.14571428.4204464-.24285714.6705893-.27716071l.0003036.66026785c-.0719465.01882143-.1399465.04766072-.2030893.08469643zm.6007678-.74496428c.2501429.03430357.4784286.13144643.6705893.27746428l-.4678036.4675c-.0628392-.03703571-.1308392-.06617857-.2027857-.08469643zm0 2.84962504v-.6623929c.070125-.0185179.1378215-.044625.1988393-.0813571l.4668929.4675c-.1909465.1445-.4174107.2416428-.6657322.27625zm.9507857-.5537143-.4708392-.4708393c.0364285-.06162501.0667857-.12750001.0853035-.1988393h.6599643c-.0352143.2492321-.1293214.4787321-.2744286.6696786zm-.3852321-1.06675003c-.0182143-.07164286-.0461429-.13933928-.0825714-.201875l.4681071-.46841071c.1451072.19216071.2404286.41983928.2750357.67028571z"/><path d="m33.7240536 5.44576786c-.017-.50696429-.1566429-1.00208929-.4064822-1.44317857l-1.6483928-2.90851786c-.2701786-.47630357-.7653036-.78108929-1.3120357-.80871429-2.7625-.13842857-14.8756072-.49117857-17.5421786.22585715-1.8038214.48541071-6.35557144 3.47771428-6.35557144 3.47771428s-5.00801786.775625-5.96335715 3.05969643c0 0-.41225.24073214-.48723214.85789286-.03855357.31753571.05555357.79960714.159375 1.20366071.11383929.442.48025.77471429.93105357.84483929l2.17357143.34060714c-.03248214-.1186964-.0595-.2392143-.07528571-.36367857-.01366072-.10746429-.02276786-.21735714-.02276786-.32998214 0-1.44591072 1.17633929-2.62194643 2.62255357-2.62194643 1.44651786 0 2.62285714 1.17603571 2.62285714 2.62194643 0 .07558928-.00485714.14966071-.01092857.223125-.02185714.25621431-.08135714.50119641-.172125.73100001l.25560715.0136607 18.08314281-.3906964c-.0185178-.0813572-.0330892-.1633215-.0440178-.24710717-.0139643-.10746429-.0224643-.21735714-.0224643-.32998214 0-1.44591072 1.1763393-2.62194643 2.62225-2.62194643 1.4465179 0 2.6228571 1.17603571 2.6228571 2.62194643 0 .07558928-.0048571.14966071-.0112321.223125-.0039464.04857142-.0124464.095625-.0188214.14358928l1.2461607-.25439286c.5139464-.10503571.877625-.56464285.8594107-1.08951785zm-14.9891429-4.62308929.3318036 3.31226786-2.0563929.20825v-3.53721429c1.4887143-.03430357.1523929-.01882143 1.7245893.01669643zm-9.81385713 3.75730357-.503625.02823215c-.13691071.00758928-.26228571-.07558929-.30842857-.20491072-.04614286-.12871428-.00151786-.27230357.10867857-.35335714.29598214-.21614286.65844643-.47448214 1.06219643-.74739286v.84514286c-.24589286.20794643-.35882143.43228571-.35882143.43228571zm1.24798213-.77532143c-.031875.00121429-.0579821.00910715-.0883393.01214286v-1.039125c1.0266786-.65085714 2.1902679-1.29716071 3.1908393-1.62107143.4553572-.14723214 1.2859286-.24133928 2.3180714-.2975v3.54207143l-4.3750714.17880357s-.1517857-.80871428-1.0455-.77532143zm21.3319643-.32117857c-.1526964.26532143-.4307679.43380357-.7364643.44655357l-10.2765.14692858-.3223928-3.21603572c1.4868928.04523214 9.4076785.10108929 10.0369821.13508929.291125.01548214.5537143.18335714.6894107.44139285l.6244464 1.18483929c.1429822.27108929.1369108.59651786-.0154821.86123214z"/></g></svg>