<svg height="40" viewBox="0 0 40 40" width="40" xmlns="http://www.w3.org/2000/svg"><g fill="#ff4500" transform="translate(5 5)"><path d="m29.0095915 16.3431026c-.1277033-.2612957-.1277033-.5609644 0-.8221981l1.1837967-2.4217124c.6590976-1.3483852.1368781-2.9555244-1.1888801-3.65894617l-2.3811077-1.2633943c-.2568943-.13625813-.4330132-.37877033-.4832886-.66511078l-.4656829-2.65504979c-.259312-1.47825813-1.6267287-2.47161586-3.1124878-2.26140143l-2.668936.37753049c-.2880762.04066667-.5729289-.05194919-.7819035-.25410467l-1.9373079-1.87413821c-1.0787205-1.04357114-2.7686189-1.04363313-3.8472774 0l-1.93737 1.87432418c-.2090365.20221748-.4938892.29464736-.7819034.25410468l-2.66893599-.37753049c-1.48625508-.21033841-2.85317581.78314329-3.1124878 2.26140142l-.46568293 2.65492582c-.05027541.28640243-.22639431.52885264-.48322663.66517276l-2.38110772 1.26339431c-1.32575813.70335978-1.84797764 2.31062298-1.18888008 3.65900808l1.18373475 2.4216505c.12770326.2612957.12770326.5609644 0 .8221981l-1.18379674 2.4216504c-.65909757 1.3483852-.13687805 2.9555244 1.18888008 3.6589462l2.38110772 1.2633943c.25689431.1362581.43301321.3787703.48328862.6651108l.46568293 2.6550497c.23606504 1.3457196 1.3899817 2.2894838 2.71617378 2.2893598.13061687 0 .26315548-.0091748.39637601-.0280203l2.668936-.3775305c.2878282-.0408527.5728668.0519492.7819034.2541047l1.937308 1.8741382c.5394532.5218475 1.2314065.7827093 1.9236077.7826473.6920152-.000062 1.3844024-.2609237 1.9236077-.7826473l1.9373699-1.8741382c.2090366-.2021555.4939512-.2945234.7819035-.2541047l2.668936.3775305c1.486441.2102764 2.8531758-.7831433 3.1124878-2.2614014l.4657449-2.6549259c.0502754-.2864024.2263943-.5288526.4832266-.6651727l2.3811077-1.2633943c1.3257582-.7033598 1.8479777-2.310623 1.1888801-3.6590082zm-.8631128 4.4635387-2.3811078 1.2633943c-.7591524.4028851-1.2798221 1.1193872-1.4282926 1.9659481l-.465683 2.6549878c-.0877185.5001505-.5501158.8360844-1.0530559.7651037l-2.6689359-.3775305c-.8511484-.1205742-1.69337.1533679-2.3111189.7509075l-1.93737 1.8740763c-.3648841.3529817-.9366351.3529817-1.3016433 0l-1.9373079-1.8741383c-.5220955-.5050477-1.204626-.7787418-1.9171606-.7787418-.1305548 0-.2621636.0091748-.3939583.0278343l-2.66893596.3775305c-.5025061.0710427-.96527541-.2649532-1.0530559-.7651036l-.46574492-2.6550498c-.14853252-.846561-.66914024-1.563125-1.42835467-1.9658862l-2.38110772-1.2633943c-.44857318-.2379868-.62525-.7817175-.40226525-1.2379157l1.18379675-2.4217124c.3774065-.7721707.3774065-1.6577866 0-2.4299573l-1.18379675-2.4217124c-.22298475-.4561982-.04630793-.9999289.40226525-1.2379156l2.38110772-1.26339436c.75915244-.40288516 1.27982215-1.11938719 1.42829268-1.96594817l.46568293-2.6549878c.08778049-.50015041.55011585-.83614634 1.05305589-.76510366l2.66893595.37753049c.8508384.1204502 1.6933699-.15336789 2.3111189-.75090752l1.9373699-1.87413821c.3648842-.35298171.9366352-.35298171 1.3016433 0l1.937308 1.87413821c.617749.59760162 1.4601565.87135772 2.3111189.75090752l2.6689359-.37753049c.5025681-.07110467.9653374.26495325 1.0530559.76510366l.465683 2.6550498c.1485325.84656097.6691402 1.563125 1.4283546 1.96588617l2.3811078 1.26339436c.4485731.2379867.62525.7817174.4022652 1.2379156l-1.1837967 2.4216504c-.3774065.7721088-.3774065 1.6578486 0 2.4299573l1.1837967 2.4216504c.2230468.4563222.0463699 1.0001149-.4022032 1.2381017z"/><path d="m21.9380549 9.24397967c-.3573832-.35744512-.9370071-.35744512-1.2944523 0l-12.08153349 12.08159553c-.35744513.3574451-.35744513.9370071 0 1.2944522.17872256.1787226.41298983.2681149.64719512.2681149.23420528 0 .46853455-.0893303.64719512-.2681149l12.08153355-12.0815335c.3575691-.3575071.3575691-.93700711.000062-1.29451423z"/><path d="m11.5888222 7.69418293c-1.85058135 0-3.35617789 1.50559654-3.35617789 3.35617787 0 1.8505813 1.50559654 3.3561778 3.35617789 3.3561778 1.8505813 0 3.3561778-1.5055965 3.3561778-3.3561778 0-1.85058133-1.5055965-3.35617787-3.3561778-3.35617787zm0 4.88167377c-.8411677 0-1.525496-.6843282-1.525496-1.5255579 0-.8411677.6843283-1.52549595 1.525496-1.52549595.8411676 0 1.5255579.68432825 1.5255579 1.52549595-.000062.8412297-.6843903 1.5255579-1.5255579 1.5255579z"/><path d="m18.9113018 17.4575305c-1.8505813 0-3.3561778 1.5055965-3.3561778 3.3561778s1.5055965 3.3561779 3.3561778 3.3561779 3.3561779-1.5055966 3.3561779-3.3561779-1.5055966-3.3561778-3.3561779-3.3561778zm0 4.8816738c-.8411677 0-1.5255579-.6843283-1.5255579-1.525496 0-.8411676.6843283-1.5254959 1.5255579-1.5254959.8411677 0 1.525496.6843283 1.525496 1.5254959 0 .8411677-.6843283 1.525496-1.525496 1.525496z"/></g></svg>