<svg height="40" viewBox="0 0 40 40" width="40" xmlns="http://www.w3.org/2000/svg"><g fill="#ff4500" transform="translate(12 9)"><path d="m2.18322222 6.98636842h11.35281288c.2072573 0 .3859006-.1458538.4276959-.34881286.0417953-.20295907-.0652515-.40763743-.255848-.48909942-2.3382456-1.00210526-3.89650288-2.74973099-4.42092978-3.40089474.19972514-.28392982.31925731-.62811696.31925731-1.00095906.00004093-.96329825-.7833041-1.74660234-1.74656141-1.74660234s-1.74660234.78330409-1.74660234 1.74660234c0 .37018129.11744445.71244444.31454971.99518713-.52598245.65746784-2.07646199 2.40374269-4.41618129 3.40666667-.19059649.08146199-.29764327.28614035-.25584795.48909942.04175439.20295906.2204386.34881286.42765497.34881286z"/><path d="m14.9427895 8.11848538c-.0699182-.15735673-.2264152-.25883626-.3987135-.25883626h-13.36889471c-.17225731 0-.32875439.10147953-.39871345.25883626-.51509357 1.15684211-.77646784 2.36702342-.77646784 3.59681282 0 1.8540585.56970175 3.6313217 1.64725146 5.1404153l2.80069591 3.9204502c.08187134.1147018.21405263.1829416.35519883.1829416h6.1130468c.1411462 0 .2733275-.0682398.3551988-.1829416l2.8006959-3.9204502c1.0775088-1.5090936 1.6472105-3.2863977 1.6472105-5.1404153 0-1.2297894-.2613742-2.43997071-.7765087-3.59681282zm-11.26582459 7.82297072c-.07675438.0550176-.16546199.081462-.25330994.081462-.1364386 0-.27078947-.0635321-.35564912-.1829415-.86476608-1.2105906-1.32144445-2.6369532-1.32144445-4.1246784 0-.2413567.1953041-.4366608.43666082-.4366608.24135673 0 .43666082.1953041.43666082.4366608 0 1.3048246.40084211 2.5554913 1.1585614 3.6172807.14028655.1961229.09468421.469-.10147953.6088772z"/></g></svg>