<svg height="40" viewBox="0 0 40 40" width="40" xmlns="http://www.w3.org/2000/svg"><path d="m10.3637557 5.2421909c-.8648675 0-.73912016-.9789935-.73912016-1.3240502.40962436-.02115486.73549586-.35900237.73549586-.77382678v-2.36839923c0-.42853371-.3474203-.77591469-.77591464-.77591469h-6.16823815c-.42849432 0-.77591469.34738098-.77591469.77591469v2.36839923c0 .4149032.32587156.7527507.7354959.77382678 0 .34726279.12882012 1.3240502-.7391202 1.3240502-1.43730948 0-2.60657857 1.16934787-2.60657857 2.60657856v11.54531594c0 .4284943.34738098.7759147.7759147.7759147h11.38856505c.4284943 0 .7759147-.347381.7759147-.7759147v-11.54531594h.0000394c.0000394-1.43723069-1.1692691-2.60657856-2.6065392-2.60657856zm-1.92521071 9.9353402h-1.16253262v1.162572c0 .4284943-.34738098.7759147-.77591469.7759147-.42849432 0-.77591469-.347381-.77591469-.7759147v-1.162572h-1.16257202c-.42849431 0-.77591469-.347381-.77591469-.7759147 0-.4284943.34738098-.7759147.77591469-.7759147h1.16257202v-1.1625326c0-.4284943.34738098-.7759147.77591469-.7759147.42849432 0 .77591469.347381.77591469.7759147v1.1625326h1.16253262c.42849432 0 .77591469.347381.77591469.7759147s-.34734158.7759147-.77591469.7759147zm2.97995991-6.54414075h-9.83677507v-.7845421c0-.58162086.47312832-1.05478858 1.05470979-1.05478858 1.26322504 0 2.29094958-1.02772453 2.29094958-2.29094957v-.58292089h3.14537757v.58292089c0 1.26322504 1.02772453 2.29094957 2.29094953 2.29094957.5815815 0 1.0547886.47316772 1.0547886 1.05478858z" fill="#ff4500" transform="translate(13 10)"/></svg>