<svg height="40" viewBox="0 0 40 40" width="40" xmlns="http://www.w3.org/2000/svg"><g fill="#ff4500" transform="translate(8 5)"><path d="m3.609914 7.219828h10.560345v1.724138h-10.560345z"/><path d="m18.0575431 7.5893319-.9246767-.98265087-1.2556035 1.18146552 2.2606681 2.40269395 3.2186423-3.87499998-1.3262931-1.10150862z"/><path d="m3.609914 12.607759h10.560345v1.724138h-10.560345z"/><path d="m18.0575431 12.9772629-.9246767-.9826508-1.2556035 1.1814655 2.2606681 2.402694 3.2186423-3.875-1.3262931-1.1015087z"/><path d="m3.609914 17.99569h10.560345v1.724138h-10.560345z"/><path d="m18.0575431 18.365194-.9246767-.9826509-1.2556035 1.1814655 2.2606681 2.402694 3.2186423-3.875-1.3262931-1.1015086z"/><path d="m3.609914 23.383621h10.560345v1.724138h-10.560345z"/><path d="m18.0575431 23.753125-.9246767-.9826509-1.2556035 1.1814656 2.2606681 2.4026939 3.2186423-3.875-1.3262931-1.1015086z"/><path d="m24.9461207 2.47844828c0-1.36885776-1.1095905-2.47844828-2.4784483-2.47844828h-19.93534481c-1.36885776 0-2.47844828 1.10959052-2.47844828 2.47844828v27.15517242c0 1.3688577 1.10959052 2.4784483 2.47844828 2.4784483h19.93534481c1.3688578 0 2.4784483-1.1095906 2.4784483-2.4784483zm-1.7241379 27.15517242c0 .4165948-.3377156.7543103-.7543104.7543103h-19.93534481c-.41659483 0-.75431035-.3377155-.75431035-.7543103v-27.15517242c0-.41659483.33771552-.75431035.75431035-.75431035h19.93534481c.4165948 0 .7543104.33771552.7543104.75431035z"/></g></svg>