<?xml version="1.0" encoding="UTF-8"?>
<svg width="40px" height="40px" viewBox="0 0 40 40" version="1.1" xmlns="http://www.w3.org/2000/svg" xmlns:xlink="http://www.w3.org/1999/xlink">
    <!-- Generator: Sketch 64 (93537) - https://sketch.com -->
    <title>ico-maleta-b</title>
    <desc>Created with Sketch.</desc>
    <g id="ico-maleta-b" stroke="none" stroke-width="1" fill="none" fill-rule="evenodd">
        <g id="equipaje" transform="translate(10.000000, 11.000000)" fill="#FFFFFF" fill-rule="nonzero">
            <path d="M14.1534668,2.99496094 L14.1534668,0.667242187 C14.1534668,0.302449219 13.8577441,0.0067265625 13.4929512,0.0067265625 L7.50704883,0.0067265625 C7.14225586,0.0067265625 6.8465332,0.302449219 6.8465332,0.667242187 L6.8465332,2.99496094 L4.97363672,2.99496094 L4.97363672,16.6456992 L16.0263223,16.6456992 L16.0263223,2.99496094 L14.1534668,2.99496094 Z M12.8324355,2.98971094 L8.16756445,2.98971094 L8.16756445,1.32775781 L12.8324355,1.32775781 L12.8324355,2.98971094 L12.8324355,2.98971094 Z" id="Shape"></path>
            <path d="M2.24523633,2.99496094 C1.0072207,2.99496094 0,4.00214062 0,5.24015625 L0,14.4004629 C0,15.6384375 1.0072207,16.6456582 2.24523633,16.6456582 L3.65260547,16.6456582 L3.65260547,2.99496094 L2.24523633,2.99496094 Z" id="Path"></path>
            <path d="M18.7548047,2.99496094 L17.3474355,2.99496094 L17.3474355,16.6456992 L18.7548047,16.6456992 C19.9928203,16.6456992 21.000041,15.6384785 21.000041,14.4005039 L21.000041,5.24015625 C21,4.00214062 19.9927793,2.99496094 18.7548047,2.99496094 Z" id="Path"></path>
        </g>
    </g>
</svg>