<svg height="40" viewBox="0 0 40 40" width="40" xmlns="http://www.w3.org/2000/svg"><path d="m12 0c-6.627 0-12 5.373-12 12s5.373 12 12 12 12-5.373 12-12-5.373-12-12-12zm0 3c3.90525 0 7.20375 2.5155 8.4495 6h-16.899c1.24575-3.4845 4.54425-6 8.4495-6zm0 10.5c-.82875 0-1.5-.67125-1.5-1.5s.67125-1.5 1.5-1.5 1.5.67125 1.5 1.5-.67125 1.5-1.5 1.5zm-9-1.5c4.09875 0 7.41825 3.9495 7.488 8.84775-4.242-.72675-7.488-4.40325-7.488-8.84775zm10.512 8.84775c.06975-4.89825 3.38925-8.84775 7.488-8.84775 0 4.4445-3.246 8.121-7.488 8.84775z" fill="#fff" transform="translate(8 8)"/></svg>