<svg height="40" viewBox="0 0 40 40" width="40" xmlns="http://www.w3.org/2000/svg"><g fill="#fff" transform="translate(11 10)"><path d="m8.62275449 0c-2.15073852 0-3.90003992 1.74978044-3.90003992 3.90051896v2.02075849c0 2.1508982 1.7493014 3.90067864 3.90003992 3.90067864 2.15089821 0 3.90003991-1.74978044 3.90003991-3.90067864v-2.02075849c.0000399-2.15073852-1.7491417-3.90051896-3.90003991-3.90051896z"/><path d="m17.2237924 14.9047505c-1.2488623-2.1282236-3.2450299-3.7060279-5.6207585-4.4427944-.0550898-.0170858-.1146507-.0025549-.1556886.038004-1.1051497 1.0896607-2.47840318 1.9398004-2.82171656 2.1451497-.36646706-.2342515-1.9100998-1.2403992-2.82778443-2.1451497-.04087824-.0405589-.10091816-.0550898-.15568862-.038004-2.37604791.7369261-4.37205589 2.3147305-5.62043912 4.4429541-.02858284.0487026-.02858284.1092215 0 .1579241 1.77277445 3.0208384 5.06842315 4.8974052 8.60087824 4.8974052 3.53261479 0 6.82842319-1.8765668 8.60119759-4.8974052.0287425-.0488622.0287425-.1093812 0-.1580838zm-3.2967665 1.1634331c0 .0860679-.0819161.1518563-.1678243.1518563h-1.0562874c-.0860679 0-.1799601.0739322-.1799601.1601597v1.0923753c0 .0859081-.045988.1515369-.1320559.1515369h-.9486627c-.0860678 0-.1671856-.0656288-.1671856-.1515369v-1.0923753c-.0003194-.0860679-.0590818-.1601597-.1451497-.1601597h-1.1017964c-.08606787 0-.15728544-.0659481-.15728544-.1518563v-.9405189c0-.0860679.07121757-.155529.15728544-.155529h1.1017964c.0860679 0 .1448303-.0702595.1448303-.156487v-1.0936527c0-.0860679.0811178-.1539321.1671857-.1539321h.9384431c.0859082 0 .1424351.0678642.1424351.1539321v1.0968463c0 .0862276.0833533.1531337.1695808.1531337h1.0668264c.0859082 0 .1678243.0728144.1678243.1588823z"/></g></svg>