<svg height="40" viewBox="0 0 40 40" width="40" xmlns="http://www.w3.org/2000/svg"><g fill="#41494f" transform="translate(11 10)"><path d="m10.8278858 16.6244854c-.94728942 1.165407-2.39739042 1.9097964-4.03327174 1.9097964-2.85454951 0-5.1390768-2.3333501-5.1390768-5.1720481 0-1.6808997.91114786-3.1734829 2.1304501-4.11696797v-1.76966852c-2.06323947 1.11975443-3.6617111 3.31424479-3.6617111 5.86254219 0 3.6788307 2.99023888 6.7204287 6.68999373 6.7204287 2.38851355 0 4.46062991-1.3106073 5.64062021-3.1252942-.0868665-.1978275-.1845121-.3893144-.2796215-.5827035-.4476482.1039863-.8959304.1946572-1.3473829.273915z"/><ellipse cx="7.031119" cy="2.374564" rx="2.387879" ry="2.374564"/><path d="m17.3993098 18.0523943-2.4937679-5.769335c-.2923028-.6752766-1.0265472-1.0455691-1.7449401-.882615l-5.02240925 1.15653-.00570656-5.40031054c-.00126812-.84330316-.68478753-1.54077194-1.52745663-1.54077194 0 0-.00126812 0-.00190219 0-.84330316 0-1.52555444.70063909-1.52555444 1.54330819l.00760875 7.31010689c0 .4641338.21304501.9086116.5769969 1.1977441.36395189.2897666.84076691.4007275 1.29221943.2954732l5.65330149-1.3010964 1.987786 4.6013918c.2504547.5769969.8122341.9219269 1.4031804.9219269.2016319 0 .4083363-.0393118.6055297-.1255443.7735563-.334151 1.1286313-1.2332517.7951144-2.0068079z"/></g></svg>