<svg height="40" viewBox="0 0 40 40" width="40" xmlns="http://www.w3.org/2000/svg"><g fill="#ff4500" transform="translate(6 10)"><path d="m17.0877109 15.1338906h-6.1754218c-.4654454 0-.8440469.3786016-.8440469.8440469v1.8940469c0 .4654453.3786015.8441015.8440469.8441015h6.1754765c.4654453 0 .8441016-.3786015.8441016-.8441015v-1.8940469c-.0001094-.4653906-.3787109-.8440469-.8441563-.8440469zm-.2411718 2.4969766h-5.6931329v-1.4117031h5.6931329z"/><path d="m27.72525 10.4430156.0086953-.004375-4.0690234-8.04474998c-.3289453-.65023437-.9857422-1.05410156-1.7142344-1.05410156h-.7733359v-.74785156c0-.2996875-.2429219-.54260937-.5426094-.54260937h-13.2694297c-.2996875 0-.54260937.24292187-.54260937.54260937v.74785156h-.77333594c-.72849219 0-1.38528906.40386719-1.71423438 1.05410156l-4.06907812 8.04474998.00869531.004375c-.17428906.2870547-.27475.623711-.27475.983336v8.4989297c0 1.0479218.85257813 1.9004453 1.9005 1.9004453h24.1990547c1.0479219 0 1.9004453-.8525782 1.9004453-1.9004453v-8.4989297c0-.359625-.1004609-.6962813-.27475-.983336zm-6.5479531-7.89742185h.7733359c.2711953 0 .5157031.15044531.6382578.39260156l3.3321094 6.58776563h-2.2657578v-2.02704688c0-.2996875-.2429219-.54260937-.5426094-.54260937h-.671289v-2.91085156c0-.2996875-.2429219-.54260938-.5426094-.54260938h-.7214375zm1.3927812 5.495875v1.4844375h-2.8633828c-.4913125 0-.9392031.28946094-1.1410547.73729685l-.7818125 1.7341407c-.0074375.0163515-.023789.0269609-.0417812.0269609h-7.4840391c-.0179922 0-.0343437-.0106094-.0417812-.0270156l-.78175785-1.7340313c-.20190625-.44789061-.64979687-.73735155-1.14110938-.73735155h-2.86338281v-1.4844375zm-14.66215622-6.90692188h12.18415622v2.36824219h-12.18415622zm13.44820312 3.45346094v2.36824219h-14.71225v-2.36824219zm-15.94501562-1.6498125c.1225-.24221093.36706249-.39260156.63825781-.39260156h.77333594v.95719531h-.7214375c-.2996875 0-.54260938.24292188-.54260938.54260938v2.91085156h-.67128906c-.2996875 0-.54260938.24292188-.54260938.54260938v2.02704687h-2.26575781zm20.68844532 17.68167189h-24.1990547c-.38303125 0-.69469531-.3116641-.69469531-.6945859v-8.4989297c0-.3829766.31160937-.694586.69469531-.694586h6.39285938c.0179375 0 .03439843.0106094.04183593.0270703l.78175781 1.7340313c.20190625.4478906.64974219.7372422 1.14105468.7372422h7.4839844c.4913125 0 .9392031-.2894063 1.1410547-.7371875l.7818125-1.734086v-.0000546c.0074375-.0164063.023789-.0270157.0417812-.0270157h6.3928594c.3830313 0 .6945859.3116641.6945859.694586v8.4989297h.0000547c.0000547.3830312-.3115547.6945859-.6945859.6945859z"/></g></svg>