<svg height="40" viewBox="0 0 40 40" width="40" xmlns="http://www.w3.org/2000/svg"><path d="m13.9601146 10.9290781c-.2138281-2.78392185-1.5099948-4.52848956-2.653474-6.06797914-1.0588229-1.42522917-1.97330727-2.65598958-1.97330727-4.47154167 0-.14583333-.08166666-.279125-.21116666-.34595312-.12990104-.06722917-.28597917-.05621875-.40406771.02960416-1.71733333 1.22886459-3.15021875 3.30002605-3.65075521 5.27621355-.34748438 1.37582812-.39345833 2.92253645-.39991146 3.9440625-1.5859375-.33873438-1.94519791-2.71100521-1.94898958-2.73685417-.01786458-.12304688-.09304167-.230125-.20241667-.28860417-.11050521-.05771354-.24040625-.06190625-.35244271-.00645312-.08316145.04025-2.04130208 1.03519791-2.15523437 5.00773438-.00798438.1321615-.00834896.264724-.00834896.39725 0 3.8593698 3.14033854 6.999526 7 6.999526.00532292.0003646.01101042.0011302.01556771 0h .00492187c3.85018232-.0110468 6.97951042-3.1469739 6.97951042-6.999526 0-.1940677-.0398854-.7374792-.0398854-.7374792zm-6.9601146 6.9592761c-1.2866875 0-2.33333333-1.1149323-2.33333333-2.4854375 0-.0467032-.00036459-.0938073.00302604-.1515209.01556771-.5779739.12534375-.972526.24572916-1.2349531.22560417.4845677.62890625.9300156 1.28402605.9300156.21495833 0 .38890104-.1739427.38890104-.3888645 0-.5536563.01141146-1.1924063.14926041-1.7688855.1226823-.5111458.41584376-1.0549583.78728126-1.4908906.1651927.5658333.48726562 1.0237865.80171875 1.4707656.45004166.6394792.91525 1.3006511.99691666 2.428125.00492188.0668282.00988021.1340573.00988021.2062084-.00007292 1.3704687-1.04671875 2.4854375-2.33340625 2.4854375z" fill="#ff4500" transform="translate(13 10)"/></svg>