<?xml version="1.0" encoding="UTF-8"?>
<svg width="40px" height="41px" viewBox="0 0 40 41" version="1.1" xmlns="http://www.w3.org/2000/svg" xmlns:xlink="http://www.w3.org/1999/xlink">
    <!-- Generator: Sketch 64 (93537) - https://sketch.com -->
    <title>ico-retirada-b</title>
    <desc>Created with Sketch.</desc>
    <g id="ico-retirada-b" stroke="none" stroke-width="1" fill="none" fill-rule="evenodd" transform="translate(0.000000, 1.000000)">
        <g id="Group-39" transform="translate(11.000000, 6.000000)" fill="#FFFFFF" fill-rule="nonzero">
            <g id="referee-sanctioning">
                <path d="M17.292,12.8710909 C17.1545455,12.498 16.8681818,12.1805455 16.4683636,12.0234545 L13.0369091,10.296 C12.9567273,10.2649091 12.8749091,10.2441818 12.7930909,10.2272727 L12.7930909,0 L0.0976363636,0 L0.0976363636,18.7265455 L8.20472727,18.7276364 C8.20254545,19.5556364 8.18345455,23.8614545 8.18345455,23.8614545 L14.4316364,23.8614545 L17.3110909,14.4496364 C17.5270909,13.8998182 17.4987273,13.3281818 17.292,12.8710909 Z M1.05,0.951818182 L11.8407273,0.951818182 L11.8407273,17.0934545 C11.5783636,16.9750909 11.3334545,16.7558182 11.1392727,16.3641818 L11.1392727,13.3505455 C11.1392727,12.2989091 11.2418182,11.4463636 10.1612727,11.4463636 C9.08072727,11.4463636 8.20472727,12.2989091 8.20472727,13.3505455 L8.20472727,17.7747273 L1.05,17.7747273 L1.05,0.951818182 L1.05,0.951818182 Z" id="Shape"></path>
                <polygon id="Rectangle-path" points="7.56545455 24.7456364 15.5994545 24.7456364 15.5994545 27.3769091 7.56545455 27.3769091"></polygon>
            </g>
        </g>
    </g>
</svg>