<svg height="40" viewBox="0 0 40 40" width="40" xmlns="http://www.w3.org/2000/svg"><path d="m11.1398563 19.3103004h10.833794s-1.601253-3.557214-2.1181132-4.4591856c-.4965911-.8614336-5.7158651-2.0877096-6.2124562-2.1991892.2533628-.2533629.4864566-.5472637.7195504-.8715681.810761-1.185738 1.3073521-2.68564587 1.3073521-3.92205641v-1.8444813c.374977-.64860881.374977-1.29721762-.020269-1.95596094-.1621522 0-.3344389-.01013451-.4965911-.01013451h.2330938c-.0709416-2.23972729-1.9863645-4.03353602-4.347706-4.03353602-2.36134139 0-4.27676428 1.79380873-4.34770587 4.03353602h.28376636c-.16215221 0-.33443892.01013451-.49659112.01013451-.39524599.65874332-.39524599 1.32762116 0 1.98636448v1.81407776c0 1.23641054.50672563 2.74645291 1.30735213 3.92205641.21282476.3141699.44591855.5979362.68914685.851299l-.06080707.0101345s-5.72599963 1.3073522-6.25299429 2.2093238-2.11811314 4.4591856-2.11811314 4.4591856h10.83379395zm-2.87820161-7.8643818c-.52699466-.7600885-.90197162-1.67219463-1.09452736-2.5336282.49659111.43578404 2.02690252 1.5505804 3.93219087.59793624 1.8140778.90197166 3.2835821-.06080707 3.8511148-.53712916-.1925557.84116454-.5675327 1.72286712-1.0742583 2.46268652-.2837664.4155151-.5979363.770223-.9323752 1.0539894-.1216141.1013451-.2432283.2026902-.3648424.2837663-.4965912.3445734-1.0033168.5168602-1.5100424.5168602s-1.0134513-.1722868-1.51004239-.5168602c-.13174867-.0912106-.26349733-.1925557-.38511148-.3040354-.32430441-.2634973-.62833979-.6182052-.91210614-1.0235857zm-.26349733-5.67532711v-1.47963885h.33443892v1.47963885zm1.14519993 0v-1.47963885h.33443891v1.47963885zm1.13506541 0v-1.47963885h.3344389v1.47963885zm1.1451999 0v-1.47963885h.3344389v1.47963885zm1.1452 0v-1.47963885h.3344389v1.47963885zm1.1451999 0v-1.47963885h.3344389v1.47963885zm-.4256495 1.25667956c-.9425097.27363184-2.0674406.30403538-2.1789203.30403538-.1114796 0-1.2364105-.04053805-2.17892018-.30403538-.86143357-.2432283-1.56071494-.18242123-1.86475032.24322831v-.68914686h8.026534v.61820527c-.3344389-.36484246-1.0033168-.40538051-1.8039432-.17228672zm.871568 1.11479639s-.2939008.59793625-.83103.74995393c-.5371292.15201769-1.1046619-.19255574-1.1046619-.19255574s.2939009-.59793624.8310301-.74995393c.5269946-.1621522 1.1046618.19255574 1.1046618.19255574zm-4.17541916.55739819s-.56753271.34457343-1.10466188.19255574c-.53712917-.15201768-.83103004-.74995393-.83103004-.74995393s.56753271-.34457343 1.10466188-.19255574.83103004.74995393.83103004.74995393zm5.20913946-4.40851299v1.47963885h-.3344389v-1.47963885zm-8.34070386 0h .33443891v1.47963885h-.33443891z" fill="#ff4500" transform="translate(9 9)"/></svg>