<svg height="40" viewBox="0 0 40 40" width="40" xmlns="http://www.w3.org/2000/svg"><g fill="#41494f" transform="translate(10 6)"><path d="m19.7086567 0h-18.41731342c-.69245149 0-1.25373134.56127985-1.25373134 1.25373134v24.23462686c0 .6924515.56127985 1.2537314 1.25373134 1.2537314h1.94955224v2.720597c0 .3461865.28060075.6268656.62678732.626944.18327985 0 .35739179-.0801605.47649626-.2194813l1.37910448-1.6047762 1.37910448 1.6047762c.22504478.2631268.62075373.294.88380224.0690335.13924254-.1191044.21948134-.2932164.21948134-.4764962v-2.720597h11.50298506c.6924515 0 1.2537314-.5612799 1.2537314-1.2537314v-24.23462686c0-.69245149-.5612799-1.25373134-1.2537314-1.25373134zm-13.50895521 26.8737313c-.22504477-.2631268-.62075373-.294-.88380224-.0690335-.02476119.0211567-.0477985.0442723-.06903358.0690335l-.7522388.877612v-2.3820896c.79196641.2983097 1.66534701.2983097 2.45731343 0v2.3820896zm13.47761191-1.3916417h-11.47164176v-.9089553c1.40488433-1.3709552 1.43238806-3.6213246.06143284-5.0262089-1.37095523-1.4048844-3.62132463-1.4323881-5.02620896-.0614329-1.40488433 1.3709553-1.43238806 3.6213247-.06143283 5.026209.02021641.0207649.04066791.0412164.06143283.0614328v.9089553h-1.94955224v-24.22835826h18.41731342z"/><path d="m15.9474627 4.95850746h-10.89492539c-.34618656 0-.62686567.28067911-.62686567.62686567 0 .34618657.28067911.62686568.62686567.62686568h10.89492539c.3461866 0 .6268657-.28067911.6268657-.62686568 0-.34618656-.2806008-.62686567-.6268657-.62686567z"/><path d="m15.9474627 8.56298507h-10.89492539c-.34618656 0-.62686567.28067911-.62686567.62686568 0 .34618656.28067911.62686567.62686567.62686567h10.89492539c.3461866 0 .6268657-.28067911.6268657-.62686567 0-.34618657-.2806008-.62686568-.6268657-.62686568z"/><path d="m15.9474627 12.1674627h-10.89492539c-.34618656 0-.62686567.2806791-.62686567.6268657 0 .3461865.28067911.6268656.62686567.6268656h10.89492539c.3461866 0 .6268657-.2806791.6268657-.6268656 0-.3461866-.2806008-.6268657-.6268657-.6268657z"/><path d="m15.9474627 15.7719403h-10.89492539c-.34618656 0-.62686567.2806791-.62686567.6268657 0 .3461865.28067911.6268656.62686567.6268656h10.89492539c.3461866 0 .6268657-.2806791.6268657-.6268656 0-.3461866-.2806008-.6268657-.6268657-.6268657z"/><path d="m15.9474627 19.3764179h-4.9773134c-.3461866 0-.6268657.2806791-.6268657.6268657 0 .3461865.2806791.6268657.6268657.6268657h4.9773134c.3461866 0 .6268657-.2806792.6268657-.6268657 0-.3461866-.2806008-.6268657-.6268657-.6268657z"/></g></svg>