<?xml version="1.0" encoding="UTF-8"?>
<svg width="40px" height="40px" viewBox="0 0 40 40" version="1.1" xmlns="http://www.w3.org/2000/svg" xmlns:xlink="http://www.w3.org/1999/xlink">
    <!-- Generator: Sketch 64 (93537) - https://sketch.com -->
    <title>ico-otros-servicios-n</title>
    <desc>Created with Sketch.</desc>
    <g id="ico-otros-servicios-n" stroke="none" stroke-width="1" fill="none" fill-rule="evenodd">
        <g id="005-implante" transform="translate(12.000000, 10.000000)" fill="#41494F" fill-rule="nonzero">
            <path d="M15.2619934,4.1015625 C15.2619934,1.84020996 13.4217834,0 11.1604309,0 C9.08721922,0 8.14147949,1.24450684 7.65563965,2.44552613 C6.91970824,0.82107543 5.73822023,0 4.1291809,0 C1.86782836,0 0.0276183984,1.84020996 0.0276183984,4.1015625 C0.0276183984,4.22164918 0.0224304297,4.36935426 0.0172424219,4.53750609 C-0.0239562891,5.77362062 -0.0994873047,8.11340332 1.24298094,9.50103758 C1.93984984,10.2207947 2.91091918,10.5859375 4.1291809,10.5859375 L11.1604309,10.5859375 C12.3551941,10.5859375 13.3050537,10.2407837 13.9830017,9.56054688 C15.2767945,8.26156617 15.2688598,6.02188109 15.2626038,4.41513062 L15.2619934,4.1015625 Z" id="Path"></path>
            <polygon id="Path" points="11.3389587 11.7578125 3.95050047 11.7578125 4.06768797 12.9296875 2.3713684 12.9296875 2.3713684 14.1015625 4.18487547 14.1015625 4.30191039 15.2734375 2.9573059 15.2734375 2.9573059 16.4453125 4.41909789 16.4453125 4.53628539 17.6171875 3.5432434 17.6171875 3.5432434 18.7890625 4.65332031 18.7890625 4.77050781 20 10.5189514 20 10.6361389 18.7890625 11.7463684 18.7890625 11.7463684 17.6171875 10.7531738 17.6171875 10.8703613 16.4453125 12.3323059 16.4453125 12.3323059 15.2734375 10.9875488 15.2734375 11.1045837 14.1015625 12.9182434 14.1015625 12.9182434 12.9296875 11.2217713 12.9296875"></polygon>
        </g>
    </g>
</svg>