<svg height="40" viewBox="0 0 40 40" width="40" xmlns="http://www.w3.org/2000/svg"><g fill="#ff4500" transform="translate(10 12)"><path d="m5.87647078 10.4417375c.56839829 0 1.11780968-.0367148 1.63770828-.1050575v-5.69853787c-.51984823-.0682924-1.06930999-.10500712-1.63770828-.10500712-3.24545048 0-5.87642042 1.19325364-5.87642042 2.66526722v.57801765c0 1.47196321 2.63096994 2.66531762 5.87642042 2.66531762z"/><path d="m5.87647078 13.4172919c.56839829 0 1.11780968-.0367147 1.63770828-.1049567v-1.6703436c-.51999932.0682924-1.0691589.1055107-1.63770828.1055107-2.83292608 0-5.19742469-.9092559-5.75282929-2.11938121-.08088319.17627096-.12359113.35878694-.12359113.54588601v.5780176c0 1.4720136 2.63096994 2.6652672 5.87642042 2.6652672z"/><path d="m7.51412869 14.7474829v-.1298361c-.51999932.0682924-1.06915889.1055107-1.63770827.1055107-2.83292609 0-5.1974247-.9092559-5.7528293-2.1193812-.08088319.1762206-.12359112.3587366-.12359112.5458356v.5780176c0 1.472064 2.63096993 2.6653176 5.87642042 2.6653176.64902966 0 1.27328066-.0478449 1.85703971-.1359804-.14469328-.2959841-.21933144-.6081348-.21933144-.9315165z"/><path d="m14.3494631.01908763c-3.2454505 0-5.8764204 1.19325365-5.8764204 2.66526722v.57801765c0 1.47201357 2.6309699 2.66526722 5.8764204 2.66526722 3.2454001 0 5.8764204-1.19325365 5.8764204-2.66526722v-.57801765c0-1.47201357-2.6310203-2.66526722-5.8764204-2.66526722z"/><path d="m14.3494631 7.23345497c-2.8329261 0-5.19742468-.9092056-5.75282928-2.11938126-.08088319.1762206-.12359112.35873658-.12359112.54588597v.57801765c0 1.47201358 2.6309699 2.66526723 5.8764204 2.66526723 3.2454001 0 5.8764204-1.19325365 5.8764204-2.66526723v-.57801765c0-.18714939-.0427079-.36966537-.1235911-.54588597-.5554046 1.21017566-2.9199032 2.11938126-5.7528293 2.11938126z"/><path d="m14.3494631 10.2091102c-2.8329261 0-5.19742468-.90925599-5.75282928-2.11938129-.08088319.17622059-.12359112.35873658-.12359112.54588597v.57801765c0 1.47206397 2.6309699 2.66531757 5.8764204 2.66531757 3.2454001 0 5.8764204-1.1932536 5.8764204-2.66531757v-.57801765c0-.18714939-.0427079-.36966538-.1235911-.54588597-.5554046 1.21017566-2.9199032 2.11938129-5.7528293 2.11938129z"/><path d="m14.3494631 13.3453734c-2.8329261 0-5.19742468-.909256-5.75282928-2.1193813-.08088319.176271-.12359112.3587366-.12359112.5458356v.578068c0 1.4720136 2.6309699 2.6652673 5.8764204 2.6652673 3.2454001 0 5.8764204-1.1932537 5.8764204-2.6652673v-.578068c0-.187099-.0427079-.3696653-.1235911-.5458356-.5554046 1.210075-2.9199032 2.1193813-5.7528293 2.1193813z"/><path d="m14.3494631 16.3209782c-2.8329261 0-5.19742468-.9092056-5.75282928-2.1193309-.08088319.176271-.12359112.3588373-.12359112.5458356v.5780177c0 1.4720136 2.6309699 2.6652672 5.8764204 2.6652672 3.2454001 0 5.8764204-1.1932536 5.8764204-2.6652672v-.578068c0-.1870991-.0427079-.3696654-.1235911-.5458356-.5554046 1.2101253-2.9199032 2.1193812-5.7528293 2.1193812z"/></g></svg>