<?xml version="1.0" encoding="UTF-8"?>
<svg width="40px" height="40px" viewBox="0 0 40 40" version="1.1" xmlns="http://www.w3.org/2000/svg" xmlns:xlink="http://www.w3.org/1999/xlink">
    <!-- Generator: Sketch 64 (93537) - https://sketch.com -->
    <title>ico-pruebas-radiodiagnosticas-n</title>
    <desc>Created with Sketch.</desc>
    <g id="ico-pruebas-radiodiagnosticas-n" stroke="none" stroke-width="1" fill="none" fill-rule="evenodd">
        <g id="radiografia" transform="translate(9.000000, 11.000000)" fill="#41494F" fill-rule="nonzero">
            <path d="M4.91093874,10.0740802 L5.20061259,10.2231091 L5.82632866,13.7553166 C5.89237364,14.1274611 6.21455664,14.3978005 6.59268971,14.3978005 C6.97082273,14.3978005 7.29300578,14.1276322 7.35887962,13.7553166 L7.98459569,10.2231091 L8.27444067,10.0740802 C8.87072738,9.76763845 9.24098978,9.16125677 9.24098978,8.49156774 C9.24098978,7.51115946 8.44348839,6.71365807 7.46308007,6.71365807 L5.72212821,6.71365807 C4.74171989,6.71365807 3.9442185,7.51115946 3.9442185,8.49156774 C3.9442185,9.16125677 4.31465198,9.76763845 4.91093874,10.0740802 Z" id="Path"></path>
            <path d="M0,0 L0,18.4812952 L22.4265403,18.4812952 L22.4265403,0 L0,0 Z M5.72212821,5.39960298 L7.46325121,5.39960298 C9.16810081,5.39960298 10.555216,6.78671813 10.555216,8.49156774 C10.555216,9.54161414 10.0318183,10.5020036 9.1689563,11.0712564 L8.65291592,13.9845918 C8.47565536,14.9853611 7.60920028,15.7118556 6.59268971,15.7118556 C5.57635022,15.7118556 4.70989514,14.9855322 4.53263458,13.9845918 L4.01642306,11.0712564 C3.15373223,10.5020036 2.63033449,9.54161414 2.63033449,8.49156774 C2.6301634,6.78671813 4.0172786,5.39960298 5.72212821,5.39960298 Z M5.25998462,3.9442185 L5.25998462,2.6301634 L6.5750663,2.6301634 L6.5750663,3.9442185 L5.25998462,3.9442185 Z M3.94473181,3.9442185 L2.62965009,3.9442185 L2.62965009,2.6301634 L3.94473181,2.6301634 L3.94473181,3.9442185 Z M19.7968902,7.26853833 L19.7968902,8.58259343 L12.5283519,8.58259343 L12.5283519,7.26853833 L19.7968902,7.26853833 Z M15.851474,3.9442185 L15.851474,2.6301634 L19.7968902,2.6301634 L19.7968902,3.9442185 L15.851474,3.9442185 Z M19.7968902,9.89870173 L19.7968902,11.2127568 L12.5283519,11.2127568 L12.5283519,9.89870173 L19.7968902,9.89870173 Z M19.7968902,12.5288651 L19.7968902,13.8429202 L12.5283519,13.8429202 L12.5283519,12.5288651 L19.7968902,12.5288651 Z" id="Shape"></path>
        </g>
    </g>
</svg>