<svg height="40" viewBox="0 0 40 40" width="40" xmlns="http://www.w3.org/2000/svg"><path d="m28.7853431 1.99692484c-.1642385-.18717321-.4011666-.29450164-.6502255-.29450164h-4.0226127c.0183856-.47864215.0158742-.78176797.0149265-.84588072-.0066814-.47286111-.3918317-.85265686-.8647876-.85265686h-17.52528759c-.4729085 0-.8581536.37989052-.86478758.85265686-.00094771.06420752-.00345915.36733334.01492647.84588072h-4.02261275c-.24901143 0-.48589215.10732843-.65013072.29450164-.16423856.18722058-.23977124.43608987-.20735947.68301634.03165359.24171405.81834967 5.96210621 4.39198366 9.65477292.16295915.1683611.38714052.2634166.62146242.2634166h2.95387745c.46485294.6716912.99808333 1.295049 1.61248529 1.8398889l.70433982 3.4740294c-.56431531.5501945-.91582185 1.3177468-.91582185 2.1662811v.0957663c0 .7159967.25043301 1.3743252.66766345 1.8931503-.19134318.1061438-.39107358.2296781-.59265201.37392-.95254575.6813578-2.11301961 1.9502974-2.23228921 4.1263872-.01303105.2372598.07212091.4693072.23550653.6418383.16338562.1724836.39045752.2702402.62800164.2702402h12.83581695c.2375442 0 .4647108-.097804.6280017-.2702402.1633856-.1726259.2484902-.4046259.2355065-.6418383-.1192222-2.1760898-1.2796961-3.4450294-2.2322418-4.1263872-.2015785-.1441945-.4013088-.2677288-.592652-.37392.4171356-.5187777.6675686-1.1771062.6675686-1.8931503v-.0957663c0-.848487-.3514117-1.6161814-.9158218-2.1662811l.7043398-3.4740294c.6144494-.5449346 1.1476324-1.1681977 1.6124853-1.8398889h2.9538775c.2343692 0 .458598-.0950555.6214624-.2634166 3.5736814-3.69266671 4.36033-9.41305887 4.392031-9.65477292.0326961-.24692647-.0428366-.49574837-.2069804-.68301634zm-17.6797647 18.08140526c0-.7153808.5819902-1.2972762 1.2972762-1.2972762h4.1943382c.715286 0 1.2972762.5818954 1.2972762 1.2972762v.0957663c0 .715286-.5819902 1.2972761-1.2972762 1.2972761h-4.1943382c-.715286 0-1.2972762-.5819901-1.2972762-1.2972761zm6.967487-6.7699837c-.152487.1261405-.2571618.3008039-.2964919.4947059l-.6586601 3.2482843h-5.2359216l-.6585653-3.2482843c-.0393301-.1938546-.1440049-.3685654-.2964919-.4947059-3.57259146-2.9536405-4.19528591-9.28023692-4.30280388-11.57474346h15.75178598c-.1074706 2.29469608-.7301651 8.62105556-4.3028513 11.57474346zm-12.67655396-2.4398856c-2.17523693-2.41586113-3.13313726-5.7918023-3.49151471-7.43632028h3.10536928c.20517974 2.01369935.7118268 4.88465196 1.9571683 7.43632028zm14.50668136 14.8814542h-10.80638561c.53953268-1.8622075 2.29531211-2.4411176 2.68903921-2.5488251h5.4276912c.4020196.1103137 2.1513072.6908349 2.6896552 2.5488251zm3.7003905-14.8814542h-1.5712124c1.2454363-2.55157355 1.752036-5.42252616 1.9573105-7.43632028h3.1066013c-.3561977 1.64262255-1.3108758 5.01401471-3.4926994 7.43632028z" fill="#ff4500" transform="translate(5.5 6.5)"/></svg>