<?xml version="1.0" encoding="UTF-8"?>
<svg width="40px" height="40px" viewBox="0 0 40 40" version="1.1" xmlns="http://www.w3.org/2000/svg" xmlns:xlink="http://www.w3.org/1999/xlink">
    <!-- Generator: Sketch 64 (93537) - https://sketch.com -->
    <title>ico-consultas-r</title>
    <desc>Created with Sketch.</desc>
    <g id="ico-consultas-r" stroke="none" stroke-width="1" fill="none" fill-rule="evenodd">
        <g id="001-dentista-1" transform="translate(10.000000, 10.000000)" fill="#FF4500" fill-rule="nonzero">
            <path d="M19.1750943,15.6836658 L13.8949865,13.9085714 C13.7760108,13.8691105 13.6519677,13.8484636 13.5267385,13.8484636 L9.12479784,13.8484636 L1.98760108,6.88382749 C1.5303504,6.43757412 0.797843666,6.44630728 0.350296496,6.9032345 C-0.0962803235,7.36113208 -0.0878167116,8.09363881 0.369380054,8.54113208 L7.84382749,15.8352561 C8.06021563,16.0469542 8.34991914,16.1653369 8.65272237,16.1653369 L9.16792453,16.1653369 L9.16792453,19.0602695 L7.64371968,19.0602695 C7.59051213,19.0602695 7.54760108,19.104097 7.54760108,19.1567655 L7.54760108,20.4276011 C7.54760108,20.4802156 7.59051213,20.5240431 7.64371968,20.5240431 L14.5557412,20.5240431 C14.6090027,20.5240431 14.6528302,20.4802156 14.6528302,20.4276011 L14.6528302,19.1567655 C14.6528302,19.104097 14.6090566,19.0602695 14.5557412,19.0602695 L12.7381132,19.0602695 L12.7381132,16.1653369 L13.3375202,16.1653369 L18.4366038,17.8796226 C18.5593531,17.9197305 18.6839892,17.9410243 18.8060916,17.9410243 C19.2896496,17.9410243 19.7412399,17.634717 19.9034501,17.1512668 C20.107062,16.5436119 19.7814016,15.8878167 19.1750943,15.6836658 Z" id="Path"></path>
            <path d="M8.6497035,3.70140162 C8.66566038,3.71175202 8.68350404,3.7167655 8.70231806,3.7167655 C8.71455526,3.7167655 8.7251752,3.71487871 8.7367655,3.71051213 C8.76560647,3.69956873 8.78749326,3.67514825 8.79595687,3.64566038 C8.79843666,3.63407008 9.02927224,2.73687332 8.50404313,2.08512129 L9.21962264,0.772291105 L13.1402156,0.772291105 L13.1402156,9.55455526 C13.1402156,9.76749326 13.3137466,9.94070081 13.5266846,9.94070081 C13.7402695,9.94070081 13.9125067,9.76754717 13.9125067,9.55455526 L13.9125067,8.92663073 L19.8483019,8.92663073 C19.9015633,8.92663073 19.9447978,8.88371968 19.9447978,8.83051213 L19.9447978,7.20576819 C19.9447978,7.15256065 19.9015633,7.1096496 19.8483019,7.1096496 L18.995903,7.1096496 L18.995903,6.71504043 C18.995903,6.66210243 18.9533154,6.61886792 18.9001078,6.61886792 L18.5060916,6.61886792 C18.4528841,6.61886792 18.4096496,6.66210243 18.4096496,6.71504043 L18.4096496,7.1090027 L18.0795687,7.1090027 L18.0795687,6.71504043 C18.0795687,6.66210243 18.0363342,6.61886792 17.9831267,6.61886792 L17.5885175,6.61886792 C17.53531,6.61886792 17.4920755,6.66210243 17.4920755,6.71504043 L17.4920755,7.1090027 L17.1788679,7.1090027 L17.1788679,6.71504043 C17.1788679,6.66210243 17.1356334,6.61886792 17.0824259,6.61886792 L16.6891105,6.61886792 C16.6358491,6.61886792 16.5919677,6.66210243 16.5919677,6.71504043 L16.5919677,7.1090027 L16.1641509,7.1090027 L16.1641509,6.71504043 C16.1641509,6.66210243 16.1215633,6.61886792 16.0683558,6.61886792 L15.6743935,6.61886792 C15.6211321,6.61886792 15.5778976,6.66210243 15.5778976,6.71504043 L15.5778976,7.1090027 L15.26469,7.1090027 L15.26469,6.71504043 C15.26469,6.66210243 15.2215094,6.61886792 15.168248,6.61886792 L14.7742857,6.61886792 C14.7210782,6.61886792 14.6784367,6.66210243 14.6784367,6.71504043 L14.6784367,7.1090027 L13.9136927,7.1090027 L13.9136927,0.386145553 C13.9119137,0.172560647 13.7402695,0 13.5266846,0 L8.99067385,0 C8.84975741,0 8.71946092,0.0776819407 8.65212938,0.201347709 L7.87487871,1.62657682 C7.6290566,1.52075472 7.37132075,1.46495957 7.1038814,1.46495957 C6.4471159,1.46495957 5.96733154,1.78436658 5.94668464,1.79752022 C5.91913747,1.81568733 5.90377358,1.84576819 5.90377358,1.87859838 C5.90442049,1.91115903 5.9206469,1.94123989 5.94824798,1.95876011 L8.6497035,3.70140162 Z" id="Path"></path>
            <path d="M5.00657682,8.11460916 C6.10986523,8.11460916 7.006469,7.21735849 7.006469,6.11439353 C7.006469,5.01169811 6.10986523,4.11450135 5.00657682,4.11450135 C3.90355795,4.11450135 3.00663073,5.01175202 3.00663073,6.11439353 C3.00663073,7.2167655 3.90415094,8.11460916 5.00657682,8.11460916 Z" id="Path"></path>
            <path d="M19.1155256,12.558221 L14.8563881,10.9334771 C14.7242588,10.8827493 14.5845822,10.8582749 14.4430189,10.8582749 L10.4883019,10.8582749 L7.71514825,8.17876011 C7.25574124,7.73498652 6.52231806,7.74722372 6.07698113,8.20695418 C5.63320755,8.66760108 5.64539084,9.40010782 6.10576819,9.8451752 L9.21584906,12.849434 C9.43196765,13.0579515 9.72070081,13.1744474 10.0207008,13.1744474 L14.2300809,13.1744474 L18.289434,14.7221563 C18.4253369,14.774124 18.5643666,14.7991914 18.7015633,14.7991914 C19.168841,14.7991914 19.6078706,14.5148787 19.7845283,14.0532075 C20.0125067,13.4550943 19.7125067,12.7849596 19.1155256,12.558221 Z" id="Path"></path>
        </g>
    </g>
</svg>