<svg height="40" viewBox="0 0 40 40" width="40" xmlns="http://www.w3.org/2000/svg"><g fill="#41494f" transform="matrix(-1 0 0 1 30.571428 9)"><path d="m8.87837143 3.23837143c.10512857-.10512857.24492857-.16307143.39364286-.16307143.14871428 0 .28847142.0579.39364285.16307143.10512857.10512857.16302857.24492857.16302857.39364286 0 .14871428-.0579.28847142-.16302857.39364285-.0006.00064286-.00111428.00128572-.00171428.00192857-.06938572.04787143-.13564286.1023-.19731429.16397143-.55122857.55122857-.55122857 1.44822857 0 1.99945715.0837.08365714.19337143.12552857.30304286.12552857s.21938571-.04187143.30304287-.12552857c.1673571-.16735715.1673571-.43872858 0-.60612858-.21707144-.21702857-.21707144-.57021428 0-.78724285.2170286-.21702857.5702143-.21702857.7872428 0 .1673572.16731428.4387286.16731428.6061286 0 .1673572-.16735715.1673572-.43872857 0-.60612857-.2221714-.22212858-.5004857-.3546-.7896857-.39767143.0060429-.05335715.0094714-.10735715.0094714-.16182857 0-.3777-.1470857-.73272858-.4140857-.99972858-.2670428-.267-.62211427-.41408571-.99977141-.41408571-.37765715 0-.73268572.14708571-.99972858.41408571-.16735714.16735715-.16735714.43872858 0 .60612858.16731429.16727142.43868572.16727142.60608572-.00004286z"/><path d="m9.71914286 0c-4.32591429 0-7.83265715 3.41601429-7.83265715 7.62972857 0 .2265.01071429.4506.0306.67208572l-1.82751428 4.11184281c-.1116.2511-.08858572.5415858.06111428.7719858.14974286.2303571.40581429.3693857.68057143.3693857h.996v.873c0 1.9687285 1.58138572 3.5646 3.53215715 3.5646h.74777142v3.0073714h8.52261429v-7.4265857c1.7817429-1.3985572 2.922-3.5412429 2.922-5.94364287.0000429-4.21375714-3.5067429-7.62977143-7.83265714-7.62977143zm-5.91351429 10.0272429c-.38562857 0-.69822857-.3126429-.69822857-.69827147 0-.38558572.3126-.69818572.69822857-.69818572s.69827143.3126.69827143.69818572c-.00004286.38562857-.31264286.69827147-.69827143.69827147zm8.79822853 9.2321142h-1.7602714v-.8571428h1.7602714zm0-1.7142857h-1.7602714v-.8571428h1.7602714zm0-1.7142857h-1.7602714v-.8571428h1.7602714zm0-1.7142857h-1.7602714v-.8571429h1.7602714zm0-1.7142857h-1.7602714v-.8571429h1.7602714zm2.4162-3.95867144c-.1280142.67191428-.7057285 1.17912857-1.3993714 1.17912857-.0678 0-.1344428-.00518572-.1997143-.01457143-.2550857.3959571-.6931285.6574286-1.191.6574286-.0302143 0-.0600857-.0012857-.0897857-.0031715-.2536286.2376858-.5914286.3827572-.9623143.3827572-.4587428 0-.8666143-.2220857-1.1274857-.5667-.10572856.0152143-.21351427.0235714-.32331427.0235714-.84968572 0-1.59167143-.47031427-1.99251429-1.17025713-.16114285.0537-.333.0831-.51162857.0831-.84085714 0-1.5345-.64332857-1.63842857-1.47535714-.13225714.03488571-.27094286.05352857-.41387143.05352857-.9126 0-1.6524-.75758571-1.6524-1.692 0-.69805714.41292857-1.29724286 1.00221429-1.55584286-.00385715-.04487143-.00621429-.09021428-.00621429-.1362 0-.84484285.66887143-1.52974285 1.49395714-1.52974285.19341429 0 .37804286.03805714.54767143.10654285.22735715-.65622857.83867143-1.12632857 1.55747143-1.12632857.27784286 0 .53952857.07054286.76937143.19465714.35267143-.36351428.84111429-.58868571 1.3810286-.58868571.6741857 0 1.2682285.35104286 1.6176.88422857.2160857-.1062.4581857-.16568571.7139143-.16568571.6358285 0 1.1874857.36797143 1.4637857.90711428.0886285-.01705714.1799143-.02635714.2733857-.02635714.8125714 0 1.4713286.67448571 1.4713286 1.5066 0 .17455714-.0293143.342-.0826715.49795714.5619857.33248572.9404143.954.9404143 1.66632857-.0000428.98001429-.7159714 1.78834286-1.6414286 1.90795715z"/><path d="m14.7282429 4.50171429c.2367 0 .4285714-.19191429.4285714-.42857143 0-.23665715-.1918714-.42857143-.4285714-.42857143-.7795715 0-1.4138143.63424286-1.4138143 1.41377143 0 .06338571.0045.126.0126428.18784285-.0589285-.09775714-.1301143-.18904285-.2129143-.27184285-.267-.267-.6220714-.41408572-.9997285-.41408572-.2367 0-.4285715.19187143-.4285715.42857143 0 .23665714.1918715.42857143.4285715.42857143.1487143 0 .2884714.0579.3936428.16307143.1051286.10512857.1630286.24492857.1630286.3936 0 .14871428-.0579.28851428-.1630286.39364286-.1051285.10512857-.2449285.16307142-.3936428.16307142-.2367 0-.4285715.19191429-.4285715.42857143 0 .07945715.0219858.15351429.0596572.21728572-.0137143-.00128572-.0276-.0021-.0416143-.0021-.4215 0-.8002286.18561428-1.0595143.47918571-.0555-.2667-.1869857-.5118-.3840857-.7089-.26704286-.267-.62211429-.41408571-.99968571-.41404286-.00004286 0-.00008572 0-.00012858 0-.37761428 0-.73264285.14708572-.99964285.41408572-.267.26704286-.41408572.62211428-.41408572.99972857 0 .23665714.19187143.42857143.42857143.42857143s.42857143-.19191429.42857143-.42857143c0-.14871429.0579-.28851429.16307143-.39368571.10512857-.10512858.24488571-.16302858.39364286-.16302858h.00004285c.14867143 0 .28847143.0579.3936.16302858.10517143.10512857.16307143.24492857.16307143.39364285 0 .23665715.19187143.42857143.42857143.42857143.0209143 0 .0413143-.00201428.0614571-.00488571-.0112714.07178571-.0172285.14528571-.0172285.22015714 0 .77961429.6342428 1.4138143 1.4138143 1.4138143.2367 0 .4285714-.19187144.4285714-.42857144 0-.23665715-.1918714-.42857143-.4285714-.42857143-.3069429 0-.5566715-.24972857-.5566715-.55667143s.2497286-.55667143.5566715-.55667143c.2367 0 .4285714-.19191428.4285714-.42857143 0-.07945714-.0219857-.15351428-.0596572-.21728571.0137143.00128571.0275572.0021.0416143.0021.2109 0 .4147715-.04594286.6001715-.13302857.0773571.07598571.1832571.123.3002571.123.1487143 0 .2884714.05794285.3936429.16307143.1051285.10512857.1630285.24492857.1630285.39364285 0 .14871429-.0579.28847143-.1630285.3936-.1051286.10512857-.2449286.16307143-.3936429.16307143-.2367 0-.4285714.19191429-.4285714.42857143 0 .2367.1918714.42857143.4285714.42857143.3776571 0 .7326857-.14708572.9997286-.41408572.2670428-.26704285.4141285-.62211428.4140857-.99972857 0-.37765714-.1470429-.73272857-.4141286-.99972857-.1746428-.17464286-.3870857-.29755714-.6186857-.36197143.0865714-.18505714.1323857-.38841428.1323429-.5988 0-.06334285-.0045-.126-.0126429-.1878.0588857.09775715.1301143.18904286.2128714.27184286.2670429.267.6221143.41408571.9997715.41408571.2367 0 .4285714-.19187142.4285714-.42857142s-.1918714-.42857143-.4285714-.42857143c-.1487143 0-.2885143-.05794286-.3936858-.16307143-.1051285-.10512857-.1630285-.24492857-.1630285-.39364286.0000428-.30698571.2497714-.55671428.5567143-.55671428z"/><path d="m8.61814286 5.8455c0-.23665714-.19187143-.42857143-.42857143-.42857143s-.42857143.19191429-.42857143.42857143c0 .30694286-.24972857.55667143-.55667143.55667143-.30698571 0-.55671428-.24972857-.55671428-.55667143 0-.00081429-.00012858-.00162857-.00012858-.00248571.01521429-.08297143.02357143-.1683.02357143-.2556 0-.77957143-.63424285-1.41381429-1.41381428-1.41381429-.2367 0-.42857143.19187143-.42857143.42857143 0 .23665714.19187143.42857143.42857143.42857143.30694285 0 .55667143.24972857.55667143.55667143 0 .30694285-.24972858.55667142-.55667143.55667142-.2367 0-.42857143.19191429-.42857143.42857143 0 .2367.19187143.42857143.42857143.42857143.31444285 0 .60518571-.10328571.84025714-.27758571.25924286.32601428.65888571.53567143 1.10682857.53567143.77961429.00004285 1.41381429-.6342 1.41381429-1.41381429z"/></g></svg>