<svg height="40" viewBox="0 0 40 40" width="40" xmlns="http://www.w3.org/2000/svg"><path d="m25.1709404 16.5571787c.0313167-.0936677.0490909-.1941066.0490909-.2984953v-10.96278998c0-.51968652-.4215047-.94090909-.9411912-.94090909h-5.2383385v11.66868337c0 .1873354-.0338558.366489-.0936677.533511h-.6144828c.0313166-.0936677.0490909-.1941066.0490909-.2984953v-15.05652039c0-.51968652-.4215047-.94090909-.9411912-.94090909h-8.21821318c-.51968652 0-.94090909.42122257-.94090909.94090909v15.05652039c0 .1043887.01777429.2048276.04909091.2984953h-.61420063c-.05981191-.167022-.09366771-.3461756-.09366771-.533511v-11.66868337h-5.11278997c-.51968652 0-.94090909.42122257-.94090909.94090909v10.96278998c0 .1043887.01777429.2048276.04880878.2984953h-1.61746082v1.9450157h26.6628527v-1.9450157zm-20.77956109-3.8431975h-1.34887147v-1.3485894h1.34887147zm0-2.367931h-1.34887147v-1.34887152h1.34887147zm0-2.28978061h-1.34887147v-1.34887147h1.34887147zm2.10188088 4.65771161h-1.34887148v-1.3485894h1.34887148zm0-2.367931h-1.34887148v-1.34887152h1.34887148zm0-2.28978061h-1.34887148v-1.34887147h1.34887148zm8.93200631 8.43799371h-3.9602822v-4.9406896h3.9602822zm-2.0939812-9.17548587c-1.8318809 0-3.317022-1.48514107-3.317022-3.31702194 0-1.83216301 1.4854232-3.31730408 3.317022-3.31730408 1.832163 0 3.317304 1.48514107 3.317304 3.31730408s-1.485141 3.31702194-3.317304 3.31702194zm8.5635423 5.39520377h-1.3485894v-1.3485894h1.3485894zm0-2.367931h-1.3485894v-1.34887152h1.3485894zm0-2.28978061h-1.3485894v-1.34887147h1.3485894zm2.1015987 4.65771161h-1.3485893v-1.3485894h1.3485893zm0-2.367931h-1.3485893v-1.34887152h1.3485893zm0-2.28978061h-1.3485893v-1.34887147h1.3485893zm-9.8418808-4.87777429h1.2704388v1.64652037h-1.2704388v1.27100314h-1.6465204v-1.27100314h-1.2704389v-1.64652037h1.2704389v-1.27043887h1.6465204z" fill="#fff" transform="translate(7 10)"/></svg>