<?xml version="1.0" encoding="UTF-8"?>
<svg width="40px" height="41px" viewBox="0 0 40 41" version="1.1" xmlns="http://www.w3.org/2000/svg" xmlns:xlink="http://www.w3.org/1999/xlink">
    <!-- Generator: Sketch 64 (93537) - https://sketch.com -->
    <title>ico-reloj-n</title>
    <desc>Created with Sketch.</desc>
    <g id="ico-reloj-n" stroke="none" stroke-width="1" fill="none" fill-rule="evenodd" transform="translate(0.000000, 0.000000)">
        <g id="reloj" transform="translate(10.000000, 10.000000)" fill="#41494F" fill-rule="nonzero">
            <path d="M17.0710937,2.92894531 C15.1823438,1.04019531 12.6710938,0 10,0 C7.32890625,0 4.81765625,1.04019531 2.92890625,2.92894531 C1.04015625,4.81769531 0,7.32890625 0,10 C0,12.6710938 1.04015625,15.1823438 2.92890625,17.0710547 C4.81765625,18.9597656 7.32890625,20 10,20 C12.6710938,20 15.1823438,18.9598047 17.0710937,17.0710547 C18.9598438,15.1823047 20,12.6710938 20,10 C20,7.32890625 18.9598438,4.81765625 17.0710937,2.92894531 Z M10,18.0371875 C5.56824219,18.0371875 1.9628125,14.4317187 1.9628125,10 C1.9628125,9.99273437 1.96304688,9.98554687 1.96308594,9.97835938 C1.96308594,9.97652344 1.9628125,9.97476562 1.9628125,9.97292969 C1.9628125,9.96984375 1.96320312,9.966875 1.96328125,9.96382812 C1.98277344,5.58519531 5.52132813,2.0228125 9.89078125,1.96421875 C9.89992188,1.96378906 9.90898437,1.96285156 9.91824219,1.96285156 C9.92378906,1.96285156 9.92917969,1.96351563 9.9346875,1.96367188 C9.95648437,1.96351563 9.97820313,1.96285156 10.0000391,1.96285156 C14.4317969,1.96285156 18.0372266,5.56832031 18.0372266,10.0000391 C18.0372266,14.4317578 14.4317578,18.0371875 10,18.0371875 Z" id="Shape"></path>
            <path d="M16.1049609,10.4828125 C15.7781641,10.4828125 15.5132422,10.2178906 15.5132422,9.89109375 C15.5132422,9.56429688 15.7781641,9.299375 16.1049609,9.299375 L16.8182031,9.299375 C16.4832031,6.01515625 13.8196875,3.40980469 10.5099219,3.16519531 L10.5099219,3.78609375 C10.5099219,4.11289063 10.245,4.3778125 9.91820312,4.3778125 C9.59140625,4.3778125 9.32648437,4.11289063 9.32648437,3.78609375 L9.32648437,3.17933594 C6.06570312,3.49886719 3.46832031,6.11300781 3.17445312,9.38113281 L3.81320312,9.38113281 C4.14,9.38113281 4.40492187,9.64605469 4.40492187,9.97285156 C4.40492187,10.2996484 4.14,10.5645703 3.81320312,10.5645703 L3.16960937,10.5645703 C3.44167969,13.8853125 6.09113281,16.5428906 9.40828125,16.8279297 L9.40828125,16.0778125 C9.40828125,15.7510156 9.67320313,15.4860938 10,15.4860938 C10.3267969,15.4860938 10.5917188,15.7510156 10.5917188,16.0778125 L10.5917188,16.8279297 C13.9360156,16.5405469 16.6016016,13.8415625 16.8365234,10.4828125 L16.1049609,10.4828125 Z M12.3953125,8.44148438 L10.4184375,10.4183984 C10.3074609,10.529375 10.1569922,10.5917188 10.0000391,10.5917188 C9.843125,10.5917188 9.69257812,10.529375 9.58164062,10.4183984 L6.14050781,6.97726562 C5.90941406,6.74621094 5.90941406,6.3715625 6.14050781,6.14046875 C6.3715625,5.909375 6.74621094,5.909375 6.97730469,6.14046875 L10.0000781,9.16320313 L11.5585937,7.6046875 C11.7896484,7.37359375 12.1642969,7.37359375 12.3953906,7.6046875 C12.6264062,7.83574219 12.6264062,8.21042969 12.3953125,8.44148438 Z" id="Shape" transform="translate(10.003066, 9.996563) scale(-1, 1) translate(-10.003066, -9.996563) "></path>
        </g>
    </g>
</svg>