<svg height="40" viewBox="0 0 40 40" width="40" xmlns="http://www.w3.org/2000/svg"><g fill="#ff4500" transform="translate(8 9)"><path d="m9.76788235 1.10882353 6.24097055 3.60367647c.1731471.09894118.3932059.03923529.493-.13220588l.1799706-.31217647c.0997941-.17144118.0400883-.39235294-.1313529-.49214706l-6.2418235-3.60367647c-.1722942-.09979412-.39320592-.04008824-.4921471.13135294l-.17997059.31217647c-.09979412.17229412-.04094117.39320588.13135294.493z"/><path d="m4.36279412 10.4715588 6.24182348 3.6045294c.1722942.0989412.3932059.0400883.4921471-.1313529l.1799706-.3113235c.0997941-.1714412.0409412-.3932059-.1313529-.4921471l-6.24182358-3.60367646c-.17229411-.09979412-.39320588-.04008824-.49214706.13135294l-.17997058.31217647c-.10064706.16973525-.04179412.39064705.13135294.49044115z"/><path d="m26.3729412 14.8752941-12.4921765-6.47467645 1.6794412-2.90852941c.0989412-.17144118.0400882-.39320589-.1305-.49214706l-5.61917649-3.2437353c-.17144117-.09894117-.39320588-.03923529-.49214706.13220588l-3.96447059 6.86617648c-.09808823.17144117-.03923529.39320588.13220589.49214705l5.61832355 3.24288231c.1714412.0997942.3932059.0400883.4912941-.1313529l1.6802941-2.90852941 11.8524706 7.58179411c.1671765.1066177.3846765.0537353.4836176-.1185588l.9015589-1.5608824c.0980882-.1697353.0349706-.3846764-.1407353-.4767941z"/><path d="m28.3432353 15.7870882-.6235-.3599411c-.1705882-.0997942-.3932059-.0400883-.4921471.1313529l-1.0823823 1.8722059c-.0980883.1714412-.0392353.3932059.1322059.4912941l.6235.3599412c.1714411.0997941.3923529.0409412.492147-.131353l1.0815294-1.8722058c.0997942-.1714412.0409412-.3932059-.1313529-.4912942z"/><path d="m14.8565294 18.009h-.7514412c.0946765-.1057647.1577942-.2422353.1577942-.3957647v-.5936471c0-.3266764-.2669706-.5945-.5936471-.5945h-11.88658824c-.32752941 0-.5945.2678236-.5945.5945v.5936471c0 .1535294.06311765.29.15864706.3957647h-.75229412c-.32838235 0-.5945.2686765-.5945.5953529v2.3771471c0 .3266765.26697059.5945.5945.5945h14.2637353c.3283823 0 .5936471-.2678235.5936471-.5945v-2.3788529c0-.3249706-.2669706-.5936471-.595353-.5936471zm-.8452647 2.7473235h-12.51691176c-.34373529 0-.62520588-.2814706-.62520588-.6243529v-.6260588c.00085294-.3428824.28147059-.6260589.62520588-.624353h12.51691176c.3454412 0 .6269118.2814706.6260588.6235l.000853.6269118c-.000853.3428823-.2814706.6243529-.6269118.6243529z"/></g></svg>