<svg height="40" viewBox="0 0 40 40" width="40" xmlns="http://www.w3.org/2000/svg"><g fill="#ff4500" stroke="#ff4500" stroke-width=".5" transform="translate(8 5)"><path d="m15.4265403 11.5876777-4.3364929 4.3127962-1.51658768-1.528436c-.28436019-.2843602-.74052133-.2843602-1.02488152 0s-.28436019.7405213 0 1.0248815l2.0260663 2.0379147c.1421801.1421801.3258294.2132702.5154029.2132702.1836493 0 .3672986-.0710901.5094787-.2132702l4.8518957-4.8222749c.2843602-.2843601.2843602-.7405213 0-1.0248815-.278436-.278436-.7405213-.2843602-1.0248815 0z"/><path d="m24.9822275 16.528436v-10.87677723c0-.29028436-.1777251-.55687204-.4443128-.66943128l-11.7594787-4.90521327c-.1777251-.07701422-.3791469-.07701422-.556872 0l-11.75947869 4.90521327c-.27251185.11255924-.4443128.37914692-.4443128.66943128v10.87677723c0 6.8838863 5.59834123 12.4822275 12.48222749 12.4822275 6.8838863 0 12.4822275-5.6042654 12.4822275-12.4822275zm-12.4822275 11.0308057c-6.08412322 0-11.03080569-4.9466825-11.03080569-11.0308057v-10.39099524l11.03080569-4.60308057 11.0308057 4.60308057v10.39099524c0 6.0781991-4.9466825 11.0308057-11.0308057 11.0308057z"/></g></svg>