<svg height="40" viewBox="0 0 40 40" width="40" xmlns="http://www.w3.org/2000/svg"><g fill="#ff4500" transform="translate(10 13)"><path d="m2.03403226 8.45956989c-.00053764.00032258-.00112903.00053764-.00172043.00091398-.21650538.11252688-.31053764.37252688-.21586022.59752688.09494624.22575269.34758065.34032258.57994624.26301076l6.55107527-2.17962366-1.22494624 2.00037634c-.08897849.14532258-.07016129.33215054.04602151.45682796.11618279.12462366.30123656.15655914.45252688.07790323l1.28462365-.66752689c.03688173-.01913978.07037635-.04424731.09913979-.07435483l3.80564519-3.97532258 4.6966666-2.45064517c1.7787635-.95887096 1.5726882-1.69596774 1.4672043-1.89897849-.0817742-.15741935-.2646236-.36849462-.6709139-.48010753-.4120968-.1132258-.968871-.10419355-1.7017742.02763441-.2446775.0439785-.3797312.04026882-.522742.03634409-.5027419-.01376344-.8437634.01994623-2.5369892.89978494l-9.26086023 4.81263441-3.59139785-1.86387097c-.13543011-.07026881-.29655914-.07021505-.43198925.00021506l-.60516129.31451613c-.12456989.06473118-.21354839.18188172-.24247312.31924731-.02892473.13741935.00526882.28053763.09311828.38994624l2.49268818 3.10478494z"/><path d="m19.0888172 12.2312366h-17.53247311c-.49301076 0-.89268818.3997849-.89268818.8926881 0 .4929033.39967742.8926882.89268818.8926882h17.53247311c.4930108 0 .8926882-.3996774.8926882-.8926882-.0000538-.4930645-.3996774-.8926881-.8926882-.8926881z"/></g></svg>