<svg height="40" viewBox="0 0 40 40" width="40" xmlns="http://www.w3.org/2000/svg"><g fill="#41494f" transform="translate(7 10)"><path d="m4.54582609 13.3886957-.06382609.063913c-.29182609.2917391-.29182609.7666087-.00008696 1.0584348l.29626087.2963478c.12469566.1248696.28043479.1935652.43843479.1935652.20869565 0 .40191304-.1206087.51660869-.3226087l.36417391-.6411304 1.7932174.7493913c.15556521.0650435.33852173.0994783.52913043.0994783.41817391 0 .83895652-.1612174 1.09834783-.4205218l4.88400004-4.8841739c.3892173-.38930434.5332173-1.11930434.3209565-1.6273913l-.7482609-1.7906087.6329565-.35965217c.1774783-.10086956.2932174-.26252174.3176522-.44347826s-.0442609-.36747826-.1885217-.51173913l-.2962609-.29626087c-.1408696-.14095652-.3287826-.21852174-.5292174-.21852174s-.3883478.07756522-.5292174.21852174l-.0568696.05686956-.1210434-.28947826c-.1971305-.47182608-.6518261-1.15008695-1.0138261-1.51208695l-2.52521741-2.52530435c-.14086956-.14095652-.32878261-.21852174-.52921739-.21852174s-.38834783.07756522-.52921739.21843478l-.69139131.69139131c-.14095652.14086956-.21852173.32878261-.21852173.52921739s.07756521.38834782.21852173.52930435l.63078261.63060869-5.94695652 5.94695652-.63069565-.63069565c-.14086957-.14095652-.32878261-.21852174-.52921739-.21852174s-.38834783.07756522-.52921739.21852174l-.69121739.69121739c-.29182609.29173913-.29182609.7666087 0 1.05843479l2.52547826 2.5253913c.36147826.3615652 1.03973913.8163478 1.51191304 1.0136522zm8.23513041-7.66034787 1.1334783 2.71252174c.1269565.30382608.0403478.74304347-.1925218.97591304l-4.36869561 4.36869569c-.23286956.2328695-.67208696.3194782-.97591304.1925217l-2.71243478-1.1335652c-.30382609-.1269565-.36191305-.4214783-.12904348-.6543478l6.59086961-6.59086961c.2328695-.23278261.5273043-.17469565.6542608.12913044zm-4.19452172-1.0932174 1.49956522-1.49965217c.1164348-.11643478.3069565-.11643478.4233913 0l .7197391.71965217c.1164348.11643479.1164348.30695653 0 .42339131l-1.49965214 1.49965217c-.11643478.11643479-.30695652.11643479-.4233913 0l-.71965218-.71965217c-.11634782-.11643478-.11634782-.30695652 0-.42339131zm-4.78052174 6.64339127-.71965217-.7196521c-.11634783-.1164348-.11634783-.3069566 0-.4233913l1.49956522-1.49956526c.11643478-.11643478.30695652-.11643478.4233913 0l .71973913.71956522c.11643478.11643478.11643478.30695652 0 .42339131l-1.49965217 1.49965213c-.11634783.1163479-.30695652.1163479-.42339131 0z"/><path d="m16.3733043 9.10843478c.0308696 0 .0624348-.00356521.0938261-.01104348l2.1256522-.50547826c.2171304-.05165217.3513044-.26956521.2996522-.48669565-.0516522-.21713043-.2693044-.35156522-.4866957-.29965217l-2.1256521.5053913c-.2171305.05165218-.3513044.26956522-.2996522.48669565.0441739.18582609.209913.31078261.3928695.31078261z"/><path d="m15.964 10.3177391 1.9142609.7821739c.05.0204348.1018261.030174.1526956.030174.1593044 0 .3102609-.0947827.3742609-.2513913.0845217-.2066087-.0146087-.4425218-.2212174-.5269566l-1.9142609-.78217388c-.2067826-.08469565-.4426087.01460869-.5269565.22121739-.0845217.20660869.0146087.44252169.2212174.52695649z"/><path d="m16.1474783 12.8873913c.0764347.1237391.2086956.1918261.3442608.1918261.0724348 0 .1458261-.0195652.212-.0603478.1899131-.1173044.2486957-.3663479.1314783-.5561739l-1.0573913-1.7118261c-.1173044-.1899131-.3663478-.2487826-.5561739-.1314783-.1899131.1173044-.2486957.3663478-.1314783.5561739z"/><path d="m23.1543478 15.6837391h-19.41521737c-.4407826 0-.79817391.3573044-.79817391.7981739 0 .4407827.35730435.798174.79817391.798174h19.41521737c.4407826 0 .7981739-.3573044.7981739-.798174 0-.4408695-.3573043-.7981739-.7981739-.7981739z"/></g></svg>