<svg height="40" viewBox="0 0 40 40" width="40" xmlns="http://www.w3.org/2000/svg"><g fill="#ff4500" fill-rule="nonzero"><path d="m28.0565439 12.619883c.2413567 0 .4366608-.1953041.4366608-.4366608v-1.7465614c-.000041-.2413567-.1953041-.4366608-.4366608-.4366608h-16.592579c-.2413567 0-.4366608.1953041-.4366608.4366608v1.7466024c0 .2413157.1953041.4366198.4366608.4366198h.4366608v15.7192983h-.4366608c-.2413567 0-.4366608.1953041-.4366608.4366608v1.7466023c0 .2413568.1953041.4366609.4366608.4366609h16.592579c.2413567 0 .4366608-.1953041.4366608-.4366609v-1.7466023c0-.2413567-.1953041-.4366608-.4366608-.4366608h-.4366609v-15.7192983zm-8.7329299 14.4093977c0 .2413567-.1953041.4366608-.4366608.4366608h-4.8031052c-.2413568 0-.4366609-.1953041-.4366609-.4366608v-13.0994561c0-.2413568.1953041-.4366609.4366609-.4366609h4.8031052c.2413567 0 .4366608.1953041.4366608.4366609v6.1130467c0 .2413568-.1953041.4366609-.4366608.4366609h-.4366199c-.240497 0-.4366608.1957134-.4366608.4366608 0 .2409064.1961638.4366608.4366608.4366608h.4366609c.2413567 0 .4366608.1953041.4366608.4366608v5.2397661zm6.5496667-.0000409c0 .2413567-.1953041.4366608-.4366608.4366608h-4.8031053c-.2413567 0-.4366608-.1953041-.4366608-.4366608v-5.2397661c0-.2413567.1953041-.4366608.4366608-.4366608h.4366608c.2404971 0 .4366609-.1957135.4366609-.4366609 0-.2409064-.1961638-.4366608-.4366609-.4366608h-.4366608c-.2413567 0-.4366608-.1953041-.4366608-.4366608v-6.1130058c0-.2413568.1953041-.4366609.4366608-.4366609h4.8031053c.2413567 0 .4366608.1953041.4366608.4366609z"/><path d="m17.0125088 15.3676901c-.170579-.1705381-.4469357-.170579-.6174737 0l-.8732807.8732807c-.170579.1705789-.170579.4468947 0 .6174327.085269.085269.1970234.127924.3087368.127924.1117135 0 .2234269-.042655.3087369-.127924l.8732807-.8732807c.1705789-.1705789.1705789-.4468947 0-.6174327z"/><path d="m17.0125088 17.1142924c-.1706199-.1705789-.4469357-.1705789-.6174737 0l-.8732807.8732807c-.170579.1705789-.170579.4468947 0 .6174327.085269.0852691.1970234.127924.3087368.127924.1117135 0 .2234269-.0426549.3087369-.127924l.8732807-.8732807c.1705789-.1705789.1705789-.4468947 0-.6174327z"/><path d="m23.5621754 15.3676901c-.1706198-.170579-.4469356-.170579-.6174736 0l-.8732807.8732807c-.170579.1705789-.170579.4468947 0 .6174327.085269.085269.1970233.127924.3087368.127924.1117134 0 .2234269-.042655.3087368-.127924l.8732807-.8732807c.170579-.1705789.170579-.4468947 0-.6174327z"/><path d="m23.5621754 17.1142924c-.1706198-.1705789-.4469356-.1705789-.6174736 0l-.8732807.8732807c-.170579.1705789-.170579.4468947 0 .6174327.085269.0852691.1970233.127924.3087368.127924.1117134 0 .2234269-.0426549.3087368-.127924l.8732807-.8732807c.170579-.1705789.170579-.4468947 0-.6174327z"/></g></svg>