<svg height="40" viewBox="0 0 40 40" width="40" xmlns="http://www.w3.org/2000/svg"><g fill="#41494f" transform="translate(11 10)"><path d="m14.8231219 2.12851991 1.274445 2.91337989.8343899-.83438997-1.3674724-2.82035239z"/><path d="m13.598842 3.35279987 1.2661899 2.92163488.75057-.75056997-1.274445-2.91306238z"/><path d="m17.4069368 3.73252985 1.022985-1.02298496c.2797175-.27939999.4337049-.65119247.4337049-1.04679746 0-.39560498-.1539874-.76739747-.4337049-1.04679745-.2797175-.27939999-.65151-.43370499-1.0467975-.43370499-.395605 0-.7673975.1539875-1.047115.43370499l-.2965449.29654498z"/><path d="m13.1159245 3.83571735-7.36060223 7.36091975c-.16160749.1616074-.22986999.3883024-.20002499.6108699l-5.46226978 5.4622698c-.0758825.0758825-.108585.1851025-.0860425.2905125s.09652.19177.19653249.230505c.027305.0104775.67595748.255905 1.55828994.255905 1.11759995 0 2.11645491-.396875 2.89242488-1.1503025l2.26155241-2.2618699c.07493-.07493.1076325-.1825625.0866775-.2867025l-.17208499-.8613774.73183747-.732155.11239499.026035c.075565.0174625.1533525.0263525.23145749.0263525.27495499 0 .53339998-.1069975.72802747-.301625l5.74770225-5.74770227zm-9.88599713 12.76413445c-.060325.05715-.13969999.092075-.22542499.092075-.08255 0-.16509999-.034925-.22542499-.092075-.05715-.060325-.092075-.142875-.092075-.225425s.034925-.1650999.092075-.2254249c.12064999-.117475.33337499-.117475.45084998 0 .060325.060325.092075.1428749.092075.2254249s-.0314325.1651-.092075.225425zm1.26999995-1.2709524-.63499997.635c-.0619125.0619125-.1431925.0930275-.2244725.0930275-.08127999 0-.16255999-.031115-.22447249-.0930275-.12414249-.1241425-.12414249-.3248025 0-.448945l.63499998-.635c.12414249-.1241425.32480248-.1241425.44894498 0 .12414249.1241425.12414249.32512 0 .448945z"/></g></svg>