<svg height="40" viewBox="0 0 40 40" width="40" xmlns="http://www.w3.org/2000/svg"><g fill="#ff4500" transform="translate(5 5)"><g transform="translate(10.555556 6.666667)"><path d="m5.24031317.44330759c-1.20938224-.4030888-2.62019305 0-3.62803089.80617761s-1.61247104 2.01555985-1.61247104 3.42648649c0 .6046332.4030888 1.00783783 1.00783784 1.00783783.6046332 0 1.00783784-.4030888 1.00783784-1.00783783 0-.60463321.2015444-1.41092664.8061776-1.81401545.60463321-.4030888 1.20938224-.6046332 2.01555985-.4030888 1.00783784.2015444 1.61247104 1.00783784 1.81401544 1.81401544.2015444 1.00783784 0 1.81401545-.8061776 2.41876448-1.61247105 1.20938224-2.41876448 3.02339769-2.41876448 4.83741314 0 .6046332.4030888 1.0078378 1.00783783 1.0078378.60463321 0 1.00783784-.4030888.80617761-1.0078378 0-1.2093823.80617761-2.41876449 1.81401544-3.2249421 1.41092665-1.20938224 2.01555985-2.82185328 1.61247105-4.43432432-.40320464-1.81401544-1.81401545-3.02339768-3.42648649-3.42648649z"/><path d="m3.62784213 14.2298799c-.2015444.2015444-.2015444.6046332-.2015444.8061776s0 .4030888.2015444.6046332.6046332.4030888.8061776.4030888c.20154441 0 .60463321-.2015444.60463321-.4030888.2015444 0 .4030888-.4030888.4030888-.6046332 0-.4030888-.2015444-.6046332-.4030888-.8061776-.4030888-.4032047-1.00772201-.4032047-1.41081081 0z"/></g><path d="m14.9908784 0c-8.28912164 0-14.9908784 6.70175676-14.9908784 14.9908784 0 8.2891216 6.70175676 14.9908784 14.9908784 14.9908784 8.2891216 0 14.9908784-6.7017568 14.9908784-14.9908784 0-8.28912164-6.7017568-14.9908784-14.9908784-14.9908784zm0 28.2181419c-7.23091218 0-13.22726354-5.9963514-13.22726354-13.2272635 0-7.23091218 5.99635136-13.22726354 13.22726354-13.22726354 7.2309121 0 13.2272635 5.99635136 13.2272635 13.22726354 0 7.2309121-5.9963514 13.2272635-13.2272635 13.2272635z"/></g></svg>