<?xml version="1.0" encoding="UTF-8"?>
<svg width="40px" height="40px" viewBox="0 0 40 40" version="1.1" xmlns="http://www.w3.org/2000/svg" xmlns:xlink="http://www.w3.org/1999/xlink">
    <!-- Generator: Sketch 64 (93537) - https://sketch.com -->
    <title>ico-urgencias-n</title>
    <desc>Created with Sketch.</desc>
    <g id="ico-urgencias-n" stroke="none" stroke-width="1" fill="none" fill-rule="evenodd">
        <g id="004-dentista-3" transform="translate(10.000000, 10.000000)" fill="#41494F" fill-rule="nonzero">
            <circle id="Oval" cx="10" cy="5.3515625" r="1"></circle>
            <path d="M16.6168359,13.0259766 C16.6168359,13.0259766 13.2708594,11.8121094 13.2222266,11.8071094 C14.4383594,10.8402734 15.234375,9.36621094 15.234375,7.6953125 L15.234375,5.3515625 L15.234375,4.1796875 C15.234375,1.91832031 13.3941797,0 11.1328125,0 L8.7890625,0 C6.52769531,0 4.6875,1.91832031 4.6875,4.1796875 L4.6875,5.3515625 L4.6875,7.6953125 C4.6875,9.36042969 5.47835938,10.8296875 6.68726563,11.796875 C6.68726563,11.796875 6.44289063,11.8198047 3.31535156,13.0042187 C1.30121094,13.80875 0,15.7313672 0,17.9 L0,19.4140625 C0,19.7379297 0.262070313,20 0.5859375,20 L9.9609375,20 L9.97410156,20 L19.4140625,20 C19.7379297,20 20,19.7379297 20,19.4140625 L20,17.9572266 C20,15.7828516 18.655,13.8030078 16.6168359,13.0259766 Z M14.0625,5.9375 L14.0625,7.00144531 C13.5660937,6.82441406 13.1755859,6.43390625 12.9985547,5.9375 L14.0625,5.9375 Z M10,3.59375 C10.9692969,3.59375 11.7578125,4.38226563 11.7578125,5.3515625 C11.7578125,6.32085937 10.9692969,7.109375 10,7.109375 C9.03070313,7.109375 8.2421875,6.32085937 8.2421875,5.3515625 C8.2421875,4.38226563 9.03070313,3.59375 10,3.59375 Z M5.859375,5.9375 L6.92332031,5.9375 C6.74628906,6.43390625 6.35578125,6.82441406 5.859375,7.00144531 L5.859375,5.9375 Z M5.91109375,8.20671875 C6.60710938,8.05113281 7.20476563,7.64546875 7.6171875,7.09148437 C8.15164063,7.80933594 8.99921875,8.28125 9.9609375,8.28125 C10.9226562,8.28125 11.7702344,7.80933594 12.3046875,7.09148437 C12.7171094,7.64546875 13.3147656,8.05113281 14.0107812,8.20671875 C13.7556641,10.2248828 12.0471875,11.796875 9.9609375,11.796875 C7.8746875,11.796875 6.16621094,10.2248828 5.91109375,8.20671875 Z M6.64722656,16.660625 C6.23066406,16.4111328 5.94285156,16.0117578 5.83640625,15.5391016 C5.73,15.0653125 5.81984375,14.5823828 6.08875,14.1783984 L6.50875,13.5478125 L8.6728125,17.8759766 L6.64722656,16.660625 Z M8.11550781,14.140625 L7.52957031,12.96875 L12.3273047,12.96875 L11.8052344,14.140625 L8.11550781,14.140625 Z M14.1797266,15.5791016 C14.0898828,16.0792187 13.7889063,16.5152344 13.3534766,16.7773047 L11.3879687,17.9560547 L13.3414453,13.5718359 L13.8209375,14.1703516 C14.1385156,14.5663281 14.2689844,15.0801562 14.1797266,15.5791016 Z" id="Shape"></path>
        </g>
    </g>
</svg>