<?xml version="1.0" encoding="UTF-8"?>
<svg width="26px" height="30px" viewBox="0 0 26 30" version="1.1" xmlns="http://www.w3.org/2000/svg" xmlns:xlink="http://www.w3.org/1999/xlink">
    <!-- Generator: Sketch 64 (93537) - https://sketch.com -->
    <title>1001371</title>
    <desc>Created with Sketch.</desc>
    <g id="Page-1" stroke="none" stroke-width="1" fill="none" fill-rule="evenodd">
        <g id="1001371" fill="#FF4500" fill-rule="nonzero">
            <path d="M19.6651504,0.437909732 C21.6467441,0.437909732 23.2589004,2.05006598 23.2589004,4.03165973 L23.2589004,4.03165973 L23.2589004,15.5570504 C23.2589004,16.0532574 22.8566699,16.4554879 22.3604629,16.4554879 C21.8642559,16.4554879 21.4620254,16.0532574 21.4620254,15.5570504 L21.4620254,15.5570504 L21.4620254,4.03165973 C21.4620254,3.04086286 20.6559473,2.23478473 19.6651504,2.23478473 L19.6651504,2.23478473 L3.61935547,2.23478473 C2.62855859,2.23478473 1.82248047,3.04086286 1.82248047,4.03165973 L1.82248047,4.03165973 L1.82248047,25.8441597 C1.82248047,26.8349566 2.62855859,27.6410347 3.61935547,27.6410347 L3.61935547,27.6410347 L5.62413477,27.6410347 C6.1203418,27.6410347 6.52257227,28.0432652 6.52257227,28.5394722 C6.52257227,29.0356793 6.1203418,29.4379097 5.62413477,29.4379097 L5.62413477,29.4379097 L3.61935547,29.4379097 C1.63776172,29.4379097 0.0256054688,27.8257535 0.0256054688,25.8441597 L0.0256054688,25.8441597 L0.0256054688,4.03165973 C0.0256054688,2.05006598 1.63776172,0.437909732 3.61935547,0.437909732 L3.61935547,0.437909732 Z M21.0392207,19.4453082 C22.0894492,18.3950797 23.7993555,18.3951246 24.8502578,19.4460269 C25.9012051,20.4970191 25.9012051,22.2069254 24.8503027,23.2578277 L24.8503027,23.2578277 L19.9280781,28.1707984 C19.8184688,28.2802281 19.6824453,28.3594254 19.5332148,28.4007535 L19.5332148,28.4007535 L15.9068965,29.4052515 C15.8276992,29.4272183 15.7470195,29.4379097 15.6671035,29.4379097 C15.4282539,29.4379097 15.1953789,29.3425406 15.023957,29.1668511 C14.795125,28.932314 14.7121543,28.5918511 14.8073887,28.2782965 L14.8073887,28.2782965 L15.8816055,24.7418218 C15.9246406,24.6002281 16.0019063,24.471482 16.1066641,24.3669488 L16.1066641,24.3669488 Z M20.8636211,22.1589488 L17.5354043,25.4797984 L17.0015078,27.2375465 L18.825875,26.7321754 L22.1344609,23.4297886 L20.8636211,22.1589488 Z M23.5797324,20.7166871 C23.2294316,20.3663863 22.6594629,20.3663863 22.3091621,20.7166871 L22.3091621,20.7166871 L22.1356738,20.889816 L23.4062891,22.1604312 L23.5803613,21.9867183 C23.9300332,21.6369566 23.9300332,21.0669879 23.5797324,20.7166871 Z M13.1330273,20.0160347 C13.6292344,20.0160347 14.0314648,20.4182652 14.0314648,20.9144722 C14.0314648,21.4106793 13.6292344,21.8129097 13.1330273,21.8129097 L13.1330273,21.8129097 L4.51280664,21.8129097 C4.01659961,21.8129097 3.61436914,21.4106793 3.61436914,20.9144722 C3.61436914,20.4182652 4.01659961,20.0160347 4.51280664,20.0160347 L4.51280664,20.0160347 Z M18.7667129,15.4222847 C19.2629199,15.4222847 19.6651504,15.8245152 19.6651504,16.3207222 C19.6651504,16.8169293 19.2629199,17.2191597 18.7667129,17.2191597 L18.7667129,17.2191597 L4.51280664,17.2191597 C4.01659961,17.2191597 3.61436914,16.8169293 3.61436914,16.3207222 C3.61436914,15.8245152 4.01659961,15.4222847 4.51280664,15.4222847 L4.51280664,15.4222847 Z M18.7667129,10.8285347 C19.2629199,10.8285347 19.6651504,11.2307652 19.6651504,11.7269722 C19.6651504,12.2231793 19.2629199,12.6254097 18.7667129,12.6254097 L18.7667129,12.6254097 L4.51280664,12.6254097 C4.01659961,12.6254097 3.61436914,12.2231793 3.61436914,11.7269722 C3.61436914,11.2307652 4.01659961,10.8285347 4.51280664,10.8285347 L4.51280664,10.8285347 Z M18.7667129,6 C19.2629199,6 19.6651504,6.40223047 19.6651504,6.8984375 C19.6651504,7.39464453 19.2629199,7.796875 18.7667129,7.796875 L18.7667129,7.796875 L4.51280664,7.796875 C4.01659961,7.796875 3.61436914,7.39464453 3.61436914,6.8984375 C3.61436914,6.40223047 4.01659961,6 4.51280664,6 L4.51280664,6 Z" id="Combined-Shape"></path>
        </g>
    </g>
</svg>