<svg height="40" viewBox="0 0 40 40" width="40" xmlns="http://www.w3.org/2000/svg"><path d="m10.4770732 0h-1.74663418c-4.80029268 0-8.70556097 3.90526829-8.70556097 8.70556098v.35219512 2.6129756 1.7353171c0 .2694634.21843902.4878049.48780488.4878049h.19512195.53707317v.3435122c0 .2694634.21843902.4878048.48780488.4878048h.88526829c.87521951 0 1.58721951-.712 1.58721951-1.5872195v-3.8121951c0-.87521951-.712-1.58721951-1.58721951-1.58721951h-.88526829c-.26936586 0-.48780488.21834146-.48780488.48780487v.34360976h-.24097561c.07287805-4.19970732 3.50965854-7.59434146 7.72653658-7.59434146h1.74663418c4.2167805 0 7.6536585 3.39463414 7.7265366 7.59443902h-.2409757v-.34370732c0-.26946341-.218439-.48780487-.4878048-.48780487h-.8851708c-.8752195 0-1.5872195.712-1.5872195 1.58721951v3.8123902c0 .8752196.712 1.5872196 1.5872195 1.5872196h.8851708c.1351219 0 .2573658-.0550244.3456585-.1438049v1.052878c0 1.4121951-1.148878 2.5609756-2.5609756 2.5609756h-2.9003902c-.1936586-.4783414-.6623415-.8170731-1.2093659-.8170731h-1.31707317c-.7195122 0-1.30487805.5853658-1.30487805 1.304878s.58536585 1.3048781 1.30487805 1.3048781h1.31707317c.5470244 0 1.0157073-.3387317 1.2093659-.8170732h2.9003902c1.9500488 0 3.5365854-1.5865366 3.5365854-3.5365854v-1.7512195c.2207804-.0466341.3865365-.2423415.3865365-.4769756v-1.7353171-2.61307314-.35219512c0-4.80039025-3.9052682-8.70565854-8.7055609-8.70565854z" fill="#fff" transform="translate(10 10)"/></svg>