<?xml version="1.0" encoding="UTF-8"?>
<svg width="25px" height="25px" viewBox="0 0 25 25" version="1.1" xmlns="http://www.w3.org/2000/svg" xmlns:xlink="http://www.w3.org/1999/xlink">
    <!-- Generator: Sketch 64 (93537) - https://sketch.com -->
    <title>Combined Shape</title>
    <desc>Created with Sketch.</desc>
    <g id="Page-1" stroke="none" stroke-width="1" fill="none" fill-rule="evenodd">
        <path d="M20,15 C22.7614237,15 25,17.2385763 25,20 C25,22.7614237 22.7614237,25 20,25 C17.2385763,25 15,22.7614237 15,20 C15,17.2385763 17.2385763,15 20,15 Z M23.3360633,0.284999803 C23.7171435,-0.0949999342 24.3331096,-0.0949999342 24.7141898,0.284999803 C25.0952701,0.66499954 25.0952701,1.27921906 24.7141898,1.6592188 L24.7141898,1.6592188 L1.66393673,24.7152432 C1.47290929,24.9047571 1.22340406,25 0.974873462,25 C0.725368232,25 0.475863002,24.9047571 0.28581019,24.7152432 C-0.0952700634,24.3352434 -0.0952700634,23.7210239 0.28581019,23.3410242 L0.28581019,23.3410242 Z M20,16.8549663 C18.2076818,16.8549663 16.767833,18.2530089 16.767833,20 C16.767833,21.7469911 18.2626679,23.2562676 20,23.2562676 C21.7373321,23.2562676 23.2357105,21.7645155 23.2357105,20 C23.2357105,18.2354845 21.7923182,16.8549663 20,16.8549663 Z M5,0 C7.76142375,0 10,2.23857625 10,5 C10,7.76142375 7.76142375,10 5,10 C2.23857625,10 0,7.76142375 0,5 C0,2.23857625 2.23857625,0 5,0 Z M5,1.85496625 C3.20768182,1.85496625 1.76783298,3.25300887 1.76783298,5 C1.76783298,6.74699113 3.26266792,8.25626758 5,8.25626758 C6.73733208,8.25626758 8.23571046,6.76451547 8.23571046,5 C8.23571046,3.23548453 6.79231818,1.85496625 5,1.85496625 Z" id="Combined-Shape" fill="#FF4500"></path>
    </g>
</svg>