<?xml version="1.0" encoding="UTF-8"?>
<svg width="28px" height="28px" viewBox="0 0 28 28" version="1.1" xmlns="http://www.w3.org/2000/svg" xmlns:xlink="http://www.w3.org/1999/xlink">
    <!-- Generator: Sketch 64 (93537) - https://sketch.com -->
    <title>2228878</title>
    <desc>Created with Sketch.</desc>
    <g id="Page-1" stroke="none" stroke-width="1" fill="none" fill-rule="evenodd">
        <g id="2228878" fill="#FF4500" fill-rule="nonzero">
            <path d="M27.0086432,19.4166566 C26.0246005,18.4350079 24.4235386,18.4350079 23.4395504,19.4166566 L20.9336611,21.916398 C20.8130973,22.0366354 20.6462883,22.1056223 20.4759429,22.1056223 L13.9521652,22.1056223 C13.4589741,22.1056223 13.0577293,21.7056289 13.0577293,21.2139612 C13.0577293,20.7219671 13.4589741,20.3217016 13.9521652,20.3217016 L15.9390205,20.3217016 C17.2275195,20.3217016 18.2997544,19.2971265 18.3402869,18.0336543 C23.4793757,18.2400165 27.7470968,14.1266454 27.7470968,9.0236279 C27.7470968,3.11458441 22.0905519,-1.25748754 16.3094715,0.32757896 C10.5273029,-1.25759636 4.87195494,3.11523728 4.87195494,9.0236279 C4.87195494,11.7363147 6.08069465,14.2344783 8.09235917,15.9237324 C6.78884408,16.3335733 5.61715491,17.1104376 4.72152216,18.1874058 C4.71711526,18.1926832 4.71281718,18.198015 4.70857351,18.2034012 L3.95064252,19.1630699 L0.816091082,19.1630699 C0.36539118,19.1630699 9.24163971e-15,19.5275362 9.24163971e-15,19.977148 L9.24163971e-15,26.9330731 C9.24163971e-15,27.3826305 0.36539118,27.7470968 0.816091082,27.7470968 L21.1108073,27.7470968 C21.8297836,27.7470968 22.5056158,27.4679392 23.0137141,26.9610923 L27.0078815,22.9767724 C27.9912168,21.996647 27.9919241,20.3999376 27.0093504,19.4173639 C27.0090784,19.4171463 27.0088608,19.4168743 27.0086432,19.4166566 L27.0086432,19.4166566 Z M26.114969,9.0236279 C26.114969,13.4604431 22.1892989,16.9464577 17.7080883,16.3466852 C16.9113658,15.4911497 16.0460373,15.5920186 15.3112832,15.5919642 C12.7862974,14.2887755 11.2988354,11.7689039 11.2988354,9.0235735 C11.2988354,4.81814734 14.7068862,1.63348791 18.7066574,1.63348791 C22.7915741,1.63348791 26.114969,4.94877632 26.114969,9.0236279 L26.114969,9.0236279 Z M6.50413711,9.0236279 C6.50413711,5.08158154 9.61393378,1.85045932 13.5147947,1.64404269 C11.2054202,3.25897813 9.66665327,5.94195917 9.66665327,9.0236279 C9.66665327,11.5173846 10.691174,13.8803491 12.5116556,15.5916921 C11.2852883,15.5915289 11.6067738,15.5916921 10.5140278,15.5914745 C8.03561363,14.3160874 6.50413711,11.8162372 6.50413711,9.0236279 Z M25.8539831,21.8252679 L21.8595437,25.8098598 C21.6597102,26.0092036 21.3937733,26.1189951 21.1107529,26.1189951 L1.63212776,26.1189951 L1.63212776,20.791226 L4.34666432,20.791226 C4.59671463,20.791226 4.83294579,20.6768645 4.98767666,20.4808938 L5.98396065,19.2194346 C7.04471584,17.9483456 8.60350421,17.2196306 10.2622909,17.2196306 C10.8015639,17.219685 14.4809378,17.2201203 15.1162919,17.2202291 L15.1164007,17.2202291 C15.6869572,17.2202291 16.7305745,17.0642469 16.7096281,17.9747869 C16.7007055,18.3711896 16.3550637,18.6936543 15.9390205,18.6936543 L13.9521652,18.6936543 C12.5590433,18.6936543 11.4256016,19.8242669 11.4256016,21.2140156 C11.4256016,22.6034379 12.5590433,23.7337785 13.9521652,23.7337785 L20.4758885,23.7337785 C21.0758786,23.7337785 21.6633554,23.4910186 22.0877227,23.0676849 L24.593612,20.5679435 C24.9411036,20.2214313 25.5063827,20.2211048 25.8540375,20.5674539 C26.201257,20.9148911 26.2013659,21.4789732 25.8539831,21.8252679 L25.8539831,21.8252679 Z" id="Shape"></path>
        </g>
    </g>
</svg>