<svg height="40" viewBox="0 0 40 40" width="40" xmlns="http://www.w3.org/2000/svg"><g fill="#ff4500" transform="translate(3 7)"><path d="m35.8926441 13.8238569c-.128827-.9304175-1.0878727-1.6747515-2.8842942-2.2186879-1.4528827-.4365805-3.2922465-.7013917-5.2962227-.744334v-7.63658053c0-.15745527-.0500994-.30775348-.1502982-.42942346-.2361829-.83021868-1.1952286-1.5029821-2.855666-2.00397614-1.610338-.48667992-3.7145129-.75149105-5.9260437-.75149105-2.2043738 0-4.2870776.26481113-5.8616302.75149105-1.2954275.40079523-2.848509 1.14512923-2.848509 2.42624255 0 .07872763.0071571.15745526.0214712.2361829l.0787276 3.26361829c-4.64493039-.89463221-9.13240554 2.16143141-10.01988069 6.81351889-.10019881.5224652-.15029821 1.0592445-.15029821 1.5960239 0 4.723658 3.84333996 8.566998 8.56699801 8.566998 1.96819089 0 3.87196819-.6799205 5.40357849-1.9180915 1.3455269.3149105 2.9200796.4866799 4.587674.500994.3650099 1.982505 4.6592445 2.8914513 8.6671968 2.8914513 2.2043738 0 4.2799205-.2719682 5.8687873-.7658051 1.3025845-.4007953 2.8485089-1.1522863 2.8485089-2.4333996v-7.8656064c0-.0930417-.0143141-.1932405-.0500994-.2791252zm-22.5447316-11.66600402c1.4457257-.44373757 3.3781312-.69423459 5.4393638-.69423459 2.0469185 0 4.0508947.25049702 5.5109344.69423459 1.5530815.47236581 1.8894633.95904573 1.8894633 1.05924454 0 .1001988-.3363818.59403578-1.8966203 1.05924453-1.4528827.43658052-3.4568589.69423459-5.5037774.69423459-1.9753479 0-3.850497-.22902584-5.2747514-.64413519-1.5387674-.44373757-1.9681909-.93757455-2.0039762-1.09502982 0-.01431411 0-.02147117-.007157-.02147117.007157-.10019881.3363817-.58687873 1.8465208-1.05208748zm12.9328032 2.84850895v1.83220676c-.0644135.10019881-.1001988.22186879-.0930417.34353877 0 .09304175-.3363818.58687872-1.8966203 1.05924453-1.4528827.43658052-3.4640159.69423459-5.5109344.69423459-1.7677933 0-3.4998012-.1860835-4.8739563-.53677932-.0214712-.00715706-.0357853-.00715706-.0572564-.01431412-.6799205-.53677932-1.4314116-.95904572-2.2401591-1.2667992l-.0500994-2.01829026c.493837.25049702 1.0091451.45089463 1.5459245.59403578 1.5530815.45089464 3.5642147.6942346 5.6755467.6942346 2.2115308 0 4.3157057-.26481114 5.9188867-.75149106.5510934-.15029821 1.0807157-.36500994 1.5817097-.62982107zm-12.911332 15.39483097c-2.9129225 2.6552684-7.42902585 2.4405567-10.07713718-.4723658-2.64811133-2.9129224-2.44055666-7.4290258.47236581-10.07713714 1.3168986-1.19522863 3.02743538-1.86083499 4.80238568-1.86083499.71570577 0 1.43141153.10735587 2.11848909.31491054 2.4763419.78011928 4.344334 2.83419479 4.8811133 5.37495029.0930417.4723658.1431412.9590457.1431412 1.4385686 0 2.0182903-.8516899 3.9363817-2.3403579 5.2819085zm1.8178926.1574553c.5797217-.7085487 1.0449305-1.5029821 1.3741551-2.354672.6083499.0500994 1.2524851.0858847 1.9109344.0930418v.128827l.0357853 2.4262426c-1.1093439-.0143141-2.2186879-.1145129-3.3208748-.2934394zm1.9037774-6.2838966c.4222664.0286282.8588469.0429423 1.3025845.0500994 0 .0143141.007157.0357853.007157.0500994l.0429424 2.483499c-.5081511-.0071571-1.0019881-.0286282-1.481511-.0644135.1073559-.5510935.1646124-1.116501.1646124-1.6747515.007157-.2791253-.0071571-.5582505-.0357853-.8445328zm1.7606362-1.3741551c-.0214712 0-.0429424 0-.0644136 0-.6870775 0-1.3526839-.0286282-1.9681908-.0715706-.2719682-.9590457-.7013917-1.8608349-1.2811133-2.6624254 1.0735586.1359841 2.1542743.2075547 3.2421471.2075547 2.2115308 0 4.3157057-.2648112 5.9260437-.75149108.5510935-.17176939 1.0735587-.37932406 1.5745527-.64413519v1.89662027c-3.0775348.0858847-6.2552684.7300199-7.4290258 2.0254473zm.9590457 1.1021869c.0715706-.2003976.5940358-.6656064 2.0612326-1.0807157 1.3956262-.3936382 3.2135189-.6083499 5.1244533-.6083499h.0930417c2.0469185 0 4.0508947.2361829 5.5109344.6799205 1.5101392.4580517 1.8679921.9161034 1.8894632 1.0377733v.0071571c-.007157.1073559-.3650099.6011928-1.9538767 1.0735586-1.4671968.4365806-3.3996024.6727635-5.4465209.6727635-1.9324055 0-3.7789264-.2218688-5.1960238-.615507-1.366998-.3864811-1.9180915-.8230616-2.0540756-1.0449304-.007157-.0429424-.0143141-.0858847-.0286282-.12167zm14.7005964 7.9658052c0 .1001988-.3220676.5940358-1.8393638 1.0664016-1.4528827.4508946-3.3852883.7013916-5.4465209.7013916-2.0683896 0-4.0007952-.24334-5.4322067-.6799205-1.5172963-.4652087-1.8250497-.9447316-1.8250497-1.0520874 0-.0071571 0-.0071571 0-.0143142l-.0357853-2.0683896c1.7033797.866004 4.5447316 1.2596421 7.1499006 1.2596421 2.2115308 0 4.3013916-.2648111 5.9045725-.751491.5296223-.1574553 1.0377734-.372167 1.5244533-.6298211zm-.0644135-3.96501c0 .1001988-.3292247.5868788-1.8751491 1.0592446-1.4671968.4437375-3.4139165.6870775-5.4894632.6870775-3.9292247 0-6.5916501-.8803181-7.1785289-1.5745527l-.0143141-.6155069-.0286282-1.6389662c.5224652.2648111 1.0664016.4723658 1.6318091.622664 1.5387674.4294234 3.5212724.6727634 5.582505.6727634 2.1757455 0 4.2512923-.2576541 5.8473161-.7300199.5510934-.1574553 1.0807157-.3650099 1.5817098-.6298211v1.8393638h.007157c0 .0930418-.0644135.2003977-.0644135.3077535z"/><path d="m12.1383698 18.9483101c-.1431412-.372167-.5510935-.5510934-.9232605-.4151093 0-.0071571 0-.0071571 0-.0071571-1.35268385.5153082-2.87713713.1860835-3.89343932-.8373757-.20755467-.1860835-.37932406-.4079523-.50815109-.6512923h3.67872761c.3936382 0 .7157058-.3220675.7157058-.7157057s-.3220676-.7157058-.7157058-.7157058h-4.20119282c-.04294235-.2576541-.05009941-.5224652-.02147118-.7872763h4.594831c.3936382 0 .7157058-.3220676.7157058-.7157058s-.3220676-.7157058-.7157058-.7157058h-4.17256459c.17176938-.3077534.37932405-.5868787.62266401-.8445328 1.02345925-1.0163021 2.54791253-1.3455268 3.89343938-.8230616.372167.1431412.7801193-.0429423.9232604-.4079523.1431412-.372167-.0429423-.7801193-.4079523-.9232604-1.87514907-.72286284-4.00079519-.2719682-5.42504966 1.1522863-.52962227.5224652-.9304175 1.1522862-1.18091452 1.8536779h-1.01630218c-.39363818 0-.71570577.3220676-.71570577.7157058 0 .3936381.32206759.7157057.71570577.7157057h.71570576c-.01431411.2648112-.01431411.5224652.01431412.7872764h-.73001988c-.39363818 0-.71570577.3220676-.71570577.7157057 0 .3936382.32206759.7157058.71570577.7157058h1.09502982c.24333996.622664.62266401 1.1952286 1.10218688 1.6675944 1.41709741 1.4242545 3.54274353 1.8823062 5.42504966 1.1594434.372167-.1431412.5510935-.5510935.4151094-.9232605z"/></g></svg>