<?xml version="1.0" encoding="UTF-8"?>
<svg width="40px" height="40px" viewBox="0 0 40 40" version="1.1" xmlns="http://www.w3.org/2000/svg" xmlns:xlink="http://www.w3.org/1999/xlink">
    <!-- Generator: Sketch 64 (93537) - https://sketch.com -->
    <title>ico-limpieza-bucal-b</title>
    <desc>Created with Sketch.</desc>
    <g id="ico-limpieza-bucal-b" stroke="none" stroke-width="1" fill="none" fill-rule="evenodd">
        <g id="007-diente" transform="translate(11.000000, 11.000000)" fill="#FFFFFF" fill-rule="nonzero">
            <path d="M17.7796758,4.27158984 C17.2006875,2.17575 15.5010234,0.567210938 13.4005781,0.130289063 L13.4011055,0.130289063 C11.8411172,-0.193464844 10.2934336,0.0937617188 9,0.938882813 C7.70660156,0.0927070313 6.15687891,-0.194449219 4.59942187,0.130289063 C2.49901172,0.567210938 0.799347656,2.17575 0.220324219,4.27158984 C-0.364359375,6.38901563 0.305929688,8.62277344 1.91327344,10.1014453 C2.78103516,10.8992109 3.20255859,12.0896719 3.20255859,13.7397656 C3.20255859,15.0439922 3.48563672,16.1687109 4.02092578,16.9258359 C4.50369141,17.6088164 5.17587891,18 5.86553906,18 C6.76571484,18 7.41888281,17.3406797 7.41888281,16.4322773 L7.41888281,14.4146953 C7.41888281,13.5390234 8.03257031,12.6848672 9.0241875,12.6965391 C9.95410547,12.6908086 10.5811172,13.5459844 10.5811172,14.4146953 L10.5811172,16.4322773 C10.5811172,17.3406797 11.23425,18 12.1344609,18 C12.8241563,18 13.4963438,17.6088164 13.9791094,16.9258711 C14.5143633,16.1687461 14.7974766,15.0440273 14.7974766,13.7398008 C14.7974766,12.089707 15.219,10.8992461 16.0867617,10.1014805 C17.6941055,8.62273828 18.3643594,6.38901563 17.7796758,4.27158984 Z M9.16678125,6.33396094 L7.04524219,7.04165625 L6.33754688,9.16319531 C6.26600391,9.37835156 6.06473438,9.52347656 5.83776563,9.52347656 C5.61079688,9.52347656 5.40952734,9.37831641 5.33798438,9.16319531 L4.63028906,7.04165625 L2.50875,6.33396094 C2.29362891,6.26241797 2.14846875,6.06114844 2.14846875,5.83417969 C2.14846875,5.60721094 2.29366406,5.40594141 2.50878516,5.33439844 L4.63032422,4.62670312 L5.33801953,2.50516406 C5.49667969,2.02805859 6.17888672,2.02805859 6.33754688,2.50516406 L7.04524219,4.62670312 L9.16678125,5.33439844 C9.3819375,5.40594141 9.5270625,5.60721094 9.5270625,5.83417969 C9.5270625,6.06114844 9.3819375,6.26241797 9.16678125,6.33396094 Z" id="Shape"></path>
        </g>
    </g>
</svg>