<svg height="40" viewBox="0 0 40 40" width="40" xmlns="http://www.w3.org/2000/svg"><g style="stroke:#ff4500;stroke-width:1.5;fill:none;fill-rule:evenodd;stroke-linecap:round;stroke-linejoin:round" transform="translate(5 9)"><path d="m .09779515 8.85361619v6.57338151l4.85429295-.9776085.28587065 2.1067136 5.68135975-4.4285939-5.68135975-4.67799516-.28587065 2.37195249z"/><path d="m20.0642756 8.85361619v6.57338151l4.8542929-.9776085.2858707 2.1067136 5.6813597-4.4285939-5.6813597-4.67799516-.2858707 2.37195249z" transform="matrix(-1 0 0 1 50.950074 0)"/><g transform="translate(9.821229)"><path d="m .11695133 3.33095692 3.13759387 5.47483174"/><path d="m11.1951636 3.33095692-3.00765751 5.47483174"/><path d="m5.82097479 9.57206993v-9.48461047"/></g><g transform="matrix(1 0 0 -1 9.821229 24.206704)"><path d="m .11695133 3.33095692 3.13759387 5.47483174"/><path d="m11.1951636 3.33095692-3.00765751 5.47483174"/><path d="m5.82097479 9.57206993v-9.48461047"/></g></g></svg>