<?xml version="1.0" encoding="UTF-8"?>
<svg width="40px" height="40px" viewBox="0 0 40 40" version="1.1" xmlns="http://www.w3.org/2000/svg" xmlns:xlink="http://www.w3.org/1999/xlink">
    <!-- Generator: Sketch 64 (93537) - https://sketch.com -->
    <title>ico-virus-r</title>
    <desc>Created with Sketch.</desc>
    <g id="ico-virus-r" stroke="none" stroke-width="1" fill="none" fill-rule="evenodd">
        <g id="virus" transform="translate(4.000000, 5.000000)" fill-rule="nonzero">
            <path d="M16,4.60179563 L16,6.32836714 C13.3824789,6.32838325 11.0074552,7.3551035 9.28646414,9.01855983 L6.90983967,6.71620488 L6.90687821,6.66874057 L9.30961942,8.99639611 C7.57721792,10.6554859 6.50011998,12.9575128 6.50027733,15.4999879 L6.50027733,15.5000121 C6.50011998,18.0424872 7.57721792,20.3445141 9.30961942,22.0036039 L9.30954619,22.0036748 C11.0286601,23.6540408 13.3941612,24.6716168 16,24.6716329 L16,26.3982044 L16,24.6716329 C18.6175211,24.6716168 20.9925448,23.6448965 22.7135359,21.9814402 L25.090172,24.2838064 L25.0931331,24.3312704 L22.6903806,22.0036039 C24.4227821,20.3445141 25.49988,18.0424872 25.4997227,15.5000121 L25.4997227,15.4999879 C25.49988,12.9575128 24.4227821,10.6554859 22.6903806,8.99639611 L22.6904538,8.99632517 C20.9713399,7.34595917 18.6058388,6.32838317 16,6.32836714 L16,4.60179563 Z M6.90687821,6.66874057 L6.81883769,5.25768904 C6.62112597,5.06615606 6.3601574,4.97314648 6.1006875,4.97314648 C5.8412176,4.97314648 5.58024903,5.06615606 5.38210772,5.25810546 C5.19654403,5.43787028 5.1013125,5.67332005 5.1013125,5.91004102 C5.1013125,6.14676198 5.19654403,6.38221175 5.38210772,6.56197657 C5.77650096,6.94340555 6.42026142,6.9379106 6.80395426,6.569033 L6.90687821,6.66874057 Z M3.00552276,15.5 C2.98970813,14.9662245 2.53932512,14.5625 2,14.5625 C1.72050777,14.5625 1.46600609,14.6706092 1.28212334,14.8487456 C1.10992455,15.0155632 1,15.2449832 1,15.5 C1,15.7550168 1.10992455,15.9844368 1.28212334,16.1512544 C1.46600609,16.3293908 1.72050777,16.4375 2,16.4375 C2.53932512,16.4375 2.98970813,16.0337755 3.00552276,15.5 Z M6.91952799,24.319005 L6.80809633,24.4269544 C6.4156405,24.0641373 5.77593034,24.0569645 5.38167789,24.4384396 C5.19654403,24.6177882 5.1013125,24.853238 5.1013125,25.089959 C5.1013125,25.32668 5.19654403,25.5621297 5.38210772,25.7418945 C5.5803854,25.933976 5.84116202,26.026854 6.10034972,26.026854 C6.36010257,26.026854 6.62126313,25.9337111 7.06731232,24.8552745 L6.91952799,24.319005 Z M16,26.3982044 L16,28.1247759 C15.6322751,28.1242916 15.3000505,28.3162318 15,29.0625 C15,29.3175168 15.1099245,29.5469368 15.2821233,29.7137544 C15.4660061,29.8918908 15.7205078,30 16,30 C16.2794922,30 16.5339939,29.8918908 16.7178767,29.7137544 C16.8900755,29.5469368 17,29.3175168 16.8743938,28.6088008 C16.6999495,28.3162318 16.3677249,28.1242916 16,28.1247759 L16,26.3982044 Z M25.0931331,24.3312704 L25.1811623,25.742311 C25.3787369,25.9337111 25.6398974,26.026854 25.8996503,26.026854 C26.158838,26.026854 26.4196146,25.933976 26.6178923,25.7418945 C26.803456,25.5621297 26.8986875,25.32668 26.8986875,25.089959 C26.8986875,24.853238 26.803456,24.6177882 26.6178923,24.4380234 C26.2242276,24.0571174 25.5843065,24.0640861 25.1919182,24.4269684 L25.0931331,24.3312704 Z M28.9944772,15.5 C29.0102919,16.0337755 29.4606749,16.4375 30,16.4375 C30.2794922,16.4375 30.5339939,16.3293908 30.7178767,16.1512544 C30.8900755,15.9844368 31,15.7550168 31,15.5 C31,15.2449832 30.8900755,15.0155632 30.7178767,14.8487456 C30.5339939,14.6706092 30.2794922,14.5625 30,14.5625 C29.4606749,14.5625 29.0102919,14.9662245 28.9944772,15.5 Z M25.080472,6.68099504 L25.1959451,6.56913052 C25.57919,6.93731788 26.2228319,6.94409703 26.6184499,6.56143683 C26.803456,6.38221175 26.8986875,6.14676198 26.8986875,5.91004102 C26.8986875,5.67332005 26.803456,5.43787028 26.6178923,5.25810546 C26.419751,5.06615606 26.1587824,4.97314648 25.8993125,4.97314648 C25.6398426,4.97314648 25.378874,5.06615606 24.9326877,6.14472549 L25.080472,6.68099504 Z M16,4.60179563 L16,2.87522411 C16.3677249,2.87570839 16.6999495,2.68376817 17,1.9375 C17,1.68248324 16.8900755,1.45306318 16.7178767,1.28624559 C16.5339939,1.10810918 16.2794922,1 16,1 C15.7205078,1 15.4660061,1.10810918 15.2821233,1.28624559 C15.1099245,1.45306318 15,1.68248324 15.1256062,2.39119917 C15.3000505,2.68376817 15.6322751,2.87570839 16,2.87522411 L16,4.60179563 Z" id="Shape" stroke="#FF4500" stroke-width="2"></path>
            <path d="M13.9121094,15.109375 C13.1582031,15.109375 12.5449219,14.4960938 12.5449219,13.7421875 C12.5449219,12.9882812 13.1582031,12.375 13.9121094,12.375 C14.6660156,12.375 15.2792969,12.9882812 15.2792969,13.7421875 C15.2792969,14.4960938 14.6660156,15.109375 13.9121094,15.109375 Z" id="Path" fill="#FF4500"></path>
            <path d="M17.28125,19.796875 C16.4194336,19.796875 15.71875,19.0961914 15.71875,18.234375 C15.71875,17.3725586 16.4194336,16.671875 17.28125,16.671875 C18.1430664,16.671875 18.84375,17.3725586 18.84375,18.234375 C18.84375,19.0961914 18.1430664,19.796875 17.28125,19.796875 Z" id="Path" fill="#FF4500"></path>
            <path d="M20.015625,14.328125 C19.3696289,14.328125 18.84375,13.8022461 18.84375,13.15625 C18.84375,12.5102539 19.3696289,11.984375 20.015625,11.984375 C20.6616211,11.984375 21.1875,12.5102539 21.1875,13.15625 C21.1875,13.8022461 20.6616211,14.328125 20.015625,14.328125 Z" id="Path" fill="#FF4500"></path>
        </g>
    </g>
</svg>