<svg height="40" viewBox="0 0 40 40" width="40" xmlns="http://www.w3.org/2000/svg"><g fill="#ff4500" transform="translate(8 11)"><path d="m4.91086745 4.22982456c-.25687135-.12792398-.56905458-.02436647-.69751462.23250487l-1.03961989 2.0792885c-.1284113.25687135-.02436647.56905458.23250488.69751462.07461013.03703704.15380117.05482457.23196881.05482457.19088694 0 .3741228-.10506823.46549707-.28732944l1.03961989-2.0792885c.12846004-.25687134.0244152-.56905458-.23245614-.69751462z"/><path d="m6.99015595 4.22982456c-.25687135-.12792398-.56856726-.02436647-.69751462.23250487l-2.0792885 4.15852827c-.12841131.25687134-.02436648.56905458.23250487.69751462.07461014.03703704.15380117.05482456.23196881.05482456.19088694 0 .37412281-.10506823.46549708-.28732943l2.0792885-4.15852827c.12846003-.25687134.02436647-.56905458-.23245614-.69751462z"/><path d="m24.8212963 4.35063353c-.0426413-.04770955-1.0584308-1.1832846-3.1833821-2.28284601-.1699317-.08908382-.3630117-.05458089-.5186647.04931774-.0256335.02105263-2.2535088 2.21018519-2.2535088 2.21018519-.1390838.13908382-.1878167.34517544-.1253898.53201754l.9376218 2.81384016-1.3345516 1.33508772.3431773-1.02997076c.0507798-.15229045.0284113-.31929825-.0604288-.45282651l-1.9274854-2.89147174 1.3294834-3.32397661c.055848-.14010721.0482457-.29746588-.0208089-.43148148-.0695419-.13401559-.1934211-.23148148-.3401072-.26700779-1.640156-.39493178-3.3869396-.59493178-5.1915692-.59493178-8.45565306 0-12.19186164 4.15906433-12.34722226 4.33620858-.11471735.13099415-.15584795.31067251-.11013645.4787037l3.11890838 11.43601362c.0457115.1670078.17158869.2995127.33552631.3548246.16242691.0568713.34468811.0258772.48226121-.0787037.0258772-.0197856 2.66052632-1.9721735 8.52066281-1.9721735 5.8601364 0 8.4947855 1.9523879 8.5206627 1.9721735.0918616.0695419.2035575.1060916.3162768.1060916.055848 0 .1121833-.0086257.1659844-.0274366.1639864-.0553119.2898636-.1878168.3355264-.3548246l3.1189083-11.43601365c.0461501-.16856725.0039961-.34931774-.1117446-.48079922zm-4.5037037 9.50292397c-1.6249513-.6695906-4.188499-1.361501-7.8419591-1.361501-3.65346001 0-6.21700777.6919104-7.84142297 1.361501l-2.35999026-8.65263157c1.33153022-1.07719299 4.58596492-3.1051657 10.20141323-3.1051657 1.3739766 0 2.7019493.13338207 3.9654971.38216375l-.8095517 2.02402534c-.0634502.15886939-.0446881.33859649.0502437.48123781l1.9381579 2.90721248-.9589181 2.87777779c-.0766569.2289474.0147173.4797271.2197856.6066277.0842592.0522904.1787037.0776803.2730994.0776803.1340156 0 .2675438-.0518031.3675438-.1522905l3.1189084-3.11890835c.1390838-.13908382.1878168-.34517544.1253899-.53201754l-.9376219-2.81384016.8965887-.89678363c.8987817.46973685 1.5569201.93396687 1.9537525 1.25618909z"/></g></svg>