<?xml version="1.0" encoding="UTF-8"?>
<svg width="33px" height="33px" viewBox="0 0 33 33" version="1.1" xmlns="http://www.w3.org/2000/svg" xmlns:xlink="http://www.w3.org/1999/xlink">
    <!-- Generator: Sketch 64 (93537) - https://sketch.com -->
    <title>1436708</title>
    <desc>Created with Sketch.</desc>
    <g id="Page-1" stroke="none" stroke-width="1" fill="none" fill-rule="evenodd">
        <g id="1436708" fill="#FF4500" fill-rule="nonzero">
            <path d="M23.1461016,14.6096016 C23.1461016,15.1315664 22.7230664,15.5546016 22.2011016,15.5546016 C21.6793828,15.5546016 21.2561016,15.1315664 21.2561016,14.6096016 C21.2561016,14.0878828 21.6793828,13.6646016 22.2011016,13.6646016 C22.7230664,13.6646016 23.1461016,14.0878828 23.1461016,14.6096016 Z" id="Path"></path>
            <path d="M22.2001172,4.5549492 C20.2818164,4.5549492 18.7257656,6.10730858 18.7257656,8.0293008 L18.7257656,8.03053125 C18.7257656,8.55225 19.1488008,8.97503909 19.6707656,8.97503909 C20.1927305,8.97503909 20.6157656,8.55126563 20.6157656,8.0293008 C20.6157656,7.15566795 21.3223008,6.4449492 22.2013477,6.4449492 C23.0754727,6.4449492 23.7866836,7.15616017 23.7866836,8.03053125 C23.7866836,8.90465625 23.0754727,9.61586716 22.2013477,9.61586716 C21.6793828,9.61586716 21.2563477,10.0391484 21.2563477,10.5608672 L21.2563477,11.5730508 C21.2563477,12.0950156 21.6793828,12.5180508 22.2013477,12.5180508 C22.7230664,12.5180508 23.1463477,12.0950156 23.1463477,11.5730508 L23.1463477,11.3754375 C24.6049453,10.9627383 25.6766836,9.6193125 25.6766836,8.03053125 C25.6766836,6.11395313 24.1176797,4.5549492 22.2001172,4.5549492 L22.2001172,4.5549492 Z" id="Path"></path>
            <path d="M9.0680625,24.1171875 C10.2424219,23.2027031 10.9998984,21.7768359 10.9998984,20.1767344 C10.9998984,17.4231914 8.75946091,15.183 6.00591795,15.183 C3.252375,15.183 1.01218358,17.4231914 1.01218358,20.1767344 C1.01218358,21.7768359 1.76966017,23.2027031 2.94377341,24.1171875 C1.28657813,25.1030391 0,26.9649844 0,29.2866328 L0,31.311 C0,31.8329648 0.423035172,32.256 0.945,32.256 L11.067082,32.256 C11.5888008,32.256 12.012082,31.8329648 12.012082,31.311 L12.012082,29.2866328 C12.012082,26.9654766 10.72575,25.1032852 9.0680625,24.1171875 Z M2.90218358,20.1767344 C2.90218358,18.4653984 4.29458205,17.073 6.00616409,17.073 C7.7175,17.073 9.10989841,18.4653984 9.10989841,20.1767344 C9.10989841,21.8883164 7.7175,23.2807148 6.00616409,23.2807148 C4.29458205,23.2807148 2.90218358,21.8883164 2.90218358,20.1767344 Z M10.122082,30.366 L1.89,30.366 L1.89,29.2866328 C1.89,27.0132188 3.72930466,25.1707148 6.00591795,25.1707148 C8.27933205,25.1707148 10.1218359,27.0100195 10.1218359,29.2866328 L10.1218359,30.366 L10.122082,30.366 Z" id="Shape"></path>
            <path d="M28.2744492,0 L16.128,0 C13.9289062,0 12.1464492,1.77925784 12.1464492,3.9815508 L12.1464492,22.2011016 C12.1464492,22.974082 13.0328789,23.4261563 13.6584492,22.9571016 L17.4551836,20.1095508 L28.2744492,20.1095508 C30.473543,20.1095508 32.256,18.330293 32.256,16.128 L32.256,3.9815508 C32.256,1.78245705 30.4767422,0 28.2744492,0 L28.2744492,0 Z M30.366,16.128 C30.366,17.2841484 29.4310898,18.2195508 28.2744492,18.2195508 L17.1401836,18.2195508 C16.9356797,18.2195508 16.7368359,18.2859961 16.5731836,18.4085508 L14.0364492,20.3111016 L14.0364492,3.9815508 C14.0364492,2.82540233 14.9713594,1.89 16.128,1.89 L28.2744492,1.89 C29.4305977,1.89 30.366,2.82491017 30.366,3.9815508 L30.366,16.128 Z" id="Shape"></path>
        </g>
    </g>
</svg>