<svg height="40" viewBox="0 0 40 40" width="40" xmlns="http://www.w3.org/2000/svg"><g fill="#41494f" transform="translate(8 10)"><path d="m16.9714286 3.20418367c.3428571-.02448979.6367347-.29387755.6367347-.63673469v-1.88571429c0-.34285714-.2938776-.63673469-.6367347-.63673469-.3428572 0-.6367347.29387755-.6367347.63673469v1.88571429c0 .34285714.2938775.63673469.6367347.63673469z"/><path d="m22.1632653 4.96744898 1.3469388-1.34693878c.2448979-.24489796.2448979-.63673469 0-.88163265-.244898-.24489796-.6367347-.24489796-.8816327 0l-1.3469387 1.34693878c-.244898.24489796-.244898.63673469 0 .88163265.2448979.24489796.6367346.24489796.8816326 0z"/><path d="m25.5918367 8.66540816h-1.8857143c-.3428571 0-.6367346.29387755-.6367346.6367347 0 .34285714.2938775.63673469.6367346.63673469h1.8857143c.3428572 0 .6367347-.29387755.6367347-.63673469 0-.36734694-.2938775-.6367347-.6367347-.6367347z"/><path d="m22.1632653 13.6123469c-.244898-.2448979-.6367347-.2448979-.8816326 0-.244898.244898-.244898.6367347 0 .8816327l1.3469387 1.3469388c.244898.2448979.6367347.2448979.8816327 0 .2448979-.244898.2448979-.6367347 0-.8816327z"/><path d="m11.7795918 4.96744898c.244898.24489796.6367347.24489796.8816327 0 .2448979-.24489796.2448979-.63673469 0-.88163265l-1.3469388-1.34693878c-.2448979-.24489796-.6367347-.24489796-.8816326 0-.244898.24489796-.244898.63673469 0 .88163265z"/><path d="m15.5755102 10.1347959c-.5632653 0-1.1265306.122449-1.6163265.3428572-.5142857.2204081-.9551021.5632653-1.322449.9795918-.2204082.2693878-.6367347.2938775-.8816327.0489796-.2693877-.2204082-.2938775-.6367347-.0489796-.8816327.489796-.5632653 1.1020409-1.0040816 1.7632654-1.29795915.1224489-.04897959.2693877-.12244898.3918367-.17142857-.3918367-.75918367-.9795918-1.39591837-1.6653061-1.88571428-.8816327-.6122449-1.9102041-.95510204-3.03673473-.95510204-1.32244898 0-2.52244898.48979591-3.45306122 1.27346938-.93061225.80816327-1.59183674 1.93469388-1.7877551 3.23265306-.0244898.1959184-.12244898.3428571-.29387755.4408163-.09795919.0734694-.22040817.0979592-.34285715.0979592-.90612245 0-1.73877551.367347-2.32653061.9795919-.5877551.5877551-.95510204 1.4204081-.95510204 2.3265306 0 .9061224.36734694 1.7387755.97959184 2.3265306.5877551.5877551 1.42040816.9795918 2.32653061.9795918h12.31836735c1.0530612.0734694 2.0326531-.3673469 2.7428571-1.1020408.7102041-.7102041 1.1510204-1.6897959 1.1510204-2.7918367 0-1.1020409-.4408163-2.0816327-1.1510204-2.7918368-.710204-.7102041-1.6897959-1.1510204-2.7918367-1.1510204z"/><path d="m21.6 9.30214286c0-1.27346939-.5142857-2.44897959-1.3714286-3.28163266-.832653-.83265306-2.0081632-1.37142857-3.2816326-1.37142857-.8571429 0-1.6897959.24489796-2.4.66122449-.5142857.31836735-.9795919.73469388-1.3469388 1.2244898.3428571.26938775.6367347.5632653.9061224.88163265.3918368.44081633.7102041.95510204.9795919 1.51836735.1469388-.0244898.3183673-.0244898.4653061-.0244898 1.444898 0 2.7428572.5877551 3.6734694 1.51836738.1959184.1959183.3918367.4408163.5632653.6612245.2693878.3673469.4897959.7836734.6367347 1.2244898.3673469-.3428572.6367347-.7591837.8081633-1.2.2448979-.5632654.3673469-1.20000004.3673469-1.81224494z"/></g></svg>