<svg height="40" viewBox="0 0 40 40" width="40" xmlns="http://www.w3.org/2000/svg"><g fill="#41494f" transform="translate(11 13)"><path d="m12.7828316 12.4452423c0-.2675994.2170944-.4846938.4846939-.4846938h3.9822449c1.8985459-3.92286993 2.2117066-6.96277299.9870791-9.08495666-1.721875-2.98387245-6.8481429-2.84001531-6.8481429-2.84001531-4.6234464 0-7.54324231 3.23198725-7.54324231 3.23198725-1.49004592 1.58039285-3.00112755 4.57420153-3.66646684 6.58863775 0 0-.11361225.34888267-.14046429.46700257-.02030867.0891837-.03853316.1788036-.03853316.2707015v2.4237602c0 .2591658.10091327.5027245.28427296.6857934.18297194.182778.42628826.2835459.6851148.2835459h.00101785l14.64817599-.0022296c.3521786-.0004362.6767781-.2065765.8471965-.5146479.1005255-.1817603.1976581-.3616786.292125-.5401914h-3.4903776c-.2675995 0-.4846939-.2169005-.4846939-.4846939zm-3.24502548-5.63316067c-.6193903.36856123-2.05645918.7463801-3.32441836 1.07984949-.58580103.15408419-1.13912756.29958929-1.62096174.44373725-.78733673.2357551-2.8937779.45822959-3.80170647.66296428.6186801-1.66586634 1.93297415-4.00900146 2.88478776-5.1567551h7.02386769c.4375816 0 .7248597.18326276.7270408.54009439 0 .866875-.6354337 1.68455357-1.88860968 2.43010969z"/><path d="m10.2631505 4.25396429c-.26730866 0-.48469387.21743367-.48469387.48469387 0 .26730868.21738521.48469388.48469387.48469388.2674056 0 .4846939-.2173852.4846939-.48469388 0-.26730867-.2173852-.48469387-.4846939-.48469387z"/></g></svg>