<svg height="40" viewBox="0 0 40 40" width="40" xmlns="http://www.w3.org/2000/svg"><path d="m23.6814141 15.2892735c-1.3448933-2.2198334-2.8407474-4.1410599-3.6127709-5.0887344-.1033125-.1269141-.2583307-.20058855-.4219583-.2005391-.1636771 0-.3186458.0736745-.4220078.2005886-.771974.9479713-2.2678281 2.8698411-3.6127214 5.0898724-1.7331562 2.8610338-2.6119557 5.2264843-2.6119557 7.0304948 0 3.6649713 2.9816641 6.6466354 6.6466354 6.6466354 3.6649714 0 6.6466354-2.9816641 6.6466354-6.6466354.0000495-1.805198-.878651-4.1709948-2.6118567-7.0316823zm-3.1226797 11.2302369c-.3881146.0992552-.790974.1495261-1.1976433.1495261-2.4831614 0-4.5033463-1.8766953-4.5033463-4.1834636 0-.556888.1469531-1.207539.4366536-1.9337942.0489349-.1227084.1883672-.1927214.3258204-.1630339.1373541.0295886.2295833.1493281.2154322.2795573-.0169218.1557604-.0255312.3079089-.0255312.4520417 0 2.5103255 2.0227578 4.6124974 4.7051224 4.8895807.1334948.0138047.2376484.1136536.2482864.2380938.0106875.1244401-.0753072.2383411-.2047942.2714921z" fill="#41494f"/></svg>