<?xml version="1.0" encoding="UTF-8"?>
<svg width="40px" height="40px" viewBox="0 0 40 40" version="1.1" xmlns="http://www.w3.org/2000/svg" xmlns:xlink="http://www.w3.org/1999/xlink">
    <!-- Generator: Sketch 64 (93537) - https://sketch.com -->
    <title>ico-empastes-b</title>
    <desc>Created with Sketch.</desc>
    <g id="ico-empastes-b" stroke="none" stroke-width="1" fill="none" fill-rule="evenodd">
        <g id="003-dentista-2" transform="translate(11.000000, 10.000000)" fill="#FFFFFF" fill-rule="nonzero">
            <polygon id="Path" transform="translate(1.481125, 6.338986) rotate(-45.000000) translate(-1.481125, -6.338986) " points="0.867720396 4.89317168 2.09452897 4.89317168 2.09452897 7.78480039 0.867720396 7.78480039"></polygon>
            <polygon id="Path" transform="translate(2.812972, 3.887129) rotate(-43.136721) translate(-2.812972, -3.887129) " points="2.19924307 1.64376635 3.42670065 1.64376635 3.42670065 6.13049205 2.19924307 6.13049205"></polygon>
            <polygon id="Path" transform="translate(16.103040, 6.241818) rotate(-39.277311) translate(-16.103040, -6.241818) " points="14.6499793 5.62837264 17.5561 5.62837264 17.5561 6.85526322 14.6499793 6.85526322"></polygon>
            <g id="Group" transform="translate(2.699387, 0.000000)">
                <path d="M11.7458896,11.0731288 C12.1221677,10.0029448 11.963681,8.80527607 11.321227,7.86744376 C10.6791002,6.93002045 9.66421268,6.37366053 8.53721881,6.34106339 C8.50139059,6.34 8.46539877,6.3394683 8.42932515,6.3394683 C7.84184049,6.3394683 7.26993865,6.48171779 6.75807771,6.74478528 L6.75807771,4.90797546 L9.00756646,4.90797546 L8.99856851,0 L7.98507157,0 L5.76478528,0 C4.39554192,0 3.28159509,1.11394683 3.28159509,2.48319018 L3.28159509,4.90797546 L5.53108384,4.90797546 L5.53108384,6.74478528 C5.0192229,6.48171779 4.44728016,6.3394683 3.8598364,6.3394683 C3.82376278,6.3394683 3.78777096,6.34 3.75226994,6.34102249 C2.66298569,6.37255624 1.66282209,6.89631902 1.00817996,7.77803681 C0.341390593,8.67611452 0.126462168,9.80957055 0.417668712,10.884499 L0.99402863,13.0595501 C0.33194274,14.4506748 0.00961145194,15.8254806 0.00961145194,17.2549693 L0.00961145194,18.376728 C0.00961145194,19.7648262 1.13893661,20.8941922 2.52707566,20.8941922 C3.91521472,20.8941922 5.04453988,19.7648671 5.04453988,18.376728 L5.04453988,17.4766462 C5.04453988,16.8700613 5.53799591,16.3766053 6.14458078,16.3766053 C6.75116564,16.3766053 7.24462168,16.8700613 7.24462168,17.4766462 L7.24462168,18.376728 C7.24462168,19.7648262 8.37394683,20.8941922 9.76208589,20.8941922 C11.1502249,20.8941922 12.2795501,19.7648671 12.2795501,18.376728 L12.2795501,16.9182004 C12.2795501,15.4919018 11.8983231,14.215092 11.115501,13.0250307 L11.7458896,11.0731288 Z" id="Path"></path>
                <polygon id="Path" points="10.2255624 0 17.2693252 0 17.2693252 3.6809816 10.2255624 3.6809816"></polygon>
            </g>
        </g>
    </g>
</svg>