<svg height="40" viewBox="0 0 40 40" width="40" xmlns="http://www.w3.org/2000/svg"><g fill="#41494f" transform="translate(12 10)"><path d="m8.0859375 0c-4.44890625 0-8.06839844 3.61949219-8.06839844 8.06835938h1.17191407c0-3.80269532 3.09375-6.89644532 6.89648437-6.89644532 3.8027344 0 6.8964844 3.09375 6.8964844 6.89644532h1.171914c0-4.44886719-3.6194921-8.06835938-8.0683984-8.06835938z"/><path d="m14.3771875 8.2315625c-.103125-1.55515625-.8160547-3.07824219-1.9563281-4.1790625-1.2058985-1.16449219-2.75949221-1.7590625-4.37437503-1.673125-1.63484375.08632813-2.98878906.69808594-4.024375 1.81804688-1.02699218 1.11097656-1.43519531 2.5028125-1.72078125 3.44191406-.42421875 1.39535156-1.63445312 2.166875-2.28367187 2.49035156v1.2836328c.4671875-.1316406 2.67589844-.8633203 3.42628906-3.51378905.43359375-1.53054687 1.42933594-4.1790625 4.66425782-4.35015625 2.85246097-.15 4.93925777 2.33953125 5.09980467 4.75996094.159375 2.39578126 2.2340625 3.76382816 2.9305859 4.12437496.0105469-.1660156.015625-.3335937.015625-.5019531v-.8660547c-.6871484-.4930078-1.6852343-1.45593747-1.7770312-2.8341406z"/><path d="m12.2985938 8.37023437c-.0753907-1.35667968-.748086-2.59230468-1.77625-3.30675781-.66136724-.45980469-1.48167974-.67699219-2.30945317-.61175781-.84417969.06679687-1.61921875.42265625-2.18289063 1.00238281-.95941406.98792969-1.36371094 2.37234375-1.72039063 3.59390625-.02226562.07617188-.04414062.1515625-.06640625.2265625-.46992187 1.59890629-2.51808593 3.04464839-4.20328124 3.26183589.02929687.3949219.08710937.7816797.17109375 1.1586329 1.06410156-.1472657 2.57160156-.7621485 3.38761718-1.4371485.85472657-.7066797 1.46644532-1.6239062 1.76882813-2.65285154.02226562-.07539062.04453125-.1515625.0671875-.22851562.33398437-1.14378907.67933594-2.32664063 1.43597656-3.10558594.75394531-.77582031 2.06453125-.88363281 2.98292969-.24492188.73675781.51175782 1.21332031 1.41527344 1.27542971 2.416875.0457031.73597657.2378906 2.17898438 1.0121484 3.57320308.6969141 1.2547266 2.1770313 2.4227344 3.4458203 2.8926954.1433594-.3605469.2613281-.7336329.3515625-1.1172266-2.1355469-.7793359-3.5082812-3.0528516-3.6399218-5.42132813z"/><path d="m9.89617187 7.8003125c-.26992187-.52386719-.86605468-1.00863281-1.58914062-.91058594-.97425781.13242188-1.68171875 1.22386719-2.10320313 3.24503904-.609375 2.9204297-4.70722656 4.4330078-5.63457031 4.7345703.14414063.3691407.31523438.7254297.50976563 1.0656641.66683593-.2285156 2.1028125-.7808984 3.25167968-1.5457812 1.68171875-1.1191797 2.69777344-2.47 3.02003907-4.0153907.36796875-1.7641406.87347656-2.29031247 1.11371093-2.32273435.14062501-.01914062.31132813.13320313.38984375.28554688.01054688.02070312 1.06097657 2.10867187.20820313 4.65019527-.71253906 2.1250782-2.82160156 4.0755469-5.69515625 5.4900391.37070312.2679688.76527344.5050781 1.17972656.7074609 2.95050781-1.5270312 4.84199219-3.4853125 5.62679689-5.8248437 1.0078906-3.0055859-.22496095-5.45644532-.27769533-5.5591797z"/><path d="m10.9563672 15.0412109-.5090235.2902344-.51019526.2882813c.04804687.0851562 1.06175776 1.8395312 3.14425786 2.648164.3515625-.2777344.6797265-.5840234.9808984-.9152734-2.0562891-.5195313-3.0953906-2.2930469-3.1059375-2.3114063z"/><path d="m11.6845313 12.8653516-.4863672.3265625-.4867579.3261718c.0207032.0308594.5160547.7664454 1.2629297 1.5082813.9371485.9312891 1.8430469 1.4574609 2.6977735 1.5672656.2238281-.315625.4253906-.6484765.6027734-.9953515-1.4687891-.0851954-3.1278516-2.0446094-3.5903515-2.7329297z"/><path d="m9.785625 17.4088672-.45-.4925781-.43046875.5101562c-.51679687.6121484-1.72273437 1.3144922-2.14382812 1.5332813l.26992187.5203515.24921875.4800782.02070313.0398437c.00664062-.0035156.02773437-.0144531.0609375-.0320312.25859375-.1386719 1.25628906-.6898829 1.99421875-1.3391016.32226562.2941406.79222657.6789453 1.30394527.9516016.4445313-.1492188.8719141-.3367188 1.2781641-.5582422-.8223047-.4535157-2.14578125-1.6059375-2.1528125-1.6133594z"/><path d="m7.66289062 11.5313281c-.73246093 1.7434375-1.91179687 3.1426953-3.50484375 4.1595313-1.06019531.6766015-2.2325 1.0391015-2.50089843 1.1168359.259375.3414063.54535156.6613672.85472656.9570703.42539062-.1351562 1.26878906-.4496093 2.23328125-1.0586328 1.25082031-.7898828 2.95988281-2.2500781 3.99820312-4.7208984z"/></g></svg>