<svg height="40" viewBox="0 0 40 40" width="40" xmlns="http://www.w3.org/2000/svg"><g fill="#fff" transform="translate(10 12)"><path d="m14.6875 0c-2.3694922 0-3.8904297 1.64109375-4.6875 3.11910156-.79707031-1.47804687-2.31800781-3.11910156-4.6875-3.11910156-3.00636719 0-5.3125 2.43929688-5.3125 5.67453125 0 .84414062.16902344 1.62347656.48023438 2.37234375h4.47007812l1.00992187-2.01988281c.19914063-.39710938.84914063-.39710938 1.04828126 0l1.81960937 3.63925781.64773437-1.29546875c.19914063-.39710937.84914063-.39710937 1.04828123 0l .6477344 1.29546875 1.8196094-3.63921875c.1991406-.39710937.8491406-.39710937 1.0482812 0l1.0099219 2.01984375h4.4700781c.311211-.74886719.4802344-1.52820313.4802344-2.37234375 0-3.23523437-2.3061328-5.67453125-5.3125-5.67453125z"/><path d="m14.6875 9.21875c-.2220313 0-.4245703-.1253125-.5241406-.32386719l-.6477344-1.29546875-1.8196094 3.63921874c-.0995703.1985547-.3021093.3238672-.5241406.3238672s-.4245703-.1253125-.5241406-.3238672l-.6477344-1.29546874-.64773438 1.29546874c-.19914062.3971094-.84914062.3971094-1.04828125 0l-1.81960937-3.63921874-.64773438 1.29546875c-.09957031.19855469-.30210937.32386719-.52414062.32386719h-4.21730469c1.20597656 1.8974219 3.37789063 3.6997266 6.0946875 5.9926953.76273438.643711 1.57414063 1.3286719 2.42613281 2.0673828.11042969.0955469.2471875.1430469.38394532.1430469.13675776 0 .27351566-.0475.38394536-.1430469.8520312-.7387109 1.6633984-1.4236328 2.4261328-2.0673828 2.7168359-2.2929687 4.8887109-4.0952734 6.0946875-5.9926953z"/></g></svg>