<svg height="40" viewBox="0 0 40 40" width="40" xmlns="http://www.w3.org/2000/svg"><g fill="none" transform="translate(12 10)"><path d="m16.509286 16.5058311s-2.0996468-3.6086257-2.4762653-4.2558349c.4285077-.1307199.8849793-.2461542 1.0746433-.5736441.3160896-.5456801-.2465632-1.4408328-.0988195-2.02572382.1521913-.60196588 1.0506158-1.12285169 1.0506158-1.73473531 0-.59613794-.9288424-1.29257796-1.0811359-1.8910164-.1487661-.58478876.4121997-1.48091275.0950876-2.02592832-.317112-.54506669-1.3733513-.50028349-1.808147-.91866895-.4473719-.43055259-.4459916-1.4839801-.9855882-1.77251475-.5417948-.28960821-1.4223265.29569178-2.0238834.15704792-.59470649-.13705907-1.12602126-1.03246735-1.74720915-1.03246735-.63038992 0-1.63305293 1.01569921-1.79030533 1.0522517-.60125017.13976856-1.48290653-.44410001-2.02413904-.15326486-.53908537.28950597-.53576242 1.34303573-.9823163 1.77430403-.43408003.4191523-1.4903704.37631175-1.80651112.92199191-.31608961.54557791.24656318 1.44052609.09887066 2.02572383-.1481015.5866803-1.07781289 1.18113119-1.07781289 1.85962726 0 .61193475.90067388 1.13118464 1.05378537 1.73284379.14881722.58478872-.41214853 1.48081052-.09503648 2.02603052.17264024.2967654.56433982.41859.95552818.5357113.04565228.0136497.13199796.064721.07351397.1499419-.2676256.4619418-2.42166658 4.1795092-2.42166658 4.1795092-.17136217.2956918-.03220709.5491565.30913696.5635219l1.67083236.0696798c.34134405.0143654.769545.2624111.95174512.5514059l.8915741 1.4147604c.18220012.2889947.47129711.2835757.64260817-.0120649 0 0 2.49461819-4.306855 2.49564064-4.308082.0500488-.0584839.10035321-.0464702.12443184-.0260212.27294233.2324022.65344611.4642422.97101826.4642422.31143747 0 .59981875-.2182414.88508156-.461635.02320956-.0197844.07969977-.0603244.12100665.023823.00066459.0013292 2.49252215 4.2846168 2.49252215 4.2846168.1717712.2952828.4609193.3002928.6425571.0109402l.8890691-1.4164475c.1816889-.2891992.6094297-.5382162.9507738-.5530929l1.670679-.0727982c.3411906-.0149789.4798856-.2688014.3081145-.5640331z" stroke="#fff"/><path d="m10.9546289 3.53380818c-.0080188-.00465095-.0161446-.00898114-.0241635-.01357862-1.46809433-.84967925-3.33927043-.91179874-4.9074937.00058805-2.32718239 1.35390566-3.11907233 4.34863208-1.76516667 6.67576099.41313208.710151.97926415 1.2770315 1.63242767 1.6838554.05554403.0351761.11172956.0697641.16914466.1030157 2.32969497 1.3496824 5.32281764.5523931 6.67244654-1.777195 1.3495755-2.32969495.5525-5.32276413-1.777195-6.67244652zm.5828114 3.80848113-.8157328.79509748c-.2526478.24623271-.410566.73228302-.3508522 1.08003459l.1925598 1.12269502c.0596604.3477515-.1470126.4979182-.4593208.3337452l-1.00829241-.5301006c-.31230818-.16417295-.8233239-.16417295-1.13563208 0l-1.00823899.5301006c-.31230818.164173-.51903459.0140063-.45937422-.3337452l.19255975-1.12269502c.05966038-.34775157-.09825786-.83380188-.35090566-1.08003459l-.81567924-.79509748c-.25270126-.24623271-.17368868-.48925786.17545283-.54004403l1.12723899-.16379874c.34914151-.0507327.76259434-.3511195.91874843-.66749057l.50411949-1.02144339c.15615409-.31637107.41168868-.31637107.56778931 0l .50417296 1.02144339c.15615409.31637107.56955346.61675787.91874844.66749057l1.127239.16379874c.349088.05078617.4280472.29381132.1753994.54004403z" fill="#fff"/></g></svg>