<svg height="40" viewBox="0 0 40 40" width="40" xmlns="http://www.w3.org/2000/svg"><path d="m13.8923878 4.60995014c.0378504-.15738504.0572188-.31769529.0572188-.48017729v-.51359556c0-1.02621607-.7661828-1.96454294-2.1574293-2.64208311-1.289795-.6281662-2.99483658-.97409418-4.80101941-.97409418-1.80618282 0-3.51118005.34592798-4.80101939.97409418-1.39124653.67754017-2.15742936 1.61586704-2.15742936 2.64208311v.51359556c0 1.01198892.74548477 1.93830471 2.10025485 2.61354017-.03758449.15663158-.06182826.35182271-.06182826.47787258v.09369529c-1.31581163.67248753-2.03842659 1.5860831-2.03842659 2.58260387v.51359554c0 .691989.34885319 1.3438671 1.00237119 1.9029806-.08842105.2363214-.13451523.480133-.13451523.7293075v.5135956c0 1.0262161.76618282 1.9645429 2.15742936 2.6420831 1.28983934.6281662 2.99483656.9740942 4.80101939.9740942s3.51122435-.345928 4.80101935-.9740942c1.3912466-.6775402 2.1574294-1.615867 2.1574294-2.6420831v-.5135956c0-.6918559-.3485429-1.3436454-1.001795-1.9026703.0883324-.2363657.1338947-.4803989.1338947-.7296178v-.0936953c1.3158117-.67248749 2.0384266-1.58608306 2.0384266-2.58264816v-.51359557c.0000443-1.01079224-.7437562-1.93613296-2.0956011-2.61119113zm-12.88722437-1.42838781c.20152909-.5123989.75044876-1.00990582 1.57309696-1.41052632 1.1713241-.57045983 2.73852631-.88460942 4.4128975-.88460942 1.6743712 0 3.24161771.31414959 4.41289751.88460942.8226925.4006205 1.3715679.89817175 1.573097 1.41052632-.7119779 1.23842659-3.18563993 2.14142936-5.98603883 2.14142936-2.80039889 0-5.27401662-.90295845-5.98595014-2.14142936zm0 6.2813518c.16385596-.41657618.55849308-.82300277 1.14211635-1.17584488.2248421.80793352.94417728 1.536 2.08132964 2.08979505 1.28983933.6281662 2.99483656.9740941 4.80101939.9740941.17653185 0 .35182271-.0042991.5261385-.0108144-.78852077.1695735-1.65930194.2642438-2.56456509.2642438-2.8003989-.0000443-5.27410527-.9030471-5.98603879-2.14147367zm12.83988917 3.14583937c-.7119778 1.2384266-3.1856399 2.1414293-5.98603875 2.1414293-2.43270914 0-4.61752909-.681795-5.61631025-1.6725983 1.28350139.6122992 2.96633795.9496731 4.74845429.9496731 1.80618283 0 3.51122441-.345928 4.80101941-.9740942.668277-.3254958 1.1918892-.7112243 1.5560775-1.1379058.2350361.2226261.4035458.4563767.4967978.6934959zm-4.81546811-3.68070918c-2.44503047 0-4.64084211-.68839889-5.63270914-1.68735734 1.07111357.32859834 2.30652631.50526316 3.59428254.50526316 1.80618283 0 3.51122441-.34592798 4.80101941-.97404986.7810305-.38036565 1.3650083-.84294737 1.7270692-1.3570748.7796565.39379502 1.30123.87565651 1.4963768 1.37178948-.7119335 1.23838227-3.1856399 2.14142936-5.98603881 2.14142936z" fill="#41494f" transform="translate(12 11)"/></svg>