<svg height="40" viewBox="0 0 40 40" width="40" xmlns="http://www.w3.org/2000/svg"><g fill="#fff" transform="translate(12 8)"><path d="m12.4419407 14.4929209-.6025254-.3888559c-.4088758.3005649-.9274577.4020056-1.4137825.2895621-1.1210537-.2592373-.69441246-.1605876-1.72642376-.3992147.13809887.2415255.25467514.4948051.3505339.7650452l1.00522886.648791-.75151982.5435395c.03649717.4700085.00112712.9459746-.10723729 1.414695l-.33582768 1.4523192 3.62663839-2.6230735c.2760904-.199661.4357656-.5227147.4266949-.8633192-.0089632-.3406045-.1855452-.6547486-.4717796-.8394887z"/><path d="m18.0761384 8.59164972-3.0333446.09000847-5.91157629-3.26333051-1.1118757-1.86881638 2.25584749-2.05409322c.3510706-.31967232.3765113-.86342655.0568389-1.21455085-.3197259-.35101695-.86342651-.3765113-1.2145508-.05683898l-2.76965254 2.5219548c-.29965254.27292373-.36803107.71808192-.16407627 1.06829379l1.95045197 3.34931356-.93507909 1.6368983c.66376554.35139266 1.17912712.93341525 1.44673729 1.6356102l2.52936154.5848672 1.0680255-1.86967514 2.1986864 1.15712144c.1236073.0650509.2610085.0989718.4003955.0989718.0084802 0 .0169604-.000161.0254943-.0003757l3.2592514-.0966639c.4746243-.0141158.847969-.41027115.8339068-.88484178-.0137938-.46539265-.3980875-.84566101-.8848418-.8338531z"/><circle cx="12.326921" cy="4.414441" r="1.781814"/><path d="m6.67232768 13.3425621c.33861865-.1738446.6085904-.4264802.79918079-.7338615l3.19597173.7390678c.3521441.0813672.7031074-.1381526.7844746-.4897599.0823333-.3560622-.1439492-.7045029-.4898136-.7844209-.339692-.0785226-2.85810448-.6609209-3.19597171-.7390678-.08539265-.8471639-.69870621-1.56535313-1.55021751-1.76640963-.85881074-.2039548-1.7356017.17867514-2.18612712.90239263l-3.19693785-.73928246c-.00085876-.00021469-.00171752-.00021469-.00262995-.00042938-.31489548-.07159887-.64245762.09934746-.75758474.41096894-.13579096.3692655.08040113.7622542.44682203.8583813.00627966.0016639.01229096.0038644.01862429.0053136.38402543.0888277 2.67535029.6186271 3.19693786.7392825v.0002147c.03966384.3856356.19450847.7482994.39556497 1.0096836-.12151413.0405226-2.4269548.3187599-2.98911865 2.7493107l-.89799152 3.8838899c-.10315819.4460169.17996328.8795282.61143503.9792514l.55057062.1273107.45202825-1.9547994c.27609039-1.1938334 1.46874294-1.934243 2.65763842-1.659387 1.19302824.2758757 1.93526271 1.4645028 1.659387 2.6576384l-.45202825 1.9547994.55051695.1273108c.00005367 0 .00010735 0 .00016102.0000536.43759039.101065.87759604-.1720197.97909039-.611435l.89809887-3.8839435c.34028249-1.4709435-.27780791-2.9630876-1.47808192-3.7820735zm-1.13667231-.8751271c-.51171187-.1183474-.83175989-.6308644-.71341243-1.1425226.11856214-.5129463.62962994-.8319745 1.1425226-.7133587.51278531.1185084.83197457.6295762.71330508 1.1424689v.0000537c-.11850847.5126779-.6295226.8319745-1.14241525.7133587z"/><path d="m4.27333616 17.9260706c-.61433334-.1420706-1.22780791.240774-1.36993221.8553757l-.96642372 4.179356c-.14207063.6144943.24088135 1.2278079.8553757 1.3699322.61433334.1421243 1.22780791-.240774 1.36993221-.8553757l.96642372-4.1793023c.14207063-.614548-.24088135-1.2279153-.8553757-1.3699859z"/></g></svg>