<svg height="40" viewBox="0 0 40 40" width="40" xmlns="http://www.w3.org/2000/svg"><g fill="#ff4500" transform="translate(8 11)"><g transform="matrix(.5 .8660254 -.8660254 .5 16.820507 .199359)"><path d="m7.7843823 5.0663225c.39505508-.20281873.71002213-.49756026.93237759-.85617184l3.72863371.86224576c.4108347.09492844.8202919-.16117796.9152203-.57138653.0960556-.41540584-.1679406-.82191997-.5714491-.91515772-.3963075-.0916097-3.33445529-.77107439-3.72863373-.86224577-.09962476-.98835781-.81515725-1.82624529-1.8085871-2.0608112-1.00194585-.23794727-2.02486864.20845433-2.55048163 1.05279143l-3.72976083-.86249623c-.00100189-.00025047-.00200377-.00025047-.00306827-.00050095-.36737806-.08353201-.7495339.11590537-.88384887.47946375-.15842279.43080979.09380132.88929661.52129237 1.00144492.00732627.00194115.01433946.00450847.02172835.00619915.44802966.1036323 3.12124199.72173164 3.72976082.86249623v.00025047c.04627449.4499082.22692656.87301601.46149247 1.17796422-.14176648.04727637-2.83144727.37188654-3.48730508 3.20752919l-1.04765678 4.53120482c-.12035123.5203531.20995715 1.0261163.71334086 1.14246l.64233239.1485292.52736629-2.2805994c.32210547-1.39280554 1.71353343-2.25661675 3.10057816-1.93595149 1.39186629.32185499 2.2578065 1.70858659 1.93595151 3.10057819l-.52736629 2.2805993.64226977.1485292c.00006262 0 .00012523 0 .00018785.0000626.51052213.1179091 1.02386205-.2006897 1.14227213-.7133409l1.04778202-4.53126737c.39699623-1.71610076-.32410923-3.4569355-1.72442891-4.41241903zm-1.3261177-1.02098163c-.59699718-.13807204-.97038654-.73600848-.83231451-1.33294304.13832251-.59843738.73456827-.970637 1.33294304-.83225188.59824953.13825989.970637.73450565.83218926 1.33288042v.00006261c-.13825989.5981243-.73444303.97063701-1.33281779.83225189z"/><path d="m4.98555885 10.4137491c-.71672222-.1657491-1.43244256.280903-1.59825424.9979383l-1.12749435 4.8759152c-.16574905.7169101.28102825 1.4324426.99793833 1.5982543.71672222.1658116 1.43244256-.280903 1.59825423-.9979384l1.12749436-4.8758526c.16574905-.7169727-.28102825-1.4325678-.99793833-1.5983168z"/></g><path d="m22.1543478 15.6837391h-19.41521737c-.4407826 0-.79817391.3573044-.79817391.7981739 0 .4407827.35730435.798174.79817391.798174h19.41521737c.4407826 0 .7981739-.3573044.7981739-.798174 0-.4408695-.3573043-.7981739-.7981739-.7981739z"/></g></svg>