<svg height="40" viewBox="0 0 40 40" width="40" xmlns="http://www.w3.org/2000/svg"><path d="m25.8923878 15.6099501c.0378504-.157385.0572188-.3176953.0572188-.4801772v-.5135956c0-1.0262161-.7661828-1.964543-2.1574293-2.6420831-1.289795-.6281662-2.9948366-.9740942-4.8010194-.9740942s-3.5111801.345928-4.8010194.9740942c-1.3912465.6775401-2.1574294 1.615867-2.1574294 2.6420831v.5135956c0 1.0119889.7454848 1.9383047 2.1002549 2.6135401-.0375845.1566316-.0618283.3518227-.0618283.4778726v.0936953c-1.3158116.6724875-2.0384266 1.5860831-2.0384266 2.5826039v.5135955c0 .691989.3488532 1.3438671 1.0023712 1.9029806-.088421.2363214-.1345152.480133-.1345152.7293075v.5135956c0 1.0262161.7661828 1.9645429 2.1574294 2.6420831 1.2898393.6281662 2.9948365.9740942 4.8010194.9740942 1.8061828 0 3.5112243-.345928 4.8010193-.9740942 1.3912466-.6775402 2.1574294-1.615867 2.1574294-2.6420831v-.5135956c0-.6918559-.3485429-1.3436454-1.001795-1.9026703.0883324-.2363657.1338947-.4803989.1338947-.7296178v-.0936953c1.3158117-.6724875 2.0384266-1.5860831 2.0384266-2.5826482v-.5135955c.0000443-1.0107923-.7437562-1.936133-2.0956011-2.6111912zm-12.8872244-1.4283878c.2015291-.5123989.7504488-1.0099058 1.573097-1.4105263 1.1713241-.5704598 2.7385263-.8846094 4.4128975-.8846094s3.2416177.3141496 4.4128975.8846094c.8226925.4006205 1.3715679.8981718 1.573097 1.4105263-.7119779 1.2384266-3.1856399 2.1414294-5.9860388 2.1414294s-5.2740166-.9029585-5.9859502-2.1414294zm0 6.2813518c.163856-.4165761.5584931-.8230027 1.1421164-1.1758448.2248421.8079335.9441773 1.536 2.0813296 2.089795 1.2898394.6281662 2.9948366.9740941 4.8010194.9740941.1765319 0 .3518227-.0042991.5261385-.0108144-.7885208.1695735-1.6593019.2642438-2.5645651.2642438-2.8003989-.0000443-5.2741052-.9030471-5.9860388-2.1414737zm12.8398892 3.1458394c-.7119778 1.2384266-3.1856399 2.1414293-5.9860387 2.1414293-2.4327092 0-4.6175291-.681795-5.6163103-1.6725983 1.2835014.6122992 2.966338.9496731 4.7484543.9496731 1.8061828 0 3.5112244-.345928 4.8010194-.9740942.668277-.3254958 1.1918892-.7112243 1.5560775-1.1379058.2350361.2226261.4035458.4563767.4967978.6934959zm-4.8154681-3.6807092c-2.4450305 0-4.6408421-.6883989-5.6327092-1.6873573 1.0711136.3285983 2.3065264.5052631 3.5942826.5052631 1.8061828 0 3.5112244-.3459279 4.8010194-.9740498.7810305-.3803657 1.3650083-.8429474 1.7270692-1.3570748.7796565.393795 1.30123.8756565 1.4963768 1.3717895-.7119335 1.2383822-3.1856399 2.1414293-5.9860388 2.1414293z" fill="#ff4500"/></svg>