<?xml version="1.0" encoding="UTF-8"?>
<svg width="40px" height="40px" viewBox="0 0 40 40" version="1.1" xmlns="http://www.w3.org/2000/svg" xmlns:xlink="http://www.w3.org/1999/xlink">
    <!-- Generator: Sketch 64 (93537) - https://sketch.com -->
    <title>ico-alert-r</title>
    <desc>Created with Sketch.</desc>
    <g id="ico-alert-r" stroke="none" stroke-width="1" fill="none" fill-rule="evenodd">
        <g id="warning" transform="translate(8.000000, 8.000000)" fill-rule="nonzero">
            <path d="M12.485883,16.0873717 C11.787731,16.0873717 11.2025154,16.6725873 11.2025154,17.3707392 C11.2025154,18.0688912 11.787731,18.6541068 12.485883,18.6541068 C13.1583676,18.6541068 13.7692505,18.0688912 13.7384497,17.40154 C13.7692505,16.6674538 13.1891684,16.0873717 12.485883,16.0873717 Z" id="Shape" fill="#FF4500"></path>
            <path d="M24.3647331,20.6356263 C25.1706879,19.2444559 25.1758214,17.586345 24.375,16.200308 L16.3359856,2.27833676 C15.5402977,0.876899384 14.1029261,0.0452772074 12.4910164,0.0452772074 C10.8791068,0.0452772074 9.44173511,0.882032854 8.64604723,2.27320329 L0.596765914,16.2105749 C-0.204055441,17.6120123 -0.198921971,19.2803901 0.612166324,20.6715606 C1.41298768,22.0473306 2.84522587,22.8738193 4.44686858,22.8738193 L20.5043634,22.8738193 C22.1111396,22.8738193 23.5536448,22.0370637 24.3647331,20.6356263 Z" id="Shape" stroke="#FF4500" stroke-width="1.6"></path>
            <path d="M12.1676078,7.07813142 C11.5567248,7.2526694 11.176848,7.80708419 11.176848,8.47956879 C11.2076489,8.88511294 11.2333162,9.29579055 11.264117,9.7013347 C11.351386,11.2465092 11.438655,12.760883 11.525924,14.3060575 C11.5567248,14.8296715 11.962269,15.2095483 12.485883,15.2095483 C13.0094969,15.2095483 13.4201745,14.8040041 13.4458419,14.2752567 C13.4458419,13.9569815 13.4458419,13.6643737 13.4766427,13.3409651 C13.5331109,12.3502053 13.5947125,11.3594456 13.6511807,10.3686858 C13.6819815,9.72700205 13.7384497,9.08531828 13.7692505,8.4436345 C13.7692505,8.21262834 13.7384497,8.00728953 13.6511807,7.80195072 C13.3893737,7.22700205 12.7784908,6.93439425 12.1676078,7.07813142 Z" id="Shape" fill="#FF4500"></path>
        </g>
    </g>
</svg>