<svg height="40" viewBox="0 0 40 40" width="40" xmlns="http://www.w3.org/2000/svg"><g fill="#ff4500" fill-rule="nonzero"><path d="m24.9714286 13.2041837c.3428571-.0244898.6367347-.2938776.6367347-.6367347v-1.8857143c0-.3428571-.2938776-.6367347-.6367347-.6367347-.3428572 0-.6367347.2938776-.6367347.6367347v1.8857143c0 .3428571.2938775.6367347.6367347.6367347z"/><path d="m30.1632653 14.967449 1.3469388-1.3469388c.2448979-.244898.2448979-.6367347 0-.8816326-.244898-.244898-.6367347-.244898-.8816327 0l-1.3469387 1.3469387c-.244898.244898-.244898.6367347 0 .8816327.2448979.2448979.6367346.2448979.8816326 0z"/><path d="m33.5918367 18.6654082h-1.8857143c-.3428571 0-.6367346.2938775-.6367346.6367347 0 .3428571.2938775.6367347.6367346.6367347h1.8857143c.3428572 0 .6367347-.2938776.6367347-.6367347 0-.367347-.2938775-.6367347-.6367347-.6367347z"/><path d="m30.1632653 23.6123469c-.244898-.2448979-.6367347-.2448979-.8816326 0-.244898.244898-.244898.6367347 0 .8816327l1.3469387 1.3469388c.244898.2448979.6367347.2448979.8816327 0 .2448979-.244898.2448979-.6367347 0-.8816327z"/><path d="m19.7795918 14.967449c.244898.2448979.6367347.2448979.8816327 0 .2448979-.244898.2448979-.6367347 0-.8816327l-1.3469388-1.3469387c-.2448979-.244898-.6367347-.244898-.8816326 0-.244898.2448979-.244898.6367346 0 .8816326z"/><path d="m23.5755102 20.1347959c-.5632653 0-1.1265306.122449-1.6163265.3428572-.5142857.2204081-.9551021.5632653-1.322449.9795918-.2204082.2693878-.6367347.2938775-.8816327.0489796-.2693877-.2204082-.2938775-.6367347-.0489796-.8816327.489796-.5632653 1.1020409-1.0040816 1.7632654-1.2979591.1224489-.0489796.2693877-.122449.3918367-.1714286-.3918367-.7591837-.9795918-1.3959184-1.6653061-1.8857143-.8816327-.6122449-1.9102041-.955102-3.0367347-.955102-1.322449 0-2.522449.4897959-3.4530613 1.2734693-.9306122.8081633-1.5918367 1.9346939-1.7877551 3.2326531-.0244897.1959184-.1224489.3428571-.2938775.4408163-.0979592.0734694-.2204082.0979592-.3428571.0979592-.9061225 0-1.73877556.367347-2.32653066.9795919-.5877551.5877551-.95510204 1.4204081-.95510204 2.3265306 0 .9061224.36734694 1.7387755.97959184 2.3265306.5877551.5877551 1.42040816.9795918 2.32653056.9795918h12.3183674c1.0530612.0734694 2.0326531-.3673469 2.7428571-1.1020408.7102041-.7102041 1.1510204-1.6897959 1.1510204-2.7918367 0-1.1020409-.4408163-2.0816327-1.1510204-2.7918368-.710204-.7102041-1.6897959-1.1510204-2.7918367-1.1510204z"/><path d="m29.6 19.3021429c0-1.2734694-.5142857-2.4489796-1.3714286-3.2816327-.832653-.8326531-2.0081632-1.3714286-3.2816326-1.3714286-.8571429 0-1.6897959.244898-2.4.6612245-.5142857.3183674-.9795919.7346939-1.3469388 1.2244898.3428571.2693878.6367347.5632653.9061224.8816327.3918368.4408163.7102041.955102.9795919 1.5183673.1469388-.0244898.3183673-.0244898.4653061-.0244898 1.444898 0 2.7428572.5877551 3.6734694 1.5183674.1959184.1959183.3918367.4408163.5632653.6612245.2693878.3673469.4897959.7836734.6367347 1.2244898.3673469-.3428572.6367347-.7591837.8081633-1.2.2448979-.5632654.3673469-1.2.3673469-1.8122449z"/></g></svg>