<svg width="235" height="125" xmlns="http://www.w3.org/2000/svg"><path d="M78.345 67.711h12.819l-6.285-15.97-6.534 15.97zm17.012 10.622l-3.187-8.051H77.297l-3.27 8.051H69v-.859c1.93-.34 2.847-1.282 3.479-2.825l10.769-26.338c-.673-.81-1.258-1.155-2.097-1.452V46h6.957l11.395 28.607c.548 1.415 1.381 2.655 3.395 2.867v.86h-7.54zm29.72-15.286c-1.83.683-3.744.98-5.282.98-2.498 0-4.783-.769-6.034-1.58v13.49c1.914.34 3.87.425 5.407.425 4.496 0 8.778-1.41 8.778-7.278 0-3.255-1.706-5.311-2.869-6.037zm-6.57-15.075c-1.998 0-3.578.17-4.746.34v11.946c1.46 1.029 3.87 1.803 6.034 1.803 2.827 0 6.362-.944 6.362-6.552 0-5.056-2.993-7.537-7.65-7.537zm-9.737 2.48c0-2.14-.913-2.994-2.743-3.593V46h14.143c5.946 0 11.186 3.085 11.186 8.82 0 2.958-1.33 5.057-3.202 6.51 2.618.985 4.991 3.259 4.991 7.282 0 7.495-6.238 9.721-12.85 9.721h-14.268v-.859c1.83-.598 2.743-1.452 2.743-3.592v-23.43zm53.236-2.449c.839 0 1.303-.917 1.684-2.003h.84l1.47 9.218h-.84c-2.69-3.17-6.602-6.88-12.15-6.88-6.436 0-11.354 4.754-11.354 12.307 0 8.18 5.257 14.349 13.288 14.349 3.53 0 7.145-1.124 10.466-3.212l.464 1.001c-1.976 2.004-6.22 5.55-13.918 5.55-8.532 0-15.682-5.926-15.682-16.315 0-8.465 6.853-16.018 16.355-16.018 5.762 0 8.198 2.003 9.377 2.003z" fill="#000" fill-rule="nonzero"/></svg>