<?xml version="1.0" encoding="UTF-8"?>
<svg width="40px" height="40px" viewBox="0 0 40 40" version="1.1" xmlns="http://www.w3.org/2000/svg" xmlns:xlink="http://www.w3.org/1999/xlink">
    <!-- Generator: Sketch 52.2 (67145) - http://www.bohemiancoding.com/sketch -->
    <title>004-money</title>
    <desc>Created with Sketch.</desc>
    <g id="Page-1" stroke="none" stroke-width="1" fill="none" fill-rule="evenodd">
        <g id="Sobre-nosotros-vF" transform="translate(-100.000000, -4198.000000)" fill="#F03E31" fill-rule="nonzero">
            <g id="004-money" transform="translate(100.000000, 4198.000000)">
                <path d="M26.6630799,25.6692702 C25.717193,25.6692702 24.9476803,24.9953452 24.9476803,24.1670217 C24.9476803,23.3386193 25.717193,22.6646943 26.6630799,22.6646943 C27.6089669,22.6646943 28.3784795,23.3386193 28.3784795,24.1670217 C28.3784795,24.6026824 28.7276413,24.9559763 29.1582066,24.9559763 C29.5887719,24.9559763 29.9379337,24.6026824 29.9379337,24.1670217 C29.9379337,22.7212623 28.8732943,21.505641 27.442807,21.1757002 L27.442807,20.7653649 C27.442807,20.3297041 27.0936452,19.9764103 26.6630799,19.9764103 C26.2325146,19.9764103 25.8833528,20.3297041 25.8833528,20.7653649 L25.8833528,21.1757002 C24.4528655,21.505641 23.3882261,22.7212623 23.3882261,24.1670217 C23.3882261,25.8654043 24.8573099,27.2471795 26.6630799,27.2471795 C27.6089669,27.2471795 28.3784795,27.9211045 28.3784795,28.7495069 C28.3784795,29.5779093 27.6089669,30.2518343 26.6630799,30.2518343 C25.717193,30.2518343 24.9476803,29.5779093 24.9476803,28.7495069 C24.9476803,28.3138462 24.5985185,27.9605523 24.1679532,27.9605523 C23.7373879,27.9605523 23.3882261,28.3138462 23.3882261,28.7495069 C23.3882261,30.1952663 24.4528655,31.4108876 25.8833528,31.7408284 L25.8833528,32.0816568 C25.8833528,32.5173176 26.2325146,32.8706114 26.6630799,32.8706114 C27.0936452,32.8706114 27.442807,32.5173176 27.442807,32.0816568 L27.442807,31.7408284 C28.8732943,31.4108876 29.9379337,30.1952663 29.9379337,28.7495069 C29.9379337,27.0510454 28.4688499,25.6692702 26.6630799,25.6692702 Z" id="Shape"></path>
                <path d="M35.2032749,20.9764103 C34.1847173,19.3704931 32.7497076,18.0854438 31.0534113,17.260355 C30.6651852,17.0714793 30.1992982,17.2368442 30.0127875,17.6295858 C29.8261988,18.0223274 29.9895517,18.4936489 30.3776998,18.6824458 C33.3337232,20.1202367 35.2436647,23.1923471 35.2436647,26.5089546 C35.2436647,27.9281262 34.8979337,29.3355424 34.2439766,30.5792505 C34.0417154,30.9638659 34.1858869,31.4416568 34.5660819,31.6463116 C34.682729,31.7091124 34.8081092,31.7389349 34.9316179,31.7389349 C35.2106043,31.7389349 35.4804678,31.5869822 35.6206628,31.3203945 C36.39423,29.8494675 36.8031189,28.185641 36.8031189,26.5089546 C36.8031189,24.5397239 36.2499025,22.6265878 35.2032749,20.9764103 Z" id="Shape"></path>
                <path d="M27.8887329,16.2526233 L27.8362573,16.2525444 C27.405692,16.2525444 27.0565302,16.6057594 27.0565302,17.041499 C27.0565302,17.4772387 27.405692,17.8304536 27.8362573,17.8304536 L27.8814035,17.8305325 C27.8826511,17.8305325 27.8838207,17.8305325 27.8851462,17.8305325 C28.3140741,17.8305325 28.662768,17.4797633 28.6647953,17.045286 C28.6667446,16.6095464 28.3192982,16.2546746 27.8887329,16.2526233 Z" id="Shape"></path>
                <path d="M22.9557115,34.3354635 C19.9997661,32.8975937 18.0898246,29.8254832 18.0898246,26.5089546 C18.0898246,25.089783 18.4355556,23.6823669 19.0895127,22.4386588 C19.2917739,22.0540434 19.1476023,21.5762525 18.7674074,21.3715976 C18.3873684,21.1669428 17.9150097,21.3128205 17.7128265,21.6975148 C16.9392593,23.1685207 16.5303704,24.8322682 16.5303704,26.5089546 C16.5303704,28.4781854 17.0835867,30.3912426 18.1302144,32.041499 C19.1487719,33.6474162 20.5837817,34.9324655 22.280078,35.7576331 C22.3890058,35.8106509 22.5040936,35.8356607 22.6173879,35.8356607 C22.9077583,35.8356607 23.1864327,35.6708481 23.3207018,35.3884024 C23.5071345,34.9956607 23.3438596,34.5242604 22.9557115,34.3354635 Z" id="Shape"></path>
                <path d="M25.497232,35.1874556 L25.4520858,35.1872978 C25.0194932,35.1865089 24.6707992,35.5367258 24.6688499,35.9725444 C24.6668226,36.408284 25.014425,36.7631558 25.4449903,36.7652071 L25.497232,36.7653649 C25.9277973,36.7653649 26.2769591,36.412071 26.2769591,35.9764103 C26.2769591,35.5407495 25.9277973,35.1874556 25.497232,35.1874556 Z" id="Shape"></path>
                <path d="M30.2073294,13.5832742 C30.1124366,13.3544773 29.9961793,13.138856 29.8608967,12.938856 L31.8908382,12.938856 C33.868538,12.938856 35.4775828,11.3107692 35.4775828,9.30966469 C35.4775828,7.30856016 33.868538,5.68047337 31.8908382,5.68047337 L25.6467836,5.68047337 C26.0437427,5.09648915 26.2768031,4.38998028 26.2768031,3.62919132 C26.2768031,1.62808679 24.6677583,0 22.6900585,0 L3.58674464,0 C1.60904483,0 0,1.62808679 0,3.62919132 C0,5.63029586 1.60904483,7.25838264 3.58674464,7.25838264 L9.83079922,7.25838264 C9.43384016,7.84236686 9.20077973,8.54887574 9.20077973,9.30966469 C9.20077973,10.0704536 9.43376218,10.7769625 9.83079922,11.3609467 L7.79727096,11.3609467 C5.81957115,11.3609467 4.21052632,12.9890335 4.21052632,14.9901381 C4.21052632,16.1394083 4.74183236,17.1649704 5.56842105,17.8303748 C4.74183236,18.4957791 4.21052632,19.5213412 4.21052632,20.6706114 C4.21052632,21.8198817 4.74183236,22.8454438 5.56842105,23.5108481 C4.74183236,24.1762525 4.21052632,25.2018146 4.21052632,26.3510848 C4.21052632,27.500355 4.74183236,28.5259172 5.56842105,29.1913215 C4.74183236,29.8567258 4.21052632,30.882288 4.21052632,32.0315582 C4.21052632,34.0326627 5.81957115,35.6607495 7.79727096,35.6607495 L16.9863548,35.6607495 C19.4070955,38.2806312 22.8508382,39.9211834 26.6667446,39.9211834 C33.9757505,39.9211834 39.9221053,33.9044576 39.9221053,26.5089546 C39.9221053,20.3537673 35.802807,15.1544773 30.2073294,13.5832742 Z M31.8908382,7.25838264 C33.0087329,7.25838264 33.9181287,8.17861933 33.9181287,9.30966469 C33.9181287,10.4407101 33.0087329,11.3609467 31.8908382,11.3609467 L26.9005848,11.3609467 L12.7875244,11.3609467 C11.6696296,11.3609467 10.7602339,10.4407101 10.7602339,9.30966469 C10.7602339,8.17861933 11.6696296,7.25838264 12.7875244,7.25838264 L31.8908382,7.25838264 Z M3.58674464,5.68047337 C2.4688499,5.68047337 1.55945419,4.76023669 1.55945419,3.62919132 C1.55945419,2.49814596 2.4688499,1.57790927 3.58674464,1.57790927 L22.6900585,1.57790927 C23.8079532,1.57790927 24.7173489,2.49814596 24.7173489,3.62919132 C24.7173489,4.76023669 23.8079532,5.68047337 22.6900585,5.68047337 L3.58674464,5.68047337 Z M7.79727096,12.938856 L26.9005848,12.938856 C27.2146589,12.938856 27.5153996,13.0127022 27.7851852,13.144931 C27.4163743,13.1136095 27.0435088,13.0967258 26.6667446,13.0967258 C23.0063158,13.0967258 19.6877973,14.6059172 17.2867057,17.0414201 L7.79727096,17.0414201 C6.67945419,17.0414201 5.76998051,16.1211834 5.76998051,14.9901381 C5.76998051,13.8590927 6.67945419,12.938856 7.79727096,12.938856 Z M7.79727096,18.6193294 L15.954386,18.6193294 C15.0692398,19.8463905 14.3848733,21.2303748 13.9502534,22.7218935 L7.79727096,22.7218935 C6.67937622,22.7218935 5.76998051,21.8017357 5.76998051,20.6706114 C5.76998051,19.5395661 6.67937622,18.6193294 7.79727096,18.6193294 Z M7.79727096,24.2998028 L13.5922027,24.2998028 C13.4739181,25.0187771 13.411384,25.7565286 13.411384,26.5089546 C13.411384,27.1516371 13.4573099,27.7835897 13.5440936,28.4023669 L7.79727096,28.4023669 C6.67937622,28.4023669 5.76998051,27.4822091 5.76998051,26.3510848 C5.76998051,25.2199606 6.67937622,24.2998028 7.79727096,24.2998028 Z M7.79727096,34.0828402 C6.67937622,34.0828402 5.76998051,33.1626824 5.76998051,32.0315582 C5.76998051,30.9004339 6.67937622,29.9802761 7.79727096,29.9802761 L13.8624561,29.9802761 C14.2559064,31.4645365 14.8950487,32.8478107 15.7332554,34.0828402 L7.79727096,34.0828402 Z M26.6667446,38.3432742 C20.2176218,38.3432742 14.9708382,33.0343984 14.9708382,26.5089546 C14.9708382,19.9835108 20.2176218,14.6746351 26.6667446,14.6746351 C33.1158674,14.6746351 38.3626511,19.9835108 38.3626511,26.5089546 C38.3626511,33.0343984 33.1158674,38.3432742 26.6667446,38.3432742 Z" id="Shape"></path>
            </g>
        </g>
    </g>
</svg>