<?xml version="1.0" encoding="UTF-8"?>
<svg width="31px" height="31px" viewBox="0 0 31 31" version="1.1" xmlns="http://www.w3.org/2000/svg" xmlns:xlink="http://www.w3.org/1999/xlink">
    <!-- Generator: Sketch 52.2 (67145) - http://www.bohemiancoding.com/sketch -->
    <title>783196</title>
    <desc>Created with Sketch.</desc>
    <g id="Page-1" stroke="none" stroke-width="1" fill="none" fill-rule="evenodd">
        <g id="Sobre-nosotros-vF" transform="translate(-125.000000, -3383.000000)" fill="#F03E31" fill-rule="nonzero">
            <g id="783196" transform="translate(125.000000, 3383.000000)">
                <path d="M7.13096875,10.5560449 C6.89483594,10.3199121 6.51096875,10.3199121 6.27489648,10.5560449 C6.0381582,10.7927832 6.0381582,11.1760449 6.27489648,11.4121777 C6.5110293,11.648916 6.89489648,11.648916 7.13096875,11.4121777 C7.36764648,11.1760449 7.36764648,10.7927832 7.13096875,10.5560449 Z" id="Shape"></path>
                <path d="M15.3304082,27.1079258 C15.5973594,26.7463398 15.7416426,26.3107051 15.7416426,25.852668 C15.7416426,24.6842344 14.7910566,23.7335879 13.6225625,23.7335879 L3.32995703,23.7335879 C2.76366211,23.7335879 2.23151562,23.9539785 1.83148242,24.3541328 C1.43126758,24.7542266 1.21087695,25.286373 1.21087695,25.852668 C1.21087695,26.3218457 1.36442383,26.7557246 1.62350391,27.1071992 C0.659416016,27.6140977 0,28.6252305 0,29.7880332 L0,30.393502 C0,30.7279023 0.271128906,30.9989707 0.60546875,30.9989707 L16.3470508,30.9989707 C16.6813906,30.9989707 16.9525195,30.7279023 16.9525195,30.393502 L16.9525195,29.7880332 C16.9525195,28.6257754 16.2937695,27.6150664 15.3304082,27.1079258 Z M2.68767578,25.2102656 C2.85908398,25.0387969 3.08722461,24.9444043 3.32995703,24.9444043 L13.6225625,24.9444043 C14.1233457,24.9444043 14.5307051,25.3518242 14.5307051,25.8525469 C14.5307051,26.0953398 14.436252,26.3234199 14.2647832,26.4948887 C14.093375,26.6663574 13.8652344,26.76075 13.622502,26.76075 L3.32995703,26.76075 C2.82917383,26.76075 2.42181445,26.3533301 2.42181445,25.8526074 C2.42181445,25.609875 2.51620703,25.3817344 2.68767578,25.2102656 Z M1.21087695,29.7880332 C1.21087695,28.7865273 2.0257168,27.9716875 3.02722266,27.9716875 L3.32995703,27.9716875 L13.6225625,27.9716875 L13.9252969,27.9716875 C14.9268027,27.9716875 15.7416426,28.7865273 15.7416426,29.7880332 L1.21087695,29.7880332 Z" id="Shape"></path>
                <path d="M30.4364902,25.4371953 C30.230873,25.1185371 29.9855371,24.836752 29.7072031,24.5996504 L26.8781504,22.1321836 C26.8561113,22.0990039 26.8305605,22.0675195 26.8013164,22.0382754 C26.7521523,21.9891719 26.6964492,21.9508457 26.6372344,21.9221465 L24.9263613,20.4299688 L17.0074355,13.5221152 C17.3316035,13.1832344 17.5100957,12.7400918 17.5100957,12.2688555 C17.5100957,11.7833906 17.3211289,11.3271699 16.9776465,10.983748 C16.8278535,10.8341367 16.6575957,10.7164941 16.4756523,10.6303359 L17.2082695,9.89771875 C17.4130391,9.95215039 17.6234395,9.98000195 17.8340215,9.98000195 C18.454082,9.97994141 19.0742031,9.74392969 19.5462266,9.27190625 C20.0038398,8.81435352 20.2558359,8.20616016 20.2558359,7.55933789 C20.2558359,6.91251563 20.0038398,6.30432227 19.5462871,5.84676953 L14.4090059,0.709609375 C13.9514531,0.252056641 13.3431992,6.0546875e-05 12.6961953,6.0546875e-05 C12.0494941,6.0546875e-05 11.4414219,0.252056641 10.9839297,0.709609375 C10.3515781,1.34196094 10.143418,2.23981055 10.3581172,3.04762695 L3.0485957,10.3570879 C2.84661133,10.3033828 2.63645312,10.2750469 2.42175391,10.2750469 C1.77462891,10.2750469 1.16667773,10.5268613 0.709488281,10.9839902 C-0.234800781,11.9282793 -0.234800781,13.4647773 0.709488281,14.409127 L5.84670898,19.5464082 C6.31891406,20.0185527 6.9390957,20.254625 7.55927734,20.254625 C8.17951953,20.254625 8.79970117,20.0185527 9.27190625,19.5464082 C9.90425781,18.9139961 10.112418,18.016207 9.89771875,17.2083906 L10.6288223,16.4772266 C10.7166758,16.6606836 10.8358926,16.8299727 10.9839902,16.9780098 C11.3270488,17.3210684 11.7831484,17.5100352 12.2684922,17.5100352 C12.7392441,17.5100352 13.1822051,17.3318457 13.5215703,17.008041 L21.9561133,26.6988105 C21.9793633,26.7351387 22.0064883,26.7697109 22.0382148,26.8014375 C22.0490527,26.8122754 22.0605566,26.8221445 22.072,26.8319531 L24.5853613,29.7196758 C24.6478457,29.7934219 24.7146289,29.865957 24.7839551,29.9352832 C25.47425,30.6253359 26.3860254,30.9998184 27.3432715,30.9998184 C27.5120156,30.9998184 27.682334,30.9881934 27.8528945,30.9645801 C28.9929316,30.8067949 29.9782109,30.1247949 30.5559492,29.0931973 C31.1888457,27.9626055 31.1417402,26.5272207 30.4364902,25.4371953 Z M11.8402441,1.56586328 C12.0690508,1.33705664 12.3731172,1.21099805 12.6962559,1.21099805 C13.0198184,1.21099805 13.3240664,1.33705664 13.5528125,1.56586328 L18.6900937,6.70308398 C18.9189004,6.93189063 19.0448984,7.23601758 19.0448984,7.55939844 C19.0448984,7.8827793 18.9189004,8.18690625 18.6900332,8.41571289 C18.2180703,8.88779688 17.4499727,8.88779688 16.9780098,8.41571289 L11.8405469,3.27825 C11.8404258,3.27812891 11.8403652,3.27806836 11.8402441,3.27794727 C11.3681602,2.80592383 11.3681602,2.03788672 11.8402441,1.56586328 Z M8.41565234,18.6901543 C7.94350781,19.1622988 7.17510742,19.1623594 6.70296289,18.6901543 L1.56574219,13.5529336 C1.09353711,13.0807285 1.09353711,12.3125098 1.56574219,11.8402441 C1.794125,11.6118008 2.09819141,11.4859844 2.42175391,11.4859844 C2.74525586,11.4859844 3.04914062,11.6117402 3.27746289,11.840002 L8.4155918,16.9781309 C8.88773633,17.4500938 8.88773633,18.2181914 8.41565234,18.6901543 Z M10.9647969,14.4288652 L9.2718457,16.121877 L4.13408008,10.9841113 L10.9839297,4.13414063 L16.1216348,9.27190625 L14.4255957,10.9680059 C14.4200859,10.9732129 14.4146973,10.9782988 14.4088848,10.9840508 L10.9856855,14.4073105 C10.9786016,14.4142734 10.9717598,14.4215391 10.9647969,14.4288652 Z M13.1266836,15.6919336 C13.1254727,15.6931445 13.1243223,15.6942949 13.1231113,15.6955059 L12.6967402,16.121877 C12.5823672,16.2361895 12.430334,16.2991582 12.2684316,16.2991582 C12.1065898,16.2991582 11.9544961,16.2361895 11.8401836,16.1218164 C11.7256895,16.0073828 11.6626602,15.855168 11.6626602,15.6932051 C11.6626602,15.5346934 11.7231465,15.3855664 11.832918,15.2730703 L15.272041,11.8339473 C15.50775,11.6047168 15.888832,11.6075625 16.1217559,11.8402441 C16.2361895,11.9546777 16.2992187,12.1068926 16.2992187,12.2688555 C16.2992187,12.4306973 16.2363711,12.5824883 16.1216953,12.6968613 L15.6978066,13.12075 C15.6949004,13.1235957 15.6919941,13.126502 15.6891484,13.1294082 L13.1266836,15.6919336 Z M14.3804883,16.1505762 L16.1500312,14.3810332 L23.6422227,20.9161602 L20.9082891,23.6501543 L14.3804883,16.1505762 Z M21.7051465,24.5657441 L24.5568437,21.7139863 L25.4715254,22.5118125 L22.5020039,25.4813945 L21.7051465,24.5657441 Z M29.4994668,28.5016543 C29.1086973,29.1993359 28.4480703,29.6597949 27.6869355,29.7651465 C26.9275566,29.8702559 26.1814375,29.6201367 25.6400273,29.0789688 C25.5934668,29.0324688 25.5489043,28.9839707 25.5073691,28.9348066 C25.5054316,28.9325059 25.5034941,28.9302051 25.5014961,28.9279648 L23.2988008,26.3969844 L26.3861465,23.3095781 L28.9139785,25.5145137 C28.9158555,25.516209 28.917793,25.5178438 28.919791,25.5195391 C29.109,25.6804121 29.2768965,25.8736172 29.4193633,26.0943711 C29.8772187,26.8018613 29.9093086,27.7694004 29.4994668,28.5016543 Z" id="Shape"></path>
                <path d="M11.4121172,6.27483594 C11.1756211,6.03840039 10.7923594,6.03840039 10.5558633,6.27483594 L7.98698047,8.84371875 C7.75054492,9.0801543 7.75054492,9.46353711 7.98698047,9.69991211 C8.10522852,9.81816016 8.26016797,9.87725391 8.41510742,9.87725391 C8.57004688,9.87725391 8.72498633,9.81809961 8.84323438,9.69991211 L11.4121172,7.1310293 C11.6485527,6.8946543 11.6485527,6.51133203 11.4121172,6.27483594 Z" id="Shape"></path>
            </g>
        </g>
    </g>
</svg>