<?xml version="1.0" encoding="UTF-8"?>
<svg width="53px" height="56px" viewBox="0 0 53 56" version="1.1" xmlns="http://www.w3.org/2000/svg" xmlns:xlink="http://www.w3.org/1999/xlink">
    <!-- Generator: Sketch 52.2 (67145) - http://www.bohemiancoding.com/sketch -->
    <title>bell</title>
    <desc>Created with Sketch.</desc>
    <g id="Page-1" stroke="none" stroke-width="1" fill="none" fill-rule="evenodd">
        <g id="Sobre-nosotros-vF" transform="translate(-149.000000, -5886.000000)" fill="#F03E31" fill-rule="nonzero">
            <g id="bell" transform="translate(149.000000, 5886.000000)">
                <path d="M52.2711663,35.5656 C52.2260793,35.5427429 47.3004369,33.0856 45.3730803,31.3027429 C45.3730803,31.3027429 45.3618085,31.2913143 45.3505368,31.2913143 C43.5921436,29.7256 42.3636355,27.5313143 41.0673842,25.2113143 C39.3653498,22.1713143 37.6183411,19.0284571 34.5299941,17.3598857 C34.5074506,17.3484571 34.4961789,17.3370286 34.4736354,17.3256 C32.6139092,16.4570286 30.2919285,16.1713143 27.7671691,16.5256 C25.8510842,16.7884571 23.9010713,17.4056 22.1766061,18.2856 L20.5422023,15.7370286 C20.2040497,15.2113143 19.5052012,15.0627429 18.9867006,15.4056 C18.4682001,15.7484571 18.3216673,16.4570286 18.6598199,16.9827429 L20.237865,19.4398857 C16.3717672,22.0913143 14.2640625,25.4170286 13.8244642,29.5770286 C13.8244642,29.6113143 13.8244642,29.6341714 13.8131925,29.6684571 C13.7117467,33.2798857 15.5264986,36.4227429 17.284779,39.4627429 C18.6599326,41.8398857 19.9560712,44.0798857 20.3843977,46.4913143 C20.869083,49.0856 20.2942237,54.5713143 20.282952,54.6170286 C20.237865,55.0513143 20.4294847,55.4627429 20.7901808,55.7027429 C20.9705288,55.8284571 21.1846921,55.8856 21.3988553,55.8856 C21.6017468,55.8856 21.7933666,55.8284571 21.9737146,55.7256 L32.8393442,49.2341714 C33.8650736,50.4113143 35.3866472,51.1770286 36.9534206,51.2570286 L37.0210511,51.2570286 C38.9034334,51.2570286 40.6391704,50.2741714 41.7550737,48.5713143 C42.600455,47.2913143 42.6793573,45.3484571 42.059411,43.7256 L52.3389095,37.5770286 C52.6996056,37.3598857 52.9137688,36.9713143 52.8912253,36.5484571 C52.8685691,36.1256 52.6431341,35.7484571 52.2711663,35.5656 Z M19.2234074,38.3084571 C17.56646,35.4284571 15.9885276,32.7198857 16.0561582,29.7827429 C16.4732129,25.9884571 18.4907436,23.1198857 22.4019284,20.7427429 C25.4677319,18.9256 30.2468415,17.8856 33.4929931,19.3827429 C35.9839373,20.7427429 37.5056236,23.4627429 39.1060995,26.3313143 C40.1769159,28.2513143 41.2814347,30.2170286 42.7242188,31.8627429 L22.0412324,43.9770286 C21.3536556,41.9885714 20.2716802,40.1256 19.2234074,38.3084571 Z M39.8725786,47.3028571 C39.4667956,47.92 38.5650555,48.96 37.0434818,48.9714286 C36.2431875,48.9142857 35.4428932,48.5714286 34.8456032,48.0342857 L40.0755828,44.9028571 C40.3234486,45.8057143 40.2220029,46.7771429 39.8725786,47.3028571 Z M22.7062657,52.64 C22.830255,50.7428571 22.920429,48.0571429 22.6273634,46.2628571 L44.4375249,33.4971429 C45.8577655,34.6285714 47.9429267,35.8514286 49.4420696,36.6628571 L22.7062657,52.64 Z" id="Shape"></path>
                <path d="M9.15807209,25.5998857 C9.15807209,24.9713143 8.65084331,24.4570286 8.03089701,24.4570286 L1.21171321,24.4570286 C0.591766917,24.4570286 0.084538131,24.9713143 0.084538131,25.5998857 C0.084538131,26.2284571 0.591766917,26.7427429 1.21171321,26.7427429 L8.03089701,26.7427429 C8.65084331,26.7427429 9.15807209,26.2284571 9.15807209,25.5998857 Z" id="Shape"></path>
                <path d="M34.5187224,9.2912 C34.8005162,9.2912 35.0935817,9.17691429 35.3077449,8.95977143 L39.8839631,4.3312 C40.3235613,3.88548571 40.3235613,3.16548571 39.8839631,2.71977143 C39.4443648,2.27405714 38.7342445,2.27405714 38.2946462,2.71977143 L33.7184281,7.34834286 C33.2788298,7.79405714 33.2788298,8.51405714 33.7184281,8.95977143 C33.9438631,9.17691429 34.2256569,9.2912 34.5187224,9.2912 Z" id="Shape"></path>
                <path d="M43.7499481,18.6284571 C43.8626656,18.6284571 43.9866549,18.6056 44.1106442,18.5598857 L50.929828,16.2056 C51.515959,15.9998857 51.831568,15.3484571 51.6286765,14.7541714 C51.425785,14.1598857 50.7832952,13.8398857 50.1971642,14.0456 L43.3779804,16.3998857 C42.7918493,16.6056 42.4762403,17.2570286 42.6791318,17.8513143 C42.8482081,18.3313143 43.2765346,18.6284571 43.7499481,18.6284571 Z" id="Shape"></path>
                <path d="M8.44795179,36.4798857 L3.79283143,41.1084571 C3.35323315,41.5427429 3.3419614,42.2741714 3.78155968,42.7198857 C3.99572294,42.9484571 4.28878846,43.0627429 4.58185398,43.0627429 C4.86364776,43.0627429 5.14544153,42.9484571 5.37087654,42.7313143 L10.0259969,38.1027429 C10.4655952,37.6684571 10.4768669,36.9370286 10.0372687,36.4913143 C9.60882941,36.0456 8.88755008,36.0341714 8.44795179,36.4798857 Z" id="Shape"></path>
                <path d="M8.43668004,13.6683429 C8.66211506,13.8854857 8.94390883,13.9997714 9.23697435,13.9997714 C9.53003987,13.9997714 9.82310539,13.8969143 10.0259969,13.6683429 C10.4655952,13.2226286 10.4655952,12.5026286 10.0259969,12.0569143 L5.37087654,7.34834286 C4.93127826,6.90262857 4.22115796,6.90262857 3.78155968,7.34834286 C3.3419614,7.79405714 3.3419614,8.51405714 3.78155968,8.95977143 L8.43668004,13.6683429 Z" id="Shape"></path>
                <path d="M19.6066469,7.23405714 C19.7080927,7.78262857 20.1815062,8.15977143 20.7112785,8.15977143 C20.7901808,8.15977143 20.8578113,8.14834286 20.9254418,8.13691429 C21.5341163,8.02262857 21.9398994,7.41691429 21.8159101,6.79977143 L20.7000068,1.03977143 C20.5872893,0.422628571 19.9898865,0.0112 19.3812119,0.136914286 C18.7725374,0.2512 18.3667544,0.856914286 18.4907436,1.47405714 L19.6066469,7.23405714 Z" id="Shape"></path>
            </g>
        </g>
    </g>
</svg>