<?xml version="1.0" encoding="UTF-8"?>
<svg width="54px" height="35px" viewBox="0 0 54 35" version="1.1" xmlns="http://www.w3.org/2000/svg" xmlns:xlink="http://www.w3.org/1999/xlink">
    <!-- Generator: Sketch 52.2 (67145) - http://www.bohemiancoding.com/sketch -->
    <title>001-letter</title>
    <desc>Created with Sketch.</desc>
    <g id="Page-1" stroke="none" stroke-width="1" fill="none" fill-rule="evenodd">
        <g id="Sobre-nosotros-vF" transform="translate(-150.000000, -5580.000000)" fill="#F03E31" fill-rule="nonzero">
            <g id="001-letter" transform="translate(150.000000, 5580.000000)">
                <path d="M52.8211579,0.0479668675 L1.07357895,0.0479668675 C0.480736842,0.0479668675 0,0.529322289 0,1.12316265 L0,29.4529217 C0,32.4852711 2.46315789,34.952244 5.49105263,34.952244 L48.4037895,34.952244 C51.4315789,34.952244 53.8948421,32.4852711 53.8948421,29.4529217 L53.8948421,1.12316265 C53.8947368,0.529322289 53.414,0.0479668675 52.8211579,0.0479668675 Z M51.7475789,29.4528163 C51.7475789,31.2993825 50.2475789,32.8016416 48.4037895,32.8016416 L5.49105263,32.8016416 C3.64726316,32.8016416 2.14726316,31.2992771 2.14726316,29.4528163 L2.14726316,3.46900602 L26.2672632,23.2444277 C26.4651579,23.4065663 26.7062105,23.4876355 26.9473684,23.4876355 C27.1881053,23.4876355 27.4288421,23.4067771 27.6265263,23.2451657 L46.2903158,7.97704819 C46.7494737,7.6013253 46.8176842,6.92409639 46.4426316,6.46414157 C46.0673684,6.00418675 45.3912632,5.93587349 44.932,6.31170181 L26.9481053,21.023509 L3.98726316,2.19835843 L51.7475789,2.19835843 L51.7475789,29.4528163 Z" id="Shape"></path>
                <path d="M49.4655789,3.99115964 C49.0905263,3.53120482 48.414,3.46289157 47.9550526,3.83861446 L47.6329474,4.10206325 C47.1736842,4.47778614 47.1054737,5.15501506 47.4805263,5.61496988 C47.6926316,5.8751506 48.0013684,6.00998494 48.3126316,6.00998494 C48.5514737,6.00998494 48.7917895,5.93049699 48.9910526,5.76751506 L49.3131579,5.50406627 C49.7724211,5.1284488 49.8406316,4.45111446 49.4655789,3.99115964 Z" id="Shape"></path>
            </g>
        </g>
    </g>
</svg>