<?xml version="1.0" encoding="UTF-8"?>
<svg width="40px" height="44px" viewBox="0 0 40 44" version="1.1" xmlns="http://www.w3.org/2000/svg" xmlns:xlink="http://www.w3.org/1999/xlink">
    <!-- Generator: Sketch 52.2 (67145) - http://www.bohemiancoding.com/sketch -->
    <title>Group</title>
    <desc>Created with Sketch.</desc>
    <g id="Page-1" stroke="none" stroke-width="1" fill="none" fill-rule="evenodd">
        <g id="Group">
            <g id="about-team" fill="#F03E31">
                <path d="M35.4714062,11.649375 C35.9817969,11.02375 36.2885156,10.2257031 36.2885156,9.3571875 L36.2885156,8.64445312 C36.2885156,6.6415625 34.6591406,5.0121875 32.65625,5.0121875 C30.6533594,5.0121875 29.0239844,6.6415625 29.0239844,8.64445312 L29.0239844,9.3571875 C29.0239844,10.2260156 29.3309375,11.024375 29.8417187,11.6500781 C29.2192969,11.8219531 28.6270312,12.0907031 28.0871875,12.4458594 L28.0871875,11.8792969 C28.0871875,9.52195312 26.169375,7.6040625 23.8120312,7.6040625 L23.3075781,7.6040625 C23.9126562,6.8675 24.2764844,5.92554687 24.2764844,4.90015625 L24.2764844,4.26648437 C24.2764062,1.9140625 22.3625,0 20.0099219,0 C17.6573437,0 15.7434375,1.9140625 15.7434375,4.2665625 L15.7434375,4.90023438 C15.7434375,5.925625 16.1072656,6.86757812 16.7123437,7.60414062 L16.2078906,7.60414062 C13.8505469,7.60414062 11.9327344,9.52203125 11.9327344,11.879375 L11.9327344,12.4594531 C11.3875781,12.0977344 10.7884375,11.8241406 10.1583594,11.6501562 C10.6690625,11.024375 10.9760937,10.2260937 10.9760937,9.35726562 L10.9760937,8.64453125 C10.9760937,6.64164062 9.34671875,5.01226562 7.34382812,5.01226562 C5.3409375,5.01226562 3.7115625,6.64164062 3.7115625,8.64453125 L3.7115625,9.35726562 C3.7115625,10.2257812 4.01828125,11.02375 4.52867187,11.6494531 C1.92117187,12.3685938 0,14.7598437 0,17.5928125 L0,23.9870313 C0,25.3457031 1.1053125,26.4510156 2.46398437,26.4510156 L3.119375,26.4510156 L3.119375,39.21875 C3.119375,39.6501563 3.46914062,40 3.900625,40 L7.33328125,40 C7.33492187,40 7.33648437,39.9997656 7.338125,39.9997656 C7.33976562,39.9997656 7.34132812,40 7.34296875,40 L10.775625,40 C11.2071094,40 11.556875,39.6501563 11.556875,39.21875 L11.556875,26.4510156 L12.2235937,26.4510156 C13.5777344,26.4510156 14.68,25.3528906 14.6871875,24.0003125 C14.9404687,24.0970312 15.2051562,24.1700781 15.4786719,24.2172656 L15.4786719,39.21875 C15.4786719,39.6501563 15.8284375,40 16.2599219,40 L23.7599219,40 C24.1914062,40 24.5411719,39.6501563 24.5411719,39.21875 L24.5411719,31.6446875 C24.5411719,31.2132813 24.1914062,30.8634375 23.7599219,30.8634375 C23.3284375,30.8634375 22.9786719,31.2132813 22.9786719,31.6446875 L22.9786719,38.4375 L20.7911719,38.4375 L20.7911719,25.2582812 C20.7911719,24.826875 20.4414062,24.4770312 20.0099219,24.4770312 C19.5784375,24.4770312 19.2286719,24.826875 19.2286719,25.2582812 L19.2286719,38.4375 L17.0411719,38.4375 L17.0411719,21.8403125 L22.9786719,21.8403125 L22.9786719,25.6030469 C22.9786719,26.0344531 23.3284375,26.3842969 23.7599219,26.3842969 C24.1914062,26.3842969 24.5411719,26.0344531 24.5411719,25.6030469 L24.5411719,24.2173437 C24.8075781,24.1713281 25.0657812,24.1011719 25.3130469,24.008125 C25.3244531,25.3570312 26.4249219,26.4510156 27.7764844,26.4510156 L28.4432031,26.4510156 L28.4432031,39.21875 C28.4432031,39.6501563 28.7929687,40 29.2244531,40 L32.6571094,40 C32.65875,40 32.6603125,39.9997656 32.6619531,39.9997656 C32.6635937,39.9997656 32.6651562,40 32.6667969,40 L36.0994531,40 C36.5309375,40 36.8807031,39.6501563 36.8807031,39.21875 L36.8807031,26.4510156 L37.5360937,26.4510156 C38.8947656,26.4510156 40.0000781,25.3457031 40.0000781,23.9870313 L40.0000781,17.5928125 C40,14.7598437 38.0788281,12.3685938 35.4714062,11.649375 Z M5.27398438,8.64445313 C5.27398438,7.50320312 6.2025,6.5746875 7.34375,6.5746875 C8.485,6.5746875 9.41351562,7.50320313 9.41351562,8.64445313 L9.41351562,9.3571875 C9.41351562,10.4984375 8.485,11.4269531 7.34375,11.4269531 C6.2025,11.4269531 5.27398438,10.4984375 5.27398438,9.3571875 L5.27398438,8.64445313 Z M9.994375,38.4375 L8.12421875,38.4375 L8.12421875,26.40625 C8.12421875,25.9748438 7.77445312,25.625 7.34296875,25.625 C6.91148437,25.625 6.56171875,25.9748438 6.56171875,26.40625 L6.56171875,27.2265625 C6.5559375,27.2648438 6.55195312,27.3038281 6.55195312,27.34375 L6.55195312,38.4375 L4.681875,38.4375 L4.681875,23.3589063 L9.994375,23.3589063 L9.994375,38.4375 Z M13.1249219,23.9869531 C13.125,24.4840625 12.720625,24.8885156 12.2235156,24.8885156 L11.5567969,24.8885156 L11.5567969,20.7302344 C11.5567969,20.2988281 11.2070312,19.9489844 10.7755469,19.9489844 C10.3440625,19.9489844 9.99429687,20.2988281 9.99429687,20.7302344 L9.99429687,21.7963281 L4.68179687,21.7963281 L4.68179687,18.2434375 C4.68179687,17.8120313 4.33203125,17.4621875 3.90054687,17.4621875 C3.4690625,17.4621875 3.11929687,17.8120313 3.11929687,18.2434375 L3.11929687,24.8884375 L2.46390625,24.8884375 C1.966875,24.8884375 1.56242188,24.4839844 1.56242188,23.9869531 L1.56242188,17.5927344 C1.56242188,15.0544531 3.6275,12.989375 6.16578125,12.989375 L8.5215625,12.989375 C9.81726562,12.989375 11.0601563,13.5400781 11.9314844,14.5003125 C11.9317969,14.5007031 11.9321875,14.5010156 11.9325781,14.5014063 L11.9325781,20.0055469 C11.9325781,21.1523438 12.3873437,22.1942969 13.1249219,22.9628906 L13.1249219,23.9869531 Z M20.0099219,1.5625 C21.5009375,1.5625 22.7139062,2.77546875 22.7139062,4.26648438 L22.7139062,4.90015625 C22.7139062,6.39109375 21.5009375,7.6040625 20.0099219,7.6040625 C18.5189062,7.6040625 17.3059375,6.39109375 17.3059375,4.90015625 L17.3059375,4.26648438 C17.3059375,2.77546875 18.5189062,1.5625 20.0099219,1.5625 Z M26.5246094,20.0057031 C26.5246094,21.2489063 25.68375,22.2986719 24.5410938,22.6180469 L24.5410938,11.879375 C24.5411719,11.4478906 24.1914062,11.098125 23.7599219,11.098125 C23.3284375,11.098125 22.9786719,11.4479688 22.9786719,11.879375 L22.9786719,20.2778125 L17.0411719,20.2778125 L17.0411719,11.879375 C17.0411719,11.4479688 16.6914063,11.098125 16.2599219,11.098125 C15.8284375,11.098125 15.4786719,11.4479688 15.4786719,11.879375 L15.4786719,22.6179688 C14.3360156,22.2985938 13.4951563,21.2488281 13.4951563,20.005625 L13.4951563,11.879375 C13.4951563,10.3835938 14.7120313,9.16664063 16.2078125,9.16664063 L19.2025781,9.16664063 L19.2025781,11.3015625 C19.2025781,11.7329688 19.5523438,12.0828125 19.9838281,12.0828125 C20.4153125,12.0828125 20.7650781,11.7329688 20.7650781,11.3015625 L20.7650781,9.16664063 L23.8119531,9.16664063 C25.3077344,9.16664063 26.5246094,10.3835156 26.5246094,11.879375 L26.5246094,20.0057031 Z M30.5864844,8.64445313 C30.5864844,7.50320312 31.515,6.5746875 32.65625,6.5746875 C33.7975,6.5746875 34.7260156,7.50320313 34.7260156,8.64445313 L34.7260156,9.3571875 C34.7260156,10.4984375 33.7975,11.4269531 32.65625,11.4269531 C31.515,11.4269531 30.5864844,10.4984375 30.5864844,9.3571875 L30.5864844,8.64445313 Z M35.318125,38.4375 L33.4480469,38.4375 L33.4480469,27.34375 C33.4480469,27.3038281 33.4440625,27.2649219 33.4382812,27.2265625 L33.4382812,26.40625 C33.4382812,25.9748438 33.0885156,25.625 32.6570312,25.625 C32.2255469,25.625 31.8757812,25.9748438 31.8757812,26.40625 L31.8757812,38.4375 L30.005625,38.4375 L30.005625,23.3589063 L35.318125,23.3589063 L35.318125,38.4375 Z M37.5360156,24.8885156 L36.880625,24.8885156 L36.880625,18.2435156 C36.880625,17.8121094 36.5308594,17.4622656 36.099375,17.4622656 C35.6678906,17.4622656 35.318125,17.8121094 35.318125,18.2435156 L35.318125,21.7964062 L30.005625,21.7964062 L30.005625,20.7303125 C30.005625,20.2989062 29.6558594,19.9490625 29.224375,19.9490625 C28.7928906,19.9490625 28.443125,20.2989062 28.443125,20.7303125 L28.443125,24.8885937 L27.7764062,24.8885937 C27.279375,24.8885937 26.8749219,24.4841406 26.8749219,23.9871094 L26.8749219,22.9838281 C27.6242969,22.2133594 28.0871094,21.1628125 28.0871094,20.0057031 L28.0871094,14.4808594 C28.9575781,13.5330469 30.1916406,12.9895312 31.4782812,12.9895312 L33.8340625,12.9895312 C36.3723437,12.9895312 38.4374219,15.0546094 38.4374219,17.5928906 L38.4374219,23.9870313 L38.4375,23.9870313 C38.4375,24.4840625 38.033125,24.8885156 37.5360156,24.8885156 Z" id="Shape" fill-rule="nonzero"></path>
                <path d="M24.3125,28.0195312 C24.1671875,27.8734375 23.965625,27.790625 23.7601562,27.790625 C23.5546875,27.790625 23.353125,27.8735156 23.2078125,28.0195312 C23.0617188,28.1648437 22.9789063,28.3664062 22.9789063,28.571875 C22.9789063,28.7773437 23.0617188,28.9789062 23.2078125,29.1242187 C23.353125,29.2694531 23.5546875,29.353125 23.7601562,29.353125 C23.965625,29.353125 24.1664062,29.2695312 24.3125,29.1242187 C24.4578125,28.9789062 24.5414062,28.7773437 24.5414062,28.571875 C24.5414062,28.3664062 24.4578125,28.1648437 24.3125,28.0195312 Z" id="Shape"></path>
                <path d="M20.5359375,13.66875 C20.390625,13.5234375 20.1898438,13.4398437 19.9835938,13.4398437 C19.778125,13.4398437 19.5765625,13.5233594 19.43125,13.66875 C19.2859375,13.8139844 19.2023438,14.0155469 19.2023438,14.2210937 C19.2023438,14.4265625 19.2859375,14.628125 19.43125,14.7733594 C19.5765625,14.9186719 19.778125,15.0023437 19.9835938,15.0023437 C20.1898438,15.0023437 20.390625,14.91875 20.5359375,14.7733594 C20.6820313,14.628125 20.7648438,14.4265625 20.7648438,14.2210937 C20.7648438,14.0155469 20.6820313,13.8139844 20.5359375,13.66875 Z" id="Shape"></path>
            </g>
        </g>
    </g>
</svg>