<?xml version="1.0" encoding="UTF-8"?>
<svg width="39px" height="39px" viewBox="0 0 39 39" version="1.1" xmlns="http://www.w3.org/2000/svg" xmlns:xlink="http://www.w3.org/1999/xlink">
    <!-- Generator: Sketch 52.2 (67145) - http://www.bohemiancoding.com/sketch -->
    <title>993895</title>
    <desc>Created with Sketch.</desc>
    <g id="Page-1" stroke="none" stroke-width="1" fill="none" fill-rule="evenodd">
        <g id="Sobre-nosotros-vF" transform="translate(-101.000000, -6650.000000)" fill="#F03E31" fill-rule="nonzero">
            <g id="993895" transform="translate(101.000000, 6650.000000)">
                <path d="M38.9097568,34.9171622 C38.909027,34.9131081 38.9082973,34.9091351 38.9075676,34.9050811 L35.0131622,14.5759459 L38.8942703,0.825081081 C38.9538649,0.614594595 38.9031081,0.388216216 38.7593514,0.223297297 C38.6166486,0.0569189189 38.3986216,-0.0248918919 38.1816486,0.00664864865 L19.4594595,2.589 L0.737351351,0.00664864865 C0.382459459,-0.0423243243 0.0550540541,0.205621622 0.00608108108,0.560513514 C-0.00575675676,0.646378378 -0.000324324324,0.733783784 0.0222162162,0.817459459 L4.52156757,17.5284324 L0.663891892,34.8867568 C0.586378378,35.2367027 0.807324324,35.5832432 1.15727027,35.6606757 C1.16594595,35.6626216 1.17462162,35.6643243 1.18337838,35.6658649 L19.3455405,38.9091081 C19.3831622,38.9159189 19.4213514,38.9193243 19.4595405,38.9192432 C19.4965135,38.9192432 19.5333243,38.9160811 19.5697297,38.9097568 L38.3805405,35.6665135 C38.7335676,35.6057027 38.9705676,35.2701892 38.9097568,34.9171622 Z M18.8108108,37.4958649 L2.07713514,34.5079459 L5.82267568,17.6545135 C5.84505405,17.5524324 5.8427027,17.4463784 5.8157027,17.3453514 L1.52918919,1.42491892 L18.8108108,3.80862162 L18.8108108,37.4958649 Z M20.1081081,37.5003243 L20.1081081,3.80862162 L37.3765135,1.42686486 L33.7234054,14.3712973 C33.6955946,14.4683514 33.6910541,14.5705946 33.7101081,14.6696757 L37.5089189,34.5003243 L20.1081081,37.5003243 Z" id="Shape"></path>
                <path d="M16.329,5.8482973 L5.30197297,3.90235135 C5.11313514,3.86789189 4.9187027,3.91994595 4.77243243,4.04424324 C4.62543243,4.16724324 4.54045946,4.34910811 4.54062162,4.54086486 L4.54062162,7.78410811 C4.54062162,8.09878378 4.76659459,8.36805405 5.07648649,8.42262162 L16.1035135,10.3685676 C16.1407297,10.3753784 16.1784324,10.3787838 16.2162973,10.3787027 C16.5743514,10.3782973 16.8645405,10.0881081 16.8649459,9.73005405 L16.8649459,6.48681081 C16.8649459,6.17213514 16.6388919,5.90286486 16.329,5.8482973 Z M15.5675676,8.95662162 L5.83783784,7.23997297 L5.83783784,5.3142973 L15.5675676,7.03094595 L15.5675676,8.95662162 Z" id="Shape"></path>
                <path d="M31.7837838,17.5139189 C31.7410541,17.5139189 31.6984054,17.5181351 31.6564865,17.5265676 L21.9267568,19.4725135 C21.6237568,19.5333243 21.4056486,19.7994324 21.4054054,20.1085135 L21.4054054,23.3517568 C21.4054865,23.709973 21.6958378,24.0003243 22.0540541,24.0004054 C22.0967838,24.0002432 22.1394324,23.996027 22.1813514,23.9877568 L31.9110811,22.0418108 C32.2140811,21.981 32.4321892,21.7148919 32.4324324,21.4058108 L32.4324324,18.1625676 C32.4324324,17.8042703 32.142,17.5138378 31.7837838,17.5139189 Z M31.1351351,20.8742432 L22.7027027,22.5604865 L22.7027027,20.6399189 L31.1351351,18.9536757 L31.1351351,20.8742432 Z" id="Shape"></path>
                <path d="M16.9776486,19.4699189 L12.4371081,18.6685946 C12.2481892,18.6337297 12.0536757,18.6858649 11.9075676,18.8104865 C11.7605676,18.9334865 11.6755946,19.1154324 11.6757568,19.3071081 L11.6757568,22.5503514 C11.6757568,22.865027 11.9017297,23.1342973 12.2116216,23.1888649 L16.7521622,23.9901892 C16.7893784,23.997 16.8270811,24.0004054 16.8649459,24.0003243 C17.223,23.9999189 17.5131892,23.7097297 17.5135946,23.3516757 L17.5135946,20.1084324 C17.5135946,19.7937568 17.2875405,19.5244865 16.9776486,19.4699189 Z M16.2162162,22.5782432 L12.972973,22.0062162 L12.972973,20.0805405 L16.2162162,20.6525676 L16.2162162,22.5782432 Z" id="Shape"></path>
                <path d="M33.0805135,4.38851351 C33.0428919,4.38851351 33.0054324,4.39183784 32.9683784,4.39832432 L28.4278378,5.19964865 C28.1179459,5.25421622 27.8918919,5.52348649 27.891973,5.83816216 L27.891973,9.08140541 C27.8923784,9.43945946 28.1825676,9.72964865 28.5406216,9.73005405 C28.5784054,9.73013514 28.6161892,9.72672973 28.6534054,9.71991892 L33.1939459,8.91859459 C33.5038378,8.86402703 33.7298919,8.59475676 33.7298108,8.28008108 L33.7298108,5.03683784 C33.7294865,4.67854054 33.4388108,4.38827027 33.0805135,4.38851351 Z M32.4324324,7.73594595 L29.1891892,8.30797297 L29.1891892,6.3822973 L32.4324324,5.81027027 L32.4324324,7.73594595 Z" id="Shape"></path>
                <polygon id="Rectangle-path" transform="translate(11.351939, 12.000293) rotate(-79.991356) translate(-11.351939, -12.000293) " points="10.7036023 6.40137734 12.0002753 6.40137734 12.0002753 17.5992088 10.7036023 17.5992088"></polygon>
                <polygon id="Rectangle-path" transform="translate(14.917759, 16.407109) rotate(-79.991356) translate(-14.917759, -16.407109) " points="14.2694224 13.7722484 15.5660953 13.7722484 15.5660953 19.0419688 14.2694224 19.0419688"></polygon>
                <rect id="Rectangle-path" transform="translate(8.973958, 15.243648) rotate(-79.991356) translate(-8.973958, -15.243648) " x="8.32562116" y="13.3771266" width="1.29667295" height="3.73304293"></rect>
                <polygon id="Rectangle-path" transform="translate(14.269758, 33.919137) rotate(-79.991356) translate(-14.269758, -33.919137) " points="13.6214213 31.2842767 14.9180942 31.2842767 14.9180942 36.5539971 13.6214213 36.5539971"></polygon>
                <polygon id="Rectangle-path" transform="translate(8.325908, 32.758043) rotate(-79.991356) translate(-8.325908, -32.758043) " points="7.6775716 30.891522 8.97424455 30.891522 8.97424455 34.624565 7.6775716 34.624565"></polygon>
                <polygon id="Rectangle-path" transform="translate(11.352225, 29.515528) rotate(-79.991356) translate(-11.352225, -29.515528) " points="10.7038883 23.9166121 12.0005612 23.9166121 12.0005612 35.1144435 10.7038883 35.1144435"></polygon>
                <polygon id="Rectangle-path" transform="translate(8.755420, 20.431592) rotate(-78.678830) translate(-8.755420, -20.431592) " points="8.10679937 18.7779337 9.40404085 18.7779337 9.40404085 22.0852509 8.10679937 22.0852509"></polygon>
                <polygon id="Rectangle-path" transform="translate(11.676087, 25.622572) rotate(-79.379993) translate(-11.676087, -25.622572) " points="11.0277436 20.3427412 12.3244304 20.3427412 12.3244304 30.9024035 11.0277436 30.9024035"></polygon>
                <polygon id="Rectangle-path" transform="translate(27.568741, 11.999795) rotate(-10.014286) translate(-27.568741, -11.999795) " points="21.9697284 11.3514474 33.1677546 11.3514474 33.1677546 12.6481429 21.9697284 12.6481429"></polygon>
                <polygon id="Rectangle-path" transform="translate(24.000877, 16.407547) rotate(-10.014286) translate(-24.000877, -16.407547) " points="21.3659707 15.7591995 26.6357827 15.7591995 26.6357827 17.055895 21.3659707 17.055895"></polygon>
                <polygon id="Rectangle-path" transform="translate(29.947745, 15.242620) rotate(-10.008644) translate(-29.947745, -15.242620) " points="28.0812234 14.5942833 31.8142663 14.5942833 31.8142663 15.8909563 28.0812234 15.8909563"></polygon>
                <polygon id="Rectangle-path" transform="translate(24.649119, 33.918864) rotate(-10.014286) translate(-24.649119, -33.918864) " points="22.0142131 33.2705159 27.2840251 33.2705159 27.2840251 34.5672113 22.0142131 34.5672113"></polygon>
                <polygon id="Rectangle-path" transform="translate(30.596460, 32.757866) rotate(-10.014286) translate(-30.596460, -32.757866) " points="28.729906 32.1095184 32.4630138 32.1095184 32.4630138 33.4062139 28.729906 33.4062139"></polygon>
                <polygon id="Rectangle-path" transform="translate(27.568893, 29.514297) rotate(-10.014286) translate(-27.568893, -29.514297) " points="21.9698797 28.8659494 33.1679058 28.8659494 33.1679058 30.1626449 21.9698797 30.1626449"></polygon>
                <polygon id="Rectangle-path" transform="translate(24.971703, 8.107967) rotate(-11.321170) translate(-24.971703, -8.107967) " points="23.318044 7.45934577 26.6253611 7.45934577 26.6253611 8.75658724 23.318044 8.75658724"></polygon>
                <polygon id="Rectangle-path" transform="translate(27.242510, 25.622759) rotate(-10.637958) translate(-27.242510, -25.622759) " points="21.9628653 24.9744439 32.5221551 24.9744439 32.5221551 26.271075 21.9628653 26.271075"></polygon>
            </g>
        </g>
    </g>
</svg>