<?xml version="1.0" encoding="UTF-8"?>
<svg width="39px" height="40px" viewBox="0 0 39 40" version="1.1" xmlns="http://www.w3.org/2000/svg" xmlns:xlink="http://www.w3.org/1999/xlink">
    <!-- Generator: Sketch 52.2 (67145) - http://www.bohemiancoding.com/sketch -->
    <title>information</title>
    <desc>Created with Sketch.</desc>
    <g id="Page-1" stroke="none" stroke-width="1" fill="none" fill-rule="evenodd">
        <g id="Sobre-nosotros-vF" transform="translate(-104.000000, -530.000000)" fill="#F03E31" fill-rule="nonzero">
            <g id="information" transform="translate(104.000000, 530.000000)">
                <path d="M19.1812865,0 C8.61419103,0 0.0174658869,8.59688109 0.0174658869,19.1639766 C0.0174658869,24.0116179 1.82019493,28.6131774 5.10175439,32.1639766 L4.03298246,39.0522417 C3.98947368,39.3330214 4.10729045,39.614269 4.33785575,39.7801949 C4.46861598,39.874308 4.62300195,39.9221053 4.77816764,39.9221053 C4.89668616,39.9221053 5.01567251,39.894269 5.12491228,39.8376608 L11.3035478,36.6379727 C13.7850292,37.7596881 16.4332164,38.3280312 19.1812865,38.3280312 C29.7482261,38.3280312 38.3452632,29.7311501 38.3452632,19.1640546 C38.3452632,8.59688109 29.7483821,0 19.1812865,0 Z M19.1812865,36.8195712 C16.5323197,36.8195712 13.9847173,36.2467057 11.6090448,35.117037 C11.3961014,35.0156725 11.1479142,35.019961 10.9384016,35.1284211 L5.75134503,37.8145809 L6.64881092,32.0307992 C6.68491228,31.7982846 6.61037037,31.5624172 6.44748538,31.3926706 C3.27368421,28.0887329 1.52576998,23.745731 1.52576998,19.1638207 C1.52576998,9.42861598 9.4460039,1.50830409 19.1812865,1.50830409 C28.9165692,1.50830409 36.8368811,9.42853801 36.8368811,19.1638986 C36.8368811,28.8992593 28.9166472,36.8195712 19.1812865,36.8195712 Z" id="Shape"></path>
                <path d="M19.1812865,5.51329435 C16.9796491,5.51329435 15.18846,7.30448343 15.18846,9.50612086 C15.18846,11.7077583 16.9796491,13.4989474 19.1812865,13.4989474 C21.3830799,13.4989474 23.1741131,11.7077583 23.1741131,9.50612086 C23.1741131,7.30432749 21.382924,5.51329435 19.1812865,5.51329435 Z M19.1812865,11.9906433 C17.811306,11.9906433 16.6967641,10.8761014 16.6967641,9.50612086 C16.6967641,8.13614035 17.811306,7.02159844 19.1812865,7.02159844 C20.551345,7.02159844 21.665809,8.13614035 21.665809,9.50612086 C21.665809,10.8761014 20.5512671,11.9906433 19.1812865,11.9906433 Z" id="Shape"></path>
                <path d="M23.6068616,27.8939571 L22.7481481,27.8939571 L22.7481481,15.5281092 C22.7481481,15.1115789 22.4104483,14.7739571 21.9939961,14.7739571 L14.7559454,14.7739571 C14.3394152,14.7739571 14.0017934,15.1116569 14.0017934,15.5281092 L14.0017934,18.034386 C14.0017934,18.4509162 14.3394932,18.788538 14.7559454,18.788538 L15.6146589,18.788538 L15.6146589,27.8939571 L14.7559454,27.8939571 C14.3394152,27.8939571 14.0017934,28.2316569 14.0017934,28.6481092 L14.0017934,31.154386 C14.0017934,31.5709942 14.3394932,31.908616 14.7559454,31.908616 L23.6069396,31.908616 C24.0234698,31.908616 24.3610916,31.5709162 24.3610916,31.1544639 L24.3610916,28.6481871 C24.3610136,28.2316569 24.0233138,27.8939571 23.6068616,27.8939571 Z M22.8526316,30.4003119 L15.5099415,30.4003119 L15.5099415,29.4022612 L16.368655,29.4022612 C16.7851852,29.4022612 17.122807,29.0645614 17.122807,28.6481092 L17.122807,18.034386 C17.122807,17.6178558 16.7851072,17.2802339 16.368655,17.2802339 L15.5099415,17.2802339 L15.5099415,16.2823392 L21.2397661,16.2823392 L21.2397661,28.6482651 C21.2397661,29.0647953 21.5774659,29.4024172 21.9939181,29.4024172 L22.8526316,29.4024172 L22.8526316,30.4003119 Z" id="Shape"></path>
            </g>
        </g>
    </g>
</svg>