<?xml version="1.0" encoding="UTF-8"?>
<svg width="40px" height="40px" viewBox="0 0 40 40" version="1.1" xmlns="http://www.w3.org/2000/svg" xmlns:xlink="http://www.w3.org/1999/xlink">
    <!-- Generator: Sketch 52.2 (67145) - http://www.bohemiancoding.com/sketch -->
    <title>001-customer-support</title>
    <desc>Created with Sketch.</desc>
    <g id="Page-1" stroke="none" stroke-width="1" fill="none" fill-rule="evenodd">
        <g id="Sobre-nosotros-vF" transform="translate(-100.000000, -883.000000)" fill="#F03E31" fill-rule="nonzero">
            <g id="001-customer-support" transform="translate(100.000000, 883.000000)">
                <path d="M0.106994326,3.66639256 L2.76789625,8.33086625 C2.85765107,8.48848688 3.00788091,8.60252196 3.18355951,8.64665572 L5.66604637,9.26836625 L14.18044,17.7976974 L15.1212237,16.8555373 L6.47356609,8.19298246 C6.38846319,8.10745614 6.28174256,8.04687502 6.16489709,8.01754386 L3.77955342,7.41803726 L1.51406522,3.44435305 L3.45638137,1.4986294 L7.42474823,3.77028505 L8.02347853,6.15981361 C8.05248469,6.27713818 8.11323335,6.38432014 8.19833625,6.46957235 L16.8459938,15.1324013 L17.786504,14.1899671 L9.27211033,5.66063593 L8.65148862,3.17516449 C8.60743215,2.99890351 8.49359678,2.848136 8.33625219,2.75794954 L3.67967384,0.0926534737 C3.41998683,-0.0553727719 3.09325744,-0.0115131228 2.88145793,0.199835509 L0.220829702,2.86540568 C0.0068410648,3.07620618 -0.0396781786,3.40405698 0.106994326,3.66639256 Z" id="Shape"></path>
                <polygon id="Shape" points="27.762697 13.1329495 13.1285573 27.7930373 12.1877737 26.8506031 26.822187 12.1907895"></polygon>
                <path d="M10.5672614,28.3116776 C10.4468586,28.1110197 10.2306808,27.9884869 9.99698991,27.9884869 L6.00591068,27.9884869 C5.77249345,27.9884869 5.55604203,28.1110197 5.43591285,28.3116776 L3.44023643,31.6433662 C3.31353982,31.8544408 3.31353982,32.1184211 3.44023643,32.3297698 L5.43591285,35.6614583 C5.55604203,35.8618421 5.77249345,35.9846491 6.00591068,35.9846491 L9.99698991,35.9846491 C10.2306808,35.9846491 10.4468586,35.8618421 10.5672614,35.6614583 L12.5626642,32.3297698 C12.6893608,32.1184211 12.6893608,31.8544408 12.5626642,31.6433662 L10.5672614,28.3116776 Z M9.62073121,34.651864 L6.38244308,34.651864 L4.78601135,31.986568 L6.38244308,29.3209978 L9.62073121,29.3209978 L11.2171629,31.986568 L9.62073121,34.651864 Z" id="Shape"></path>
                <path d="M31.9483363,15.9939693 C36.3416703,16.0087719 39.9154444,12.4528509 39.9302211,8.05180919 C39.9324102,7.38185305 39.8503174,6.71463818 39.6858581,6.06524126 C39.5971979,5.70805923 39.2362631,5.49067986 38.8797066,5.57949558 C38.7625876,5.60882674 38.6558669,5.66940786 38.5704904,5.75466007 L34.4297285,9.89994519 L31.1443739,8.80317979 L30.0487084,5.51288379 L34.1894703,1.36403509 C34.4491572,1.10361839 34.4488835,0.681743439 34.1889229,0.421600842 C34.1032728,0.335800421 33.9954575,0.274945193 33.8775175,0.24588814 C29.6169002,-0.834978105 25.2886931,1.7486294 24.2097198,6.01644737 C24.0458078,6.66392547 23.9639887,7.32949558 23.9661778,7.99753291 C23.9678196,8.52220393 24.0217272,9.04523025 24.1279006,9.55893642 L9.55998249,24.1521382 C9.04717604,24.0460526 8.52506564,23.9920505 8.00158711,23.9901316 C3.59292904,23.9901316 0.0191550263,27.5701754 0.0191550263,31.986568 C0.0191550263,36.4026864 3.59292904,39.9827302 8.00158711,39.9827302 C12.4099716,39.9827302 15.9837456,36.4026864 15.9837456,31.986568 C15.9821037,31.4618969 15.9279225,30.9388706 15.8220228,30.4251645 L19.3095994,26.9314693 L20.834884,28.4594298 C21.0948446,28.7195724 21.5157071,28.7195724 21.7756677,28.4594298 L22.1081436,28.1260965 C22.3998467,27.8358004 22.8713332,27.8358004 23.1630364,28.1260965 C23.4544658,28.4172149 23.4550131,28.8898027 23.1644046,29.1817434 C23.1641309,29.1820175 23.1635836,29.1825658 23.1630364,29.183114 L22.8305604,29.5161733 C22.5708735,29.7763158 22.5708735,30.1981908 22.8305604,30.4583333 L30.7656524,38.4073465 C32.8527255,40.5172698 36.2519155,40.5326206 38.3581436,38.441886 C40.4640981,36.3511513 40.4794221,32.9457236 38.3923489,30.8360745 C38.3811296,30.8245614 38.3696366,30.8130483 38.3581436,30.8015351 L30.4230516,22.8527961 C30.1633647,22.5926535 29.7422285,22.5926535 29.4825416,22.8527961 L29.1500657,23.1858553 C28.8580889,23.4764254 28.3868761,23.4764254 28.0948993,23.1858553 C27.8037435,22.8947368 27.8029225,22.4221491 28.0935311,22.1304825 C28.0940784,22.1299342 28.0946256,22.1296601 28.0948993,22.1291119 L28.4276489,21.7957785 C28.6873358,21.5356359 28.6873358,21.113761 28.4276489,20.8536184 L26.9023643,19.3256579 L30.3899409,15.8319627 C30.9027474,15.9380483 31.4248577,15.9923246 31.9483363,15.9939693 Z M34.561898,38.6502193 C34.0786449,38.6493969 33.5994965,38.5619517 33.147165,38.3917215 L38.3422724,33.1872259 C39.1262588,35.2763158 38.071366,37.6063596 35.9859348,38.3917215 C35.5308669,38.5630483 35.0484347,38.6507676 34.561898,38.6502193 Z M27.0260508,21.3314145 C26.2894046,22.2116228 26.4048818,23.5235746 27.2835486,24.261239 C28.0557684,24.9095395 29.1812609,24.9089912 29.9526598,24.2593201 L37.4176336,31.7439693 C37.4986318,31.8253838 37.5744308,31.9111842 37.6477671,31.9983552 L31.9603765,37.6957236 C31.8730845,37.6225329 31.7874343,37.5466008 31.7061625,37.4651864 L24.2354422,29.9808114 C24.9720884,29.1006031 24.8566112,27.7886513 23.9779444,27.0509868 C23.2057246,26.4024123 22.0799584,26.4032347 21.3085596,27.0526316 L20.2443629,25.986568 L25.9615805,20.267818 L27.0260508,21.3314145 Z M29.7121278,14.629386 L14.6220994,29.7428728 C14.4565456,29.9084429 14.3900504,30.1488487 14.4464207,30.3760965 C15.3590193,33.9662829 13.1934107,37.6178728 9.60923818,38.5317982 C6.02533933,39.4459978 2.38014445,37.2765899 1.46754599,33.6861294 C0.555221086,30.095943 2.7208297,26.4443531 6.30500217,25.5301535 C7.38917471,25.2538378 8.52506564,25.2538378 9.60923818,25.5301535 C9.83608799,25.5858004 10.0755254,25.5191886 10.2413529,25.3544408 L25.327824,10.2406799 C25.4931042,10.0751096 25.5595994,9.83470393 25.5026817,9.60773025 C24.596377,6.05948463 26.7329794,2.44709432 30.2750109,1.53892547 C30.9443411,1.36759867 31.6366572,1.30180919 32.3262368,1.34484646 L28.8173161,4.86129389 C28.6391747,5.03947368 28.5767842,5.30345396 28.6564142,5.54276316 L29.9865915,9.54111846 C30.0530867,9.73985747 30.209063,9.89610744 30.4077276,9.96217109 L34.3990806,11.2949561 C34.637697,11.3747259 34.901215,11.3125 35.0793564,11.1343201 L38.5882771,7.61924344 C38.5962128,7.74643642 38.6003174,7.87225881 38.6003174,7.99753291 C38.6189251,11.6589912 35.6712456,14.6422698 32.0161996,14.6611842 C31.4511274,14.6639255 30.8879706,14.5942982 30.3406852,14.4539474 C30.1138354,14.3972039 29.8738507,14.4635417 29.7085705,14.6291119 L29.7121278,14.6291119 L29.7121278,14.629386 Z" id="Shape"></path>
                <polygon id="Shape" points="34.4149519 33.5142544 33.4741681 34.4566886 26.8224606 27.7933114 27.7629706 26.8508772"></polygon>
            </g>
        </g>
    </g>
</svg>