<?xml version="1.0" encoding="UTF-8"?>
<svg width="45px" height="40px" viewBox="0 0 45 40" version="1.1" xmlns="http://www.w3.org/2000/svg" xmlns:xlink="http://www.w3.org/1999/xlink">
    <!-- Generator: Sketch 52.2 (67145) - http://www.bohemiancoding.com/sketch -->
    <title>1078011</title>
    <desc>Created with Sketch.</desc>
    <g id="Page-1" stroke="none" stroke-width="1" fill="none" fill-rule="evenodd">
        <g id="Sobre-nosotros-vF" transform="translate(-261.000000, -6147.000000)" fill="#F03E31" fill-rule="nonzero">
            <g id="1078011" transform="translate(261.000000, 6147.000000)">
                <path d="M22.5,8.69565217 C22.014885,8.69565217 21.6210938,9.08525817 21.6210938,9.56521739 C21.6210938,10.0451766 22.014885,10.4347826 22.5,10.4347826 C22.985115,10.4347826 23.3789063,10.0451766 23.3789063,9.56521739 C23.3789063,9.08525817 22.985115,8.69565217 22.5,8.69565217 Z" id="Shape"></path>
                <path d="M7.91015625,24.3478261 C8.39527128,24.3478261 8.7890625,23.9582201 8.7890625,23.4782609 C8.7890625,22.9983017 8.39527128,22.6086957 7.91015625,22.6086957 C7.42504122,22.6086957 7.03125,22.9983017 7.03125,23.4782609 C7.03125,23.9582201 7.42504122,24.3478261 7.91015625,24.3478261 Z" id="Shape"></path>
                <path d="M29.53125,0 C21.6186905,0 15.1243973,5.39741843 14.6221161,12.1959918 C7.08652494,12.5699729 0,17.9459918 0,25.2173913 C0,28.2561141 1.21536255,31.2004077 3.42773438,33.533288 C3.86547091,35.3186141 3.33400729,37.2109375 2.01530461,38.515625 C1.76399227,38.7642663 1.68880465,39.1382473 1.82476046,39.4633152 C1.96071627,39.7880435 2.28103638,40 2.63671875,40 C5.14331815,40 7.55893705,39.0275136 9.35382841,37.3138587 C11.1023712,37.9035326 13.3837509,38.2608696 15.46875,38.2608696 C23.3802795,38.2608696 29.8738862,32.8648097 30.3775406,26.0675951 C32.2177505,25.9867527 34.1317749,25.6504756 35.6461716,25.1399457 C37.4410629,26.8536005 39.8566818,27.826087 42.3632812,27.826087 C42.7189636,27.826087 43.0392837,27.6141304 43.1752395,27.2894022 C43.3111954,26.9643343 43.2360077,26.5903532 42.9846954,26.341712 C41.6659927,25.0370244 41.1345291,23.144701 41.5722656,21.359375 C43.7846375,19.0264946 45,16.082201 45,13.0434783 C45,5.48811139 37.3675918,0 29.53125,0 Z M15.46875,36.5217391 C13.394394,36.5217391 11.0306167,36.1188859 9.4472122,35.4955843 C9.10800932,35.3617527 8.72039795,35.4497283 8.47354887,35.7163723 C7.4123383,36.8641304 6.03252413,37.6644022 4.52911377,38.032269 C5.35755155,36.4619565 5.56903837,34.6107337 5.06504057,32.8566576 C5.02521513,32.7184103 4.9514008,32.5920517 4.85012057,32.4891304 C2.85610201,30.457201 1.7578125,27.8746603 1.7578125,25.2173913 C1.7578125,19.0896739 8.03649902,13.9130435 15.46875,13.9130435 C22.4869537,13.9130435 28.6523437,18.7415082 28.6523437,25.2173913 C28.6523437,31.4507473 22.738266,36.5217391 15.46875,36.5217391 Z M40.1498794,20.3152174 C40.0485992,20.4184783 39.9747849,20.544837 39.9349594,20.6827445 C39.4309616,22.4368207 39.6424484,24.2880435 40.4708862,25.858356 C38.9674759,25.4908288 37.5876617,24.6902174 36.5264511,23.5424592 C36.2796021,23.2761549 35.8919907,23.1878397 35.5527878,23.3216712 C34.1805268,23.8617527 32.2229004,24.2357337 30.374794,24.326087 C30.1179886,21.0377038 28.460083,17.9470109 25.6256104,15.6521739 L37.0898438,15.6521739 C37.5753022,15.6521739 37.96875,15.2629077 37.96875,14.7826087 C37.96875,14.3023097 37.5753022,13.9130435 37.0898438,13.9130435 L22.9253769,13.9130435 C20.9303284,12.908288 18.6901474,12.3223505 16.3843918,12.1993886 C16.8894195,6.3590353 22.5930405,1.73913043 29.53125,1.73913043 C36.963501,1.73913043 43.2421875,6.91576087 43.2421875,13.0434783 C43.2421875,15.7007473 42.143898,18.283288 40.1498794,20.3152174 Z" id="Shape"></path>
                <path d="M22.5,22.6086957 L11.4257812,22.6086957 C10.9403228,22.6086957 10.546875,22.9979619 10.546875,23.4782609 C10.546875,23.9585598 10.9403228,24.3478261 11.4257812,24.3478261 L22.5,24.3478261 C22.9854584,24.3478261 23.3789062,23.9585598 23.3789062,23.4782609 C23.3789062,22.9979619 22.9854584,22.6086957 22.5,22.6086957 Z" id="Shape"></path>
                <path d="M22.5,27.826087 L7.91015625,27.826087 C7.42469783,27.826087 7.03125,28.2153532 7.03125,28.6956522 C7.03125,29.1759511 7.42469783,29.5652174 7.91015625,29.5652174 L22.5,29.5652174 C22.9854584,29.5652174 23.3789062,29.1759511 23.3789062,28.6956522 C23.3789062,28.2153532 22.9854584,27.826087 22.5,27.826087 Z" id="Shape"></path>
                <path d="M37.0898437,8.69565217 L26.015625,8.69565217 C25.5301666,8.69565217 25.1367188,9.08491843 25.1367188,9.56521739 C25.1367188,10.0455163 25.5301666,10.4347826 26.015625,10.4347826 L37.0898437,10.4347826 C37.5753022,10.4347826 37.96875,10.0455163 37.96875,9.56521739 C37.96875,9.08491843 37.5753022,8.69565217 37.0898437,8.69565217 Z" id="Shape"></path>
            </g>
        </g>
    </g>
</svg>