<?xml version="1.0" encoding="UTF-8"?>
<svg width="38px" height="49px" viewBox="0 0 38 49" version="1.1" xmlns="http://www.w3.org/2000/svg" xmlns:xlink="http://www.w3.org/1999/xlink">
    <!-- Generator: Sketch 52.2 (67145) - http://www.bohemiancoding.com/sketch -->
    <title>shield</title>
    <desc>Created with Sketch.</desc>
    <g id="Page-1" stroke="none" stroke-width="1" fill="none" fill-rule="evenodd">
        <g id="Sobre-nosotros-vF" transform="translate(-104.000000, -5057.000000)" fill="#F03E31" fill-rule="nonzero">
            <g id="shield" transform="translate(104.000000, 5057.000000)">
                <path d="M37.1842128,7.21504918 C25.3831915,7.21504918 20.0922979,1.16395082 20.0171064,1.07639344 C19.7098723,0.710901639 19.0832766,0.711704918 18.7760426,1.07719672 C18.7242979,1.1382459 13.4908085,7.2142459 1.60974468,7.2142459 C1.16344681,7.2142459 0.801234043,7.57411475 0.801234043,8.01752459 L0.801234043,23.3480984 C0.801234043,31.7287049 4.59314894,39.6932131 10.9448085,44.6518525 C13.5053617,46.6512131 16.2712766,48.097918 19.1665532,48.951 C19.2417447,48.9734918 19.3193617,48.9847377 19.3969787,48.9847377 C19.4745957,48.9847377 19.5514043,48.9734918 19.6274043,48.951 C22.5226809,48.0971148 25.2885957,46.6512131 27.8491489,44.6518525 C34.2008085,39.6924098 37.9927234,31.7287049 37.9927234,23.3480984 L37.9927234,8.01832787 C37.9927234,7.57491803 37.6305106,7.21504918 37.1842128,7.21504918 Z M36.3757021,23.3489016 C36.3757021,31.2403115 32.8150213,38.7324918 26.8498298,43.3899016 C24.5188936,45.2101311 22.0125106,46.5387541 19.3969787,47.3428361 C16.7814468,46.5395574 14.2750638,45.2101311 11.9441277,43.3899016 C5.97893617,38.7332951 2.41825532,31.2403115 2.41825532,23.3489016 L2.41825532,8.81277049 C12.3160426,8.59427869 17.6708085,4.39714754 19.3969787,2.75203279 C21.1231489,4.39795082 26.4779149,8.59427869 36.3757021,8.81277049 L36.3757021,23.3489016 Z" id="Shape"></path>
                <path d="M18.9425957,7.2182623 C16.5049362,8.86418033 12.3427234,10.9848361 6.35893617,11.7431311 C5.95468085,11.794541 5.65229787,12.1359344 5.65229787,12.5399836 L5.65229787,23.3497049 C5.65229787,30.2635246 8.75131915,36.8110492 13.942766,40.8643934 C15.5775745,42.1408033 17.3134468,43.1416885 19.1018723,43.8389344 C19.1972766,43.8758852 19.2967234,43.8943607 19.3969787,43.8943607 C19.497234,43.8943607 19.5974894,43.8758852 19.6920851,43.8389344 C21.4788936,43.1424918 23.2155745,42.1416066 24.852,40.8643934 C30.0426383,36.8110492 33.1416596,30.2635246 33.1416596,23.3497049 L33.1416596,12.5399836 C33.1416596,12.1359344 32.8392766,11.794541 32.4350213,11.7431311 C26.451234,10.9848361 22.2890213,8.86418033 19.8513617,7.2182623 C19.5772766,7.03270492 19.2166809,7.03270492 18.9425957,7.2182623 Z M31.5246383,13.2396393 L31.5246383,23.3489016 C31.5246383,29.7743279 28.6568511,35.8495246 23.8526809,39.6000328 C22.4313191,40.7093607 20.9339574,41.5913607 19.3969787,42.223541 C17.86,41.5905574 16.3626383,40.7093607 14.9420851,39.6000328 C10.1379149,35.8487213 7.26931915,29.7735246 7.26931915,23.3480984 L7.26931915,13.2396393 C12.847234,12.4194918 16.870383,10.471541 19.3969787,8.84570492 C21.9235745,10.471541 25.9467234,12.4194918 31.5246383,13.2396393 Z" id="Shape"></path>
                <path d="M11.8834894,24.3192623 C11.5673617,24.0051803 11.056383,24.0051803 10.7402553,24.3192623 C10.4241277,24.6333443 10.4241277,25.1410164 10.7402553,25.4550984 L17.2083404,31.8813279 C17.3603404,32.0323443 17.5657021,32.1166885 17.7799574,32.1166885 C17.7888511,32.1166885 17.7977447,32.1166885 17.8066383,32.1166885 C18.0305957,32.109459 18.2408085,32.0098525 18.3879574,31.8427705 L29.7071064,18.9903115 C30.0014043,18.6561475 29.9674468,18.1492787 29.6311064,17.8568852 C29.294766,17.5644918 28.7845957,17.5990328 28.4902979,17.9323934 L17.7403404,30.1382131 L11.8834894,24.3192623 Z" id="Shape"></path>
            </g>
        </g>
    </g>
</svg>