<?xml version="1.0" encoding="UTF-8"?>
<svg width="37px" height="35px" viewBox="0 0 37 35" version="1.1" xmlns="http://www.w3.org/2000/svg" xmlns:xlink="http://www.w3.org/1999/xlink">
    <!-- Generator: Sketch 52.2 (67145) - http://www.bohemiancoding.com/sketch -->
    <title>support</title>
    <desc>Created with Sketch.</desc>
    <g id="Page-1" stroke="none" stroke-width="1" fill="none" fill-rule="evenodd">
        <g id="Sobre-nosotros-vF" transform="translate(-275.000000, -5463.000000)" fill="#F03E31" fill-rule="nonzero">
            <g id="support" transform="translate(275.000000, 5463.000000)">
                <path d="M23.4650604,24.2781034 L23.4650604,23.6436207 C23.6446404,23.4987931 23.8173135,23.3401724 23.9830796,23.1746552 C25.3103311,21.715431 26.1460687,19.8775862 26.3728748,17.9194828 C27.5657003,17.7380172 28.6408491,17.0997414 29.3704791,16.1401724 C30.3719829,14.7263793 30.4617729,12.6918966 29.6260353,10.1401724 C29.5769098,9.99301724 29.4796085,9.86663793 29.3497584,9.78155172 L28.9698776,9.52637931 C29.02591,7.22396552 28.2290239,4.98189655 26.7320347,3.22982759 C24.8740726,1.14017241 22.0215136,0.085 18.243427,0.0712068966 C14.4722473,0.0712068966 11.6127814,1.14017241 9.75481929,3.20224138 C8.25783018,4.95431034 7.460944,7.19637931 7.51697641,9.4987931 L7.13709567,9.75396552 C7.00724553,9.83905172 6.90994426,9.96543103 6.86081877,10.1125862 C6.02508115,12.6781034 6.11487114,14.6987931 7.1163749,16.1125862 C7.84324216,17.0788793 8.91839098,17.7244828 10.1139793,17.9125862 C10.341735,19.8737931 11.1800627,21.7142241 12.5106814,23.1746552 C12.6751525,23.3398276 12.8479982,23.4963793 13.0287005,23.6436207 L13.0287005,24.2781034 C10.3833492,24.7884483 -0.177335235,27.2643103 0.00224474981,34.2987931 C0.00224474981,34.6796552 0.311502204,34.9884483 0.692936998,34.9884483 L35.800824,34.9884483 C36.1822588,34.9884483 36.4915162,34.6796552 36.4915162,34.2987931 C36.6710962,27.2643103 26.1104117,24.7884483 23.4650604,24.2781034 Z M9.69956391,16.3746552 C9.11264817,16.1778448 8.60110423,15.8044828 8.23529634,15.3056897 L8.26983096,15.3125862 C7.57913871,14.3056897 7.51697641,12.7815517 8.13169251,10.7677586 L8.63589785,10.4298276 C8.8480267,10.2884483 8.96484003,10.0418966 8.93980244,9.78844828 C8.82359347,7.72724138 9.49503267,5.6987069 10.8184854,4.11258621 C12.3794498,2.34706897 14.8866627,1.46431034 18.243427,1.45051724 C21.6001913,1.43672414 24.1074042,2.34706897 25.6959964,4.11258621 C27.0194491,5.6987069 27.6908883,7.72724138 27.5746793,9.78844828 C27.5496417,10.0418966 27.666455,10.2884483 27.8785839,10.4298276 L28.3827892,10.7677586 C28.9975053,12.7746552 28.9560638,14.3056897 28.2446508,15.3125862 C27.8763391,15.8118103 27.3625504,16.1851724 26.7734763,16.3815517 C27.6066238,15.435 28.0137005,14.1882759 27.8993046,12.9332759 C27.7698862,12.1781897 27.3756736,11.4937931 26.7872901,11.0022414 C26.4902925,4.10568966 21.6485398,3.33327586 19.5626492,3.33327586 C19.1211242,3.33198276 18.6801172,3.36431034 18.243427,3.42982759 C17.8068232,3.36422414 17.3657298,3.33198276 16.9242048,3.33327586 C14.8521281,3.33327586 10.0172823,4.09189655 9.69956391,11.0022414 C9.10738164,11.4898276 8.7083342,12.1718966 8.57373555,12.9263793 C8.45856261,14.1814655 8.86572569,15.4285345 9.69956391,16.3746552 Z M25.4128125,10.7194828 C22.5145815,10.8867241 19.6344812,10.1647414 17.1590402,8.65051724 C16.8788781,8.45405172 16.496839,8.49224138 16.2611403,8.74017241 C14.8797558,10.222931 12.3587291,10.5677586 11.1431107,10.6436207 C11.5160845,5.76775862 14.4722473,4.70568966 16.9587394,4.70568966 C17.3545061,4.70284483 17.7497547,4.73517241 18.1398232,4.80224138 C18.2309946,4.82086207 18.3249287,4.82086207 18.4161001,4.80224138 C18.8061685,4.73534483 19.2014172,4.70301724 19.5971838,4.70568966 C22.0629551,4.70568966 25.0329318,5.79534483 25.3782779,10.7125862 L25.4128125,10.7194828 Z M11.384853,16.5056897 L11.4124807,16.5125862 C11.4139484,16.3425862 11.3524768,16.1780172 11.2398076,16.0505172 C10.2935592,14.9677586 9.85842313,13.9815517 9.97584081,13.1677586 C10.0321322,12.7144828 10.2563482,12.2987069 10.6043708,12.0022414 C11.5160845,12.0022414 14.7485242,11.8298276 16.820601,10.0436207 C19.1541911,11.3831897 21.7955709,12.0960345 24.4872849,12.1125862 C24.9500487,12.1125862 25.4197195,12.1125862 25.910111,12.0367241 C26.2486365,12.3253448 26.4697444,12.7275862 26.531734,13.1677586 C26.6491517,13.9677586 26.2140156,14.9677586 25.2677672,16.0505172 C25.155098,16.1780172 25.0936264,16.3425862 25.0950941,16.5125862 C25.0950941,16.5125862 25.0950941,16.6505172 25.0950941,16.8712069 L21.0752652,19.022931 C20.2775157,18.2687931 19.0184701,18.3031897 18.2631981,19.0997414 C17.5079261,19.8962931 17.5423744,21.1534483 18.3401239,21.9075862 C19.1378735,22.6617241 20.3969191,22.6273276 21.1521911,21.8307759 C21.5021994,21.4616379 21.6971473,20.9725862 21.6968883,20.4643103 C21.6999964,20.4022414 21.6999964,20.3401724 21.6968883,20.2781034 L24.8671657,18.5815517 C24.5950329,19.9414655 23.9548475,21.2008621 23.0161104,22.222931 C21.7916858,23.4 20.1342834,24.0190517 18.4368208,23.9332759 L18.0914747,23.9332759 C16.3976383,24.0172414 14.7438621,23.4012069 13.519092,22.2298276 C11.3365045,20.0574138 11.384853,16.5401724 11.384853,16.5056897 Z M20.3155038,20.4643103 C20.3155038,20.8032759 20.0402629,21.0781034 19.7007877,21.0781034 C19.3613124,21.0781034 19.0860716,20.8032759 19.0860716,20.4643103 C19.0860716,20.1253448 19.3613124,19.8505172 19.7007877,19.8505172 C20.0402629,19.8505172 20.3155038,20.1253448 20.3155038,20.4643103 Z M17.5527348,33.5677586 L1.40435001,33.5677586 C1.94999689,28.3884483 10.3833492,26.222931 13.0217936,25.6643103 L13.0217936,26.8987931 C13.0217936,28.4643103 14.9281042,29.6574138 17.5527348,29.8574138 L17.5527348,33.5677586 Z M14.4031781,26.8987931 L14.4031781,26.8781034 L14.4031781,24.5194828 C15.5512813,25.0511207 16.8054058,25.3152586 18.070754,25.2918966 L18.4161001,25.2918966 C19.6814483,25.3152586 20.9355727,25.0511207 22.0836759,24.5194828 L22.0836759,26.8987931 C22.0836759,27.5539655 20.5848737,28.4987931 18.243427,28.4987931 C15.9019803,28.4987931 14.4031781,27.5539655 14.4031781,26.8987931 Z M18.9341193,33.5884483 L18.9341193,29.8505172 C21.5587498,29.6712069 23.4650604,28.4712069 23.4650604,26.8918966 L23.4650604,25.685 C26.1242256,26.2367241 34.5161364,28.4022414 35.082504,33.5884483 L18.9341193,33.5884483 Z" id="Shape"></path>
            </g>
        </g>
    </g>
</svg>