<?xml version="1.0" encoding="UTF-8"?>
<svg width="63px" height="93px" viewBox="0 0 63 93" version="1.1" xmlns="http://www.w3.org/2000/svg" xmlns:xlink="http://www.w3.org/1999/xlink">
    <!-- Generator: Sketch 52.2 (67145) - http://www.bohemiancoding.com/sketch -->
    <title>Group</title>
    <desc>Created with Sketch.</desc>
    <g id="Page-1" stroke="none" stroke-width="1" fill="none" fill-rule="evenodd">
        <g id="Group">
            <g id="about-advantage3" transform="translate(0.000000, 11.000000)" fill="#F03E31">
                <path d="M57.5675227,26.767566 C56.1366591,25.3692091 54.7851818,24.0481924 54.0038864,22.692021 C53.1767727,21.2562723 52.6845455,19.3620746 52.1633636,17.3565006 C51.2409545,13.8073169 50.2872045,10.1371692 47.2385455,8.36569331 C44.7836136,6.93905282 41.8813182,7.3788058 38.9729773,8.10890441 L39.3476364,4.34559681 C39.4580455,3.23646691 39.0942045,2.12653805 38.3498182,1.30024347 C37.6054318,0.473789098 36.5419091,0 35.4324091,0 L27.5680682,0 C26.4584091,0 25.3950455,0.473789098 24.6503409,1.30024347 C23.9057955,2.12669784 23.5421136,3.23662671 23.6525227,4.34559681 L24.0271818,8.10890441 C21.1191591,7.3788058 18.2168636,6.93905282 15.7616136,8.36569331 C12.7131136,10.137329 11.7592045,13.8073169 10.8367955,17.3565006 C10.3154545,19.3620746 9.82322727,21.2562723 8.99627273,22.692021 C8.21497727,24.0483522 6.86334091,25.3692091 5.43263636,26.7677258 C2.9015,29.2414961 0.0329318182,32.0450812 0.0329318182,35.739997 C0.0329318182,39.4349128 2.90165909,42.2386577 5.43263636,44.712428 C6.8635,46.110785 8.21497727,47.4318016 8.99627273,48.787973 C9.82338636,50.2237217 10.3156136,52.1179194 10.8367955,54.1234934 C11.31725,55.9726291 11.80725,57.8540432 12.5966591,59.4833025 L5.90911364,76.184488 C5.73395455,76.6218441 5.81,77.1200817 6.10718182,77.4847315 C6.40436364,77.8493813 6.87575,78.0224382 7.33711364,77.9364691 L13.1677955,76.8489113 L15.5213864,81.1454514 C15.74825,81.5596374 16.1811364,81.8145087 16.6479091,81.8145087 C16.6738409,81.8145087 16.6997727,81.8138695 16.7257045,81.8121118 C17.2215909,81.7819108 17.6560682,81.467596 17.8414091,81.0046729 L25.004,63.1170172 C25.2553636,63.0499037 25.5065682,62.9819913 25.7571364,62.9140789 C27.7168182,62.3832433 29.7434773,61.8345108 31.5001591,61.8345108 C33.2568409,61.8345108 35.2833409,62.3834031 37.2431818,62.9140789 C37.49375,62.9819913 37.7447955,63.0497439 37.9961591,63.1170172 L45.1589091,81.0048327 C45.3444091,81.4677558 45.7787273,81.7822303 46.2746136,81.8122716 C46.3007045,81.8138695 46.3266364,81.8146685 46.3524091,81.8146685 C46.8190227,81.8146685 47.2520682,81.5599569 47.4789318,81.1456112 L49.8325227,76.8490711 L55.6632045,77.9366288 C56.1247273,78.0227578 56.5959545,77.8495411 56.8931364,77.4848913 C57.1903182,77.1200817 57.2662045,76.6218441 57.0912045,76.1846478 L50.4031818,59.4834623 C51.19275,57.854203 51.6824318,55.9727889 52.1630455,54.1236532 C52.6843864,52.1180792 53.1766136,50.2238815 54.0035682,48.7881328 C54.7848636,47.4318016 56.1365,46.1109447 57.5672045,44.712428 C60.0986591,42.2384979 62.9672273,39.4349128 62.9672273,35.739997 C62.9672273,32.0450812 60.0985,29.2413363 57.5675227,26.767566 Z M26.5572045,3.03400796 C26.8189091,2.74366233 27.1778182,2.58354878 27.56775,2.58354878 L35.4320909,2.58354878 C35.8220227,2.58354878 36.1809318,2.74350254 36.4426364,3.03400796 C36.7043409,3.32435359 36.8271591,3.69907043 36.7881818,4.08880791 L36.3175909,8.81439476 C34.6546136,9.25494671 32.9814545,9.64548316 31.5,9.64548316 C30.0185455,9.64548316 28.3453864,9.25494671 26.68225,8.81439476 L26.2116591,4.08864811 C26.173,3.69907043 26.2955,3.32435359 26.5572045,3.03400796 Z M16.4671818,77.5125357 L14.9733182,74.7854919 C14.7060455,74.2974811 14.1578182,74.0366974 13.6116591,74.1381666 L9.16904545,74.9670178 L14.3507955,62.0265832 C14.7652273,62.439331 15.2310455,62.8058983 15.7616136,63.1143007 C16.9379318,63.7978993 18.2170227,64.05325 19.5503636,64.05325 C20.3343636,64.05325 21.1374545,63.9642448 21.9491364,63.8229869 L16.4671818,77.5125357 Z M53.8311136,74.9670178 L49.3885,74.1381666 C48.8428182,74.0365376 48.2942727,74.2974811 48.027,74.7854919 L46.5331364,77.5125357 L41.0515,63.8228271 C43.2432955,64.2040955 45.3706591,64.1997811 47.2390227,63.1139811 C47.7694318,62.8057386 48.2354091,62.4388516 48.6498409,62.0262636 L53.8311136,74.9670178 Z M55.7739318,42.860416 C54.2808636,44.3198142 52.7370455,45.8287486 51.7777273,47.4941213 C50.77625,49.2325198 50.2164091,51.3873414 49.6748636,53.4707351 C48.8493409,56.6466401 48.0697955,59.6464521 45.9507045,60.8779842 C43.9332727,62.0502327 41.0088636,61.2582938 37.9127955,60.4196951 C35.7911591,59.845076 33.5976136,59.2509621 31.5001591,59.2509621 C29.4027045,59.2509621 27.2091591,59.845076 25.0875227,60.4196951 C21.9914545,61.2582938 19.0672045,62.0502327 17.0496136,60.8779842 C14.9305227,59.6466119 14.1508182,56.6466401 13.3254545,53.4708949 C12.7839091,51.3873414 12.2240682,49.2326796 11.2225909,47.4941213 C10.2634318,45.8289084 8.71945455,44.3198142 7.22638636,42.8607356 C4.84988636,40.5381303 2.60527273,38.3441592 2.60527273,35.7401568 C2.60527273,33.1361544 4.85004545,30.9423431 7.22638636,28.6197378 C8.71945455,27.1603396 10.2632727,25.6514052 11.2225909,23.9860325 C12.2240682,22.247634 12.7839091,20.0928124 13.3254545,18.0094187 C14.1509773,14.8335137 14.9305227,11.8337017 17.0496136,10.6021696 C17.7811136,10.1771177 18.6316136,10.0102928 19.5664318,10.0102928 C21.21,10.0102928 23.114,10.5259479 25.0875227,11.0604587 C27.2091591,11.6350778 29.4027045,12.2291917 31.5001591,12.2291917 C33.5976136,12.2291917 35.7911591,11.6350778 37.9127955,11.0606185 C41.0088636,10.2221796 43.9334318,9.43024069 45.9507045,10.6023294 C48.0697955,11.8337017 48.8495,14.8336735 49.6748636,18.0094187 C50.2164091,20.0929722 50.77625,22.247634 51.7777273,23.9861923 C52.7368864,25.6514052 54.2808636,27.1604994 55.7739318,28.619578 C58.1504318,30.9421833 60.3950455,33.1361544 60.3950455,35.7401568 C60.3950455,38.3439994 58.1502727,40.5378107 55.7739318,42.860416 Z" id="Shape" fill-rule="nonzero"></path>
                <path d="M45.9962045,19.314456 C45.486,18.8596824 44.7118636,18.880136 44.2293409,19.3646313 C43.7024318,19.8938689 43.7382273,20.7548388 44.2953636,21.251798 C48.4080227,24.9200282 50.9545909,30.3225023 50.7837273,36.3063068 C50.4930682,46.4872595 42.2842955,54.7701796 32.1495682,55.1063861 C21.0079545,55.4758297 11.8642045,46.3001408 12.2180227,35.1123263 C12.5373182,25.015585 20.6453864,16.7933867 30.6943636,16.3795203 C33.4588864,16.2655872 36.1020227,16.7408145 38.5114545,17.6887123 C38.9869773,17.875831 39.5267727,17.7698876 39.88775,17.4073151 L39.9071591,17.3878202 C40.5533864,16.7388969 40.3311364,15.6316846 39.4807955,15.2954781 C36.8311364,14.2478689 33.93075,13.7050488 30.8970455,13.7875025 C19.4294545,14.0995801 9.75036364,23.9967387 9.63693182,35.5188422 C9.51411364,47.9768588 19.7748409,58.1046002 32.2412045,57.6883369 C43.6698182,57.3067489 52.9464091,48.0094568 53.3503409,36.5311369 C53.5910455,29.6873213 50.6949545,23.5023362 45.9962045,19.314456 Z" id="Shape"></path>
                <path d="M31.5001591,18.9464505 C22.2808409,18.9464505 14.7805,26.4799369 14.7805,35.739997 C14.7805,36.453477 15.3564091,37.0317714 16.0665909,37.0317714 C16.7769318,37.0317714 17.3526818,36.4533172 17.3526818,35.739997 C17.3526818,27.9046599 23.6991364,21.5301591 31.5,21.5301591 C32.2103409,21.5301591 32.7860909,20.951705 32.7860909,20.2383847 C32.78625,19.5249047 32.2103409,18.9464505 31.5001591,18.9464505 Z" id="Shape"></path>
                <path d="M46.9335682,34.4482226 C46.2232273,34.4482226 45.6474773,35.0266768 45.6474773,35.739997 C45.6474773,43.5754939 39.3010227,49.9498349 31.5001591,49.9498349 C30.7898182,49.9498349 30.2140682,50.528289 30.2140682,51.2416093 C30.2140682,51.9550893 30.7899773,52.5333837 31.5001591,52.5333837 C40.7194773,52.5333837 48.2198182,44.9998973 48.2198182,35.7398372 C48.2196591,35.0266768 47.6439091,34.4482226 46.9335682,34.4482226 Z" id="Shape"></path>
            </g>
        </g>
    </g>
</svg>