<?xml version="1.0" encoding="UTF-8"?>
<svg width="29px" height="42px" viewBox="0 0 29 42" version="1.1" xmlns="http://www.w3.org/2000/svg" xmlns:xlink="http://www.w3.org/1999/xlink">
    <!-- Generator: Sketch 52.2 (67145) - http://www.bohemiancoding.com/sketch -->
    <title>002-padlock</title>
    <desc>Created with Sketch.</desc>
    <g id="Page-1" stroke="none" stroke-width="1" fill="none" fill-rule="evenodd">
        <g id="Sobre-nosotros-vF" transform="translate(-107.000000, -2558.000000)" fill="#F03E31" fill-rule="nonzero">
            <g id="002-padlock" transform="translate(107.000000, 2558.000000)">
                <path d="M28.0070746,17.6667661 L25.9346567,17.6667661 L25.9346567,11.1905085 C25.9346567,5.0200678 20.847393,0 14.5943582,0 L14.3827015,0 C8.12966667,0 3.04240299,5.0200678 3.04240299,11.1905085 L3.04240299,17.6667661 L0.970129353,17.6667661 C0.492134328,17.6667661 0.104457711,18.049322 0.104457711,18.5210034 L0.104457711,41.1232678 C0.104457711,41.5949492 0.492134328,41.9775051 0.970129353,41.9775051 C1.44826866,41.9775051 1.835801,41.5949492 1.835801,41.1232678 L1.835801,19.3752407 L3.90821891,19.3752407 L25.0691294,19.3752407 L27.1415473,19.3752407 L27.1415473,40.2690305 L11.1700498,40.2690305 C10.6920547,40.2690305 10.3043781,40.6515864 10.3043781,41.1232678 C10.3043781,41.5949492 10.6920547,41.9775051 11.1700498,41.9775051 L28.0070746,41.9775051 C28.4850697,41.9775051 28.8727463,41.5949492 28.8727463,41.1232678 L28.8727463,18.5210034 C28.8727463,18.0491797 28.4852139,17.6667661 28.0070746,17.6667661 Z M4.77374627,17.6667661 L4.77374627,11.1905085 C4.77374627,5.96214915 9.08421393,1.70847458 14.3827015,1.70847458 L14.5943582,1.70847458 C19.8928458,1.70847458 24.2033134,5.96214915 24.2033134,11.1905085 L24.2033134,17.6667661 L4.77374627,17.6667661 Z" id="Shape"></path>
                <path d="M14.488602,25.5415525 C14.966597,25.5415525 15.3542736,25.1589966 15.3542736,24.6873153 C15.3542736,24.2156339 14.966597,23.833078 14.488602,23.833078 C12.432199,23.833078 10.7591443,25.4840339 10.7591443,27.5132746 C10.7591443,29.5425153 12.432199,31.1934712 14.488602,31.1934712 C16.545005,31.1934712 18.2180597,29.5425153 18.2180597,27.5132746 C18.2180597,27.0415932 17.8303831,26.6590373 17.3523881,26.6590373 C16.874393,26.6590373 16.4867164,27.0415932 16.4867164,27.5132746 C16.4867164,28.6004339 15.5904577,29.4849966 14.488602,29.4849966 C13.3867463,29.4849966 12.4904876,28.6004339 12.4904876,27.5132746 C12.4904876,26.4261153 13.3868905,25.5415525 14.488602,25.5415525 Z" id="Shape"></path>
            </g>
        </g>
    </g>
</svg>