<?xml version="1.0" encoding="UTF-8"?>
<svg width="53px" height="53px" viewBox="0 0 53 53" version="1.1" xmlns="http://www.w3.org/2000/svg" xmlns:xlink="http://www.w3.org/1999/xlink">
    <!-- Generator: Sketch 52.2 (67145) - http://www.bohemiancoding.com/sketch -->
    <title>002-contact</title>
    <desc>Created with Sketch.</desc>
    <g id="Page-1" stroke="none" stroke-width="1" fill="none" fill-rule="evenodd">
        <g id="Sobre-nosotros-vF" transform="translate(-153.000000, -5729.000000)" fill="#F03E31" fill-rule="nonzero">
            <g id="002-contact" transform="translate(153.000000, 5729.000000)">
                <path d="M16.6961387,36.5410156 C16.5035996,36.3484766 16.2365293,36.2376113 15.9642832,36.2376113 C15.6920371,36.2376113 15.4249668,36.348373 15.2324277,36.5410156 C15.0398887,36.7334512 14.929127,37.0005215 14.929127,37.2727676 C14.929127,37.5451172 15.0398887,37.8121875 15.2324277,38.004623 C15.4249668,38.1971621 15.6920371,38.3079238 15.9642832,38.3079238 C16.2365293,38.3079238 16.5035996,38.1972656 16.6961387,38.004623 C16.8886777,37.8121875 16.9994395,37.5451172 16.9994395,37.2727676 C16.9994395,37.0005215 16.8886777,36.7334512 16.6961387,36.5410156 Z" id="Shape"></path>
                <path d="M51.2639395,37.6850703 L43.7802773,30.2014082 C42.6633438,29.0844746 41.1784121,28.4693848 39.5987637,28.4693848 C38.0191152,28.4693848 36.5342871,29.0844746 35.4173535,30.2014082 L32.8076211,32.8110371 C32.8075176,32.8111406 32.8074141,32.8112441 32.8073105,32.8113477 C32.807207,32.8114512 32.8071035,32.8115547 32.807,32.8116582 L31.7644941,33.8540605 L19.1352773,21.2248437 L22.7880332,17.5721914 C25.0936367,15.2664844 25.0936367,11.5148711 22.7880332,9.20916406 L15.3107891,1.73202344 C13.0051855,-0.573373047 9.25357227,-0.573373047 6.94786523,1.73202344 L4.97558203,3.70420312 C-1.65324805,10.3331367 -1.65324805,21.1191543 4.97558203,27.7480879 L12.2477617,35.0202676 C12.6519902,35.4243926 13.3074512,35.4243926 13.7117832,35.0202676 C14.1160117,34.6160391 14.1160117,33.9605781 13.7117832,33.5562461 L6.43960352,26.2840664 C1.08204883,20.9266152 0.655253906,12.4771523 5.15870117,6.62655273 L13.0197813,14.4877363 C13.2219473,14.6897988 13.4868438,14.7909336 13.7517402,14.7909336 C14.0166367,14.7909336 14.2816367,14.6897988 14.4836992,14.4877363 C14.8879277,14.0835078 14.8880313,13.4280469 14.4836992,13.0237148 L6.53390625,5.07381836 L8.4117832,3.19594141 C9.91027539,1.69765625 12.3483789,1.69744922 13.8468711,3.19594141 L21.3240117,10.673082 C22.8225039,12.1715742 22.8225039,14.6096777 21.3240117,16.1081699 L16.9392969,20.4927812 C16.7452051,20.6869766 16.6360996,20.9502168 16.6360996,21.2247402 C16.6360996,21.4992637 16.7452051,21.7625039 16.9392969,21.9566992 L31.0325352,36.0499375 C31.4368672,36.4542695 32.0923281,36.454166 32.4964531,36.0499375 L33.5392695,35.0072246 L46.3700313,47.8379863 C43.7727207,49.842877 40.6049355,50.9296875 37.2697656,50.9296875 C33.2815156,50.9296875 29.5319727,49.3765391 26.711793,46.5563594 L19.3360977,39.1806641 C18.9319727,38.7765391 18.2764082,38.7765391 17.8721797,39.1806641 C17.4679512,39.5848926 17.4679512,40.2403535 17.8721797,40.6446855 L25.247875,48.0203809 C28.4590332,51.2315391 32.7285352,53 37.2697656,53 C41.8110996,53 46.0806016,51.2315391 49.2917598,48.0203809 L51.2639395,46.0480977 C52.380873,44.9312676 52.9959629,43.4462324 52.9959629,41.866584 C52.9959629,40.2870391 52.380873,38.8021074 51.2639395,37.6850703 Z M49.8000215,44.5840762 L47.922041,46.4620566 L35.003291,33.5433066 L36.8812715,31.6653262 C37.607123,30.9393711 38.5721992,30.5395937 39.5987637,30.5395937 C40.6253281,30.5395937 41.5904043,30.9393711 42.3162559,31.6653262 L49.799918,39.1490918 C50.525873,39.8749434 50.9256504,40.840123 50.9256504,41.866584 C50.9256504,42.8931484 50.5259766,43.8583281 49.8000215,44.5840762 Z" id="Shape"></path>
                <path d="M16.9973691,15.5376953 C16.8048301,15.3441211 16.5377598,15.2343945 16.2655137,15.2343945 C15.9932676,15.2343945 15.7261973,15.3441211 15.5336582,15.5376953 C15.3411191,15.7302344 15.2303574,15.996373 15.2303574,16.2695508 C15.2303574,16.5417969 15.3411191,16.8088672 15.5336582,17.0014063 C15.7261973,17.1939453 15.9932676,17.304707 16.2655137,17.304707 C16.5377598,17.304707 16.8048301,17.1939453 16.9973691,17.0014063 C17.1899082,16.8088672 17.3006699,16.5417969 17.3006699,16.2695508 C17.3006699,15.9973047 17.1899082,15.7302344 16.9973691,15.5376953 Z" id="Shape"></path>
            </g>
        </g>
    </g>
</svg>