<?xml version="1.0" encoding="UTF-8"?>
<svg width="68px" height="79px" viewBox="0 0 68 79" version="1.1" xmlns="http://www.w3.org/2000/svg" xmlns:xlink="http://www.w3.org/1999/xlink">
    <!-- Generator: Sketch 52.2 (67145) - http://www.bohemiancoding.com/sketch -->
    <title>Group 8</title>
    <desc>Created with Sketch.</desc>
    <g id="Page-1" stroke="none" stroke-width="1" fill="none" fill-rule="evenodd" stroke-linecap="round">
        <g id="Sobre-nosotros-vF" transform="translate(-125.000000, -2051.000000)" stroke="#F03E31" stroke-width="2.5">
            <g id="Group-8" transform="translate(127.000000, 2053.000000)">
                <g id="Group-17-Copy" stroke-linejoin="round">
                    <path d="M45.3615313,29.3732752 C45.3615313,29.3732752 45.6959501,37.807924 39.8721997,41.020776 L39.8721997,42.5676147 C39.8721997,44.5096756 38.8373257,46.3058083 37.1542873,47.2786628 L31.88628,50.3249135 L26.6170567,47.2786628 C24.9352344,46.3058083 23.8991444,44.5096756 23.8991444,42.5676147 L23.8991444,41.020776 C18.0753939,37.807924 18.4098127,29.3732752 18.4098127,29.3732752" id="Stroke-1"></path>
                    <path d="M23.8985363,42.5671283 C23.8985363,42.5671283 21.2207542,46.1083188 19.9487469,50.6600619 L25.7056136,56.5519122 L31.885672,51.1671623 L38.0645143,56.5519122 L43.8225971,50.6600619 C42.5505898,46.1083188 39.8728077,42.5671283 39.8728077,42.5671283" id="Stroke-3"></path>
                    <path d="M20.8727155,48.0168162 L5.22799863,53.3103609 C2.10270346,54.3683402 0.000121606816,57.3002805 0.000121606816,60.5994734 L0.000121606816,75.1618897" id="Stroke-5"></path>
                    <path d="M42.8985069,48.0168162 L58.5432238,53.3103609 C61.668519,54.3683402 63.7711008,57.3002805 63.7711008,60.5994734 L63.7711008,75.1618897" id="Stroke-7"></path>
                    <polyline id="Stroke-9" points="27.6620241 54.8477142 30.1914458 59.9661451 26.644175 74.8277141"></polyline>
                    <polyline id="Stroke-11" points="36.1091983 54.8477142 33.5797766 59.9661451 37.1282635 74.8277141"></polyline>
                    <path d="M45.3615313,31.5821414 C45.3615313,31.5821414 49.511972,31.2477227 49.9132745,26.4272285 C50.315793,21.6079503 46.5301728,23.3311189 46.5301728,23.3311189 C47.6769251,20.5973977 47.5346451,18.8985505 47.6526038,15.7659589 C47.6526038,12.9580945 52.0555379,15.0425519 50.7687682,12.758888 C48.0653289,7.96102358 43.9975828,-0.000364820448 31.88628,-0.000364820448 C28.853041,-0.000364820448 24.5309341,1.1605464 18.9199595,3.48236884 C19.2109444,5.26964776 19.2109444,6.37309203 18.9199595,6.79270165 C13.8580696,8.69992971 14.3042689,15.3687302 15.2576947,18.6673763 C16.2111205,21.9660225 16.0944189,20.5973977 17.2411712,23.3311189 C17.2411712,23.3311189 13.455551,21.6079503 13.8580696,26.4272285 C14.259372,31.2477227 18.4098127,31.5821414 18.4098127,31.5821414" id="Stroke-13"></path>
                </g>
                <path d="M20.2813533,20.7767259 L20.2813533,13.4507777 C29.1097639,10.062218 36.6972958,10.062218 43.0439489,13.4507777" id="Path-3" fill-rule="nonzero"></path>
            </g>
        </g>
    </g>
</svg>