<?xml version="1.0" encoding="UTF-8"?>
<svg width="65px" height="72px" viewBox="0 0 65 72" version="1.1" xmlns="http://www.w3.org/2000/svg" xmlns:xlink="http://www.w3.org/1999/xlink">
    <!-- Generator: Sketch 52.2 (67145) - http://www.bohemiancoding.com/sketch -->
    <title>Group</title>
    <desc>Created with Sketch.</desc>
    <g id="Page-1" stroke="none" stroke-width="1" fill="none" fill-rule="evenodd">
        <g id="Group">
            <g id="about-advantage2" transform="translate(0.000000, 9.000000)" fill="#F03E31" fill-rule="nonzero">
                <path d="M65,37.6490305 C65,36.0073171 64.352666,34.4775183 63.239541,33.3465915 C64.504375,31.9507317 65.14625,30.0767378 64.970166,28.1318049 C64.655957,24.6597622 61.552207,21.9389817 57.909541,21.9389817 L41.182959,21.9389817 C42.00625,19.4011829 43.333418,14.7491707 43.333418,11.0121951 C43.333418,5.08712195 38.342002,0.0854085366 35.208418,0.0854085366 C32.394502,0.0854085366 30.382168,1.68076829 30.298252,1.74901829 C29.975918,2.0112622 29.7918359,2.40193902 29.7918359,2.81707317 L29.7918359,12.077561 L21.9918359,29.1261037 L21.6668359,29.2900061 L21.6668359,28.7682073 C21.6668359,28.0142561 21.060127,27.402311 20.312627,27.402311 L6.77079102,27.402311 C3.03875,27.402439 0,30.4674146 0,34.2316646 L0,56.0853659 C0,59.8496159 3.03875,62.9145915 6.77079102,62.9145915 L14.895791,62.9145915 C17.82625,62.9145915 20.325957,61.0297134 21.27125,58.4017683 C23.524541,59.5709817 26.557959,60.1856159 28.440166,60.1856159 L53.3,60.1856159 C56.249375,60.1856159 58.827666,58.177811 59.434375,55.4133659 C59.745791,53.9901037 59.564375,52.5559573 58.946875,51.3102988 C60.945625,50.2941037 62.291709,48.2152317 62.291709,45.8441524 C62.291709,44.877128 62.072334,43.9510793 61.655293,43.1124878 C63.653916,42.0962927 65,40.0174207 65,37.6490305 Z M18.958291,56.0853659 C18.958291,58.3445305 17.132832,60.1829268 14.895791,60.1829268 L6.77079102,60.1829268 C4.52829102,60.1829268 2.70829102,58.3445305 2.70829102,56.0853659 L2.70829102,34.2316646 C2.70829102,31.9725 4.53095703,30.1341037 6.77079102,30.1341037 L6.77079102,30.1478049 L18.952832,30.1478049 L18.952832,31.5137012 C18.952832,31.5218963 18.958291,31.5274024 18.958291,31.5355976 L18.958291,56.0853659 Z M59.285459,41.0227317 C58.762793,41.0827866 58.32125,41.4406829 58.156084,41.9460915 C57.990918,42.4486829 58.12625,43.0059512 58.510918,43.3693537 C59.201543,44.0276524 59.580752,44.9073476 59.580752,45.8469695 C59.580752,47.5679451 58.291543,49.0184817 56.5799609,49.2151646 C56.0572949,49.2752195 55.615752,49.6331159 55.4505859,50.1385244 C55.2854199,50.6411159 55.420752,51.1983841 55.8054199,51.5617866 C56.6991699,52.4113902 57.0566699,53.602372 56.7885449,54.8234451 C56.4554199,56.3450488 54.9874609,57.4513902 53.2974609,57.4513902 L28.4375,57.4513902 C26.425166,57.4513902 23.186084,56.5745122 21.666709,55.4353902 L21.666709,32.3522927 L23.619375,31.368878 C23.892959,31.229561 24.112334,31.0000976 24.242334,30.7187744 L32.367334,12.9626341 C32.448584,12.7850305 32.491875,12.5883476 32.491875,12.3916646 L32.491875,3.57371341 C33.055166,3.25960976 34.032959,2.83064634 35.200166,2.83064634 C36.684375,2.83064634 40.616875,6.55392073 40.616875,11.0257683 C40.616875,15.8307988 38.025,22.763872 37.997959,22.83225 C37.840918,23.2502012 37.895,23.7228293 38.149668,24.0916098 C38.404209,24.4603902 38.818584,24.6816585 39.265459,24.6816585 L57.901543,24.6816585 C60.160293,24.6816585 62.077793,26.3097988 62.267334,28.3913598 C62.410918,29.9484329 61.674209,31.429061 60.341709,32.2567683 C59.924668,32.5135061 59.680918,32.980628 59.699834,33.4723354 C59.716084,33.9640427 59.997793,34.4065793 60.43375,34.6333537 C61.576709,35.2234024 62.28625,36.3816037 62.28625,37.6546646 C62.283584,39.3755122 60.994375,40.8260488 59.285459,41.0227317 Z" id="Shape"></path>
            </g>
        </g>
    </g>
</svg>