<svg width="235" height="125" xmlns="http://www.w3.org/2000/svg"><g fill="#333" fill-rule="evenodd"><path d="M54.353 58.531l-3.13.248c-.31-1.612-.936-2.867-1.876-3.767-.94-.899-2.217-1.348-3.829-1.348-2.335 0-3.994.77-4.975 2.31-.982 1.54-1.473 3.714-1.473 6.525 0 1.467.15 2.728.45 3.782.3 1.054.713 1.917 1.24 2.588.527.672 1.147 1.168 1.86 1.488.713.32 1.472.481 2.278.481 1.943 0 3.446-.393 4.51-1.178 1.065-.785 1.866-2.005 2.403-3.658l2.821.713a13.4 13.4 0 0 1-1.147 2.945 9.012 9.012 0 0 1-1.953 2.48c-.806.723-1.798 1.297-2.976 1.72-1.178.424-2.573.636-4.185.636-1.632 0-3.167-.238-4.603-.713-1.437-.475-2.687-1.199-3.751-2.17-1.065-.971-1.907-2.196-2.527-3.673-.62-1.478-.93-3.22-.93-5.224 0-2.087.305-3.9.915-5.44.61-1.54 1.43-2.811 2.464-3.813a10.055 10.055 0 0 1 3.58-2.248 12.38 12.38 0 0 1 4.294-.744c1.57 0 2.93.191 4.077.574 1.147.382 2.05.873 2.712 1.472l.713-1.55h3.038v7.564zM63.34 70.22c-.04.9.81 1.35 2.55 1.35V74H55.3v-2.43c1.7 0 2.55-.45 2.55-1.35v-7.71c0-.92-.85-1.38-2.55-1.38v-2.4h8.04v11.49zM63.61 53.87c0 .42-.08.815-.24 1.185-.16.37-.375.695-.645.975s-.59.5-.96.66c-.37.16-.765.24-1.185.24-.42 0-.81-.08-1.17-.24a3.164 3.164 0 0 1-1.62-1.635c-.16-.37-.24-.765-.24-1.185 0-.42.08-.81.24-1.17.16-.36.38-.675.66-.945.28-.27.6-.485.96-.645.36-.16.75-.24 1.17-.24.42 0 .815.08 1.185.24.37.16.69.375.96.645s.485.585.645.945c.16.36.24.75.24 1.17zM85.931 70.22c0 .9.86 1.35 2.58 1.35V74h-9.75v-2.43c1.14 0 1.71-.45 1.71-1.35v-4.74c0-1.26-.17-2.18-.51-2.76-.34-.58-.82-.87-1.44-.87-.84 0-1.62.33-2.34.99-.72.66-1.25 1.56-1.59 2.7v4.68c0 .9.56 1.35 1.68 1.35V74h-9.72v-2.43c1.7 0 2.55-.45 2.55-1.35v-7.74c0-.9-.84-1.35-2.52-1.35v-2.4h8.01v3.06a7.16 7.16 0 0 1 2.7-2.49c1.1-.58 2.38-.87 3.84-.87 1.56 0 2.75.355 3.57 1.065.82.71 1.23 1.845 1.23 3.405v7.32zM105.012 68.78c-.12.7-.34 1.39-.66 2.07a6.32 6.32 0 0 1-1.305 1.83c-.55.54-1.23.98-2.04 1.32-.81.34-1.765.51-2.865.51-1.3 0-2.495-.155-3.585-.465-1.09-.31-2.025-.79-2.805-1.44-.78-.65-1.385-1.48-1.815-2.49-.43-1.01-.645-2.225-.645-3.645 0-1.22.18-2.34.54-3.36.36-1.02.9-1.9 1.62-2.64.72-.74 1.61-1.315 2.67-1.725 1.06-.41 2.29-.615 3.69-.615 1.02 0 1.96.1 2.82.3.86.2 1.605.495 2.235.885.63.39 1.12.88 1.47 1.47.35.59.525 1.275.525 2.055 0 .7-.195 1.295-.585 1.785-.39.49-1.005.735-1.845.735-.76 0-1.335-.2-1.725-.6a1.99 1.99 0 0 1-.585-1.44c0-.5.175-.95.525-1.35.35-.4.805-.62 1.365-.66-.56-.74-1.57-1.11-3.03-1.11-1.26 0-2.285.48-3.075 1.44s-1.185 2.37-1.185 4.23c0 2.12.345 3.65 1.035 4.59s1.695 1.41 3.015 1.41c.92 0 1.73-.26 2.43-.78.7-.52 1.13-1.36 1.29-2.52l2.52.21zM122.833 66.29c0 2.7-.75 4.745-2.25 6.135-1.5 1.39-3.64 2.085-6.42 2.085-1.12 0-2.185-.12-3.195-.36-1.01-.24-1.895-.655-2.655-1.245-.76-.59-1.365-1.39-1.815-2.4-.45-1.01-.675-2.295-.675-3.855 0-5.68 2.88-8.52 8.64-8.52 1.14 0 2.22.125 3.24.375s1.91.685 2.67 1.305c.76.62 1.36 1.455 1.8 2.505.44 1.05.66 2.375.66 3.975zm-8.43-5.49c-1.08 0-1.875.385-2.385 1.155-.51.77-.765 2.055-.765 3.855 0 1.24.06 2.255.18 3.045s.3 1.41.54 1.86c.24.45.545.755.915.915.37.16.815.24 1.335.24 1.16 0 1.97-.42 2.43-1.26.46-.84.69-2.23.69-4.17 0-1.14-.065-2.075-.195-2.805s-.32-1.305-.57-1.725c-.25-.42-.555-.71-.915-.87-.36-.16-.78-.24-1.26-.24zM140.334 50.967c2.046 0 3.817.134 5.313.403 1.497.269 2.73.79 3.699 1.566.969.775 1.69 1.88 2.164 3.316.474 1.437.71 3.312.71 5.627 0 2.397-.236 4.376-.71 5.937-.474 1.56-1.195 2.8-2.164 3.72-.97.92-2.202 1.56-3.699 1.921-1.496.362-3.267.543-5.313.543h-12.952v-2.542c1.916 0 2.874-.475 2.874-1.426V54.935c0-.95-.958-1.426-2.874-1.426v-2.542h12.952zm-3.52 3.162v16.709h4.037c.947 0 1.722-.176 2.325-.527.603-.351 1.072-.889 1.405-1.612.334-.723.566-1.643.695-2.759.13-1.116.194-2.439.194-3.968 0-1.53-.065-2.8-.194-3.813-.13-1.013-.36-1.819-.695-2.418-.333-.6-.802-1.018-1.405-1.256-.603-.237-1.378-.356-2.325-.356h-4.038zM163.084 70.22c0 .9.85 1.35 2.55 1.35V74h-10.59v-2.43c1.7 0 2.55-.45 2.55-1.35v-7.71c0-.92-.85-1.38-2.55-1.38v-2.4h8.04v11.49zM183.315 70.61c0 .84.29 1.26.87 1.26a.68.68 0 0 0 .63-.375c.14-.25.21-.545.21-.885v-1.53h1.74v.96c0 .84-.125 1.525-.375 2.055-.25.53-.575.955-.975 1.275-.4.32-.85.54-1.35.66-.5.12-1 .18-1.5.18-1.24 0-2.155-.285-2.745-.855-.59-.57-.985-1.295-1.185-2.175-.18.44-.44.86-.78 1.26s-.76.755-1.26 1.065c-.5.31-1.08.555-1.74.735-.66.18-1.4.27-2.22.27-1.86 0-3.215-.385-4.065-1.155-.85-.77-1.275-1.795-1.275-3.075 0-.8.14-1.46.42-1.98.28-.52.665-.945 1.155-1.275.49-.33 1.075-.59 1.755-.78.68-.19 1.42-.37 2.22-.54.8-.17 1.65-.345 2.55-.525.9-.18 1.81-.42 2.73-.72v-.93c0-.42-.06-.83-.18-1.23s-.31-.755-.57-1.065c-.26-.31-.595-.56-1.005-.75-.41-.19-.895-.285-1.455-.285-.84 0-1.54.075-2.1.225a4.88 4.88 0 0 0-1.5.675c.48.04.895.18 1.245.42.35.24.525.63.525 1.17 0 .62-.205 1.115-.615 1.485-.41.37-1.015.555-1.815.555-1.6 0-2.4-.78-2.4-2.34 0-.56.165-1.1.495-1.62.33-.52.81-.975 1.44-1.365.63-.39 1.405-.7 2.325-.93.92-.23 1.97-.345 3.15-.345.92 0 1.84.085 2.76.255.92.17 1.74.46 2.46.87s1.305.97 1.755 1.68c.45.71.675 1.605.675 2.685v6.99zm-5.16-4.89c-.94.4-1.775.73-2.505.99s-1.35.52-1.86.78-.895.555-1.155.885c-.26.33-.39.775-.39 1.335 0 .52.18.95.54 1.29.36.34.93.51 1.71.51.84 0 1.575-.22 2.205-.66.63-.44 1.115-.99 1.455-1.65v-3.48zM202.136 63.98l-2.43.21c-.26-1.2-.835-2.055-1.725-2.565-.89-.51-1.945-.765-3.165-.765-.74 0-1.315.125-1.725.375-.41.25-.615.585-.615 1.005 0 .52.26.91.78 1.17.52.26 1.17.48 1.95.66.78.18 1.63.36 2.55.54.92.18 1.77.45 2.55.81.78.36 1.43.85 1.95 1.47s.78 1.45.78 2.49c0 .82-.16 1.53-.48 2.13-.32.6-.745 1.1-1.275 1.5-.53.4-1.145.695-1.845.885-.7.19-1.42.285-2.16.285-1.4 0-2.48-.095-3.24-.285-.76-.19-1.38-.415-1.86-.675l-.42-.18c-.14-.06-.28-.09-.42-.09-.38 0-.62.35-.72 1.05h-2.43v-5.43c.4-.04.8-.07 1.2-.09l1.2-.06c.12.54.365 1.02.735 1.44.37.42.825.775 1.365 1.065.54.29 1.135.51 1.785.66.65.15 1.305.225 1.965.225.72 0 1.28-.15 1.68-.45.4-.3.6-.68.6-1.14 0-.48-.18-.84-.54-1.08-.36-.24-.84-.43-1.44-.57-.6-.14-1.285-.27-2.055-.39a21.19 21.19 0 0 1-2.355-.51c-1.5-.4-2.565-.975-3.195-1.725-.63-.75-.945-1.725-.945-2.925 0-1.38.48-2.49 1.44-3.33.96-.84 2.32-1.26 4.08-1.26.72 0 1.37.065 1.95.195.58.13 1.085.28 1.515.45.43.17.8.32 1.11.45.31.13.555.195.735.195.24 0 .425-.075.555-.225.13-.15.235-.405.315-.765h2.25v5.25z"/><path fill-rule="nonzero" d="M158.225 55.697l1.766 1.91 4.744-3.392-2.208-2.685z"/></g></svg>