<svg width="235" height="125" xmlns="http://www.w3.org/2000/svg"><g fill-rule="nonzero" fill="none"><g fill="gray"><path d="M3.924 80.27v-4.794h4.001v.572H4.627v1.451h3.035v.572H4.627v1.627h3.386v.572h-4.09zM10.74 80.27v-4.794h.748v4.222h2.726v.572H10.74zM20.327 80.27v-4.794h1.891c.44 0 .748.044.967.088.308.044.572.176.792.352.308.22.528.484.66.835.132.352.22.704.22 1.144 0 .352-.044.703-.132.967-.088.264-.22.528-.396.704-.132.176-.308.308-.484.44a2.318 2.318 0 0 1-.66.22 5.414 5.414 0 0 1-.88.088h-1.978v-.044zm.748-.572h1.187c.352 0 .66-.044.836-.088a.869.869 0 0 0 .483-.264c.176-.132.308-.352.396-.616.088-.263.132-.571.132-.923 0-.484-.088-.88-.264-1.144a1.368 1.368 0 0 0-.704-.527 4.318 4.318 0 0 0-.923-.088h-1.143v3.65zM27.76 80.27v-4.794h.747v4.794zM30.881 80.27l2.111-4.794h.792l2.243 4.794h-.836l-.66-1.452h-2.286l-.616 1.452h-.748zm1.584-1.98h1.847l-.572-1.319a11.497 11.497 0 0 1-.396-1.011c-.088.308-.176.616-.308.923l-.571 1.408zM38.358 80.27v-4.794h2.462c.484 0 .88.044 1.1.132.264.088.44.22.615.44.132.22.22.44.22.703 0 .352-.132.616-.396.88-.263.22-.66.396-1.187.44l.44.22c.22.176.396.395.616.615l.967 1.32h-.923l-.748-1.012a5.613 5.613 0 0 0-.528-.66c-.132-.131-.264-.263-.352-.307a3.03 3.03 0 0 0-.351-.132c-.088 0-.22-.044-.396-.044h-.836v2.11h-.703v.089zm.747-2.683h1.583c.352 0 .572-.044.792-.088a.806.806 0 0 0 .44-.308.743.743 0 0 0 .132-.44c0-.22-.088-.395-.264-.571-.176-.132-.484-.22-.88-.22H39.15v1.627h-.044zM45.746 80.27v-4.794h.747v4.794zM49.308 77.939c0-.792.264-1.407.747-1.847.484-.44 1.144-.66 1.891-.66.528 0 .968.088 1.364.308.396.22.703.484.923.88.22.395.308.791.308 1.275 0 .484-.132.923-.352 1.32-.22.395-.527.659-.967.879-.396.176-.88.308-1.32.308-.527 0-.967-.088-1.407-.308a2.54 2.54 0 0 1-.923-.88 3.313 3.313 0 0 1-.264-1.275zm.747 0c0 .572.176 1.011.528 1.363.352.352.792.484 1.363.484.528 0 1.012-.176 1.364-.484.352-.352.527-.791.527-1.407 0-.396-.087-.748-.22-1.012a1.213 1.213 0 0 0-.66-.66c-.307-.175-.615-.22-.967-.22-.527 0-.967.133-1.319.485-.44.22-.616.747-.616 1.45zM61.094 80.27v-4.794h1.89c.44 0 .748.044.968.088.308.044.572.176.792.352.308.22.528.484.66.835.131.352.22.704.22 1.144 0 .352-.045.703-.133.967-.088.264-.22.528-.395.704-.132.176-.308.308-.484.44a2.318 2.318 0 0 1-.66.22 5.414 5.414 0 0 1-.88.088h-1.978v-.044zm.703-.572h1.188c.352 0 .66-.044.835-.088a.869.869 0 0 0 .484-.264c.176-.132.308-.352.396-.616.088-.263.132-.571.132-.923 0-.484-.088-.88-.264-1.144a1.368 1.368 0 0 0-.704-.527 4.318 4.318 0 0 0-.923-.088h-1.144v3.65zM68.394 80.27v-4.794h4.002v.572H69.14v1.451h3.035v.572H69.14v1.627h3.387v.572h-4.134zM79.08 80.27v-4.794h.748v4.222h2.726v.572H79.08zM84.885 77.939c0-.792.264-1.407.748-1.847.484-.44 1.143-.66 1.89-.66.529 0 .968.088 1.364.308.396.22.704.484.924.88.22.395.308.791.308 1.275 0 .484-.132.923-.352 1.32-.22.395-.528.659-.968.879-.396.176-.88.308-1.32.308-.527 0-.967-.088-1.406-.308a2.54 2.54 0 0 1-.924-.88 3.313 3.313 0 0 1-.264-1.275zm.748 0c0 .572.176 1.011.528 1.363.351.352.791.484 1.363.484.528 0 1.011-.176 1.363-.484.352-.352.528-.791.528-1.407 0-.396-.088-.748-.22-1.012a1.213 1.213 0 0 0-.66-.66c-.307-.175-.615-.22-.967-.22-.528 0-.968.133-1.32.485-.44.22-.615.747-.615 1.45zM92.581 78.73l.704-.044c.044.22.088.44.22.572.132.132.308.264.571.352.264.088.528.132.836.132.264 0 .528-.044.748-.088a1.31 1.31 0 0 0 .483-.308c.088-.132.176-.264.176-.396a.71.71 0 0 0-.132-.396c-.088-.131-.263-.22-.483-.263a8.694 8.694 0 0 0-.968-.22c-.484-.088-.88-.22-1.055-.308-.264-.132-.44-.264-.572-.44-.132-.176-.176-.396-.176-.616 0-.263.088-.483.22-.66.176-.22.396-.351.704-.483.307-.088.66-.176 1.011-.176.396 0 .748.044 1.1.176.307.132.571.264.703.484.176.22.264.484.264.747l-.704.044a1.037 1.037 0 0 0-.395-.703c-.22-.176-.528-.22-.968-.22-.44 0-.748.088-.967.22a.574.574 0 0 0-.308.527c0 .176.088.308.22.44s.527.22 1.099.352c.572.132 1.012.22 1.231.308.308.132.572.308.704.484s.22.44.22.66c0 .263-.088.483-.264.703a1.75 1.75 0 0 1-.704.528c-.307.132-.66.176-1.055.176-.484 0-.924-.044-1.231-.176-.352-.132-.616-.308-.792-.572-.352-.22-.44-.528-.44-.836zM103.532 80.27v-4.794h.747v4.222h2.727v.572h-3.474zM109.556 80.27v-4.794h4.002v.572h-3.254v1.451h3.034v.572h-3.034v1.627h3.386v.572h-4.134zM120.33 78.598l.748.176c-.132.528-.44.924-.835 1.188-.396.264-.88.396-1.451.396-.572 0-1.056-.088-1.452-.308-.351-.22-.66-.528-.835-.924-.176-.396-.308-.835-.308-1.275 0-.484.088-.924.308-1.32.22-.351.528-.66.923-.835.396-.176.836-.308 1.32-.308.571 0 1.011.132 1.407.352.396.264.616.572.791 1.011l-.703.132c-.132-.351-.308-.615-.572-.747-.264-.176-.528-.22-.923-.22-.44 0-.792.088-1.056.264-.264.176-.484.396-.616.703a2.297 2.297 0 0 0-.175.924c0 .396.088.747.22 1.055.131.308.351.528.615.66.308.132.616.22.924.22.395 0 .747-.088 1.055-.308.352-.132.528-.44.616-.836zM125.08 80.27v-4.222h-1.803v-.572h4.354v.572h-1.803v4.222zM129.786 77.939c0-.792.264-1.407.747-1.847.484-.44 1.144-.66 1.891-.66.528 0 .968.088 1.364.308.396.22.703.484.923.88.22.395.308.791.308 1.275 0 .484-.132.923-.352 1.32-.22.395-.527.659-.967.879-.396.176-.88.308-1.32.308-.527 0-.967-.088-1.407-.308a2.54 2.54 0 0 1-.923-.88 3.313 3.313 0 0 1-.264-1.275zm.747 0c0 .572.176 1.011.528 1.363.352.352.792.484 1.363.484.528 0 1.012-.176 1.364-.484.352-.308.527-.791.527-1.407 0-.396-.087-.748-.22-1.012a1.213 1.213 0 0 0-.66-.66c-.307-.175-.615-.22-.967-.22-.527 0-.967.133-1.319.485-.44.22-.616.747-.616 1.45zM137.702 80.27v-4.794h2.462c.484 0 .88.044 1.1.132.264.088.44.22.616.44.131.22.22.44.22.703 0 .352-.133.616-.396.88-.264.22-.66.396-1.188.44l.44.22c.22.176.396.395.616.615l.967 1.32h-.923l-.748-1.012a5.613 5.613 0 0 0-.528-.66c-.132-.131-.264-.263-.351-.307-.088-.044-.22-.088-.352-.132-.088 0-.22-.044-.396-.044h-.792v2.11h-.747v.089zm.747-2.683h1.584c.351 0 .571-.044.791-.088a.806.806 0 0 0 .44-.308.743.743 0 0 0 .132-.44c0-.22-.088-.395-.264-.571-.176-.132-.484-.22-.88-.22h-1.759v1.627h-.044zM145.002 80.27v-4.794h4.002v.572h-3.254v1.451h3.034v.572h-3.034v1.627h3.386v.572h-4.134zM151.598 78.73l.704-.044c.044.22.088.44.22.572.132.132.308.264.572.352.264.088.527.132.835.132.264 0 .528-.044.748-.088a1.31 1.31 0 0 0 .484-.308c.088-.132.176-.264.176-.396a.71.71 0 0 0-.132-.396c-.088-.131-.264-.22-.484-.263a8.694 8.694 0 0 0-.968-.22c-.483-.088-.88-.22-1.055-.308-.264-.132-.44-.264-.572-.44-.132-.176-.176-.396-.176-.616 0-.263.088-.483.22-.66.176-.22.396-.351.704-.483.308-.088.66-.176 1.011-.176.396 0 .748.044 1.1.176.308.132.571.264.703.484.176.22.264.484.264.747l-.703.044a1.037 1.037 0 0 0-.396-.703c-.22-.176-.528-.22-.968-.22-.44 0-.747.088-.967.22a.574.574 0 0 0-.308.527c0 .176.088.308.22.44s.528.22 1.1.352c.571.132 1.01.22 1.23.308.308.132.572.308.704.484s.22.44.22.66c0 .263-.088.483-.264.703a1.75 1.75 0 0 1-.703.528c-.308.132-.66.176-1.056.176-.484 0-.923-.044-1.231-.176-.352-.132-.616-.308-.792-.572-.352-.22-.44-.528-.44-.836zM162.68 80.27v-4.794h.748v4.794zM166.419 80.27v-4.794h.747l2.903 3.738v-3.738h.703v4.794h-.747l-2.903-3.782v3.782zM173.763 80.27v-4.794h3.694v.572h-2.99v1.495h2.594v.572h-2.594v2.155zM180.096 80.27v-4.794h.747v4.222h2.727v.572h-3.474zM189.77 75.476h.748v2.77c0 .484-.044.88-.176 1.144a1.677 1.677 0 0 1-.66.704c-.307.176-.747.264-1.275.264-.527 0-.923-.088-1.275-.22-.308-.176-.572-.396-.704-.66a3.01 3.01 0 0 1-.22-1.187v-2.77h.748v2.77c0 .395.044.703.132.923.088.176.22.352.44.44a2.1 2.1 0 0 0 .791.176c.528 0 .924-.088 1.144-.308.22-.22.352-.616.352-1.231v-2.815h-.044zM195.004 80.27v-2.023l-2.111-2.77h.88l1.099 1.45c.22.264.396.528.572.792.176-.264.351-.528.615-.836l1.056-1.407h.835l-2.199 2.77v2.024h-.747zM200.325 80.27v-4.794h4.002v.572h-3.254v1.451h3.034v.572h-3.034v1.627h3.386v.572h-4.134zM207.141 80.27v-4.794h.748l2.903 3.738v-3.738h.703v4.794h-.747l-2.903-3.782v3.782zM215.849 80.27v-4.222h-1.803v-.572h4.354v.572h-1.803v4.222zM220.906 80.27v-4.794h4.002v.572h-3.254v1.451h3.034v.572h-3.034v1.627h3.386v.572h-4.134zM227.503 78.73l.704-.044c.043.22.087.44.22.572.131.132.307.264.571.352.264.088.528.132.836.132.264 0 .527-.044.747-.088a1.31 1.31 0 0 0 .484-.308c.088-.132.176-.264.176-.396a.71.71 0 0 0-.132-.396c-.088-.131-.264-.22-.484-.263a8.694 8.694 0 0 0-.967-.22c-.484-.088-.88-.22-1.056-.308-.264-.132-.44-.264-.571-.44-.132-.176-.176-.396-.176-.616 0-.263.088-.483.22-.66.175-.22.395-.351.703-.483.308-.088.66-.176 1.012-.176.395 0 .747.044 1.1.176.307.132.57.264.703.484.176.22.264.484.264.747l-.704.044a1.037 1.037 0 0 0-.396-.703c-.22-.176-.528-.22-.967-.22-.44 0-.748.088-.968.22a.574.574 0 0 0-.308.527c0 .176.088.308.22.44s.528.22 1.1.352c.571.132 1.011.22 1.231.308.308.132.572.308.704.484s.22.44.22.66c0 .263-.088.483-.264.703a1.75 1.75 0 0 1-.704.528c-.308.132-.66.176-1.055.176-.484 0-.924-.044-1.232-.176-.352-.132-.615-.308-.791-.572-.352-.22-.44-.528-.44-.836z"/></g><g fill="#333"><path d="M3.132 70.155V68.22h2.77V48.122h-2.77v-1.935H22.57v5.673h-1.98v-3.474h-9.102v7.696h5.673v-3.034h1.979v8.311h-1.98v-3.034h-5.672v9.719h9.367V64.57h1.979v5.673H3.132zM31.013 68.22h2.2v1.935h-9.5V68.22h2.199V47.067h-2.199v-1.935h7.3zM63.029 63.294c-.572 2.463-1.583 4.31-3.079 5.498-1.495 1.187-3.474 1.803-5.937 1.803-3.65 0-6.552-1.1-8.663-3.343-2.111-2.242-3.166-5.277-3.166-9.103 0-3.826 1.055-6.86 3.166-9.103 2.11-2.243 5.013-3.342 8.663-3.342 1.276 0 2.595.176 4.002.527 1.408.352 2.859.88 4.398 1.54v5.892H60.61c-.396-2.022-1.056-3.518-2.067-4.53-1.011-1.01-2.287-1.494-3.914-1.494-2.11 0-3.694.88-4.705 2.594-1.012 1.715-1.54 4.354-1.54 7.916 0 3.562.528 6.2 1.54 7.916 1.011 1.715 2.594 2.55 4.705 2.55 1.451 0 2.639-.44 3.518-1.319.924-.88 1.583-2.242 1.98-4.046h2.902v.044zM72.792 70.639c-2.727 0-4.838-.792-6.377-2.42-1.54-1.582-2.287-3.825-2.287-6.596 0-2.814.748-5.013 2.287-6.596 1.54-1.583 3.65-2.375 6.377-2.375 2.726 0 4.837.792 6.376 2.375 1.54 1.583 2.287 3.782 2.287 6.596 0 2.815-.792 5.014-2.33 6.597-1.54 1.627-3.65 2.419-6.333 2.419zm0-1.803c1.055 0 1.847-.528 2.286-1.54.44-1.011.66-2.902.66-5.673 0-2.726-.22-4.617-.66-5.629-.44-1.011-1.187-1.539-2.286-1.539-1.1 0-1.847.528-2.287 1.54-.44 1.01-.66 2.902-.66 5.628 0 2.727.22 4.618.66 5.63.396 1.055 1.187 1.583 2.287 1.583z"/><path d="M81.235 70.155V68.22h2.199V55.027h-2.199v-1.935h7.3v2.419c.616-1.012 1.32-1.76 2.111-2.2.792-.44 1.803-.659 2.99-.659 1.716 0 3.035.572 3.915 1.715.88 1.144 1.319 2.815 1.319 5.013v8.928h2.199v1.935h-9.191v-1.935h1.847v-9.191c0-1.452-.176-2.463-.484-3.035-.352-.571-.924-.835-1.715-.835-1.012 0-1.803.44-2.287 1.275-.484.836-.704 2.199-.704 4.002v7.652h1.847v1.935h-9.147v.044zM115.23 49.442h-1.628c-.088-.836-.308-1.452-.66-1.847-.351-.396-.879-.616-1.539-.616-.791 0-1.319.308-1.67.923-.353.616-.528 1.628-.528 2.99v2.2h3.87v1.935h-3.87V68.22h2.946v1.935h-10.29V68.22h2.198V55.027h-2.287v-1.935h2.287v-2.155c0-1.891.528-3.342 1.627-4.31 1.1-.967 2.683-1.451 4.794-1.451.835 0 1.627.044 2.419.132.791.088 1.539.264 2.286.44v3.694h.044z"/><path d="M121.474 68.22h2.199v1.935h-9.499V68.22h2.199V55.027h-2.199v-1.935h7.3V68.22zm-5.629-19.966c0-.88.264-1.583.792-2.199.527-.615 1.187-.88 1.979-.88.747 0 1.407.309 1.935.88.527.572.791 1.32.791 2.2 0 .835-.264 1.582-.791 2.154-.528.572-1.188.88-1.935.88-.792 0-1.452-.308-1.98-.88-.527-.572-.79-1.32-.79-2.155zM140.604 68.22h2.2v1.935h-7.301V68c-.44.88-1.012 1.54-1.76 1.979-.747.44-1.67.66-2.726.66-2.155 0-3.87-.792-5.145-2.42-1.231-1.626-1.891-3.825-1.891-6.596 0-2.814.616-5.013 1.89-6.596 1.232-1.583 2.947-2.375 5.146-2.375 1.1 0 1.98.22 2.727.66.747.44 1.32 1.1 1.759 1.979v-8.224h-2.199v-1.935h7.344V68.22h-.044zm-5.145-5.761v-1.671c0-1.98-.22-3.43-.704-4.31-.44-.88-1.187-1.32-2.199-1.32-1.055 0-1.803.484-2.242 1.408-.44.923-.66 2.639-.66 5.101 0 2.463.22 4.134.66 5.102.44.923 1.187 1.407 2.242 1.407 1.012 0 1.76-.44 2.2-1.32.483-.967.703-2.418.703-4.397zM159.294 62.415H148.74v.132c0 2.199.308 3.782.88 4.793.615.968 1.583 1.452 2.902 1.452 1.1 0 1.979-.308 2.683-.968.703-.66 1.143-1.583 1.319-2.858h2.419c-.44 1.935-1.232 3.386-2.463 4.265-1.231.924-2.947 1.364-5.145 1.364-2.683 0-4.706-.792-6.113-2.331-1.407-1.54-2.111-3.782-2.111-6.685 0-2.814.704-5.057 2.199-6.64 1.451-1.583 3.474-2.375 6.069-2.375 2.55 0 4.485.836 5.849 2.507 1.275 1.715 1.979 4.134 2.066 7.344zm-5.629-1.891c0-2.243-.176-3.826-.571-4.75-.396-.923-1.012-1.363-1.935-1.363-.88 0-1.496.44-1.891 1.32-.396.879-.572 2.374-.572 4.485v.308h4.97zM159.47 70.155V68.22h2.2V55.027h-2.2v-1.935h7.3v2.419c.616-1.012 1.32-1.76 2.111-2.2.792-.44 1.804-.659 2.99-.659 1.716 0 3.035.572 3.915 1.715.88 1.144 1.32 2.815 1.32 5.013v8.928h2.198v1.935h-9.191v-1.935h1.847v-9.191c0-1.452-.176-2.463-.484-3.035-.352-.571-.923-.835-1.715-.835-1.011 0-1.803.44-2.287 1.275-.484.836-.703 2.199-.703 4.002v7.652h1.847v1.935h-9.148v.044zM195.048 64.834c-.396 1.935-1.144 3.386-2.243 4.353-1.143.968-2.683 1.452-4.618 1.452-2.726 0-4.881-.792-6.376-2.375-1.496-1.583-2.243-3.782-2.243-6.64 0-2.815.747-5.058 2.243-6.641 1.495-1.583 3.562-2.375 6.156-2.375 1.056 0 2.155.132 3.255.352 1.1.22 2.199.572 3.342 1.011v4.75h-1.627c-.132-1.451-.528-2.507-1.144-3.21-.615-.704-1.45-1.056-2.55-1.056-1.407 0-2.463.528-3.035 1.627-.615 1.056-.923 2.947-.923 5.585 0 2.595.308 4.442.88 5.541.571 1.1 1.539 1.672 2.858 1.672 1.011 0 1.847-.352 2.463-1.012.615-.704 1.011-1.671 1.143-2.946h2.419v-.088zM203.052 68.22h2.198v1.935h-9.499V68.22h2.2V55.027h-2.2v-1.935h7.3V68.22zm-5.63-19.966c0-.88.264-1.583.792-2.199.528-.615 1.188-.88 1.98-.88.747 0 1.406.309 1.934.88.528.572.792 1.32.792 2.2 0 .835-.264 1.582-.792 2.154-.528.572-1.187.88-1.935.88-.791 0-1.451-.308-1.979-.88a3.323 3.323 0 0 1-.791-2.155zM220.642 59.688v8.532h2.2v1.935h-7.3V68c-.66.88-1.408 1.583-2.244 1.979-.835.44-1.759.66-2.814.66-1.583 0-2.77-.484-3.606-1.408-.836-.923-1.276-2.286-1.276-4.046 0-1.935.616-3.342 1.803-4.31 1.188-.967 3.035-1.45 5.454-1.45h2.682v-1.012c0-1.363-.308-2.419-.88-3.078-.571-.66-1.495-.968-2.726-.968-1.011 0-1.803.22-2.375.704-.571.483-.923 1.231-1.187 2.287h-1.627v-3.695c.923-.351 1.89-.66 2.858-.835a17.58 17.58 0 0 1 3.123-.264c2.77 0 4.75.572 6.024 1.715 1.276 1.188 1.891 2.947 1.891 5.41zm-5.1 5.102v-3.43h-1.936c-.967 0-1.671.307-2.199.879-.527.572-.791 1.407-.791 2.507s.176 1.89.571 2.418c.396.528.924.792 1.715.792.792 0 1.452-.308 1.891-.88.484-.571.748-1.319.748-2.286zM230.757 68.22h2.199v1.935h-9.499V68.22h2.199V47.067h-2.199v-1.935h7.3z"/></g></g></svg>