<svg width="235" height="125" xmlns="http://www.w3.org/2000/svg"><g fill="none" fill-rule="evenodd"><path d="M87.541 75.701h9.268v-1.206H94.82c-.071 0-.249-.035-.496-.107a2.597 2.597 0 0 1-.818-.319c-.283-.286-.39-.64-.39-1.315V51.98l7.99 23.72h2.629l8.095-23.755v21.27c0 .32-.142.639-.425.853-.214.178-.747.355-1.243.426H108.1v1.206h13.106v-1.206h-1.955c-1.172 0-1.847-.674-1.847-1.741V53.118c0-.782.073-1.03.463-1.278.212-.213.745-.391 1.314-.461h2.06v-1.28h-10.654l-6.214 18.11-6.038-18.11h-10.76v1.279h1.954c1.064 0 1.775.674 1.775 1.74v18.926l.036.71c0 1.03-.781 1.741-1.846 1.741H87.54v1.206zm34.176-24.43h2.025c.071 0 .284.07.496.143.32.07.605.177.782.319.284.248.39.496.39.923v16.227c0 2.913.78 4.58 2.629 5.612 1.668 1.03 4.366 1.633 6.96 1.633 2.945 0 5.858-.853 7.314-2.06.747-.675 1.35-1.634 1.633-2.805.284-.96.427-2.167.427-3.444V53.046c0-1.065.746-1.775 1.882-1.775h1.988V50.1h-9.34v1.172h1.99c.994 0 1.669.746 1.669 1.775v14.951c0 4.048-1.669 5.716-5.858 5.716-2.771 0-4.83-.96-5.47-2.627-.212-.534-.284-1.244-.284-2.77v-15.27c0-1.029.711-1.775 1.812-1.775h1.951V50.1h-12.996v1.172zm27.032 24.43h9.412v-1.206h-2.024c-.036 0-.25-.035-.532-.071-.322-.106-.64-.213-.854-.355-.318-.286-.426-.57-.426-1.316V55.284l13.033 20.417h3.941v-23.08c0-.533.426-.959 1.208-1.172.213-.035.461-.107.497-.107h1.988v-1.243h-9.16v1.243h1.951c1.101 0 1.81.71 1.81 1.776v15.837L157.52 50.099h-8.735v1.279h1.954c1.065 0 1.811.674 1.811 1.74v19.636c0 1.03-.782 1.741-1.845 1.741h-1.955v1.206z" fill="#211915" fill-rule="nonzero"/><path d="M175.674 75.701h13.776c7.14 0 12.287-5.504 12.287-13.138 0-4.403-2.024-8.31-5.468-10.546-2.061-1.313-4.297-1.918-7.208-1.918h-13.387v1.243h1.988c1.066 0 1.775.675 1.775 1.776v19.636c0 .674-.141 1.067-.461 1.35-.214.142-.782.32-1.278.462h-2.024v1.135zm9.268-2.77V52.762c0-1.206.284-1.526 1.385-1.526h3.267c1.81 0 3.55.887 4.474 2.307.639 1.03 1.1 2.415 1.386 4.44.177 1.42.282 3.516.282 5.042 0 7.919-2.06 11.577-6.533 11.577h-2.84c-1.066 0-1.421-.391-1.421-1.67zM204.1 62.918c0 7.848 4.795 13.138 11.933 13.138S228 70.766 228 62.918c0-3.693-1.102-6.925-3.232-9.41-2.13-2.521-4.971-3.765-8.735-3.765-3.765 0-6.499 1.209-8.772 3.764-2.059 2.38-3.16 5.718-3.16 9.41zm6.643-7.421c.708-2.805 2.52-4.26 5.29-4.26s4.545 1.455 5.327 4.26c.495 1.81.639 3.728.639 7.421 0 3.657-.143 5.54-.64 7.386-.746 2.77-2.556 4.263-5.326 4.263-2.77 0-4.546-1.493-5.29-4.263-.534-1.81-.711-3.693-.711-7.386 0-3.728.177-5.574.71-7.421z" fill="#211915"/><path d="M8 75.701h23.01l.71-8.237h-1.35c-.532 4.58-3.444 7.102-8.273 7.102h-3.55c-.96 0-1.35-.462-1.35-1.492V62.35h1.847c1.882 0 3.55.426 4.297 1.101.744.71 1.277 2.024 1.277 3.232 0 .212 0 .462-.035.71h1.313V56.208l-1.313-.036v.284c0 3.09-1.954 4.76-5.539 4.76h-1.847v-8.737c0-.957.284-1.242 1.172-1.242h3.55c2.806 0 4.262.426 5.788 1.704 1.136.924 2.024 2.308 2.237 3.551.07.32.107.745.142 1.28h1.492l-.604-7.672H8v1.243h1.988c1.03 0 1.74.64 1.74 1.74v19.707c0 1.032-.71 1.706-1.775 1.706H8v1.206zm24.096-24.36h1.954c1.1 0 1.81.676 1.81 1.777v19.6c0 .71-.142 1.065-.427 1.351-.248.177-.78.355-1.277.426h-2.06V75.7h21.98l.533-10.085h-1.456c-.852 5.683-3.586 8.95-7.634 8.95h-2.84c-.96 0-1.387-.462-1.387-1.528v-19.92c0-1.066.712-1.776 1.777-1.776h1.989v-1.243H32.096v1.243z" fill="#211915" fill-rule="nonzero"/><path d="M84.67 68.985a14.538 14.538 0 0 0 1.447-5.708H72.376v5.821h12.236s-.006.015.058-.113zM70.835 55.553H58.7a14.549 14.549 0 0 0-1.783 6.188h13.916v-6.188zm1.54 0v6.188h13.732a14.603 14.603 0 0 0-1.78-6.188H72.375zm-1.54 7.724H56.909a14.58 14.58 0 0 0 1.502 5.821h12.424v-5.82zm0 7.357H59.294c2.499 3.794 6.715 6.356 11.54 6.577v-6.577zm1.54-16.619h10.972a14.612 14.612 0 0 0-10.972-6.007v6.007zm0 16.62V77.2a14.608 14.608 0 0 0 11.356-6.566H72.375zm-1.54-16.62V48c-4.585.208-8.62 2.532-11.154 6.015h11.154z" fill="#A9A9A9" fill-rule="nonzero"/></g></svg>