<svg width="235" height="125" xmlns="http://www.w3.org/2000/svg"><g fill-rule="nonzero" fill="none"><path d="M43.447 72.219v-3.067h2.227c1.356 0 2.108-.416 2.108-2.907v-16.15c0-1.776-.476-2.32-2.545-2.32h-1.79v-3.072h26.248V55.66h-2.947c-.595-5.643-1.07-7.884-6.398-7.884h-7.005v8.636h2.108c2.391 0 3.462-1.25 3.462-4.611v-.542h2.947V65.12h-2.947v-.99c0-3.364-1.07-4.651-3.462-4.651h-2.108v9.674h7.956c3.661 0 5.088-2.373 5.445-8.55h2.947v11.616H43.447zM71.842 72.219v-3.067h2.544c1.11 0 1.87-.416 1.87-1.831V49.56c0-1.243-.522-1.785-2.108-1.785h-2.305v-3.073h14.55v3.072h-2.226c-1.745 0-2.346.417-2.346 1.87V69.19h6.483c4.096 0 5.087-2.366 5.452-8.8h2.94v11.827H71.841zM104.524 72.219v-3.067h2.545c.919 0 1.711-.33 1.711-1.415V49.183c0-1.079-.792-1.409-1.711-1.409h-2.545v-3.07h15.589c5.965 0 9.382 2.868 9.382 7.553 0 5.107-3.575 7.513-8.907 7.513h-6.237v7.97c0 1.084.991 1.414 1.904 1.414h2.544v3.067h-14.275v-.002zm9.826-15.522h3.615c3.74 0 5.73-1.202 5.73-4.393 0-3.198-1.593-4.528-5.73-4.528h-3.615v8.92zM125.041 72.219h12.41v-3.067h-3.099c-.759 0-1.275-.172-1.275-.747 0-.376.08-.627.158-.871l1.307-4.157h9.027l1.314 4.157c.079.244.157.62.157.997 0 .41-.316.621-1.227.621h-3.146v3.067h26.913v-3.067h-2.306c-1.348 0-1.95-.706-1.95-2.035V49.764c0-1.572 1.236-1.99 2.505-1.99h1.751v-3.07h-14.074v3.07h2.228c1.553 0 2.027.827 2.027 1.87V67.66c0 1.077-.635 1.494-2.268 1.494h-.99c-2.107 0-3.456-.29-4.176-2.246l-7.946-22.204h-5.572l-7.591 22.204c-.675 1.956-2.069 2.246-4.176 2.246v3.066zm17.38-11.908h-6.72l3.185-10.005h.07l3.465 10.005zM188.624 44.703h2.306v10.46h-2.861c-.951-4.527-3.456-7.764-8.188-7.764-3.702 0-5.215.999-5.215 3.74 0 6.225 17.736 1.58 17.736 13.155 0 6.602-4.93 8.756-10.5 8.756-2.98 0-5.962-1.328-8.267-3.278l-.872 2.445h-2.71V60.971H173c.555 5.564 3.813 8.55 9.461 8.55 3.496 0 5.167-1.705 5.167-3.694 0-7.097-17.735-1.745-17.735-13.613 0-5.854 5.048-8.346 9.865-8.346 3.02 0 5.564 1.452 7.554 2.906l1.312-2.07z" fill="#212020"/><path fill="#A1A1A1" d="M167.663 39v3.463h-14.498z"/><path d="M66.463 84.866h4.93l.19-1.851h-.31c-.132.674-.363 1.427-1.362 1.427h-1.328c-.172 0-.27-.093-.27-.236v-2.572h1.201c.702 0 .78.522.84.932h.297v-2.253h-.304c-.02.45-.184.893-.84.893H68.31v-2.354h1.607c.832 0 .964.503 1.115 1.243h.29l.014-1.652-.026-.027c-.086 0-.852.02-1.223.02H66.46v.244c.463.067.787.179.787.675v4.619c0 .469-.311.563-.787.634v.258h.004zM72.45 84.866h4.93l.19-1.851h-.31c-.132.674-.365 1.427-1.362 1.427h-1.329c-.172 0-.27-.093-.27-.236v-4.864c0-.51.37-.588.785-.66v-.245h-2.636v.244c.462.067.785.18.785.675v4.619c0 .47-.304.563-.785.634l.002.257zM82.586 81.543v-2.716h.515c.898 0 1.46.425 1.46 1.336 0 .879-.435 1.38-1.354 1.38h-.62zm-1.843 3.323h2.781v-.258c-.607-.053-.938-.18-.938-.634v-2.016h.733c1.228 0 2.327-.588 2.327-1.85 0-1.063-.846-1.671-2.075-1.671h-2.828v.244c.455.066.785.179.785.674v4.62c0 .468-.311.562-.785.634v.257zM85.989 84.866h4.93l.19-1.851h-.31c-.132.674-.364 1.427-1.362 1.427h-1.329c-.172 0-.27-.093-.27-.236v-2.572h1.201c.702 0 .781.522.84.932h.304v-2.253h-.311c-.02.45-.184.893-.84.893h-1.196v-2.354h1.606c.832 0 .965.503 1.116 1.243h.29l.014-1.652-.027-.027c-.079 0-.852.02-1.223.02h-3.627v.244c.461.067.785.179.785.675v4.619c0 .469-.31.563-.785.634v.258h.004zM93.826 81.297V78.86h.912c.714 0 1.156.469 1.156 1.262 0 .999-.765 1.175-1.393 1.175h-.675zm-1.85 3.57h2.637v-.26c-.516-.07-.787-.183-.787-.653V81.68h.86c.423.008.686.12.812.695l.522 2.492h1.619v-.26c-.33-.04-.568-.085-.654-.502l-.383-1.46a1.463 1.463 0 0 0-1.243-1.137v-.034c.932-.092 1.547-.675 1.547-1.473 0-1.024-.774-1.565-2.141-1.565h-2.789v.244c.463.066.786.179.786.674v4.62c0 .468-.304.562-.786.634v.257zM104.117 77.783l1.798-.965-.567-.747-1.42 1.5.19.212zm-6.154 7.083h2.636v-.258c-.508-.071-.785-.184-.785-.654v-4.612c0-.51.37-.588.785-.66v-.245h-2.636v.244c.462.067.793.18.793.675v4.619c0 .47-.31.563-.793.634v.257zM103.995 84.496c-1.295 0-1.817-.846-1.817-2.802 0-1.921.462-2.912 1.698-2.912 1.215 0 1.798.983 1.798 2.927 0 2.04-.581 2.787-1.679 2.787zm-.019.45c1.692 0 2.822-1.329 2.822-3.376 0-1.989-1.09-3.21-2.914-3.21-1.75 0-2.827 1.335-2.827 3.31-.002 2.092 1.108 3.276 2.919 3.276zM109.83 84.45c-.132 0-.245-.019-.245-.184V78.83h.733c1.566 0 2.055 1.532 2.055 2.79 0 1.605-.588 2.906-2.18 2.834l-.363-.003zm-2.1.416h2.53c1.916 0 3.238-1.409 3.238-3.297 0-1.969-1.217-3.132-3.264-3.132h-2.505v.244c.463.067.787.18.787.675v4.619c0 .47-.312.563-.787.634v.257zM114.456 84.866h2.629v-.258c-.51-.071-.787-.184-.787-.654v-4.612c0-.51.377-.588.787-.66v-.245h-2.63v.244c.456.067.786.18.786.675v4.619c0 .47-.31.563-.785.634v.257zM120.833 84.946c.588-.019 1.28-.14 1.553-.098l.079-1.81h-.297c-.13 1.21-.706 1.46-1.44 1.46-1.58 0-2.07-1.262-2.07-2.928 0-1.513.728-2.8 1.938-2.8.93 0 1.321.316 1.494 1.3h.284l.014-1.504a7.37 7.37 0 0 0-1.771-.207c-1.784 0-3.072 1.25-3.072 3.462 0 1.66.7 2.492 1.67 2.888.461.184 1.036.237 1.618.237zM126.47 84.496c-1.289 0-1.811-.846-1.811-2.802 0-1.921.455-2.912 1.698-2.912 1.209 0 1.791.983 1.791 2.927 0 2.04-.582 2.787-1.679 2.787zm-.02.45c1.692 0 2.822-1.329 2.822-3.376 0-1.989-1.085-3.21-2.907-3.21-1.75 0-2.828 1.335-2.828 3.31-.002 2.092 1.102 3.276 2.913 3.276zM135.813 84.952c.946 0 1.46-.146 1.85-.25v-1.897c0-.436.206-.496.608-.563v-.258h-2.478v.258c.541.053.826.173.826.594v1.66c-.067.006-.316.033-.469.033-.812 0-1.381-.285-1.75-.733-.521-.522-.728-1.329-.728-2.233 0-1.389.702-2.79 2.043-2.79.93 0 1.407.26 1.61 1.295h.285l.008-1.505a7.755 7.755 0 0 0-1.784-.206c-2.155 0-3.27 1.592-3.27 3.383-.002 2.03 1.134 3.212 3.249 3.212zM139.23 84.866h4.929l.191-1.851h-.31c-.132.674-.364 1.427-1.363 1.427h-1.329c-.172 0-.27-.093-.27-.236v-4.864c0-.51.37-.588.786-.66v-.245h-2.637v.244c.462.067.786.18.786.675v4.619c0 .47-.312.563-.786.634l.002.257zM148.21 84.496c-1.296 0-1.818-.846-1.818-2.802 0-1.921.462-2.912 1.699-2.912 1.215 0 1.797.983 1.797 2.927 0 2.04-.582 2.787-1.679 2.787zm-.021.45c1.692 0 2.822-1.329 2.822-3.376 0-1.989-1.09-3.21-2.907-3.21-1.75 0-2.834 1.335-2.834 3.31-.002 2.092 1.11 3.276 2.919 3.276zM153.8 81.199v-2.372h.729c.66 0 1.36.158 1.36 1.216 0 .707-.548 1.156-1.38 1.156h-.71zm.158 3.258c-.086 0-.158-.027-.158-.147v-2.73h.53c1.142 0 1.637.595 1.637 1.47 0 .772-.462 1.407-1.46 1.407h-.549zm-2.015.41h2.827c1.123 0 2.32-.602 2.32-1.87 0-.786-.675-1.39-1.705-1.547v-.053c.812-.158 1.573-.616 1.573-1.468 0-1.21-1.17-1.494-2.088-1.494h-2.927v.244c.462.067.785.18.785.675v4.619c0 .47-.311.563-.785.634v.26zM159.49 81.979l.784-2.73h.035l.918 2.73h-1.738zm-1.798 2.887h1.91v-.258c-.647-.08-.713-.232-.713-.375 0-.174.066-.41.099-.496l.37-1.308h2.016l.555 1.612a.79.79 0 0 1 .045.251c0 .157-.316.258-.68.317v.259h2.374v-.26c-.252-.032-.47-.138-.564-.416l-2.035-5.762h-1.044l.027.146-1.739 5.537c-.105.33-.317.463-.62.496l-.001.257zM163.917 84.866h4.93l.19-1.851h-.31c-.132.674-.357 1.427-1.362 1.427h-1.322c-.18 0-.278-.093-.278-.236v-4.864c0-.51.371-.588.785-.66v-.245h-2.635v.244c.461.067.792.18.792.675v4.619c0 .47-.311.563-.792.634l.002.257z" fill="#333"/></g></svg>