<svg width="235" height="125" xmlns="http://www.w3.org/2000/svg"><g fill-rule="nonzero" fill="none"><path fill="#B3B3B3" d="M90.072 73.636H198v6.714H92.37v-.985l-2.298-.924zM38 73.636h45v4.805l-1.927.924v.985H38z"/><path d="M110.737 68.953c-.852.496-1.482.725-2.223.725-1.334 0-2.335-.993-2.335-2.672 0-2.1 1.15-3.246 4.558-3.476v5.423zm1.886 2.477h4.8v-.535l-1.955-.915.011-11.223c0-3.436-1.964-5.23-5.261-5.23-3.484 0-8.41 1.718-8.41 4.925 0 1.336.889 2.52 2.407 2.52 1.371 0 2.336-1.184 2.336-2.444 0-.954-.52-2.137-1.558-2.978.6-.102 1.208-.153 1.816-.152 3.075 0 3.927 1.527 3.927 3.703v3.512c-5.669.038-9.521 1.91-9.521 5.423 0 2.367 1.704 4.009 4.482 4.009 2.075 0 3.706-.993 5.04-2.406l.184.077c.024.951.755 1.714 1.702 1.714zm55.52-26.151h5.258l-3.869 6.05h-2.988l1.598-6.05zm-15.844 3.032c0-1.676 1.316-3.033 2.943-3.033 1.626 0 2.944 1.357 2.944 3.033 0 1.675-1.318 3.034-2.944 3.034-1.627 0-2.943-1.36-2.943-3.034zm41.8 10.484c0-2.71-1.223-5.268-4.559-5.268-1.998 0-4.146 1.03-6.334 3.17l-.149-.077-.01-2.52h-6.552v.53l2.118 1.05v14.305l-1.955.916v.534h8.28v-.534l-1.584-.916v-12.64c1.26-.534 2.076-.726 3.371-.726 2.114 0 2.631 1.566 2.631 3.705v9.66l-1.85.916v.535h8.548V70.9l-1.956-.915v-11.19zm-41.006-3.11v14.3l-2.065.916v.534h8.762v-.534l-1.956-.916V54.099h-6.893v.54l2.152 1.046zm-57.04 7.556c0 5.384-1.742 7.369-3.63 7.369-1.631 0-2.595-.685-3.484-2.099V56.56c.926-.229 1.74-.343 2.519-.343 2.964 0 4.595 2.137 4.595 7.025zM84.196 78.938l-1.953.917v.497h9.02v-.497l-2.324-.917v-7.334c.778.152 1.556.229 2.297.229 6.262 0 9.892-4.621 9.892-9.776 0-5.268-2.964-8.743-6.557-8.743-2.186 0-4.371 1.298-5.742 2.635l-.149-.076.002-1.773h-6.597v.535l2.102 1.031.01 23.272zm87.842-16.385c0 4.774-1.148 8.019-3.816 8.019s-3.816-3.245-3.816-8.019c0-4.772 1.148-8.017 3.816-8.017s3.816 3.245 3.816 8.017zm5.076 0c0-4.886-2.704-9.24-8.669-9.24-5.93 0-9.115 4.66-9.115 9.24 0 4.927 2.704 9.28 8.67 9.28 5.964 0 9.114-4.697 9.114-9.28zm-25.99 3.476c0-3.322-2.594-4.505-5.004-5.499-2.111-.877-4.11-1.642-4.11-3.588 0-1.147.814-2.33 2.258-2.33 1.781 0 2.742 1.184 4.965 4.277l.741-.153-.11-4.735c-1.039-.381-3.187-.687-4.632-.687-4.001 0-6.89 2.482-6.89 5.5 0 3.359 2.592 4.544 5.001 5.575 2.111.877 4.077 1.64 4.077 3.55 0 1.528-.891 2.596-2.372 2.596-1.928 0-3.297-1.26-6.003-5.04l-.741.075.11 5.232c1.706.688 3.597 1.032 5.82 1.032 3.555-.001 6.89-2.254 6.89-5.805zm-15.458-7.234c0-2.71-1.224-5.268-4.559-5.268-2 0-4.15 1.03-6.334 3.17l-.148-.077-.01-2.52h-6.554v.53l2.118 1.05v14.305l-1.954.91v.54h8.28v-.534l-1.586-.916v-12.64c1.261-.534 2.076-.726 3.374-.726 2.111 0 2.63 1.566 2.63 3.705v9.66l-1.583.916v.535h8.28V70.9l-1.954-.915v-11.19zM73.47 60.438l-2.89-5.04 1.658-.763V54.1h-8.985v.535l1.77.763 5.446 8.286-5.039 6.186-1.955 1.03v.535h6.095v-.534l-1.51-.84 3.297-5.004 3.001 5.041-1.769.803v.534h9.096v-.534l-1.77-.803-5.63-8.324 4.854-6.109 2.101-1.031v-.535h-6.204v.535l1.434.877-3 4.927zM61.9 45.265H40.833v.698l3.199.986v22.8l-3.2.986v.699h21.905l.758-8.504-.758-.163-3.229 4.27c-1.315 1.728-2.63 2.59-4.862 2.713l-4.904.245V59.233h1.356c2.272 0 3.149.823 4.106 3.37l.479 1.274h.837V52.824h-.837l-.48 1.356c-.916 2.547-1.833 3.37-4.105 3.37h-1.356V46.662l3.628.164c2.79.123 3.787.862 5.222 2.958l3.11 4.517.757-.205-.559-8.831z" fill="#171614"/></g></svg>