<svg width="235" height="125" xmlns="http://www.w3.org/2000/svg"><g fill-rule="nonzero" fill="none"><path fill="#333" d="M33 43h170v39.535H33z"/><g fill="#FFF"><path d="M48.393 52.118h-5.647v21.769h12.436v-4.8h-6.789z"/><path d="M70.447 70.1l1.402 3.786h6.037l-8.191-21.768h-6.17l-8.351 21.769h5.97l1.502-3.787h7.801zm-1.536-4.307h-4.699l2.382-6.949 2.317 6.949zM98.801 64.977c3.101-.716 4.767-2.872 4.767-6.133 0-1.8-.683-3.56-1.862-4.8-1.269-1.339-2.87-1.926-5.352-1.926h-8.778v21.768h5.647V65.53l5.382 8.356h7.051l-6.855-8.909zm-5.578-3.102V56.46h1.042c2.187 0 3.495 1.011 3.495 2.708 0 1.697-1.276 2.707-3.495 2.707h-1.042z"/><path d="M120.926 70.1l1.405 3.786h6.037l-8.192-21.768h-6.167l-8.355 21.769h5.973l1.503-3.787h7.796zm-1.531-4.307h-4.7l2.383-6.949 2.317 6.949z"/><path d="M137.83 69.087l10.25-16.97h-18.017v4.798h8.55l-10.281 16.972h18.635v-4.8z"/><path d="M158.254 51.468c-6.885 0-12.042 4.991-12.042 11.583 0 6.626 5.156 11.617 12.042 11.617 6.887 0 12.044-4.991 12.044-11.617 0-6.625-5.157-11.583-12.044-11.583zm0 5.48c3.397 0 6.135 2.741 6.135 6.103a6.127 6.127 0 0 1-6.135 6.137 6.127 6.127 0 0 1-6.134-6.137c0-3.362 2.74-6.104 6.134-6.104zM171.276 73.887h5.648V60.571l10.41 13.316h5.645v-21.77h-5.645v13.316l-10.41-13.315h-5.648z"/></g><path fill="#B2B2B2" d="M164.53 50.666l-3.327-2.384-4.114 5.026 2.416 1.796z"/></g></svg>