<svg width="14" height="18" xmlns="http://www.w3.org/2000/svg"><path d="M11.776 4.925c-.92-.667-2.093-1.035-3.335-1.035-2.507 0-3.726 1.61-3.68 4.232.759-1.081 2.001-1.725 3.749-1.725 3.128 0 5.152 2.07 5.152 5.221 0 3.404-2.392 5.566-5.934 5.566-4.278 0-6.854-3.059-6.854-8.004C.874 4.028 3.749.693 8.188.693c1.794 0 3.795.506 5.129 1.334l-1.541 2.898zM7.613 9.41c-1.541 0-2.415.943-2.415 2.254 0 1.173.736 2.208 2.369 2.208 1.426 0 2.3-.805 2.3-2.277 0-1.357-.828-2.185-2.254-2.185z" fill="#F03E31" fill-rule="evenodd"/></svg>