<svg height="100" width="100" xmlns="http://www.w3.org/2000/svg"><g fill="none" fill-rule="evenodd" stroke="#fff"><g fill="#fff" stroke-width=".5"><path d="M47.66 62.798a1.422 1.422 0 0 1-1.56 1.263l-.622-.065c-.158-2.61-2.18-4.808-4.864-5.09s-5.118 1.448-5.815 3.967l-17.096-1.797c-.158-2.609-2.18-4.807-4.863-5.089-2.684-.282-5.119 1.448-5.816 3.967l-1.121-.118a1 1 0 0 1-.893-1.096l.721-6.885a.251.251 0 0 1 .282-.22c1.515.158 2.964-.456 3.879-1.643l4.462-5.806a3.67 3.67 0 0 1 3.271-1.403l15.608 1.64a3.67 3.67 0 0 1 2.907 2.051l2.194 4.578a8.262 8.262 0 0 0 6.63 4.676l3.157.332a.246.246 0 0 1 .22.27l-.68 6.468zm-7.972 4.915a3.41 3.41 0 0 1-3.03-3.743 3.41 3.41 0 0 1 3.742-3.031 3.41 3.41 0 0 1 3.032 3.743 3.41 3.41 0 0 1-3.744 3.031zm-27.774-2.92a3.41 3.41 0 0 1-3.031-3.742 3.41 3.41 0 0 1 3.743-3.032 3.41 3.41 0 0 1 3.031 3.744 3.41 3.41 0 0 1-3.743 3.03zm36.4-10.57l-3.157-.331A6.508 6.508 0 0 1 40 50.253l-2.194-4.578a5.526 5.526 0 0 0-4.38-3.088l-15.608-1.64a5.527 5.527 0 0 0-4.928 2.114l-4.463 5.803a2.448 2.448 0 0 1-2.184.938 2.15 2.15 0 0 0-1.594.462c-.43.35-.698.847-.755 1.4l-.399 3.814-.322 3.07a2.85 2.85 0 0 0 2.537 3.126l1.13.119c.182 2.585 2.196 4.753 4.86 5.033 2.665.28 5.085-1.422 5.802-3.913l17.112 1.799c.183 2.585 2.197 4.753 4.86 5.033a5.454 5.454 0 0 0 5.802-3.912l.63.066a3.27 3.27 0 0 0 3.592-2.908l.68-6.468a2.096 2.096 0 0 0-1.864-2.3z"/><path d="M52.571 62.798a1.422 1.422 0 0 0 1.561 1.263l.622-.065c.158-2.61 2.18-4.808 4.864-5.09s5.118 1.448 5.815 3.967l17.096-1.797c.158-2.609 2.18-4.807 4.863-5.089 2.684-.282 5.119 1.448 5.816 3.967l1.12-.118a1 1 0 0 0 .894-1.096l-.721-6.885a.251.251 0 0 0-.282-.22c-1.515.158-2.964-.456-3.879-1.643l-4.463-5.806a3.67 3.67 0 0 0-3.27-1.403l-15.608 1.64a3.67 3.67 0 0 0-2.907 2.051l-2.194 4.578a8.262 8.262 0 0 1-6.63 4.676l-3.157.332a.246.246 0 0 0-.22.27zm7.972 4.915a3.41 3.41 0 0 0 3.031-3.743 3.41 3.41 0 0 0-3.743-3.031 3.41 3.41 0 0 0-3.03 3.743 3.41 3.41 0 0 0 3.742 3.031zm27.775-2.92a3.41 3.41 0 0 0 3.031-3.742 3.41 3.41 0 0 0-3.743-3.032 3.41 3.41 0 0 0-3.031 3.744 3.41 3.41 0 0 0 3.743 3.03zm-36.4-10.57l3.156-.331a6.508 6.508 0 0 0 5.157-3.639l2.195-4.578a5.526 5.526 0 0 1 4.38-3.088l15.608-1.64a5.527 5.527 0 0 1 4.928 2.114l4.462 5.803a2.448 2.448 0 0 0 2.185.938 2.15 2.15 0 0 1 1.594.462c.43.35.698.847.755 1.4l.398 3.814.322 3.07a2.85 2.85 0 0 1-2.536 3.126l-1.13.119c-.182 2.585-2.196 4.753-4.86 5.033-2.665.28-5.085-1.422-5.802-3.913l-17.112 1.799c-.183 2.585-2.197 4.753-4.861 5.033-2.665.28-5.085-1.422-5.802-3.912l-.63.066a3.27 3.27 0 0 1-3.59-2.908l-.68-6.468a2.096 2.096 0 0 1 1.863-2.3z"/></g><path d="M50.296 48.56v-6.708m3.824 7.976l3.467-2.9m-11.004 2.904l-3.458-2.91" stroke-linecap="round" stroke-width="2.7"/></g></svg>