<?xml version="1.0" encoding="UTF-8"?>
<svg width="20px" height="14px" viewBox="0 0 20 14" version="1.1" xmlns="http://www.w3.org/2000/svg" xmlns:xlink="http://www.w3.org/1999/xlink">
    <!-- Generator: Sketch 64 (93537) - https://sketch.com -->
    <title>accidente-h3</title>
    <desc>Created with Sketch.</desc>
    <g id="Page-1" stroke="none" stroke-width="1" fill="none" fill-rule="evenodd">
        <g id="accidente-h3" fill="#F03E31" fill-rule="nonzero">
            <path d="M3.63666087,10.7109565 L3.5856,10.762087 C3.35213913,10.9954783 3.35213913,11.3753739 3.58553043,11.6088348 L3.82253913,11.845913 C3.92229565,11.9458087 4.04688696,12.0007652 4.17328696,12.0007652 C4.34024348,12.0007652 4.49481739,11.9042783 4.58657391,11.7426783 L4.87791304,11.2297739 L6.31248696,11.829287 C6.43693913,11.8813217 6.58330435,11.9088696 6.7357913,11.9088696 C7.07033043,11.9088696 7.40695652,11.7798957 7.61446957,11.5724522 L11.5216696,7.66511304 C11.8330435,7.35366957 11.9482435,6.76966957 11.7784348,6.3632 L11.1798261,4.93071304 L11.6861913,4.6429913 C11.8281739,4.56229565 11.9207652,4.43297391 11.940313,4.2882087 C11.9598609,4.14344348 11.9049043,3.99422609 11.7894957,3.87881739 L11.552487,3.6418087 C11.4397913,3.52904348 11.2894609,3.4669913 11.129113,3.4669913 C10.9687652,3.4669913 10.8184348,3.52904348 10.7057391,3.6418087 L10.6602435,3.68730435 L10.5634087,3.45572174 C10.4057043,3.07826087 10.0419478,2.53565217 9.75234783,2.24605217 L7.73217391,0.225808696 C7.61947826,0.113043478 7.46914783,0.0509913043 7.3088,0.0509913043 C7.14845217,0.0509913043 6.99812174,0.113043478 6.88542609,0.22573913 L6.33231304,0.778852174 C6.21954783,0.891547826 6.15749565,1.04187826 6.15749565,1.20222609 C6.15749565,1.36257391 6.21954783,1.51290435 6.33231304,1.62566957 L6.83693913,2.13015652 L2.07937391,6.88772174 L1.57481739,6.38316522 C1.46212174,6.2704 1.3117913,6.20834783 1.15144348,6.20834783 C0.991095652,6.20834783 0.840765217,6.2704 0.728069565,6.38316522 L0.175095652,6.93613913 C-0.0583652174,7.16953043 -0.0583652174,7.54942609 0.175095652,7.78288696 L2.19547826,9.8032 C2.48466087,10.0924522 3.02726957,10.4562783 3.4050087,10.6141217 L3.63666087,10.7109565 Z M10.2247652,4.58267826 L11.1315478,6.75269565 C11.233113,6.99575652 11.1638261,7.34713043 10.9775304,7.53342609 L7.48257391,11.0283826 C7.29627826,11.2146783 6.94490435,11.2839652 6.70184348,11.1824 L4.53189565,10.2755478 C4.28883478,10.1739826 4.24236522,9.93836522 4.42866087,9.75206957 L9.70135652,4.47937391 C9.88765217,4.29314783 10.1232,4.33961739 10.2247652,4.58267826 Z M6.86914783,3.70810435 L8.0688,2.50838261 C8.16194783,2.41523478 8.31436522,2.41523478 8.40751304,2.50838261 L8.98330435,3.08410435 C9.07645217,3.17725217 9.07645217,3.32966957 8.98330435,3.42281739 L7.78358261,4.62253913 C7.69043478,4.71568696 7.53801739,4.71568696 7.44486957,4.62253913 L6.86914783,4.04681739 C6.77606957,3.95366957 6.77606957,3.80125217 6.86914783,3.70810435 Z M3.04473043,9.02281739 L2.4690087,8.44709565 C2.37593043,8.35394783 2.37593043,8.20153043 2.4690087,8.10838261 L3.66866087,6.90873043 C3.7618087,6.81558261 3.91422609,6.81558261 4.00737391,6.90873043 L4.58316522,7.48438261 C4.67631304,7.57753043 4.67631304,7.72994783 4.58316522,7.82309565 L3.38344348,9.02281739 C3.29036522,9.11589565 3.13787826,9.11589565 3.04473043,9.02281739 Z" id="Shape"></path>
            <path d="M13.0986435,7.28674783 C13.1233391,7.28674783 13.1485913,7.28389565 13.1737043,7.27791304 L14.8742261,6.87353043 C15.0479304,6.8322087 15.1552696,6.65787826 15.1139478,6.48417391 C15.0726261,6.31046957 14.8985043,6.20292174 14.7245913,6.24445217 L13.0240696,6.64876522 C12.8503652,6.69008696 12.7430261,6.86441739 12.7843478,7.03812174 C12.819687,7.18678261 12.9522783,7.28674783 13.0986435,7.28674783 Z" id="Shape"></path>
            <path d="M12.7712,8.2541913 L14.3026087,8.87993043 C14.3426087,8.89627826 14.3840696,8.90406957 14.4247652,8.90406957 C14.5522087,8.90406957 14.6729739,8.82824348 14.7241739,8.70295652 C14.7917913,8.53766957 14.712487,8.34893913 14.5472,8.2813913 L13.0157913,7.65565217 C12.8503652,7.58789565 12.6617043,7.66733913 12.5942261,7.83262609 C12.5266087,7.99791304 12.605913,8.18664348 12.7712,8.2541913 Z" id="Shape"></path>
            <path d="M12.9179826,10.309913 C12.9791304,10.4089043 13.0849391,10.4633739 13.1933913,10.4633739 C13.2513391,10.4633739 13.3100522,10.4477217 13.3629913,10.4150957 C13.5149217,10.3212522 13.5619478,10.1220174 13.4681739,9.97015652 L12.6222609,8.60069565 C12.5284174,8.44876522 12.3291826,8.40166957 12.1773217,8.49551304 C12.0253913,8.58935652 11.9783652,8.7885913 12.0721391,8.94045217 L12.9179826,10.309913 Z" id="Shape"></path>
            <path d="M18.5234783,12.5469913 L2.99130435,12.5469913 C2.63867826,12.5469913 2.35276522,12.8328348 2.35276522,13.1855304 C2.35276522,13.5381565 2.6386087,13.8240696 2.99130435,13.8240696 L18.5234783,13.8240696 C18.8761043,13.8240696 19.1620174,13.5382261 19.1620174,13.1855304 C19.1620174,12.8328348 18.8761739,12.5469913 18.5234783,12.5469913 Z" id="Shape"></path>
        </g>
    </g>
</svg>