<?xml version="1.0" encoding="UTF-8"?>
<svg width="52px" height="52px" viewBox="0 0 52 52" version="1.1" xmlns="http://www.w3.org/2000/svg" xmlns:xlink="http://www.w3.org/1999/xlink">
    <!-- Generator: Sketch 64 (93537) - https://sketch.com -->
    <title>accidente-h2</title>
    <desc>Created with Sketch.</desc>
    <g id="Page-1" stroke="none" stroke-width="1" fill="none" fill-rule="evenodd">
        <g id="accidente-h2" transform="translate(1.000000, 1.000000)">
            <g id="Group-33-Copy" stroke="#F03E31" stroke-width="1.3">
                <circle id="Oval-Copy-9" cx="25" cy="25" r="25"></circle>
            </g>
            <g id="overturned-car-copy" transform="translate(8.000000, 12.000000)" fill-rule="nonzero">
                <path d="M6.23427578,18.3616398 L6.14674286,18.4492919 C5.74652422,18.8493913 5.74652422,19.500641 6.1466236,19.9008596 L6.55292422,20.3072795 C6.7239354,20.4785292 6.9375205,20.5727404 7.15420621,20.5727404 C7.44041739,20.5727404 7.70540124,20.4073342 7.86269814,20.1303056 L8.36213665,19.251041 L10.8214062,20.2787776 C11.0347528,20.3679801 11.2856646,20.415205 11.5470708,20.415205 C12.1205665,20.415205 12.6976398,20.1941068 13.0533764,19.8384894 L19.7514335,13.1401938 C20.2852174,12.6062907 20.4827031,11.6051478 20.1916025,10.9083429 L19.1654161,8.45265093 L20.0334708,7.95941366 C20.2768696,7.82107826 20.4355975,7.59938385 20.4691081,7.35121491 C20.5026186,7.10304596 20.4084075,6.84724472 20.210564,6.64940124 L19.8042634,6.24310062 C19.6110708,6.04978882 19.3533615,5.94341366 19.0784795,5.94341366 C18.8035975,5.94341366 18.5458882,6.04978882 18.3526957,6.24310062 L18.2747031,6.32109317 L18.1087006,5.92409441 C17.8383503,5.27701863 17.2147677,4.3468323 16.7183106,3.85037516 L13.2551553,0.387100621 C13.0619627,0.19378882 12.8042534,0.0874136646 12.5293714,0.0874136646 C12.2544894,0.0874136646 11.9967801,0.19378882 11.8035876,0.386981366 L10.8553938,1.33517516 C10.662082,1.5283677 10.5557068,1.78607702 10.5557068,2.06095901 C10.5557068,2.33584099 10.662082,2.59355031 10.8553938,2.78686211 L11.7204671,3.65169689 L3.56464099,11.807523 L2.69968696,10.9425689 C2.50649441,10.7492571 2.24878509,10.642882 1.97390311,10.642882 C1.69902112,10.642882 1.4413118,10.7492571 1.24811925,10.9425689 L0.300163975,11.8905242 C-0.100054658,12.2906236 -0.100054658,12.9418733 0.300163975,13.3420919 L3.76367702,16.8054857 C4.25941863,17.3013466 5.18960497,17.9250484 5.83715776,18.1956373 L6.23427578,18.3616398 Z M17.5281689,7.85601988 L18.8421028,11.1531727 C19.0162146,11.5698484 18.897437,12.1722037 18.578073,12.4915677 L12.3485865,18.7052234 C12.0292225,19.0245874 11.4268672,19.1433651 11.0101915,18.9692532 L7.76896398,17.6152248 C7.3522882,17.441113 7.27262609,17.0371975 7.59199006,16.7178335 L16.6308969,7.67892671 C16.9502609,7.35968199 17.3540571,7.4393441 17.5281689,7.85601988 Z M11.775682,6.35675031 L13.8322286,4.30008447 C13.9919106,4.14040248 14.2531975,4.14040248 14.4128795,4.30008447 L15.3999503,5.28703602 C15.5596323,5.44671801 15.5596323,5.70800497 15.3999503,5.86768696 L13.3432845,7.9243528 C13.1836025,8.08403478 12.9223155,8.08403478 12.7626335,7.9243528 L11.775682,6.93740124 C11.6161193,6.77771925 11.6161193,6.5164323 11.775682,6.35675031 Z M5.21953789,15.467687 L4.23258634,14.4807354 C4.0730236,14.3210534 4.0730236,14.0597665 4.23258634,13.9000845 L6.28913292,11.8435379 C6.44881491,11.6838559 6.71010186,11.6838559 6.86978385,11.8435379 L7.85685466,12.8303702 C8.01653665,12.9900522 8.01653665,13.2513391 7.85685466,13.4110211 L5.80018882,15.467687 C5.64062609,15.6272497 5.37921988,15.6272497 5.21953789,15.467687 Z" id="Shape" stroke="#F03E31"></path>
                <path d="M22.4548174,12.4915677 C22.4971528,12.4915677 22.5404422,12.4866783 22.5834932,12.4764224 L25.4986733,11.783195 C25.7964522,11.7123578 25.9804621,11.4135056 25.9096248,11.1157267 C25.8387876,10.8179478 25.5402932,10.6335801 25.2421565,10.7047752 L22.3269764,11.3978832 C22.0291975,11.4687205 21.8451876,11.7675727 21.9160248,12.0653516 C21.9766062,12.3201988 22.2039056,12.4915677 22.4548174,12.4915677 Z" id="Shape" fill="#F03E31"></path>
                <path d="M21.8934857,14.1500422 L24.5187578,15.2227379 C24.5873292,15.2507627 24.658405,15.2641193 24.7281689,15.2641193 C24.9466435,15.2641193 25.1536696,15.1341317 25.241441,14.919354 C25.3573565,14.636005 25.2214062,14.3124671 24.9380571,14.1966708 L22.3127851,13.1239752 C22.0291975,13.0078211 21.7057789,13.1440099 21.5901019,13.427359 C21.4741863,13.7107081 21.6101366,14.034246 21.8934857,14.1500422 Z" id="Shape" fill="#F03E31"></path>
                <path d="M22.145113,17.6741366 C22.2499379,17.843836 22.4313242,17.9372124 22.6172422,17.9372124 C22.7165814,17.9372124 22.8172323,17.9103801 22.9079851,17.8544497 C23.1684373,17.6935752 23.2490534,17.3520298 23.0882981,17.0916969 L21.6381615,14.7440497 C21.477287,14.4835975 21.1357416,14.4028621 20.8754087,14.5637366 C20.6149565,14.7246112 20.5343404,15.0661565 20.6950957,15.3264894 L22.145113,17.6741366 Z" id="Shape" fill="#F03E31"></path>
                <path d="M29.9080671,22.398405 C29.2829339,22.3748879 28.5227111,22.3530474 27.5982543,22.3330384 C23.7080725,22.2488391 16.9312412,22.198405 4.94465259,22.387559 C5.00348007,22.3947632 5.06492362,22.398405 5.12795031,22.398405 L29.9080671,22.398405 Z" id="Shape" stroke="#F03E31" fill="#F03E31"></path>
            </g>
        </g>
    </g>
</svg>