<svg height="100" width="100" xmlns="http://www.w3.org/2000/svg"><g fill="none" fill-rule="evenodd" stroke="#fff" stroke-width="2" transform="translate(27 24)"><circle cx="18.7" cy="6.7" r="4"/><g stroke-linejoin="round"><path d="M0 27h7.476v8.144h8.655v8.48h9.523v8.12h10.024" stroke-linecap="round"/><path d="M17.249 14.644l7.831-3.868 2.412-4.31L24.87 3.24a1.738 1.738 0 0 1 .337-2.51c.838-.6 2-.427 2.629.39l3.324 4.327a2 2 0 0 1 .18 2.157l-3.273 6.163 3.014 6.387 3.629-1.329a2 2 0 0 1 1.96.336l7.738 6.392a2.236 2.236 0 0 1 .314 3.13 2.222 2.222 0 0 1-3.118.334l-6.277-5.042a1 1 0 0 0-1.021-.139l-6.814 2.932L29.1 30.17a2 2 0 0 1-.205 2.05l-4.691 6.285a2.46 2.46 0 0 1-3.4.532 2.387 2.387 0 0 1-.545-3.346l3.495-4.811a1 1 0 0 0 .097-1.01l-5.115-10.98-2.227 2.973 1.326 2.394c.52.94.287 2.118-.552 2.788a1.556 1.556 0 0 1-2.34-.473l-2.306-4.25a2 2 0 0 1 .202-2.21l4.41-5.467z"/></g></g></svg>