<svg xmlns="http://www.w3.org/2000/svg" width="100" height="100"><path d="M61.816 42.773h-6.15a10.372 10.372 0 0 0-2.736-1.918v-5.601h.728c.756 0 1.476.19 2.14.566.965.546 2.14.899 2.991.899 3.23 0 5.86-2.629 5.86-5.86 0-3.23-2.63-5.859-5.86-5.859-.854 0-2.03.354-2.996.902-.66.373-1.38.563-2.145.563H43.422a4.355 4.355 0 0 1-2.145-.563c-.966-.548-2.142-.902-2.996-.902a5.866 5.866 0 0 0-5.86 5.86c0 3.23 2.63 5.859 5.86 5.859.852 0 2.026-.353 2.991-.9a4.356 4.356 0 0 1 2.14-.565h.729v5.601a10.37 10.37 0 0 0-2.737 1.918h-7.867a4.401 4.401 0 0 0-4.142-2.93h-2.93c-.81 0-1.465.657-1.465 1.466v17.578c0 .809.656 1.465 1.465 1.465h2.93a4.401 4.401 0 0 0 4.142-2.93h7.867c1.916 1.87 4.48 2.93 7.131 2.93 2.652 0 5.215-1.06 7.131-2.93h3.22c.808 0 1.466.657 1.466 1.465v2.93c0 .808.655 1.464 1.464 1.464h11.72c.808 0 1.464-.656 1.464-1.465v-5.859c0-7.27-5.914-13.184-13.184-13.184zM31.328 56.266c0 .85-.657 1.543-1.464 1.543H27.42V42.387h2.443c.807 0 1.464.692 1.464 1.542v12.337zm12.084-23.534c-1.25 0-2.489.22-3.582.839-.649.367-1.329.52-1.549.52-1.615 0-3.267-.975-3.267-3.155 0-2.18 1.652-3.273 3.267-3.273.221 0 .902.153 1.552.52 1.09.618 2.33.803 3.589.803h10.226c1.259 0 2.5-.185 3.59-.802.649-.368 1.33-.521 1.551-.521 1.615 0 3.532.976 3.532 3.273s-1.917 3.154-3.532 3.154c-.22 0-.9-.152-1.549-.52-1.093-.618-2.332-.838-3.582-.838h-2.193c-.81 0-1.465.55-1.465 1.358v5.862a9.987 9.987 0 0 0-2.93 0V34.09c0-.809-.656-1.358-1.465-1.358h-2.193zm29.183 28.11H62.87v-1.465a4.4 4.4 0 0 0-4.395-4.394h-3.432c-.415 0-.81.176-1.088.484-1.42 1.577-3.345 2.445-5.42 2.445-2.074 0-4-.868-5.42-2.445a1.465 1.465 0 0 0-1.088-.484h-8.238v-9.79h8.238c.415 0 .81-.176 1.088-.484 1.42-1.577 3.346-2.445 5.42-2.445 2.075 0 4 .868 5.42 2.445.278.308.673.484 1.088.484h7.298c5.654 0 10.254 5.6 10.254 11.254v4.395zm-2.187 7.492a40.387 40.387 0 0 0-1.527-2.42 1.465 1.465 0 0 0-2.41 0 40.387 40.387 0 0 0-1.527 2.42c-1.49 2.569-1.663 3.668-1.663 4.271A4.4 4.4 0 0 0 67.676 77a4.4 4.4 0 0 0 4.394-4.395c0-.603-.172-1.702-1.662-4.271zm-2.732 6.634a2.037 2.037 0 0 1-2.035-2.033c.016-.622.863-2.396 2.035-4.371 1.171 1.973 2.018 3.746 2.035 4.37a2.037 2.037 0 0 1-2.035 2.034z" fill="#A40000"/></svg>