<svg xmlns="http://www.w3.org/2000/svg" width="100" height="100"><g fill="#A40000" transform="translate(16 25)"><path d="M67.644 26.29C61.995 16.18 52.709 9.996 41.824 8.85 36.367 1.957 19.244.21 18.505.14c-.481-.05-.966.16-1.26.551-.298.39-.37.905-.194 1.362 1.679 4.358 3.399 9.314 3.854 11.342-3.11 1.423-5.827 2.936-7.58 4.197-3.8-6.08-11.557-6.156-11.912-6.156-.781 0-1.413.632-1.413 1.413 0 8.187 2.854 12.296 4.762 14.13C2.854 28.813 0 32.922 0 41.11c0 .781.632 1.413 1.413 1.413.355 0 8.112-.076 11.912-6.156 2.328 1.676 6.353 3.794 10.751 5.555-.972 1.572-1.468 4.072-1.468 7.666 0 .781.632 1.413 1.413 1.413.42 0 10.029-.083 14.814-5.697 12.17-.235 22.649-6.608 28.809-17.635.239-.428.239-.95 0-1.377zM20.52 3.235c4.748.688 12.542 2.379 16.947 5.405-4.061.159-9.243 1.694-13.941 3.621-.626-2.484-2.014-6.364-3.006-9.026zm4.947 44.859c.188-3.93 1.095-4.935 1.35-5.14 2.753.966 5.542 1.734 8.076 2.12-3.066 2.156-7.244 2.827-9.426 3.02zm1.185-5.19l.001-.007.022.008c-.015-.002-.006.002-.023 0zm11.499-.38c-8.257 0-21.758-6.78-24.258-9.339a1.41 1.41 0 0 0-2.308.428c-1.907 4.423-6.391 5.63-8.722 5.96.442-8.855 4.632-11.221 4.848-11.336.465-.238.752-.72.759-1.243a1.425 1.425 0 0 0-.758-1.27c-.189-.1-4.405-2.45-4.849-11.328 2.33.34 6.83 1.566 8.722 5.951a1.413 1.413 0 0 0 2.308.428c2.5-2.558 16-9.338 24.258-9.338 11.156 0 20.82 5.654 26.631 15.543-5.812 9.89-15.475 15.543-26.631 15.543z"/><path d="M42.39 26.98c0-6.503 2.565-10.485 2.591-10.525a1.414 1.414 0 0 0-2.354-1.563c-.126.187-3.063 4.68-3.063 12.087s2.937 11.9 3.063 12.088a1.411 1.411 0 0 0 1.96.392c.65-.434.824-1.31.391-1.96-.026-.038-2.588-3.958-2.588-10.52zm-3.461-12.482a1.414 1.414 0 0 0-1.954.394c-.126.187-3.063 4.68-3.063 12.087 0 3.956.852 7.065 1.569 8.976a1.413 1.413 0 0 0 2.646-.99c-.633-1.694-1.39-4.453-1.39-7.986 0-6.502 2.566-10.484 2.592-10.524a1.416 1.416 0 0 0-.4-1.957z"/><circle cx="50.867" cy="22.74" r="2.826"/></g></svg>