<svg height="100" width="100" xmlns="http://www.w3.org/2000/svg"><path d="M68.037 66.353l-.917-2.721c-.098-.29-.209-.57-.33-.846a14.256 14.256 0 0 0 5.177-11.035c0-3.4-1.214-6.7-3.418-9.294a14.425 14.425 0 0 0-7.304-4.606l3.535-5.588a.819.819 0 0 0-.254-1.13l-1.34-.847.834-1.317 1.339.847a.816.816 0 0 0 1.13-.255l1.728-2.732a.819.819 0 0 0-.254-1.13l-7.229-4.572a.82.82 0 0 0-1.13.254l-1.728 2.733a.82.82 0 0 0 .254 1.13l1.34.846-.834 1.318-1.34-.847a.819.819 0 0 0-1.129.254L44.374 45.46l-.995-.629a.819.819 0 0 0-1.13.254l-1.728 2.733a.819.819 0 0 0 .254 1.13l10.603 6.706a.816.816 0 0 0 1.13-.254l1.728-2.733a.819.819 0 0 0-.254-1.13l-.995-.629 2.909-4.598a5.707 5.707 0 0 1 7.402 5.441 5.723 5.723 0 0 1-3.544 5.276 10.066 10.066 0 0 0-2.158-.235H40.834a5.585 5.585 0 0 0-5.579 5.578.82.82 0 0 0 .82.819h12.16c-.057.146-.111.293-.162.443l-.902 2.679H33.43a4.404 4.404 0 0 0-4.398 4.398v3.17c0 .452.366.818.819.818h41.162a.819.819 0 0 0 .819-.818v-3.17a4.404 4.404 0 0 0-3.796-4.356zM60.55 22.948l5.845 3.697-.853 1.349-1.339-.847-3.167-2.003h-.001l-1.338-.847zm2.085 5.145l-.833 1.318-1.783-1.128.833-1.317zM51.56 53.833l-9.218-5.831.853-1.35.993.63h.002l7.228 4.572.995.63-.853 1.348zm.042-3.8l-.195-.124-5.65-3.573 11.356-17.953 1.338.846 3.167 2.004 1.34.846-3.722 5.883-2.567 4.06-5.067 8.01zm13.332 1.718c0-4.047-3.292-7.339-7.339-7.339-.171 0-.342.006-.512.018l3.211-5.077.027-.041a12.774 12.774 0 0 1 6.98 4.206 12.728 12.728 0 0 1 3.027 8.233c0 3.705-1.57 7.142-4.337 9.565l-.03-.044a9.702 9.702 0 0 0-.148-.216l-.05-.07a10.447 10.447 0 0 0-.17-.23l-.025-.034a10.047 10.047 0 0 0-3.726-2.99 7.365 7.365 0 0 0 3.092-5.981zm-8.731 6.794a8.495 8.495 0 0 1 5.76 1.107 8.489 8.489 0 0 1 3.604 4.503l.727 2.156H48.899l.726-2.156c.164-.485.37-.946.61-1.382l.004-.007a8.412 8.412 0 0 1 5.879-4.205l.086-.016zm-19.226 3.006a3.947 3.947 0 0 1 3.856-3.122h11.262a10.039 10.039 0 0 0-3.044 3.122H36.978zM70.195 73.06H30.67v-2.35a2.764 2.764 0 0 1 2.762-2.762h34.002a2.764 2.764 0 0 1 2.761 2.761v2.35z" fill="#a40000" stroke="#a40000" stroke-width=".75"/></svg>