<svg height="100" width="100" xmlns="http://www.w3.org/2000/svg"><g fill="none" fill-rule="evenodd"><g stroke="#a40000" stroke-width="2"><g stroke-linecap="round"><path d="M57.494 42.087l1.448-3.513a6 6 0 0 1 5.547-3.713h4.313a7 7 0 0 0 7-7V27M63.6 24.04v.218a6.098 6.098 0 0 0 6.098 6.098m.012-6.316v10.677M42.294 42.087l-1.448-3.513a6 6 0 0 0-5.547-3.713h-4.312a7 7 0 0 1-7-7V27m12.201-2.96v.218a6.098 6.098 0 0 1-6.098 6.098m-.012-6.316v10.677"/></g><g stroke-linecap="round"><path d="M50.021 40.662c-7.298 0-13.566 5.605-13.566 13.103 0 5.545 3.008 7.389 3.008 10.252 0 8.327 5.627 8.863 10.558 8.863"/><path d="M49.669 40.662c7.298 0 13.566 5.605 13.566 13.103 0 5.545-3.007 7.389-3.007 10.252 0 8.327-5.628 8.863-10.56 8.863"/></g><path d="M71.424 46.668h2.4c-1.195 3.37-4.415 5.81-8.19 5.81h-2.399c1.195-3.37 4.415-5.81 8.19-5.81zm-43.166 0h-2.4c1.196 3.37 4.416 5.81 8.19 5.81h2.4c-1.196-3.37-4.416-5.81-8.19-5.81z" stroke-linecap="round" stroke-linejoin="round"/><path d="M46.294 64.353c.357 1.742 1.609 2.614 3.756 2.614 2.148 0 3.366-.872 3.656-2.614" stroke-linecap="round"/><path d="M50 68.059v4.235" stroke-linecap="square"/></g><g fill="#a40000" fill-rule="nonzero"><circle cx="56.308" cy="53.719" r="1.551"/><circle cx="43.693" cy="53.719" r="1.551"/></g></g></svg>