<svg height="100" width="100" xmlns="http://www.w3.org/2000/svg"><g fill="none"><path d="M50.165 23c-9.436 0-17.112 7.676-17.112 17.112 0 11.71 15.314 28.9 15.966 29.627.612.682 1.681.68 2.292 0 .652-.726 15.966-17.917 15.966-29.627C67.277 30.676 59.601 23 50.165 23z" stroke="#fff" stroke-width="2.6"/><path d="M45 32.978c0-.514.464-.978 1.198-.978h4.913c3.105 0 5.549 1.491 5.549 5.5v.147c0 4.009-2.518 5.549-5.744 5.549h-2.738v5.67c0 .66-.807 1.003-1.59 1.003-.806 0-1.588-.342-1.588-1.002v-15.89zm3.178 1.809v5.915h2.738c1.588 0 2.566-.904 2.566-2.81v-.294c0-1.907-.978-2.811-2.566-2.811z" fill="#fff"/></g></svg>