<?xml version="1.0" encoding="UTF-8"?>
<svg width="150px" height="150px" viewBox="0 0 150 150" version="1.1" xmlns="http://www.w3.org/2000/svg" xmlns:xlink="http://www.w3.org/1999/xlink">
    <!-- Generator: Sketch 64 (93537) - https://sketch.com -->
    <title>ARAG-s</title>
    <desc>Created with Sketch.</desc>
    <defs>
        <radialGradient cx="29.1084165%" cy="26.4099343%" fx="29.1084165%" fy="26.4099343%" r="22.8324534%" gradientTransform="translate(0.291084,0.264099),rotate(58.670482),scale(1.000000,1.284000),translate(-0.291084,-0.264099)" id="radialGradient-1">
            <stop stop-color="#FFFBE0" offset="0%"></stop>
            <stop stop-color="#FFF5AD" offset="13.5121114%"></stop>
            <stop stop-color="#FED000" offset="76.6331028%"></stop>
            <stop stop-color="#FFCB01" offset="100%"></stop>
        </radialGradient>
        <path d="M7.6056338,0.304225352 C11.6619718,0.304225352 14.9746479,3.61690141 14.9746479,7.67323944 L14.9746479,26.1295775 L10.715493,26.1295775 L10.715493,17.6112676 L4.52957746,17.6112676 L4.52957746,26.1295775 L0.270422535,26.1295775 L0.270422535,7.67323944 C0.270422535,3.61690141 3.54929577,0.304225352 7.6056338,0.304225352 C7.63943662,0.304225352 7.6056338,0.304225352 7.6056338,0.304225352 Z M4.52957746,13.3183099 L10.715493,13.3183099 L10.715493,7.63943662 C10.715493,5.94929577 9.32957746,4.56338028 7.63943662,4.52957746 L7.63943662,4.52957746 C5.94929577,4.52957746 4.52957746,5.91549296 4.52957746,7.63943662 L4.52957746,13.3183099 L4.52957746,13.3183099 Z M25.115493,0.743661972 C29.7464789,0.743661972 33.5323944,4.52957746 33.5323944,9.16056338 C33.5323944,11.8309859 32.2816901,14.1971831 30.3549296,15.7183099 C30.3549296,15.7183099 30.2873239,15.7521127 30.2197183,15.8197183 L33.7352113,26.0957746 L29.2056338,26.0957746 L26.2309859,17.4422535 C25.9267606,17.5098592 25.3859155,17.543662 25.0816901,17.543662 L22.6140845,17.543662 L22.6140845,26.0619718 L18.3549296,26.0619718 L18.3549296,0.676056338 C18.3549296,0.743661972 25.115493,0.743661972 25.115493,0.743661972 Z M22.6140845,13.284507 L25.0816901,13.284507 C27.3802817,13.284507 29.2394366,11.4253521 29.2394366,9.12676056 C29.2394366,6.82816901 27.3802817,4.96901408 25.115493,4.96901408 L22.6478873,4.96901408 L22.6140845,13.284507 Z M44.0788732,0.304225352 C48.1352113,0.304225352 51.4478873,3.61690141 51.4478873,7.67323944 L51.4478873,26.1295775 L47.1887324,26.1295775 L47.1887324,17.6112676 L41.0028169,17.6112676 L41.0028169,26.1295775 L36.743662,26.1295775 L36.743662,7.67323944 C36.7098592,3.61690141 39.9887324,0.304225352 44.0788732,0.304225352 C44.0788732,0.304225352 44.0450704,0.304225352 44.0788732,0.304225352 Z M40.9690141,13.3183099 L47.1549296,13.3183099 L47.1549296,7.63943662 C47.1549296,5.94929577 45.7690141,4.56338028 44.0788732,4.52957746 L44.0788732,4.52957746 C42.3887324,4.52957746 41.0028169,5.91549296 41.0028169,7.63943662 L41.0028169,13.3183099 L40.9690141,13.3183099 Z M62.0619718,0.304225352 C58.0056338,0.304225352 54.6929577,3.61690141 54.6929577,7.67323944 L54.6929577,19.2338028 C54.6929577,23.2901408 57.971831,26.6028169 62.028169,26.6028169 C62.028169,26.6028169 62.028169,26.6028169 62.028169,26.6028169 C66.084507,26.6028169 69.3971831,23.2901408 69.3971831,19.2338028 L69.3971831,13.3521127 L61.9605634,13.3521127 L61.9605634,17.6112676 L65.1380282,17.6112676 L65.1380282,19.2338028 C65.1380282,20.9239437 63.7521127,22.343662 62.0619718,22.343662 L62.0619718,22.343662 C60.371831,22.343662 58.9859155,20.9577465 58.9859155,19.2338028 L58.9859155,7.67323944 C58.9859155,5.98309859 60.371831,4.5971831 62.0957746,4.5971831 L62.0957746,4.5971831 C63.8197183,4.5971831 65.171831,6.01690141 65.171831,7.84225352 L65.171831,8.61971831 L69.4309859,8.61971831 L69.4309859,7.84225352 C69.4309859,5.81408451 68.6535211,3.92112676 67.3014085,2.50140845 C65.915493,1.08169014 64.056338,0.304225352 62.0619718,0.304225352 C62.0957746,0.304225352 62.0619718,0.304225352 62.0619718,0.304225352 Z" id="path-2"></path>
        <filter x="-4.7%" y="-8.6%" width="112.3%" height="132.3%" filterUnits="objectBoundingBox" id="filter-3">
            <feMorphology radius="0.253521127" operator="dilate" in="SourceAlpha" result="shadowSpreadOuter1"></feMorphology>
            <feOffset dx="1" dy="2" in="shadowSpreadOuter1" result="shadowOffsetOuter1"></feOffset>
            <feGaussianBlur stdDeviation="1" in="shadowOffsetOuter1" result="shadowBlurOuter1"></feGaussianBlur>
            <feComposite in="shadowBlurOuter1" in2="SourceAlpha" operator="out" result="shadowBlurOuter1"></feComposite>
            <feColorMatrix values="0 0 0 0 0.850980392   0 0 0 0 0.596078431   0 0 0 0 0  0 0 0 1 0" type="matrix" in="shadowBlurOuter1"></feColorMatrix>
        </filter>
    </defs>
    <g id="ARAG-s" stroke="none" stroke-width="1" fill="none" fill-rule="evenodd">
        <g id="Group-126" transform="translate(27.000000, 27.000000)" fill-rule="nonzero">
            <circle id="Ring" fill="url(#radialGradient-1)" cx="47.8985915" cy="47.8985915" r="46.9859155"></circle>
            <path d="M47.8985915,-2.34178873e-14 C74.3522532,-2.34178873e-14 95.7971831,21.4449299 95.7971831,47.8985915 C95.7971831,74.3522532 74.3522532,95.7971831 47.8985915,95.7971831 C21.4449299,95.7971831 7.47170713e-13,74.3522532 7.47170713e-13,47.8985915 C7.47170713e-13,21.4449299 21.4449299,-2.34178873e-14 47.8985915,-2.34178873e-14 Z M47.8985915,3.27887324 C23.2558016,3.27887324 3.27887324,23.2558016 3.27887324,47.8985915 C3.27887324,72.5413815 23.2558016,92.5183099 47.8985915,92.5183099 C72.5413815,92.5183099 92.5183099,72.5413815 92.5183099,47.8985915 C92.5183099,23.2558016 72.5413815,3.27887324 47.8985915,3.27887324 Z" id="Combined-Shape" fill="#000000"></path>
            <g id="Wortmarke_3_" transform="translate(12.878873, 34.174648)">
                <g id="Shape">
                    <use fill="black" fill-opacity="1" filter="url(#filter-3)" xlink:href="#path-2"></use>
                    <use stroke="#FFF042" stroke-width="0.507042254" fill="#000000" xlink:href="#path-2"></use>
                </g>
            </g>
        </g>
    </g>
</svg>