<svg height="100" width="100" xmlns="http://www.w3.org/2000/svg"><g fill="#a40000" stroke="#a40000" stroke-width=".4"><path d="M57.482 57.892H30.92a4.926 4.926 0 0 0-4.92 4.92v7.257c0 .513.416.93.93.93h34.542a.93.93 0 0 0 .93-.93v-7.257a4.926 4.926 0 0 0-4.92-4.92zm3.06 11.247H27.86v-6.327a3.064 3.064 0 0 1 3.06-3.06h26.562a3.064 3.064 0 0 1 3.06 3.06zM60.45 29.806L50.186 19.542a.93.93 0 0 0-1.315 0L36.056 32.358a.93.93 0 0 0 0 1.315l10.263 10.263a.927.927 0 0 0 1.315 0L60.45 31.122a.93.93 0 0 0 0-1.315zM46.977 41.964l-8.949-8.949 11.5-11.5 8.949 8.949z"/><path d="M47.55 42.537L37.455 32.443a2.898 2.898 0 0 0-4.094 0 2.876 2.876 0 0 0-.848 2.047c0 .773.302 1.5.848 2.047L43.456 46.63a2.886 2.886 0 0 0 2.047.847c.74 0 1.482-.283 2.046-.847a2.876 2.876 0 0 0 .848-2.046c0-.774-.3-1.5-.848-2.047zm-1.316 2.778a1.036 1.036 0 0 1-1.463 0L34.677 35.22c-.195-.195-.303-.455-.303-.731s.108-.537.303-.732a1.036 1.036 0 0 1 1.464 0L46.234 43.85c.404.404.404 1.06 0 1.464zM63.143 26.943L53.05 16.849a2.876 2.876 0 0 0-2.047-.848c-.773 0-1.5.301-2.047.848a2.875 2.875 0 0 0-.848 2.047c0 .773.301 1.5.848 2.047L59.05 31.036a2.886 2.886 0 0 0 2.046.846c.742 0 1.483-.282 2.047-.846a2.898 2.898 0 0 0 0-4.093zm-1.315 2.778a1.036 1.036 0 0 1-1.463 0L50.27 19.628a1.028 1.028 0 0 1-.303-.732c0-.277.108-.536.303-.732.196-.195.456-.303.732-.303.276 0 .536.108.732.303l10.093 10.093c.404.404.404 1.06 0 1.464zM80.013 58.726L55.772 34.484a.93.93 0 0 0-1.316 0l-3.459 3.46a.93.93 0 0 0 0 1.314L75.24 63.5a3.365 3.365 0 0 0 2.387.987c.864 0 1.729-.33 2.387-.987a3.38 3.38 0 0 0 0-4.774zm-1.315 3.459a1.518 1.518 0 0 1-2.144 0L52.97 38.6l2.144-2.144L78.698 60.04a1.518 1.518 0 0 1 0 2.144z"/></g></svg>