<svg height="100" width="100" xmlns="http://www.w3.org/2000/svg"><path d="M76.925 74.74l-5.08-11.65a2.706 2.706 0 0 0-1.757-1.723l-13.111-4.098-1.466-3.664L58.85 48.6a.897.897 0 0 0 .133-.323l.756-3.777H60.8c1.488 0 2.7-1.211 2.7-2.7v-3.6c0-1.489-1.212-2.7-2.7-2.7v-5.4c0-2.481-2.019-4.5-4.5-4.5h-1.891c-.419-2.051-2.237-3.6-4.41-3.6s-3.99 1.549-4.408 3.6h-1.058c-1.02 0-1.942.565-2.406 1.474a2.687 2.687 0 0 0-.212 1.874c-.012.004-.023.005-.034.008-1.066.347-1.781 1.386-1.781 2.587V35.5h-.9a2.703 2.703 0 0 0-2.7 2.7v3.6c0 1.489 1.211 2.7 2.7 2.7h1.062l.755 3.776a.89.89 0 0 0 .133.323l3.326 4.987-1.669 3.749-12.896 4.031c-.826.258-1.483.902-1.728 1.649L23.074 74.74A.9.9 0 0 0 23.9 76h52.2a.9.9 0 0 0 .825-1.26zM59.9 37.3h.9a.9.9 0 0 1 .9.9v3.6a.9.9 0 0 1-.9.9h-.9zm-19.8 5.4h-.9a.901.901 0 0 1-.9-.9v-3.6c0-.496.404-.9.9-.9h.9zM50 23.8c1.173 0 2.174.752 2.546 1.8h-5.092A2.705 2.705 0 0 1 50 23.8zm-6.268 4.091a.882.882 0 0 1 .801-.491H56.3c1.488 0 2.7 1.211 2.7 2.7v5.4h-2.093a16.249 16.249 0 0 1-13.101-6.672.881.881 0 0 1-.074-.937zM41.9 35.5v-3.957c0-.517.29-.794.538-.875.177-.058.438-.059.673.265l.042-.031a18.059 18.059 0 0 0 7.748 5.355v.143c0 .496-.404.9-.9.9h-3.46a4.46 4.46 0 0 1-1.671-.322L41.9 35.79zm.848 12.249l-.848-4.238v-5.782l2.3.92c.747.3 1.535.451 2.34.451H50a2.695 2.695 0 0 0 2.66-2.312 17.95 17.95 0 0 0 4.247.512H58.1v6.21l-.847 4.239-3.347 5.02L50 54.33l-3.907-1.564zm12.496 10.034L50 63.027l-5.367-5.366 1.337-3.004 3.695 1.478a.9.9 0 0 0 .67.001l3.664-1.466zm1.98 16.417h-31.95l4.588-10.542a.901.901 0 0 1 .585-.574l7.853-2.453v5.56a4.508 4.508 0 0 0-3.6 4.409v1.8a.9.9 0 0 0 .9.9h1.8v-1.8h-.9v-.9c0-1.489 1.211-2.7 2.7-2.7s2.7 1.211 2.7 2.7v.9H41v1.8h1.8a.9.9 0 0 0 .9-.9v-1.8a4.508 4.508 0 0 0-3.6-4.41v-6.122l3.205-1.001 6.07 5.88c.06.058.132.092.202.13.03.017.056.044.089.057a.898.898 0 0 0 .97-.198l5.915-5.915 3.349 1.047v7.023a4.508 4.508 0 0 0-3.6 4.409c0 1.017.352 1.946.923 2.7zm3.576 0c-1.489 0-2.7-1.211-2.7-2.7s1.211-2.7 2.7-2.7 2.7 1.211 2.7 2.7-1.212 2.7-2.7 2.7zm3.576 0a4.453 4.453 0 0 0 .924-2.7 4.508 4.508 0 0 0-3.6-4.41v-6.46l7.852 2.455c.276.086.494.3.614.649l4.56 10.466z" fill="#a40000" stroke="#a40000" stroke-width=".5"/></svg>