<svg height="100" width="100" xmlns="http://www.w3.org/2000/svg"><g fill="none" fill-rule="evenodd" stroke="#a40000"><g fill="#a40000" fill-rule="nonzero" stroke-width=".5"><path d="M71.591 64.544a9.669 9.669 0 0 0-6.493-7.598L57.52 54.42l-.727-3.03a.768.768 0 0 0-1.114-.496c-.517.281-.773.88-.62 1.449l.7 2.605-1.315 5.257-3.557-4.269h-2.588l-3.557 4.269-1.314-5.257.7-2.605a1.274 1.274 0 0 0-.62-1.45.768.768 0 0 0-1.115.496l-.727 3.031-7.578 2.526a9.669 9.669 0 0 0-6.492 7.598l-1.554 9.32a2 2 0 0 0 1.973 2.329H71.17a2 2 0 0 0 1.972-2.329zm-21.117 9.887V60.34h-1.762V74.43H35.594l.784-7.838-1.753-.175-.802 8.014h-4.909a1 1 0 0 1-.986-1.164l1.405-8.433a7.912 7.912 0 0 1 5.312-6.217l5.26-1.754v8.004a3.519 3.519 0 0 0-2.642 3.398c0 1.943 1.58 3.523 3.523 3.523s3.523-1.58 3.523-3.523a3.519 3.519 0 0 0-2.643-3.398v-8.591l.258-.086 1.951 7.806 5.25-6.3h.936l5.25 6.3 1.951-7.806.258.086v7.04l-3.338 1.67a3.505 3.505 0 0 0-1.947 3.15v1.01a3.526 3.526 0 0 0 3.523 3.523h.88v-1.761h-.88c-.971 0-1.761-.79-1.761-1.762v-1.01c0-.67.373-1.275.973-1.575l3.43-1.715 3.43 1.715c.6.3.974.905.974 1.576v1.009c0 .971-.79 1.762-1.762 1.762h-.88v1.761h.88c.878 0 1.67-.334 2.288-.866l.262 2.627zm-9.688-7.926c.971 0 1.761.79 1.761 1.761 0 .972-.79 1.762-1.761 1.762-.972 0-1.762-.79-1.762-1.762 0-.971.79-1.761 1.762-1.761zm24.576 7.926l-.801-8.014-.426.042a3.506 3.506 0 0 0-1.517-1.473l-3.337-1.668v-6.454l5.26 1.754a7.91 7.91 0 0 1 5.312 6.217l1.405 8.432a1 1 0 0 1-.986 1.164z"/><path d="M38.552 45.73a9.629 9.629 0 0 0 2.449 4.133l3.434 3.435a4.376 4.376 0 0 0 3.114 1.29h4.127a4.376 4.376 0 0 0 3.114-1.29l3.434-3.435a9.642 9.642 0 0 0 2.449-4.133c.448-1.638.73-3.936.848-6.893h1.302V35.21c0-7.285-5.926-13.211-13.21-13.211C42.327 22 36.4 27.926 36.4 35.211v2.642a4.44 4.44 0 0 0-1.761 3.523c0 2.26 1.717 4.106 3.912 4.354zm20.749-2.717a7.878 7.878 0 0 1-2.322 5.605l-3.434 3.434c-.5.499-1.163.774-1.869.774h-4.127c-.706 0-1.37-.275-1.869-.774l-3.434-3.434a7.878 7.878 0 0 1-2.322-5.605v-4.28h6.513c2.06 0 4.058-.55 5.818-1.6a11.323 11.323 0 0 0 5.817 1.6H59.3zM38.163 35.21c0-6.313 5.136-11.45 11.45-11.45 6.313 0 11.449 5.137 11.449 11.45v1.85a4.4 4.4 0 0 0-.88-.089h-2.11a9.574 9.574 0 0 1-5.33-1.613l-.487-.326-.49.326a9.571 9.571 0 0 1-5.328 1.613h-7.393a4.4 4.4 0 0 0-.881.09zm0 3.685v4.117c0 .288.017.573.041.857a2.639 2.639 0 0 1-1.803-2.494c0-1.147.74-2.115 1.762-2.48z"/></g><path d="M38.603 44.785L46.428 49h6.126" stroke-linecap="round" stroke-width="2"/></g></svg>