<svg height="100" width="100" xmlns="http://www.w3.org/2000/svg"><g fill="#fff" stroke="#fff" stroke-width=".8" transform="translate(17 33)"><circle cx="35.345" cy="6.537" r="1"/><path d="M60.022 7.762a17.078 17.078 0 0 0-.633-.693l-.179-.212a.79.79 0 0 0-.154-.134c.538-.471 1.09-.927 1.634-1.376l.66-.546a.798.798 0 1 0-1.02-1.227l-.656.542c-.596.492-1.2.992-1.793 1.515a68.87 68.87 0 0 0-1.793-1.516c-.22-.18-.438-.36-.655-.54a.798.798 0 0 0-1.02 1.226 161.154 161.154 0 0 0 1.135.938H40.074C39.385 2.511 36.512.083 33.082.083c-3.942 0-7.15 3.207-7.15 7.15a7.14 7.14 0 0 0 2.765 5.64H6.071c.049-.988.178-1.624.181-1.643a.798.798 0 1 0-1.56-.336c-.018.087-.174.84-.228 1.98H1.06c-.376 0-.701.262-.78.63-.064.294-1.503 7.266 2.808 12.604 3.09 3.828 8.289 5.768 15.452 5.768 7.052 0 12.188-1.937 15.266-5.757 3.901-4.843 3.189-11.088 2.914-12.735a7.204 7.204 0 0 0 2.118-1.918c1.537.67 3.252 1.006 5.112 1.006 2.374 0 4.982-.546 7.75-1.636.868-.342 1.681-.708 2.423-1.072-2.14 2.836-4.263 6.584-4.263 10.87 0 8.272 7.854 8.367 7.933 8.367a.82.82 0 0 0 .087-.005.82.82 0 0 0 .087.005c.08 0 7.933-.095 7.933-8.368 0-5.387-3.355-9.925-5.88-12.87zm-2.088 7.984l-.036.002-.04-.002a3.16 3.16 0 0 1-1.268-.343c-.819-.434-1.217-1.2-1.217-2.343 0-1.593.77-3.234 2.425-5.164l.01-.016.073-.07c.104.102.205.207.306.311 1.523 1.833 2.236 3.409 2.237 4.939 0 1.122-.385 1.88-1.175 2.32-.63.35-1.295.365-1.315.366zm-25.378 9.382c-2.76 3.419-7.476 5.152-14.015 5.152-6.65 0-11.428-1.737-14.202-5.163-3.132-3.87-2.823-8.9-2.598-10.648h2.725c.111 2.202.71 5.062 2.701 7.528 2.721 3.37 7.293 5.08 13.586 5.08a.798.798 0 0 0 0-1.596c-5.78 0-9.93-1.506-12.336-4.475-1.699-2.099-2.228-4.592-2.34-6.537h29.174c.222 2.166.29 6.962-2.695 10.66zm.526-12.341a5.56 5.56 0 0 1-5.554-5.554 5.56 5.56 0 0 1 5.554-5.555 5.56 5.56 0 0 1 5.555 5.555 5.56 5.56 0 0 1-5.555 5.554zm6.56-2.714a7.105 7.105 0 0 0 .588-2.739h15.055c-3.464 1.97-10.19 5.01-15.643 2.74zm18.325 17.333a.793.793 0 0 0-.086.005.817.817 0 0 0-.086-.005c-.016 0-1.604-.01-3.194-.854-2.086-1.106-3.144-3.098-3.144-5.919 0-2.423.75-4.873 2.322-7.505.045 4.163 4.039 4.213 4.08 4.213l.04-.002.04.002c.04 0 3.998-.05 4.077-4.158 1.55 2.611 2.29 5.044 2.29 7.45 0 6.657-6.073 6.771-6.339 6.773z"/></g></svg>