<svg height="100" width="100" xmlns="http://www.w3.org/2000/svg"><g fill="none" fill-rule="evenodd"><g stroke="#a40000" transform="translate(27 24)"><path d="M23.19 0C10.401 0 0 10.403 0 23.189c0 12.788 10.402 23.19 23.19 23.19h.022c.63 0 1.09-.105 1.371-.313.152-.112.353-.32.353-.831 0-.35 0-1.169-1.764-1.227-11.462 0-20.802-9.339-20.802-20.819 0-11.479 9.34-20.818 20.82-20.818s20.817 9.339 20.817 20.818c.082.796.423 1.141 1.175 1.141.746 0 1.106-.358 1.2-1.196C46.379 10.403 35.977 0 23.19 0M30.273 41.563c-.653 0-1.186.532-1.186 1.185v1.224a2.411 2.411 0 0 0 2.408 2.407h7.082l-2.18 3.88a1.187 1.187 0 0 0 .454 1.614c.558.312 1.308.094 1.615-.453l2.828-5.04h3.903a1.187 1.187 0 0 0 0-2.371h-3.903l-2.828-5.04c-.31-.55-1.063-.765-1.614-.454a1.186 1.186 0 0 0-.453 1.614l2.178 3.88h-7.12v-1.26c0-.654-.531-1.186-1.184-1.186" fill="#a40000" stroke-width=".3"/><circle cx="23.3" cy="23.3" r="14.25" stroke-width="2.5"/></g><path d="M53.976 45.665H52.11V43.8a1 1 0 0 0-1-1h-1.446a1 1 0 0 0-1 1v1.865H46.8a1 1 0 0 0-1 1v1.446a1 1 0 0 0 1 1h1.865v1.865a1 1 0 0 0 1 1h1.446a1 1 0 0 0 1-1V49.11h1.865a1 1 0 0 0 1-1v-1.446a1 1 0 0 0-1-1z" fill="#a40000" fill-rule="nonzero"/></g></svg>