<?xml version="1.0" encoding="UTF-8"?>
<svg width="100px" height="100px" viewBox="0 0 100 100" version="1.1" xmlns="http://www.w3.org/2000/svg" xmlns:xlink="http://www.w3.org/1999/xlink">
    <!-- Generator: Sketch 64 (93537) - https://sketch.com -->
    <title>avion</title>
    <desc>Created with Sketch.</desc>
    <g id="avion" stroke="none" stroke-width="1" fill="none" fill-rule="evenodd">
        <path d="M44.14564,31.1479789 L44.3321598,31.2290348 L59.393,38.6 L64.0300925,36.9541982 C67.6398587,35.6727115 71.5464219,35.4984185 75.2502115,36.4478939 L75.693661,36.5672261 L78.8887955,37.4680241 C81.1391879,38.1024728 82.4491691,40.4410985 81.8147204,42.6914909 C81.4505975,43.9830365 80.4957258,45.0254786 79.2410041,45.5012401 L79.2410041,45.5012401 L61.3223745,52.2951268 L54.979487,65.219016 C54.4194567,66.3600932 53.4659199,67.25657 52.2991851,67.7464673 L52.2991851,67.7464673 L52.063049,67.8389777 L47.1496564,69.6283569 C45.9820364,70.0535855 44.6907775,69.4517584 44.2655489,68.2841384 C44.1103358,67.8579444 44.0875568,67.3947902 44.2001995,66.9554225 L44.2001995,66.9554225 L46.6143745,57.5371268 L33.719228,62.3584569 C28.5747709,64.2816543 22.8530623,61.7666756 20.7717181,56.7213929 L20.7717181,56.7213929 L20.6655578,56.4535257 L18.213076,50.0048898 C17.5841162,48.3510825 18.3936942,46.4980008 20.0344751,45.8358022 L20.0344751,45.8358022 L21.9823128,45.0496794 C23.0906059,44.6023862 24.3549741,44.7994711 25.2745506,45.5628609 L25.2745506,45.5628609 L29.6193745,49.1691268 L44.298,43.958 L35.3870696,37.5027073 C34.3807785,36.7736434 34.1560415,35.3668603 34.8851053,34.3605692 C35.1103046,34.0497377 35.4106146,33.8025655 35.7566199,33.6412967 L35.9332944,33.5679239 L42.5692603,31.137269 C43.0809038,30.9498617 43.6408267,30.9552256 44.14564,31.1479789 Z M75.0152853,38.9734277 C71.6789993,38.0328352 68.13307,38.1504815 64.8664659,39.3101437 L64.8664659,39.3101437 L29.1166,52.0015403 L23.6777019,47.4864187 C23.465492,47.3102518 23.1737147,47.2647706 22.9179547,47.3679921 L22.9179547,47.3679921 L20.970117,48.154115 C20.5914753,48.3069301 20.4046496,48.7345643 20.5497942,49.1162121 L20.5497942,49.1162121 L23.002276,55.5648479 C24.5000031,59.5030205 28.8972088,61.4921314 32.8438039,60.0167412 L32.8438039,60.0167412 L50.2259,53.5186401 L46.7393745,67.1171268 L51.2075551,65.4899076 C51.814214,65.2689721 52.3217841,64.8424593 52.6441467,64.2877335 L52.6441467,64.2877335 L52.7352131,64.1175467 L59.5127955,50.3080363 L78.3546411,43.1636429 C78.8684208,42.9688295 79.2594188,42.5419735 79.4085188,42.0131153 C79.6683109,41.0916313 79.1319038,40.1340179 78.2104198,39.8742257 L78.2104198,39.8742257 Z M43.3283745,33.5211268 L37.2333745,35.7531268 L47.158,42.943 L56.097,39.77 L43.3283745,33.5211268 Z" id="plane" fill="#A40000" fill-rule="nonzero"></path>
    </g>
</svg>