<?xml version="1.0" encoding="UTF-8"?>
<svg width="52px" height="52px" viewBox="0 0 52 52" version="1.1" xmlns="http://www.w3.org/2000/svg" xmlns:xlink="http://www.w3.org/1999/xlink">
    <!-- Generator: Sketch 64 (93537) - https://sketch.com -->
    <title>Group 34</title>
    <desc>Created with Sketch.</desc>
    <g id="Page-1" stroke="none" stroke-width="1" fill="none" fill-rule="evenodd">
        <g id="Group-34" transform="translate(1.000000, 1.000000)">
            <circle id="Oval-Copy-8" stroke="#F03E31" stroke-width="1.3" cx="25" cy="25" r="25"></circle>
            <g id="617222" transform="translate(12.000000, 11.000000)" fill="#F03E31" fill-rule="nonzero">
                <path d="M13.6363636,2.84090909 C12.5380682,2.84090909 11.6477273,3.73125 11.6477273,4.82954545 C11.6477273,5.92784091 12.5380682,6.81818182 13.6363636,6.81818182 C14.7346591,6.81818182 15.625,5.92784091 15.625,4.82954545 C15.625,3.73125 14.7346591,2.84090909 13.6363636,2.84090909 Z M13.6363636,5.68181818 C13.1664773,5.68181818 12.7840909,5.29943182 12.7840909,4.82954545 C12.7840909,4.35965909 13.1664773,3.97727273 13.6363636,3.97727273 C14.10625,3.97727273 14.4886364,4.35965909 14.4886364,4.82954545 C14.4886364,5.29943182 14.10625,5.68181818 13.6363636,5.68181818 Z" id="Shape"></path>
                <path d="M27.2727273,9.09090909 L27.2727273,6.81818182 L13.6363636,0 L0,6.81818182 L0,9.09090909 L2.27272727,9.09090909 L2.27272727,20.4545455 L0,20.4545455 L0,25 L0.830681818,25 L3.40909091,25 L27.2727273,25 L27.2727273,20.4545455 L25,20.4545455 L25,9.09090909 L27.2727273,9.09090909 Z M26.1363636,21.5909091 L26.1363636,23.8636364 L1.13636364,23.8636364 L1.13636364,21.5909091 C14.6221591,21.5909091 20.0698864,21.5909091 20.6931818,21.5909091 C20.7965909,21.5909091 20.8318182,21.5909091 20.8306818,21.5909091 C21.1971591,21.5909091 22.4386364,21.5909091 26.1363636,21.5909091 Z M3.40909091,20.4545455 L3.40909091,9.09090909 L5.68181818,9.09090909 L5.68181818,20.4545455 L3.40909091,20.4545455 Z M6.81818182,20.4545455 L6.81818182,9.09090909 L11.3636364,9.09090909 L11.3636364,20.4545455 L6.81818182,20.4545455 Z M12.5,20.4545455 L12.5,9.09090909 L14.7727273,9.09090909 L14.7727273,20.4545455 L12.5,20.4545455 Z M15.9090909,20.4545455 L15.9090909,9.09090909 L20.4545455,9.09090909 L20.4545455,20.4545455 L15.9090909,20.4545455 Z M21.5909091,20.4545455 L21.5909091,9.09090909 L23.8636364,9.09090909 L23.8636364,20.4545455 L21.5909091,20.4545455 Z M1.13636364,7.95454545 L1.13636364,7.52045455 L13.6363636,1.27045455 L26.1363636,7.52045455 L26.1363636,7.95454545 C23.3346591,7.95454545 3.84090909,7.95454545 1.13636364,7.95454545 Z" id="Shape"></path>
            </g>
        </g>
    </g>
</svg>