<?xml version="1.0" encoding="UTF-8"?>
<svg width="52px" height="52px" viewBox="0 0 52 52" version="1.1" xmlns="http://www.w3.org/2000/svg" xmlns:xlink="http://www.w3.org/1999/xlink">
    <!-- Generator: Sketch 64 (93537) - https://sketch.com -->
    <title>billete-h2</title>
    <desc>Created with Sketch.</desc>
    <g id="Page-1" stroke="none" stroke-width="1" fill="none" fill-rule="evenodd">
        <g id="billete-h2" transform="translate(0.046499, 1.000000)" stroke="#F03E31">
            <g id="Group-44-Copy" stroke-width="1.3">
                <g id="Group-31">
                    <circle id="Oval-Copy-11" cx="25.9535011" cy="25" r="25"></circle>
                </g>
            </g>
            <g id="Group-39-Copy" transform="translate(16.953501, 12.000000)" fill-rule="nonzero" stroke-width="1.2">
                <g id="referee-sanctioning">
                    <path d="M14.132,12.117 L18.581612,14.2919247 C18.883167,14.4033545 19.0971411,14.6400076 19.1992798,14.9172414 C19.393597,15.3506385 19.4087453,15.8436288 19.2176128,16.3146132 L19.2176128,16.3146132 L16.049411,26.6702338 L9.95516828,26.6702338 C9.9606061,25.4307345 9.97278448,22.6274857 9.97617064,21.6188968 C9.97643396,21.5404636 9.97671699,21.4511771 9.97701643,21.3526167 L9.97796065,21.0306937 L4.935,20.913 L9.97683117,20.913974 L9.97683117,15.2577662 C9.97683117,14.8243362 10.1586553,14.4327183 10.4502346,14.1489427 C10.7477865,13.8593542 11.1592082,13.6815584 12.0221998,13.8049141 C12.1893547,14.0868538 12.1357775,14.5333794 12.1306128,15.2534629 L12.1305968,18.8355205 C12.6409782,19.9824084 13.4448793,20.2164017 14.1322597,20.3002903 L14.132,12.117 Z" id="Shape"></path>
                    <path d="M16.290423,28.8807273 L9.24623377,29.2807273 L9.64623377,30.6878961 L16.690423,30.2878961 L16.290423,28.8807273 Z" id="Rectangle-path"></path>
                </g>
            </g>
        </g>
    </g>
</svg>