<?xml version="1.0" encoding="UTF-8"?>
<svg width="100px" height="100px" viewBox="0 0 100 100" version="1.1" xmlns="http://www.w3.org/2000/svg" xmlns:xlink="http://www.w3.org/1999/xlink">
    <!-- Generator: Sketch 64 (93537) - https://sketch.com -->
    <title>billete</title>
    <desc>Created with Sketch.</desc>
    <g id="billete" stroke="none" stroke-width="1" fill="none" fill-rule="evenodd">
        <g id="ticket" transform="translate(30.000000, 29.000000)" fill="#A40000" fill-rule="nonzero">
            <path d="M40.1228752,14.6025249 L26.3777541,0.857323394 C25.2341424,-0.286294923 23.4434905,-0.285253887 22.3008399,0.857323394 L0.858822412,22.2994661 C0.296185668,22.8621062 -0.0167640038,23.6347953 0.000693270663,24.4185354 C0.017109515,25.1781715 0.328137285,25.878949 0.877240637,26.3951428 L3.80477751,29.3226968 C4.31183926,29.8307225 5.11399301,29.8896612 5.69016315,29.4637172 C7.37126665,28.2220813 9.7110219,28.3839224 11.1332292,29.8418536 C12.5901909,31.3346194 12.7674863,33.6796736 11.5451568,35.2970435 C11.1090453,35.8741779 11.1651007,36.6835436 11.6764868,37.1949326 L14.6223618,40.1408248 C15.1705042,40.6884899 15.917083,41 16.680078,41 C16.700338,41 16.7211586,40.9995195 16.7414187,40.999039 C17.5010503,40.9826227 18.2018238,40.6720736 18.7180146,40.1224866 L40.1412134,18.6977211 C40.7038501,18.1355615 41.0163193,17.3633529 40.9993425,16.5791323 C40.9829263,15.8194962 40.672459,15.1187988 40.1228752,14.6025249 Z M24.3688062,2.89094759 C24.3620795,2.89479142 24.3509485,2.89671333 24.3417394,2.89863524 L23.325694,1.8825839 L24.3688062,2.89094759 Z M16.6612593,38.0816552 L14.5310715,35.9514549 C15.8305974,33.3170727 15.3472391,30.0113823 13.2068811,27.817919 C11.0738104,25.6340653 7.75172312,25.1395731 5.05217184,26.4724998 L2.91814016,24.3388561 L24.3398175,2.91753406 L38.0824562,16.6602531 L16.6612593,38.0816552 Z" id="Shape"></path>
            <polygon id="Rectangle" transform="translate(20.063034, 8.693268) rotate(-44.631296) translate(-20.063034, -8.693268) " points="18.6146675 6.04716374 21.5114011 6.04716374 21.5114011 11.3393718 18.6146675 11.3393718"></polygon>
            <polygon id="Rectangle" transform="translate(32.357172, 20.982399) rotate(-45.372729) translate(-32.357172, -20.982399) " points="30.9083822 18.3357061 33.8059626 18.3357061 33.8059626 23.6290915 30.9083822 23.6290915"></polygon>
            <polygon id="Rectangle" transform="translate(26.220872, 14.825690) rotate(-45.000000) translate(-26.220872, -14.825690) " points="24.7723932 12.1624375 27.6693518 12.1624375 27.6693518 17.4889431 24.7723932 17.4889431"></polygon>
        </g>
    </g>
</svg>