<?xml version="1.0" encoding="UTF-8"?>
<svg width="22px" height="15px" viewBox="0 0 22 15" version="1.1" xmlns="http://www.w3.org/2000/svg" xmlns:xlink="http://www.w3.org/1999/xlink">
    <!-- Generator: Sketch 64 (93537) - https://sketch.com -->
    <title>3713221 copy</title>
    <desc>Created with Sketch.</desc>
    <g id="Page-1" stroke="none" stroke-width="1" fill="none" fill-rule="evenodd">
        <g id="3713221-copy" fill="#F03E31" fill-rule="nonzero">
            <path d="M17.0614732,3.99673652 C17.420273,3.99673652 17.7167989,4.26336249 17.7637282,4.60929164 L17.7701981,4.70546141 L17.7701981,13.9496991 C17.7701981,14.3084989 17.5035721,14.6050248 17.1576429,14.6519541 L17.0614732,14.658424 L1.3250074,14.658424 C0.966529854,14.6576472 0.670447406,14.3913731 0.622937057,14.0457788 L0.616282511,13.9496991 L0.616282511,4.70546141 C0.61705928,4.34698387 0.883333331,4.05090142 1.22892766,4.00339107 L1.3250074,3.99673652 L17.0614732,3.99673652 Z M14.7220648,5.10142292 L3.66503209,5.10142292 C3.49485038,5.10142292 3.35689084,5.23938246 3.35689084,5.40956418 C3.3553632,6.14272456 2.76103909,6.73649748 2.0278776,6.73734485 C1.88200756,6.73734485 1.75981095,6.83870288 1.72787458,6.97483214 L1.71973635,7.0454861 L1.71973635,11.6105988 C1.71973635,11.7807805 1.85769589,11.9187401 2.0278776,11.9187401 C2.76151938,11.9195891 3.35604181,12.5141115 3.35689084,13.2477533 C3.35689084,13.3936233 3.45824886,13.5158199 3.59437813,13.5477563 L3.66503209,13.5558945 L14.7220648,13.5558945 C14.8922465,13.5558945 15.030206,13.417935 15.030206,13.2477533 C15.031055,12.5141115 15.6255775,11.9195891 16.3592192,11.9187401 C16.5050893,11.9187401 16.6272859,11.817382 16.6592223,11.6812528 L16.6673605,11.6105988 L16.6673605,7.04671867 C16.6673605,6.87653695 16.529401,6.73857741 16.3592192,6.73857741 C15.6255775,6.73772839 15.031055,6.14320596 15.030206,5.40956418 C15.030206,5.23938246 14.8922465,5.10142292 14.7220648,5.10142292 Z M18.3864806,2.27915717 C19.1128856,2.28135793 19.5033957,2.66445385 19.5053415,3.30668388 L19.5053415,3.30668388 L19.5053415,12.2321197 C19.5041571,12.623046 19.1875429,12.9396602 18.7966166,12.9408446 L18.7966166,12.9408446 L18.3864806,12.9408446 L18.3864806,4.70638583 C18.3864806,3.8797438 17.7701981,3.38137844 17.0614732,3.38137844 L17.0614732,3.38137844 L1.73545155,3.38137844 L1.73545155,2.98788205 C1.73663593,2.59695574 2.05325013,2.28034154 2.44417644,2.27915717 L2.44417644,2.27915717 Z M14.4382667,5.71770543 C14.5647369,6.49417012 15.1435593,7.11318086 15.8979425,7.29815786 L16.051078,7.3292842 L16.051078,11.3258763 C15.2739,11.4520018 14.654246,12.0312924 14.469364,12.7863411 L14.4382667,12.939612 L3.94852205,12.939612 C3.8230453,12.1623642 3.2441781,11.5423248 2.4892663,11.3570518 L2.33601886,11.3258763 L2.33601886,7.3292842 C3.11255355,7.20346234 3.73194938,6.62506333 3.9173175,5.87081728 L3.94852205,5.71770543 L14.4382667,5.71770543 Z M7.17803219,7.3123083 C6.36278632,8.12746604 6.1188697,9.3534579 6.56002495,10.4185823 C7.00118019,11.4837067 8.0405249,12.178195 9.19339435,12.178195 C10.7668214,12.1766665 12.0420024,10.9016234 12.043701,9.32819652 C12.0438256,8.17532708 11.3494497,7.13590729 10.284373,6.69463689 C9.21929629,6.25336649 7.99327806,6.49715056 7.17803219,7.3123083 Z M9.19339435,7.09417242 C10.4265285,7.09553068 11.4258901,8.09475446 11.4274185,9.32788838 C11.4274185,10.5617058 10.4272118,11.5619125 9.19339435,11.5619125 C7.95957691,11.5619125 6.95937025,10.5617058 6.95937025,9.32788838 C6.95937025,8.09407094 7.95957691,7.09386428 9.19339435,7.09417242 Z M20.3579073,0.643920222 C20.7488337,0.645104599 21.0654479,0.961718799 21.0666322,1.35264511 L21.0666322,1.35264511 L21.0666322,10.5968828 C21.0654479,10.9878091 20.7488337,11.3044233 20.3579073,11.3056077 L20.3579073,11.3056077 L19.9477713,11.3056077 L19.9477713,3.07114889 C19.9477713,2.24450686 19.3314888,1.74614149 18.6227639,1.74614149 L18.6227639,1.74614149 L3.29674232,1.74614149 L3.29674232,1.35264511 C3.29792669,0.961718799 3.61454089,0.645104599 4.00546721,0.643920222 L4.00546721,0.643920222 Z M4.71641005,9.62832611 L3.89428919,9.63109938 C3.72410747,9.63109938 3.58614793,9.76905892 3.58614793,9.93924063 C3.58614793,10.0851107 3.68750596,10.2073073 3.82363522,10.2392437 L3.89428919,10.2473819 L4.71641005,10.2446086 C4.88659177,10.2446086 5.02455131,10.1066491 5.02455131,9.93646736 C5.02455131,9.76628565 4.88659177,9.62832611 4.71641005,9.62832611 Z M13.6709949,9.62832611 C13.5008132,9.62832611 13.3628537,9.76628565 13.3628537,9.93646736 C13.3628537,10.0823374 13.4642117,10.204534 13.600341,10.2364704 L13.6709949,10.2446086 L14.4928077,10.2473819 C14.6629894,10.2473819 14.8009489,10.1094223 14.8009489,9.93924063 C14.8009489,9.79337059 14.6995909,9.67117398 14.5634616,9.63923761 L14.4928077,9.63109938 L13.6709949,9.62832611 Z M4.71209608,8.40870302 L3.89028335,8.41147629 C3.72010163,8.41147629 3.58214209,8.54943583 3.58214209,8.71961754 C3.58214209,8.86548759 3.68350012,8.98768419 3.81962939,9.01962057 L3.89028335,9.0277588 L4.71209608,9.02498553 C4.88227779,9.02498553 5.02023733,8.88702599 5.02023733,8.71684427 C5.02023733,8.54666256 4.88227779,8.40870302 4.71209608,8.40870302 Z M13.6750008,8.40870302 C13.5048191,8.40870302 13.3668595,8.54666256 13.3668595,8.71684427 C13.3668595,8.86271432 13.4682175,8.98491092 13.6043468,9.0168473 L13.6750008,9.02498553 L14.4968135,9.0277588 C14.6669952,9.0277588 14.8049548,8.88979926 14.8049548,8.71961754 C14.8049548,8.5737475 14.7035967,8.4515509 14.5674675,8.41961452 L14.4968135,8.41147629 L13.6750008,8.40870302 Z" id="Combined-Shape"></path>
        </g>
    </g>
</svg>