<?xml version="1.0" encoding="UTF-8"?>
<svg width="52px" height="52px" viewBox="0 0 52 52" version="1.1" xmlns="http://www.w3.org/2000/svg" xmlns:xlink="http://www.w3.org/1999/xlink">
    <!-- Generator: Sketch 64 (93537) - https://sketch.com -->
    <title>Group 37</title>
    <desc>Created with Sketch.</desc>
    <g id="Page-1" stroke="none" stroke-width="1" fill="none" fill-rule="evenodd">
        <g id="Group-37" transform="translate(1.000000, 1.000000)" stroke="#F03E31">
            <circle id="Oval-Copy-6" stroke-width="1.3" cx="25" cy="25" r="25"></circle>
            <g id="3713221" transform="translate(11.000000, 15.000000)" fill="#F03E31" fill-rule="nonzero" stroke-width="0.2">
                <path d="M27.9932399,0.0582315022 C28.998076,0.0582315022 29.8131155,0.8719441 29.8147512,1.87677882 L29.8147512,14.5849972 C29.8147512,15.5914434 28.9996839,16.4077953 27.9932399,16.4098974 L27.661,16.4092302 L27.6615554,16.8144424 C27.6601574,17.8200616 26.8456621,18.6351251 25.8400441,18.6372245 L25.276,18.6362302 L25.2762228,19.178171 C25.2745903,20.1834869 24.4600274,20.9980497 23.4547115,20.9996823 L1.82151131,20.9996823 C0.816195403,20.9980497 0.00163257748,20.1834869 1.36815729e-13,19.178171 L1.36815729e-13,6.46995256 C0.00147602896,5.56103682 0.667452745,4.80804533 1.53812133,4.67078693 L1.53854164,4.1041059 C1.54063881,3.09898294 2.35492999,2.28469176 3.36005295,2.28259459 L3.693,2.28223024 L3.69343188,1.87677882 C3.69506833,0.871116653 4.51139841,0.0570620558 5.51706122,0.0582315022 L27.9932399,0.0582315022 Z M1.897,5.49423024 L1.82151131,5.494385 C1.28390534,5.49554991 0.848379476,5.93107577 0.847214562,6.46868174 L0.847214562,19.1769002 C0.848379476,19.7145061 1.28390534,20.150032 1.82151131,20.1511969 L23.4547115,20.1511969 C23.9928008,20.1511969 24.4290083,19.7149894 24.4290083,19.1769002 L24.4290083,6.46868174 C24.4290083,5.93059251 23.9928008,5.494385 23.4547115,5.494385 L2.02752092,5.49530216 C2.00621343,5.49860281 1.98438119,5.5003155 1.96214892,5.5003155 L1.897,5.49423024 Z M20.2386851,7.0130171 C20.4726369,7.0130171 20.6622923,7.20267254 20.6622923,7.43662438 C20.6634595,8.44517482 21.4807601,9.26247541 22.4893105,9.26364258 C22.7232624,9.26364258 22.9129178,9.45329802 22.9129178,9.68724986 L22.9129178,15.9612973 C22.9129178,16.1952491 22.7232624,16.3849046 22.4893105,16.3849046 C21.4807601,16.3860717 20.6634595,17.2033723 20.6622923,18.2119228 C20.6622923,18.4458746 20.4726369,18.6355301 20.2386851,18.6355301 L5.038385,18.6355301 C4.80443316,18.6355301 4.61477772,18.4458746 4.61477772,18.2119228 C4.61361055,17.2033723 3.79630995,16.3860717 2.78775951,16.3849046 C2.55380767,16.3849046 2.36415223,16.1952491 2.36415223,15.9612973 L2.36415223,9.68555543 C2.36415223,9.45160359 2.55380767,9.26194815 2.78775951,9.26194815 C3.79564969,9.26078326 4.61267764,8.44451304 4.61477772,7.43662438 C4.61477772,7.20267254 4.80443316,7.0130171 5.038385,7.0130171 L20.2386851,7.0130171 Z M25.8400441,3.13319801 L3.36005295,3.13319801 C2.82263958,3.1348262 2.38738439,3.57008139 2.38575621,4.10749476 L2.385,4.64823024 L23.4547115,4.64844126 C24.4600274,4.65007384 25.2745903,5.46463666 25.2762228,6.46995256 L25.276,17.7892302 L25.8400441,17.7900099 C26.3774575,17.7883817 26.8127127,17.3531266 26.8143409,16.8157132 L26.8143409,4.10749476 C26.8127127,3.57008139 26.3774575,3.1348262 25.8400441,3.13319801 Z M19.8485427,7.86023166 L5.4281037,7.86023166 C5.24294989,8.9988095 4.35005063,9.89119688 3.2113668,10.0756977 L3.2113668,15.5698842 C4.35095548,15.7547498 5.24410891,16.6485859 5.4281037,17.7883155 L19.8485427,17.7883155 C20.0328359,16.6485825 20.9260761,15.7548304 22.0657033,15.5698842 L22.0657033,10.0756977 C20.9269806,9.89111661 20.0339944,8.99881284 19.8485427,7.86023166 Z M14.138111,9.20323676 C15.602291,9.80985905 16.5568619,11.238768 16.5566906,12.8236382 C16.5543555,14.9866561 14.8013414,16.7394807 12.6383232,16.7415819 C11.053453,16.7415819 9.62464731,15.7868565 9.01818332,14.322611 C8.41171933,12.8583654 8.74703586,11.1729726 9.8677689,10.0523607 C10.9885019,8.93174878 12.6739311,8.59661447 14.138111,9.20323676 Z M12.6383232,9.75206178 C10.9421724,9.75206178 9.56717044,11.1270637 9.56717044,12.8232146 C9.56717044,14.5193654 10.9421724,15.8943673 12.6383232,15.8943673 C14.3344741,15.8943673 15.709476,14.5193654 15.709476,12.8232146 C15.707375,11.1280034 14.3335347,9.7543526 12.6383232,9.75248538 L12.6383232,9.75206178 Z M27.9932399,0.908836183 L5.51494319,0.908836183 C4.97800983,0.908833696 4.54228059,1.34323681 4.54064644,1.88016768 L4.54,2.28223024 L25.8400441,2.28259459 C26.8459924,2.28469524 27.6606238,3.10027393 27.6615554,4.10622394 L27.661,15.5622302 L27.9932399,15.5626828 C28.5307496,15.5612861 28.9661399,15.1258957 28.9675367,14.5883861 L28.9675367,1.88016768 C28.9659025,1.34323681 28.5301733,0.908833696 27.9932399,0.908836183 Z M6.48373304,13.2362317 C6.71768488,13.2362317 6.90734032,13.4258871 6.90734032,13.6598389 C6.90734032,13.8937908 6.71768488,14.0834462 6.48373304,14.0834462 L5.35354881,14.0872587 C5.11959697,14.0872587 4.92994153,13.8976032 4.92994153,13.6636514 C4.92994153,13.4296996 5.11959697,13.2400441 5.35354881,13.2400441 L6.48373304,13.2362317 Z M18.7937606,13.2362317 L19.9235212,13.2400441 C20.1574731,13.2400441 20.3471285,13.4296996 20.3471285,13.6636514 C20.3471285,13.8976032 20.1574731,14.0872587 19.9235212,14.0872587 L18.7937606,14.0834462 C18.5598088,14.0834462 18.3701533,13.8937908 18.3701533,13.6598389 C18.3701533,13.4258871 18.5598088,13.2362317 18.7937606,13.2362317 Z M6.47780254,11.559594 C6.71175438,11.559594 6.90140982,11.7492495 6.90140982,11.9832013 C6.90140982,12.2171532 6.71175438,12.4068086 6.47780254,12.4068086 L5.34804192,12.4106211 C5.11409008,12.4106211 4.92443464,12.2209656 4.92443464,11.9870138 C4.92443464,11.7530619 5.11409008,11.5634065 5.34804192,11.5634065 L6.47780254,11.559594 Z M18.7992675,11.559594 L19.9290281,11.5634065 C20.16298,11.5634065 20.3526354,11.7530619 20.3526354,11.9870138 C20.3526354,12.2209656 20.16298,12.4106211 19.9290281,12.4106211 L18.7992675,12.4068086 C18.5653157,12.4068086 18.3756602,12.2171532 18.3756602,11.9832013 C18.3756602,11.7492495 18.5653157,11.559594 18.7992675,11.559594 Z" id="Combined-Shape"></path>
            </g>
        </g>
    </g>
</svg>