<svg height="100" width="100" xmlns="http://www.w3.org/2000/svg"><g fill="#a40000" fill-rule="evenodd"><path d="M73.915 26.61a4.21 4.21 0 0 0-3.212-1.485h-4.065v-1.271A2.857 2.857 0 0 0 63.784 21H36.216a2.857 2.857 0 0 0-2.853 2.854v1.271h-4.066a4.21 4.21 0 0 0-3.212 1.486 4.159 4.159 0 0 0-.942 3.366c1.068 6.568 5.202 12.37 11.068 15.554a28.73 28.73 0 0 0 1.82 3.646c2.159 3.634 4.843 6.145 7.798 7.36.3 3.027-1.715 5.895-4.75 6.579-.006.001-.01.004-.017.005a1.346 1.346 0 0 0-1.033 1.308v6.178h-2.498a4.044 4.044 0 0 0-4.04 4.04v3.188c0 .744.603 1.347 1.347 1.347H65.29c.744 0 1.347-.603 1.347-1.347v-3.188a4.044 4.044 0 0 0-4.04-4.04h-2.499V64.43c0-.637-.442-1.17-1.036-1.31-.005 0-.01-.003-.016-.004-3.057-.688-5.076-3.585-4.745-6.636 2.903-1.234 5.54-3.723 7.668-7.302a28.744 28.744 0 0 0 1.82-3.648c5.865-3.183 9.999-8.985 11.067-15.553a4.158 4.158 0 0 0-.942-3.366zM27.8 29.546c-.07-.43.05-.853.335-1.19.29-.341.714-.537 1.161-.537h4.066v2.478c0 3.884.496 7.647 1.435 11.089-3.693-2.918-6.235-7.157-6.997-11.84zM62.598 73.3c.742 0 1.346.604 1.346 1.347v1.842h-27.76v-1.842c0-.743.604-1.347 1.347-1.347zm-5.192-7.524v4.831H42.723v-4.83zm-11.152-2.693c.333-.366.637-.763.91-1.189a8.76 8.76 0 0 0 1.39-4.622c.477.066.96.1 1.447.1.53 0 1.054-.04 1.574-.117a8.864 8.864 0 0 0 2.312 5.828h-7.633zm17.69-32.787c0 6.634-1.523 12.85-4.29 17.505-2.635 4.436-6.063 6.878-9.653 6.878-3.59 0-7.02-2.442-9.656-6.877-2.766-4.655-4.29-10.872-4.29-17.506v-6.442a.16.16 0 0 1 .161-.16h27.568a.16.16 0 0 1 .16.16zm8.255-.751c-.762 4.682-3.304 8.921-6.997 11.84.94-3.442 1.436-7.205 1.436-11.09v-2.477h4.065c.447 0 .87.196 1.16.537.286.337.406.76.336 1.19z" fill-rule="nonzero"/><path d="M49.446 43.916c-.26-.26-.39-.572-.39-.936v-9.86l-.702.351a2.19 2.19 0 0 1-.832.182c-.381 0-.698-.121-.949-.364-.251-.242-.377-.554-.377-.936 0-.294.07-.55.208-.767.139-.216.355-.377.65-.48l2.86-1.002c.208-.07.373-.104.494-.104.381 0 .693.126.936.377s.364.576.364.975V42.98c0 .364-.13.676-.39.936s-.58.39-.962.39c-.347 0-.65-.13-.91-.39z"/></g></svg>