<svg height="100" width="100" xmlns="http://www.w3.org/2000/svg"><g fill="#a40000" stroke="#a40000" stroke-width=".2"><path d="M31.601 46.795a.924.924 0 0 0 .74-.019l7.307-3.321a.94.94 0 0 0 .44-1.254c-.215-.45-.749-.655-1.207-.45l-5.118 2.33c2.442-7.307 9.244-12.191 17.076-12.191 8.205 0 15.382 5.483 17.45 13.333a.938.938 0 0 0 1.141.664.938.938 0 0 0 .665-1.141c-2.283-8.664-10.2-14.727-19.256-14.727-8.637 0-16.15 5.389-18.864 13.455l-2.152-5.38a.94.94 0 0 0-1.179-.6.94.94 0 0 0-.598 1.18c.009.037.028.074.046.112l2.985 7.485a.93.93 0 0 0 .524.524zM72.892 60.606a.133.133 0 0 1-.018-.057l-2.985-7.485a.93.93 0 0 0-.524-.524.965.965 0 0 0-.74.019l-7.307 3.322c-.477.196-.702.748-.505 1.225s.748.702 1.226.505l.056-.028 5.118-2.33c-2.461 7.308-9.273 12.192-17.095 12.192-8.206 0-15.382-5.483-17.45-13.333a.938.938 0 0 0-1.142-.664.938.938 0 0 0-.664 1.141c2.274 8.674 10.199 14.728 19.256 14.728 8.636 0 16.14-5.39 18.863-13.455l2.152 5.38a.933.933 0 0 0 1.198.561.933.933 0 0 0 .561-1.197z"/></g></svg>