<svg height="50" width="50" xmlns="http://www.w3.org/2000/svg"><g fill="#e71215"><path d="M45.04 21.334h-.234L41.162 8.585c-.483-1.385-2.21-2.555-3.773-2.555H12.521c-1.563 0-3.29 1.17-3.79 2.607L5.106 21.334h-.236C3.45 21.334 2 22.782 2 24.204v16.77c0 2.515 1.711 4.271 4.236 4.271h1.167c2.45 0 4.162-1.756 4.162-4.27V38.55h26.78v2.425c0 2.514 1.712 4.27 4.237 4.27h1.168c2.45 0 4.161-1.756 4.161-4.27V24.203c0-1.475-1.395-2.87-2.87-2.87zM10.556 9.214c.215-.617 1.226-1.27 1.966-1.27H37.39c.74 0 1.752.653 1.95 1.219l3.477 12.17H7.094zm-.903 31.76c0 1.14-.59 2.358-2.324 2.358H6.162c-1.659 0-2.249-1.217-2.249-2.357V38.46c.241.058.488.088.736.09h5.003v2.425zm22.955-4.337H17.303v-3.826h15.304zm13.39 4.338c0 1.14-.59 2.357-2.323 2.357h-1.167c-1.657 0-2.248-1.217-2.248-2.357V38.55h5.002c.248-.002.495-.032.737-.09v2.515zm0-4.732c0 .375-.613.394-.736.394H34.52v-4.782a.957.957 0 0 0-.957-.957H16.347a.957.957 0 0 0-.957.957v4.782H4.65c-.124 0-.737-.019-.737-.394v-12.04c0-.346.553-.956.956-.956h40.172c.42 0 .957.536.957.956v12.04z"/><path d="M10.13 25.16a4.304 4.304 0 1 0 0 8.608 4.304 4.304 0 0 0 0-8.608zm0 6.695a2.391 2.391 0 1 1 0-4.782 2.391 2.391 0 0 1 0 4.782zM39.78 25.16a4.304 4.304 0 1 0 0 8.608 4.304 4.304 0 0 0 0-8.608zm0 6.695a2.391 2.391 0 1 1 0-4.782 2.391 2.391 0 0 1 0 4.782z"/></g></svg>