<?xml version="1.0" encoding="UTF-8"?>
<svg width="52px" height="52px" viewBox="0 0 52 52" version="1.1" xmlns="http://www.w3.org/2000/svg" xmlns:xlink="http://www.w3.org/1999/xlink">
    <!-- Generator: Sketch 64 (93537) - https://sketch.com -->
    <title>Group 41</title>
    <desc>Created with Sketch.</desc>
    <g id="Page-1" stroke="none" stroke-width="1" fill="none" fill-rule="evenodd">
        <g id="Group-41" transform="translate(1.000000, 1.000000)">
            <circle id="Oval-Copy" stroke="#F03E31" stroke-width="1.3" cx="25" cy="25" r="25"></circle>
            <g id="839860" transform="translate(16.000000, 12.000000)" fill="#F03E31" fill-rule="nonzero">
                <path d="M16.4538314,3.14367198 L14.2831162,3.14367198 L14.2831162,2.17257403 C14.2831162,1.85838724 13.9403918,1.71558998 13.626205,1.71558998 L11.9410661,1.71558998 C11.5412118,0.573102506 10.5415216,0.00185876993 9.39903417,0.00185876993 C8.26912073,-0.04061959 7.24138497,0.652209567 6.85700228,1.71558998 L5.20040091,1.71558998 C4.88621412,1.71558998 4.57202733,1.85838724 4.57202733,2.17257403 L4.57202733,3.14367198 L2.4012574,3.14367198 C1.11487927,3.15739408 0.0624874715,4.17217312 0.00202277904,5.45718451 L0.00202277904,21.8232711 C0.00202277904,23.0800182 1.14451025,23.9939863 2.4012574,23.9939863 L16.4538314,23.9939863 C17.7105786,23.9939863 18.8530661,23.0800182 18.8530661,21.8232711 L18.8530661,5.45723918 C18.7926014,4.17217312 17.7402096,3.15739408 16.4538314,3.14367198 Z M5.71446014,2.85807745 L7.28539408,2.85807745 C7.55961731,2.82461959 7.77988155,2.616 7.82810023,2.34396355 C7.99724829,1.60734396 8.64349886,1.07857859 9.39903417,1.05867882 C10.1475718,1.08136674 10.7840911,1.61177221 10.9413759,2.34396355 C10.9926014,2.62540319 11.2274077,2.83670159 11.5126196,2.85807745 L13.1406834,2.85807745 L13.1406834,5.14305239 L5.71446014,5.14305239 L5.71446014,2.85807745 Z M17.7105786,21.8233257 C17.7105786,22.4516993 17.082205,22.8515535 16.4538314,22.8515535 L2.4012574,22.8515535 C1.77288383,22.8515535 1.14451025,22.4516993 1.14451025,21.8233257 L1.14451025,5.45723918 C1.20278815,4.80317084 1.74467426,4.29818679 2.4012574,4.28615945 L4.57197267,4.28615945 L4.57197267,5.74288838 C4.60215034,6.06292483 4.87932574,6.30232346 5.20034624,6.28559453 L13.6261503,6.28559453 C13.9530752,6.30347153 14.2389431,6.06735308 14.2830615,5.74288838 L14.2830615,4.28615945 L16.4537768,4.28615945 C17.1103052,4.29818679 17.652246,4.80311617 17.7105786,5.45718451 L17.7105786,21.8233257 L17.7105786,21.8233257 Z" id="Shape"></path>
                <path d="M7.22826424,12.7691481 C7.01401367,12.5433075 6.65833257,12.5305695 6.42850114,12.7406105 L4.60051025,14.4828793 L3.82933941,13.6831162 C3.61508884,13.4572756 3.25940774,13.4445923 3.02957631,13.6545786 C2.80832802,13.8863781 2.80832802,14.2510797 3.02957631,14.4828793 L4.20060137,15.6824966 C4.301959,15.7959909 4.44836446,15.8587517 4.60045558,15.8538861 C4.75112528,15.851754 4.89485194,15.7901412 5.00030979,15.6824966 L7.2281549,13.5689112 C7.4490205,13.3663052 7.46378132,13.0229795 7.26112073,12.8021686 C7.25073349,12.7906333 7.23974487,12.7796446 7.22826424,12.7691481 Z" id="Path"></path>
                <path d="M15.4256036,13.997303 L8.85632802,13.997303 C8.54082916,13.997303 8.28508428,14.2530478 8.28508428,14.5685467 C8.28508428,14.8840456 8.54082916,15.1397904 8.85632802,15.1397904 L15.4256036,15.1397904 C15.7411025,15.1397904 15.9968474,14.8840456 15.9968474,14.5685467 C15.9968474,14.2530478 15.7411025,13.997303 15.4256036,13.997303 Z" id="Path"></path>
                <path d="M7.22826424,8.19919818 C7.01401367,7.97335763 6.65833257,7.96061959 6.42850114,8.17066059 L4.60051025,9.91292938 L3.82933941,9.11316629 C3.61508884,8.88732574 3.25940774,8.8745877 3.02957631,9.0846287 C2.80832802,9.31642825 2.80832802,9.68112984 3.02957631,9.91292938 L4.20060137,11.1125467 C4.301959,11.226041 4.44836446,11.2888018 4.60045558,11.2839362 C4.75112528,11.2818041 4.89485194,11.2201913 5.00030979,11.1125467 L7.2281549,8.99896128 C7.4490205,8.79635535 7.46378132,8.45302961 7.26112073,8.23221868 C7.25073349,8.22068337 7.23974487,8.20969476 7.22826424,8.19919818 Z" id="Path"></path>
                <path d="M15.4256036,9.42735308 L8.85632802,9.42735308 C8.54082916,9.42735308 8.28508428,9.68309795 8.28508428,9.99859681 C8.28508428,10.3140957 8.54082916,10.5698405 8.85632802,10.5698405 L15.4256036,10.5698405 C15.7411025,10.5698405 15.9968474,10.3140957 15.9968474,9.99859681 C15.9968474,9.68309795 15.7411025,9.42735308 15.4256036,9.42735308 Z" id="Path"></path>
                <path d="M7.22826424,17.3390433 C7.01401367,17.1132027 6.65833257,17.1005194 6.42850114,17.3105057 L4.60051025,19.0527745 L3.82933941,18.2530114 C3.61508884,18.0271708 3.25940774,18.0144875 3.02957631,18.2244738 C2.80832802,18.4562733 2.80832802,18.8209749 3.02957631,19.0527745 L4.20060137,20.2523918 C4.301959,20.3658861 4.44836446,20.4286469 4.60045558,20.4237813 C4.75112528,20.4216492 4.89485194,20.3600364 5.00030979,20.2523918 L7.2281549,18.1388064 C7.4490205,17.9362005 7.46378132,17.5928747 7.26112073,17.3720638 C7.25073349,17.3605831 7.23974487,17.3495945 7.22826424,17.3390433 Z" id="Path"></path>
                <path d="M15.4256036,18.5672528 L8.85632802,18.5672528 C8.54082916,18.5672528 8.28508428,18.8229977 8.28508428,19.1384966 C8.28508428,19.4539954 8.54082916,19.7097403 8.85632802,19.7097403 L15.4256036,19.7097403 C15.7411025,19.7097403 15.9968474,19.4539954 15.9968474,19.1384966 C15.9968474,18.8229977 15.7411025,18.5672528 15.4256036,18.5672528 Z" id="Path"></path>
            </g>
        </g>
    </g>
</svg>