<svg width="19" height="12" xmlns="http://www.w3.org/2000/svg"><g fill-rule="nonzero" fill="none"><path d="M18.5 0H.458A.458.458 0 0 0 0 .458V11.38c0 .253.205.457.458.457H18.5a.458.458 0 0 0 .457-.457V.458A.458.458 0 0 0 18.5 0z" fill="#F03E31"/><g transform="translate(2.273 2.273)" fill="#FAFAFA"><circle cx="3.674" cy="1.844" r="1.83"/><path d="M7.32 6.92a3.66 3.66 0 0 0-7.32 0h7.32z"/></g><g fill="#FFF"><path d="M16.24 3.66h-5.175a.458.458 0 0 1 0-.915h5.176a.458.458 0 0 1 0 .915zM14.783 6.405h-3.718a.458.458 0 0 1 0-.915h3.718a.458.458 0 0 1 0 .915zM16.24 9.15h-5.175a.458.458 0 0 1 0-.915h5.176a.458.458 0 0 1 0 .915z"/></g></g></svg>