<?xml version="1.0" encoding="UTF-8"?>
<svg width="18px" height="18px" viewBox="0 0 18 18" version="1.1" xmlns="http://www.w3.org/2000/svg" xmlns:xlink="http://www.w3.org/1999/xlink">
    <!-- Generator: Sketch 55.2 (78181) - https://sketchapp.com -->
    <title>Path</title>
    <desc>Created with Sketch.</desc>
    <g id="Page-1" stroke="none" stroke-width="1" fill="none" fill-rule="evenodd">
        <path d="M17.7570112,8.4938984 C18.0829832,8.13539377 18.0515056,7.58591331 17.6867289,7.26691687 C17.0096714,6.67448853 16.5018783,6.23016727 16.1633496,5.9339531 C16.1778841,5.1854144 16.18249,4.46487303 16.1771673,3.772329 C16.1731265,3.24883621 15.7476154,2.82658279 15.224107,2.82658279 C14.7053889,2.82658279 14.2848849,3.24708685 14.2848643,3.7658049 C14.2848643,3.92817667 14.2848643,4.10299833 14.2848643,4.29026988 C13.4490263,3.55890781 11.9041418,2.20712683 9.65021081,0.234926938 C9.2854341,-0.0840695045 8.70060729,-0.0773871093 8.34350947,0.249991636 L0.279675663,7.6418344 C-0.0774221546,7.96921315 -0.0949487875,8.5179902 0.240870878,8.86705742 L0.44304264,9.07761148 C0.778451982,9.4266787 1.32060525,9.46829713 1.65320095,9.17028575 L2.25584749,8.63059442 L2.25584749,16.5317647 C2.25584749,17.0165314 2.64864336,17.4089756 3.13305839,17.4089756 L6.27636328,17.4089756 C6.76077831,17.4089756 7.15357419,17.0165314 7.15357419,16.5317647 L7.15357419,11.0041343 L11.162894,11.0041343 L11.162894,16.5317647 C11.1559186,17.0161797 11.5025238,17.4086239 11.9869389,17.4086239 L15.3180542,17.4086239 C15.8024693,17.4086239 16.1952652,17.0161797 16.1952652,16.531413 L16.1952652,8.74185043 C16.1952652,8.74185043 16.3617389,8.88769078 16.567076,9.06817406 C16.7720614,9.24830565 17.2026069,9.10387212 17.5285788,8.74501578 L17.7570112,8.4938984 Z" id="Path" fill="#F03E31" fill-rule="nonzero"></path>
    </g>
</svg>