<svg width="52" height="52" viewBox="0 0 52 52" fill="none" xmlns="http://www.w3.org/2000/svg">
<circle cx="26" cy="26" r="25" stroke="#F03E31" stroke-width="1.3"/>
<path d="M28 38H35.0833C35.2147 38 35.3408 37.9478 35.4337 37.8549C35.5266 37.762 35.5788 37.636 35.5788 37.5046V23.6307H38.3387C38.4368 23.6308 38.5326 23.6018 38.6142 23.5473C38.6957 23.4929 38.7593 23.4155 38.7969 23.3249C38.8344 23.2343 38.8442 23.1346 38.825 23.0385C38.8059 22.9423 38.7586 22.854 38.6893 22.7847L26.2338 11.0984C26.1878 11.0524 26.1331 11.0158 26.073 10.9909C26.0128 10.966 25.9483 10.9531 25.8832 10.9531C25.8181 10.9531 25.7536 10.966 25.6935 10.9909C25.6333 11.0158 25.5787 11.0524 25.5327 11.0984L13.1453 22.7847C13.0759 22.854 13.0287 22.9423 13.0095 23.0385C12.9904 23.1346 13.0002 23.2343 13.0377 23.3249C13.0753 23.4155 13.1388 23.4929 13.2204 23.5473C13.302 23.6018 13.3978 23.6308 13.4959 23.6307H16.2545V37.5046C16.2545 37.636 16.3067 37.762 16.3997 37.8549C16.4926 37.9478 16.6186 38 16.75 38H23.5H29" stroke="#F03E31" stroke-width="1.3" stroke-linecap="round" stroke-linejoin="round"/>
<path d="M31.1206 13.2253V11.2433H34.5891V18.6758" stroke="#F03E31" stroke-width="1.3" stroke-linecap="round" stroke-linejoin="round"/>
<path d="M25.6792 31.6792L25.6792 38" stroke="#F03E31" stroke-linecap="round" stroke-linejoin="round"/>
<path d="M21.7199 27.2786V24.759H21V23.3193H30.3585V24.759H29.6386V27.2786" stroke="#F03E31" stroke-linecap="round" stroke-linejoin="round"/>
<path d="M29.6387 24.7591L21.1685 24.7462" stroke="#F03E31" stroke-linecap="round" stroke-linejoin="round"/>
<path d="M21.72 24.759H22.7998" stroke="#F03E31" stroke-linecap="round" stroke-linejoin="round"/>
<path d="M22.7998 23.3193V19.7199C22.7998 19.529 22.8756 19.3459 23.0107 19.2108C23.1457 19.0758 23.3288 19 23.5197 19C23.7106 19 23.8937 19.0758 24.0287 19.2108C24.1637 19.3459 24.2396 19.529 24.2396 19.7199V23.3193" stroke="#F03E31" stroke-linecap="round" stroke-linejoin="round"/>
<path d="M28.9185 23.3193V19.7199C28.9185 19.529 28.8427 19.3459 28.7077 19.2108C28.5727 19.0758 28.3896 19 28.1986 19C28.0077 19 27.8246 19.0758 27.6896 19.2108C27.5546 19.3459 27.4788 19.529 27.4788 19.7199V23.3193" stroke="#F03E31" stroke-linecap="round" stroke-linejoin="round"/>
<path d="M21.72 27.2786C21.7208 27.5293 21.7452 27.7794 21.7929 28.0255" stroke="#F03E31" stroke-linecap="round" stroke-linejoin="round"/>
<path d="M29.6388 27.2786C29.6385 27.937 29.474 28.5849 29.1603 29.1637C28.8465 29.7425 28.3934 30.2339 27.842 30.5935C27.2905 30.9531 26.658 31.1694 26.0019 31.2231C25.3457 31.2767 24.6865 31.1658 24.084 30.9005" stroke="#F03E31" stroke-linecap="round" stroke-linejoin="round"/>
<path d="M21.7927 28.0255C21.913 28.6551 22.1843 29.246 22.5834 29.7476C22.9825 30.2492 23.4973 30.6464 24.0838 30.905" stroke="#F03E31" stroke-linecap="round" stroke-linejoin="round"/>
</svg>
