<svg height="100" width="100" xmlns="http://www.w3.org/2000/svg"><g fill="#a40000"><path d="M34.674 33.546C38.591 29.325 44.04 27 50.014 27h1.622c12.034 0 21.867 9.574 22.302 21.506.004.04.02.075.02.116V59.45c0 .02-.01.037-.011.057a22.29 22.29 0 0 1-5.56 14.502.983.983 0 0 1-.999.299l-35.884-9.804a.985.985 0 0 1-.689-.686 23.048 23.048 0 0 1-.775-4.434l-.751-10.04c-.447-5.964 1.466-11.575 5.385-15.798zM71.99 49.455l-20.503-3.424c-1.669-.278-2.996.029-3.64.843-.643.814-.635 2.175.021 3.734l3.21 7.62 20.912.227zm-40.738-.258l.752 10.041c.088 1.18.279 2.36.567 3.517l34.736 9.489a20.313 20.313 0 0 0 4.633-11.82l-21.53-.233a.984.984 0 0 1-.895-.603l-3.46-8.215c-.959-2.273-.87-4.305.247-5.72 1.118-1.415 3.076-1.97 5.509-1.564l20.084 3.354c-.954-10.345-9.67-18.474-20.258-18.474h-1.621c-5.422 0-10.357 2.101-13.898 5.916-3.542 3.817-5.27 8.9-4.866 14.312z"/><path d="M39.505 48.656a3.942 3.942 0 0 1 3.938 3.938c0 2.171-1.767 3.937-3.938 3.937s-3.937-1.766-3.937-3.937a3.942 3.942 0 0 1 3.937-3.938zm0 5.907a1.97 1.97 0 0 0 0-3.938c-1.086 0-1.968.883-1.968 1.969s.883 1.968 1.968 1.968zM49.637 47.96a.984.984 0 0 1 1.392 0l2.953 2.954a.984.984 0 1 1-1.392 1.391l-2.953-2.953a.984.984 0 0 1 0-1.392zM33.05 65.839l31.292 8.544a.985.985 0 0 1-.518 1.9l-31.292-8.545a.985.985 0 0 1 .519-1.9z"/></g></svg>