<svg height="100" width="100" xmlns="http://www.w3.org/2000/svg"><g fill="#fff" stroke="#fff" stroke-width=".5"><path d="M38.333 33.725c.5 0 .834-.333.834-.833s.333-.833.833-.833.833-.334.833-.834-.333-.833-.833-.833c-1.417 0-2.5 1.083-2.5 2.5 0 .5.333.833.833.833zM59.167 33.725c.5 0 .833-.333.833-.833s.333-.833.833-.833.834-.334.834-.834c0-.5-.334-.833-.834-.833-1.416 0-2.5 1.083-2.5 2.5 0 .5.334.833.834.833zM40 63.725c-1.417 0-2.5 1.084-2.5 2.5 0 .5.333.834.833.834s.834-.334.834-.834.333-.833.833-.833.833-.333.833-.833c0-.5-.333-.834-.833-.834zM60.833 63.725c-1.416 0-2.5 1.084-2.5 2.5 0 .5.334.834.834.834s.833-.334.833-.834.333-.833.833-.833.834-.333.834-.833c0-.5-.334-.834-.834-.834zM30.833 47.059c-1.416 0-2.5 1.083-2.5 2.5 0 .5.334.833.834.833s.833-.333.833-.833.333-.834.833-.834.834-.333.834-.833-.334-.833-.834-.833zM50 40.392a9.14 9.14 0 0 0-9.167 9.167c0 5.083 4.084 9.166 9.167 9.166s9.167-4.083 9.167-9.166A9.14 9.14 0 0 0 50 40.392zm0 16.667a7.469 7.469 0 0 1-7.5-7.5c0-4.167 3.333-7.5 7.5-7.5s7.5 3.333 7.5 7.5c0 4.166-3.333 7.5-7.5 7.5z"/><path d="M50 43.725a5.797 5.797 0 0 0-5.833 5.834c0 .5.333.833.833.833s.833-.333.833-.833A4.126 4.126 0 0 1 50 45.392c.5 0 .833-.333.833-.833s-.333-.834-.833-.834z"/><path d="M69.167 43.725c-.57 0-1.118.081-1.636.23l-3.468-6.19a5.8 5.8 0 0 0 2.604-4.873 5.797 5.797 0 0 0-5.834-5.833 5.791 5.791 0 0 0-5.774 5h-9.284a5.791 5.791 0 0 0-5.775-5 5.797 5.797 0 0 0-5.833 5.833c0 2.016.994 3.774 2.524 4.82l-4.791 6.11a5.99 5.99 0 0 0-1.067-.097c-3.25 0-5.833 2.584-5.833 5.834s2.583 5.833 5.833 5.833c.34 0 .67-.03.993-.084l4.811 6.136a5.801 5.801 0 0 0-2.47 4.781A5.797 5.797 0 0 0 40 72.06a5.791 5.791 0 0 0 5.774-5h9.285a5.791 5.791 0 0 0 5.774 5 5.797 5.797 0 0 0 5.834-5.834 5.8 5.8 0 0 0-2.672-4.916l3.399-6.186a5.926 5.926 0 0 0 1.773.269c3.25 0 5.833-2.583 5.833-5.833s-2.583-5.834-5.833-5.834zm-8.334-15A4.126 4.126 0 0 1 65 32.892a4.125 4.125 0 1 1-8.25 0 .935.935 0 0 0-.068-.358c.177-2.16 1.939-3.809 4.151-3.809zm-25 4.167A4.126 4.126 0 0 1 40 28.725a4.126 4.126 0 0 1 4.167 4.167 4.125 4.125 0 0 1-4.118 4.165c-.572-.006-1.144-.17-1.716-.415a.787.787 0 0 0-.339-.083c-1.297-.699-2.16-2.065-2.16-3.667zm-9.166 16.667a4.126 4.126 0 0 1 4.166-4.167c.387 0 .759.051 1.111.145l.056.022c1.64.468 2.841 1.962 2.985 3.656v.007a4.053 4.053 0 0 1 0 .674v.005a4.184 4.184 0 0 1-3.068 3.658.775.775 0 0 0-.13.06 4.31 4.31 0 0 1-.954.106 4.126 4.126 0 0 1-4.166-4.166zM40 70.392a4.126 4.126 0 0 1-4.167-4.167c0-1.608.871-2.979 2.177-3.675a.787.787 0 0 0 .24-.075c.583-.25 1.167-.417 1.75-.417a4.126 4.126 0 0 1 4.167 4.167A4.126 4.126 0 0 1 40 70.392zm25-4.167a4.126 4.126 0 0 1-4.167 4.167 4.126 4.126 0 0 1-4.166-4.167c0-2.333 1.833-4.166 4.166-4.166S65 63.892 65 66.225zm-2.566-5.614a5.937 5.937 0 0 0-1.6-.219H60.75c-2.917 0-5.333 2.167-5.75 5h-9.225a5.785 5.785 0 0 0-5.228-4.974l-.06-.005-.205-.014a6.497 6.497 0 0 0-2.115.243l-4.649-5.894a5.786 5.786 0 0 0 3.13-4.747l.006-.066a5.938 5.938 0 0 0 0-.753l-.005-.066a5.786 5.786 0 0 0-3.13-4.747l4.648-5.894a6.873 6.873 0 0 0 2.115.243c.069-.003.137-.009.205-.014l.06-.005a5.785 5.785 0 0 0 5.228-4.974h9.284a5.785 5.785 0 0 0 5.227 4.974l.06.005.205.014a5.87 5.87 0 0 0 .836-.02l.07-.005.247-.031c.055-.008.11-.019.166-.028l.045-.008c.2-.037.398-.084.59-.14l3.401 6.22a5.777 5.777 0 0 0-1.199 1.072l-.076.09a5.512 5.512 0 0 0-.137.175l-.028.038c-.045.062-.09.124-.133.188l-.015.023a5.585 5.585 0 0 0-.272.448l-.03.057a5.772 5.772 0 0 0-.266.575l-.029.075c-.058.15-.11.305-.154.462l-.014.049c-.025.09-.048.18-.069.27l-.015.067a5.886 5.886 0 0 0-.098.6l-.01.09a5.955 5.955 0 0 0 0 1.147l.01.09a6.263 6.263 0 0 0 .098.6l.015.067c.02.09.044.181.069.27l.014.05a5.8 5.8 0 0 0 .589 1.36l.028.046c.043.072.087.142.134.21l.015.024c.043.063.088.126.133.187l.028.038a5.625 5.625 0 0 0 .26.32c.336.388.723.73 1.152 1.018zm6.733-6.886c-.54 0-1.053-.099-1.523-.279a.547.547 0 0 0-.227-.137c-1.402-.623-2.294-1.974-2.405-3.44l-.002-.027a4.083 4.083 0 0 1 0-.568l.002-.023c.11-1.468 1.013-2.82 2.571-3.442a.8.8 0 0 0 .255-.207c.416-.136.862-.21 1.329-.21 2.333 0 4.166 1.833 4.166 4.167s-1.833 4.166-4.166 4.166z"/><path d="M69.167 47.059c-1.417 0-2.5 1.083-2.5 2.5 0 .5.333.833.833.833s.833-.333.833-.833.334-.834.834-.834.833-.333.833-.833-.333-.833-.833-.833z"/></g></svg>