<svg height="50" width="50" xmlns="http://www.w3.org/2000/svg"><g fill="#e71215"><path d="M24.905 47.048c-11.658 0-21.143-9.485-21.143-21.144 0-11.657 9.485-21.142 21.143-21.142 11.657 0 21.143 9.485 21.143 21.142 0 11.659-9.486 21.144-21.143 21.144m0-44.048C12.275 3 2 13.275 2 25.904 2 38.534 12.275 48.81 24.905 48.81S47.81 38.535 47.81 25.904C47.81 13.274 37.534 3 24.905 3"/><path d="M35.698 16.51L22.16 31.742l-8.157-6.525a.882.882 0 0 0-1.1 1.377l8.81 7.047a.88.88 0 0 0 1.209-.103L37.016 17.68a.881.881 0 1 0-1.318-1.171"/></g></svg>