<svg height="100" width="100" xmlns="http://www.w3.org/2000/svg"><path d="M65.762 31.881c-4.987-5.815-13.477-1.28-14.68-.591-3.87-2.642-9.275-4.97-13.627-1.652-3.128 2.381-4.928 5.456-5.355 9.136-.643 5.544 2.11 10.926 3.542 12.663.727.88.979 5.166 1.164 8.297.393 6.662.732 12.418 4.14 13.14.87.187 1.702.033 2.409-.437 1.835-1.224 2.412-4.29 3.08-7.84.86-4.57 1.648-8.053 3.684-7.911.614.042.874.266 1.03.456 1.034 1.253.586 4.976.256 7.696-.474 3.946-.886 7.354 1.712 8.112.237.066.523.12.851.12.524 0 1.152-.134 1.84-.55 3.99-2.4 7.128-12.759 8.341-18.356 3.175-2.468 5.246-6.079 5.712-9.982.358-3.012-.062-7.59-4.099-12.3zm1.295 11.966c-.393 3.303-2.219 6.35-5.005 8.361a1.416 1.416 0 0 0-.559.861c-1.652 8.016-4.855 15.658-7.142 17.034-.102.06-.231.126-.343.141-.322-.745.004-3.434.2-5.07.455-3.759.923-7.644-.882-9.83-.723-.878-1.764-1.389-3.008-1.475a4.956 4.956 0 0 0-.375-.014c-4.361 0-5.425 5.654-6.284 10.22-.433 2.299-1.026 5.449-1.87 6.013-.043.028-.09.061-.258.024-1.3-.273-1.725-7.471-1.907-10.544-.305-5.166-.555-8.41-1.805-9.925-.967-1.174-3.457-5.856-2.915-10.542.335-2.89 1.768-5.318 4.26-7.218 5.512-4.205 14.777 5.458 14.87 5.558a1.412 1.412 0 1 0 2.052-1.94 31.01 31.01 0 0 0-2.503-2.315c2.26-1.037 7.218-2.754 10.035.53 2.669 3.116 3.857 6.618 3.439 10.131z" fill="#fff"/></svg>