<svg height="100" width="100" xmlns="http://www.w3.org/2000/svg"><g fill="#fff" fill-rule="evenodd"><path d="M81.61 57.324a2.088 2.088 0 0 1-2.086 2.084h-.918c-.63-3.785-3.92-6.684-7.882-6.684s-7.25 2.9-7.882 6.684H37.606c-.63-3.785-3.92-6.684-7.882-6.684s-7.25 2.9-7.882 6.684h-1.655a1.47 1.47 0 0 1-1.472-1.463l-.004-10.164c0-.204.167-.365.378-.365 2.236 0 4.258-1.119 5.411-2.993l5.625-9.16a5.388 5.388 0 0 1 4.56-2.552h23.04c1.845 0 3.591.976 4.56 2.548l3.904 6.347a12.13 12.13 0 0 0 10.4 5.81h4.66c.198 0 .36.162.36.361zm-10.886 8.4c-2.757 0-5-2.243-5-5 0-2.756 2.243-5 5-5s5 2.244 5 5c0 2.757-2.243 5-5 5zm-41 0c-2.757 0-5-2.243-5-5 0-2.756 2.243-5 5-5s5 2.244 5 5c0 2.757-2.243 5-5 5zm51.523-21.019h-4.659a9.554 9.554 0 0 1-8.088-4.52l-3.907-6.348A8.113 8.113 0 0 0 57.725 30h-23.04a8.114 8.114 0 0 0-6.87 3.843l-5.626 9.158a3.595 3.595 0 0 1-3.045 1.704c-.863 0-1.665.326-2.257.92a3.03 3.03 0 0 0-.887 2.16l.003 5.63.001 4.53a4.184 4.184 0 0 0 4.183 4.176h1.667c.664 3.746 3.937 6.603 7.87 6.603 3.934 0 7.206-2.857 7.87-6.603h25.26c.664 3.746 3.937 6.603 7.87 6.603 3.934 0 7.206-2.857 7.87-6.603h.93a4.801 4.801 0 0 0 4.797-4.797v-9.547a3.076 3.076 0 0 0-3.074-3.072z"/><path d="M49.602 45.012l-4.874 6.093 1.855-5.57h-2.815l3.656-7.31h2.65l-3.016 6.787zm1.809-2h-1.276l2.31-5.197a1.13 1.13 0 0 0-1.034-1.59h-4.524c-.43 0-.82.242-1.012.625l-4.525 9.049a1.131 1.131 0 0 0 1.012 1.636h1.447l-2.52 7.56c-.4 1.198 1.167 2.052 1.956 1.065l9.049-11.312c.593-.74.066-1.836-.883-1.836z"/></g></svg>