<svg width="52" height="52" xmlns="http://www.w3.org/2000/svg"><g fill="none" fill-rule="evenodd"><circle cx="25" cy="25" r="25" stroke="#F03E31" stroke-width="1.3" transform="translate(1 1)"/><path d="M38.41 22.376a.631.631 0 0 0-.487-.231h-2.39c-.589-1.556-1.357-3.08-2.23-3.655-3.02-1.987-11.033-1.987-14.053 0-.874.576-1.64 2.102-2.232 3.655h-2.39a.627.627 0 0 0-.615.756l.354 1.715c.06.292.318.5.616.5h.707a4.245 4.245 0 0 0-1.019 2.775c-.004 1.227.462 2.336 1.314 3.12.01.008.019.014.027.022v2.4c0 .52.423.943.943.943h2.204c.52 0 .943-.423.943-.943v-.965H32.45v.965c0 .52.422.943.943.943h2.204c.52 0 .943-.423.943-.943V31.08c.904-.827 1.336-1.967 1.341-3.104.004-1.027-.342-2.056-1.066-2.86h.755a.626.626 0 0 0 .616-.502l.354-1.714a.634.634 0 0 0-.129-.524zm-18.125-2.311c2.408-1.585 9.573-1.585 11.98 0 .468.307 1.07 1.547 1.62 3.066h-15.22c.55-1.518 1.152-2.758 1.62-3.066zm-2.82 8.062a1.855 1.855 0 1 1 3.71 0 1.855 1.855 0 0 1-3.71 0zm15.79 1.855a1.855 1.855 0 1 1 .001-3.71 1.855 1.855 0 0 1 0 3.71z" stroke="#F33C27" stroke-width="1.2"/></g></svg>