<svg width="19" height="14" xmlns="http://www.w3.org/2000/svg"><path d="M18.445 4.399a.477.477 0 0 0-.368-.176H16.27c-.445-1.175-1.026-2.326-1.686-2.761-2.282-1.501-8.336-1.501-10.618 0-.66.435-1.239 1.588-1.687 2.761H.475a.474.474 0 0 0-.465.572L.277 6.09c.046.221.24.379.465.379h.535a3.207 3.207 0 0 0-.77 2.096c-.003.927.349 1.765.993 2.358.007.006.014.01.02.017v1.813c0 .393.32.712.713.712h1.665c.394 0 .713-.32.713-.712v-.729h9.33v.729c0 .393.318.712.712.712h1.665c.392 0 .713-.32.713-.712v-1.778c.683-.625 1.009-1.486 1.013-2.345a3.2 3.2 0 0 0-.805-2.162h.57c.226 0 .42-.158.465-.379l.268-1.295a.479.479 0 0 0-.097-.395zM4.749 2.652c1.82-1.198 7.234-1.198 9.052 0 .354.232.808 1.169 1.225 2.316h-11.5c.415-1.147.87-2.083 1.223-2.316zM2.62 8.744a1.401 1.401 0 1 1 2.802 0 1.401 1.401 0 0 1-2.803 0zm11.93 1.402a1.402 1.402 0 1 1 .001-2.804 1.402 1.402 0 0 1 0 2.804z" fill="#F03E31" fill-rule="nonzero"/></svg>