<svg height="100" width="100" xmlns="http://www.w3.org/2000/svg"><g fill="#a40000"><path d="M42.063 28H28v14.063h14.063zM39.25 39.25h-8.438v-8.438h8.438z"/><path d="M33.625 33.625h2.813v2.813h-2.813zM58.938 28v14.063H73V28zm11.25 11.25H61.75v-8.438h8.438z"/><path d="M64.563 33.625h2.812v2.813h-2.813zM28 73h14.063V58.937H28zm2.813-11.25h8.437v8.438h-8.438z"/><path d="M33.625 64.563h2.813v2.812h-2.813zM50.5 28h5.625v2.813H50.5zM50.5 39.25h2.813v-2.813h2.812v-2.812h-8.438v-2.813h-2.812v5.626H50.5zM44.875 39.25h2.813v2.813h-2.813zM56.125 42.063h-2.813v2.812h-8.437v2.813h11.25zM30.813 53.313h2.812V50.5h-2.813v-5.625H28v11.25h2.813zM33.625 44.875h2.813v2.813h-2.813z"/><path d="M44.875 56.125H50.5v-2.813h-2.813V50.5h-5.624v-5.625H39.25V50.5h-2.813v5.625h2.813v-2.813h5.625zM53.313 50.5h2.812v5.625h-2.813zM53.313 58.938h-8.438v2.812H50.5v8.438h-5.625V73h8.438v-2.813h5.624v-2.812h-5.624z"/><path d="M44.875 64.563h2.813v2.812h-2.813zM56.125 58.938h2.813v5.624h-2.813zM70.188 64.563H61.75V73h2.813v-5.625h5.624zM67.375 70.188H73V73h-5.625zM70.188 58.938H73v2.812h-2.813zM61.75 61.75h2.813v-8.438h-5.626v2.813h2.813zM67.375 47.688h-2.813v-2.813H61.75v2.813h-2.813V50.5h11.25v-2.813H73v-2.812h-5.625zM67.375 53.313H73v2.812h-5.625z"/></g></svg>