<?xml version="1.0" encoding="UTF-8"?>
<svg width="100px" height="100px" viewBox="0 0 100 100" version="1.1" xmlns="http://www.w3.org/2000/svg" xmlns:xlink="http://www.w3.org/1999/xlink">
    <!-- Generator: Sketch 64 (93537) - https://sketch.com -->
    <title>cruz</title>
    <desc>Created with Sketch.</desc>
    <g id="cruz" stroke="none" stroke-width="1" fill="none" fill-rule="evenodd">
        <g id="cross" transform="translate(31.000000, 25.000000)" fill="#A40000" fill-rule="nonzero">
            <path d="M33.6540039,11.7675781 L26.4892578,11.7675781 L26.4892578,4.60283203 C26.4892578,2.03408203 24.4041992,0 21.8864258,0 L16.3949219,0 C13.8261719,0 11.7920898,2.08505859 11.7920898,4.60283203 L11.7920898,11.7675781 L4.62734375,11.7675781 C2.05859375,11.7675781 0.0245117188,13.8526367 0.0245117188,16.3704102 L0.0245117188,21.8619141 C0.0245117188,24.4306641 2.10957031,26.4647461 4.62734375,26.4647461 L11.7920898,26.4647461 L11.7920898,45.3970703 C11.7920898,47.9658203 13.8771484,49.9999023 16.3949219,49.9999023 L21.8864258,49.9999023 C24.4551758,49.9999023 26.4892578,47.9148437 26.4892578,45.3970703 L26.4892578,26.4648437 L33.6540039,26.4648437 C36.2227539,26.4648437 38.2568359,24.3797852 38.2568359,21.8620117 L38.2568359,16.3705078 C38.2568359,13.8016602 36.1717773,11.7675781 33.6540039,11.7675781 Z M35.3271484,21.8620117 C35.3271484,22.7738281 34.5900391,23.5351562 33.6540039,23.5351562 L25.0244141,23.5351562 C24.2154297,23.5351562 23.5595703,24.1910156 23.5595703,25 L23.5595703,45.397168 C23.5595703,46.3089844 22.8224609,47.0703125 21.8864258,47.0703125 L16.3949219,47.0703125 C15.4831055,47.0703125 14.7217773,46.3332031 14.7217773,45.397168 L14.7217773,25 C14.7217773,24.1910156 14.065918,23.5351562 13.2569336,23.5351562 L4.62734375,23.5351562 C3.71552734,23.5351562 2.95419922,22.7980469 2.95419922,21.8620117 L2.95419922,16.3705078 C2.95419922,15.4586914 3.69130859,14.6973633 4.62734375,14.6973633 L13.2569336,14.6973633 C14.065918,14.6973633 14.7217773,14.0415039 14.7217773,13.2325195 L14.7217773,4.60283203 C14.7217773,3.69101562 15.4588867,2.9296875 16.3949219,2.9296875 L21.8864258,2.9296875 C22.7982422,2.9296875 23.5595703,3.66679687 23.5595703,4.60283203 L23.5595703,13.2324219 C23.5595703,14.0414062 24.2154297,14.6972656 25.0244141,14.6972656 L33.6540039,14.6972656 C34.5658203,14.6972656 35.3271484,15.434375 35.3271484,16.3704102 L35.3271484,21.8620117 Z" id="Shape"></path>
        </g>
    </g>
</svg>