<?xml version="1.0" encoding="UTF-8"?>
<svg width="13px" height="17px" viewBox="0 0 13 17" version="1.1" xmlns="http://www.w3.org/2000/svg" xmlns:xlink="http://www.w3.org/1999/xlink">
    <!-- Generator: Sketch 64 (93537) - https://sketch.com -->
    <title>cruz-h3</title>
    <desc>Created with Sketch.</desc>
    <g id="Page-1" stroke="none" stroke-width="1" fill="none" fill-rule="evenodd">
        <g id="cruz-h3" fill="#F03E31" fill-rule="nonzero">
            <path d="M8.32070313,16.2 L8.32070313,7.85585938 L8.32070313,7.85585938 L12.003125,7.85585938 C12.4449528,7.85585938 12.803125,7.49768717 12.803125,7.05585938 L12.803125,4.81757813 C12.803125,4.37575033 12.4449528,4.01757813 12.003125,4.01757813 L8.32070313,4.01757813 L8.32070313,4.01757813 L8.32070313,0.8 C8.32070313,0.3581722 7.96253092,-1.92184753e-16 7.52070313,0 L5.28242188,0 C4.84059408,8.11624501e-17 4.48242188,0.3581722 4.48242188,0.8 L4.48242188,4.01757812 L4.48242188,4.01757812 L0.8,4.01757812 C0.3581722,4.01757812 -2.76152905e-16,4.37575033 0,4.81757812 L0,7.05585937 C1.65130603e-16,7.49768717 0.3581722,7.85585937 0.8,7.85585937 L4.48242188,7.85585937 L4.48242188,7.85585937 L4.48242187,16.2 C4.48242187,16.6418278 4.84059408,17 5.28242187,17 L7.52070313,17 C7.96253092,17 8.32070313,16.6418278 8.32070313,16.2 Z" id="Path"></path>
        </g>
    </g>
</svg>