<svg height="100" width="100" xmlns="http://www.w3.org/2000/svg"><g fill="none" fill-rule="evenodd" stroke="#fff"><g stroke-width="2.5"><path d="M69.13 55.914l-1.519 14.453" stroke-linecap="round"/><g transform="rotate(-17 122.772 -176.534)"><circle cx="3.939" cy="3.939" r="3.939"/><path d="M3.986 8.073v18.512" stroke-linecap="round"/></g><g stroke-linecap="round"><path d="M74.079 53.391l5.938-.207M73.076 56.816l2.674 2.978M72.652 50.557l3.165-2.473"/></g></g><g fill="#fff" fill-rule="nonzero" stroke-width=".4"><path d="M29.074 55.97c-1.504-.375-3.034.544-3.41 2.049s.545 3.034 2.05 3.409c1.504.375 3.034-.544 3.409-2.049s-.544-3.034-2.049-3.409zm-.907 3.639a.938.938 0 1 1 .454-1.82.938.938 0 0 1-.454 1.82zM57.271 59.135c-3.511-.875-7.08 1.27-7.955 4.78s1.268 7.08 4.78 7.956 7.08-1.27 7.955-4.78-1.269-7.08-4.78-7.956zm-2.722 10.916c-2.507-.625-4.039-3.175-3.414-5.682s3.175-4.04 5.682-3.414 4.04 3.175 3.415 5.682-3.176 4.04-5.683 3.414z"/><path d="M56.364 62.774c-1.505-.375-3.034.544-3.41 2.049s.544 3.034 2.049 3.409 3.034-.544 3.41-2.049-.545-3.034-2.05-3.409zm-.907 3.639a.938.938 0 1 1 .454-1.82.938.938 0 0 1-.454 1.82zM43.629 59.599l-21.832-5.443a.938.938 0 0 1-.683-1.137c.359-1.439 1.17-2.694 2.283-3.53 1.769-1.327 3.677-1.748 5.672-1.25a.938.938 0 0 0 .454-1.82c-2.533-.63-5.041-.087-7.252 1.573-1.457 1.091-2.513 2.716-2.976 4.574a2.816 2.816 0 0 0 2.048 3.409l21.832 5.443a.938.938 0 0 0 .454-1.82z"/><path d="M41.346 45.503l-12.735-3.175c-1.505-.375-3.034.544-3.41 2.048s.544 3.034 2.05 3.41l12.734 3.175c1.505.375 3.034-.544 3.41-2.049s-.544-3.034-2.049-3.41zm-.907 3.639l-12.735-3.176a.938.938 0 0 1 .453-1.82l12.735 3.176a.938.938 0 0 1-.453 1.82z"/><path d="M41.015 49.567a.938.938 0 0 0-1.286-.32c-1.57.941-3.666 6.709-4.493 9.144a.939.939 0 0 0 .586 1.19c.025.01.05.016.076.023a.936.936 0 0 0 1.114-.61c1.205-3.546 2.974-7.664 3.682-8.14a.938.938 0 0 0 .32-1.287zM58.178 55.499c-1.969-.491-2.243-2.733-2.26-2.877l-2.011-12.415a2.919 2.919 0 0 0-2.903-2.468 2.942 2.942 0 0 0-2.927 3.166l.724 9.317-7.06 9.5a.938.938 0 0 0 .524 1.47.944.944 0 0 0 .982-.347l7.27-9.782a.926.926 0 0 0 .182-.633l-.749-9.667a1.05 1.05 0 0 1 .28-.806c.202-.22.48-.342.78-.343.523.007.966.377 1.05.894l2.002 12.36c.015.15.41 3.639 3.664 4.45 1.897.473 3.484 1.884 3.954 2.627-.866-.006-2.677-.326-4.384-.801a.938.938 0 0 0-.505 1.807c1.82.513 5.058 1.262 6.224.583a1.3 1.3 0 0 0 .623-.81c.467-1.873-2.68-4.532-5.46-5.225z"/><path d="M50.906 61.413l-1.401-.35a.928.928 0 0 1-.662-.607.925.925 0 0 1 .143-.884 8.235 8.235 0 0 1 1.423-1.411c1.686-1.33 2.232-3.635 1.326-5.608l-1.121-2.446a.938.938 0 0 0-1.705.783l1.122 2.446c.544 1.183.222 2.56-.782 3.351-.68.536-1.266 1.12-1.744 1.735a2.808 2.808 0 0 0-.434 2.646 2.81 2.81 0 0 0 1.98 1.815l1.401.35a.938.938 0 0 0 .454-1.82zM58.757 40.481a.938.938 0 0 0-.771-.472l-2.972-.14a2.53 2.53 0 0 0-2.642 2.735 2.529 2.529 0 0 0 1.912 2.26l1.614.402a.938.938 0 0 0 1.054-.469l1.817-3.412a.936.936 0 0 0-.012-.904zm-3.115 2.79l-.904-.226a.66.66 0 0 1-.497-.598.642.642 0 0 1 .183-.507.646.646 0 0 1 .502-.2l1.491.071zM51.79 41.811a.936.936 0 0 0-1.171-.622l-5.229 1.595a.939.939 0 0 0 .548 1.792l5.23-1.595a.94.94 0 0 0 .621-1.17zM34.903 58.067a.934.934 0 0 0-.706-.82L23.95 54.692a.934.934 0 0 0-1.008.392 6.463 6.463 0 0 0-.915 2.027 6.57 6.57 0 0 0 4.78 7.956 6.57 6.57 0 0 0 7.955-4.78c.173-.694.221-1.42.142-2.22zm-7.643 5.18a4.694 4.694 0 0 1-3.414-5.682c.073-.297.183-.588.332-.883l8.885 2.215c-.006.329-.047.64-.121.936a4.694 4.694 0 0 1-5.682 3.414z"/></g></g></svg>