<svg height="100" width="100" xmlns="http://www.w3.org/2000/svg"><g fill="#fff"><path d="M28.104 39.493a24.774 24.774 0 0 0 1.113 18.715 1.178 1.178 0 0 0 1.988.221l2.766-3.512 3.426 1.877a1.177 1.177 0 0 0 1.663-.605l.891-2.282c.117-.3.106-.635-.03-.927a12.935 12.935 0 0 1-.52-9.72 12.938 12.938 0 0 1 6.399-7.37c6.39-3.257 14.238-.706 17.494 5.684 3.256 6.39.706 14.238-5.684 17.494a13.03 13.03 0 0 1-8.651 1.124 13.046 13.046 0 0 1-7.326-4.48 1.178 1.178 0 0 0-2.02.344l-.672 1.86-3.003-1.175a1.178 1.178 0 0 0-1.604 1.183l.203 2.796-1.679.419a1.179 1.179 0 0 0-.637 1.876c3.523 4.429 8.524 7.55 14.08 8.788 5.63 1.254 11.567.5 16.716-2.124 12.241-6.237 17.126-21.27 10.888-33.512-6.237-12.241-21.27-17.126-33.512-10.888a24.782 24.782 0 0 0-12.29 14.214zm20.355 23.002c3.445.747 7.075.275 10.22-1.328 7.548-3.845 10.56-13.114 6.714-20.662-3.846-7.548-13.115-10.56-20.663-6.715a15.281 15.281 0 0 0-7.558 8.708 15.275 15.275 0 0 0 .405 11.012l-.224.574-.98-.537a16.426 16.426 0 0 1-.174-11.675 16.429 16.429 0 0 1 8.022-9.088c8.103-4.128 18.053-.895 22.182 7.206 4.128 8.102.894 18.053-7.208 22.181a16.308 16.308 0 0 1-10.832 1.455 16.602 16.602 0 0 1-7.601-3.817l.413-1.142a15.446 15.446 0 0 0 7.284 3.828zm23.347-25.258c5.648 11.084 1.225 24.696-9.859 30.343a22.592 22.592 0 0 1-15.134 1.923 22.655 22.655 0 0 1-11.523-6.542l.779-.194c.556-.139.931-.657.89-1.229l-.14-1.922.705.276a18.936 18.936 0 0 0 10.36 6.04c4.176.869 8.573.279 12.38-1.662 9.26-4.718 12.956-16.09 8.238-25.35-4.718-9.259-16.09-12.953-25.35-8.235a18.777 18.777 0 0 0-9.168 10.387 18.785 18.785 0 0 0-.513 11.172 1.175 1.175 0 0 0-.733.432l-2.155 2.736c-1.836-4.865-1.934-10.18-.248-15.164a22.438 22.438 0 0 1 11.128-12.87c11.084-5.647 24.696-1.225 30.343 9.86zM32.02 65.334a1.178 1.178 0 0 0-2.265-.647l-.97 3.394-.619-1.959a1.178 1.178 0 0 0-1.658-.695l-1.764.9 1.304-2.937a1.178 1.178 0 0 0-.665-1.581l-3.654-1.366 2.477-.379a1.178 1.178 0 0 0 .732-1.913l-2.023-2.456 2.67.464a1.178 1.178 0 1 0 .403-2.32l-5.803-1.01a1.178 1.178 0 0 0-1.11 1.91l2.726 3.31-4.901.75a1.178 1.178 0 0 0-.235 2.267l6.722 2.512-2.144 4.828a1.178 1.178 0 0 0 1.612 1.527l3.484-1.775 1.38 4.368a1.178 1.178 0 0 0 2.256-.032z"/></g></svg>