<svg height="100" width="100" xmlns="http://www.w3.org/2000/svg"><g fill="none" fill-rule="evenodd" stroke="#a40000"><path d="M71.256 64.108a1.785 1.785 0 0 1-1.96 1.586l-.78-.082c-.199-3.275-2.736-6.034-6.106-6.389s-6.425 1.818-7.3 4.98l-21.46-2.256c-.198-3.275-2.736-6.034-6.106-6.388-3.369-.354-6.425 1.817-7.3 4.98l-1.407-.149a1.256 1.256 0 0 1-1.121-1.375l.905-8.644a.315.315 0 0 1 .354-.277c1.902.2 3.721-.57 4.869-2.061l5.602-7.288a4.608 4.608 0 0 1 4.106-1.762l19.593 2.06a4.608 4.608 0 0 1 3.65 2.574l2.753 5.746a10.372 10.372 0 0 0 8.324 5.87l3.962.417a.31.31 0 0 1 .275.34zm-10.008 6.17a4.28 4.28 0 0 1-3.805-4.698 4.28 4.28 0 0 1 4.7-3.805 4.28 4.28 0 0 1 3.804 4.698 4.28 4.28 0 0 1-4.699 3.805zm-34.865-3.664a4.28 4.28 0 0 1-3.805-4.699 4.28 4.28 0 0 1 4.698-3.805 4.28 4.28 0 0 1 3.805 4.699 4.28 4.28 0 0 1-4.698 3.805zm45.693-13.27l-3.962-.416a8.17 8.17 0 0 1-6.474-4.567l-2.755-5.747a6.937 6.937 0 0 0-5.498-3.877l-19.593-2.059a6.938 6.938 0 0 0-6.186 2.654l-5.602 7.285a3.074 3.074 0 0 1-2.742 1.177 2.7 2.7 0 0 0-2.001.58 2.59 2.59 0 0 0-.948 1.758l-.5 4.787-.404 3.853a3.577 3.577 0 0 0 3.183 3.926l1.418.149c.23 3.244 2.758 5.967 6.102 6.318 3.346.352 6.384-1.785 7.283-4.912l21.481 2.258c.23 3.245 2.758 5.967 6.102 6.319 3.346.351 6.384-1.786 7.283-4.912l.79.083a4.105 4.105 0 0 0 4.509-3.65l.853-8.12a2.63 2.63 0 0 0-2.34-2.886z" fill="#a40000" stroke-width=".5"/><path d="M78.34 55.032L76.625 71.35" stroke-linecap="round" stroke-width="2.8"/><g transform="rotate(-17 111.67 -204.332)"><circle cx="4.448" cy="4.448" r="4.448" stroke-width="2.7"/><path d="M4.5 9.114v20.901" stroke-linecap="round" stroke-width="2.8"/></g><g stroke-linecap="round" stroke-width="2.7"><path d="M83.928 52.184l6.704-.234M82.795 56.05l3.02 3.362M82.316 48.984l3.574-2.793"/></g></g></svg>