<?xml version="1.0" encoding="UTF-8"?>
<svg width="100px" height="100px" viewBox="0 0 100 100" version="1.1" xmlns="http://www.w3.org/2000/svg" xmlns:xlink="http://www.w3.org/1999/xlink">
    <!-- Generator: Sketch 64 (93537) - https://sketch.com -->
    <title>dentista</title>
    <desc>Created with Sketch.</desc>
    <g id="dentista" stroke="none" stroke-width="1" fill="none" fill-rule="evenodd">
        <g id="dentist" transform="translate(27.000000, 27.000000)" fill="#A40000" fill-rule="nonzero">
            <path d="M44.4810771,30.8161067 L34.9865217,19.5797134 L30.6824407,19.5797134 L30.6824407,14.2437451 L33.3504249,14.2437451 L33.3504249,16.9117292 L42.6883696,16.9117292 L42.6883696,8.90777668 L33.3504249,8.90777668 L33.3504249,11.5757609 L30.6824407,11.5757609 L30.6824407,0.0793280632 L24.1199111,3.36059289 C23.3997332,2.66620553 22.4214723,2.23781621 21.344496,2.23781621 C19.1377174,2.23781621 17.3425198,4.03310277 17.3425198,6.23979249 C17.3425198,8.44648221 19.1377174,10.2417688 21.344496,10.2417688 C23.5512747,10.2417688 25.3464723,8.44648221 25.3464723,6.23979249 C25.3464723,6.07250988 25.3349111,5.90798419 25.3149012,5.74603755 L28.0144565,4.39630435 L28.0144565,19.5797134 L14.0795751,19.5797134 L8.94281621,7.71518775 C8.20387352,6.00856719 6.52482213,4.9058004 4.66497036,4.9058004 C1.41305336,4.9058004 -0.841393281,8.15976285 0.300326087,11.2039328 L6.94298419,28.9176581 L17.3424308,28.9176581 L17.3424308,35.5876186 L13.771334,35.5876186 L11.1033498,42.2575791 L8.0045751,42.2575791 L8.0045751,44.9255632 L34.684417,44.9255632 L34.684417,42.2575791 L31.5855534,42.2575791 L28.9175692,35.5876186 L25.3464723,35.5876186 L25.3464723,28.9176581 L30.094417,28.9176581 L36.9998715,36.4735672 C38.5991502,38.4756225 41.524417,38.8216601 43.5476383,37.2457708 C45.5395553,35.694249 45.9496245,32.8699209 44.4810771,30.8161067 L44.4810771,30.8161067 Z M36.0184091,11.5757609 L40.0203854,11.5757609 L40.0203854,14.2437451 L36.0184091,14.2437451 L36.0184091,11.5757609 Z M21.344496,7.57378458 C20.6089328,7.57378458 20.010504,6.97535573 20.010504,6.23979249 C20.010504,5.50422925 20.6089328,4.9058004 21.344496,4.9058004 C22.0800593,4.9058004 22.6784881,5.50422925 22.6784881,6.23979249 C22.6784881,6.97535573 22.0800593,7.57378458 21.344496,7.57378458 Z M27.1113439,38.2556028 L28.7121344,42.2575791 L13.9768577,42.2575791 L15.5776482,38.2556028 L27.1113439,38.2556028 Z M22.6784881,35.5876186 L20.010504,35.5876186 L20.010504,28.9176581 L22.6784881,28.9176581 L22.6784881,35.5876186 Z M41.9080731,35.140998 C41.0281719,35.8264032 39.7545652,35.6682806 39.0688933,34.788913 L31.2704644,26.2496739 C30.3494763,26.2496739 9.72017787,26.2496739 8.79189723,26.2496739 L2.79853755,10.2672036 C2.31118577,8.96753953 3.26623518,7.57378458 4.66505929,7.57378458 C5.46038538,7.57378458 6.17851779,8.04539526 6.49440711,8.77517787 L12.327332,22.2476976 L33.7483992,22.2476976 L42.3378854,32.4067589 C42.9388043,33.2890613 42.7547134,34.4814723 41.9080731,35.140998 Z" id="Shape"></path>
        </g>
    </g>
</svg>