<?xml version="1.0" encoding="UTF-8"?>
<svg width="17px" height="17px" viewBox="0 0 17 17" version="1.1" xmlns="http://www.w3.org/2000/svg" xmlns:xlink="http://www.w3.org/1999/xlink">
    <!-- Generator: Sketch 55.2 (78181) - https://sketchapp.com -->
    <title>loupe</title>
    <desc>Created with Sketch.</desc>
    <g id="Page-1" stroke="none" stroke-width="1" fill="none" fill-rule="evenodd">
        <g id="loupe" fill="#F03E31" fill-rule="nonzero">
            <path d="M16.6108926,14.7328574 C16.8617754,14.983541 17,15.3170332 17,15.671875 C17,16.0267168 16.8617754,16.360209 16.610793,16.6109922 C16.3599766,16.8618086 16.0265176,17 15.671875,17 C15.3172324,17 14.9837734,16.8618086 14.7328242,16.6108926 L11.5259336,13.404002 L10.3009043,12.1789727 C9.21340234,12.9009082 7.95400781,13.28125 6.640625,13.28125 C2.97898438,13.28125 0,10.3022656 0,6.640625 C0,2.97898438 2.97898438,0 6.640625,0 C10.3022656,0 13.28125,2.97898438 13.28125,6.640625 C13.28125,7.95397461 12.9009414,9.21336914 12.1789395,10.3009043 L16.6108926,14.7328574 Z M6.640625,11.2890625 C9.20377344,11.2890625 11.2890625,9.20377344 11.2890625,6.640625 C11.2890625,4.07747656 9.20377344,1.9921875 6.640625,1.9921875 C4.07747656,1.9921875 1.9921875,4.07747656 1.9921875,6.640625 C1.9921875,9.20377344 4.07747656,11.2890625 6.640625,11.2890625 Z" id="Combined-Shape"></path>
        </g>
    </g>
</svg>