<svg width="52" height="52" xmlns="http://www.w3.org/2000/svg"><g fill="none" fill-rule="evenodd"><circle cx="25" cy="25" r="25" transform="translate(1 1)" stroke="#F03E31" stroke-width="1.3"/><g fill="#F03E31" fill-rule="nonzero"><path d="M29.531 23.906a.469.469 0 1 0 0 .938.469.469 0 0 0 0-.938z"/><path d="M38.45 35.8l-6.256-6.258a9.29 9.29 0 0 0 1.556-5.167c0-5.17-4.206-9.375-9.375-9.375C19.205 15 15 19.206 15 24.375c0 5.17 4.206 9.375 9.375 9.375a9.291 9.291 0 0 0 5.167-1.556l1.73 1.73 4.527 4.527c.355.354.825.549 1.326.549.5 0 .971-.195 1.326-.55.354-.353.549-.824.549-1.325s-.195-.972-.55-1.326zm-9.128-4.594a8.365 8.365 0 0 1-4.947 1.606c-4.652 0-8.437-3.785-8.437-8.437 0-4.652 3.785-8.438 8.437-8.438 4.652 0 8.438 3.786 8.438 8.438 0 1.79-.556 3.5-1.607 4.947a8.478 8.478 0 0 1-1.884 1.884zm.983.425c.486-.397.93-.84 1.326-1.326l1.33 1.33c-.405.478-.848.921-1.326 1.326l-1.33-1.33zm7.483 6.157a.931.931 0 0 1-.663.275.931.931 0 0 1-.663-.275L32.3 33.626c.475-.408.918-.851 1.325-1.326l4.163 4.162a.93.93 0 0 1 .275.663.93.93 0 0 1-.275.663z"/><path d="M24.375 16.875c-4.136 0-7.5 3.364-7.5 7.5s3.364 7.5 7.5 7.5 7.5-3.364 7.5-7.5-3.364-7.5-7.5-7.5zm0 14.063a6.57 6.57 0 0 1-6.563-6.563 6.57 6.57 0 0 1 6.563-6.563 6.57 6.57 0 0 1 6.563 6.563 6.57 6.57 0 0 1-6.563 6.563z"/><path d="M29.628 22.363a5.625 5.625 0 0 0-2.032-2.598 5.585 5.585 0 0 0-3.221-1.015.469.469 0 0 0 0 .938 4.72 4.72 0 0 1 4.378 3.011.469.469 0 1 0 .875-.336z"/></g></g></svg>