<?xml version="1.0" encoding="UTF-8"?>
<svg width="100px" height="100px" viewBox="0 0 100 100" version="1.1" xmlns="http://www.w3.org/2000/svg" xmlns:xlink="http://www.w3.org/1999/xlink">
    <!-- Generator: Sketch 64 (93537) - https://sketch.com -->
    <title>diente</title>
    <desc>Created with Sketch.</desc>
    <g id="diente" stroke="none" stroke-width="1" fill="none" fill-rule="evenodd">
        <g id="mouth" transform="translate(31.000000, 30.000000)" fill="#A40000" fill-rule="nonzero">
            <path d="M36.2351913,4.26448087 C34.1016393,1.38994536 31.8601093,0.051147541 29.1812022,0.051147541 C27.446776,0.051147541 25.7637158,0.607431694 24.1390164,1.1442623 L24.0852459,1.16196721 C22.3519126,1.73114754 20.7147541,2.26907104 18.9481967,2.26907104 C17.1779235,2.26907104 15.4428415,1.68677596 13.7540984,1.12043716 C12.0974863,0.569398907 10.3846995,0 8.67016393,0 C5.9779235,0 3.78907104,1.36590164 1.78273224,4.29704918 C-1.37333333,8.89355191 0.418579235,13.8157377 1.86404372,17.7853552 C2.50775956,19.5514754 3.11562842,21.2194536 3.11562842,22.4789071 C3.11562842,28.9455738 4.47934426,39.8891803 9.59081967,39.8891803 C13.0889617,39.8891803 14.1652459,35.8246995 15.117377,32.2286339 C16.128306,28.4430601 17.0037158,25.7634973 19.0723497,25.7634973 C20.8570492,25.7634973 21.5398907,27.4983607 22.4865574,31.6572678 C23.3057923,35.290929 24.3252459,39.8126776 28.6244809,39.8126776 C34.623388,39.8126776 35.0896175,26.5387978 35.0896175,22.4706011 C35.0896175,21.2765027 35.677377,19.6225137 36.2998907,17.8712568 L36.3245902,17.8013115 C37.7567213,13.7499454 39.5390164,8.70819672 36.2351913,4.26448087 Z M33.2334426,16.7084153 L33.2107104,16.7731148 C32.490929,18.7982514 31.8111475,20.7110383 31.8111475,22.4703825 C31.8111475,26.3315847 31.4050273,30.0743169 30.696612,32.7390164 C29.869071,35.8520219 28.9202186,36.5337705 28.6244809,36.5337705 C27.3077596,36.5337705 26.675847,35.3304918 25.6815301,30.9204372 C24.8710383,27.3602186 23.7613115,22.4843716 19.0723497,22.4843716 C14.3261202,22.4843716 12.9525683,27.6271038 11.9453552,31.3993443 C11.395847,33.4743169 10.5656831,36.6100546 9.59103825,36.6100546 C9.43978142,36.6100546 8.48743169,35.9525683 7.61551913,32.8279781 C6.83956284,30.0476503 6.3947541,26.2754098 6.3947541,22.4784699 C6.3947541,20.6402186 5.6904918,18.7079781 4.94010929,16.6489617 C3.63497268,13.0644809 2.28546448,9.35781421 4.48743169,6.15081967 C6.21923497,3.61989071 7.57377049,3.27868852 8.67016393,3.27868852 C9.85398907,3.27868852 11.2459016,3.74142077 12.7217486,4.23213115 C14.5595628,4.84874317 16.6424044,5.54775956 18.9479781,5.54775956 C21.2389071,5.54775956 23.2946448,4.87278689 25.1081967,4.27715847 L25.1648087,4.25857923 C26.6096175,3.78098361 27.9746448,3.33005464 29.1812022,3.33005464 C30.3071038,3.33005464 31.7130055,3.67322404 33.6032787,6.21989071 C35.8657923,9.26251366 34.5276503,13.0478689 33.2334426,16.7084153 Z" id="Shape"></path>
        </g>
    </g>
</svg>