<?xml version="1.0" encoding="UTF-8"?>
<svg width="52px" height="52px" viewBox="0 0 52 52" version="1.1" xmlns="http://www.w3.org/2000/svg" xmlns:xlink="http://www.w3.org/1999/xlink">
    <!-- Generator: Sketch 64 (93537) - https://sketch.com -->
    <title>Group 29</title>
    <desc>Created with Sketch.</desc>
    <g id="Page-1" stroke="none" stroke-width="1" fill="none" fill-rule="evenodd">
        <g id="Group-29" transform="translate(1.000000, 1.000000)">
            <circle id="Oval-Copy-10" stroke="#F03E31" stroke-width="1.3" cx="25" cy="25" r="25"></circle>
            <g id="Group-22" transform="translate(7.028912, 14.828104)" fill="#E43B2E">
                <path d="M23.9204901,0 C29.5125993,0 34.0458994,4.53330014 34.0458994,10.1254093 C34.0458994,15.7175184 29.5125993,20.2508185 23.9204901,20.2508185 C18.328381,20.2508185 13.7950809,15.7175184 13.7950809,10.1254093 C13.7950809,4.53330014 18.328381,0 23.9204901,0 Z M23.9204901,1.20006152 C18.9911567,1.20006152 14.9951424,5.19607582 14.9951424,10.1254093 C14.9951424,15.0547427 18.9911567,19.050757 23.9204901,19.050757 C28.8498236,19.050757 32.8458379,15.0547427 32.8458379,10.1254093 C32.8458379,5.19607582 28.8498236,1.20006152 23.9204901,1.20006152 Z" id="Combined-Shape"></path>
                <rect id="Rectangle" x="6.3070802" y="3.23147864" width="7.48800067" height="1.225" rx="0.6125"></rect>
                <rect id="Rectangle-Copy" x="-1.98951966e-13" y="9.51290927" width="12.292631" height="1.225" rx="0.6125"></rect>
                <rect id="Rectangle-Copy-2" x="3.47470221" y="15.7943399" width="10.3203787" height="1.225" rx="0.6125"></rect>
            </g>
            <path d="M24.4598371,26.8333333 C24.4598371,27.1706667 24.7336149,27.4444444 25.0709482,27.4444444 L26.5031705,27.4444444 C27.4063927,29.2472222 29.2531705,30.5 31.4042816,30.5 C32.8892816,30.5 34.3290594,29.8876667 35.3532816,28.8218889 C35.586726,28.5786667 35.5793927,28.1912222 35.3349482,27.9577778 C35.0929482,27.7231111 34.7042816,27.7316667 34.4708371,27.9748889 C33.6641705,28.8145556 32.5751705,29.2777778 31.4042816,29.2777778 C29.9559482,29.2777778 28.6775038,28.5493333 27.9026149,27.4444444 L30.1820594,27.4444444 C30.5193927,27.4444444 30.7931705,27.1706667 30.7931705,26.8333333 C30.7931705,26.496 30.5193927,26.2222222 30.1820594,26.2222222 L27.325726,26.2222222 C27.2083927,25.8323333 27.1265038,25.4277778 27.1265038,25 C27.1265038,24.5722222 27.2083927,24.1676667 27.325726,23.7777778 L30.1820594,23.7777778 C30.5193927,23.7777778 30.7931705,23.504 30.7931705,23.1666667 C30.7931705,22.8293333 30.5193927,22.5555556 30.1820594,22.5555556 L27.9026149,22.5555556 C28.6775038,21.4506667 29.9559482,20.7222222 31.4042816,20.7222222 C32.5751705,20.7222222 33.6641705,21.1854444 34.4708371,22.0251111 C34.7042816,22.2658889 35.0929482,22.2768889 35.3349482,22.0422222 C35.5781705,21.8087778 35.586726,21.4213333 35.3532816,21.1781111 C34.3290594,20.1123333 32.8892816,19.5 31.4042816,19.5 C29.2531705,19.5 27.4063927,20.7527778 26.5031705,22.5555556 L25.0709482,22.5555556 C24.7336149,22.5555556 24.4598371,22.8293333 24.4598371,23.1666667 C24.4598371,23.504 24.7336149,23.7777778 25.0709482,23.7777778 L26.0521705,23.7777778 C25.961726,24.1725556 25.9042816,24.5783333 25.9042816,25 C25.9042816,25.4216667 25.961726,25.8274444 26.0521705,26.2222222 L25.0709482,26.2222222 C24.7336149,26.2222222 24.4598371,26.496 24.4598371,26.8333333 Z" id="Path" fill="#E43B2E" fill-rule="nonzero"></path>
        </g>
    </g>
</svg>