<svg height="100" width="100" xmlns="http://www.w3.org/2000/svg"><g fill="#fff"><path d="M42.78 32.653H17.832a.832.832 0 0 0-.832.832v6.653c0 .459.372.831.832.831H42.78c.459 0 .831-.372.831-.831v-6.653a.832.832 0 0 0-.831-.832zm-.832 6.653H18.663v-4.99h23.285z"/><path d="M37.79 33.484h1.663v6.653H37.79zM33.632 33.484h1.663v6.653h-1.663zM29.474 33.484h1.663v6.653h-1.663zM25.316 33.484h1.663v6.653h-1.663zM21.158 33.484h1.663v6.653h-1.663z"/><path d="M43.927 26H18.98a.832.832 0 0 0-.831.832v6.653c0 .46.372.831.831.831h24.948c.46 0 .832-.372.832-.831v-6.653a.832.832 0 0 0-.832-.832zm-.831 6.653H19.81v-4.99h23.285z"/><path d="M38.938 26.832H40.6v6.652h-1.663zM34.78 26.832h1.663v6.652H34.78zM30.622 26.832h1.663v6.652h-1.663zM26.464 26.832h1.663v6.652h-1.663zM22.306 26.832h1.663v6.652h-1.663zM45.274 39.306H20.326a.832.832 0 0 0-.831.832v6.652c0 .46.372.832.831.832h24.948c.46 0 .832-.372.832-.832v-6.652a.832.832 0 0 0-.832-.832zm-.831 6.653H21.158v-4.99h23.285z"/><path d="M40.285 40.137h1.663v6.653h-1.663zM36.127 40.137h1.663v6.653h-1.663zM31.969 40.137h1.663v6.653h-1.663zM27.81 40.137h1.664v6.653h-1.663zM23.653 40.137h1.663v6.653h-1.663z"/><path d="M43.611 45.959H18.663a.832.832 0 0 0-.831.831v6.653c0 .46.372.832.831.832h24.948c.46 0 .832-.373.832-.832V46.79a.832.832 0 0 0-.832-.831zm-.831 6.653H19.495v-4.99H42.78z"/><path d="M38.622 46.79h1.663v6.653h-1.663zM34.464 46.79h1.663v6.653h-1.663zM30.306 46.79h1.663v6.653h-1.663zM26.148 46.79h1.663v6.653h-1.663zM21.99 46.79h1.663v6.653H21.99z"/><path d="M44.443 52.612H19.495a.832.832 0 0 0-.832.831v6.653c0 .46.373.832.832.832h24.948c.46 0 .831-.373.831-.832v-6.653a.832.832 0 0 0-.831-.831zm-.832 6.652H20.326v-4.99h23.285z"/><path d="M39.453 53.443h1.663v6.653h-1.663zM35.295 53.443h1.663v6.653h-1.663zM31.137 53.443H32.8v6.653h-1.663zM26.98 53.443h1.662v6.653H26.98zM22.821 53.443h1.663v6.653h-1.663z"/><path d="M46.106 59.264H21.158a.832.832 0 0 0-.832.832v6.653c0 .46.373.831.832.831h24.948c.46 0 .832-.372.832-.831v-6.653a.832.832 0 0 0-.832-.832zm-.832 6.653H21.99v-4.99h23.284z"/><path d="M41.116 60.096h1.664v6.652h-1.664zM36.958 60.096h1.664v6.652h-1.664zM32.8 60.096h1.664v6.652H32.8zM28.642 60.096h1.664v6.652h-1.664zM24.484 60.096h1.664v6.652h-1.664z"/><path d="M43.927 65.917H18.98a.832.832 0 0 0-.831.832v6.653c0 .459.372.831.831.831h24.948c.46 0 .832-.372.832-.831v-6.653a.832.832 0 0 0-.832-.832zm-.831 6.653H19.81v-4.99h23.285z"/><path d="M38.938 66.748H40.6v6.653h-1.663zM34.78 66.748h1.663v6.653H34.78zM30.622 66.748h1.663v6.653h-1.663zM26.464 66.748h1.663v6.653h-1.663zM22.306 66.748h1.663v6.653h-1.663z"/><g><path d="M79.78 32.653H54.832a.832.832 0 0 0-.832.832v6.653c0 .459.372.831.832.831H79.78c.459 0 .831-.372.831-.831v-6.653a.832.832 0 0 0-.831-.832zm-.832 6.653H55.663v-4.99h23.285z"/><path d="M74.79 33.484h1.663v6.653H74.79zM70.632 33.484h1.663v6.653h-1.663zM66.474 33.484h1.663v6.653h-1.663zM62.316 33.484h1.663v6.653h-1.663zM58.158 33.484h1.663v6.653h-1.663z"/><path d="M80.927 26H55.98a.832.832 0 0 0-.831.832v6.653c0 .46.372.831.831.831h24.948c.46 0 .832-.372.832-.831v-6.653a.832.832 0 0 0-.832-.832zm-.831 6.653H56.81v-4.99h23.285z"/><path d="M75.938 26.832H77.6v6.652h-1.663zM71.78 26.832h1.663v6.652H71.78zM67.622 26.832h1.663v6.652h-1.663zM63.464 26.832h1.663v6.652h-1.663zM59.306 26.832h1.663v6.652h-1.663zM82.274 39.306H57.326a.832.832 0 0 0-.831.832v6.652c0 .46.372.832.831.832h24.948c.46 0 .832-.372.832-.832v-6.652a.832.832 0 0 0-.832-.832zm-.831 6.653H58.158v-4.99h23.285z"/><path d="M77.285 40.137h1.663v6.653h-1.663zM73.127 40.137h1.663v6.653h-1.663zM68.969 40.137h1.663v6.653h-1.663zM64.81 40.137h1.664v6.653h-1.663zM60.653 40.137h1.663v6.653h-1.663z"/><path d="M80.611 45.959H55.663a.832.832 0 0 0-.831.831v6.653c0 .46.372.832.831.832h24.948c.46 0 .832-.373.832-.832V46.79a.832.832 0 0 0-.832-.831zm-.831 6.653H56.495v-4.99H79.78z"/><path d="M75.622 46.79h1.663v6.653h-1.663zM71.464 46.79h1.663v6.653h-1.663zM67.306 46.79h1.663v6.653h-1.663zM63.148 46.79h1.663v6.653h-1.663zM58.99 46.79h1.663v6.653H58.99z"/><path d="M81.443 52.612H56.495a.832.832 0 0 0-.832.831v6.653c0 .46.373.832.832.832h24.948c.46 0 .831-.373.831-.832v-6.653a.832.832 0 0 0-.831-.831zm-.832 6.652H57.326v-4.99h23.285z"/><path d="M76.453 53.443h1.663v6.653h-1.663zM72.295 53.443h1.663v6.653h-1.663zM68.137 53.443H69.8v6.653h-1.663zM63.98 53.443h1.662v6.653H63.98zM59.821 53.443h1.663v6.653h-1.663z"/><path d="M83.106 59.264H58.158a.832.832 0 0 0-.832.832v6.653c0 .46.373.831.832.831h24.948c.46 0 .832-.372.832-.831v-6.653a.832.832 0 0 0-.832-.832zm-.832 6.653H58.99v-4.99h23.284z"/><path d="M78.116 60.096h1.664v6.652h-1.664zM73.958 60.096h1.664v6.652h-1.664zM69.8 60.096h1.664v6.652H69.8zM65.642 60.096h1.664v6.652h-1.664zM61.484 60.096h1.664v6.652h-1.664z"/><path d="M80.927 65.917H55.98a.832.832 0 0 0-.831.832v6.653c0 .459.372.831.831.831h24.948c.46 0 .832-.372.832-.831v-6.653a.832.832 0 0 0-.832-.832zm-.831 6.653H56.81v-4.99h23.285z"/><path d="M75.938 66.748H77.6v6.653h-1.663zM71.78 66.748h1.663v6.653H71.78zM67.622 66.748h1.663v6.653h-1.663zM63.464 66.748h1.663v6.653h-1.663zM59.306 66.748h1.663v6.653h-1.663z"/></g></g></svg>