<?xml version="1.0" encoding="UTF-8"?>
<svg width="16px" height="19px" viewBox="0 0 16 19" version="1.1" xmlns="http://www.w3.org/2000/svg" xmlns:xlink="http://www.w3.org/1999/xlink">
    <!-- Generator: Sketch 64 (93537) - https://sketch.com -->
    <title>546391 copy</title>
    <desc>Created with Sketch.</desc>
    <g id="Page-1" stroke="none" stroke-width="1" fill="none" fill-rule="evenodd">
        <g id="546391-copy" fill="#F03E31" fill-rule="nonzero">
            <path d="M15.1119766,3.20483984 C15.2360332,3.20483984 15.3408672,3.30967383 15.3408672,3.43373047 L15.340459,14.421668 C15.340459,14.4896523 15.3280645,14.5683984 15.3093242,14.6505586 L12.7081426,14.6505586 C12.013418,14.6519316 11.4505059,15.2148437 11.4490957,15.9096055 L11.4490957,18.2854961 C11.3673809,18.3020098 11.2886348,18.3132168 11.2202051,18.3132168 L3.43729297,18.3132168 C3.31297656,18.3132168 3.20840234,18.2083828 3.20840234,18.0843262 L3.20840234,3.43373047 C3.20840234,3.30967383 3.31301367,3.20483984 3.43729297,3.20483984 L15.1119766,3.20483984 Z M14.9984961,15.3373789 C14.9629824,15.3856211 14.9266152,15.430041 14.8897656,15.4648496 L12.3318535,17.8723945 C12.2794551,17.9216387 12.2112109,17.969918 12.1358789,18.0158965 L12.1358789,15.9096426 C12.1358789,15.752373 12.1992988,15.610875 12.3039102,15.5055957 C12.4094492,15.4009844 12.5509102,15.3373789 12.7081797,15.3373789 L14.9984961,15.3373789 Z M12.5941797,0.686783203 C12.7180137,0.686783203 12.8230703,0.791617187 12.8230703,0.915673828 L12.8230703,2.51809375 L3.43729297,2.51809375 C2.93345898,2.51809375 2.52161914,2.93011914 2.52161914,3.43376758 L2.52161914,15.7951973 L0.919236328,15.7951973 C0.795179688,15.7951973 0.690345703,15.6903633 0.690345703,15.5663066 L0.690345703,0.915673828 C0.690345703,0.791617187 0.795179688,0.686783203 0.919236328,0.686783203 L12.5941797,0.686783203 Z M9.61826758,12.5903574 L5.95564648,12.5903574 L5.88640532,12.5973279 C5.72987015,12.6293217 5.61227344,12.7676753 5.61227344,12.9337305 C5.61227344,13.1235078 5.76586914,13.2771035 5.95564648,13.2771035 L5.95564648,13.2771035 L9.61826758,13.2771035 L9.68743525,13.270133 C9.84382126,13.2381393 9.96141797,13.0997856 9.96141797,12.9337305 C9.96141797,12.7439531 9.80782227,12.5903574 9.61826758,12.5903574 L9.61826758,12.5903574 Z M12.5941426,10.3011914 L5.95560938,10.3011914 L5.88636821,10.3081619 C5.72983304,10.3401557 5.61223633,10.4785093 5.61223633,10.6445645 C5.61223633,10.8343418 5.76586914,10.9879375 5.95560938,10.9879375 L5.95560938,10.9879375 L12.5941426,10.9879375 L12.6633198,10.980967 C12.8197484,10.9489732 12.9375156,10.8106196 12.9375156,10.6445645 C12.9375156,10.45475 12.7836973,10.3011914 12.5941426,10.3011914 L12.5941426,10.3011914 Z M12.5941426,8.01202539 L5.95560938,8.01202539 L5.88636821,8.01899586 C5.72983304,8.05098965 5.61223633,8.18934326 5.61223633,8.35539844 C5.61223633,8.54517578 5.76586914,8.69877148 5.95560938,8.69877148 L5.95560938,8.69877148 L12.5941426,8.69877148 L12.6633198,8.69180101 C12.8197484,8.65980722 12.9375156,8.52145361 12.9375156,8.35539844 C12.9375156,8.16562109 12.7836973,8.01202539 12.5941426,8.01202539 L12.5941426,8.01202539 Z M12.5941426,5.72285937 L5.95560938,5.72285937 L5.88636821,5.72982985 C5.72983304,5.76182364 5.61223633,5.90017725 5.61223633,6.06623242 C5.61223633,6.25600977 5.76586914,6.40960547 5.95560938,6.40960547 L5.95560938,6.40960547 L12.5941426,6.40960547 L12.6633198,6.40263499 C12.8197484,6.3706412 12.9375156,6.2322876 12.9375156,6.06623242 C12.9375156,5.87645508 12.7836973,5.72285937 12.5941426,5.72285937 L12.5941426,5.72285937 Z" id="Combined-Shape"></path>
        </g>
    </g>
</svg>