<?xml version="1.0" encoding="UTF-8"?>
<svg width="52px" height="52px" viewBox="0 0 52 52" version="1.1" xmlns="http://www.w3.org/2000/svg" xmlns:xlink="http://www.w3.org/1999/xlink">
    <!-- Generator: Sketch 64 (93537) - https://sketch.com -->
    <title>Group 40</title>
    <desc>Created with Sketch.</desc>
    <g id="Page-1" stroke="none" stroke-width="1" fill="none" fill-rule="evenodd">
        <g id="Group-40" transform="translate(1.000000, 1.000000)">
            <circle id="Oval-Copy-2" stroke="#F03E31" stroke-width="1.3" cx="25" cy="25" r="25"></circle>
            <g id="546391" transform="translate(15.000000, 12.000000)" fill="#F03E31" fill-rule="nonzero">
                <path d="M21.4749668,3.57829102 L19.1978438,3.57829102 L19.1978438,1.3012207 C19.1978965,0.585509766 18.6122813,0 17.8969395,0 L1.3062832,0 C0.590625,0 0.00511523438,0.585509766 0.00511523438,1.3012207 L0.00511523438,22.1204883 C0.00511523438,22.8361465 0.590625,23.421709 1.30633594,23.421709 L3.58345898,23.421709 L3.58345898,25.698832 C3.58345898,26.4144902 4.16870508,27.0000527 4.88467969,27.0000527 L15.9446074,27.0000527 C16.6599492,27.0000527 17.672291,26.5986387 18.1930957,26.1084199 L21.8280234,22.6869082 C22.3494609,22.1966895 22.7756074,21.2097129 22.7756074,20.4940547 L22.7762402,4.87961719 C22.7762402,4.16385352 22.190625,3.57829102 21.4749668,3.57829102 Z M3.58335352,4.87956445 L3.58335352,22.4458066 L1.3062832,22.4458066 C1.12999219,22.4458066 0.981017578,22.296832 0.981017578,22.120541 L0.981017578,1.3012207 C0.981017578,1.12492969 1.12999219,0.975955078 1.3062832,0.975955078 L17.8969922,0.975955078 C18.0729668,0.975955078 18.2222578,1.12492969 18.2222578,1.3012207 L18.2222578,3.57834375 L4.88457422,3.57834375 C4.16859961,3.57834375 3.58335352,4.16385352 3.58335352,4.87956445 Z M21.1591406,21.9763652 L17.5242129,25.3976133 C17.449752,25.4675918 17.3527734,25.5361992 17.2457227,25.6015371 L17.2457227,22.6084395 C17.2457227,22.3849512 17.3358457,22.183875 17.4845039,22.0342676 C17.6344805,21.8856094 17.8355039,21.7952227 18.0589922,21.7952227 L21.3136523,21.7952227 C21.2631855,21.8637773 21.2115059,21.9269004 21.1591406,21.9763652 Z M21.7995996,20.4939492 C21.7995996,20.5905586 21.7819863,20.7024609 21.7553555,20.8192148 L18.0589395,20.8192148 C17.0716992,20.821166 16.2717715,21.6210938 16.2697676,22.6083867 L16.2697676,25.9846523 C16.1536465,26.0081191 16.0417441,26.0240449 15.944502,26.0240449 L4.88457422,26.0240449 L4.88457422,26.0240449 C4.70791406,26.0240449 4.55930859,25.8750703 4.55930859,25.6987793 L4.55930859,4.87951172 C4.55930859,4.7032207 4.7079668,4.55424609 4.88457422,4.55424609 L21.4749141,4.55424609 C21.6512051,4.55424609 21.8001797,4.7032207 21.8001797,4.87951172 L21.7995996,20.4939492 Z" id="Shape"></path>
                <path d="M17.8969395,8.13248438 L8.46323438,8.13248438 C8.19355078,8.13248438 7.9752832,8.35075195 7.9752832,8.62043555 C7.9752832,8.89011914 8.19360352,9.10838672 8.46323438,9.10838672 L17.8969395,9.10838672 C18.1663066,9.10838672 18.3848906,8.89011914 18.3848906,8.62043555 C18.3848906,8.35075195 18.1663066,8.13248438 17.8969395,8.13248438 Z" id="Path"></path>
                <path d="M17.8969395,14.6385352 L8.46323438,14.6385352 C8.19355078,14.6385352 7.9752832,14.8568027 7.9752832,15.1264863 C7.9752832,15.3961699 8.19360352,15.6144375 8.46323438,15.6144375 L17.8969395,15.6144375 C18.1663066,15.6144375 18.3848906,15.3961699 18.3848906,15.1264863 C18.3848906,14.85675 18.1663066,14.6385352 17.8969395,14.6385352 Z" id="Path"></path>
                <path d="M13.6680645,17.8915605 L8.46328711,17.8915605 C8.19360352,17.8915605 7.97533594,18.1098281 7.97533594,18.3795117 C7.97533594,18.6491953 8.19360352,18.8674629 8.46328711,18.8674629 L13.6680645,18.8674629 C13.9374316,18.8674629 14.1556992,18.6491953 14.1556992,18.3795117 C14.1556992,18.1098281 13.9374316,17.8915605 13.6680645,17.8915605 Z" id="Path"></path>
                <path d="M17.8969395,11.3855098 L8.46323438,11.3855098 C8.19355078,11.3855098 7.9752832,11.6037773 7.9752832,11.8734609 C7.9752832,12.1431445 8.19360352,12.3614121 8.46323438,12.3614121 L17.8969395,12.3614121 C18.1663066,12.3614121 18.3848906,12.1431445 18.3848906,11.8734609 C18.3848906,11.6037773 18.1663066,11.3855098 17.8969395,11.3855098 Z" id="Path"></path>
            </g>
        </g>
    </g>
</svg>