<svg height="100" width="100" xmlns="http://www.w3.org/2000/svg"><g fill="none" fill-rule="evenodd" stroke="#fff"><g fill-rule="nonzero"><path d="M76.678 32.264l-4.2.316c-.063.064-.345.292-.584.527a5 5 0 0 0-.482.542l-.005.088-.129.206c-2.6 4.153-4.552 7.285-5.853 9.394-.65 1.052-1.137 1.849-1.461 2.39a33.12 33.12 0 0 0-.371.63l-.149 2.47a1.95 1.95 0 0 1-1.441 1.767l-.98.263-.215 14.454c.03.036.066.076.108.119.2.206.467.43.73.604.196.13.375.224.511.274l6.223-10.777-.332-1.24a1.95 1.95 0 0 1 .809-2.132l2.103-1.39.029-.043c.087-.136.212-.344.372-.62.33-.565.802-1.407 1.418-2.524 1.235-2.24 3.042-5.58 5.42-10.02l.113-.211.046-.03c.03-.1.058-.238.078-.39.039-.3.03-.609.034-.598zM63.599 46.252l.005-.091zm-1.315 20.093h.005c-.004 0-.01 0-.019.002zm16.067-28.999a1.037 1.037 0 0 0 .002-.01z" stroke-width="1.9"/><path d="M69.18 45.336c.464.267.594.755.327 1.219l-7.823 13.55c-.268.463-.756.594-1.22.326s-.594-.755-.326-1.219l7.823-13.55c.268-.463.755-.594 1.219-.326z" fill="#fff" stroke-width=".6"/><g fill="#fff" stroke-width=".6"><path d="M52.064 66.709h-7.14a4.419 4.419 0 0 1-4.462-4.463v-24.21a4.419 4.419 0 0 1 4.463-4.462h7.14a4.419 4.419 0 0 1 4.462 4.462v24.21a4.419 4.419 0 0 1-4.463 4.463zm-9.817-28.673v24.21c0 1.518 1.16 2.678 2.678 2.678h7.14c1.517 0 2.677-1.16 2.677-2.677v-24.21c0-1.518-1.16-2.678-2.678-2.678h-7.14c-1.517 0-2.677 1.16-2.677 2.677z"/><path d="M41.355 49.249h14.28v1.785h-14.28z"/><path d="M54.92 71.171H40.73c-2.588 0-4.73-2.142-4.73-4.73v-32.6c0-2.587 2.142-4.73 4.73-4.73h15.529c2.588 0 4.73 2.143 4.73 4.73v31.261c0 .447-.179.893-.536 1.25-.357.357-.892.446-1.338.357-.357-.09-.714 0-1.071.09-.625.178-1.071.713-1.339 1.338-.178.357-.178.803-.178 1.16.089.446-.09.982-.357 1.339s-.804.535-1.25.535zM40.73 30.897c-1.606 0-2.945 1.338-2.945 2.945v32.6c0 1.606 1.339 2.944 2.945 2.944h14.404c-.09-.535.202-1.16.38-1.874h.102c.357-1.07.643-1.256 1.803-1.702a6.792 6.792 0 0 1 1.874-.268v-31.7c-.09-1.607-1.428-2.945-3.034-2.945z"/></g></g><circle cx="59.253" cy="69.293" r="3.336" stroke-width="2.5"/></g></svg>