<svg height="100" width="100" xmlns="http://www.w3.org/2000/svg"><g fill="#a40000" stroke="#a40000" stroke-width=".5"><path d="M74.12 50.667l-13.448-8.434a.832.832 0 0 0-1.173.316 10.88 10.88 0 0 1-3.875 4.159c-.2.122-.402.238-.609.347-5.28 2.79-11.821.773-14.612-4.506a.832.832 0 0 0-1.173-.316l-13.448 8.434c-.485.303-.78.833-.782 1.405v2.038c0 .919.745 1.663 1.663 1.663h.832V73.24c0 .919.745 1.664 1.664 1.664h1.663c.919 0 1.663-.745 1.663-1.664V53.28h34.932v19.96c0 .919.745 1.664 1.664 1.664h1.663c.919 0 1.664-.745 1.664-1.664V55.773h.831c.919 0 1.664-.744 1.664-1.663v-2.038a1.664 1.664 0 0 0-.782-1.405zm-.88 3.443h-.833c-.918 0-1.663.745-1.663 1.663V73.24h-1.663V53.28c0-.92-.745-1.664-1.664-1.664H32.485c-.918 0-1.663.744-1.663 1.663V73.24h-1.663V55.773c0-.918-.745-1.663-1.664-1.663h-.832v-2.03l12.726-7.95a12.526 12.526 0 0 0 4 3.983 12.476 12.476 0 0 0 13.108 0c1.625-1.004 3-2.367 4.017-3.984l12.725 7.952z"/><path d="M49.951 25c-6.89 0-12.475 5.586-12.475 12.476a12.276 12.276 0 0 0 1.463 5.822 12.542 12.542 0 0 0 4.458 4.79 12.4 12.4 0 0 0 6.554 1.863 12.4 12.4 0 0 0 6.554-1.896 12.543 12.543 0 0 0 4.458-4.757 12.277 12.277 0 0 0 1.464-5.822C62.427 30.586 56.84 25 49.95 25zM59.5 42.549a10.88 10.88 0 0 1-3.875 4.159c-.2.122-.402.238-.609.347-5.28 2.79-11.821.773-14.612-4.506a10.621 10.621 0 0 1-1.264-5.073c0-5.972 4.84-10.813 10.812-10.813 5.972 0 10.812 4.841 10.812 10.813a10.63 10.63 0 0 1-1.264 5.073zM68.05 56.942H31.956c-.57 0-1.031.372-1.031.831s.462.832 1.031.832H68.05c.57 0 1.032-.372 1.032-.832s-.462-.831-1.032-.831zM68.05 62H31.956c-.57 0-1.031.372-1.031.832s.462.831 1.031.831H68.05c.57 0 1.032-.372 1.032-.831S68.619 62 68.049 62zM68.05 67H31.956c-.57 0-1.031.372-1.031.832s.462.831 1.031.831H68.05c.57 0 1.032-.372 1.032-.831S68.619 67 68.049 67zM68.05 72H31.956c-.57 0-1.031.372-1.031.832s.462.831 1.031.831H68.05c.57 0 1.032-.372 1.032-.831S68.619 72 68.049 72z"/><path d="M57.012 32.588a.832.832 0 0 0-1.177 0l-8.247 8.247a.832.832 0 1 0 1.176 1.177l8.248-8.248a.832.832 0 0 0 0-1.176z"/><path d="M44.063 37.563a.832.832 0 0 0 0 1.176l3.298 3.298a.832.832 0 1 0 1.176-1.176l-3.298-3.298a.832.832 0 0 0-1.176 0z"/></g></svg>