<svg width="20" height="19" xmlns="http://www.w3.org/2000/svg"><path d="M18.153 1.21a3.223 3.223 0 0 0-.327.603c-.226.579-.197 1.102.087 1.553.524.831 1.32 2.445.72 3.893-.39.948-1.272 1.584-2.625 1.893-.219.05-.416.109-.59.175a.492.492 0 0 0-.04.906 8.7 8.7 0 0 1 1.334.782 3.07 3.07 0 0 1 1.566.445c1.23.762 1.76 2.344 1.58 4.706a1.203 1.203 0 0 1-2.401-.185c.015-.208.023-.402.026-.582a.326.326 0 0 0-.567-.223c-1.596 1.753-3.65 3.18-7.76 2.927-4.287-.266-6.944-3.517-6.181-6.22a.488.488 0 0 0-.237-.559 4.031 4.031 0 0 1 2.01-7.568c2.228.04 3.25 2.533 3.208 4.759a6.095 6.095 0 0 1-.057.725.505.505 0 0 0 .723.526c.07-.035.143-.071.216-.11.075-.037.15-.072.229-.105.27-.743.4-1.492.164-1.93a1.205 1.205 0 0 1 2.12-1.145c.334.624.436 1.308.399 1.986a.82.82 0 0 0 .684.851c.215.035.431.078.644.126a.474.474 0 0 0 .505-.208c.373-.59 1.096-1.008 2.156-1.25.95-.218 1.548-.614 1.782-1.18.286-.692.056-1.71-.627-2.791-.486-.772-.554-1.708-.19-2.637.119-.299.28-.592.474-.869.343-.615 1.48 0 .975.706z" fill="#F03E31" fill-rule="nonzero"/></svg>