<svg height="100" width="100" xmlns="http://www.w3.org/2000/svg"><path d="M64.71 37.257h-3.784v-2.024c0-.661-.54-1.201-1.2-1.201H40.565c-.66 0-1.2.54-1.2 1.2v2.025h-4.162a1.2 1.2 0 0 0-1.2 1.201v29.69c0 .664.538 1.202 1.2 1.202h29.514c.662 0 1.2-.538 1.2-1.201V38.458a1.21 1.21 0 0 0-1.207-1.2zM40.56 39.66c.662 0 1.2-.539 1.2-1.201v-2.025h16.76v2.025c0 .662.54 1.2 1.2 1.2h3.784v6.78h-27.07c-.01 0-.023-2.26-.039-6.78zm-4.163 27.289V48.829l27.11.01v18.109zm3.181-35.747c0-.663.54-1.201 1.2-1.201h18.725a1.2 1.2 0 1 1 0 2.402H40.779c-.665 0-1.2-.541-1.2-1.2zm5.28 26.48a2.186 2.186 0 0 1-2.185-2.185c0-1.205.978-2.176 2.185-2.176 1.206 0 2.181.971 2.181 2.176a2.184 2.184 0 0 1-2.18 2.186zm8.735-3.055c0 .724-.586 1.309-1.312 1.309a1.309 1.309 0 1 1 0-2.618c.726 0 1.312.585 1.312 1.31zm6.33-.438a1.962 1.962 0 0 1-1.965 1.965 1.963 1.963 0 1 1 0-3.926c1.087 0 1.965.878 1.965 1.96zm-10.25 7.276a1.963 1.963 0 1 1-1.961-1.967c1.083 0 1.961.878 1.961 1.967zm8.723-.503c0 1.08-.877 1.963-1.963 1.963a1.967 1.967 0 0 1 0-3.933c1.081 0 1.963.882 1.963 1.97z" fill="#a40000"/></svg>