<svg height="100" width="100" xmlns="http://www.w3.org/2000/svg"><path d="M78.867 44.75a13.495 13.495 0 0 0-.036-.567c-.017-4.156-1.953-7.612-5.605-9.992-4.267-2.782-9.815-2.799-14.477-.045-4.552 2.69-8.653 2.318-8.69 2.318l-.116-.012-.113.011c-.041.005-4.139.373-8.694-2.317-4.664-2.755-10.21-2.736-14.478.045-3.652 2.381-5.59 5.836-5.606 9.992-.008.091-.023.286-.035.568-.333 7.46 4.236 14.362 11.192 17.111-.03.418-.046.84-.046 1.262 0 9.803 7.976 17.778 17.778 17.778S67.72 72.927 67.72 63.124c0-.423-.016-.844-.046-1.262 6.957-2.749 11.525-9.65 11.194-17.112zM49.94 78.68c-8.578 0-15.555-6.978-15.555-15.556 0-5.142 2.517-9.87 6.686-12.76l.021.235.015.16v.014l.026.173c.004.028.012.057.016.086.032.232.07.464.12.69l.003.022.03.112c.003.015.01.03.013.045.065.267.14.528.23.783.005.017.007.032.014.048l.009.026a13.348 13.348 0 0 0-4.961 10.365c0 7.353 5.98 13.334 13.333 13.334s13.333-5.981 13.333-13.334c0-4.03-1.838-7.842-4.96-10.365l.02-.06c.005-.012.007-.026.012-.04a9 9 0 0 0 .214-.734c.004-.018.012-.038.017-.058l.03-.124a9.326 9.326 0 0 0 .131-.751c.004-.025.01-.047.013-.073l.022-.151.001-.01.015-.158c.008-.079.015-.157.021-.236a15.49 15.49 0 0 1 6.687 12.76c0 8.58-6.978 15.557-15.556 15.557zm6.52-30.276l.023.124c.003.009.003.019.005.028a6.76 6.76 0 0 1 .119 1.234c0 .249-.017.492-.047.757l-.018.112a6.574 6.574 0 0 1-.583 1.979c-1.071 2.253-3.362 3.82-6.019 3.82s-4.949-1.566-6.019-3.82a6.442 6.442 0 0 1-.273-.664l-.002-.005a7.688 7.688 0 0 1-.206-.713 6.521 6.521 0 0 1-.103-.592l-.021-.138a6.44 6.44 0 0 1 .076-1.968c.001-.01.001-.02.004-.028l.023-.123c.64-3.014 3.319-5.281 6.52-5.281s5.881 2.266 6.521 5.278zm-6.52 10.276a8.887 8.887 0 0 0 7.337-3.879 11.124 11.124 0 0 1 3.54 6.15H39.066a11.118 11.118 0 0 1 3.54-6.15 8.885 8.885 0 0 0 7.335 3.879zm11.109 4.493c-.027 6.104-4.998 11.063-11.109 11.063s-11.082-4.96-11.109-11.063zm6.314-3.575c-1.018-5.048-4.2-9.437-8.818-12.001-.982-3.841-4.462-6.695-8.604-6.695s-7.622 2.854-8.603 6.695c-4.619 2.565-7.8 6.953-8.819 12-5.8-2.53-9.563-8.414-9.282-14.748.013-.308.03-.487.032-.502l.006-.113c0-3.44 1.546-6.193 4.596-8.182 3.555-2.318 8.202-2.315 12.132.007 4.828 2.851 9.16 2.678 9.938 2.624.774.057 5.108.228 9.937-2.624 3.93-2.321 8.579-2.323 12.132-.007 3.051 1.99 4.598 4.742 4.598 8.182l.005.113c.002.016.02.194.033.5.28 6.336-3.484 12.22-9.283 14.75z" fill="#fff" stroke="#fff" stroke-width=".3"/></svg>