<svg height="100" width="100" xmlns="http://www.w3.org/2000/svg"><g fill="#fff" stroke="#fff" stroke-width=".2"><path d="M41.28 28.076a7.601 7.601 0 0 0-6.027 2.958 6.596 6.596 0 0 0-6.892 6.582c0 1.128.28 2.211.817 3.18A9.16 9.16 0 0 0 26 47.727a9.13 9.13 0 0 0 4.284 7.75 7.941 7.941 0 0 0 1.842 6.477 7.956 7.956 0 0 0 3.958 2.473 6.416 6.416 0 0 0 6.407 6.29 6.415 6.415 0 0 0 6.408-6.409V35.696c0-4.202-3.418-7.62-7.62-7.62zm5.706 11.84a5.713 5.713 0 0 1-5.706 5.708.956.956 0 0 0 0 1.912 7.6 7.6 0 0 0 5.706-2.579v11.938a4.417 4.417 0 0 0-1.022-.468c-2.181-.686-4.76.243-6.133 2.209a.956.956 0 1 0 1.568 1.095c1.028-1.472 2.786-1.859 3.991-1.48.596.188 1.596.74 1.596 2.339v3.717a4.5 4.5 0 0 1-4.495 4.496 4.501 4.501 0 0 1-4.463-5.03.956.956 0 0 0-.807-1.061c-2.922-.44-5.126-3.004-5.126-5.965 0-.512.064-1.02.19-1.51.38-1.42 1.757-3.06 1.77-3.075a.956.956 0 0 0-1.458-1.237c-.053.063-1.051 1.25-1.715 2.645a7.22 7.22 0 0 1-2.97-5.845 7.248 7.248 0 0 1 3.092-5.93c.006-.004.012-.01.018-.013.014-.01.028-.02.042-.032 1.708-1.409 4.274-1.895 4.299-1.9a.956.956 0 1 0-.343-1.881c-.107.02-2.331.436-4.288 1.67a4.682 4.682 0 0 1 4.853-6.656.955.955 0 0 0 .925-.422 5.699 5.699 0 0 1 4.77-2.573 5.713 5.713 0 0 1 5.706 5.708v4.22zM74.905 47.725a9.16 9.16 0 0 0-3.178-6.928 6.53 6.53 0 0 0 .818-3.181 6.597 6.597 0 0 0-6.893-6.582 7.6 7.6 0 0 0-6.026-2.958c-4.202 0-7.62 3.418-7.62 7.62v28.611a6.415 6.415 0 0 0 6.407 6.408 6.416 6.416 0 0 0 6.408-6.29 7.956 7.956 0 0 0 3.958-2.472 7.941 7.941 0 0 0 1.842-6.478 9.128 9.128 0 0 0 4.284-7.75zm-4.882 5.846c-.664-1.397-1.662-2.583-1.715-2.646a.956.956 0 0 0-1.46 1.236c.014.017 1.39 1.657 1.77 3.075.127.49.192.999.192 1.511 0 2.96-2.204 5.525-5.127 5.965a.956.956 0 0 0-.807 1.06 4.501 4.501 0 0 1-4.463 5.031 4.5 4.5 0 0 1-4.495-4.495V60.59c0-1.598 1-2.151 1.596-2.339 1.206-.379 2.964.008 3.991 1.48a.956.956 0 1 0 1.568-1.095c-1.372-1.966-3.951-2.895-6.133-2.209a4.415 4.415 0 0 0-1.022.468V44.957a7.602 7.602 0 0 0 5.708 2.579.956.956 0 0 0 0-1.913 5.714 5.714 0 0 1-5.708-5.707v-4.22a5.714 5.714 0 0 1 5.708-5.708c1.924 0 3.706.962 4.768 2.573.202.307.563.471.926.422a4.682 4.682 0 0 1 4.853 6.656c-1.957-1.234-4.18-1.65-4.288-1.67a.956.956 0 0 0-.344 1.88c.026.006 2.592.492 4.3 1.9l.043.034.016.012a7.248 7.248 0 0 1 3.092 5.93 7.219 7.219 0 0 1-2.97 5.846z"/></g></svg>