<svg width="16" height="18" xmlns="http://www.w3.org/2000/svg"><g fill="#F03E31" fill-rule="nonzero"><path d="M7.603 8.346a.397.397 0 1 0 .794 0c0-.465.166-.918.466-1.273a8.166 8.166 0 0 0 1.484-2.55.398.398 0 0 0-.375-.529H6.028a.398.398 0 0 0-.376.53 8.18 8.18 0 0 0 1.484 2.549c.3.355.466.808.467 1.273zM8.397 9.939a.397.397 0 0 0-.794 0c0 .573-.343 1.14-.965 1.601-1.33.982-2.325 2.049-2.959 3.17a.396.396 0 0 0 .346.592h7.95a.397.397 0 0 0 .346-.592c-.633-1.121-1.629-2.188-2.958-3.17-.623-.46-.965-1.028-.966-1.601z"/><path d="M14.955 15.9h-.238c-.273-3.094-2.084-5.469-3.492-7.155 1.408-1.687 3.219-4.062 3.493-7.155h.238a.795.795 0 0 0 0-1.59H1.044a.795.795 0 0 0 0 1.59h.238c.274 3.094 2.084 5.469 3.493 7.155-1.408 1.686-3.22 4.06-3.493 7.154h-.238a.794.794 0 1 0 0 1.59H14.956a.795.795 0 1 0 0-1.59zm-12.08 0c.3-2.796 2.116-4.948 3.474-6.556l.073-.086a.794.794 0 0 0 0-1.025l-.073-.086C4.992 6.54 3.174 4.387 2.876 1.591h10.248c-.298 2.796-2.116 4.948-3.473 6.556l-.072.086a.794.794 0 0 0 0 1.025l.072.086c1.358 1.608 3.175 3.76 3.473 6.555H2.876z"/></g></svg>