<svg width="13" height="17" viewBox="0 0 13 17" fill="none" xmlns="http://www.w3.org/2000/svg">
<mask id="path-1-inside-1_5_3641" fill="white">
<path fill-rule="evenodd" clip-rule="evenodd" d="M0.9104 0.664615C0.9104 0.297558 1.20796 0 1.57502 0H12.2458C12.6128 0 12.9104 0.297558 12.9104 0.664615V15.6554C12.9104 16.0224 12.6128 16.32 12.2458 16.32H1.57502C1.20796 16.32 0.9104 16.0224 0.9104 15.6554V0.664615ZM2.00451 8L7.79485 8.00565L8.48117 8.69331L7.79351 9.37963L2.00317 9.37398L2.00451 8ZM9.26379 12.7684L2.00134 12.7614L2 14.1353L9.26245 14.1424L9.95011 13.4561L9.26379 12.7684ZM2.00281 10.3803L8.57827 10.3867L9.26459 11.0744L8.57693 11.7607L2.00146 11.7543L2.00281 10.3803ZM8.20135 6.81366H7.44148L6.75149 5.32702H3.42378L2.74252 6.81366H2.00012L4.74264 1H5.46757L8.20135 6.81366ZM5.08327 1.72255L3.71201 4.71244H6.472L5.08327 1.72255Z"/>
</mask>
<path fill-rule="evenodd" clip-rule="evenodd" d="M0.9104 0.664615C0.9104 0.297558 1.20796 0 1.57502 0H12.2458C12.6128 0 12.9104 0.297558 12.9104 0.664615V15.6554C12.9104 16.0224 12.6128 16.32 12.2458 16.32H1.57502C1.20796 16.32 0.9104 16.0224 0.9104 15.6554V0.664615ZM2.00451 8L7.79485 8.00565L8.48117 8.69331L7.79351 9.37963L2.00317 9.37398L2.00451 8ZM9.26379 12.7684L2.00134 12.7614L2 14.1353L9.26245 14.1424L9.95011 13.4561L9.26379 12.7684ZM2.00281 10.3803L8.57827 10.3867L9.26459 11.0744L8.57693 11.7607L2.00146 11.7543L2.00281 10.3803ZM8.20135 6.81366H7.44148L6.75149 5.32702H3.42378L2.74252 6.81366H2.00012L4.74264 1H5.46757L8.20135 6.81366ZM5.08327 1.72255L3.71201 4.71244H6.472L5.08327 1.72255Z" fill="#F03E31"/>
<path d="M7.79485 8.00565L8.23651 7.56484L8.05393 7.3819L7.79546 7.38165L7.79485 8.00565ZM2.00451 8L2.00512 7.376L1.38112 7.37539L1.38051 7.99939L2.00451 8ZM8.48117 8.69331L8.92197 9.13497L9.36364 8.69417L8.92283 8.2525L8.48117 8.69331ZM7.79351 9.37963L7.7929 10.0036L8.05137 10.0039L8.23431 9.82129L7.79351 9.37963ZM2.00317 9.37398L1.37917 9.37337L1.37857 9.99737L2.00256 9.99798L2.00317 9.37398ZM2.00134 12.7614L2.00195 12.1374L1.37795 12.1367L1.37734 12.7607L2.00134 12.7614ZM9.26379 12.7684L9.70546 12.3276L9.52287 12.1447L9.2644 12.1444L9.26379 12.7684ZM2 14.1353L1.376 14.1347L1.37539 14.7587L1.99939 14.7593L2 14.1353ZM9.26245 14.1424L9.26185 14.7664L9.52031 14.7667L9.70326 14.5841L9.26245 14.1424ZM9.95011 13.4561L10.3909 13.8978L10.8326 13.457L10.3918 13.0153L9.95011 13.4561ZM8.57827 10.3867L9.01994 9.94592L8.83735 9.76298L8.57888 9.76272L8.57827 10.3867ZM2.00281 10.3803L2.00341 9.75631L1.37941 9.7557L1.37881 10.3797L2.00281 10.3803ZM9.26459 11.0744L9.70539 11.516L10.1471 11.0752L9.70625 10.6336L9.26459 11.0744ZM8.57693 11.7607L8.57632 12.3847L8.83479 12.385L9.01773 12.2024L8.57693 11.7607ZM2.00146 11.7543L1.37747 11.7537L1.37686 12.3777L2.00086 12.3783L2.00146 11.7543ZM7.44148 6.81366L6.87548 7.07636L7.04317 7.43766H7.44148V6.81366ZM8.20135 6.81366V7.43766H9.18433L8.76604 6.54812L8.20135 6.81366ZM6.75149 5.32702L7.31749 5.06432L7.1498 4.70302H6.75149V5.32702ZM3.42378 5.32702V4.70302H3.02334L2.85651 5.06706L3.42378 5.32702ZM2.74252 6.81366V7.43766H3.14297L3.30979 7.07361L2.74252 6.81366ZM2.00012 6.81366L1.43576 6.54743L1.01581 7.43766H2.00012V6.81366ZM4.74264 1V0.376H4.34706L4.17828 0.733772L4.74264 1ZM5.46757 1L6.03225 0.734466L5.86369 0.376H5.46757V1ZM3.71201 4.71244L3.14482 4.4523L2.73932 5.33644H3.71201V4.71244ZM5.08327 1.72255L5.6492 1.45969L5.07968 0.233539L4.51608 1.46242L5.08327 1.72255ZM6.472 4.71244V5.33644H7.44985L7.03793 4.44957L6.472 4.71244ZM1.57502 -0.624C0.863333 -0.624 0.2864 -0.0470674 0.2864 0.664615H1.5344C1.5344 0.642184 1.55258 0.624 1.57502 0.624V-0.624ZM12.2458 -0.624H1.57502V0.624H12.2458V-0.624ZM13.5344 0.664615C13.5344 -0.0470677 12.9575 -0.624 12.2458 -0.624V0.624C12.2682 0.624 12.2864 0.642185 12.2864 0.664615H13.5344ZM13.5344 15.6554V0.664615H12.2864V15.6554H13.5344ZM12.2458 16.944C12.9575 16.944 13.5344 16.3671 13.5344 15.6554H12.2864C12.2864 15.6778 12.2682 15.696 12.2458 15.696V16.944ZM1.57502 16.944H12.2458V15.696H1.57502V16.944ZM0.2864 15.6554C0.2864 16.3671 0.863334 16.944 1.57502 16.944V15.696C1.55258 15.696 1.5344 15.6778 1.5344 15.6554H0.2864ZM0.2864 0.664615V15.6554H1.5344V0.664615H0.2864ZM7.79546 7.38165L2.00512 7.376L2.00391 8.624L7.79424 8.62965L7.79546 7.38165ZM8.92283 8.2525L8.23651 7.56484L7.35318 8.44645L8.0395 9.13411L8.92283 8.2525ZM8.23431 9.82129L8.92197 9.13497L8.04036 8.25164L7.3527 8.93796L8.23431 9.82129ZM2.00256 9.99798L7.7929 10.0036L7.79412 8.75563L2.00378 8.74998L2.00256 9.99798ZM1.38051 7.99939L1.37917 9.37337L2.62717 9.37459L2.62851 8.00061L1.38051 7.99939ZM2.00073 13.3854L9.26319 13.3924L9.2644 12.1444L2.00195 12.1374L2.00073 13.3854ZM2.624 14.1359L2.62534 12.762L1.37734 12.7607L1.376 14.1347L2.624 14.1359ZM9.26306 13.5184L2.00061 13.5113L1.99939 14.7593L9.26185 14.7664L9.26306 13.5184ZM9.50931 13.0144L8.82165 13.7008L9.70326 14.5841L10.3909 13.8978L9.50931 13.0144ZM8.82213 13.2092L9.50845 13.8969L10.3918 13.0153L9.70546 12.3276L8.82213 13.2092ZM8.57888 9.76272L2.00341 9.75631L2.0022 11.0043L8.57766 11.0107L8.57888 9.76272ZM9.70625 10.6336L9.01994 9.94592L8.13661 10.8275L8.82292 11.5152L9.70625 10.6336ZM9.01773 12.2024L9.70539 11.516L8.82379 10.6327L8.13613 11.319L9.01773 12.2024ZM2.00086 12.3783L8.57632 12.3847L8.57754 11.1367L2.00207 11.1303L2.00086 12.3783ZM1.37881 10.3797L1.37747 11.7537L2.62546 11.7549L2.62681 10.3809L1.37881 10.3797ZM7.44148 7.43766H8.20135V6.18966H7.44148V7.43766ZM6.18548 5.58972L6.87548 7.07636L8.00749 6.55095L7.31749 5.06432L6.18548 5.58972ZM3.42378 5.95102H6.75149V4.70302H3.42378V5.95102ZM3.30979 7.07361L3.99106 5.58698L2.85651 5.06706L2.17525 6.5537L3.30979 7.07361ZM2.00012 7.43766H2.74252V6.18966H2.00012V7.43766ZM4.17828 0.733772L1.43576 6.54743L2.56448 7.07988L5.30699 1.26623L4.17828 0.733772ZM5.46757 0.376H4.74264V1.624H5.46757V0.376ZM8.76604 6.54812L6.03225 0.734466L4.90289 1.26553L7.63667 7.07919L8.76604 6.54812ZM4.2792 4.97257L5.65046 1.98269L4.51608 1.46242L3.14482 4.4523L4.2792 4.97257ZM6.472 4.08844H3.71201V5.33644H6.472V4.08844ZM4.51734 1.98542L5.90606 4.9753L7.03793 4.44957L5.6492 1.45969L4.51734 1.98542Z" fill="#F03E31" mask="url(#path-1-inside-1_5_3641)"/>
</svg>
