<?xml version="1.0" encoding="UTF-8"?>
<svg width="150px" height="150px" viewBox="0 0 150 150" version="1.1" xmlns="http://www.w3.org/2000/svg" xmlns:xlink="http://www.w3.org/1999/xlink">
    <!-- Generator: Sketch 64 (93537) - https://sketch.com -->
    <title>europ-assistance-s</title>
    <desc>Created with Sketch.</desc>
    <defs>
        <polygon id="path-1" points="0.482 0.399 40.373 0.399 40.373 8.25 0.482 8.25"></polygon>
        <polygon id="path-3" points="0 0.745 22.995 0.745 22.995 32.404 0 32.404"></polygon>
        <polygon id="path-5" points="0.494 0.512 23.443 0.512 23.443 32.176 0.494 32.176"></polygon>
    </defs>
    <g id="europ-assistance-s" stroke="none" stroke-width="1" fill="none" fill-rule="evenodd">
        <g id="europeassistance" transform="translate(29.000000, 35.000000)">
            <rect id="Rectangle" fill="#FFFFFF" fill-rule="nonzero" x="0" y="0" width="92" height="80"></rect>
            <g id="Group" transform="translate(2.000000, 2.000000)">
                <g transform="translate(48.000000, 62.489000)" id="Clipped">
                    <g>
                        <mask id="mask-2" fill="white">
                            <use xlink:href="#path-1"></use>
                        </mask>
                        <g id="europeassistance-a"></g>
                        <path d="M13.1945,1.4504 C13.3615,1.3834 13.4445,1.4674 13.4445,1.7004 C13.4445,2.1664 13.1775,2.7504 12.6445,3.4504 C12.1115,4.0834 11.6285,4.3994 11.1945,4.3994 C10.9275,4.3994 10.7945,4.3664 10.7945,4.3004 C10.7945,4.0994 11.3945,3.2664 12.5945,1.8004 C12.7275,1.6334 12.9275,1.5164 13.1945,1.4504 M10.5445,4.7504 L10.7445,4.8994 C10.9115,5.0004 11.1115,5.0334 11.3445,5.0004 C12.0785,5.0004 12.7275,4.5664 13.2945,3.7004 C13.7945,2.9674 14.0445,2.3164 14.0445,1.7504 C14.0445,1.5834 13.9945,1.3994 13.8945,1.2004 C13.7605,0.9334 13.5605,0.8004 13.2945,0.8004 C12.5275,0.8004 11.6615,1.5004 10.6945,2.8994 C9.8615,4.1334 9.4115,5.2004 9.3445,6.0994 C9.2775,6.7334 9.3945,7.2174 9.6945,7.5504 C9.9945,7.9504 10.4115,8.1494 10.9445,8.1494 C11.6445,8.1494 12.3945,7.8334 13.1945,7.2004 C14.0275,6.4674 14.5785,5.6664 14.8445,4.8004 C14.9115,4.5994 14.8785,4.5004 14.7445,4.5004 L14.4945,4.5004 C14.2275,5.1334 13.7115,5.8004 12.9445,6.5004 C12.1115,7.1674 11.4275,7.5004 10.8945,7.5004 C10.3275,7.5004 10.0445,7.2664 10.0445,6.8004 L10.1945,5.5994 C10.3615,5.0994 10.4775,4.8164 10.5445,4.7504 M6.6945,0.8004 C6.6285,1.0334 6.6775,1.2004 6.8445,1.3004 C7.0105,1.4334 7.1615,1.3994 7.2945,1.2004 C7.5945,1.6334 7.7445,2.4324 7.7445,3.5994 C7.7445,4.7334 7.5445,5.7004 7.1445,6.5004 C6.8115,7.2004 6.4445,7.5504 6.0445,7.5504 C5.5445,7.5164 5.1445,7.2004 4.8445,6.5994 C4.6445,6.1664 4.5445,5.5664 4.5445,4.8004 C4.5445,4.2664 4.6445,3.3334 4.8445,2.0004 C4.8785,1.8004 4.7945,1.6834 4.5945,1.6494 C4.5275,1.6164 4.4275,1.5994 4.2945,1.5994 C4.1615,1.5994 4.0105,1.8164 3.8445,2.2504 L3.5445,3.2504 C3.2445,4.1834 2.9275,4.9504 2.5945,5.5504 C2.0605,6.7504 1.6115,7.3494 1.2445,7.3494 C1.0775,7.3494 1.0275,6.9834 1.0945,6.2504 C1.1285,5.9834 1.3285,4.7834 1.6945,2.6494 C1.7945,2.2174 1.6615,2.0004 1.2945,2.0004 C0.9945,2.0004 0.7945,2.4674 0.6945,3.3994 C0.5605,4.3334 0.4945,5.2004 0.4945,6.0004 C0.4615,6.3004 0.4945,6.6834 0.5945,7.1494 C0.7275,7.7834 0.9775,8.0994 1.3445,8.0994 C1.8105,8.0994 2.3945,7.3664 3.0945,5.8994 L3.8945,4.0504 C3.7945,5.2504 3.8945,6.2004 4.1945,6.8994 C4.6285,7.8004 5.2445,8.2504 6.0445,8.2504 C6.7445,8.2504 7.3285,7.7664 7.7945,6.8004 C8.2275,5.8664 8.4445,4.8004 8.4445,3.5994 C8.4445,2.3334 8.2945,1.4504 7.9945,0.9504 C7.7945,0.6164 7.5605,0.4334 7.2945,0.3994 C7.0945,0.3994 6.8945,0.5334 6.6945,0.8004 M23.1445,2.2004 C23.4115,2.1664 23.5445,2.0334 23.5445,1.8004 C23.4775,1.5004 23.2605,1.2834 22.8945,1.1494 C22.4945,0.9834 22.2445,0.8994 22.1445,0.8994 C21.1775,0.9334 20.2445,1.6494 19.3445,3.0504 C18.5785,4.2834 18.1945,5.3164 18.1945,6.1494 C18.1945,6.6494 18.3285,7.0834 18.5945,7.4504 C18.8945,7.8834 19.3445,8.0994 19.9445,8.0994 C20.4445,8.0994 20.9445,7.9324 21.4445,7.5994 C21.9775,7.4324 22.6445,6.7504 23.4445,5.5504 C23.4445,5.3494 23.3445,5.2334 23.1445,5.2004 C23.0775,5.1334 23.0445,5.1664 23.0445,5.3004 C22.7115,5.8004 22.2275,6.2834 21.5945,6.7504 C21.0605,7.1494 20.4615,7.3494 19.7945,7.3494 C19.1945,7.3494 18.8945,6.9834 18.8945,6.2504 C18.8945,5.6164 19.2275,4.7174 19.8945,3.5504 C20.6285,2.2174 21.3445,1.5504 22.0445,1.5504 C22.2115,1.5504 22.4115,1.6664 22.6445,1.8994 C22.8445,2.0994 23.0105,2.2004 23.1445,2.2004 M31.8445,1.2004 C31.5105,1.2334 31.3445,1.4174 31.3445,1.7504 L31.3445,7.3494 C31.3105,7.8494 31.4445,8.0994 31.7445,8.0994 C32.1115,8.0994 32.2775,7.9504 32.2445,7.6494 L32.1945,6.2504 C32.1945,5.4174 32.3105,4.7004 32.5445,4.0994 C32.7115,3.5994 33.0605,2.9504 33.5945,2.1494 C34.0605,1.5504 34.4275,1.2504 34.6945,1.2504 C34.8285,1.2504 34.8945,1.3164 34.8945,1.4504 L34.9945,1.7504 C35.0275,1.8164 35.0775,1.8494 35.1445,1.8494 C35.4115,1.8494 35.5105,1.7004 35.4445,1.3994 C35.3445,0.8994 35.0275,0.6494 34.4945,0.6494 C33.6945,0.6494 32.9275,1.5664 32.1945,3.3994 L32.2945,1.8494 C32.3285,1.7834 32.3115,1.6674 32.2445,1.5004 C32.1445,1.3004 32.0105,1.2004 31.8445,1.2004 M28.3945,1.3004 C28.0945,1.0664 27.7445,0.9504 27.3445,0.9504 C26.5105,0.9504 25.8285,1.4674 25.2945,2.5004 C24.6945,3.7664 24.3945,5.1164 24.3945,6.5504 C24.3945,6.9504 24.4445,7.3004 24.5445,7.5994 C24.6775,8.0004 24.9445,8.2004 25.3445,8.2004 C25.6775,8.2004 26.1445,7.9334 26.7445,7.3994 L27.9945,5.8494 C28.0615,6.7174 28.3285,7.2174 28.7945,7.3494 C29.4615,7.5834 29.9115,7.3834 30.1445,6.7504 C30.2115,6.7174 30.2445,6.6494 30.2445,6.5504 C30.2445,6.4164 30.1615,6.3334 29.9945,6.3004 C29.7945,6.3004 29.6615,6.4334 29.5945,6.7004 C29.5605,6.8334 29.4115,6.8994 29.1445,6.8994 C28.8785,6.8334 28.7445,6.5004 28.7445,5.8994 L29.1445,3.2004 C29.2445,2.8664 29.1115,2.7004 28.7445,2.7004 C28.5775,2.7004 28.4445,2.7834 28.3445,2.9504 C28.2445,3.2174 28.1615,3.7334 28.0945,4.5004 C27.3945,5.5004 26.7775,6.3004 26.2445,6.8994 C25.8115,7.3004 25.5105,7.5004 25.3445,7.5004 C25.1775,7.4674 25.0945,7.1494 25.0945,6.5504 C25.0945,5.9834 25.1945,5.3164 25.3945,4.5504 C25.5615,3.8164 25.7445,3.2504 25.9445,2.8494 C26.3445,2.0834 26.8105,1.7004 27.3445,1.7004 C27.8445,1.7004 28.1285,1.9164 28.1945,2.3494 C28.1945,2.6164 28.3285,2.7174 28.5945,2.6494 C28.7945,2.6494 28.8945,2.5164 28.8945,2.2504 C28.8615,1.8834 28.6945,1.5664 28.3945,1.3004 M38.0445,1.8004 C38.2115,1.6334 38.4115,1.5164 38.6445,1.4504 C38.8115,1.4164 38.8945,1.5004 38.8945,1.7004 C38.8945,2.2334 38.6445,2.8164 38.1445,3.4504 C37.6115,4.0834 37.1115,4.3994 36.6445,4.3994 C36.4115,4.3994 36.2945,4.3664 36.2945,4.3004 C36.2945,4.0334 36.8785,3.2004 38.0445,1.8004 M39.5445,1.7504 C39.5445,1.5834 39.4775,1.3994 39.3445,1.2004 C39.2445,0.9334 39.0445,0.8004 38.7445,0.8004 C38.0105,0.8004 37.1615,1.5004 36.1945,2.8994 C35.3285,4.2004 34.8615,5.2664 34.7945,6.0994 C34.7945,6.7664 34.9275,7.2504 35.1945,7.5504 C35.4615,7.9504 35.8785,8.1494 36.4445,8.1494 C37.1445,8.1494 37.8945,7.8334 38.6945,7.2004 C39.5275,6.4674 40.0775,5.6664 40.3445,4.8004 C40.4115,4.5994 40.3615,4.5004 40.1945,4.5004 L39.9445,4.5004 C39.7115,5.1334 39.1945,5.8004 38.3945,6.5004 C37.6285,7.1674 36.9615,7.5004 36.3945,7.5004 C35.7945,7.5004 35.4945,7.2664 35.4945,6.8004 C35.4945,6.5994 35.5605,6.2004 35.6945,5.5994 C35.7945,5.1664 35.9115,4.8834 36.0445,4.7504 L36.2445,4.8994 C36.4115,5.0004 36.6115,5.0334 36.8445,5.0004 C37.5785,5.0004 38.2275,4.5664 38.7945,3.7004 C39.2945,2.9674 39.5445,2.3164 39.5445,1.7504" id="Shape" fill="#E4002B" fill-rule="nonzero" mask="url(#mask-2)"></path>
                    </g>
                </g>
                <path d="M0.4943,72.0385 C0.1943,72.0385 0.0443,72.2225 0.0443,72.5885 C0.0443,73.1545 0.3443,73.7555 0.9443,74.3885 C1.6783,75.1215 2.4613,75.4885 3.2943,75.4885 L3.3443,75.4885 C4.8113,75.4885 5.9613,74.5555 6.7943,72.6885 C7.3613,71.2885 7.6443,69.9555 7.6443,68.6885 C7.5113,67.2225 7.4443,66.4385 7.4443,66.3385 L6.9943,63.7885 C6.9283,63.1215 6.6943,62.7885 6.2943,62.7885 C6.0613,62.7555 5.8783,62.8215 5.7443,62.9885 C5.6443,63.1215 5.6113,63.2555 5.6443,63.3885 L5.6443,65.0385 C5.6783,66.5385 5.5283,67.6545 5.1943,68.3885 C4.9613,68.8885 4.6113,69.1385 4.1443,69.1385 C3.6443,69.1385 3.2113,68.8885 2.8443,68.3885 C2.5113,67.8885 2.3443,67.2385 2.3443,66.4385 C2.3443,65.4725 2.5943,64.5555 3.0943,63.6885 C3.2943,63.4225 3.2443,63.2055 2.9443,63.0385 C2.6443,62.8715 2.4113,62.9225 2.2443,63.1885 C1.6443,64.1885 1.3443,65.2715 1.3443,66.4385 C1.3443,67.4725 1.5613,68.3215 1.9943,68.9885 C2.5283,69.7555 3.2443,70.1385 4.1443,70.1385 C5.0113,70.1725 5.6613,69.7225 6.0943,68.7885 C6.2613,68.4555 6.3943,68.0055 6.4943,67.4385 L6.5443,68.6385 C6.5443,70.1045 6.2613,71.3885 5.6943,72.4885 C5.0613,73.7885 4.2273,74.4385 3.1943,74.4385 C2.7273,74.4385 2.2443,74.2715 1.7443,73.9385 C1.4773,73.7385 1.2613,73.4385 1.0943,73.0385 C0.9943,72.6725 0.9283,72.4725 0.8943,72.4385 C0.8273,72.1725 0.6943,72.0385 0.4943,72.0385 M10.1443,69.8385 C9.8113,69.8385 9.6443,69.4385 9.6443,68.6385 C9.6443,67.7055 10.0773,66.6215 10.9443,65.3885 L11.2943,64.8385 C11.6273,64.5055 11.9613,64.3385 12.2943,64.3385 C12.6613,64.3385 12.8443,64.7385 12.8443,65.5385 C12.8443,66.1385 12.5613,66.9725 11.9943,68.0385 C11.3613,69.2385 10.7443,69.8385 10.1443,69.8385 M10.7943,64.1885 C10.2613,64.0885 9.7613,64.6385 9.2943,65.8385 C8.8613,66.8385 8.6443,67.8215 8.6443,68.7885 C8.6783,69.7225 8.9773,70.3385 9.5443,70.6385 C9.8443,70.7715 10.1443,70.8215 10.4443,70.7885 C11.4113,70.6885 12.2443,69.9555 12.9443,68.5885 C13.6113,67.4215 13.9443,66.4725 13.9443,65.7385 C13.9443,65.3385 13.8783,64.9555 13.7443,64.5885 C13.4773,63.7885 12.9943,63.4045 12.2943,63.4385 C12.0283,63.4385 11.7443,63.5215 11.4443,63.6885 C11.0773,63.8545 10.8613,64.0215 10.7943,64.1885 M27.1943,59.3385 C27.2613,59.0055 27.1273,58.7885 26.7943,58.6885 C26.4613,58.6215 26.2613,58.7555 26.1943,59.0885 C25.4613,61.7555 25.0943,64.1885 25.0943,66.3885 C25.0943,68.3215 25.3783,69.6045 25.9443,70.2385 C26.2113,70.5715 26.5773,70.7385 27.0443,70.7385 C27.2443,70.7715 27.6113,70.6545 28.1443,70.3885 C28.4773,70.1885 28.5443,69.9555 28.3443,69.6885 C28.1443,69.3545 27.8943,69.3055 27.5943,69.5385 C27.1613,69.7055 26.8613,69.7055 26.6943,69.5385 C26.5613,69.4385 26.4443,69.1385 26.3443,68.6385 C26.1783,68.0055 26.0943,67.2555 26.0943,66.3885 C26.0943,64.4885 26.4613,62.1385 27.1943,59.3385 M30.5443,60.9385 C30.3773,60.9725 30.2613,61.0385 30.1943,61.1385 C29.9943,61.4385 29.9943,61.7385 30.1943,62.0385 C30.2943,62.1725 30.4443,62.2385 30.6443,62.2385 C30.8443,62.2385 31.0113,62.1725 31.1443,62.0385 C31.2113,61.9725 31.2613,61.8545 31.2943,61.6885 C31.3273,61.4555 31.2783,61.2555 31.1443,61.0885 C30.9773,60.9215 30.7783,60.8715 30.5443,60.9385 M19.5443,66.6385 C19.5443,66.1725 19.5943,65.6885 19.6943,65.1885 L19.8443,64.2885 C19.8783,64.1545 19.8443,64.0385 19.7443,63.9385 C19.6443,63.7715 19.4773,63.6885 19.2443,63.6885 C18.8783,63.7225 18.6283,64.0215 18.4943,64.5885 C18.4943,65.0885 18.2443,65.8385 17.7443,66.8385 C17.2443,67.8055 16.7783,68.5385 16.3443,69.0385 C15.9773,69.5385 15.7113,69.7885 15.5443,69.7885 C15.4773,69.7885 15.4443,69.6045 15.4443,69.2385 C15.4443,68.4055 15.8113,67.0385 16.5443,65.1385 L16.7443,64.4885 C16.7443,64.3215 16.6443,64.1725 16.4443,64.0385 C16.2783,63.9385 16.1443,63.9045 16.0443,63.9385 C15.8773,63.9725 15.6783,64.2055 15.4443,64.6385 C15.2443,65.2055 15.0773,65.7885 14.9443,66.3885 C14.6113,67.7225 14.4443,68.5715 14.4443,68.9385 C14.4443,70.1385 14.7613,70.7385 15.3943,70.7385 C16.0943,70.8385 16.7943,70.3385 17.4943,69.2385 C17.6613,69.0055 17.9773,68.3885 18.4443,67.3885 C18.5443,68.2225 18.7113,68.8385 18.9443,69.2385 C19.2113,69.7715 19.6113,70.0385 20.1443,70.0385 C20.3443,70.0385 20.5613,69.9725 20.7943,69.8385 C21.1273,69.6045 21.2943,69.3715 21.2943,69.1385 C21.2943,68.9725 21.2113,68.8385 21.0443,68.7385 C20.9773,68.6725 20.9113,68.6725 20.8443,68.7385 L20.5443,68.9885 C20.4113,69.1215 20.2943,69.1725 20.1943,69.1385 C20.0283,69.2055 19.8783,69.0215 19.7443,68.5885 C19.6113,68.2225 19.5443,67.5715 19.5443,66.6385 M30.0943,65.3885 C30.2613,64.9555 30.3443,64.6725 30.3443,64.5385 C30.3443,64.1385 30.1613,63.9385 29.7943,63.9385 C29.5613,63.9385 29.3613,64.1045 29.1943,64.4385 C28.8273,65.2385 28.6443,66.3055 28.6443,67.6385 C28.6443,68.2055 28.7443,68.7885 28.9443,69.3885 C29.2443,70.3215 29.7273,70.7885 30.3943,70.7885 C30.5283,70.7885 30.6943,70.7385 30.8943,70.6385 C31.1613,70.4725 31.2943,70.2885 31.2943,70.0885 C31.2613,69.8545 31.1783,69.7055 31.0443,69.6385 C30.9113,69.6045 30.8113,69.6215 30.7443,69.6885 C30.6113,69.8215 30.5113,69.8885 30.4443,69.8885 C30.2783,69.9885 30.1113,69.8055 29.9443,69.3385 C29.8443,68.9725 29.7783,68.5715 29.7443,68.1385 C29.6783,67.3055 29.7943,66.3885 30.0943,65.3885 M37.3443,64.4385 C37.5773,64.1385 37.5613,63.9055 37.2943,63.7385 C37.1613,63.6045 36.9283,63.6545 36.5943,63.8885 C36.1943,64.1885 35.8113,64.7225 35.4443,65.4885 C35.2783,65.7555 34.8273,66.8215 34.0943,68.6885 L32.9943,65.9385 C32.7613,65.3055 32.6283,64.9725 32.5943,64.9385 C32.2943,64.4045 31.9773,64.2555 31.6443,64.4885 C31.4773,64.5885 31.3943,64.8055 31.3943,65.1385 C32.2273,66.5055 32.8273,67.9555 33.1943,69.4885 L33.5443,70.2885 C33.6783,70.4885 33.8273,70.5885 33.9943,70.5885 C34.1613,70.5555 34.2943,70.4385 34.3943,70.2385 C34.5613,70.0055 34.7113,69.7225 34.8443,69.3885 L36.0943,66.3885 L36.9943,64.7885 C37.0613,64.6215 37.1783,64.5055 37.3443,64.4385 M40.8443,64.1885 C41.1113,63.9225 41.3273,63.7885 41.4943,63.7885 L41.5443,64.2885 C41.5113,64.7225 41.2943,65.2055 40.8943,65.7385 C40.4943,66.2715 40.0773,66.5555 39.6443,66.5885 L39.0943,66.4885 C39.2943,65.9225 39.8783,65.1545 40.8443,64.1885 M38.5443,67.9385 L38.7443,67.3385 C39.0113,67.4385 39.2783,67.4885 39.5443,67.4885 C40.3113,67.4885 41.0113,67.0215 41.6443,66.0885 C42.1443,65.3545 42.3943,64.6885 42.3943,64.0885 C42.3943,63.8215 42.3273,63.6045 42.1943,63.4385 C42.0613,63.1385 41.8113,62.9885 41.4443,62.9885 C40.6443,62.9885 39.7443,63.6885 38.7443,65.0885 C37.8443,66.4555 37.3783,67.5555 37.3443,68.3885 C37.3443,68.6545 37.3613,68.8545 37.3943,68.9885 C37.4283,69.3885 37.5443,69.7225 37.7443,69.9885 C38.0773,70.4225 38.5443,70.6385 39.1443,70.6385 C39.8783,70.6385 40.6613,70.3055 41.4943,69.6385 C42.2943,69.0055 42.8613,68.1885 43.1943,67.1885 C43.2943,66.9225 43.2273,66.7555 42.9943,66.6885 L42.6443,66.6385 L42.4943,66.7385 C42.2613,67.4055 41.7613,68.0555 40.9943,68.6885 C40.2613,69.3215 39.6283,69.6385 39.0943,69.6385 C38.6283,69.6385 38.3943,69.4725 38.3943,69.1385 L38.5443,67.9385 M58.2443,22.8886 L54.8943,22.8886 L54.8943,31.9886 C54.5613,32.1886 54.1113,32.2886 53.5443,32.2886 C52.4773,32.2886 51.9443,31.7886 51.9443,30.7886 L51.9443,22.8886 L48.6443,22.8886 L48.6443,30.5386 C48.6443,32.4196 49.4613,33.6196 51.0953,34.1386 C51.7473,34.3716 52.5303,34.4886 53.4443,34.4886 C54.4203,34.4886 55.3533,34.3716 56.2443,34.1386 C56.9363,33.9776 57.6033,33.7446 58.2443,33.4386 L58.2443,22.8886 Z M71.3453,32.2386 C70.1783,32.2386 69.5953,31.0056 69.5953,28.5386 C69.5953,26.0056 70.1783,24.7386 71.3453,24.7386 C72.5443,24.7386 73.1443,26.0056 73.1443,28.5386 C73.1443,31.0056 72.5443,32.2386 71.3453,32.2386 L71.3453,32.2386 Z M75.1443,24.3886 C74.2443,23.2556 72.9773,22.6886 71.3453,22.6886 C69.7443,22.6886 68.4943,23.2556 67.5953,24.3886 C66.7273,25.4216 66.2943,26.8216 66.2943,28.5886 C66.2943,30.3546 66.7273,31.7716 67.5953,32.8386 C68.4943,33.9386 69.7443,34.4886 71.3453,34.4886 C72.9773,34.4886 74.2443,33.9386 75.1443,32.8386 C76.0113,31.7716 76.4443,30.3546 76.4443,28.5886 C76.4443,26.8216 76.0113,25.4216 75.1443,24.3886 L75.1443,24.3886 Z M84.8453,28.5386 C84.8453,31.1716 83.9943,32.4886 82.2943,32.4886 C81.9283,32.4886 81.6443,32.4386 81.4443,32.3386 L81.4443,24.7886 C81.7773,24.6556 82.1113,24.5886 82.4443,24.5886 C84.0443,24.5886 84.8453,25.9056 84.8453,28.5386 L84.8453,28.5386 Z M82.4943,22.6886 C80.6943,22.6886 79.2273,22.9716 78.0953,23.5386 L78.0953,38.0386 L81.4443,38.0386 L81.4443,34.2386 C81.8453,34.3716 82.3943,34.4386 83.0953,34.4386 C84.5953,34.4386 85.8113,33.9056 86.7443,32.8386 C87.6783,31.7716 88.1443,30.3216 88.1443,28.4886 C88.1443,26.6216 87.6283,25.1886 86.5953,24.1886 C85.6283,23.1886 84.2613,22.6886 82.4943,22.6886 L82.4943,22.6886 Z M66.2443,22.7386 L65.0443,22.6886 C61.8103,22.6886 60.1943,23.9886 60.1943,26.5886 L60.1943,34.2886 L63.5443,34.2886 L63.5443,26.3886 C63.5443,25.4216 64.0603,24.9216 65.0953,24.8886 L65.8453,24.8886 L66.2443,22.7386 L66.2443,22.7386 Z M73.7443,48.0886 C73.7443,46.9556 73.9943,46.0716 74.4943,45.4386 C74.9613,44.8386 75.5783,44.5386 76.3453,44.5386 C76.9113,44.5386 77.4113,44.6886 77.8453,44.9886 L78.5443,43.1886 C77.8103,42.6546 76.8103,42.3886 75.5443,42.3886 C74.1113,42.3886 72.9283,42.8716 71.9943,43.8386 C70.9943,44.9046 70.4943,46.3386 70.4943,48.1386 C70.4943,49.9386 70.9773,51.3546 71.9443,52.3886 C72.8783,53.3886 74.0953,53.8886 75.5953,53.8886 C76.9943,53.8886 77.9943,53.6216 78.5953,53.0886 L77.8453,51.1886 C77.3783,51.4886 76.8783,51.6386 76.3453,51.6386 C75.6113,51.6386 75.0113,51.3216 74.5443,50.6886 C74.0113,50.0556 73.7443,49.1886 73.7443,48.0886 L73.7443,48.0886 Z M83.6943,44.2886 C84.8943,44.2886 85.4943,45.2386 85.4943,47.1386 L81.9943,47.6886 C81.8943,45.4226 82.4613,44.2886 83.6943,44.2886 L83.6943,44.2886 Z M80.1943,43.9386 C79.2943,44.9716 78.8453,46.3716 78.8453,48.1386 C78.8453,49.9046 79.3113,51.3056 80.2443,52.3386 C81.2113,53.3716 82.5113,53.8886 84.1443,53.8886 C85.5443,53.8886 86.7943,53.6386 87.8943,53.1386 L87.8943,50.8386 C86.7613,51.4046 85.6283,51.6886 84.4943,51.6886 C83.7613,51.6886 83.2113,51.4886 82.8453,51.0886 C82.5113,50.7216 82.2943,50.1216 82.1943,49.2886 L88.3453,48.3386 C88.4113,46.4386 88.0613,44.9716 87.2943,43.9386 C86.5273,42.9046 85.3783,42.3886 83.8453,42.3886 C82.3103,42.3886 81.0953,42.9046 80.1943,43.9386 L80.1943,43.9386 Z M53.8453,52.1386 C52.6443,52.1386 52.0443,51.5216 52.0443,50.2886 C52.0443,48.8546 52.9773,48.0556 54.8453,47.8886 L54.8453,51.9386 C54.5783,52.0716 54.2443,52.1386 53.8453,52.1386 L53.8453,52.1386 Z M57.9943,46.4386 C57.9943,43.7386 56.5603,42.3886 53.6943,42.3886 C52.6293,42.3886 51.6793,42.5056 50.8453,42.7386 C50.4523,42.8676 50.0853,43.0176 49.7443,43.1886 L50.2443,45.1886 L51.1943,44.8386 C51.9283,44.5716 52.5603,44.4386 53.0953,44.4386 C54.2613,44.4386 54.8453,44.9386 54.8453,45.9386 L54.8453,46.3886 C50.8783,46.7556 48.8943,48.0886 48.8943,50.3886 C48.8943,52.7216 50.4943,53.8886 53.6943,53.8886 C55.5603,53.8886 56.9943,53.5386 57.9943,52.8386 L57.9943,46.4386 L57.9943,46.4386 Z M63.0953,44.6386 C63.4943,44.4716 63.8453,44.3886 64.1443,44.3886 C65.2443,44.3886 65.7943,44.9046 65.7943,45.9386 L65.7943,53.6886 L68.9943,53.6886 L68.9943,45.9386 C68.9943,43.5716 67.4113,42.3886 64.2443,42.3886 C62.7113,42.3886 61.2613,42.7056 59.8943,43.3386 L59.8943,53.6886 L63.0953,53.6886 L63.0953,44.6386 L63.0953,44.6386 Z M42.2943,24.5886 L42.5943,24.5886 C43.6283,24.7556 44.1443,25.7386 44.1443,27.5386 L40.4443,28.1386 C40.3443,25.7716 40.9613,24.5886 42.2943,24.5886 L42.2943,24.5886 Z M42.3943,22.6886 C40.7943,22.6886 39.5283,23.2216 38.5943,24.2886 C37.6613,25.3216 37.1943,26.7386 37.1943,28.5386 C37.1943,30.4716 37.6943,31.9546 38.6943,32.9886 C39.6333,33.9596 40.9333,34.4596 42.5943,34.4886 L42.7443,34.4886 C44.1113,34.4886 45.4113,34.2386 46.6443,33.7386 L46.6443,31.3886 C45.3453,31.9546 44.1783,32.2386 43.1443,32.2386 C42.9483,32.2386 42.7653,32.2216 42.5943,32.1886 C42.0713,32.1156 41.6713,31.9156 41.3943,31.5886 C41.0283,31.2216 40.7783,30.6046 40.6443,29.7386 L47.1443,28.7386 C47.2113,26.8056 46.8453,25.3216 46.0443,24.2886 C45.2463,23.2666 44.0963,22.7336 42.5943,22.6886 L42.3943,22.6886 L42.3943,22.6886 Z M6.6443,51.9386 C6.3783,52.0716 6.0443,52.1386 5.6443,52.1386 C4.4443,52.1386 3.8443,51.5216 3.8443,50.2886 C3.8443,48.8546 4.7783,48.0556 6.6443,47.8886 L6.6443,51.9386 L6.6443,51.9386 Z M4.8943,44.4386 C6.0613,44.4386 6.6443,44.9386 6.6443,45.9386 L6.6443,46.3886 C2.6783,46.7556 0.6943,48.0886 0.6943,50.3886 C0.6943,52.7216 2.2943,53.8886 5.4943,53.8886 C7.3613,53.8886 8.8113,53.5386 9.8443,52.8386 L9.8443,46.4386 C9.8443,43.7386 8.3943,42.3886 5.4943,42.3886 C3.9283,42.3886 2.6113,42.6546 1.5443,43.1886 L2.0443,45.1886 L2.9943,44.8386 C3.7273,44.5716 4.3613,44.4386 4.8943,44.4386 L4.8943,44.4386 Z M40.8943,43.0886 C40.0283,42.5886 38.9283,42.3546 37.5943,42.3886 C36.9453,42.4076 36.3623,42.5246 35.8443,42.7386 C35.4583,42.9206 35.1083,43.1536 34.7943,43.4386 C34.0943,44.0716 33.7613,44.8546 33.7943,45.7886 C33.8273,47.0556 34.5113,48.0556 35.8443,48.7886 C37.1443,49.5216 37.7943,50.0886 37.7943,50.4886 C37.7943,51.2886 37.3273,51.6886 36.3943,51.6886 C35.8943,51.6546 35.3943,51.5556 34.8943,51.3886 L34.2943,51.1386 L33.4943,53.0886 C34.3273,53.6216 35.4443,53.8886 36.8443,53.8886 C38.1443,53.8886 39.1943,53.5556 39.9943,52.8886 C40.7613,52.2216 41.1443,51.3886 41.1443,50.3886 C41.1443,49.0556 40.4773,48.0056 39.1443,47.2386 C37.7443,46.4386 37.0283,45.9046 36.9943,45.6386 C36.9903,45.5866 36.9903,45.5366 36.9943,45.4886 C36.9883,44.7886 37.4213,44.4386 38.2943,44.4386 C38.8943,44.4716 39.5283,44.6556 40.1943,44.9886 L40.8943,43.0886 L40.8943,43.0886 Z M32.1443,39.4386 C32.1443,39.0746 32.0283,38.7586 31.7943,38.4886 C31.7483,38.4366 31.6983,38.3876 31.6443,38.3386 C31.3113,38.0386 30.8943,37.8886 30.3943,37.8886 C29.9283,37.8886 29.5283,38.0386 29.1943,38.3386 C29.1403,38.3876 29.0913,38.4366 29.0443,38.4886 C28.8113,38.7586 28.6943,39.0746 28.6943,39.4386 C28.6943,39.6396 28.7273,39.8236 28.7943,39.9886 C28.8593,40.1156 28.9433,40.2326 29.0443,40.3386 C29.0853,40.3906 29.1353,40.4406 29.1943,40.4886 C29.3703,40.6466 29.5543,40.7636 29.7443,40.8386 C29.9583,40.9046 30.1753,40.9386 30.3943,40.9386 C30.6303,40.9386 30.8473,40.9046 31.0443,40.8386 C31.2683,40.7636 31.4683,40.6466 31.6443,40.4886 C31.7033,40.4406 31.7533,40.3906 31.7943,40.3386 C31.8953,40.2326 31.9793,40.1156 32.0443,39.9886 C32.1113,39.8236 32.1443,39.6396 32.1443,39.4386 L32.1443,39.4386 Z M45.8453,39.4386 L42.6443,40.2386 L42.6443,50.6386 C42.6443,51.5716 42.9113,52.3386 43.4443,52.9386 C44.0113,53.5716 44.8453,53.8886 45.9443,53.8886 C46.7443,53.8886 47.3453,53.7716 47.7443,53.5386 L47.7443,51.5886 L46.8453,51.6886 C46.1783,51.6886 45.8453,51.2556 45.8453,50.3886 L45.8453,44.6886 L47.7443,44.6886 L47.7443,42.5886 L45.8453,42.5886 L45.8453,39.4386 L45.8453,39.4386 Z M14.6443,45.6386 C14.5773,44.8386 15.0113,44.4386 15.9443,44.4386 C16.5443,44.4716 17.1783,44.6556 17.8443,44.9886 L18.5443,43.0886 C17.6783,42.5886 16.5773,42.3546 15.2443,42.3886 C14.1113,42.4226 13.1783,42.7716 12.4443,43.4386 C11.7443,44.0716 11.4113,44.8546 11.4443,45.7886 C11.4773,47.0556 12.1613,48.0556 13.4943,48.7886 C14.7943,49.5216 15.4443,50.0886 15.4443,50.4886 C15.4443,51.2886 14.9773,51.6886 14.0443,51.6886 C13.5443,51.6546 13.0443,51.5556 12.5443,51.3886 L11.9443,51.1386 L11.1443,53.0886 C11.9773,53.6216 13.0943,53.8886 14.4943,53.8886 C15.7943,53.8886 16.8443,53.5556 17.6443,52.8886 C18.4113,52.2216 18.7943,51.3886 18.7943,50.3886 C18.7943,49.0556 18.1273,48.0056 16.7943,47.2386 C15.3943,46.4386 14.6783,45.9046 14.6443,45.6386 L14.6443,45.6386 Z M20.6943,43.4386 C19.9613,44.0716 19.6113,44.8546 19.6443,45.7886 C19.7113,47.0556 20.4113,48.0556 21.7443,48.7886 C23.0443,49.5216 23.6943,50.0886 23.6943,50.4886 C23.6943,50.8546 23.5613,51.1386 23.2943,51.3386 C23.0283,51.5716 22.6783,51.6886 22.2443,51.6886 C21.7783,51.6546 21.2943,51.5556 20.7943,51.3886 L20.1943,51.1386 L19.3943,53.0886 C20.2273,53.6216 21.3443,53.8886 22.7443,53.8886 C24.0443,53.8886 25.0943,53.5556 25.8943,52.8886 C26.6613,52.2216 27.0443,51.3886 27.0443,50.3886 C27.0443,49.0556 26.3773,48.0056 25.0443,47.2386 C23.6443,46.4386 22.9283,45.9046 22.8943,45.6386 C22.8273,44.8386 23.2613,44.4386 24.1943,44.4386 C24.7943,44.4716 25.4283,44.6556 26.0943,44.9886 L26.7943,43.0886 C25.9283,42.5886 24.8273,42.3546 23.4943,42.3886 C22.3613,42.4226 21.4283,42.7716 20.6943,43.4386 L20.6943,43.4386 Z M28.7943,53.6886 L31.9943,53.6886 L31.9943,42.5876 L28.7943,42.5876 L28.7943,53.6886 Z" id="Shape" fill="#00239C" fill-rule="nonzero"></path>
                <g transform="translate(0.000000, 4.489000)" id="Clipped">
                    <g>
                        <mask id="mask-4" fill="white">
                            <use xlink:href="#path-3"></use>
                        </mask>
                        <g id="europeassistance-c"></g>
                        <path d="M17.2946,12.5002 C18.8516,10.8452 19.9346,9.4782 20.5446,8.4002 C21.2116,7.2332 21.5446,6.1172 21.5446,5.0502 C21.5776,3.6172 20.9116,2.5172 19.5446,1.7502 C17.6106,0.8162 14.7446,0.5332 10.9446,0.9002 C7.8446,1.2002 5.1776,1.7672 2.9446,2.6002 C2.0776,3.8332 1.3276,5.9002 0.6946,8.8002 C0.4166,10.0612 0.2166,11.2942 0.0946,12.5002 C-0.0974,14.7662 0.0026,16.9332 0.3946,19.0002 C0.9616,22.7002 2.4116,25.7162 4.7446,28.0502 C7.2116,30.5502 10.3446,31.9662 14.1446,32.3002 C15.8116,32.4662 17.4276,32.4332 18.9946,32.2002 C20.4276,31.9662 21.5106,31.6162 22.2446,31.1502 C22.7446,30.8502 22.9946,30.4662 22.9946,30.0002 C21.6276,30.2002 20.1276,30.2502 18.4946,30.1502 C15.2276,29.9502 12.8946,29.1002 11.4946,27.6002 C10.2276,26.3002 9.7116,24.7162 9.9446,22.8502 L10.6446,20.5002 C11.1776,19.4002 12.0776,18.1162 13.3446,16.6502 C13.9776,15.9172 14.5616,15.2832 15.0946,14.7502 C15.9156,13.9492 16.6486,13.1992 17.2946,12.5002" id="Path" fill="#00239C" fill-rule="nonzero" mask="url(#mask-4)"></path>
                    </g>
                </g>
                <g transform="translate(9.000000, 0.488000)" id="Clipped">
                    <g>
                        <mask id="mask-6" fill="white">
                            <use xlink:href="#path-5"></use>
                        </mask>
                        <g id="europeassistance-e"></g>
                        <path d="M9.9445,16.5002 C9.4575,17.0392 8.9235,17.5892 8.3445,18.1502 L6.0945,20.4502 C4.4945,22.1832 3.4275,23.5332 2.8945,24.5002 C2.2945,25.5662 1.9615,26.7002 1.8945,27.9002 C1.8615,28.8332 2.1285,29.6162 2.6945,30.2502 C3.0615,30.6832 3.4775,30.9832 3.9445,31.1502 C5.8785,32.1162 8.7445,32.4002 12.5445,32.0002 C15.5775,31.7002 18.2275,31.1332 20.4945,30.3002 C21.3615,29.1002 22.1115,27.0502 22.7445,24.1502 C23.3325,21.4562 23.5485,18.9062 23.3945,16.5002 C23.3445,15.6312 23.2445,14.7812 23.0945,13.9502 C22.4945,10.2502 21.0275,7.2162 18.6945,4.8502 C16.2275,2.3832 13.0945,0.9832 9.2945,0.6502 C7.6275,0.4502 6.0105,0.4662 4.4445,0.7002 C3.0105,0.9332 1.9275,1.2832 1.1945,1.7502 C0.7275,2.0832 0.4945,2.4662 0.4945,2.9002 C1.8615,2.7002 3.3615,2.6502 4.9945,2.7502 C8.2605,2.9502 10.5945,3.8002 11.9945,5.3002 C13.2605,6.6332 13.7775,8.2162 13.5445,10.0502 C13.4115,10.9832 13.1615,11.7672 12.7945,12.4002 C12.1875,13.6872 11.2375,15.0542 9.9445,16.5002" id="Path" fill="#E4002B" fill-rule="nonzero" mask="url(#mask-6)"></path>
                    </g>
                </g>
            </g>
        </g>
    </g>
</svg>