<?xml version="1.0" encoding="UTF-8"?>
<svg width="16px" height="17px" viewBox="0 0 16 17" version="1.1" xmlns="http://www.w3.org/2000/svg" xmlns:xlink="http://www.w3.org/1999/xlink">
    <!-- Generator: Sketch 64 (93537) - https://sketch.com -->
    <title>familia-h3</title>
    <desc>Created with Sketch.</desc>
    <g id="Page-1" stroke="none" stroke-width="1" fill="none" fill-rule="evenodd">
        <g id="familia-h3" fill="#F03E31" fill-rule="nonzero">
            <path d="M3.06675174,0 C1.97520833,0 1.08758507,0.887623264 1.08758507,1.97916667 C1.08758507,3.07071007 1.97520833,3.99131944 3.06675174,3.99131944 C4.15829514,3.99131944 5.0459184,3.07071007 5.0459184,1.97916667 C5.0459184,0.887623264 4.15829514,0 3.06675174,0 Z" id="Path"></path>
            <path d="M13.9521684,1.97916667 C13.9521684,0.887623264 13.0645451,0 11.9730017,0 C10.8814583,0 9.99383507,0.887623264 9.99383507,1.97916667 C9.99383507,3.07071007 10.8814583,3.99131944 11.9730017,3.99131944 C13.0645451,3.99131944 13.9521684,3.07071007 13.9521684,1.97916667 Z" id="Path"></path>
            <path d="M4.85443403,15.0113194 C6.0061441,15.9777135 6.28965972,16.2499479 6.59791493,16.5120226 C6.89168924,16.7618264 7.25842882,16.8869757 7.62520139,16.8869757 C7.99533854,16.8869757 8.36544271,16.7594184 8.65925,16.5052604 C9.19596701,16.0406181 9.77761111,15.5044948 10.3007378,15.0458889 C10.0199271,14.9515486 9.75544444,14.800967 9.53480035,14.580092 C8.94728472,13.9933021 8.78410243,13.1043594 9.15549306,12.326349 C8.14657986,11.7922378 6.89498785,11.7936233 5.88554687,12.328592 C6.25512326,13.1056788 6.09223785,13.993566 5.50449132,14.5805868 C5.31389757,14.7710816 5.09209896,14.9148351 4.85443403,15.0113194 L4.85443403,15.0113194 Z" id="Path"></path>
            <circle id="Oval" cx="7.51987674" cy="8.93923611" r="1"></circle>
            <path d="M7.51987674,6.34157986 C6.84244097,5.12102778 5.67311632,4.06425174 4.01477257,4.06425174 C1.73407986,4.06425174 0.0144149306,5.91299132 0.0144149306,8.36422222 C0.0144149306,10.5295295 1.48707986,12.117184 3.81451389,14.1257083 C4.15710764,14.228691 4.54106597,14.1438837 4.80531771,13.8803576 C5.21078299,13.4759149 5.17792882,12.8174462 4.7652066,12.4423611 C2.64106597,10.5124757 1.99361458,9.61429688 1.99361458,8.60828646 L2.98319792,8.60828646 C2.98319792,9.23165799 3.5912309,10.0198611 5.25953646,11.5509115 C6.63568403,10.7433785 8.40466319,10.7451267 9.78031597,11.5509774 C11.4485556,10.0199271 12.0566545,9.23165799 12.0566545,8.60828646 L13.0462378,8.60828646 C13.0462378,9.61429688 12.3987535,10.5124757 10.2746458,12.4423611 C9.86423264,12.815401 9.82715625,13.4739688 10.2340729,13.8798628 C10.5677274,14.2125937 11.0870937,14.250099 11.4780451,13.995875 C13.9528611,11.7411753 15.0254375,10.3424323 15.0254375,8.36418924 C15.0254375,5.91292535 13.3057396,4.06425174 11.0250799,4.06425174 C9.36614236,4.06425174 8.1973125,5.12102778 7.51987674,6.34157986 Z M9.4990434,8.93923611 C9.4990434,10.0307795 8.61142014,10.9184028 7.51987674,10.9184028 C6.42833333,10.9184028 5.54071007,10.0307795 5.54071007,8.93923611 C5.54071007,7.84769271 6.42833333,6.96006944 7.51987674,6.96006944 C8.61142014,6.96006944 9.4990434,7.84769271 9.4990434,8.93923611 Z" id="Shape"></path>
        </g>
    </g>
</svg>