<svg height="100" width="100" xmlns="http://www.w3.org/2000/svg"><g fill="none" fill-rule="evenodd"><g stroke="#fff" stroke-width="2.5" transform="translate(29 23)"><path d="M28.75 40.679h-15.5v10.128L21 45.641l7.75 5.166z"/><path d="M20.431 40.643l-1.232.852a1 1 0 0 1-1.318-.16l-.996-1.127a1 1 0 0 0-1.104-.273l-1.399.53a1 1 0 0 1-1.24-.47l-.702-1.34a1 1 0 0 0-1.005-.529l-1.487.178a1 1 0 0 1-1.09-.752l-.365-1.477a1 1 0 0 0-.846-.752l-1.492-.186a1 1 0 0 1-.876-.99l-.004-1.527a1 1 0 0 0-.64-.931l-1.41-.543a1 1 0 0 1-.613-1.168l.36-1.488a1 1 0 0 0-.399-1.055l-1.245-.87a1 1 0 0 1-.315-1.28l.704-1.36a1 1 0 0 0-.136-1.118L.576 21.66a1 1 0 0 1 0-1.318l1.005-1.148a1 1 0 0 0 .136-1.119l-.704-1.359a1 1 0 0 1 .315-1.28l1.245-.87a1 1 0 0 0 .4-1.055l-.361-1.488a1 1 0 0 1 .613-1.168l1.41-.543a1 1 0 0 0 .64-.93l.004-1.528a1 1 0 0 1 .876-.99l1.492-.186a1 1 0 0 0 .846-.752l.365-1.477a1 1 0 0 1 1.09-.752l1.487.178a1 1 0 0 0 1.005-.53l.702-1.339a1 1 0 0 1 1.24-.47l1.399.53a1 1 0 0 0 1.104-.273L17.88.665a1 1 0 0 1 1.318-.16l1.232.852a1 1 0 0 0 1.138 0L22.8.505a1 1 0 0 1 1.318.16l.996 1.127a1 1 0 0 0 1.104.273l1.399-.53a1 1 0 0 1 1.24.47l.702 1.34a1 1 0 0 0 1.005.529l1.487-.178a1 1 0 0 1 1.09.752l.365 1.477a1 1 0 0 0 .846.752l1.492.186a1 1 0 0 1 .876.99l.004 1.527a1 1 0 0 0 .64.931l1.41.543a1 1 0 0 1 .613 1.168l-.36 1.488a1 1 0 0 0 .399 1.055l1.245.87a1 1 0 0 1 .315 1.28l-.704 1.36a1 1 0 0 0 .136 1.118l1.005 1.148a1 1 0 0 1 0 1.318l-1.005 1.148a1 1 0 0 0-.136 1.119l.704 1.359a1 1 0 0 1-.315 1.28l-1.245.87a1 1 0 0 0-.4 1.055l.361 1.488a1 1 0 0 1-.613 1.168l-1.41.543a1 1 0 0 0-.64.93l-.004 1.528a1 1 0 0 1-.876.99l-1.492.186a1 1 0 0 0-.846.752l-.365 1.477a1 1 0 0 1-1.09.752l-1.487-.178a1 1 0 0 0-1.005.53l-.702 1.339a1 1 0 0 1-1.24.47l-1.399-.53a1 1 0 0 0-1.104.273l-.996 1.127a1 1 0 0 1-1.318.16l-1.232-.852a1 1 0 0 0-1.138 0z"/><circle cx="21" cy="21" r="14.143"/></g><path d="M54.497 39.978c0 .84-.254 1.556-.764 2.145-.51.59-1.224.995-2.145 1.216v.055c1.086.135 1.909.465 2.468.99.558.525.837 1.232.837 2.122 0 1.295-.47 2.304-1.408 3.025-.94.721-2.28 1.082-4.024 1.082-1.461 0-2.756-.243-3.886-.728v-2.421a8.782 8.782 0 0 0 1.722.644 7.245 7.245 0 0 0 1.86.249c.94 0 1.633-.16 2.081-.479.448-.32.672-.832.672-1.538 0-.632-.258-1.08-.773-1.344-.516-.264-1.338-.396-2.468-.396h-1.022v-2.182h1.04c1.044 0 1.807-.137 2.289-.41.481-.273.722-.741.722-1.404 0-1.019-.638-1.528-1.915-1.528-.442 0-.891.073-1.349.22-.457.148-.965.403-1.524.765L45.594 38.1c1.227-.884 2.691-1.326 4.392-1.326 1.393 0 2.493.282 3.3.847.808.565 1.211 1.35 1.211 2.357z" fill="#fff"/></g></svg>