<svg height="100" width="100" xmlns="http://www.w3.org/2000/svg"><g fill="none" fill-rule="evenodd" transform="translate(25 29)"><path d="M50.663 22.945a3.93 3.93 0 0 0-2.178-2.103 3.867 3.867 0 0 0-3.011.07l-12.118 4.817a1.049 1.049 0 0 0-.505 1.385c.238.524.851.752 1.369.51l12.094-4.806a1.841 1.841 0 0 1 1.425-.03 1.9 1.9 0 0 1 1.069 2.45c-.18.47-.532.843-.989 1.047l-13.298 5.94a7.593 7.593 0 0 1-6.531-.15l-4.868-2.446a9.628 9.628 0 0 0-8.282-.19l-3.67-8.24 5.017-2.24a9.907 9.907 0 0 1 7.532-.244l9.79 3.637c.874.325 1.34 1.315 1.038 2.206a1.726 1.726 0 0 1-2.187 1.09l-7.57-2.59a1.029 1.029 0 0 0-1.308.654 1.047 1.047 0 0 0 .647 1.323l7.57 2.59c.4.137.807.202 1.209.202a3.804 3.804 0 0 0 3.592-2.593c.661-1.957-.362-4.128-2.28-4.841l-9.79-3.637c-.658-.244-1.329-.43-2.006-.555L20.36 16a11.976 11.976 0 0 0-5.007 1.048L10.3 19.306a2.543 2.543 0 0 0-3.152-.926l-6.53 2.894A1.044 1.044 0 0 0 0 22.23v17.726c0 .363.186.7.491.89a1.023 1.023 0 0 0 1.006.042l12.676-6.478a2.557 2.557 0 0 0 1.324-1.42 2.596 2.596 0 0 0 .087-1.602c2.186-.977 4.567-.922 6.62.11l4.868 2.447a9.63 9.63 0 0 0 8.282.19l13.298-5.94a3.935 3.935 0 0 0 2.08-2.204 3.997 3.997 0 0 0-.07-3.046zm-37.35 9.568a1.088 1.088 0 0 0-.049.023l-11.2 5.724V22.912l5.914-2.622a.494.494 0 0 1 .65.255l.237.542 4.7 10.767a.502.502 0 0 1-.252.659z" fill="#fff" fill-rule="nonzero" stroke="#fff" stroke-width=".3"/><circle cx="33.453" cy="8.453" r="8" stroke="#fff" stroke-width="2.5"/><path d="M36.667 10.238a.939.939 0 0 0 .665-.893v-.47c0-.36-.208-.67-.506-.828-.208-1.766-1.375-2.481-3.252-2.481-.088 0-.176.003-.261.01-.638.051-1.283-.069-1.814-.426a2.357 2.357 0 0 1-.536-.473c-.06-.076-.18-.028-.168.068.019.164.046.357.088.566.155.78.062.666-.24 1.401a4.869 4.869 0 0 0-.324 1.337.94.94 0 0 0-.502.826v.47c0 .42.282.774.664.893.254.95.776 1.71 1.684 2.102v.538a.361.361 0 0 1-.201.323l-1.813.894a1.515 1.515 0 0 0-.402.33 6.983 6.983 0 0 0 3.914 1.194 6.972 6.972 0 0 0 3.786-1.115 1.537 1.537 0 0 0-.5-.397l-1.769-.905a.36.36 0 0 1-.197-.32v-.542c.908-.391 1.43-1.152 1.684-2.102" fill="#fff" fill-rule="nonzero"/></g></svg>