<svg height="100" width="100" xmlns="http://www.w3.org/2000/svg"><g fill="#fff" stroke="#fff" stroke-width=".75"><path d="M63.125 44.875H41.25a.875.875 0 1 0 0 1.75h21.875a.875.875 0 1 0 0-1.75zM41.25 39.625H50a.875.875 0 1 0 0-1.75h-8.75a.875.875 0 1 0 0 1.75zM63.125 51.875H41.25a.875.875 0 1 0 0 1.75h21.875a.875.875 0 1 0 0-1.75zM63.125 58.875H41.25a.875.875 0 1 0 0 1.75h21.875a.875.875 0 1 0 0-1.75zM63.125 65.875H41.25a.875.875 0 1 0 0 1.75h21.875a.875.875 0 1 0 0-1.75z"/><path d="M66.625 35.763V25a2 2 0 0 0-2-2H31a2 2 0 0 0-2 2v44.125a2 2 0 0 0 2 2h2.375V73.5a2 2 0 0 0 2 2H69a2 2 0 0 0 2-2V40.552a1 1 0 0 0-.293-.707zm-7.875-5.4l7.875 7.874 1.388 1.388H59.75a1 1 0 0 1-1-1zm-28 39.012V24.75h34.125v9.263l-6.345-6.345a1 1 0 0 0-.707-.293H35.375a2 2 0 0 0-2 2v40zm4.375 4.375V29.125H57v10.25a2 2 0 0 0 2 2h10.25V73.75z"/></g></svg>