<svg width="18" height="19" xmlns="http://www.w3.org/2000/svg"><path d="M17.234 14.432h-.357a.678.678 0 0 0 .027-.189v-2.07a.682.682 0 0 0-.681-.68h-1.104L5.932.272c-.275-.336-.553-.283-.66-.245-.107.038-.356.174-.356.608v2.8h-.199a.4.4 0 0 0 0 .802h.351a.301.301 0 0 0-.008.07v.661a.3.3 0 0 0 .325.3l.025.001a.384.384 0 1 1-.31.609.3.3 0 0 0-.487.354.986.986 0 1 0 1.048-1.531v-.394a.301.301 0 0 0-.008-.07h.24a.4.4 0 0 0 0-.802h-.175V1.277l4.296 5.247 3.239 7.908h-6.18c-.155 0-.206-.04-.218-.052a.057.057 0 0 1-.016-.031V9.03l-.006-.025a.622.622 0 0 0-.603-.468h-.324c-.23 0-.419-.003-.421-.003H3.497c-.554 0-.814.279-1.032.697-.05.082-.632 1.051-1.208 2.057C.022 13.447.022 13.664.022 13.769v1.526c0 .553.45 1.004 1.004 1.004h.871a1.864 1.864 0 0 0 1.86 1.948 1.864 1.864 0 0 0 1.859-1.948h4.108a1.864 1.864 0 0 0 1.86 1.948 1.864 1.864 0 0 0 1.858-1.948h.057a1.864 1.864 0 0 0 1.86 1.948 1.864 1.864 0 0 0 1.858-1.948h.017c.42 0 .75-.255.75-.58v-.707c0-.325-.33-.58-.75-.58zm-13.477 2.85a.897.897 0 1 1 0-1.794.897.897 0 0 1 0 1.793zm1.996-5.69a.443.443 0 0 1-.442.443H2.294c-.094 0-.165-.025-.19-.066-.023-.04-.01-.113.034-.194.055-.09.798-1.31 1.018-1.758.237-.485.507-.523.863-.523h1.466c.161 0 .268 0 .268.782v1.317zm5.83 5.69a.896.896 0 1 1 0-1.794.896.896 0 0 1 0 1.793zm2.505-5.783a.682.682 0 0 0-.591.675v1.267l-2.183-5.33 2.774 3.388zm1.27 5.782a.896.896 0 1 1 0-1.793.896.896 0 0 1 0 1.793z" fill="#F03E31" fill-rule="nonzero"/></svg>