<svg height="100" width="100" xmlns="http://www.w3.org/2000/svg"><g fill="#a40000" stroke="#a40000"><path d="M66.625 35.763V25a2 2 0 0 0-2-2H31a2 2 0 0 0-2 2v44.125a2 2 0 0 0 2 2h2.375V73.5a2 2 0 0 0 2 2H69a2 2 0 0 0 2-2V40.552a1 1 0 0 0-.293-.707zm-7.875-5.4l7.875 7.874 1.388 1.388H59.75a1 1 0 0 1-1-1zm-28 39.012V24.75h34.125v9.263l-6.345-6.345a1 1 0 0 0-.707-.293H35.375a2 2 0 0 0-2 2v40zm4.375 4.375V29.125H57v10.25a2 2 0 0 0 2 2h10.25V73.75z" stroke-width=".75"/><g stroke-width=".5"><path d="M59.012 47.588a.832.832 0 0 0-1.177 0l-8.247 8.247a.832.832 0 1 0 1.176 1.177l8.248-8.248a.832.832 0 0 0 0-1.176z"/><path d="M46.063 52.563a.832.832 0 0 0 0 1.176l3.298 3.298a.832.832 0 1 0 1.176-1.176l-3.298-3.298a.832.832 0 0 0-1.176 0z"/></g></g></svg>