<svg height="115" width="115" xmlns="http://www.w3.org/2000/svg" xmlns:xlink="http://www.w3.org/1999/xlink"><defs><circle id="a" cx="57.5" cy="57.5" r="57.5"/><mask id="b" fill="#fff"><use fill="none" xlink:href="#a"/></mask></defs><g fill="none" fill-rule="evenodd"><use fill="#f9725f" xlink:href="#a"/><g fill-rule="nonzero" mask="url(#b)"><path d="M57.607 80.338c-4.285-1.533-11.812-2.693-11.812-18.679H31.227c0 15.986-7.526 17.146-11.811 18.68 0 10.872 15.8 11.207 18.521 12.22v.353s.212-.043.574-.156c.363.113.574.156.574.156v-.353c2.722-1.013 18.522-1.348 18.522-12.22z" fill="#f3d8b6"/><path d="M45.795 61.66H38.51v31.095c.363.113.574.157.574.157v-.353c2.722-1.014 18.522-1.348 18.522-12.22-4.285-1.534-11.812-2.694-11.812-18.68z" fill="#eec8a2"/><path d="M38.512 66.746c-6.302 0-11.112-5.306-13.268-9.286-2.155-3.98-3.646-17.777.997-24.078 4.546-6.17 12.27-5.472 12.27-5.472s7.725-.699 12.271 5.472c4.643 6.301 3.151 20.099.996 24.078-2.156 3.98-6.966 9.286-13.266 9.286z" fill="#f3dbc4"/><path d="M50.782 33.382c-4.547-6.17-12.27-5.472-12.27-5.472v38.836c6.3 0 11.11-5.306 13.266-9.286 2.155-3.98 3.647-17.777-.996-24.078z" fill="#edceae"/><path d="M53.765 48.993c-.167 3.385-5.148 6.731-6.795 8.966-3.856 5.234-8.459.744-8.459.744s-4.603 4.49-8.46-.744c-1.646-2.234-6.627-5.58-6.793-8.964-.273 4.789 2.678 9.703 3.76 11.701 1.83 3.379 6.144 7.885 11.494 7.885 5.349 0 9.662-4.506 11.492-7.885 1.083-1.998 4.034-6.914 3.76-11.703z" fill="#a97c75"/><path d="M53.765 48.993c-.167 3.384-5.148 6.731-6.795 8.966-3.85 5.226-8.444.758-8.459.744v9.877c5.35 0 9.663-4.505 11.493-7.884 1.083-1.998 4.034-6.914 3.76-11.703z" fill="#976f6a"/><path d="M46.623 29.821s-5.607-7.531-9.114-5.646c-8.963 4.819-10.15 4.216-12.161 4.914-4.876 1.694-5.004 1.24-4.39 4.999 2.039 12.468-.127 18.21 3.664 13.576 3.792-4.634 5.056-3.54 14.708-4.593 9.651-1.054 3.501-5.363 8.557-1.878 5.055 3.485 5.72 9.809 6.562 9.809.843 0 2.718-12.072 1.442-15.818-2.722-7.997-9.268-5.363-9.268-5.363z" fill="#a0756f"/><path d="M55.891 35.184c-2.722-7.997-9.268-5.362-9.268-5.362s-4.634-6.225-8.112-5.94v19.275c.266-.027.538-.055.818-.086 9.652-1.053 3.502-5.363 8.558-1.878 5.055 3.486 5.72 9.81 6.562 9.81s2.718-12.072 1.442-15.819z" fill="#8c6762"/><g transform="translate(20.659 46.597)"><ellipse cx="32.122" cy="4.608" fill="#edceae" rx="3.945" ry="2.306" transform="rotate(-69.249 32.122 4.608)"/><ellipse cx="3.581" cy="4.608" fill="#f3dbc4" rx="3.945" ry="2.306" transform="rotate(69.249 3.58 4.608)"/></g><path d="M66.052 92.934v27.7l-28.854-2.404L10.97 102.27v-9.337c0-6.986 3.99-13.076 9.321-16.278 1.387-.836 4.52-1.705 6.162-2.11 1.366-.342 12.266 5.216 12.266 5.216s11.173-5.329 12.54-4.987c1.641.405 4.085 1.045 5.472 1.881 5.332 3.202 9.321 9.292 9.321 16.278z" fill="#545465"/><path d="M56.731 76.656c-1.387-.836-3.83-1.476-5.473-1.881-1.366-.342-12.539 4.988-12.539 4.988l-.208-.106v38.683l12.098 2.123 15.443 2.467V92.934c0-6.986-3.989-13.076-9.32-16.278z" fill="#494857"/><g><path d="M49.568 73.678l-11.057 5.38-11.056-5.38c-2.64 1.263 2.386 8.823 3.405 8.455 2.516-.909 7.651-2.371 7.651-2.371s5.135 1.462 7.652 2.371c1.018.368 6.044-7.192 3.405-8.455z" fill="#fff"/><path d="M49.568 73.678l-11.057 5.38v.704s5.135 1.462 7.652 2.371c1.018.368 6.044-7.192 3.405-8.455z" fill="#dedde0"/></g><g><path d="M101.355 90.595c6.057-5.523 2.56-27.653 2.56-32.689 0-18.701-9.812-32.427-25.397-32.427-15.584 0-25.396 13.726-25.396 32.427 0 5.036-3.497 27.166 2.56 32.688 8.438 7.693 37.235 7.693 45.673 0z" fill="#682234"/><path d="M103.915 57.906c0-18.701-9.812-32.427-25.397-32.427v70.885c9.309 0 18.618-1.923 22.836-5.77 6.058-5.522 2.561-27.652 2.561-32.688z" fill="#581a2b"/></g><g><path d="M96.739 80.884a16.441 16.441 0 0 0-4.555-1.882c-1.108-.276-3.914-.447-5.743-.502-1.88 1.961-4.73 3.212-7.923 3.212s-5.583-1.25-7.463-3.212c-1.83.055-5.095.226-6.202.502a16.431 16.431 0 0 0-4.555 1.882c-5.332 3.202-8.632 9.292-8.632 16.277v25.674l26.64-4.5 27.064-16.159v-5.015c0-6.985-3.3-13.075-8.631-16.277z" fill="#ffeb99"/><path d="M96.739 80.884a16.448 16.448 0 0 0-4.555-1.882c-1.108-.276-3.914-.447-5.743-.502-1.88 1.961-4.73 3.212-7.923 3.212v38.828l26.853-18.364v-5.015c0-6.985-3.3-13.075-8.632-16.277z" fill="#ffe477"/></g><g><path d="M84.323 65.91H72.714c0 9.825-4.51 13.498-6.605 14.845 0 0 10.47 15.385 12.114 16.054h.592C80.46 96.14 90.93 80.755 90.93 80.755c-2.096-1.347-6.606-5.02-6.606-14.845z" fill="#f3d8b6"/><path d="M84.323 65.91H78.52v30.9h.296c1.643-.67 12.114-16.055 12.114-16.055-2.096-1.347-6.606-5.02-6.606-14.845z" fill="#eec8a2"/></g><g><path d="M93.13 53.218l-.028-.001-.183-.012-.033-.002-.194-.014-.042-.003-.263-.02h-.007a44.763 44.763 0 0 1-.28-.024l-.058-.005c-.208-.019-.435-.04-.68-.065l-.06-.006a55.74 55.74 0 0 1-.36-.04c-.008 0-.016 0-.025-.002a43.116 43.116 0 0 1-.416-.048l-.053-.006-.397-.05-.055-.007a47.68 47.68 0 0 1-.945-.132l-.075-.011c-.328-.05-.668-.104-1.018-.164l-.081-.014a50.427 50.427 0 0 1-1.087-.201l-.074-.015c-.174-.034-.35-.07-.526-.107l-.041-.009c-.193-.04-.387-.083-.582-.127l-.054-.013a46.474 46.474 0 0 1-1.21-.292l-.007-.002c-.191-.05-.383-.101-.576-.154l-.094-.026a35.964 35.964 0 0 1-2.474-.786l-.087-.032a28.23 28.23 0 0 1-.528-.199l-.073-.028a26.475 26.475 0 0 1-.586-.237l-.059-.025a25.415 25.415 0 0 1-.518-.225l-.097-.043a23.076 23.076 0 0 1-.57-.267c-2.504-1.215-4.707-2.855-5.997-5.07a63.272 63.272 0 0 1-1.033-1.839c-1.568 3.405-4.978 7.517-7.791 9.384.2 5.047 1 9.598 1.93 11.314 2.076 3.832 6.707 8.942 12.776 8.942 6.067 0 10.698-5.11 12.774-8.942.871-1.609 1.63-5.708 1.886-10.372a2.268 2.268 0 0 0-.048-.003z" fill="#f3dbc4"/><path d="M93.13 53.218l-.028-.001-.183-.012-.033-.002-.194-.014-.042-.003-.263-.02h-.007a44.763 44.763 0 0 1-.28-.024l-.058-.005c-.208-.019-.435-.04-.68-.065l-.06-.006a55.74 55.74 0 0 1-.36-.04c-.008 0-.016 0-.025-.002a43.116 43.116 0 0 1-.416-.048l-.053-.006-.397-.05-.055-.007a47.68 47.68 0 0 1-.945-.132l-.075-.011c-.328-.05-.668-.104-1.018-.164l-.081-.014a50.427 50.427 0 0 1-1.087-.201l-.074-.015c-.174-.034-.35-.07-.526-.107l-.041-.009c-.193-.04-.387-.083-.582-.127l-.054-.013a46.474 46.474 0 0 1-1.21-.292l-.007-.002c-.191-.05-.383-.101-.576-.154l-.094-.026a35.964 35.964 0 0 1-2.474-.786l-.087-.032a28.23 28.23 0 0 1-.528-.199l-.073-.028a26.475 26.475 0 0 1-.586-.237l-.059-.025a25.415 25.415 0 0 1-.518-.225l-.097-.043a23.076 23.076 0 0 1-.57-.267l-.116-.057v22.788c6.068 0 10.699-5.11 12.775-8.943.872-1.608 1.63-5.707 1.887-10.371l-.05-.003z" fill="#edceae"/></g></g></g></svg>