<svg height="100" width="100" xmlns="http://www.w3.org/2000/svg"><g fill="none" fill-rule="evenodd" transform="translate(35 21)"><g stroke="#a40000" stroke-width="2"><circle cx="16.339" cy="4.576" r="4.576"/><path d="M11.546 38.332l-2.308-4.649a3 3 0 0 1-.148-2.317l4.19-12.085a.2.2 0 0 1 .357-.041l5.299 8.39a2.032 2.032 0 0 0 2.937.54 2.422 2.422 0 0 0 .613-3.2L16.08 14.496c-1.396-1.912-2.437-3.148-3.123-3.707a4.557 4.557 0 0 0-2.89-1.027c-1.356 0-2.575.59-3.413 1.528-.416.466-2.22 5.281-5.41 14.446a11 11 0 0 0 .784 8.977l2.748 4.923a3 3 0 0 1 .085 2.76L1.23 49.97a3.316 3.316 0 0 0 1.459 4.375 3.143 3.143 0 0 0 4.268-1.394l4.595-9.29a6 6 0 0 0-.005-5.33z"/><path d="M18.682 27.238l4.953 7.944 3.41 1.422.433-3.724-4.88-7.658" stroke-linecap="round"/><path d="M26.725 36l7.82 13.097"/></g><circle cx="34.78" cy="49.424" fill="#a40000" r="1.22"/><circle cx="17.82" cy="15.62" fill="#a40000" r="1.22"/><circle cx="13.02" cy="18.62" fill="#a40000" r="1.22"/></g></svg>