<svg height="100" width="100" xmlns="http://www.w3.org/2000/svg"><g fill="none" fill-rule="evenodd"><path d="M59.972 58.499l2.703 1.397" stroke="#a40000" stroke-linecap="round" stroke-width="2"/><g fill="#a40000" transform="translate(30 23)"><path d="M32.492 12.812c-1.927-1.606-7.571-3.47-11.03-3.888-2.781-.337-5.441-.209-7.183-.042a2.645 2.645 0 0 0-2.398 2.647v1.299c0 .156-.596.477-1.788.964 0 .28-.864 1.623-.14 1.702.486.053 2.703-1.067 2.776-1.116.547-.372.847-.38.847-.848v-2c0-.5.372-.913.865-.96 2.914-.28 10.06-.48 16.966 3.544.49.286.894.251 1.193-.108a.848.848 0 0 0-.108-1.194z" fill-rule="nonzero" stroke="#a40000" stroke-width=".3"/><path d="M29.941 0H18.164a6.283 6.283 0 0 0-4.467 1.873c-3.076.416-5.44 3.086-5.44 6.222v2.522c0 1.401.173 2.801.513 4.16l.393 1.575v3.16a12.23 12.23 0 0 0 4.53 9.514v3.018a1.747 1.747 0 0 0-1.252.772l-1.17 1.755-6.125 2.227a6.302 6.302 0 0 0-4.136 5.905v7.97a.847.847 0 1 0 1.695 0v-7.97a4.601 4.601 0 0 1 3.02-4.312l5.782-2.102 3.534 4.947a1.75 1.75 0 0 0 1.428.734 1.75 1.75 0 0 0 1.239-.513l.53-.53c.05.395.229.75.496 1.018l-.51 8.678a.848.848 0 0 0 .796.896c.496.001.87-.346.896-.796l.486-8.262h.96l.485 8.262c.027.45.4.797.846.797.518-.029.874-.43.847-.897l-.51-8.678a1.75 1.75 0 0 0 .496-1.018l.53.53a1.75 1.75 0 0 0 1.384.507 1.75 1.75 0 0 0 1.282-.728l3.908-5.471a.848.848 0 0 0 .016-.963l-1.324-1.986a1.746 1.746 0 0 0-1.251-.772v-2.917c.354-.276.695-.574 1.02-.893a11.632 11.632 0 0 0 3.51-8.362v-3.52l.393-1.574c.34-1.36.512-2.76.512-4.161V3.565C33.506 1.6 31.906 0 29.941 0zM16.509 40.258a.058.058 0 0 1-.046.017c-.027-.002-.038-.018-.043-.024l-3.568-4.996 1-1.499a.058.058 0 0 1 .08-.017l5.597 3.499zm5.279.508h-1.812a.058.058 0 0 1-.058-.058v-1.461l.964-.964.964.964v1.46a.058.058 0 0 1-.058.059zm-.906-4.681l-5.494-3.434v-2.483a11.293 11.293 0 0 0 5.496 1.422c1.946 0 3.82-.47 5.492-1.36v2.419l-5.494 3.436zm8.03-.83l-3.569 4.996c-.004.006-.015.022-.042.024-.029.001-.041-.012-.046-.017l-3.02-3.02 5.597-3.499a.059.059 0 0 1 .08.018zm2.9-24.638c0 1.263-.156 2.525-.463 3.75l-.418 1.676a.85.85 0 0 0-.026.205v3.624a9.95 9.95 0 0 1-3.001 7.152 9.946 9.946 0 0 1-7.21 2.87c-5.424-.1-9.836-4.757-9.836-10.383v-3.263a.845.845 0 0 0-.025-.205l-.419-1.676a15.47 15.47 0 0 1-.461-3.75V8.095c0-2.372 1.851-4.379 4.215-4.569a.848.848 0 0 0 .567-.282 4.59 4.59 0 0 1 3.429-1.549H29.94c1.031 0 1.87.84 1.87 1.87z" fill-rule="nonzero" stroke="#a40000" stroke-width=".3"/><path d="M8.575 44.093l-.524-1.047a.847.847 0 1 0-1.516.758l.524 1.047c.191.384.293.813.293 1.242v4.58a.847.847 0 1 0 1.695 0v-4.58c0-.69-.163-1.382-.472-2z" fill-rule="nonzero" stroke="#a40000" stroke-width=".3"/><rect height="2" rx="1" width="30" x=".87" y="49.9"/><path d="M37.138 35.278c-5.435 0-9.856 4.422-9.856 9.857 0 5.434 4.421 9.856 9.856 9.856s9.856-4.422 9.856-9.856c0-5.435-4.421-9.857-9.856-9.857zm0 18.168c-4.583 0-8.311-3.729-8.311-8.312 0-4.582 3.728-8.31 8.31-8.31 4.584 0 8.312 3.728 8.312 8.31 0 4.583-3.728 8.312-8.311 8.312z" fill-rule="nonzero" stroke="#a40000" stroke-width=".3"/><path d="M41.231 48.03l-2.897-2.898 2.897-2.897a.847.847 0 1 0-1.198-1.198l-2.897 2.897-2.897-2.897a.847.847 0 1 0-1.199 1.198l2.897 2.897-2.897 2.897a.847.847 0 1 0 1.199 1.199l2.897-2.897 2.897 2.897a.847.847 0 1 0 1.198-1.199z" fill-rule="nonzero" stroke="#a40000" stroke-width=".3"/></g></g></svg>