<?xml version="1.0" encoding="UTF-8"?>
<svg width="52px" height="52px" viewBox="0 0 52 52" version="1.1" xmlns="http://www.w3.org/2000/svg" xmlns:xlink="http://www.w3.org/1999/xlink">
    <!-- Generator: Sketch 51.3 (57544) - http://www.bohemiancoding.com/sketch -->
    <title>Group 2 Copy 2</title>
    <desc>Created with Sketch.</desc>
    <defs></defs>
    <g id="Page-1" stroke="none" stroke-width="1" fill="none" fill-rule="evenodd">
        <g id="Group-2-Copy-2" transform="translate(1.000000, 1.000000)">
            <circle id="Oval" stroke="#F03E31" stroke-width="1.3" cx="25" cy="25" r="25"></circle>
            <g id="computer-screen" transform="translate(12.000000, 15.000000)" fill="#F03E31" fill-rule="nonzero">
                <path d="M24.5479869,0.0379608483 L24.5479869,0 L24.4209135,0 L1.5239478,0 L1.39687439,0 L1.39687439,0.0379608483 C0.647752039,0.089451876 0.088858075,0.685458401 0,1.40883524 L0,1.53616313 L0,16.6239674 C0,16.9165416 0.0761337684,17.1631387 0.203207178,17.3852626 C0.495569331,17.9000457 0.9271354,18.1601305 1.52399021,18.1601305 L9.88012724,18.1601305 L9.88012724,20.2679119 L8.29276998,20.2679119 C7.89912235,20.2679119 7.59433279,20.5740587 7.59433279,20.9669005 C7.59433279,21.3597423 7.89912235,21.6658467 8.29276998,21.6658467 L17.6521762,21.6658467 C18.0458238,21.6658467 18.3633801,21.3596998 18.3633801,20.9669005 C18.3633801,20.5740163 18.0458662,20.2679119 17.6521762,20.2679119 L16.0648189,20.2679119 L16.0648189,18.1601305 L24.4209135,18.1601305 C25.0180228,18.1601305 25.4534062,17.9000457 25.7416966,17.3852626 C25.8725449,17.1522806 25.9576281,16.9030114 25.9576281,16.6239674 L25.9576281,1.53620555 L25.9576281,1.40887765 C25.8687276,0.685458401 25.2718728,0.089451876 24.5479869,0.0379608483 Z M24.5479869,1.53620555 L24.5479869,16.6240098 C24.5479869,16.7134192 24.5100261,16.7513377 24.4209135,16.7513377 L1.5239478,16.7513377 C1.43508972,16.7513377 1.39687439,16.7134192 1.39687439,16.6240098 L1.39687439,1.53620555 L1.39687439,1.40887765 L24.5479869,1.40887765 L24.5479445,1.53620555 L24.5479869,1.53620555 Z" id="Shape"></path>
            </g>
        </g>
    </g>
</svg>