<svg height="100" width="100" xmlns="http://www.w3.org/2000/svg"><path d="M74.582 41.46L49.495 25.811a1.32 1.32 0 0 0-1.397 0l-11.355 7.085v-4.4c0-.73-.59-1.321-1.32-1.321h-6.695c-.73 0-1.32.591-1.32 1.32v10.222l-4.396 2.741a1.32 1.32 0 0 0 .698 2.442h3.697v26.407c0 .729.591 1.32 1.32 1.32h40.931c.73 0 1.32-.591 1.32-1.32V43.9h2.905a1.32 1.32 0 0 0 .699-2.442zM53.814 68.986H43.251V55.784h10.563zM68.338 42.58v10.017l-3.315 3.319-4.928 1.232a1.32 1.32 0 0 0-.96 1.601c.004.018.315.953.93 2.804a1.322 1.322 0 0 0 2.509-.835l-.452-1.355 3.899-.974a1.32 1.32 0 0 0 .612-.347l1.705-1.712v12.657H56.455V54.464c0-.73-.591-1.32-1.32-1.32H41.93c-.73 0-1.32.59-1.32 1.32v14.523H30.048V56.49l3.037-2.026h3.565c.441 0 .853-.22 1.098-.588l1.908-2.862a1.32 1.32 0 0 0-2.197-1.466l-1.516 2.275H32.69c-.261 0-.516.077-.733.222l-1.908 1.272V42.58c0-.729-.591-1.32-1.32-1.32h-.406l1.104-.688a1.32 1.32 0 0 0 .622-1.12v-9.64h4.05v5.462a1.32 1.32 0 0 0 2.018 1.12l12.676-7.91 4.48 2.796-4.565 8a1.32 1.32 0 0 0 .825 1.935l3.815.953-1.59 3.972a1.32 1.32 0 1 0 2.454.98l1.405-3.516 1.613 1.612a1.32 1.32 0 1 0 1.867-1.867l-3.028-3.028a1.593 1.593 0 0 0-.613-.347l-3.59-.898 3.655-6.398L69.336 41.3a1.32 1.32 0 0 0-.998 1.28z" fill="#a40000"/></svg>