<svg height="50" width="50" xmlns="http://www.w3.org/2000/svg"><g fill="#e71215" fill-rule="evenodd"><path d="M25.208 8.787c7.953 0 14.42 6.469 14.42 14.422a14.386 14.386 0 0 1-9.33 13.487v7.721c0 .469-.38.848-.848.848h-.85v1.697a.847.847 0 0 1-.847.848h-5.09a.847.847 0 0 1-.848-.848v-1.697h-.85a.847.847 0 0 1-.847-.848v-7.721a14.386 14.386 0 0 1-9.331-13.487c0-7.953 6.469-14.422 14.42-14.422zm3.977 26.503a12.696 12.696 0 0 0 8.748-12.081c0-7.017-5.708-12.726-12.725-12.726-7.016 0-12.725 5.709-12.725 12.726A12.695 12.695 0 0 0 21.23 35.29a.848.848 0 0 1 .584.806v1.534H28.6v-1.534c0-.366.235-.691.584-.806zm-1.432 8.278h.848v-4.242h-6.786v4.242h.849c.468 0 .847.379.847.849v1.696h3.394v-1.696c0-.47.379-.849.848-.849zM25.208 7.09a.847.847 0 0 0 .848-.85V2.85a.847.847 0 1 0-1.697 0V6.24c0 .47.379.849.849.849M45.567 22.36h-3.394a.847.847 0 0 0 0 1.696h3.394a.847.847 0 1 0 0-1.696M8.241 22.36H4.847a.847.847 0 0 0 0 1.696h3.394a.848.848 0 1 0 0-1.696M39.005 8.212l-2.4 2.398a.85.85 0 0 0 .6 1.449.85.85 0 0 0 .6-.248l2.399-2.4a.847.847 0 1 0-1.199-1.199M12.61 34.606l-2.399 2.4a.85.85 0 0 0 1.2 1.2l2.398-2.4a.847.847 0 1 0-1.2-1.199M37.806 34.606a.847.847 0 1 0-1.2 1.2l2.399 2.4a.848.848 0 1 0 1.199-1.2zM12.61 11.81a.85.85 0 0 0 1.2-1.2l-2.4-2.398a.85.85 0 0 0-1.199 1.2z"/><path d="M25.208 13.028c-5.613 0-10.18 4.566-10.18 10.181a.848.848 0 1 0 1.697 0c0-4.678 3.805-8.484 8.483-8.484a.848.848 0 1 0 0-1.697"/></g></svg>