<?xml version="1.0" encoding="UTF-8"?>
<svg width="52px" height="52px" viewBox="0 0 52 52" version="1.1" xmlns="http://www.w3.org/2000/svg" xmlns:xlink="http://www.w3.org/1999/xlink">
    <!-- Generator: Sketch 64 (93537) - https://sketch.com -->
    <title>legal-h2</title>
    <desc>Created with Sketch.</desc>
    <g id="Page-1" stroke="none" stroke-width="1" fill="none" fill-rule="evenodd">
        <g id="legal-h2" transform="translate(1.000000, 1.000000)">
            <g id="Group-32-Copy" stroke="#F03E31" stroke-width="1.3">
                <circle id="Oval-Copy-13" cx="25" cy="25" r="25"></circle>
            </g>
            <g id="Group-32-Copy-2" transform="translate(15.000000, 12.000000)" fill="#F03E31" fill-rule="nonzero">
                <path d="M18.9203104,0 L1.23968955,0 C0.574936119,0 0.0361074627,0.538828657 0.0361074627,1.20358209 L0.0361074627,24.4688239 C0.0361074627,25.1335773 0.574936119,25.672406 1.23968955,25.672406 L3.1112597,25.672406 L3.1112597,28.2841791 C3.1112597,28.6165182 3.38063642,28.8860454 3.71297552,28.8860454 C3.88892418,28.8860454 4.05607164,28.8090913 4.17041194,28.6753433 L5.49435224,27.1347582 L6.81829254,28.6753433 C7.03433552,28.9279451 7.41421612,28.9575833 7.66674269,28.7416155 C7.80041552,28.6272752 7.87744478,28.4601278 7.87744478,28.2841791 L7.87744478,25.672406 L18.9203104,25.672406 C19.5850639,25.672406 20.1238925,25.1335773 20.1238925,24.4688239 L20.1238925,1.20358209 C20.1238925,0.538828657 19.5850639,0 18.9203104,0 Z M5.95171343,25.7987821 C5.73567045,25.5461803 5.35578985,25.5165421 5.10326328,25.7325099 C5.07949254,25.7528203 5.05737672,25.7750113 5.03699104,25.7987821 L4.31484179,26.6412896 L4.31484179,24.3544836 C5.07512955,24.6408609 5.91357493,24.6408609 6.67386269,24.3544836 L6.67386269,26.6412896 L5.95171343,25.7987821 Z M18.9203104,1.20358209 L18.8902209,24.462806 L7.87744478,24.462806 L7.87744478,23.590209 C9.22613373,22.2740919 9.25253731,20.1137373 7.9364203,18.7650484 C6.62030328,17.4163594 4.45994866,17.3899558 3.1112597,18.7060728 C1.76257075,20.0221899 1.73616716,22.1825445 3.05228418,23.5312334 L3.1112597,23.590209 L3.1112597,23.590209 L3.1112597,24.462806 L1.23968955,24.462806 L1.23968955,1.20358209 L18.9203104,1.20358209 Z M5.46070283,18.9098046 C6.70334352,18.9098046 7.71070283,19.9171639 7.71070283,21.1598046 C7.71070283,22.4024453 6.70334352,23.4098046 5.46070283,23.4098046 C4.21806215,23.4098046 3.21070283,22.4024453 3.21070283,21.1598046 C3.21070283,19.9171639 4.21806215,18.9098046 5.46070283,18.9098046 Z" id="Shape"></path>
                <path d="M15.3095642,4.76016716 L4.85043582,4.76016716 C4.51809672,4.76016716 4.24864478,5.0296191 4.24864478,5.36195821 C4.24864478,5.69429731 4.51809672,5.96374925 4.85043582,5.96374925 L15.3095642,5.96374925 C15.6419033,5.96374925 15.9113552,5.69429731 15.9113552,5.36195821 C15.9113552,5.0296191 15.6419785,4.76016716 15.3095642,4.76016716 Z" id="Shape"></path>
                <path d="M15.3095642,8.22046567 L4.85043582,8.22046567 C4.51809672,8.22046567 4.24864478,8.48991761 4.24864478,8.82225672 C4.24864478,9.15459582 4.51809672,9.42404776 4.85043582,9.42404776 L15.3095642,9.42404776 C15.6419033,9.42404776 15.9113552,9.15459582 15.9113552,8.82225672 C15.9113552,8.48991761 15.6419785,8.22046567 15.3095642,8.22046567 Z" id="Shape"></path>
                <path d="M15.3095642,11.6807642 L4.85043582,11.6807642 C4.51809672,11.6807642 4.24864478,11.9502161 4.24864478,12.2825552 C4.24864478,12.6148943 4.51809672,12.8843463 4.85043582,12.8843463 L15.3095642,12.8843463 C15.6419033,12.8843463 15.9113552,12.6148943 15.9113552,12.2825552 C15.9113552,11.9502161 15.6419785,11.6807642 15.3095642,11.6807642 Z" id="Shape"></path>
                <path d="M15.3095642,15.1410627 L4.85043582,15.1410627 C4.51809672,15.1410627 4.24864478,15.4105146 4.24864478,15.7428537 C4.24864478,16.0751928 4.51809672,16.3446448 4.85043582,16.3446448 L15.3095642,16.3446448 C15.6419033,16.3446448 15.9113552,16.0751928 15.9113552,15.7428537 C15.9113552,15.4105146 15.6419785,15.1410627 15.3095642,15.1410627 Z" id="Shape"></path>
                <path d="M15.3095642,18.6013612 L10.5313433,18.6013612 C10.1990042,18.6013612 9.92955224,18.8708131 9.92955224,19.2031522 C9.92955224,19.5354913 10.1990042,19.8049433 10.5313433,19.8049433 L15.3095642,19.8049433 C15.6419033,19.8049433 15.9113552,19.5354913 15.9113552,19.2031522 C15.9113552,18.8708131 15.6419785,18.6013612 15.3095642,18.6013612 Z" id="Shape"></path>
            </g>
        </g>
    </g>
</svg>