<svg height="100" width="100" xmlns="http://www.w3.org/2000/svg"><g fill="#fff"><path d="M58.344 49.37c4.936 4.936 12.968 4.936 17.904 0s4.936-12.968 0-17.904l-8.478-8.479c-4.937-4.936-12.969-4.936-17.905 0s-4.936 12.968 0 17.904l1.824 1.824L25.773 68.63a1.03 1.03 0 0 0 0 1.456l3.376 3.376a1.03 1.03 0 0 0 1.456 0l.437-.437 6.405 6.405a1.03 1.03 0 0 0 1.455 0l4.465-4.464a1.03 1.03 0 0 0 0-1.456l-2.698-2.698 2.96-2.96a1.03 1.03 0 0 0 0-1.456l-2.98-2.98 15.871-15.87zM51.32 24.443c4.133-4.134 10.86-4.134 14.993 0l8.478 8.478c4.134 4.134 4.134 10.86 0 14.993-4.133 4.134-10.859 4.134-14.993 0l-8.478-8.478c-4.134-4.134-4.134-10.86 0-14.993zm-9.876 42.68l-2.96 2.96a1.03 1.03 0 0 0 0 1.457l2.698 2.698-3.009 3.008-5.677-5.677 6.697-6.696zm-11.568 4.155l-1.92-1.92 25.187-25.187 1.92 1.92z"/><path d="M72.009 45.13a6.673 6.673 0 0 0 0-9.425l-8.479-8.479a6.673 6.673 0 0 0-9.426 0 6.673 6.673 0 0 0 0 9.426l8.48 8.479a6.673 6.673 0 0 0 9.425 0zM55.56 28.683a4.611 4.611 0 0 1 6.514 0l8.48 8.479a4.611 4.611 0 0 1 0 6.514 4.611 4.611 0 0 1-6.515 0l-8.479-8.479a4.611 4.611 0 0 1 0-6.514z"/></g></svg>