<?xml version="1.0" encoding="UTF-8"?>
<svg width="100px" height="100px" viewBox="0 0 100 100" version="1.1" xmlns="http://www.w3.org/2000/svg" xmlns:xlink="http://www.w3.org/1999/xlink">
    <!-- Generator: Sketch 64 (93537) - https://sketch.com -->
    <title>maleta</title>
    <desc>Created with Sketch.</desc>
    <g id="maleta" stroke="none" stroke-width="1" fill="none" fill-rule="evenodd">
        <g id="bag" transform="translate(29.000000, 31.000000)" fill="#A40000" fill-rule="nonzero">
            <path d="M38.0017963,5.91986734 L28.8955072,5.91986734 L28.8955072,4.19472162 C28.8955072,1.99162363 27.1445502,0.199218633 24.9922963,0.199218633 L18.5439017,0.199218633 C16.3916478,0.199218633 14.6406908,1.99162363 14.6406908,4.19472162 L14.6406908,5.91978337 L4.46331972,5.91978337 C2.130433,5.91986734 0.232558,7.86257707 0.232558,10.2504911 L0.232558,31.8685109 C0.232558,34.2564249 2.130433,36.1992186 4.46331972,36.1992186 L38.0017963,36.1992186 C40.334601,36.1992186 42.232558,34.2564249 42.232558,31.8685109 L42.232558,10.2504911 C42.232558,7.86257707 40.334601,5.91986734 38.0017963,5.91986734 Z M17.1026947,4.19472162 C17.1026947,3.38122871 17.749183,2.71938405 18.5439017,2.71938405 L24.9922963,2.71938405 C25.787015,2.71938405 26.4335033,3.38122871 26.4335033,4.19472162 L26.4335033,5.91978337 L17.1026947,5.91978337 L17.1026947,4.19472162 Z M6.04496425,33.6788853 L4.46331972,33.6788853 C3.48796816,33.6788853 2.69456191,32.8667359 2.69456191,31.8684269 L2.69456191,10.2504911 C2.69456191,9.25218216 3.48796816,8.43994879 4.46331972,8.43994879 L6.04496425,8.43994879 L6.04496425,33.6788853 Z M34.1306596,33.6789692 L8.50696816,33.6789692 L8.50696816,8.43994879 L34.1306596,8.43994879 L34.1306596,33.6789692 L34.1306596,33.6789692 Z M39.7705541,31.8684269 C39.7705541,32.8667359 38.9770658,33.6789692 38.0017963,33.6789692 L36.5925814,33.6789692 L36.5925814,8.43994879 L38.0017963,8.43994879 C38.9770658,8.43994879 39.7705541,9.25218216 39.7705541,10.2504911 L39.7705541,31.8684269 Z" id="Shape"></path>
        </g>
    </g>
</svg>