<svg width="52" height="52" xmlns="http://www.w3.org/2000/svg"><g stroke="#F03E31" fill="none" fill-rule="evenodd"><circle cx="25" cy="25" r="25" transform="translate(1 1)" stroke-width="1.3"/><path d="M37.326 18.16h-3.468l.017-.516c.01-.332.016-.654.016-.97a.174.174 0 0 0-.173-.174H19.283a.174.174 0 0 0-.174.174c0 .318.005.641.016.97l.017.516h-3.468a.174.174 0 0 0-.174.174c0 2.924.762 5.676 2.138 7.744 1.332 2.002 3.081 3.137 4.954 3.246l.202.012.137.149c.43.47.884.85 1.353 1.138l.238.146v3.775h-1.63c-1.091 0-1.979.887-1.979 1.978v1.63h-.548a.174.174 0 0 0 0 .348h12.27a.174.174 0 1 0 0-.348h-.548v-1.63c0-1.09-.888-1.978-1.978-1.978h-1.63v-3.775l.237-.146a6.422 6.422 0 0 0 1.353-1.138l.137-.15.202-.01c1.873-.11 3.621-1.244 4.954-3.247 1.376-2.068 2.138-4.82 2.138-7.744a.174.174 0 0 0-.174-.174zm-19.398 7.725c-1.233-1.852-1.956-4.262-2.066-6.856l-.022-.521h3.323l.036.46c.24 3.027.949 5.804 2.042 7.99.172.344.353.671.542.983l.757 1.241-1.36-.513c-1.232-.465-2.348-1.424-3.252-2.784zm17.144 0c-.904 1.36-2.02 2.319-3.252 2.784l-1.361.514.758-1.243c.189-.31.37-.637.542-.981 1.093-2.187 1.803-4.963 2.042-7.99l.036-.461h3.323l-.022.52c-.11 2.595-.833 5.005-2.066 6.857z" fill-rule="nonzero"/></g></svg>