<svg height="100" width="100" xmlns="http://www.w3.org/2000/svg"><g fill="#a40000" stroke="#a40000" stroke-width=".6"><path d="M53.065 64.82H29.813c-4.308 0-7.813-3.504-7.813-7.812 0-4.247 3.408-7.715 7.633-7.81a12.181 12.181 0 0 1 11.728-8.822c4.533 0 8.615 2.457 10.756 6.441a8.51 8.51 0 0 1 .947-.056c4.978 0 9.03 4.05 9.03 9.027.001 4.98-4.05 9.031-9.029 9.031zM29.813 50.41c-3.639 0-6.6 2.96-6.6 6.598a6.606 6.606 0 0 0 6.6 6.597h23.252c4.31 0 7.817-3.507 7.817-7.817 0-4.31-3.507-7.814-7.817-7.814a7.93 7.93 0 0 0-1.202.1.607.607 0 0 1-.633-.33c-1.872-3.795-5.655-6.154-9.87-6.154a10.974 10.974 0 0 0-10.677 8.373c-.068.276-.314.447-.604.46z"/><path d="M53.065 64.82a.607.607 0 0 1 0-1.213c4.31 0 7.817-3.508 7.817-7.818 0-4.309-3.507-7.814-7.817-7.814-2.26 0-4.406.976-5.89 2.678a.608.608 0 0 1-.915-.798 9.027 9.027 0 0 1 6.805-3.093c4.978 0 9.03 4.05 9.03 9.027 0 4.978-4.05 9.03-9.03 9.03z"/><path d="M64.713 53.875a.605.605 0 0 1-.428-1.037 9.456 9.456 0 0 0 2.804-6.748c0-5.251-4.272-9.524-9.524-9.524a9.527 9.527 0 0 0-7.2 3.29.608.608 0 0 1-.917-.795 10.742 10.742 0 0 1 8.117-3.709c5.92 0 10.737 4.816 10.737 10.737 0 2.876-1.122 5.579-3.16 7.607a.604.604 0 0 1-.43.179zM57.565 31.907a.607.607 0 0 1-.606-.607V26.75a.607.607 0 0 1 1.212 0V31.3a.607.607 0 0 1-.606.607zM76.909 46.696h-4.552a.607.607 0 0 1 0-1.212h4.552a.607.607 0 0 1 0 1.212zM68.024 36.237a.607.607 0 0 1-.43-1.034l3.22-3.217a.607.607 0 0 1 .857.857l-3.22 3.217a.604.604 0 0 1-.427.177zM71.241 60.374a.61.61 0 0 1-.43-.177l-3.217-3.216a.607.607 0 0 1 .858-.858l3.217 3.216a.607.607 0 0 1-.428 1.035zM47.104 36.237a.61.61 0 0 1-.43-.177l-3.216-3.217a.607.607 0 0 1 .857-.857l3.217 3.217a.607.607 0 0 1-.428 1.034z"/></g></svg>