<?xml version="1.0" encoding="UTF-8"?>
<svg width="14px" height="13px" viewBox="0 0 14 13" version="1.1" xmlns="http://www.w3.org/2000/svg" xmlns:xlink="http://www.w3.org/1999/xlink">
    <!-- Generator: Sketch 64 (93537) - https://sketch.com -->
    <title>201272 copy</title>
    <desc>Created with Sketch.</desc>
    <g id="Page-1" stroke="none" stroke-width="1" fill="none" fill-rule="evenodd">
        <g id="201272-copy" fill="#F03E31" fill-rule="nonzero">
            <path d="M1.77334354,0.657943542 C3.0283175,0.23963875 4.70338375,0.00923 6.48984104,0.00923 C8.27629833,0.00923 9.951305,0.23963875 11.2063385,0.657943542 C12.3173592,1.02828375 12.980611,1.51370917 12.980611,1.95644313 C12.980611,2.39917708 12.3173592,2.8846025 11.2063385,3.25494271 C9.95127521,3.6732475 8.27629833,3.90365625 6.48984104,3.90365625 C4.70338375,3.90365625 3.02828771,3.6732475 1.77334354,3.25494271 C0.662322917,2.8846025 -0.000928958333,2.39917708 -0.000928958333,1.95644313 C-0.000928958333,1.51370917 0.662352708,1.02828375 1.77334354,0.657943542 Z M12.9806408,3.08933083 L12.9806408,3.90368604 C12.9806408,4.27873333 12.5033187,4.68413833 11.6824987,5.02453792 L11.6824987,3.77427104 C12.2056106,3.58068479 12.6494171,3.35197417 12.9806408,3.08933083 Z M11.0333979,3.98552375 L11.0333979,5.25706187 C10.6360367,5.38045896 10.2004229,5.48583208 9.73525583,5.57207896 L9.73525583,4.28031229 C10.1926175,4.19960667 10.6290058,4.10120479 11.0333979,3.98552375 Z M9.08618479,4.38136563 L9.08618479,5.67769042 C8.66984625,5.7360225 8.23548375,5.78023333 7.78804271,5.80928021 L7.78804271,4.5105125 C8.2277975,4.48188271 8.66314313,4.43871458 9.08618479,4.38136563 Z M7.13894187,4.54218104 L7.13894187,5.84056146 C6.92459083,5.84735396 6.70809479,5.85089917 6.48987083,5.85089917 C6.27164687,5.85089917 6.05512104,5.84735396 5.84079979,5.84056146 L5.84079979,4.54215125 C6.05738521,4.54918208 6.27403021,4.55272729 6.48987083,4.55272729 C6.70568167,4.55275708 6.92235646,4.54921188 7.13894187,4.54218104 Z M5.19169896,4.5105125 L5.19169896,5.80931 C4.74425792,5.78023333 4.30986562,5.73605229 3.89352708,5.67772021 L3.89352708,4.38139542 C4.31656875,4.43871458 4.75191437,4.48188271 5.19169896,4.5105125 Z M3.24445604,4.28034208 L3.24445604,5.57210875 C2.77928896,5.48583208 2.34364542,5.38048875 1.94631396,5.25709167 L1.94631396,3.98552375 C2.35070604,4.10120479 2.78712417,4.19963646 3.24445604,4.28034208 Z M-0.000928958333,3.90368604 L-0.000928958333,3.08933083 C0.330294792,3.35197417 0.77410125,3.58068479 1.29721313,3.77427104 L1.29721313,5.02453792 C0.476393125,4.68413833 -0.000928958333,4.27873333 -0.000928958333,3.90368604 Z M0.9726925,6.65920667 C1.30391625,6.92185 1.74772271,7.15056063 2.27083458,7.34414688 L2.27083458,8.59444354 C1.45001458,8.25404396 0.9726925,7.84863896 0.9726925,7.47359167 L0.9726925,6.65920667 Z M1.62176354,12.1644088 C0.800943542,11.8240092 0.323621458,11.4186042 0.323621458,11.0435569 L0.323621458,10.2292017 C0.654845208,10.491845 1.09865167,10.7205556 1.62176354,10.9141419 L1.62176354,12.1644088 Z M3.56900646,12.7119796 C3.10383938,12.6257029 2.66819583,12.5203596 2.27086438,12.3969625 L2.27086438,11.1253946 C2.67525646,11.2410458 3.11167458,11.3394775 3.56900646,11.4202129 L3.56900646,12.7119796 Z M5.51624937,12.949151 C5.06880833,12.9200744 4.63441604,12.8758635 4.2180775,12.8175613 L4.2180775,11.5212365 C4.64111917,11.5785556 5.07646479,11.6217238 5.51624937,11.6503833 L5.51624937,12.949151 L5.51624937,12.949151 Z M7.4634625,12.9804323 C7.24911146,12.9872248 7.03261542,12.99077 6.81439146,12.99077 C6.5961675,12.99077 6.37964167,12.9872248 6.16532042,12.9804323 L6.16532042,11.6820519 C6.38190583,11.6890827 6.59855083,11.6926279 6.81439146,11.6926279 C7.03023208,11.6926279 7.24687708,11.6890827 7.4634625,11.6820519 L7.4634625,12.9804323 Z M9.41070542,12.8175613 C8.99436688,12.8758933 8.56000438,12.9201042 8.11256333,12.949151 L8.11256333,11.6503833 C8.55234792,11.6217535 8.98769354,11.5785854 9.41070542,11.5212663 L9.41070542,12.8175613 Z M11.3579483,12.3969327 C10.9605871,12.5203298 10.5249733,12.6257029 10.0598062,12.7119498 L10.0598062,11.4201831 C10.5171679,11.3394775 10.953586,11.2410458 11.3579483,11.1253946 L11.3579483,12.3969327 Z M13.3051912,11.0435569 C13.3051912,11.4186042 12.8278692,11.8240092 12.0070492,12.1644088 L12.0070492,10.9141419 C12.5301908,10.7205258 12.9739973,10.491845 13.3051912,10.2292017 L13.3051912,11.0435569 Z M11.5309188,10.3948135 C10.2758554,10.8131183 8.60087854,11.0435271 6.81442125,11.0435271 C5.02796396,11.0435271 3.35286792,10.8131183 2.09792375,10.3948135 C0.986903125,10.0244733 0.32365125,9.53904792 0.32365125,9.09631396 C0.32365125,8.84228042 0.543603125,8.60999479 0.777586875,8.43467083 C1.86453583,9.50285104 4.73150708,10.0699354 7.46352208,10.0699354 C9.64826417,10.0699354 11.9192531,9.70725167 13.2974156,9.0157275 C13.3022121,9.04265917 13.305221,9.06950146 13.305221,9.09631396 C13.305221,9.53907771 12.6419096,10.0244733 11.5309188,10.3948135 Z M2.91993542,8.82702708 L2.91993542,7.55542937 C3.3243275,7.67108063 3.76074562,7.76951229 4.2180775,7.85021792 L4.2180775,9.14204417 C3.75291042,9.05579729 3.31726687,8.95042417 2.91993542,8.82702708 Z M4.86717833,9.24765563 L4.86717833,7.95127125 C5.29022,8.00859042 5.72556562,8.05175854 6.16532042,8.08041813 L6.16532042,9.37924542 C5.71787937,9.35016875 5.28348708,9.30595792 4.86717833,9.24765563 Z M6.81439146,9.41049687 L6.81439146,8.11205687 C7.03097687,8.11908771 7.24762187,8.12263292 7.4634625,8.12263292 C7.67930312,8.12263292 7.89594812,8.11908771 8.11253354,8.11205687 L8.11253354,9.41049687 C7.8981825,9.41728937 7.68168646,9.42083458 7.4634625,9.42083458 C7.24523854,9.42083458 7.0287425,9.41728937 6.81439146,9.41049687 Z M8.76163438,9.37921563 L8.76163438,8.08038833 C9.20141896,8.05175854 9.63676458,8.00859042 10.0597765,7.95124146 L10.0597765,9.24762583 C9.64346771,9.30595792 9.20907542,9.35016875 8.76163438,9.37921563 Z M10.7088773,9.14204417 L10.7088773,7.85021792 C11.166239,7.76951229 11.6026571,7.67108063 12.0070194,7.55542937 L12.0070194,8.82702708 C11.6096581,8.95042417 11.1740444,9.05579729 10.7088773,9.14204417 Z M13.9542623,7.47362146 C13.9542623,7.84866875 13.4769402,8.25407375 12.6561202,8.59447333 L12.6561202,7.34417667 C13.1792619,7.15056063 13.6230683,6.92187979 13.9542623,6.65923646 L13.9542623,7.47362146 Z M12.1799898,6.82484833 C10.9250158,7.24318292 9.24994958,7.47356187 7.46349229,7.47356187 C5.677035,7.47356187 4.00193896,7.24318292 2.74699479,6.82484833 C1.69320396,6.47360458 1.04335833,6.01883479 0.979097708,5.59513771 C2.37272208,6.18942187 4.46817854,6.5 6.48987083,6.5 C9.334975,6.5 12.3264456,5.88504042 13.3014673,4.72954083 C13.7240025,4.99197562 13.9542623,5.27106396 13.9542623,5.52634875 C13.9542623,5.96908271 13.2909806,6.45450812 12.1799898,6.82484833 Z" id="Shape"></path>
        </g>
    </g>
</svg>