<?xml version="1.0" encoding="UTF-8"?>
<svg width="52px" height="52px" viewBox="0 0 52 52" version="1.1" xmlns="http://www.w3.org/2000/svg" xmlns:xlink="http://www.w3.org/1999/xlink">
    <!-- Generator: Sketch 64 (93537) - https://sketch.com -->
    <title>Group 38</title>
    <desc>Created with Sketch.</desc>
    <g id="Page-1" stroke="none" stroke-width="1" fill="none" fill-rule="evenodd">
        <g id="Group-38" transform="translate(1.000000, 1.000000)">
            <circle id="Oval-Copy-4" stroke="#F03E31" stroke-width="1.3" cx="25" cy="25" r="25"></circle>
            <g id="201272" transform="translate(15.000000, 16.000000)" fill="#F03E31" fill-rule="nonzero">
                <path d="M19.9325833,6.716625 C19.9579583,6.60341667 19.971625,6.4875 19.971625,6.36879167 L19.971625,3.645375 C19.971625,1.28683333 14.8266667,0.0141666667 9.98579167,0.0141666667 C5.14491667,0.0141666667 0,1.28683333 0,3.645375 C0,3.747125 0.0102083333,3.84666667 0.0289166667,3.94433333 C0.0112083333,3.992875 0,4.044625 0,4.09929167 L0,6.36879167 C0,7.12329167 0.527166667,7.76645833 1.40183333,8.292625 C1.37566667,8.40695833 1.36170833,8.52241667 1.36170833,8.63825 C1.36170833,8.74 1.37191667,8.83954167 1.390625,8.93725 C1.372875,8.98579167 1.36170833,9.03754167 1.36170833,9.09220833 L1.36170833,11.3617083 C1.36170833,11.5700833 1.40266667,11.7697917 1.47920833,11.9610833 C0.641625,12.58175 0.453916667,13.2030417 0.453916667,13.6312083 C0.453916667,13.7329583 0.464125,13.8325 0.482833333,13.9301667 C0.465083333,13.9787083 0.453916667,14.0304167 0.453916667,14.085125 L0.453916667,16.354625 C0.453916667,18.7131667 5.598875,19.9858333 10.43975,19.9858333 C15.280625,19.9858333 20.4255833,18.7131667 20.4255833,16.354625 L20.4255833,13.6312083 C20.4255833,13.4297083 20.3852917,13.2307083 20.3071667,13.0364167 C20.9546667,12.5604167 21.3333333,12.0010417 21.3333333,11.3617083 L21.3333333,8.63829167 L21.3333333,8.63825 C21.3333333,8.13841667 21.0827917,7.41229167 19.9325833,6.716625 Z M3.38929167,1.82929167 C5.1445,1.24425 7.48725,0.922 9.98579167,0.922 C12.4843333,0.922 14.827,1.24425 16.5822917,1.82929167 C18.1361667,2.34725 19.0637917,3.02616667 19.0637917,3.645375 C19.0637917,4.26458333 18.1361667,4.9435 16.5822917,5.46145833 C14.8269583,6.0465 12.4843333,6.36875 9.98579167,6.36875 C7.48725,6.36875 5.14445833,6.0465 3.38929167,5.46145833 C1.83541667,4.9435 0.907791667,4.26458333 0.907791667,3.645375 C0.907791667,3.02616667 1.83545833,2.34725 3.38929167,1.82929167 Z M19.0638333,5.22983333 L19.0638333,6.36879167 C19.0638333,6.89333333 18.39625,7.46033333 17.24825,7.93641667 L17.24825,6.18779167 C17.979875,5.91704167 18.6005833,5.59716667 19.0638333,5.22983333 Z M16.3404167,6.48325 L16.3404167,8.261625 C15.7846667,8.43420833 15.1754167,8.58158333 14.5248333,8.70220833 L14.5248333,6.89554167 C15.1645,6.78266667 15.7748333,6.64504167 16.3404167,6.48325 Z M13.6170417,7.036875 L13.6170417,8.84991667 C13.03475,8.9315 12.42725,8.99333333 11.8014583,9.03395833 L11.8014583,7.2175 C12.4165,7.17745833 13.025375,7.11708333 13.6170417,7.036875 Z M10.893625,7.26179167 L10.893625,9.07770833 C10.5938333,9.08720833 10.2910417,9.09216667 9.98583333,9.09216667 C9.680625,9.09216667 9.37779167,9.08720833 9.07804167,9.07770833 L9.07804167,7.26175 C9.38095833,7.27158333 9.68395833,7.27654167 9.98583333,7.27654167 C10.2876667,7.27658333 10.5907083,7.271625 10.893625,7.26179167 Z M8.17020833,7.2175 L8.17020833,9.034 C7.54441667,8.99333333 6.936875,8.93154167 6.35458333,8.84995833 L6.35458333,7.03691667 C6.94625,7.11708333 7.555125,7.17745833 8.17020833,7.2175 Z M5.44679167,6.89558333 L5.44679167,8.70225 C4.79620833,8.58158333 4.18691667,8.43425 3.63120833,8.26166667 L3.63120833,6.48325 C4.19679167,6.64504167 4.80716667,6.78270833 5.44679167,6.89558333 Z M0.907791667,6.36879167 L0.907791667,5.22983333 C1.37104167,5.59716667 1.99175,5.91704167 2.723375,6.18779167 L2.723375,7.93641667 C1.575375,7.46033333 0.907791667,6.89333333 0.907791667,6.36879167 Z M2.2695,10.2226667 C2.73275,10.59 3.35345833,10.909875 4.08508333,11.180625 L4.08508333,12.9292917 C2.93708333,12.4532083 2.2695,11.8862083 2.2695,11.3616667 L2.2695,10.2226667 Z M3.17729167,17.92225 C2.02929167,17.4461667 1.36170833,16.8791667 1.36170833,16.354625 L1.36170833,15.2156667 C1.82495833,15.583 2.44566667,15.902875 3.17729167,16.173625 L3.17729167,17.92225 Z M5.90070833,18.6880833 C5.250125,18.5674167 4.64083333,18.4200833 4.085125,18.2475 L4.085125,16.4690833 C4.65070833,16.6308333 5.26108333,16.7685 5.90070833,16.8814167 L5.90070833,18.6880833 Z M8.624125,19.0197917 C7.99833333,18.979125 7.39079167,18.9172917 6.8085,18.83575 L6.8085,17.0227083 C7.40016667,17.102875 8.00904167,17.16325 8.624125,17.2033333 L8.624125,19.0197917 L8.624125,19.0197917 Z M11.3475,19.0635417 C11.0477083,19.0730417 10.7449167,19.078 10.4397083,19.078 C10.1345,19.078 9.83166667,19.0730417 9.53191667,19.0635417 L9.53191667,17.247625 C9.83483333,17.2574583 10.1378333,17.2624167 10.4397083,17.2624167 C10.7415833,17.2624167 11.0445833,17.2574583 11.3475,17.247625 L11.3475,19.0635417 Z M14.0709167,18.83575 C13.488625,18.9173333 12.881125,18.9791667 12.2553333,19.0197917 L12.2553333,17.2033333 C12.8704167,17.1632917 13.4792917,17.1029167 14.0709167,17.02275 L14.0709167,18.83575 Z M16.7943333,18.2474583 C16.2385833,18.4200417 15.6293333,18.5674167 14.97875,18.6880417 L14.97875,16.881375 C15.6184167,16.7685 16.2287917,16.6308333 16.7943333,16.4690833 L16.7943333,18.2474583 Z M19.51775,16.354625 C19.51775,16.8791667 18.8501667,17.4461667 17.7021667,17.92225 L17.7021667,16.173625 C18.4338333,15.9028333 19.0545417,15.583 19.51775,15.2156667 L19.51775,16.354625 Z M17.03625,15.4472917 C15.2809167,16.0323333 12.9382917,16.3545833 10.43975,16.3545833 C7.94120833,16.3545833 5.59841667,16.0323333 3.84325,15.4472917 C2.289375,14.9293333 1.36175,14.2504167 1.36175,13.6312083 C1.36175,13.2759167 1.669375,12.9510417 1.996625,12.7058333 C3.51683333,14.1997917 7.52658333,14.9929167 11.3475833,14.9929167 C14.4031667,14.9929167 17.579375,14.4856667 19.506875,13.5185 C19.5135833,13.5561667 19.5177917,13.5937083 19.5177917,13.6312083 C19.5177917,14.2504583 18.5900833,14.9293333 17.03625,15.4472917 Z M4.99291667,13.2545833 L4.99291667,11.476125 C5.5585,11.637875 6.168875,11.7755417 6.8085,11.8884167 L6.8085,13.6951667 C6.15791667,13.5745417 5.548625,13.4271667 4.99291667,13.2545833 Z M7.71633333,13.842875 L7.71633333,12.02975 C8.308,12.1099167 8.916875,12.1702917 9.53191667,12.210375 L9.53191667,14.0269167 C8.906125,13.98625 8.29858333,13.9244167 7.71633333,13.842875 Z M10.4397083,14.070625 L10.4397083,12.254625 C10.742625,12.2644583 11.045625,12.2694167 11.3475,12.2694167 C11.649375,12.2694167 11.952375,12.2644583 12.2552917,12.254625 L12.2552917,14.070625 C11.9555,14.080125 11.6527083,14.0850833 11.3475,14.0850833 C11.0422917,14.0850833 10.7395,14.080125 10.4397083,14.070625 Z M13.163125,14.026875 L13.163125,12.2103333 C13.7782083,12.1702917 14.3870833,12.1099167 14.9787083,12.0297083 L14.9787083,13.8428333 C14.3964583,13.9244167 13.7889167,13.98625 13.163125,14.026875 Z M15.8865417,13.6951667 L15.8865417,11.8884167 C16.5262083,11.7755417 17.1365833,11.637875 17.702125,11.476125 L17.702125,13.2545833 C17.146375,13.4271667 16.537125,13.5745417 15.8865417,13.6951667 Z M20.4255417,11.3617083 C20.4255417,11.88625 19.7579583,12.45325 18.6099583,12.9293333 L18.6099583,11.1806667 C19.341625,10.909875 19.9623333,10.5900417 20.4255417,10.2227083 L20.4255417,11.3617083 Z M17.9440417,10.4543333 C16.1888333,11.0394167 13.8460833,11.361625 11.3475417,11.361625 C8.849,11.361625 6.50620833,11.0394167 4.75104167,10.4543333 C3.27720833,9.96308333 2.36833333,9.32704167 2.27845833,8.73445833 C4.22758333,9.565625 7.15829167,10 9.98583333,10 C13.965,10 18.148875,9.13991667 19.5125417,7.52383333 C20.1035,7.890875 20.4255417,8.28120833 20.4255417,8.63825 C20.4255417,9.25745833 19.497875,9.936375 17.9440417,10.4543333 Z" id="Shape"></path>
            </g>
        </g>
    </g>
</svg>