<svg height="100" width="100" xmlns="http://www.w3.org/2000/svg"><g fill="#fff"><path d="M33.75 58.82A3.755 3.755 0 0 0 30 62.57a3.755 3.755 0 0 0 3.75 3.75 3.755 3.755 0 0 0 3.75-3.75 3.755 3.755 0 0 0-3.75-3.75zm0 5a1.25 1.25 0 1 1 0-2.501 1.25 1.25 0 0 1 0 2.5zM71.25 53.82c-4.825 0-8.75 3.925-8.75 8.75s3.925 8.75 8.75 8.75S80 67.395 80 62.57s-3.925-8.75-8.75-8.75zm0 15A6.259 6.259 0 0 1 65 62.57a6.259 6.259 0 0 1 6.25-6.25 6.259 6.259 0 0 1 6.25 6.25 6.259 6.259 0 0 1-6.25 6.25z"/><path d="M71.25 58.82a3.755 3.755 0 0 0-3.75 3.75 3.755 3.755 0 0 0 3.75 3.75A3.755 3.755 0 0 0 75 62.57a3.755 3.755 0 0 0-3.75-3.75zm0 5a1.25 1.25 0 1 1 0-2.501 1.25 1.25 0 0 1 0 2.5zM53.75 58.82h-30c-.69 0-1.25-.56-1.25-1.25 0-1.978.645-3.863 1.815-5.303 1.86-2.287 4.192-3.447 6.935-3.447a1.25 1.25 0 0 0 0-2.5c-3.48 0-6.55 1.512-8.875 4.372C20.842 52.575 20 55.017 20 57.57a3.755 3.755 0 0 0 3.75 3.75h30a1.25 1.25 0 0 0 0-2.5z"/><path d="M46.25 41.32h-17.5c-2.068 0-3.75 1.682-3.75 3.75s1.682 3.75 3.75 3.75h17.5c2.068 0 3.75-1.683 3.75-3.75s-1.682-3.75-3.75-3.75zm0 5h-17.5a1.25 1.25 0 0 1 0-2.5h17.5a1.25 1.25 0 0 1 0 2.5z"/><path d="M47.133 46.685a1.25 1.25 0 0 0-1.768 0c-1.727 1.725-2.578 9.862-2.863 13.28a1.252 1.252 0 0 0 1.143 1.35c.035.005.07.005.105.005.645 0 1.192-.493 1.245-1.148.415-4.977 1.375-10.875 2.137-11.72a1.25 1.25 0 0 0 0-1.767zM71.25 48.822c-2.705 0-3.783-2.812-3.853-2.992l-6.605-15.413a3.892 3.892 0 0 0-4.552-2.257c-1.055.262-1.96.962-2.483 1.915s-.627 2.092-.282 3.125l3.942 11.82-6.07 14.567A1.25 1.25 0 0 0 52.5 61.32c.49 0 .952-.288 1.157-.765l6.25-15c.118-.28.13-.59.033-.878l-4.088-12.265c-.127-.38-.09-.782.103-1.132a1.4 1.4 0 0 1 .897-.695c.68-.16 1.373.175 1.648.817l6.577 15.345c.068.188 1.703 4.575 6.175 4.575 2.608 0 5.115 1.313 5.963 2.123-1.123.272-3.568.442-5.93.377A1.24 1.24 0 0 0 70 55.037a1.25 1.25 0 0 0 1.215 1.285c2.52.078 6.95.003 8.24-1.252.352-.343.545-.785.545-1.248 0-2.575-4.93-5-8.75-5z"/><path d="M63.75 58.82h-1.925c-.43 0-.815-.208-1.053-.573a1.233 1.233 0 0 1-.1-1.19 10.98 10.98 0 0 1 1.386-2.285c1.752-2.265 1.715-5.422-.093-7.682l-2.24-2.803a1.25 1.25 0 0 0-1.952 1.563l2.24 2.802c1.085 1.355 1.112 3.24.07 4.588a13.562 13.562 0 0 0-1.698 2.807 3.743 3.743 0 0 0 .293 3.563 3.745 3.745 0 0 0 3.147 1.71h1.925a1.25 1.25 0 0 0 0-2.5zM67.155 29.207a1.251 1.251 0 0 0-1.15-.362l-3.89.777a3.374 3.374 0 0 0-2.535 4.39 3.372 3.372 0 0 0 3.202 2.308H65c.572 0 1.072-.39 1.213-.947l1.25-5a1.248 1.248 0 0 0-.308-1.166zm-3.13 4.613h-1.243a.88.88 0 0 1-.835-.613.856.856 0 0 1 .073-.715.861.861 0 0 1 .585-.42l1.952-.39zM58.57 33.175a1.249 1.249 0 0 0-1.715-.428l-6.25 3.75a1.251 1.251 0 0 0 .645 2.323c.22 0 .443-.058.643-.18l6.25-3.75c.59-.355.782-1.125.427-1.715zM41.968 59.652a1.245 1.245 0 0 0-1.178-.832H26.707c-.53 0-1.002.332-1.177.832-.358 1.008-.53 1.963-.53 2.918 0 4.825 3.925 8.75 8.75 8.75s8.75-3.925 8.75-8.75c0-.953-.172-1.908-.532-2.918zM33.75 68.82a6.259 6.259 0 0 1-6.25-6.25c0-.408.047-.82.145-1.25h12.21c.097.427.145.842.145 1.25a6.259 6.259 0 0 1-6.25 6.25z"/></g></svg>