<svg height="100" width="100" xmlns="http://www.w3.org/2000/svg"><g fill="#fff" stroke="#fff" stroke-width=".5"><path d="M77.871 75.525l-1.567-7.829a7.984 7.984 0 0 0-4.812-5.837l-9.407-3.856a1.15 1.15 0 0 0-1.279.286c-2.88 3.147-6.56 4.88-10.358 4.88s-7.48-1.733-10.361-4.88a1.152 1.152 0 0 0-1.279-.286l-9.407 3.856a7.992 7.992 0 0 0-4.812 5.837l-1.567 7.83a1.146 1.146 0 0 0 1.123 1.367H76.75a1.142 1.142 0 0 0 1.121-1.368zm-52.331-.92l1.292-6.458a5.71 5.71 0 0 1 3.438-4.17l8.687-3.561c3.234 3.257 7.287 5.04 11.49 5.04s8.257-1.783 11.494-5.042l8.687 3.56a5.713 5.713 0 0 1 3.437 4.17l1.29 6.462zM47.017 42.585H44.73a1.144 1.144 0 0 0 0 2.287h2.287a1.144 1.144 0 0 0 0-2.287zM56.166 42.585h-2.288a1.144 1.144 0 0 0 0 2.287h2.288a1.144 1.144 0 0 0 0-2.287z"/><path d="M64.16 38.374c.006-.121.01-.242.01-.364 0-.953-.104-1.925-.308-2.893a1.146 1.146 0 0 0-1.359-.878 1.142 1.142 0 0 0-.88 1.356c.174.81.26 1.622.26 2.415 0 .259-.031.508-.061.757l-.032.286c-.035.344.087.684.327.927.242.245.588.363.924.331l.034-.004c.325.123 1.096 1.324 1.096 3.421 0 2.21-.764 3.436-1.21 3.38a1.149 1.149 0 0 0-1.034-.088c-.338.14-.59.43-.68.784-1.603 6.455-5.941 10.791-10.8 10.791s-9.196-4.336-10.797-10.79c-.092-.358-.378-.623-.714-.76-.345-.137-.76-.078-1.068.114-.284 0-1.144-1.217-1.144-3.43 0-2.098.771-3.299 1.094-3.422a1.158 1.158 0 0 0 .958-.325c.242-.245.364-.585.327-.926l-.032-.286c-.027-.252-.06-.501-.06-.76 0-.793.087-1.605.261-2.415a1.142 1.142 0 0 0-.878-1.356 1.146 1.146 0 0 0-1.359.878c-.205.968-.31 1.94-.31 2.893 0 .099.002.2.008.298-1.365.745-2.296 2.829-2.296 5.42 0 3.182 1.404 5.6 3.29 5.714 2.078 6.889 7.085 11.44 12.72 11.44s10.643-4.551 12.722-11.44c1.885-.115 3.289-2.532 3.289-5.714 0-2.53-.89-4.576-2.299-5.354z"/><path d="M63.343 34.385a1.143 1.143 0 0 0-1.574.37c-.81 1.309-4.492 3.255-11.321 3.255s-10.512-1.946-11.322-3.254a1.143 1.143 0 1 0-1.944 1.203c1.237 2.001 5.455 4.339 13.266 4.339s12.028-2.338 13.265-4.34a1.141 1.141 0 0 0-.37-1.573z"/><path d="M65.314 28.862c-1.24 0-3.163-1.295-5.198-2.67C57.199 24.228 53.894 22 50.448 22s-6.752 2.228-9.668 4.192c-2.036 1.375-3.96 2.67-5.2 2.67-.63 0-1.143.512-1.143 1.143v2.287c0 1.892 1.54 3.431 3.43 3.431h25.16c1.892 0 3.43-1.54 3.43-3.43v-2.288c0-.631-.511-1.143-1.143-1.143zm-1.143 3.43c0 .632-.515 1.144-1.144 1.144H37.868a1.146 1.146 0 0 1-1.144-1.144v-1.294c1.62-.405 3.37-1.583 5.334-2.907 2.644-1.784 5.643-3.804 8.39-3.804s5.745 2.02 8.39 3.804c1.964 1.324 3.713 2.502 5.333 2.907z"/><path d="M51.591 26.574h-2.287c-.631 0-1.144.513-1.144 1.144v1.144c0 1.26 1.025 2.287 2.288 2.287s2.287-1.027 2.287-2.287v-1.144c0-.631-.513-1.144-1.144-1.144zM65.314 65.457H60.74c-.631 0-1.144.512-1.144 1.143v2.288c0 .304.122.594.334.81l2.287 2.286a1.149 1.149 0 0 0 1.62 0l2.287-2.287c.213-.215.334-.505.334-.81V66.6c0-.63-.512-1.143-1.144-1.143zm-1.143 2.957l-1.144 1.144-1.144-1.144v-.67h2.288v.67zM47.017 63.17c-.631 0-1.144.512-1.144 1.143V75.75a1.144 1.144 0 0 0 2.287 0V64.313c0-.631-.512-1.143-1.143-1.143zM53.878 63.17c-.63 0-1.143.512-1.143 1.143V75.75a1.144 1.144 0 0 0 2.287 0V64.313c0-.631-.512-1.143-1.144-1.143z"/></g></svg>