<svg height="100" width="100" xmlns="http://www.w3.org/2000/svg"><g fill="none" fill-rule="evenodd" stroke="#fff" stroke-width="2.2"><g fill-rule="nonzero" transform="rotate(90 9.146 54.972)"><circle cx="6.625" cy="13.986" r="1.844"/><path d="M3.403 22.45a1.476 1.476 0 1 0-.182 2.946 1.476 1.476 0 0 0 .182-2.946zM3.523 6.256a2.58 2.58 0 1 0 .315-5.152 2.58 2.58 0 0 0-.315 5.152z"/></g><path d="M40.735 60.324c3.905 2.463 11.626 3.698 18.181 2.05 6.139-1.542 10.794-6.189 11.254-12.273.57-7.528-4.457-12.743-10.623-13.406-5.401-.582-7.806 2.657-11.25 2.908-5.208.38-5.508-1.92-10.264-1.92-4.838 0-8.091 3.922-8.091 8.76 0 4.837 3.231 9.11 10.793 13.88z"/><g stroke-linecap="round"><path d="M58.23 30.368v5.889M76.632 49.507h-5.889M30.257 49.507h-5.889M44.243 33.313V39.2M44.243 62.02v5.89M58.23 62.757v5.889M67.189 58.467l4.164 4.164M28.911 34.911l4.164 4.164M36.02 57.73l-4.165 4.165M71.353 36.383l-4.164 4.164"/></g></g></svg>