<svg height="100" width="100" xmlns="http://www.w3.org/2000/svg"><g fill="none" fill-rule="evenodd" stroke="#a40000" stroke-width="2.5" transform="translate(26 25)"><circle cx="24.5" cy="6.682" r="6.682"/><path d="M18.71 16.036h13.008a5 5 0 0 1 4.855 3.805l2.61 10.6 6.739 6.861h.629a2.44 2.44 0 0 1 0 4.88h-2.985l-8.46-8.291-2.142-5.075v13.948H16.036z" stroke-linejoin="round"/><path d="M18.887 16.036h-1.615a5 5 0 0 0-4.855 3.805l-2.61 10.6-6.739 6.861H2.44a2.44 2.44 0 0 0 0 4.88h2.984l8.46-8.291 3.667-5.075z" stroke-linejoin="round"/><path d="M21.382 42.764h24.054a3.564 3.564 0 1 1 0 7.127H21.382zM3.564 42.764h17.818v7.127H3.564a3.564 3.564 0 0 1 0-7.127z"/></g></svg>