<?xml version="1.0" encoding="UTF-8"?>
<svg width="52px" height="52px" viewBox="0 0 52 52" version="1.1" xmlns="http://www.w3.org/2000/svg" xmlns:xlink="http://www.w3.org/1999/xlink">
    <!-- Generator: Sketch 64 (93537) - https://sketch.com -->
    <title>Group 39</title>
    <desc>Created with Sketch.</desc>
    <g id="Page-1" stroke="none" stroke-width="1" fill="none" fill-rule="evenodd">
        <g id="Group-39" transform="translate(1.000000, 1.000000)">
            <circle id="Oval-Copy-3" stroke="#F03E31" stroke-width="1.3" cx="25" cy="25" r="25"></circle>
            <g id="783194" transform="translate(24.153846, 26.000000) scale(-1, 1) translate(-24.153846, -26.000000) translate(9.153846, 19.000000)" fill="#F03E31" fill-rule="nonzero">
                <path d="M28.3897545,5.01359247 C27.8015139,4.60052373 27.0466367,4.4997054 26.3705237,4.74390344 C26.3655974,4.74567921 26.3607283,4.74751227 26.3558592,4.7494599 L20.942545,6.87334697 C20.9574386,6.76800327 20.9656301,6.66117021 20.9656301,6.55319149 C20.9656301,5.2897545 19.9377414,4.26186579 18.6743044,4.26186579 L14.9646481,4.26186579 C14.866293,4.26186579 14.7691408,4.23648936 14.6835025,4.18819967 L11.6570622,2.48597381 C11.0586252,2.14874795 10.3786743,1.9705401 9.6905892,1.9705401 L5.90016367,1.9705401 L5.90016367,1.39770867 C5.90016367,1.08133388 5.64370704,0.82487725 5.32733224,0.82487725 L0.572831424,0.82487725 C0.256456628,0.82487725 0,1.08133388 0,1.39770867 L0,11.7086743 C0,12.0250491 0.256456628,12.2815057 0.572831424,12.2815057 L5.32733224,12.2815057 C5.64370704,12.2815057 5.90016367,12.0250491 5.90016367,11.7086743 L5.90016367,11.1358429 L6.33110475,11.1358429 L11.7963748,13.3481751 C12.8657365,13.7806628 13.9924386,14 15.14509,14 C16.4294354,14 17.6729951,13.7303682 18.8411129,13.1987234 C18.8440344,13.1974059 18.8468985,13.1960884 18.8497627,13.1947136 L27.9586416,8.86387889 C28.7917676,8.52207038 29.3289689,7.72216858 29.3289689,6.82070376 C29.3289689,6.10202946 28.9778805,5.42648936 28.3897545,5.01359247 Z M4.75450082,11.1358429 L1.14566285,11.1358429 L1.14566285,1.9705401 L4.75450082,1.9705401 L4.75450082,11.1358429 Z M27.5149836,7.80746318 C27.5038134,7.81193126 27.4927578,7.81674304 27.4819313,7.82189853 L18.362455,12.1577741 C17.3455646,12.6199918 16.2630851,12.8543372 15.14509,12.8543372 C14.1402864,12.8543372 13.1581669,12.663126 12.2260556,12.2861457 L6.65756137,10.032054 C6.58927987,10.0044435 6.51630115,9.99023732 6.44263502,9.99023732 L5.90016367,9.99023732 L5.90016367,3.11620295 L9.6905892,3.11620295 C10.1820213,3.11620295 10.6675532,3.24342881 11.0950573,3.48430442 L14.1215548,5.18658756 C14.378126,5.33111293 14.6696972,5.40752864 14.9646481,5.40752864 L18.6743044,5.40752864 C19.3060229,5.40752864 19.8199673,5.921473 19.8199673,6.55319149 C19.8199673,6.94987725 19.612144,7.31929624 19.2742308,7.52786416 L19.2700491,7.52952537 C19.2266858,7.54659574 19.1869885,7.5688216 19.1504992,7.59448445 C19.002365,7.66265139 18.8397954,7.69885434 18.6743044,7.69885434 L12.8509002,7.69885434 C11.9033224,7.69885434 11.1324059,8.46977087 11.1324059,9.41734861 C11.1324059,9.7337234 11.3888625,9.99018003 11.7052373,9.99018003 C12.0216121,9.99018003 12.2780687,9.7337234 12.2780687,9.41734861 C12.2780687,9.10148936 12.5350409,8.84451718 12.8509002,8.84451718 L18.6743044,8.84451718 C19.058617,8.84451718 19.4361702,8.74684943 19.7690998,8.56440262 L26.7662357,5.81905074 C27.0945254,5.70282324 27.4460147,5.75082651 27.7314566,5.95120295 C28.018617,6.15283961 28.1833061,6.46972995 28.1833061,6.82070376 C28.1833061,7.25760229 27.9209493,7.6449509 27.5149836,7.80746318 Z" id="Shape"></path>
            </g>
        </g>
    </g>
</svg>