<?xml version="1.0" encoding="UTF-8"?>
<svg width="52px" height="52px" viewBox="0 0 52 52" version="1.1" xmlns="http://www.w3.org/2000/svg" xmlns:xlink="http://www.w3.org/1999/xlink">
    <!-- Generator: Sketch 64 (93537) - https://sketch.com -->
    <title>Group 44</title>
    <desc>Created with Sketch.</desc>
    <g id="Page-1" stroke="none" stroke-width="1" fill="none" fill-rule="evenodd">
        <g id="Group-44" transform="translate(0.046499, 1.000000)">
            <g id="Group-31">
                <circle id="Oval-Copy-11" stroke="#F03E31" stroke-width="1.3" cx="25.9535011" cy="25" r="25"></circle>
                <path d="M31.1172867,24.0637856 C30.7796499,24.4889497 30.6868217,24.645733 30.2511543,25 C32.7315675,26.5673674 34.5511545,29.3440372 34.5511545,32.4106674 C34.5511545,34.4085405 30.4997812,35.7233674 25.8650438,35.7233674 C21.2303063,35.7233674 17.1815979,34.4085405 17.1815979,32.4106674 C17.1815979,29.3440372 18.8120521,26.426477 21.2988683,25 C20.8632556,24.645733 20.9504923,24.4890044 20.6128009,24.0637856 C17.8434354,25.8126368 16,28.9002188 16,32.4106674 C16,33.47407 16.5822757,34.9560722 19.3564004,35.9774617 C21.0868162,36.6146061 23.3983042,36.9654267 25.8650985,36.9654267 C28.3318928,36.9654267 30.6433807,36.6146061 32.3737965,35.9774617 C35.1478665,34.9560722 35.7301969,33.47407 35.7301969,32.4106674 C35.7301969,28.9002188 33.8866521,25.8126368 31.1172867,24.0637856 Z" id="Path" fill="#F03E31" fill-rule="nonzero"></path>
                <path d="M25.8649891,25.1178884 C28.9740153,25.1178884 31.3681072,22.1126368 31.3681072,18.5589716 C31.3681072,15.0036652 28.9728118,12 25.8649891,12 C22.7559628,12 20.3618709,15.0052516 20.3618709,18.5589168 C20.3618709,22.1142232 22.757221,25.1178884 25.8649891,25.1178884 Z M25.8649891,13.1406043 C28.3485759,13.1406043 30.2511543,15.5841727 30.2511543,18.5589168 C30.2511543,21.533661 28.3540195,24.0637856 25.8649891,24.0637856 C23.3759586,24.0637856 21.5096252,21.2934354 21.5096252,18.5589168 C21.5096252,15.8243982 23.3814022,13.1406043 25.8649891,13.1406043 Z" id="Shape" fill="#F03E31" fill-rule="nonzero"></path>
            </g>
            <g id="167123" transform="translate(15.953501, 12.000000)"></g>
        </g>
    </g>
</svg>