<svg width="12" height="18" xmlns="http://www.w3.org/2000/svg"><path d="M5.768 0c3.051 0 6.055 1.405 6.055 4.766 0 3.1-3.551 4.291-4.314 5.411-.573.833-.382 2.004-1.955 2.004-1.025 0-1.525-.834-1.525-1.596 0-2.839 4.17-3.481 4.17-5.818 0-1.287-.856-2.05-2.287-2.05-3.051 0-1.86 3.146-4.17 3.146-.835 0-1.55-.5-1.55-1.454C.19 2.072 2.86 0 5.767 0zM5.65 13.728c1.07 0 1.954.881 1.954 1.956a1.963 1.963 0 0 1-1.954 1.955 1.963 1.963 0 0 1-1.956-1.955c0-1.074.883-1.956 1.956-1.956z" fill="#F03E31" fill-rule="nonzero"/></svg>