<svg width="52" height="52" xmlns="http://www.w3.org/2000/svg"><g stroke="#F03E31" fill="none" fill-rule="evenodd"><circle cx="25" cy="25" r="25" transform="translate(1 1)" stroke-width="1.3"/><path d="M26.166 14c4.362 0 8.657 2.01 8.657 6.815 0 4.431-5.078 6.136-6.169 7.737-.818 1.191-.545 2.865-2.795 2.865-1.465 0-2.18-1.192-2.18-2.283 0-4.058 5.962-4.977 5.962-8.318 0-1.84-1.224-2.93-3.27-2.93-4.363 0-2.66 4.497-5.963 4.497-1.193 0-2.217-.716-2.217-2.078 0-3.343 3.816-6.305 7.975-6.305zm-.17 19.63a2.808 2.808 0 0 1 2.795 2.795 2.807 2.807 0 0 1-2.795 2.796 2.806 2.806 0 0 1-2.796-2.796 2.808 2.808 0 0 1 2.796-2.795z"/></g></svg>