<svg width="18" height="21" xmlns="http://www.w3.org/2000/svg"><g fill="#F03E31" fill-rule="nonzero"><path d="M8.775 0a3.973 3.973 0 0 0-3.969 3.97v2.056c0 2.189 1.78 3.97 3.969 3.97a3.973 3.973 0 0 0 3.969-3.97V3.969c0-2.188-1.78-3.969-3.97-3.969zM17.528 15.168a10.067 10.067 0 0 0-5.72-4.521.158.158 0 0 0-.159.038c-1.124 1.11-2.522 1.974-2.871 2.183-.373-.238-1.944-1.262-2.878-2.183a.158.158 0 0 0-.158-.038 10.065 10.065 0 0 0-5.72 4.52.159.159 0 0 0 0 .162c1.804 3.074 5.158 4.983 8.753 4.983 3.595 0 6.949-1.91 8.753-4.983a.158.158 0 0 0 0-.161zm-3.355 1.184c0 .087-.084.154-.171.154h-1.075c-.088 0-.183.076-.183.163v1.112c0 .087-.047.154-.134.154h-.966c-.087 0-.17-.067-.17-.154v-1.112c0-.087-.06-.163-.148-.163h-1.12a.157.157 0 0 1-.161-.154v-.957a.16.16 0 0 1 .16-.159h1.121c.088 0 .148-.071.148-.159v-1.113c0-.087.082-.156.17-.156h.955c.087 0 .145.069.145.156v1.116c0 .088.085.156.172.156h1.086c.087 0 .17.074.17.162v.954z"/></g></svg>