<svg height="100" width="100" xmlns="http://www.w3.org/2000/svg"><path d="M75.844 30.398a11.433 11.433 0 0 0-2.746-5.59l-.008-.009c-.726-.82-1.93-1.947-3.538-2.66l-.036-.017A11.357 11.357 0 0 0 64.565 21c-2.563 0-4.986.827-7.01 2.392-.001.002-.01.01-.013.01-1.74 1.36-2.887 3.3-3.03 3.547l-.018.033a11.484 11.484 0 0 0-1.333 6.68c.039.37.26.696.59.869.208.109.427.2.65.271a10.507 10.507 0 0 0 5.325 6.15 10.363 10.363 0 0 0-2.844 2.14 1.11 1.11 0 1 0 1.617 1.52 8.208 8.208 0 0 1 1.3-1.121c.672 1.903 2.404 3.298 4.373 3.298h.166c1.973 0 3.703-1.495 4.336-3.517 2.343 1.47 3.843 4.087 3.843 6.887v11.53l-10.096 6.55a1.11 1.11 0 1 0 1.209 1.862l10.6-6.878a1.11 1.11 0 0 0 .507-.932V50.16c0-3.93-2.195-7.454-5.663-9.212 3.285-1.639 5.607-4.947 5.835-8.8.313-.284.585-.618.803-.993.133-.228.18-.496.132-.756zM64.338 44.569h-.165c-1.329 0-2.451-1.287-2.451-2.811l-.001-.057a10.545 10.545 0 0 0 4.983.091c-.087 1.5-1.155 2.777-2.366 2.777zm.066-4.742a8.3 8.3 0 0 1-7.614-4.982 4.157 4.157 0 0 0 2.968-3.354c.663.085 1.334.128 2.007.128 2.258 0 4.433-.474 6.38-1.38a4.152 4.152 0 0 0 4.39 2.967c-.783 3.771-4.141 6.62-8.13 6.62zm7.722-8.82a1.927 1.927 0 0 1-1.925-1.925v-.617a1.11 1.11 0 0 0-1.7-.94c-1.953 1.226-4.282 1.874-6.736 1.874-.96 0-1.913-.101-2.833-.3a1.11 1.11 0 0 0-1.345 1.084v.673a1.927 1.927 0 0 1-2.264 1.895 9.258 9.258 0 0 1 1.121-4.71c.01-.016 1.013-1.754 2.462-2.887l.008-.006a9.156 9.156 0 0 1 5.651-1.928c1.398 0 2.74.304 3.99.903l.096.044c1.235.548 2.183 1.436 2.764 2.09l.02.021a9.222 9.222 0 0 1 2.133 4.073 1.93 1.93 0 0 1-1.442.656zM54.95 59.405a8.514 8.514 0 0 0 4.207-7.339 8.46 8.46 0 0 0-1.023-4.042 8.517 8.517 0 0 0-7.486-4.467 8.516 8.516 0 0 0-8.509 8.51 8.513 8.513 0 0 0 4.206 7.337 9.371 9.371 0 0 0-5.084 8.338v4.048c0 .38.194.733.514.936l8.277 5.27a1.11 1.11 0 0 0 1.19.002l8.296-5.242a1.11 1.11 0 0 0 .517-.944l-.02-4.075a9.406 9.406 0 0 0-5.085-8.332zm-4.302-13.628c1.932 0 3.663.876 4.818 2.251a17.597 17.597 0 0 1-4.818.652c-1.682 0-3.322-.223-4.818-.652a6.278 6.278 0 0 1 4.818-2.25zm-6.289 6.29c0-.722.122-1.415.347-2.06 1.831.586 3.864.893 5.942.893 2.078 0 4.11-.307 5.942-.894.225.646.347 1.34.347 2.06a6.296 6.296 0 0 1-6.289 6.289 6.296 6.296 0 0 1-6.289-6.289zm8.26 8.278c-.14 1.05-1.06 1.76-1.894 1.76h-.135c-.882 0-1.863-.747-1.99-1.78a8.501 8.501 0 0 0 4.018.02zm-1.969 15.4l-7.17-4.564v-3.439c0-2.44 1.234-4.67 3.23-5.983.694 1.583 2.329 2.565 3.88 2.565h.135c1.675 0 3.156-1.09 3.796-2.604a7.193 7.193 0 0 1 3.294 6.027l.017 3.461zM42.68 45.952a1.11 1.11 0 0 0-.357-1.529c-.338-.21-.688-.4-1.048-.57a10.48 10.48 0 0 0 3.548-2.962 3.873 3.873 0 0 0 5.134-3.656v-2.758a13.41 13.41 0 0 0-3.772-9.35 13.413 13.413 0 0 0-9.167-4.116h-.001a13.471 13.471 0 0 0-10.082 3.948C24.397 27.49 23 30.87 23 34.478v2.759a3.873 3.873 0 0 0 5.133 3.656 10.47 10.47 0 0 0 3.971 3.165c-3.424 1.802-5.543 5.288-5.543 9.15v9.085c0 .376.19.726.506.93l10.07 6.534a1.11 1.11 0 0 0 1.208-1.862L28.78 61.69v-8.483a8.066 8.066 0 0 1 3.2-6.447c.686 1.993 2.45 3.491 4.401 3.491h.166c2.119 0 3.81-1.917 4.405-4.06.066.039.132.078.197.119a1.11 1.11 0 0 0 1.529-.357zM29.613 30.443a7.956 7.956 0 0 0-1.096 4.034v2.759a1.646 1.646 0 0 1-1.649 1.648 1.65 1.65 0 0 1-1.648-1.648v-2.759c0-6.162 4.826-11.105 10.986-11.254a11.223 11.223 0 0 1 11.53 11.254v2.759a1.65 1.65 0 0 1-2.57 1.365 1.647 1.647 0 0 1-.726-1.366v-2.758c-.001-3.918-2.92-7.303-6.79-7.875a1.108 1.108 0 0 0-1.27 1.011 11.24 11.24 0 0 1-.418 2.284H30.57a1.11 1.11 0 0 0-.957.546zm6.935 17.587h-.166c-1.254 0-2.486-1.523-2.486-3.075 0-.096-.012-.19-.036-.28.843.214 1.72.326 2.618.326.849 0 1.681-.1 2.483-.293-.076 1.614-1.297 3.322-2.413 3.322zm-.07-5.25a8.256 8.256 0 0 1-6.543-3.189 3.85 3.85 0 0 0 .801-2.355v-2.759c0-.817.174-1.623.507-2.36h5.52c.464 0 .88-.29 1.04-.726.278-.75.488-1.525.627-2.313 2.222.809 3.789 2.96 3.789 5.4v2.758c0 .885.3 1.702.802 2.355a8.255 8.255 0 0 1-6.543 3.19z" fill="#a40000"/></svg>