<svg height="100" width="100" xmlns="http://www.w3.org/2000/svg"><g fill="none" fill-rule="evenodd" transform="translate(29 27)"><path d="M37.235 5.761A19.542 19.542 0 0 0 23.325 0 19.542 19.542 0 0 0 9.417 5.761a19.538 19.538 0 0 0-5.76 13.747l-3.58 7.16c-.16.32-.047.708.26.892l3.319 1.992v10.566c0 .378.306.684.685.684h6.617v5.158a.685.685 0 1 0 1.37 0v-5.842a.685.685 0 0 0-.685-.685H5.024v-10.27a.685.685 0 0 0-.332-.586l-3.108-1.865 3.368-6.735a.684.684 0 0 0 .072-.306c0-10.092 8.21-18.302 18.302-18.302 10.091 0 18.301 8.21 18.301 18.302 0 5.67-2.566 10.929-7.04 14.426a.685.685 0 0 0-.262.54v11.322a.685.685 0 1 0 1.369 0V34.967a19.558 19.558 0 0 0 7.302-15.296 19.542 19.542 0 0 0-5.761-13.91z" fill="#fff" fill-rule="nonzero" stroke="#fff" stroke-width="1.5"/><circle cx="23.322" cy="19.678" r="9.238" stroke="#fff" stroke-width="2.5"/><path d="M26.81 17.987h-1.8v-1.8a1 1 0 0 0-1-1h-1.368a1 1 0 0 0-1 1v1.8h-1.8a1 1 0 0 0-1 1v1.368a1 1 0 0 0 1 1h1.8v1.8a1 1 0 0 0 1 1h1.368a1 1 0 0 0 1-1v-1.8h1.8a1 1 0 0 0 1-1v-1.368a1 1 0 0 0-1-1z" fill="#fff" fill-rule="nonzero"/></g></svg>