<svg height="100" width="100" xmlns="http://www.w3.org/2000/svg"><g fill="#fff"><path d="M47.417 43.623h19.178c.835 0 1.512-.671 1.512-1.499s-.677-1.5-1.512-1.5H47.417c-.836 0-1.511.671-1.511 1.5 0 .827.677 1.499 1.511 1.499zM76.231 47.875H47.417c-.836 0-1.511.672-1.511 1.5s.675 1.498 1.511 1.498h28.814c.835 0 1.512-.67 1.512-1.498s-.677-1.5-1.512-1.5zM74.231 53.83H47.417c-.836 0-1.511.671-1.511 1.498 0 .828.675 1.5 1.511 1.5h26.814c.835 0 1.512-.672 1.512-1.5 0-.827-.677-1.498-1.512-1.498zM60.231 59.826H47.417c-.836 0-1.511.671-1.511 1.498 0 .828.675 1.5 1.511 1.5h12.814c.835 0 1.512-.672 1.512-1.5 0-.827-.677-1.498-1.512-1.498z"/><path d="M82.271 26.441H17.729a4.774 4.774 0 0 0-4.768 4.768v37.582a4.774 4.774 0 0 0 4.768 4.768h64.542a4.774 4.774 0 0 0 4.769-4.768V31.209a4.775 4.775 0 0 0-4.769-4.768zM84.039 49v19.791a1.77 1.77 0 0 1-1.768 1.768H17.729a1.77 1.77 0 0 1-1.768-1.768V31.209a1.77 1.77 0 0 1 1.768-1.768h64.542a1.77 1.77 0 0 1 1.769 1.768z"/><path d="M34.657 49.817a6.985 6.985 0 0 0 2.774-5.567c0-3.86-3.14-7-7-7s-7 3.14-7 7a6.984 6.984 0 0 0 2.774 5.567c-2.55 1.2-4.774 3.343-4.774 5.953v5.75c0 .69.56 1.25 1.25 1.25h15.5c.69 0 1.25-.56 1.25-1.25v-5.75c0-2.61-2.224-4.752-4.774-5.953zM30.431 39.75c2.481 0 4.5 2.019 4.5 4.5s-2.019 4.5-4.5 4.5-4.5-2.019-4.5-4.5 2.019-4.5 4.5-4.5zm6.5 20.521h-13v-4.5c0-2.232 3.782-4.5 6.5-4.5s6.5 2.268 6.5 4.5z"/></g></svg>