<svg height="100" width="100" xmlns="http://www.w3.org/2000/svg"><path d="M50.5 44.042a5.397 5.397 0 0 1-5.391-5.391c0-2.972 2.418-5.39 5.391-5.39s5.391 2.418 5.391 5.39a5.397 5.397 0 0 1-5.391 5.391zm5.071 3.261H45.429l-10.476-7.521h7.967l.082.4c.723 3.547 3.876 6.121 7.498 6.121 3.621 0 6.774-2.574 7.496-6.12l.082-.401h7.968zm.32 19.564H45.109V55.769a1.13 1.13 0 0 0-.468-.915l-15.53-11.241a2.136 2.136 0 0 1-.422-2.979c.679-.903 2.028-1.11 3.001-.411l12.716 9.129c.19.136.424.211.658.211h10.87c.238 0 .466-.073.659-.211l12.716-9.129c.962-.722 2.316-.504 3.002.411a2.132 2.132 0 0 1-.415 2.972L56.357 54.853a1.134 1.134 0 0 0-.466.916zM28.263 45.79l14.585 10.556v11.652a1.13 1.13 0 0 0 1.131 1.128h13.042a1.13 1.13 0 0 0 1.129-1.128V56.346L72.736 45.79v5.904a1.132 1.132 0 0 0 2.261 0l.001-9.215c.009-.94.018-2.007-.879-3.201a4.416 4.416 0 0 0-3.515-1.757H58.078l-.082-.4C57.275 33.574 54.122 31 50.5 31c-3.621 0-6.775 2.574-7.498 6.122l-.082.399H30.404a4.417 4.417 0 0 0-3.523 1.757c-.894 1.189-.886 2.267-.88 3.218l.001 9.198a1.132 1.132 0 0 0 2.261 0z" fill="#a40000" fill-rule="evenodd" stroke="#a40000" stroke-width=".3"/></svg>