<svg height="100" width="100" xmlns="http://www.w3.org/2000/svg"><g fill="#a40000" stroke="#a40000" stroke-width=".85"><path d="M74.303 28.752l-3.137-3.136c-2.046-2.046-5.493-2.165-7.685-.266l-5.513 4.78a.888.888 0 0 0-.179.213l-4.651 8.127-3.446 1.148a.885.885 0 0 0-.346 1.466l9.391 9.391a.886.886 0 0 0 1.466-.346l1.15-3.447 8.354-4.665a.886.886 0 0 0 .213-.18l4.666-5.406c1.889-2.189 1.762-5.633-.283-7.679zm-1.058 6.522l-4.574 5.3-8.513 4.76a.885.885 0 0 0-.383.479l-.799 2.397-2.116-2.116-3.131-3.132-2.118-2.117 2.397-.799c.2-.067.37-.203.48-.384l4.747-8.287 5.406-4.686c1.504-1.305 3.87-1.224 5.272.179l3.137 3.137c1.404 1.403 1.491 3.767.195 5.269z"/><path d="M71.793 59.576a9.743 9.743 0 0 0-9.893-2.379L43.083 38.38A9.744 9.744 0 0 0 30.26 26.306a.886.886 0 0 0-.303 1.45l5.632 5.633-3.756 3.756-5.633-5.632a.886.886 0 0 0-1.45.303A9.743 9.743 0 0 0 36.823 44.64l7.036 7.036-8.762 8.762-5.573 3.116a.886.886 0 0 0-.36.377L26.66 68.94a.886.886 0 0 0 .165 1.022l3.13 3.13a.885.885 0 0 0 1.023.167l5.008-2.505a.886.886 0 0 0 .377-.36l3.116-5.572 8.762-8.763 7.399 7.399a9.743 9.743 0 0 0 12.824 12.074.886.886 0 0 0 .304-1.45l-5.633-5.633 3.757-3.756 5.632 5.632a.885.885 0 0 0 1.45-.303 9.743 9.743 0 0 0-2.181-10.446zm-33.653 4.08a.884.884 0 0 0-.147.194l-3.043 5.442-4.193 2.097-2.228-2.228 2.097-4.193 5.442-3.043a.884.884 0 0 0 .194-.147l8.849-8.849 1.878 1.878zm34.583 4.364l-5.205-5.206a.886.886 0 0 0-1.253 0l-5.008 5.009a.886.886 0 0 0 0 1.252l5.205 5.205a7.974 7.974 0 0 1-8.976-10.73.886.886 0 0 0-.198-.948l-19.61-19.61a.886.886 0 0 0-.948-.198A7.973 7.973 0 0 1 26 33.818l5.205 5.206a.886.886 0 0 0 1.253 0l5.008-5.009a.885.885 0 0 0 0-1.252l-5.205-5.205a7.973 7.973 0 0 1 8.976 10.73c-.128.327-.05.7.198.948l19.61 19.61a.886.886 0 0 0 .948.198 7.973 7.973 0 0 1 10.73 8.976z"/></g></svg>