<svg height="100" width="100" xmlns="http://www.w3.org/2000/svg"><path d="M27.18 74.165h45.64v-3.27H27.18zm2.713-8.617c2.039-.55 3.165-1.088 4.07-1.52.35-.169.652-.314.946-.426 1.112-.421 2.414-.958 3.6-1.604 1.558 1.512 5.384 4.473 11.447 4.489 6.084-.032 9.981-2.98 11.536-4.489 1.185.646 2.487 1.183 3.599 1.604.294.112.596.257.945.425.906.433 2.032.971 4.071 1.521l.123.035a3.809 3.809 0 0 1 2.56 3.131H27.21a3.809 3.809 0 0 1 2.56-3.13zm27.99-3.486c-2.342 1.489-4.995 2.242-7.883 2.243-2.888 0-5.54-.754-7.883-2.243-.714-.453-1.29-.91-1.724-1.295.587-.478 1.06-.999 1.349-1.561.04-.077.068-.142.084-.179l.182-.403.004-.463.01-1.3c2.625 2.594 5.625 4.217 7.977 4.217 2.353 0 5.355-1.626 7.98-4.223l.01 1.306.003.463.182.403c.016.037.044.102.084.179.29.562.762 1.083 1.349 1.56-.433.386-1.01.843-1.724 1.296zm3.222-14.07c-.746 2.199-2.011 4.37-3.706 6.3-1.253 1.428-2.655 2.623-4.058 3.454-1.25.743-2.438 1.152-3.342 1.152-.904 0-2.091-.41-3.343-1.152-1.402-.83-2.805-2.026-4.057-3.454-1.694-1.93-2.959-4.101-3.707-6.3zm-16.56-3.271c-1.33 0-2.18-.647-2.18-1.09 0-.446.85-1.092 2.18-1.092 1.332 0 2.182.646 2.182 1.091 0 .444-.85 1.09-2.183 1.09zm-4.467-5.454l2.323-2.33c.332-.02.664-.03.997-.03 3.367.002 6.66.981 9.667 2.36zm15.373 5.454c-1.33 0-2.18-.647-2.18-1.09 0-.446.85-1.092 2.18-1.092 1.333 0 2.183.646 2.183 1.091 0 .444-.85 1.09-2.183 1.09zM40.343 31.365c.604-.794 1.438-1.604 2.626-2.548 2.198-1.749 5.036-2.636 8.433-2.636 2.52 0 4.946.49 6.837 1.025l-1.556 1.091 2.711 1.733c.123.086 1.914 1.378 3.452 4.08.925 1.628 1.585 3.451 1.957 5.417.293 1.54.41 3.173.353 4.884-2.097-1.608-5.23-4-8.89-5.98-2.073-1.12-4.112-1.996-6.064-2.605-2.339-.729-4.629-1.099-6.805-1.1-.377 0-.754.011-1.124.034l-.831.049-.588.588-2.438 2.445c.138-1.612.333-2.912.662-3.986a7.634 7.634 0 0 1 1.265-2.49zm30.35 32.082c-2.706-.727-3.621-1.425-4.826-1.883-4.273-1.628-5.385-2.802-5.67-3.355-.007-.014-.025-1.295-.054-3.844 1.777-2.378 3.16-5.217 3.687-8.222 1.552 1.19 2.606 2.004 3.004 2.004.097 0 .156-.05.172-.154 2.149-14.13-6.404-19.779-6.404-19.779l2.337-1.637S57.507 24 51.402 24c-3.32 0-6.838.761-9.79 3.11-4.89 3.89-5.253 6.478-5.618 14.907-.035.444-.054.898-.057 1.358-.003 2.065.94 5.708.891 5.708 0 0 .844 1.786.873 1.746a21.571 21.571 0 0 0 2.153 3.538l-.023 3.78c-.313.615-1.425 1.79-5.698 3.417-1.205.458-2.12 1.156-4.826 1.883l-.185.055A5.979 5.979 0 0 0 25 69.179v5.168a2 2 0 0 0 2 2h46a2 2 0 0 0 2-2V69.18a5.979 5.979 0 0 0-4.122-5.677z" fill="#a40000" fill-rule="evenodd" stroke="#a40000" stroke-width=".3"/></svg>