<svg width="18" height="18" xmlns="http://www.w3.org/2000/svg"><g fill="#F03E31" fill-rule="nonzero"><path d="M8.984 0C4.03 0 0 4.03 0 8.983c0 4.954 4.03 8.984 8.984 8.984 4.953 0 8.983-4.03 8.983-8.984C17.967 4.03 13.937 0 8.984 0zm0 15.364a6.38 6.38 0 1 1 0-12.76 6.38 6.38 0 0 1 0 12.76z"/><path d="M8.984 3.429a5.56 5.56 0 0 0-5.555 5.554 5.56 5.56 0 0 0 5.555 5.555 5.56 5.56 0 0 0 5.554-5.555A5.56 5.56 0 0 0 8.984 3.43zm4.843 5.2h-2.695a2.165 2.165 0 0 0-.384-.923l1.903-1.903a4.836 4.836 0 0 1 1.176 2.826zM9.332 4.14a4.835 4.835 0 0 1 2.825 1.172l-1.902 1.902a2.165 2.165 0 0 0-.923-.383V4.14zm-.697 0v2.69c-.34.056-.655.19-.923.384L5.81 5.311A4.836 4.836 0 0 1 8.635 4.14zM5.316 5.805L7.22 7.706a2.164 2.164 0 0 0-.384.923H4.14a4.837 4.837 0 0 1 1.176-2.825zM4.14 9.326h2.695c.055.34.19.655.384.923l-1.908 1.908a4.835 4.835 0 0 1-1.171-2.83zm4.495 4.501a4.836 4.836 0 0 1-2.832-1.176l1.909-1.909c.268.194.582.329.923.384v2.701zm0-3.418v.005a1.47 1.47 0 0 1-.42-.175l.003-.003a1.48 1.48 0 0 1-.493-.493l-.003.003a1.47 1.47 0 0 1-.175-.42h.005a1.473 1.473 0 0 1-.043-.348c0-.12.016-.237.043-.349h-.005c.037-.15.096-.291.175-.42l.003.003a1.48 1.48 0 0 1 .493-.492l-.003-.004c.128-.078.27-.138.42-.174v.005c.112-.028.228-.044.349-.044.12 0 .236.016.348.044v-.005c.15.036.292.096.42.174l-.003.003c.201.123.37.292.493.493l.003-.003c.079.129.138.27.175.42h-.005c.027.112.043.228.043.349 0 .12-.016.236-.043.348h.005c-.037.15-.096.292-.175.42l-.003-.003a1.48 1.48 0 0 1-.493.493l.003.003c-.128.079-.27.138-.42.175v-.005a1.47 1.47 0 0 1-.697 0zm.697 3.418v-2.701c.34-.055.655-.19.923-.384l1.908 1.909a4.835 4.835 0 0 1-2.831 1.176zm3.324-1.67l-1.908-1.907c.194-.269.329-.583.384-.924h2.696a4.835 4.835 0 0 1-1.172 2.831z"/></g></svg>