<svg width="52" height="52" xmlns="http://www.w3.org/2000/svg"><g fill="none" fill-rule="evenodd"><circle cx="25" cy="25" r="25" stroke="#F03E31" stroke-width="1.3" transform="translate(1 1)"/><g fill-rule="nonzero"><path d="M25.976 13C18.821 13 13 18.821 13 25.976c0 7.155 5.821 12.976 12.976 12.976 7.155 0 12.976-5.82 12.976-12.976 0-7.155-5.82-12.976-12.976-12.976zm0 22.192a9.216 9.216 0 1 1 0-18.432 9.216 9.216 0 0 1 0 18.432z" stroke="#F03E31"/><path d="M25.976 17.953c-4.424 0-8.023 3.6-8.023 8.023 0 4.424 3.6 8.023 8.023 8.023C30.4 34 34 30.4 34 25.976c0-4.424-3.599-8.023-8.023-8.023zm6.996 7.512h-3.893a3.127 3.127 0 0 0-.554-1.334l2.748-2.748a6.985 6.985 0 0 1 1.699 4.082zM26.48 18.98c1.554.11 2.969.73 4.08 1.691l-2.747 2.748a3.128 3.128 0 0 0-1.333-.554V18.98zm-1.007 0v3.885c-.492.08-.946.274-1.334.554l-2.747-2.747a6.985 6.985 0 0 1 4.08-1.692zm-4.794 2.403l2.748 2.748c-.28.388-.474.842-.554 1.334H18.98a6.986 6.986 0 0 1 1.699-4.082zm-1.7 5.088h3.894c.08.492.274.946.554 1.334l-2.755 2.756a6.984 6.984 0 0 1-1.693-4.09zm6.494 6.501a6.985 6.985 0 0 1-4.09-1.699l2.756-2.756c.388.28.842.474 1.334.554v3.901zm0-4.937v.007a2.124 2.124 0 0 1-.607-.252l.005-.005a2.137 2.137 0 0 1-.712-.712l-.005.005c-.114-.186-.2-.39-.252-.607h.007a2.128 2.128 0 0 1-.062-.503c0-.174.023-.342.062-.504h-.007c.053-.217.138-.42.252-.606l.005.004c.177-.29.421-.534.712-.712l-.005-.004c.186-.114.39-.2.607-.253v.008c.161-.04.33-.063.503-.063.174 0 .342.023.504.063v-.008c.217.053.42.139.606.253l-.004.004c.29.177.534.422.712.712l.004-.004c.114.185.2.39.253.607h-.008c.04.161.063.33.063.503 0 .174-.023.342-.063.503h.008a2.119 2.119 0 0 1-.253.607l-.004-.004c-.178.29-.422.534-.712.711l.004.005c-.185.114-.389.2-.606.252v-.007c-.162.04-.33.062-.504.062s-.342-.023-.503-.062zm1.007 4.937v-3.901c.491-.08.945-.274 1.333-.554l2.756 2.756a6.984 6.984 0 0 1-4.09 1.7zm4.8-2.411l-2.755-2.756c.28-.388.474-.842.554-1.334h3.894a6.984 6.984 0 0 1-1.692 4.09z" fill="#F03E31"/></g></g></svg>