<svg height="70" width="70" xmlns="http://www.w3.org/2000/svg"><g fill="#d8d9dd" fill-rule="evenodd"><path d="M67.727 26.078c-.399 0-.795-.17-1.072-.499-6.778-8.064-16.356-13.172-26.97-14.388a1.4 1.4 0 1 1 .318-2.781C51.332 9.706 61.557 15.163 68.8 23.776a1.403 1.403 0 0 1-1.073 2.302M1.9 26.078a1.4 1.4 0 0 1-1.072-2.302c7.24-8.611 17.467-14.07 28.796-15.366a1.4 1.4 0 1 1 .318 2.781C19.327 12.407 9.748 17.515 2.972 25.58a1.398 1.398 0 0 1-1.072.499M40.818 34.182H49a2 2 0 0 1 2 2v7.636a2 2 0 0 1-2 2h-8.182V54a2 2 0 0 1-2 2h-7.636a2 2 0 0 1-2-2v-8.182H21a2 2 0 0 1-2-2v-7.636a2 2 0 0 1 2-2h8.182V26a2 2 0 0 1 2-2h7.636a2 2 0 0 1 2 2z"/></g></svg>