<svg height="100" width="100" xmlns="http://www.w3.org/2000/svg"><g fill="#a40000" stroke="#a40000" stroke-width=".5"><path d="M71.744 28.256C65.937 22.449 58.215 19.25 50 19.25c-8.213 0-15.936 3.199-21.744 9.006C22.449 34.064 19.25 41.787 19.25 50c0 8.214 3.199 15.937 9.006 21.743C34.064 77.551 41.787 80.75 50 80.75c8.215 0 15.937-3.199 21.744-9.007C77.551 65.937 80.75 58.214 80.75 50c0-8.213-3.199-15.936-9.006-21.744zM50 78.29c-15.599 0-28.29-12.691-28.29-28.29S34.401 21.71 50 21.71c15.6 0 28.29 12.691 28.29 28.29S65.6 78.29 50 78.29z"/><path d="M50 25.4c-13.564 0-24.6 11.035-24.6 24.6S36.436 74.6 50 74.6 74.6 63.564 74.6 50 63.564 25.4 50 25.4zm2.93 42.162h-5.861a24.659 24.659 0 0 0-15.074-16.035l2.025-8.598a67.608 67.608 0 0 1 15.979-1.909c5.41 0 10.78.644 15.98 1.91l2.024 8.595A24.667 24.667 0 0 0 52.93 67.562zM27.763 50c0-1.881.236-3.708.678-5.455a67.632 67.632 0 0 1 2.991-.932l-1.697 7.205a24.513 24.513 0 0 0-1.966-.427c-.003-.13-.006-.261-.006-.391zm42.503.818l-1.697-7.204c1.004.287 2.004.598 2.99.932.442 1.746.68 3.573.68 5.454 0 .13-.004.26-.006.391-.667.116-1.323.259-1.967.427zM50 27.763c9.355 0 17.38 5.809 20.658 14.009a69.041 69.041 0 0 0-3.402-.96A69.84 69.84 0 0 0 50 38.658c-5.844 0-11.649.725-17.256 2.153-1.135.289-2.272.61-3.402.96C32.62 33.571 40.644 27.763 50 27.763zM27.942 52.827c9.301 1.883 16.418 9.545 17.617 18.964-9.237-1.879-16.412-9.502-17.617-18.964zm20.034 19.317a24.52 24.52 0 0 0-.325-2.218h4.695a24.49 24.49 0 0 0-.324 2.219c-.667.06-1.341.094-2.022.094a23.733 23.733 0 0 1-2.024-.095zm6.463-.352c1.197-9.422 8.316-17.083 17.618-18.965-1.205 9.462-8.379 17.085-17.618 18.965z"/><path d="M50 42.62c-4.069 0-7.38 3.311-7.38 7.38 0 4.07 3.311 7.38 7.38 7.38 4.07 0 7.381-3.31 7.381-7.38 0-4.069-3.311-7.38-7.381-7.38zm0 12.3c-2.713 0-4.92-2.207-4.92-4.92s2.208-4.92 4.92-4.92 4.92 2.208 4.92 4.92-2.207 4.92-4.92 4.92z"/></g></svg>