<svg height="100" width="100" xmlns="http://www.w3.org/2000/svg"><g fill="none" fill-rule="evenodd"><path d="M68.412 58.64c-.98 0-1.747-.768-1.747-1.748s.767-1.75 1.747-1.75c.981 0 1.748.77 1.748 1.75a1.75 1.75 0 0 1-1.748 1.747m1.535-4.943l-.582-.288v-5.724c0-3.123-2.493-5.661-5.555-5.661-3.065 0-5.557 2.538-5.557 5.661V60.4c0 4.826-3.837 8.754-8.553 8.754-4.641 0-8.563-4.013-8.563-8.765v-6.124l.806-.19c2.58-.61 4.914-4.562 5.596-6.033l.055-.104c3.313-5.456 5.27-11.761 5.656-18.232.045-.75-.255-1.929-1.022-2.744-.596-.632-1.382-.953-2.336-.953h-.701a.953.953 0 0 0 0 1.906h.7c.593 0 .951.24 1.148.443.422.433.406.971.4 1.173-.422 6.332-2.294 12.353-5.416 17.513-.357.846-2.468 5.473-5.944 5.473-3.542 0-5.604-4.73-5.951-5.595-3.06-5.232-4.896-11.248-5.31-17.4l-.005-.068.005-.068c.055-.886.667-1.481 1.521-1.481h.724a.954.954 0 0 0 0-1.905h-.7c-1.208 0-1.98.545-2.414 1.004a3.515 3.515 0 0 0-.944 2.594 39.584 39.584 0 0 0 5.665 18.34l.05.094c.733 1.54 3.177 5.635 5.655 6.092l.857.157V60.4c0 5.824 4.648 10.562 10.363 10.562S59.956 66.224 59.956 60.4V47.684c0-2.125 1.681-3.853 3.747-3.853s3.747 1.728 3.747 3.853v5.724l-.582.288c-1.228.61-2.022 1.866-2.022 3.196 0 1.927 1.628 3.557 3.556 3.557 1.929 0 3.558-1.63 3.558-3.557.006-1.334-.784-2.586-2.013-3.196" fill="#fff" stroke="#fff" stroke-width="1.2"/><circle cx="63.953" cy="28.953" r="6.5" stroke="#fff" stroke-width="2.2"/><path d="M64.291 28.746c.373-.372.629-.769.629-1.05 0-.372-.29-.588-.794-.588-.496 0-1.092.282-1.613.728L62 26.86c.711-.537 1.497-.86 2.316-.86 1.158 0 1.977.587 1.977 1.497 0 .62-.471 1.266-1.108 1.928l-1.349 1.331H66.5v1.1h-4.351v-.901z" fill="#fff"/></g></svg>