<svg height="100" width="100" xmlns="http://www.w3.org/2000/svg"><g fill="#a40000" stroke="#a40000" stroke-width=".4"><path d="M29.991 71.063c0 .578-.468 1.046-1.045 1.046h-5.65a1.045 1.045 0 1 1 0-2.091h5.65c.577 0 1.045.468 1.045 1.045zm9.221-9.985v3.012a4.062 4.062 0 0 1-4.057 4.057h-18.07a4.061 4.061 0 0 1-4.056-4.057v-3.012c0-.577.468-1.045 1.045-1.045h.278a1.123 1.123 0 0 1-.003-.091V57.14a1.037 1.037 0 0 1 .498-.915c.053-.032.109-.06.168-.083.414-.172.825-.35 1.232-.533V42.837c0-2.077 1.32-3.9 3.205-4.602a4.449 4.449 0 0 1-.003-.172V35.48c0-2.47 2.01-4.481 4.48-4.481h4.382c2.471 0 4.481 2.01 4.481 4.48v2.583c0 .057-.001.115-.003.171.743.277 1.409.73 1.94 1.319l.055-.105a1.045 1.045 0 1 1 1.85.976c-1.957 3.708-4.798 7.144-8.446 10.212-2.91 2.45-6.215 4.564-9.85 6.309v3.088h15.566V47.452a1.045 1.045 0 1 1 2.09 0v12.58h2.173c.577 0 1.045.469 1.045 1.046zM21.54 38.063a2.388 2.388 0 0 0 2.39 2.39h4.382a2.394 2.394 0 0 0 2.39-2.39V35.48a2.393 2.393 0 0 0-2.39-2.39H23.93a2.393 2.393 0 0 0-2.39 2.39zM18.337 54.61c6.526-3.313 11.886-7.916 15.235-13.095a2.844 2.844 0 0 0-1.355-1.257 4.484 4.484 0 0 1-3.906 2.285H23.93a4.484 4.484 0 0 1-3.905-2.286 2.832 2.832 0 0 0-1.687 2.58zm18.785 7.513H15.12v1.967c0 1.084.882 1.966 1.966 1.966h18.07a1.969 1.969 0 0 0 1.966-1.966z"/><path d="M54.366 71.063c0 .578-.468 1.046-1.045 1.046h-5.65a1.045 1.045 0 1 1 0-2.091h5.65c.577 0 1.045.468 1.045 1.045zm9.221-9.985v3.012a4.062 4.062 0 0 1-4.057 4.057H41.46a4.061 4.061 0 0 1-4.056-4.057v-3.012c0-.577.468-1.045 1.045-1.045h.278a1.123 1.123 0 0 1-.003-.091V57.14a1.037 1.037 0 0 1 .498-.915c.053-.032.109-.06.168-.083.414-.172.825-.35 1.232-.533V42.837c0-2.077 1.32-3.9 3.205-4.602a4.449 4.449 0 0 1-.003-.172V35.48c0-2.47 2.01-4.481 4.48-4.481h4.382c2.471 0 4.481 2.01 4.481 4.48v2.583c0 .057-.001.115-.003.171.743.277 1.409.73 1.94 1.319l.055-.105a1.045 1.045 0 1 1 1.85.976c-1.957 3.708-4.798 7.144-8.446 10.212-2.91 2.45-6.215 4.564-9.85 6.309v3.088h15.566V47.452a1.045 1.045 0 1 1 2.09 0v12.58h2.173c.577 0 1.045.469 1.045 1.046zM45.914 38.063a2.388 2.388 0 0 0 2.39 2.39h4.382a2.394 2.394 0 0 0 2.39-2.39V35.48a2.393 2.393 0 0 0-2.39-2.39h-4.382a2.393 2.393 0 0 0-2.39 2.39zM42.712 54.61c6.526-3.313 11.886-7.916 15.235-13.095a2.844 2.844 0 0 0-1.355-1.257 4.484 4.484 0 0 1-3.906 2.285h-4.382a4.484 4.484 0 0 1-3.905-2.286 2.832 2.832 0 0 0-1.687 2.58zm18.785 7.513H39.495v1.967c0 1.084.882 1.966 1.966 1.966h18.07a1.969 1.969 0 0 0 1.966-1.966z"/><path d="M78.741 71.063c0 .578-.468 1.046-1.045 1.046h-5.65a1.045 1.045 0 1 1 0-2.091h5.65c.577 0 1.045.468 1.045 1.045zm9.221-9.985v3.012a4.062 4.062 0 0 1-4.057 4.057h-18.07a4.061 4.061 0 0 1-4.056-4.057v-3.012c0-.577.468-1.045 1.045-1.045h.278a1.123 1.123 0 0 1-.003-.091V57.14a1.037 1.037 0 0 1 .498-.915c.053-.032.109-.06.168-.083.414-.172.825-.35 1.232-.533V42.837c0-2.077 1.32-3.9 3.205-4.602a4.449 4.449 0 0 1-.003-.172V35.48c0-2.47 2.01-4.481 4.48-4.481h4.382c2.471 0 4.481 2.01 4.481 4.48v2.583c0 .057-.001.115-.003.171.743.277 1.409.73 1.94 1.319l.055-.105a1.045 1.045 0 1 1 1.85.976c-1.957 3.708-4.798 7.144-8.446 10.212-2.91 2.45-6.215 4.564-9.85 6.309v3.088h15.566V47.452a1.045 1.045 0 1 1 2.09 0v12.58h2.173c.577 0 1.045.469 1.045 1.046zM70.29 38.063a2.388 2.388 0 0 0 2.39 2.39h4.382a2.394 2.394 0 0 0 2.39-2.39V35.48a2.393 2.393 0 0 0-2.39-2.39H72.68a2.393 2.393 0 0 0-2.39 2.39zM67.087 54.61c6.526-3.313 11.886-7.916 15.235-13.095a2.844 2.844 0 0 0-1.355-1.257 4.484 4.484 0 0 1-3.906 2.285H72.68a4.484 4.484 0 0 1-3.905-2.286 2.832 2.832 0 0 0-1.687 2.58zm18.785 7.513H63.87v1.967c0 1.084.882 1.966 1.966 1.966h18.07a1.969 1.969 0 0 0 1.966-1.966z"/></g></svg>