<svg height="100" width="100" xmlns="http://www.w3.org/2000/svg"><g fill="#fff" stroke="#fff" stroke-width=".4"><path d="M42.3 55.752a.954.954 0 0 0-.017-.005l-3.543-.92c-.3-.089-.537-.244-.588-.325l-.002-1.927.009-.01c1.215-1.452 1.884-3.334 1.884-5.298v-1.435c1.212-3.949.357-7.372-.081-8.368l-.004-.009a.937.937 0 0 0-.03-.059l-.014-.026a.86.86 0 0 0-.033-.052l-.02-.029a.926.926 0 0 0-.032-.042l-.026-.031-.033-.035-.032-.032-.035-.03c-.012-.01-.023-.02-.035-.028l-.042-.03-.032-.022-.053-.03-.025-.014a.943.943 0 0 0-.064-.028l-.019-.008a.927.927 0 0 0-.067-.023l-.02-.006a.93.93 0 0 0-.064-.015l-.027-.005a.913.913 0 0 0-.055-.008l-.04-.004-.043-.001h-.054l-.033.001a.98.98 0 0 0-.064.006l-.01.001c-.916.13-2.033-.137-3.217-.42-2.093-.501-4.454-1.065-6.522.426-2 .172-3.419 1.853-3.419 4.125 0 1.652.767 4.602.943 5.257v.794c0 2.05.709 3.945 1.846 5.359l-.002 2.058c-.051.081-.289.237-.589.325l-3.542.92a.953.953 0 0 0-.018.005c-2.256.632-3.436 2.843-3.436 4.7v1.028c0 1.124.984 2.039 2.194 2.039l20.349-.002c1.21 0 2.193-.915 2.193-2.04v-1.027c0-1.857-1.18-4.068-3.435-4.7zm-13.657-8.99c0-.945.4-2.326.7-3.2 4.306.098 7.557 1.133 8.796 1.592v2.113c0 1.676-.63 3.212-1.613 4.274l-.008.008c-.845.91-1.95 1.471-3.14 1.471-2.522 0-4.735-2.772-4.735-5.933zm1.845 7.756v-.407c.88.518 1.862.813 2.89.813 1.01 0 1.985-.262 2.87-.756v.347c0 .857.557 1.466 1.232 1.837-1.06.92-2.538 1.462-4.105 1.462-1.57 0-3.049-.543-4.109-1.465.67-.372 1.222-.979 1.222-1.83zm-.93-15.72h.012a.96.96 0 0 0 .081-.004c.01 0 .02-.003.031-.004a.976.976 0 0 0 .061-.01c.013-.002.026-.006.038-.009l.052-.013.041-.014.047-.017.043-.02.04-.02c.017-.009.033-.018.048-.028l.033-.02a.942.942 0 0 0 .058-.043l.016-.012c1.4-1.143 3.215-.708 5.137-.248 1.034.248 2.097.502 3.128.506.248.915.492 2.538.23 4.47-1.548-.563-5.18-1.662-9.974-1.662h-.009c-.02 0-.039.002-.058.003l-.039.003-.045.007-.05.008-.025.007a.915.915 0 0 0-.066.018l-.006.002a.95.95 0 0 0-.161.07l-.007.004a.907.907 0 0 0-.07.043l-.034.026-.038.028-.048.044-.019.017-.044.048-.017.02c-.012.014-.022.029-.033.044l-.023.032-.022.035c-.01.016-.019.031-.027.048l-.014.028-.018.036a8.623 8.623 0 0 1-.106-1.185c0-1.032.486-2.237 1.856-2.237zM43.832 61.48c0 .026-.097.136-.29.136l-20.35.003c-.193 0-.29-.11-.29-.136v-1.027c0-1.139.7-2.487 2.038-2.866l2.297-.597c1.415 1.695 3.706 2.726 6.137 2.726 2.43 0 4.721-1.03 6.135-2.725l2.285.594c1.338.38 2.038 1.727 2.038 2.866zM76.531 55.752l-.017-.005-3.543-.92c-.3-.089-.537-.244-.588-.325l-.003-1.927.009-.01c1.215-1.452 1.884-3.333 1.884-5.298v-1.435c1.212-3.948.358-7.372-.08-8.368l-.005-.01a.89.89 0 0 0-.029-.056l-.015-.029a.943.943 0 0 0-.031-.049l-.021-.032-.03-.038-.03-.035-.028-.03-.037-.037-.029-.024c-.013-.012-.026-.024-.04-.034l-.035-.025-.04-.026c-.015-.01-.03-.018-.045-.026l-.033-.018a.956.956 0 0 0-.056-.025l-.027-.012a.923.923 0 0 0-.062-.02l-.024-.008a.92.92 0 0 0-.06-.014l-.031-.007-.053-.007-.042-.004-.042-.002h-.055l-.033.002a.966.966 0 0 0-.064.006h-.01c-.915.132-2.033-.136-3.216-.42-2.093-.5-4.454-1.064-6.523.427-2 .172-3.418 1.853-3.418 4.125 0 1.652.766 4.602.942 5.257v.794c0 2.05.71 3.945 1.846 5.359l-.002 2.058c-.051.081-.289.236-.588.325l-3.543.92-.018.005c-2.255.632-3.436 2.843-3.436 4.7v1.027c0 1.125.985 2.04 2.194 2.04l20.35-.003c1.209 0 2.193-.914 2.193-2.039v-1.027c0-1.857-1.18-4.068-3.436-4.7zm-13.657-8.99c0-.945.4-2.326.699-3.2 4.307.098 7.557 1.133 8.797 1.592v2.113c0 1.676-.63 3.212-1.614 4.275l-.007.007c-.845.91-1.95 1.472-3.14 1.472-2.522 0-4.735-2.773-4.735-5.934v-.325zm1.844 7.756v-.407c.88.518 1.863.813 2.891.813 1.01 0 1.985-.262 2.87-.756v.347c0 .857.556 1.466 1.231 1.837-1.06.92-2.537 1.462-4.105 1.462-1.569 0-3.048-.543-4.108-1.465.67-.372 1.221-.979 1.221-1.83zm-.93-15.72h.013a.958.958 0 0 0 .08-.004c.011 0 .021-.003.032-.004a.976.976 0 0 0 .061-.01c.013-.002.025-.006.038-.009l.052-.013.041-.014.047-.017.042-.02.042-.02.047-.028.033-.02a.942.942 0 0 0 .058-.043l.016-.012c1.4-1.143 3.215-.708 5.137-.248 1.034.248 2.096.502 3.128.506.248.915.492 2.538.23 4.47-1.548-.563-5.18-1.662-9.975-1.662h-.008a.951.951 0 0 0-.058.003l-.039.003-.044.007-.05.008-.025.007a.957.957 0 0 0-.067.018l-.005.002a.94.94 0 0 0-.163.07l-.005.003a.944.944 0 0 0-.071.044l-.034.025-.038.029a.958.958 0 0 0-.049.044l-.018.017a.913.913 0 0 0-.044.049l-.017.02-.033.043-.023.032-.022.036c-.01.015-.019.03-.027.047l-.014.028-.017.036a8.626 8.626 0 0 1-.107-1.185c0-1.032.486-2.237 1.856-2.237zM78.064 61.48c0 .026-.097.136-.29.136l-20.35.003c-.193 0-.29-.11-.29-.136v-1.027c0-1.138.7-2.487 2.038-2.866l2.297-.597c1.414 1.695 3.705 2.726 6.136 2.726 2.43 0 4.722-1.03 6.136-2.725l2.285.594c1.338.38 2.038 1.727 2.038 2.866v1.026zM32.373 30.012a1.082 1.082 0 0 0 .022 1.539c.428.417 1.119.417 1.536-.022a20.898 20.898 0 0 1 14.817-6.352c5.487-.066 10.69 1.978 14.674 5.736l-1.998.022a1.09 1.09 0 0 0-1.075 1.099 1.095 1.095 0 0 0 1.086 1.077h.011l4.632-.055a1.09 1.09 0 0 0 1.075-1.099l-.044-4.626a1.095 1.095 0 0 0-1.086-1.077h-.011a1.09 1.09 0 0 0-1.076 1.099l.022 2.022A23.095 23.095 0 0 0 48.726 23c-6.212.088-12.018 2.572-16.353 7.011zM63.966 68.117a20.898 20.898 0 0 1-14.812 6.346 20.908 20.908 0 0 1-14.67-5.731l1.997-.022a1.09 1.09 0 0 0 1.076-1.098 1.094 1.094 0 0 0-1.087-1.076h-.01l-4.63.055a1.09 1.09 0 0 0-1.076 1.098l.055 4.633a1.094 1.094 0 0 0 1.086 1.076h.011a1.09 1.09 0 0 0 1.075-1.098l-.022-2.02c4.334 4.106 9.974 6.367 15.953 6.367h.275c6.199-.077 12.014-2.558 16.348-6.993a1.08 1.08 0 0 0-.022-1.537 1.082 1.082 0 0 0-1.547 0z"/></g></svg>