<svg height="100" width="100" xmlns="http://www.w3.org/2000/svg"><g fill="#fff"><path d="M71.744 28.256C65.938 22.449 58.215 19.25 50 19.25c-8.213 0-15.936 3.199-21.744 9.006C22.449 34.064 19.25 41.787 19.25 50c0 8.214 3.199 15.938 9.006 21.743C34.064 77.551 41.787 80.75 50 80.75c8.215 0 15.938-3.199 21.744-9.007C77.551 65.938 80.75 58.214 80.75 50c0-8.213-3.199-15.936-9.006-21.744zM50 78.29C34.401 78.29 21.71 65.6 21.71 50c0-15.599 12.691-28.29 28.29-28.29 15.6 0 28.29 12.691 28.29 28.29 0 15.6-12.69 28.29-28.29 28.29z"/><path d="M50 81c-8.28 0-16.065-3.225-21.921-9.08C22.224 66.066 19 58.281 19 50c0-8.28 3.224-16.065 9.079-21.921C33.935 22.224 41.72 19 50 19c8.281 0 16.066 3.224 21.921 9.079C77.775 33.935 81 41.72 81 50c0 8.281-3.225 16.066-9.079 21.92C66.066 77.775 58.281 81 50 81zm0-61.5c-8.146 0-15.806 3.172-21.567 8.933S19.5 41.854 19.5 50c0 8.148 3.172 15.807 8.933 21.566C34.194 77.327 41.854 80.5 50 80.5c8.148 0 15.808-3.173 21.567-8.934C77.328 65.807 80.5 58.148 80.5 50c0-8.146-3.172-15.806-8.933-21.567C65.807 22.672 58.147 19.5 50 19.5zm0 59.04c-15.737 0-28.54-12.803-28.54-28.54S34.263 21.46 50 21.46 78.54 34.263 78.54 50 65.737 78.54 50 78.54zm0-56.58c-15.461 0-28.04 12.579-28.04 28.04S34.539 78.04 50 78.04 78.04 65.461 78.04 50 65.461 21.96 50 21.96z"/><path d="M50 25.4c-13.564 0-24.6 11.035-24.6 24.6 0 13.564 11.036 24.6 24.6 24.6S74.6 63.565 74.6 50c0-13.564-11.036-24.6-24.6-24.6zm2.93 42.162h-5.861c-2.215-7.396-7.822-13.371-15.074-16.035l2.025-8.598a67.608 67.608 0 0 1 15.979-1.909c5.41 0 10.78.644 15.979 1.91l2.024 8.595A24.668 24.668 0 0 0 52.93 67.562zM27.763 50c0-1.881.236-3.708.678-5.455a67.632 67.632 0 0 1 2.991-.932l-1.697 7.206a24.086 24.086 0 0 0-1.966-.427c-.003-.131-.006-.262-.006-.392zm42.503.818l-1.697-7.204c1.005.287 2.005.598 2.99.932.442 1.746.68 3.573.68 5.454 0 .13-.004.26-.006.391-.667.116-1.323.259-1.967.427zM50 27.763c9.355 0 17.38 5.809 20.658 14.009a69.353 69.353 0 0 0-3.402-.96A69.84 69.84 0 0 0 50 38.658c-5.844 0-11.649.725-17.256 2.153-1.135.289-2.272.61-3.402.96C32.62 33.571 40.644 27.763 50 27.763zM27.942 52.827c9.301 1.883 16.418 9.545 17.617 18.964-9.237-1.879-16.412-9.502-17.617-18.964zm20.034 19.318c-.075-.75-.184-1.49-.325-2.219h4.695a24.901 24.901 0 0 0-.324 2.219c-.666.061-1.34.095-2.021.095a24.588 24.588 0 0 1-2.025-.095zm6.463-.353c1.197-9.422 8.315-17.083 17.617-18.965-1.204 9.462-8.378 17.085-17.617 18.965z"/><path d="M50 74.85c-13.702 0-24.85-11.147-24.85-24.85S36.298 25.15 50 25.15 74.85 36.298 74.85 50 63.702 74.85 50 74.85zm0-49.2c-13.427 0-24.35 10.923-24.35 24.35S36.573 74.35 50 74.35 74.35 63.427 74.35 50 63.427 25.65 50 25.65zm0 46.839a24.11 24.11 0 0 1-2.046-.096l-.206-.019-.021-.205a24.4 24.4 0 0 0-.322-2.196l-.058-.298h5.301l-.058.298c-.137.71-.245 1.448-.32 2.196l-.021.205-.205.019c-.698.064-1.387.096-2.044.096zm-1.797-.576c.598.048 1.202.073 1.798.076.577 0 1.18-.025 1.794-.076a24.52 24.52 0 0 1 .25-1.737h-4.093a24.7 24.7 0 0 1 .251 1.737zm5.944.193l.044-.346a22.438 22.438 0 0 1 17.815-19.179l.342-.069-.044.346a22.466 22.466 0 0 1-17.815 19.179zm17.615-18.961a21.939 21.939 0 0 0-17.027 18.329 21.966 21.966 0 0 0 17.027-18.329zm-25.911 18.96l-.342-.069a22.462 22.462 0 0 1-17.815-19.178l-.044-.346.342.069a22.444 22.444 0 0 1 17.815 19.178zm-17.614-18.96a21.963 21.963 0 0 0 17.026 18.328 21.942 21.942 0 0 0-17.026-18.328zm24.879 14.667h-6.233l-.053-.179c-2.189-7.311-7.767-13.244-14.921-15.872l-.208-.076 2.111-8.963.149-.036c10.447-2.544 21.627-2.544 32.077.001l.148.036 2.11 8.96-.208.076c-7.153 2.631-12.73 8.565-14.92 15.874zm-5.862-.5h5.49c2.249-7.307 7.822-13.244 14.965-15.944l-1.938-8.231c-10.277-2.479-21.265-2.478-31.542-.001L32.29 51.37c7.142 2.698 12.715 8.635 14.964 15.942zm22.827-16.187l-1.854-7.868.409.117a64.95 64.95 0 0 1 3.002.935l.129.043.033.132c.456 1.8.688 3.656.688 5.516l-.009.602-.204.036c-.646.111-1.3.254-1.946.423zm-1.171-7.152l1.54 6.54a25.526 25.526 0 0 1 1.536-.332l.002-.181c0-1.773-.215-3.542-.639-5.261a63.798 63.798 0 0 0-2.439-.766zm-38.991 7.152l-.248-.064a23.992 23.992 0 0 0-1.945-.423l-.203-.035-.005-.206a22.47 22.47 0 0 1 .68-5.914l.033-.132.129-.043c.996-.336 2.006-.65 3.002-.936l.41-.118zm-1.904-.944c.503.092 1.017.203 1.535.332l1.541-6.541c-.812.238-1.63.495-2.44.766a22.01 22.01 0 0 0-.636 5.443zm43.07-8.015l-.501-.155a69.9 69.9 0 0 0-3.39-.957c-11.157-2.846-23.207-2.85-34.389-.001a69.013 69.013 0 0 0-3.39.957l-.5.155.195-.487C32.55 33.073 40.75 27.513 50 27.513s17.45 5.561 20.891 14.166zM50 38.408a70.06 70.06 0 0 1 20.224 2.97C66.75 33.241 58.869 28.013 50 28.013s-16.75 5.228-20.225 13.364a68.953 68.953 0 0 1 2.908-.809A70.23 70.23 0 0 1 50 38.408z"/><path d="M50 42.62c-4.069 0-7.38 3.311-7.38 7.38 0 4.07 3.311 7.38 7.38 7.38 4.07 0 7.381-3.31 7.381-7.38 0-4.069-3.311-7.38-7.381-7.38zm0 12.3c-2.713 0-4.92-2.207-4.92-4.92s2.208-4.92 4.92-4.92 4.92 2.208 4.92 4.92-2.207 4.92-4.92 4.92z"/><path d="M50 57.63c-4.207 0-7.63-3.423-7.63-7.63s3.423-7.63 7.63-7.63c4.208 0 7.631 3.423 7.631 7.63S54.208 57.63 50 57.63zm0-14.76c-3.932 0-7.13 3.198-7.13 7.13s3.198 7.13 7.13 7.13 7.131-3.198 7.131-7.13-3.199-7.13-7.131-7.13zm0 12.3c-2.851 0-5.17-2.319-5.17-5.17s2.319-5.17 5.17-5.17 5.17 2.319 5.17 5.17-2.319 5.17-5.17 5.17zm0-9.84c-2.575 0-4.67 2.095-4.67 4.67s2.095 4.67 4.67 4.67 4.67-2.095 4.67-4.67-2.095-4.67-4.67-4.67z"/></g></svg>