<svg height="100" width="100" xmlns="http://www.w3.org/2000/svg"><g fill="#a40000" stroke="#a40000" stroke-width=".5"><path d="M55.287 49.717a.855.855 0 0 0-.952.747 9.648 9.648 0 0 0 .243 3.597c.116.553.283 1.098.496 1.62a.856.856 0 1 0 1.584-.647 7.752 7.752 0 0 1-.42-1.386 7.946 7.946 0 0 1-.205-2.979.856.856 0 0 0-.746-.952z"/><path d="M72.772 40.712l-2.302-6.583a2.696 2.696 0 0 0 .725-3.543l-.385-.654a2.714 2.714 0 0 0-2.33-1.333c-.36 0-.717.074-1.048.213l-.87-1.478a.856.856 0 0 0-1.474.867l1.75 2.977 1.802 3.066.107.182c.016.027.82 2.31 2.41 6.85a.734.734 0 0 1-.32.873l-1.044.614a.733.733 0 0 1-.918-.145l-4.73-5.323c-.02-.024-2.056-3.477-6.105-10.36a.728.728 0 0 1 .26-1.002l3.423-2.012a.727.727 0 0 1 .555-.078c.19.05.348.17.447.338l2.386 3.995a.856.856 0 0 0 1.475-.867L64.2 23.314a2.427 2.427 0 0 0-1.492-1.127 2.427 2.427 0 0 0-1.852.259l-3.423 2.012c-.563.33-.963.86-1.127 1.492s-.072 1.29.259 1.852l3.116 5.3-5.202 2.893-.101-.13a3.878 3.878 0 0 0-.56-.552c-.123-.096-.15-.114-.175-.133a3.848 3.848 0 0 0-.96-.505 4.028 4.028 0 0 0-1.034-.223 3.9 3.9 0 0 0-1.247.105c-.09.024-.137.036-.184.05l-.183.06a4.021 4.021 0 0 0-.772.374 4.592 4.592 0 0 0-.384.274 3.702 3.702 0 0 0-.625.637 4.1 4.1 0 0 0-.381.59 5.074 5.074 0 0 0-.251.592 4.098 4.098 0 0 0-.08.262 3.975 3.975 0 0 0-1.514-.432 3.9 3.9 0 0 0-1.43.155l-.182.06a3.95 3.95 0 0 0-.96.499 3.945 3.945 0 0 0-1.488 2.074 3.914 3.914 0 0 0-1.7-.496 3.885 3.885 0 0 0-1.968.399 3.823 3.823 0 0 0-.756.487 3.756 3.756 0 0 0-.41.392 3.827 3.827 0 0 0-.348.443 3.757 3.757 0 0 0-.28.485 3.92 3.92 0 0 0-.341 1.065 3.837 3.837 0 0 0-.054.563 4.771 4.771 0 0 0-1.14-.148 3.85 3.85 0 0 0-1.144.174l-.164.055a3.89 3.89 0 0 0-2.284 5.134l.18.435-7.04 3.914a2.679 2.679 0 0 0-1.324 1.648 2.679 2.679 0 0 0 .27 2.103l1.57 2.67a2.715 2.715 0 0 0 2.332 1.333c.517 0 1.02-.148 1.457-.428l6.545-4.06 2.15 5.067a8.186 8.186 0 0 0 2.84 3.55c.016.01 1.933 1.094 5.751 3.251l.345 1.99a.855.855 0 1 0 1.685-.292l-.413-2.39a.855.855 0 0 0-.422-.598l-5.994-3.384a6.483 6.483 0 0 1-2.215-2.79l-2.047-4.825a3.89 3.89 0 0 0 3.775-3.855 3.95 3.95 0 0 0 2.642-.126 3.925 3.925 0 0 0 2.267-2.503 3.93 3.93 0 0 0 4.63-.573c.256-.04.51-.11.76-.213l2.364-.97a1.36 1.36 0 0 1 1.052.01c.364.154.648.444.8.82a.856.856 0 1 0 1.586-.64 3.18 3.18 0 0 0-1.721-1.757 3.06 3.06 0 0 0-2.367-.015l-2.363.97a1.69 1.69 0 0 1-.669.126 1.828 1.828 0 0 1-1.56-.957 2.041 2.041 0 0 1-.094-.195l-.358-.872a1.905 1.905 0 0 1-.144-.719c0-.242.047-.483.142-.71a1.729 1.729 0 0 1 .935-.937l.809-.33.81-.332 5.056-2.072a3.231 3.231 0 0 1 .435-.141c.162-.035.178-.038.193-.04.122-.02.145-.023.168-.025.108-.012.14-.014.17-.016.091-.006.13-.006.168-.007a3.163 3.163 0 0 1 1.457.346 3.316 3.316 0 0 1 1.578 1.728l1.76 4.363c.298.74.41 1.545.325 2.331l-.99 9.118a.854.854 0 0 0 0 .184l.399 3.678c.014.132.059.259.13.37l8.224 12.805a.78.78 0 0 1 .03.812.78.78 0 0 1-.7.414H49.862a.794.794 0 0 1-.785-.66l-1.329-7.812a.855.855 0 0 0-1.686.291l1.33 7.812a2.502 2.502 0 0 0 2.47 2.08h18.886a2.506 2.506 0 0 0 2.11-3.862l-8.116-12.635-.367-3.385.98-9.025a6.573 6.573 0 0 0-.439-3.156l-1.76-4.363c-.1-.25-.22-.488-.355-.715l2.31-1.433 4.485 5.048a2.444 2.444 0 0 0 3.064.483l1.044-.613a2.448 2.448 0 0 0 1.068-2.912zm-3.13-8.14l-1.322-2.25a.997.997 0 0 1 1.016.477l.384.654a.99.99 0 0 1-.078 1.12zM27.916 58.53c-.175.113-.36.168-.55.168a.985.985 0 0 1-.857-.49l-1.569-2.67a.983.983 0 0 1-.1-.772.983.983 0 0 1 .489-.605l6.883-3.827 1.133 2.759c.034.082.07.161.11.24l.019.04.025.046c.025.049.052.097.08.144l.046.08.015.025c.025.04.05.077.076.115.027.04.053.08.081.118l.037.05.078.101.079.094.031.035.048.054c.04.045.081.088.123.13l.036.035c.045.044.09.087.136.128zm9.85-4.903a2.161 2.161 0 0 1-1.753-.042 2.21 2.21 0 0 1-.778-.619l-.018-.023a2.22 2.22 0 0 1-.186-.288c-.008-.014-.017-.028-.024-.043a2.127 2.127 0 0 1-.08-.17l-1.499-3.649-.468-1.139a2.177 2.177 0 0 1 1.525-2.943c.014-.003.027-.008.041-.01a2.194 2.194 0 0 1 2.205.852c.032.043.06.086.086.13l1.518 3.694c.062.15.134.293.211.431l.404.982a2.177 2.177 0 0 1-1.184 2.837zm5.049-3.691a2.211 2.211 0 0 1-2.728-.88l-1.522-3.704a3.89 3.89 0 0 0-.211-.43l-.37-.899a2.223 2.223 0 0 1 2.449-3.027 2.232 2.232 0 0 1 1.367.835l.02.027a2.183 2.183 0 0 1 .197.32c.023.067.048.134.076.2l1.932 4.704c.019.045.04.088.06.133a2.222 2.222 0 0 1-1.27 2.72zm5.262-9.136a3.416 3.416 0 0 0-1.865 1.86 3.554 3.554 0 0 0-.003 2.739l.359.872c.03.071.06.138.092.204l.032.064c.024.046.048.092.074.137l.037.067c.033.056.068.11.104.164.022.034.046.067.07.1a3.698 3.698 0 0 0 .135.177c.192.236.41.445.65.621a2.212 2.212 0 0 1-2.077-1.207 4.06 4.06 0 0 0-.078-.21l-1.933-4.703c-.019-.045-.04-.087-.06-.132a2.199 2.199 0 0 1-.037-.133l-.019-.077a2.26 2.26 0 0 1-.023-.132c-.004-.027-.008-.053-.01-.08a2.33 2.33 0 0 1-.012-.348l.004-.068a2.274 2.274 0 0 1 .057-.352l.012-.048a2.25 2.25 0 0 1 .047-.154l.013-.037c.02-.053.04-.105.064-.157l.014-.028c.025-.053.051-.105.08-.156l.014-.023c.03-.051.062-.102.096-.15l.016-.022c.034-.048.07-.096.11-.141l.02-.023c.038-.044.077-.087.119-.128l.031-.028c.04-.038.08-.075.123-.11l.05-.037c.04-.03.078-.06.119-.087l.086-.052c.032-.02.064-.04.097-.057a2.265 2.265 0 0 1 .406-.168c.022-.006.046-.01.068-.017.047-.012.094-.026.142-.035.048-.01.096-.015.145-.022.022-.002.044-.007.067-.01.07-.006.142-.01.214-.01l.051.002c.049.001.097.003.145.008l.066.007c.05.006.099.013.148.022l.042.008a2.25 2.25 0 0 1 .952.453l.028.024c.042.035.082.072.121.11l.034.033c.045.046.09.094.13.145l.016.02c.035.044.069.09.1.136l.035.055c.025.039.05.079.072.12l.03.054c.03.059.058.118.084.18l.31.754zm1.6-.655l-.383-.93a2.223 2.223 0 0 1 1.417-2.97l.055-.013c.051-.014.103-.028.155-.039.045-.009.09-.014.135-.02.026-.003.051-.008.076-.01.071-.008.143-.011.215-.011l.05.002c.05 0 .098.003.146.007l.066.008c.05.005.099.013.148.022l.041.008a2.238 2.238 0 0 1 .954.453l.027.023c.042.036.082.073.121.11l.033.033c.046.047.09.095.131.146l.016.02c.035.044.068.09.1.136l.035.054c.025.04.05.08.072.12l.03.055c.025.05.05.102.072.154l.395.96zm9.993-1.318a4.99 4.99 0 0 0-.874-.57l-.021-.012a5.241 5.241 0 0 0-.164-.08l-.044-.02c-.038-.017-.076-.035-.115-.05a4.936 4.936 0 0 0-.208-.083l-.068-.024a4.689 4.689 0 0 0-.36-.112l-.08-.021a5.06 5.06 0 0 0-.147-.035l-.067-.015a4.915 4.915 0 0 0-.212-.038l-.05-.007a4.799 4.799 0 0 0-.166-.022l-.081-.008a4.862 4.862 0 0 0-.36-.02l-.082-.001c-.052 0-.105 0-.157.002-.02 0-.04 0-.06.002a4.863 4.863 0 0 0-.213.014l-.062.007a4.993 4.993 0 0 0-.155.018l-.079.011a4.976 4.976 0 0 0-.363.07l-.07.017-.027.006-.136-.332 5.298-2.946 1.596 2.714z"/></g></svg>