<svg width="52" height="52" viewBox="0 0 52 52" fill="none" xmlns="http://www.w3.org/2000/svg">
<circle cx="26" cy="26" r="25" stroke="#F03E31" stroke-width="1.3"/>
<path d="M22.4149 15.2079C22.38 15.1011 22.3236 15.0027 22.2491 14.9186C22.1747 14.8345 22.0838 14.7666 21.982 14.7191C21.8803 14.6715 21.7698 14.6454 21.6576 14.6422C21.5453 14.6391 21.4336 14.659 21.3293 14.7008C21.2251 14.7425 21.1305 14.8052 21.0515 14.885C20.9724 14.9648 20.9106 15.06 20.8698 15.1646C20.829 15.2692 20.8101 15.3811 20.8143 15.4934C20.8185 15.6056 20.8456 15.7158 20.8941 15.8171L22.1513 18.8413C22.6348 18.5796 23.1445 18.3696 23.6721 18.2148L22.4149 15.2079Z" fill="#F03E31"/>
<path d="M29.5826 36.7964C29.624 36.8959 29.6846 36.9864 29.761 37.0625C29.8373 37.1387 29.928 37.199 30.0277 37.2401C30.1273 37.2813 30.2342 37.3023 30.342 37.3022C30.4498 37.302 30.5566 37.2806 30.6562 37.2392C30.7557 37.1978 30.8462 37.1372 30.9223 37.0608C30.9984 36.9844 31.0588 36.8938 31.0999 36.7941C31.141 36.6944 31.1621 36.5876 31.162 36.4798C31.1618 36.3719 31.1404 36.2652 31.099 36.1656L29.8375 33.1414C29.3547 33.4027 28.8466 33.614 28.321 33.7722L29.5826 36.7964Z" fill="#F03E31"/>
<path d="M15.8309 20.9021C15.6315 20.8277 15.4111 20.8337 15.216 20.9187C15.021 21.0037 14.8666 21.1611 14.7853 21.3578C14.7041 21.5544 14.7024 21.7749 14.7806 21.9728C14.8588 22.1707 15.0107 22.3305 15.2044 22.4185L18.2286 23.6757C18.3842 23.1499 18.5942 22.6416 18.8551 22.1593L15.8309 20.9021Z" fill="#F03E31"/>
<path d="M36.1665 31.098C36.2647 31.1405 36.3706 31.1626 36.4776 31.1628C36.6685 31.1642 36.8539 31.0991 37.0019 30.9786C37.15 30.858 37.2514 30.6897 37.2888 30.5025C37.3261 30.3153 37.297 30.1209 37.2065 29.9528C37.1161 29.7847 36.9698 29.6534 36.793 29.5815L33.7688 28.3243C33.6121 28.8498 33.4022 29.3579 33.1423 29.8408L36.1665 31.098Z" fill="#F03E31"/>
<path d="M15.2043 29.5815C15.0274 29.6534 14.8812 29.7847 14.7907 29.9528C14.7002 30.1209 14.6711 30.3153 14.7085 30.5025C14.7458 30.6897 14.8472 30.858 14.9953 30.9786C15.1433 31.0991 15.3288 31.1642 15.5197 31.1628C15.6267 31.1626 15.7325 31.1405 15.8307 31.098L18.8549 29.8408C18.5958 29.3576 18.3859 28.8495 18.2285 28.3243L15.2043 29.5815Z" fill="#F03E31"/>
<path d="M36.793 22.4185C36.9867 22.3305 37.1386 22.1707 37.2168 21.9728C37.295 21.7749 37.2933 21.5544 37.2121 21.3578C37.1308 21.1611 36.9764 21.0037 36.7814 20.9187C36.5863 20.8337 36.3659 20.8277 36.1665 20.9021L33.1423 22.1593C33.4015 22.6425 33.6113 23.1505 33.7688 23.6757L36.793 22.4185Z" fill="#F03E31"/>
<path d="M20.8943 36.1655C20.8106 36.365 20.809 36.5895 20.8899 36.7901C20.9708 36.9908 21.1276 37.1513 21.3263 37.237C21.426 37.2795 21.5333 37.3015 21.6417 37.3018C21.804 37.3011 21.9624 37.2523 22.097 37.1615C22.2316 37.0708 22.3362 36.9422 22.3977 36.792L23.6592 33.7678C23.1333 33.6104 22.6252 33.399 22.1428 33.137L20.8943 36.1655Z" fill="#F03E31"/>
<path d="M31.099 15.8171C31.1446 15.7168 31.1695 15.6083 31.1722 15.4981C31.175 15.388 31.1556 15.2784 31.1151 15.1759C31.0746 15.0734 31.0139 14.9801 30.9366 14.9016C30.8592 14.8231 30.7669 14.7609 30.6651 14.7189C30.5632 14.6768 30.4539 14.6557 30.3437 14.6567C30.2336 14.6578 30.1247 14.681 30.0237 14.725C29.9227 14.7691 29.8316 14.833 29.7558 14.913C29.68 14.993 29.6211 15.0874 29.5826 15.1906L28.321 18.2148C28.8475 18.3689 29.3558 18.5789 29.8375 18.8413L31.099 15.8171Z" fill="#F03E31"/>
<path d="M25.1758 34.0573V40.1791C25.1758 40.3968 25.2623 40.6056 25.4162 40.7596C25.5701 40.9135 25.7789 41 25.9966 41C26.2143 41 26.4231 40.9135 26.5771 40.7596C26.731 40.6056 26.8175 40.3968 26.8175 40.1791V34.0573C26.5496 34.0832 26.2774 34.0962 25.9966 34.0962C25.7158 34.0962 25.448 34.0832 25.1758 34.0573Z" fill="#F03E31"/>
<path d="M26.8175 17.947V11.8208C26.8175 11.6031 26.731 11.3944 26.5771 11.2404C26.4231 11.0865 26.2143 11 25.9966 11C25.7789 11 25.5701 11.0865 25.4162 11.2404C25.2623 11.3944 25.1758 11.6031 25.1758 11.8208V17.947C25.4484 17.9174 25.7224 17.903 25.9966 17.9038C26.2708 17.9028 26.5449 17.9172 26.8175 17.947V17.947Z" fill="#F03E31"/>
<path d="M31.1118 32.273L35.4321 36.5933C35.5876 36.7377 35.7929 36.8164 36.0051 36.8127C36.2173 36.809 36.4198 36.7232 36.5702 36.5734C36.7205 36.4237 36.807 36.2215 36.8115 36.0093C36.816 35.7971 36.7381 35.5915 36.5942 35.4354L32.274 31.1152C31.9275 31.5401 31.5381 31.9281 31.1118 32.273V32.273Z" fill="#F03E31"/>
<path d="M20.8943 19.7269L16.574 15.4066C16.4977 15.3303 16.4071 15.2698 16.3074 15.2285C16.2077 15.1872 16.1008 15.166 15.9929 15.166C15.885 15.166 15.7781 15.1872 15.6784 15.2285C15.5787 15.2698 15.4881 15.3303 15.4118 15.4066C15.3355 15.483 15.275 15.5735 15.2337 15.6732C15.1924 15.7729 15.1711 15.8798 15.1711 15.9877C15.1711 16.0956 15.1924 16.2025 15.2337 16.3022C15.275 16.4019 15.3355 16.4925 15.4118 16.5688L19.7321 20.8891C20.0819 20.4658 20.471 20.0767 20.8943 19.7269Z" fill="#F03E31"/>
<path d="M40.1799 25.1791H34.0537C34.0796 25.4513 34.0969 25.7235 34.0969 26C34.0969 26.2765 34.0969 26.5487 34.0537 26.8208H40.1799C40.3976 26.8208 40.6064 26.7344 40.7603 26.5804C40.9142 26.4265 41.0007 26.2177 41.0007 26C41.0007 25.7823 40.9142 25.5735 40.7603 25.4196C40.6064 25.2656 40.3976 25.1791 40.1799 25.1791Z" fill="#F03E31"/>
<path d="M17.9434 25.1791H11.8216C11.6039 25.1791 11.3951 25.2656 11.2412 25.4196C11.0872 25.5735 11.0007 25.7823 11.0007 26C11.0007 26.2177 11.0872 26.4265 11.2412 26.5804C11.3951 26.7344 11.6039 26.8208 11.8216 26.8208H17.9434C17.9175 26.5487 17.9002 26.2765 17.9002 26C17.9002 25.7235 17.9175 25.4513 17.9434 25.1791Z" fill="#F03E31"/>
<path d="M19.728 31.1109L15.4077 35.4312C15.2536 35.5853 15.167 35.7943 15.167 36.0123C15.167 36.2302 15.2536 36.4392 15.4077 36.5933C15.5618 36.7474 15.7708 36.834 15.9888 36.834C16.2067 36.834 16.4157 36.7474 16.5698 36.5933L20.8901 32.2731C20.4636 31.9268 20.0742 31.5374 19.728 31.1109V31.1109Z" fill="#F03E31"/>
<path d="M32.2693 20.8891L36.5896 16.5688C36.7437 16.4147 36.8303 16.2057 36.8303 15.9877C36.8303 15.7698 36.7437 15.5608 36.5896 15.4066C36.4355 15.2525 36.2265 15.166 36.0085 15.166C35.7906 15.166 35.5816 15.2525 35.4275 15.4066L31.1072 19.7269C31.5316 20.0754 31.9208 20.4647 32.2693 20.8891V20.8891Z" fill="#F03E31"/>
<path d="M25.9964 32.6187C24.6876 32.6179 23.4083 32.229 22.3205 31.5012C21.2326 30.7734 20.3849 29.7394 19.8847 28.5299C19.3844 27.3205 19.2539 25.9898 19.5098 24.7062C19.7657 23.4226 20.3964 22.2437 21.3222 21.3184C22.248 20.3932 23.4273 19.7633 24.7111 19.5083C25.9949 19.2532 27.3254 19.3846 28.5346 19.8856C29.7437 20.3867 30.7772 21.2351 31.5043 22.3234C32.2313 23.4117 32.6194 24.6912 32.6194 26.0001C32.6171 27.7555 31.9185 29.4383 30.6768 30.6792C29.4351 31.92 27.7518 32.6176 25.9964 32.6187V32.6187ZM25.9964 21.0231C25.0123 21.024 24.0504 21.3166 23.2326 21.864C22.4147 22.4114 21.7774 23.189 21.4014 24.0985C21.0254 25.008 20.9274 26.0085 21.1199 26.9737C21.3125 27.9388 21.7868 28.8252 22.483 29.5208C23.1792 30.2164 24.0661 30.69 25.0314 30.8817C25.9967 31.0734 26.9972 30.9746 27.9063 30.5978C28.8155 30.2209 29.5926 29.583 30.1392 28.7647C30.6859 27.9463 30.9777 26.9842 30.9777 26.0001C30.9754 24.6801 30.4497 23.4148 29.5159 22.4818C28.5821 21.5488 27.3164 21.0243 25.9964 21.0231V21.0231Z" fill="#F03E31"/>
</svg>
