<?xml version="1.0" encoding="UTF-8"?>
<svg width="100px" height="100px" viewBox="0 0 100 100" version="1.1" xmlns="http://www.w3.org/2000/svg" xmlns:xlink="http://www.w3.org/1999/xlink">
    <!-- Generator: Sketch 64 (93537) - https://sketch.com -->
    <title>sonrisa</title>
    <desc>Created with Sketch.</desc>
    <g id="sonrisa" stroke="none" stroke-width="1" fill="none" fill-rule="evenodd">
        <path d="M70.3897868,41.7112092 C71.2486009,41.7112092 71.8972492,42.4897666 71.7421895,43.3344667 C69.1935018,57.2186484 61.9863604,64.3736933 50.3323182,64.3736933 C46.4062315,64.3736933 42.9848341,63.5616505 40.0762144,61.953849 C40.0195465,61.9280396 39.9636406,61.8970605 39.9096274,61.8618809 C34.2786886,58.6676646 30.5961279,52.4519791 28.9224468,43.3344667 C28.7673871,42.4897666 29.4160354,41.7112092 30.2748496,41.7112092 L30.2748496,41.7112092 Z M50.2568057,57.6762035 C47.6333106,57.6762035 45.2523326,58.5502274 43.0767477,60.3321866 C45.1178913,61.1571016 47.4145274,61.5842886 49.9691998,61.6210906 L49.9691998,61.6210906 L50.3323182,61.6236933 C52.9725056,61.6236933 55.3421025,61.2149081 57.4447608,60.3899851 C55.2900197,58.5682427 52.9075703,57.6762035 50.2568057,57.6762035 Z M66.3966066,51.4929232 L34.2679547,51.492764 C35.8300412,54.8036016 37.8915257,57.2895902 40.4621199,58.9702819 C43.3304935,56.2896046 46.6127239,54.9262035 50.2568057,54.9262035 C53.9395437,54.9262035 57.2295161,56.3189764 60.0701551,59.0554129 C62.7021786,57.374685 64.8077259,54.8604894 66.3966066,51.4929232 Z M68.7093613,44.4605086 L31.9543613,44.4605086 L32.0885972,45.0528494 C32.3958016,46.3619731 32.7497853,47.5919179 33.1508316,48.7432538 L67.5138099,48.743239 C67.9604901,47.4608939 68.348788,46.0810326 68.679095,44.6028676 L68.679095,44.6028676 L68.7093613,44.4605086 Z M31.8123613,35 C32.5717528,35 33.1873613,35.6156085 33.1873613,36.375 C33.1873613,37.0897214 32.6420472,37.677078 31.944783,37.7437056 L31.8123613,37.75 L30.375,37.75 C27.342365,37.75 24.8702572,40.1499022 24.7542569,43.1541263 L24.75,43.375 L24.75,44.6175086 C24.75,45.3769002 24.1343915,45.9925086 23.375,45.9925086 C22.6602786,45.9925086 22.072922,45.4471945 22.0062944,44.7499303 L22,44.6175086 L22,43.375 C22,38.8337131 25.6145051,35.1366392 30.1235921,35.0037014 L30.375,35 L31.8123613,35 Z M70.2497226,35 L70.5011305,35.0037014 C75.0102175,35.1366392 78.6247226,38.8337131 78.6247226,43.375 L78.6247226,43.375 L78.6247226,44.6175086 L78.6184282,44.7499303 C78.5518006,45.4471945 77.964444,45.9925086 77.2497226,45.9925086 C76.4903311,45.9925086 75.8747226,45.3769002 75.8747226,44.6175086 L75.8747226,44.6175086 L75.8747226,43.375 L75.8704657,43.1541263 C75.7544654,40.1499022 73.2823576,37.75 70.2497226,37.75 L70.2497226,37.75 L68.8123613,37.75 L68.6799396,37.7437056 C67.9826754,37.677078 67.4373613,37.0897214 67.4373613,36.375 C67.4373613,35.6156085 68.0529698,35 68.8123613,35 L68.8123613,35 L70.2497226,35 Z" id="smile" fill="#A40000" fill-rule="nonzero"></path>
    </g>
</svg>