<svg width="52" height="52" xmlns="http://www.w3.org/2000/svg"><g stroke="#F03E31" fill="none" fill-rule="evenodd"><circle cx="25" cy="25" r="25" stroke-width="1.3" transform="translate(1 1)"/><g fill-rule="nonzero" stroke-width="1.2"><path d="M32.984 17.62L27 23.604l3.01 3.01 6.001-5.984a2.135 2.135 0 0 0 0-3.01 2.157 2.157 0 0 0-3.027 0z"/><path d="M29.122 25.723l-3.027-3.01-.493-.493a.848.848 0 0 1-.228-.845c.14-.528.193-1.09.14-1.672a4.938 4.938 0 0 0-.528-1.865 5.042 5.042 0 0 0-1.161-1.496 4.975 4.975 0 0 0-1.637-.968 5.1 5.1 0 0 0-2.464-.229c-.422.07-.598.598-.282.898l2.06 2.059c.827.827.88 2.235.052 3.062a2.115 2.115 0 0 1-1.513.616 2.134 2.134 0 0 1-1.514-.633l-2.112-2.077a.537.537 0 0 0-.37-.159.529.529 0 0 0-.528.458 4.508 4.508 0 0 0-.053.686c-.052 2.5 2.042 4.858 4.559 5.087.158.017.316.017.475.017.44 0 .845-.052 1.25-.158a.918.918 0 0 1 .862.246l.475.476.845.844 1.25 1.25.915.915 6.828 6.83c.423.421.968.633 1.514.633s1.091-.211 1.514-.634a2.135 2.135 0 0 0 0-3.01l-6.829-6.828z"/><path d="M22.236 33.145l-.035-.43a.738.738 0 0 1 .224-.583l2.008-2.009a.135.135 0 0 1 .19 0 1.037 1.037 0 0 0 1.476 0l.67-.67-.824-.824-.653-.652-.652-.653-.825-.824-.67.67a1.037 1.037 0 0 0 0 1.476.135.135 0 0 1 0 .19l-2.026 2.008a.74.74 0 0 1-.583.224l-.43-.035a.513.513 0 0 0-.446.19l-2.541 3.124a.526.526 0 0 0 .034.704l.532.533.533.532c.189.19.48.206.704.034l3.125-2.54a.697.697 0 0 0 .189-.465z"/></g></g></svg>