<svg width="16" height="16" xmlns="http://www.w3.org/2000/svg"><g fill="#41494F" fill-rule="nonzero"><path d="M13.228.451L8.876 4.803l2.189 2.189 4.364-4.352a1.553 1.553 0 0 0 0-2.189 1.569 1.569 0 0 0-2.201 0z"/><path d="M10.27 7.798L8.07 5.61l-.36-.358a.617.617 0 0 1-.166-.614c.103-.384.141-.794.103-1.216a3.591 3.591 0 0 0-.384-1.357c-.205-.41-.5-.78-.845-1.088a3.618 3.618 0 0 0-1.19-.704A3.709 3.709 0 0 0 3.436.105C3.128.157 3 .541 3.23.758l1.497 1.498c.602.601.64 1.625.039 2.227a1.538 1.538 0 0 1-1.101.448c-.397 0-.794-.154-1.101-.46L1.029 2.96a.39.39 0 0 0-.269-.115.385.385 0 0 0-.384.332 3.278 3.278 0 0 0-.038.5C.299 5.494 1.823 7.209 3.653 7.376c.115.013.23.013.345.013.32 0 .615-.039.91-.116.23-.05.46.013.626.18l.346.345.614.615.91.909.665.665 4.966 4.967c.307.307.704.46 1.101.46s.794-.153 1.101-.46a1.553 1.553 0 0 0 0-2.19l-4.966-4.966z"/><path d="M3.91 13.558l-.026-.32a.55.55 0 0 1 .166-.435l1.498-1.497a.1.1 0 0 1 .14 0 .773.773 0 0 0 1.101 0l.5-.5-.615-.614-.486-.486-.487-.487-.614-.614-.5.499a.773.773 0 0 0 0 1.1.1.1 0 0 1 0 .142l-1.51 1.497a.551.551 0 0 1-.435.167l-.32-.026a.382.382 0 0 0-.333.14l-1.894 2.33a.392.392 0 0 0 .026.525l.396.397.397.397c.141.141.359.154.525.026l2.33-1.895a.52.52 0 0 0 .14-.346z"/></g></svg>