<svg width="18" height="18" xmlns="http://www.w3.org/2000/svg"><g fill="#F03E31" fill-rule="nonzero"><path d="M14.881.507L9.985 5.403l2.463 2.463 4.91-4.896a1.747 1.747 0 0 0 0-2.463 1.765 1.765 0 0 0-2.477 0z"/><path d="M11.555 8.773L9.078 6.311l-.403-.404c-.187-.187-.26-.446-.187-.69.115-.433.158-.894.115-1.369a4.04 4.04 0 0 0-.432-1.526 4.126 4.126 0 0 0-.95-1.224A4.07 4.07 0 0 0 5.88.306 4.173 4.173 0 0 0 3.865.119c-.345.057-.49.49-.23.734l1.684 1.685c.677.677.72 1.829.044 2.505a1.73 1.73 0 0 1-1.239.504c-.446 0-.893-.172-1.238-.518l-1.728-1.7A.44.44 0 0 0 .855 3.2a.433.433 0 0 0-.432.375 3.688 3.688 0 0 0-.043.561C.337 6.181 2.05 8.111 4.11 8.298c.13.014.259.014.388.014.36 0 .691-.043 1.023-.13a.751.751 0 0 1 .705.202l.39.39.69.69 1.023 1.023.748.748 5.588 5.588c.345.345.792.518 1.238.518a1.747 1.747 0 0 0 1.238-2.98l-5.586-5.588z"/><path d="M4.398 15.253l-.029-.36a.62.62 0 0 1 .187-.49l1.685-1.684a.113.113 0 0 1 .159 0 .87.87 0 0 0 1.238 0l.562-.562-.692-.69-.547-.548-.547-.547-.691-.692-.562.562a.87.87 0 0 0 0 1.238.113.113 0 0 1 0 .159l-1.7 1.685a.62.62 0 0 1-.489.187l-.36-.029a.43.43 0 0 0-.374.159L.107 16.26a.441.441 0 0 0 .029.59l.446.447.446.447a.44.44 0 0 0 .59.028l2.622-2.13a.584.584 0 0 0 .158-.39z"/></g></svg>