<?xml version="1.0" encoding="UTF-8"?>
<svg width="20px" height="13px" viewBox="0 0 20 13" version="1.1" xmlns="http://www.w3.org/2000/svg" xmlns:xlink="http://www.w3.org/1999/xlink">
    <!-- Generator: Sketch 64 (93537) - https://sketch.com -->
    <title>633611 copy</title>
    <desc>Created with Sketch.</desc>
    <g id="Page-1" stroke="none" stroke-width="1" fill="none" fill-rule="evenodd">
        <g id="633611-copy" transform="translate(0.269006, 0.000000)" fill="#F03E31" fill-rule="nonzero">
            <path d="M17.4347105,0.0126578947 C18.5521404,0.0126578947 19.4619503,0.922505848 19.4619503,2.03997368 L19.4619503,2.03997368 L19.4619503,10.9600643 C19.4619503,12.0774942 18.5521023,12.9873421 17.4346725,12.9873421 L17.4346725,12.9873421 L2.02727778,12.9873421 C0.909847953,12.9873421 3.73567843e-12,12.0774942 3.73567843e-12,10.9600643 L3.73567843e-12,10.9600643 L3.73567843e-12,2.03997368 C3.73567843e-12,0.922505848 0.909847953,0.0126578947 2.02727778,0.0126578947 L2.02727778,0.0126578947 Z M7.70371637,9.74365205 L2.8382193,9.74365205 L2.75653795,9.75189479 C2.57183036,9.78972519 2.43274854,9.95328655 2.43274854,10.1491228 C2.43274854,10.3729357 2.61440643,10.5545936 2.8382193,10.5545936 L2.8382193,10.5545936 L7.70371637,10.5545936 L7.78539772,10.5463508 C7.97010531,10.5085204 8.10918713,10.3449591 8.10918713,10.1491228 C8.10918713,9.92530994 7.92752924,9.74365205 7.70371637,9.74365205 L7.70371637,9.74365205 Z M15.8128655,7.31090351 L15.001962,7.31090351 L14.8777834,7.31719609 C14.2652367,7.37960816 13.7855877,7.89855245 13.7855877,8.52727778 L13.7855877,8.52727778 L13.7855877,9.33818129 L13.7918803,9.46235986 C13.8542924,10.0749066 14.3732367,10.5545556 15.001962,10.5545556 L15.001962,10.5545556 L15.8128655,10.5545556 L15.9370441,10.548263 C16.5495908,10.4858509 17.0292398,9.96690662 17.0292398,9.33818129 L17.0292398,9.33818129 L17.0292398,8.52727778 L17.0229472,8.40310546 C16.9605351,7.79058587 16.4415908,7.31090351 15.8128655,7.31090351 L15.8128655,7.31090351 Z M15.8128655,8.12184503 C16.0366784,8.12184503 16.2183363,8.30350292 16.2183363,8.52731579 L16.2183363,8.52731579 L16.2183363,9.3382193 L16.2100935,9.41990064 C16.1722631,9.60460823 16.0087018,9.74369006 15.8128655,9.74369006 L15.8128655,9.74369006 L15.001962,9.74369006 L14.9202806,9.73544731 C14.7355731,9.69761691 14.5964912,9.53405556 14.5964912,9.3382193 L14.5964912,9.3382193 L14.5964912,8.52731579 L14.604734,8.44563445 C14.6425644,8.26092685 14.8061257,8.12184503 15.001962,8.12184503 L15.001962,8.12184503 Z M7.70371637,8.12184503 L2.8382193,8.12184503 L2.75653795,8.13008778 C2.57183036,8.16791817 2.43274854,8.33147953 2.43274854,8.52731579 C2.43274854,8.75112865 2.61440643,8.93274854 2.8382193,8.93274854 L2.8382193,8.93274854 L7.70371637,8.93274854 L7.78539772,8.92450579 C7.97010531,8.88667539 8.10918713,8.72311404 8.10918713,8.52727778 C8.10918713,8.30346491 7.92752924,8.12184503 7.70371637,8.12184503 L7.70371637,8.12184503 Z M18.6510848,2.87719805 L0.810903509,2.87719805 L0.810903509,5.25726686 L18.6510848,5.25726686 L18.6510848,2.87719805 Z" id="Combined-Shape"></path>
        </g>
    </g>
</svg>