<svg height="100" width="100" xmlns="http://www.w3.org/2000/svg"><path d="M70.22 25.552c-1.294-.805-2.92-.667-4.242.362-.5.389-1.106 1.045-1.749 1.74-.528.572-1.413 1.53-1.676 1.666-1.304.41-2.105.02-2.502-.296.397-1.48 1.097-5.11-1.05-6.719-2.79-2.092-6.822-2.702-9.129.18a10.56 10.56 0 0 0-2.157 4.66L44.28 26.8c-.55-1.811-2.194-6.234-5.257-6.744-1.282-.217-3.374.161-4.94 1.488-1.25 1.06-1.912 2.495-1.912 4.153 0 2.517 1.388 4.618 2.239 5.67-2.53 3.175-11.328 16.354 1.585 32.495 6.34 7.924 11.551 11.784 15.919 11.784.106 0 .212-.002.317-.007 4.378-.19 6.978-4.09 9.067-7.223 2.413-3.62 5.016-12.224 6.481-19.849l.078-.02-.042-.169c1.06-5.581 1.504-10.61.799-12.726-.334-.999.515-2.193 1.413-3.46.722-1.017 1.468-2.068 1.703-3.203.277-1.346-.315-2.695-1.51-3.438zM59.585 67.277c-1.83 2.745-4.11 6.164-7.445 6.308-3.69.145-8.571-3.543-14.542-11.007-2.295-2.87-3.85-5.618-4.868-8.215 4.083-.528 19.58-3.08 24.816-11.873 3.837 4.804 5.392 6.688 8.042 6.516-1.407 7.029-3.736 14.87-6.003 18.27zm10.129-38.703c-.147.713-.767 1.585-1.365 2.43-1.102 1.551-2.35 3.31-1.688 5.3.53 1.589.186 5.746-.672 10.58-1.92.367-2.762-.575-7.06-5.959l-.77-.963a1.039 1.039 0 0 0-.94-.377 1.03 1.03 0 0 0-.808.615c-3.959 9.237-21.264 11.789-24.37 12.175-3.486-11.762 4.06-19.884 4.468-20.312a1.03 1.03 0 0 0-.025-1.45c-.023-.02-2.259-2.223-2.259-4.916 0-1.048.399-1.917 1.185-2.583.856-.725 2.015-1.06 2.856-1.06.15 0 .29.01.417.031 1.967.329 3.438 4.488 3.797 5.919.106.42.464.73.896.773l5.14.514c.287.024.576-.067.792-.262s.338-.471.338-.762c0-.022.05-2.271 1.83-4.497 1.666-2.081 4.675-1.032 6.292.18 1.1.825.579 3.74.155 5.021-.1.301-.055.632.12.895.068.101 1.705 2.492 5.125 1.416.683-.214 1.386-.95 2.572-2.232.557-.603 1.133-1.227 1.5-1.513.914-.71 1.628-.404 1.893-.239.454.283.682.784.58 1.276z" fill="#a40000" stroke="#a40000" stroke-width=".7"/></svg>