<svg height="100" width="100" xmlns="http://www.w3.org/2000/svg"><g fill="#fff"><path d="M72.688 32.367h-10.1v-2.143c0-2.549-2.062-4.624-4.598-4.624H42.01c-2.535 0-4.597 2.074-4.597 4.624v2.143h-10.1c-2.599 0-4.713 2.126-4.713 4.74V69.66c0 2.613 2.114 4.74 4.713 4.74h45.375c2.599 0 4.713-2.127 4.713-4.74V37.107c-.001-2.614-2.115-4.74-4.713-4.74zm-32.373 0v-2.143c0-.942.761-1.709 1.696-1.709H57.99c.935 0 1.695.767 1.695 1.709v2.143zm-14.814 4.74c0-1.007.813-1.826 1.812-1.826h45.375a1.82 1.82 0 0 1 1.811 1.826V69.66a1.82 1.82 0 0 1-1.811 1.825H27.313a1.82 1.82 0 0 1-1.812-1.825z"/><path d="M42.825 58.944h2.983v3.182c0 .702.55 1.274 1.226 1.274h6.932c.676 0 1.226-.572 1.226-1.274v-3.182h2.983c.676 0 1.226-.572 1.226-1.274v-7.34c0-.703-.55-1.274-1.226-1.274h-2.983v-3.182c0-.703-.55-1.274-1.226-1.274h-6.932c-.676 0-1.226.571-1.226 1.274v3.182h-2.983c-.676 0-1.225.571-1.225 1.274v7.34c0 .702.549 1.274 1.225 1.274zm11.071-7.319h2.915v4.75h-2.915c-.666 0-1.208.569-1.208 1.269V60.8h-4.375v-3.156c0-.699-.542-1.269-1.208-1.269H44.19v-4.75h2.915c.666 0 1.208-.569 1.208-1.269V47.2h4.375v3.157c0 .699.541 1.268 1.208 1.268z"/><path d="M50.5 69.4c8.216 0 14.9-6.909 14.9-15.4 0-8.492-6.685-15.4-14.9-15.4S35.6 45.508 35.6 54c0 8.491 6.684 15.4 14.9 15.4zm0-28.089c6.756 0 12.252 5.692 12.252 12.689S57.256 66.688 50.5 66.688 38.247 60.997 38.247 54 43.744 41.311 50.5 41.311z"/></g></svg>