<svg height="100" width="100" xmlns="http://www.w3.org/2000/svg"><path d="M57.135 37.874c-.033 3.919-3.21 7.066-7.096 7.03-3.892-.035-7.075-3.244-7.011-7.067.065-3.927 3.188-7.02 7.072-7.006 3.887.015 7.068 3.2 7.035 7.043zM39.94 69.084c-.319-.08-.425-.188-.266-.5 1.107-2.172 1.303-4.48 1.263-6.89-.09-5.498-.033-2.668-.019-8.168.001-.373-.114-.558-.438-.735-3.196-1.738-5.874-4.105-8.226-6.856-2.89-3.382-5.259-7.096-7.019-11.19-.417-.97-.712-1.958-.414-3.03.385-1.381 1.616-2.4 3.029-2.497 1.48-.102 2.901.722 3.41 2.09 1.226 3.294 3.083 6.217 5.214 8.978a27.936 27.936 0 0 0 5.945 5.7c4.413 3.148 11.096 3.125 15.626-.267 3.157-2.364 5.665-5.274 7.765-8.569 1.172-1.836 2.231-3.732 2.981-5.795.606-1.668 2.48-2.52 4.174-1.985 1.731.547 2.749 2.3 2.307 4.054-.357 1.423-1.032 2.721-1.711 4.01-2.09 3.964-4.649 7.593-7.845 10.75-1.868 1.844-3.93 3.439-6.252 4.679-.271.144-.345.309-.345.597.007 6.59.006 4.85.003 11.44 0 .245.048.473.136.701.379.986.729 1.983 1.132 2.959.152.366.04.446-.289.53a41.079 41.079 0 0 1-10.08 1.261c-3.414.001-6.772-.435-10.081-1.267z" fill="none" stroke="#a40000" stroke-width="2.6"/></svg>