<svg height="100" width="100" xmlns="http://www.w3.org/2000/svg"><g fill="#a40000"><path d="M70.959 32H30.04A2.042 2.042 0 0 0 28 34.042v29.722a2.04 2.04 0 0 0 2.041 2.04H70.96A2.04 2.04 0 0 0 73 63.765V34.042A2.042 2.042 0 0 0 70.959 32zm0 31.764H30.04v-4.04H70.96zm0-20.412h-13.96l-3.266 6.36-6.12-14.316-4.904 9.916H30.058v2.043l13.975-.002 3.301-6.336 6.134 14.356 4.862-9.98h12.629v12.288H30.04v-23.64H70.96z"/><path d="M33.104 60.722a1.02 1.02 0 1 0 0 2.041 1.021 1.021 0 0 0 0-2.04zM37.188 60.722a1.02 1.02 0 1 0-.002 2.042 1.02 1.02 0 0 0 .002-2.042zM41.271 60.722a1.02 1.02 0 1 0 0 2.042 1.02 1.02 0 0 0 0-2.042zM67.896 60.722h-4.125a1.02 1.02 0 1 0 0 2.041h4.125a1.02 1.02 0 0 0 0-2.04z"/></g></svg>