<svg height="100" width="100" xmlns="http://www.w3.org/2000/svg"><path d="M86.98 59.524v-3.525c0-4.905-8.426-7.605-16.788-7.75-7.123-8.684-18.237-12.073-33.001-9.995-8.145 1.449-11.803 5.98-14.294 10.244l-6.864 2.323a1.498 1.498 0 0 0-1.013 1.424v7.28a1.498 1.498 0 0 0-1.231 1.479v5.006c0 .828.665 1.501 1.481 1.501h9.867c.853 3.591 4.079 6.272 7.926 6.272 3.848 0 7.073-2.683 7.926-6.272H65.36c.853 3.591 4.079 6.272 7.926 6.272 3.848 0 7.073-2.683 7.926-6.272h5.519c.816 0 1.481-.673 1.481-1.501v-5.006a1.5 1.5 0 0 0-1.232-1.48zM26.679 48.33c1.351-2.002 2.784-3.489 4.459-4.627l.042 4.627zm39.818 0H49.076v-7.487c7.26.574 12.967 3.026 17.421 7.487zm-32.204-5.928a19.523 19.523 0 0 1 3.674-1.02 55.934 55.934 0 0 1 8-.558v7.505H34.349zm-9.272 21.94h-8.124v-1.946a1.47 1.47 0 0 0 1.227-1.443v-3.39h.977a1.47 1.47 0 0 0 1.476-1.462c0-.808-.662-1.464-1.476-1.464h-.977v-1.12l6.125-2.019h45.155c6.711 0 11.516 1.557 13.491 3.139-.812.003-1.472.658-1.472 1.464s.662 1.462 1.477 1.462h.978v3.39c0 .723.53 1.325 1.226 1.442v1.947h-3.775c-.62-3.885-3.985-6.865-8.041-6.865-4.057 0-7.421 2.981-8.041 6.865H41.104c-.621-3.885-3.986-6.865-8.042-6.865s-7.42 2.981-8.041 6.865zm8.041 6.179c-2.696 0-4.892-2.195-4.892-4.892s2.195-4.893 4.892-4.893 4.892 2.196 4.892 4.893-2.195 4.892-4.892 4.892zm40.224 0c-2.696 0-4.892-2.195-4.892-4.892s2.195-4.893 4.892-4.893 4.893 2.196 4.893 4.893-2.197 4.892-4.893 4.892z" fill="#a40000"/><path d="M0 0h100v100H0z" fill="none"/></svg>