<svg width="52" height="52" xmlns="http://www.w3.org/2000/svg"><g stroke="#F03E31" fill="none" fill-rule="evenodd"><circle cx="25" cy="25" r="25" stroke-width="1.3" transform="translate(1 1)"/><path d="M26 13c-7.18 0-13 5.82-13 13s5.82 13 13 13 13-5.82 13-13-5.82-13-13-13zm0 3.25c4.23 0 7.804 2.725 9.154 6.5H16.846c1.35-3.775 4.923-6.5 9.154-6.5zm0 11.375a1.625 1.625 0 1 1 0-3.25 1.625 1.625 0 0 1 0 3.25zM16.25 26c4.44 0 8.036 4.279 8.112 9.585-4.595-.787-8.112-4.77-8.112-9.585zm11.388 9.585C27.714 30.28 31.31 26 35.75 26c0 4.815-3.517 8.798-8.112 9.585z" fill-rule="nonzero" stroke-width="1.2"/></g></svg>