<?xml version="1.0" encoding="UTF-8"?>
<svg width="52px" height="52px" viewBox="0 0 52 52" version="1.1" xmlns="http://www.w3.org/2000/svg" xmlns:xlink="http://www.w3.org/1999/xlink">
    <!-- Generator: Sketch 64 (93537) - https://sketch.com -->
    <title>Group 33</title>
    <desc>Created with Sketch.</desc>
    <g id="Page-1" stroke="none" stroke-width="1" fill="none" fill-rule="evenodd">
        <g id="Group-33" transform="translate(1.000000, 1.000000)">
            <circle id="Oval-Copy-9" stroke="#F03E31" stroke-width="1.3" cx="25" cy="25" r="25"></circle>
            <g id="550096" transform="translate(14.000000, 14.000000)" fill="#F03E31" fill-rule="nonzero">
                <path d="M21.9060435,16.0599565 L13.3973478,1.32247826 C12.9242174,0.503 12.0767826,0.0136956522 11.1304348,0.0136956522 C10.1841304,0.0136956522 9.33665217,0.503 8.86352174,1.32247826 L0.354869565,16.059913 C-0.118304348,16.8794783 -0.118304348,17.858 0.354869565,18.6775217 C0.828043478,19.4970435 1.67543478,19.9863043 2.62178261,19.9863043 L19.639087,19.9863043 C20.5853913,19.9863043 21.4328261,19.497 21.9060435,18.6775652 C22.3792174,17.858 22.3792174,16.8794783 21.9060435,16.0599565 Z M20.7765652,18.0254783 C20.5391304,18.4366957 20.113913,18.6821739 19.639087,18.6821739 L2.62178261,18.6821739 C2.14691304,18.6821739 1.72169565,18.4366957 1.48430435,18.0254783 C1.24691304,17.6142609 1.24691304,17.1233043 1.48430435,16.712087 L9.99304348,1.9746087 C10.2304348,1.5633913 10.6556522,1.31791304 11.1304783,1.31791304 C11.6052609,1.31791304 12.0305217,1.5633913 12.267913,1.9746087 L20.7766087,16.712087 C21.0139565,17.1233043 21.0139565,17.6142609 20.7765652,18.0254783 Z" id="Shape"></path>
                <rect id="Rectangle" x="10.4783043" y="6.52217391" width="1.30417391" height="6.52095652"></rect>
                <path d="M11.1304348,14.3473913 C10.651,14.3473913 10.2609565,14.7374348 10.2609565,15.2168696 C10.2609565,15.6963043 10.651,16.0863478 11.1304348,16.0863478 C11.6098261,16.0863478 11.999913,15.6963043 11.999913,15.2168696 C11.999913,14.7374348 11.6098696,14.3473913 11.1304348,14.3473913 Z" id="Path"></path>
            </g>
        </g>
    </g>
</svg>