<svg xmlns="http://www.w3.org/2000/svg" width="47.019" height="47" viewBox="0 0 47.019 47"><defs><style>.a{fill:#ffffff;}</style></defs><g transform="translate(0 0)"><path class="a" d="M45.811,36.634l-7.791-7.79a4.129,4.129,0,0,0-5.843,0L30.23,30.792a4.138,4.138,0,0,1-5.849-.006l-8.157-8.049a4.136,4.136,0,0,1,0-5.843l1.948-1.948a4.136,4.136,0,0,0,0-5.843l-7.79-7.79a4.136,4.136,0,0,0-5.843,0L2.591,3.26C.063,5.788-.681,11.362.65,17.806a37.789,37.789,0,0,0,10.1,18.829,36.6,36.6,0,0,0,18.714,9.921c4.474.864,11.2,1.069,14.4-2.13l1.948-1.948A4.137,4.137,0,0,0,45.811,36.634ZM6.486,3.26a1.379,1.379,0,0,1,1.948,0l7.79,7.79a1.379,1.379,0,0,1,0,1.948l-.969.969L5.517,4.229Zm23.5,40.591A33.81,33.81,0,0,1,12.7,34.687,35,35,0,0,1,3.348,17.248c-1.041-5.041-.608-8.83.4-10.89L13.4,16.012a6.9,6.9,0,0,0,.878,8.678l8.157,8.049a6.9,6.9,0,0,0,8.672.872l9.661,9.661C37.829,44.765,33.25,44.48,29.99,43.851Zm13.873-3.321-.969.969-9.738-9.738.969-.969a1.376,1.376,0,0,1,1.948,0l7.79,7.79A1.379,1.379,0,0,1,43.863,40.529Z" transform="translate(0 -0.104)"/></g><g transform="translate(24.982 0.001)"><g transform="translate(0 0)"><path class="a" d="M273.414.115a1.377,1.377,0,1,0,0,2.754,17.923,17.923,0,0,1,17.9,17.9,1.377,1.377,0,0,0,2.754,0A20.681,20.681,0,0,0,273.414.115Z" transform="translate(-272.037 -0.115)"/></g></g><g transform="translate(24.982 5.51)"><path class="a" d="M273.414,60.1a1.377,1.377,0,1,0,0,2.754,12.409,12.409,0,0,1,12.394,12.395,1.377,1.377,0,0,0,2.754,0A15.166,15.166,0,0,0,273.414,60.1Z" transform="translate(-272.037 -60.1)"/></g><g transform="translate(24.982 11.018)"><path class="a" d="M273.414,120.085a1.377,1.377,0,1,0,0,2.754,6.894,6.894,0,0,1,6.886,6.886,1.377,1.377,0,1,0,2.754,0A9.651,9.651,0,0,0,273.414,120.085Z" transform="translate(-272.037 -120.085)"/></g><g transform="translate(24.982 16.527)"><path class="a" d="M273.414,180.07a1.377,1.377,0,1,0,0,2.754,1.379,1.379,0,0,1,1.377,1.377,1.377,1.377,0,1,0,2.754,0A4.136,4.136,0,0,0,273.414,180.07Z" transform="translate(-272.037 -180.07)"/></g></svg>